<?xml version="1.0" standalone="no"?>
<!DOCTYPE svg PUBLIC "-//W3C//DTD SVG 1.1//EN" "http://www.w3.org/Graphics/SVG/1.1/DTD/svg11.dtd" >
<svg xmlns="http://www.w3.org/2000/svg">
<metadata>
Just Sans Web is a licensed version of FS Me Copyright (c) 2009 by Fontsmith Ltd for JRP Group PLC. All rights reserved. This font may not be altered in any way without prior permission of Fontsmith Ltd.
</metadata>
<defs>
<font id="JustSansWeb-Regular" horiz-adv-x="570" >
  <font-face 
    font-family="Just Sans Web"
    font-weight="400"
    font-stretch="normal"
    units-per-em="1000"
    panose-1="2 11 6 3 3 2 2 2 2 3"
    ascent="800"
    descent="-200"
    x-height="528"
    cap-height="720"
    bbox="-349 -299 1231 941"
    underline-thickness="66"
    underline-position="-34"
    unicode-range="U+000D-FB02"
  />
<missing-glyph horiz-adv-x="694" 
d="M90 720h514v-720h-514v720zM522 669h-350l176 -263zM316 360l-174 262v-524zM553 622l-175 -262l175 -262v524zM522 52l-174 262l-176 -262h350z" />
    <glyph glyph-name="fi" unicode="fi" horiz-adv-x="572" 
d="M109.5 2.5q-7.5 2.5 -7.5 9.5v445h-73q-5 0 -7 6t-2 25v8q0 20 2 26t7 6h73v19q0 111 50.5 167t157.5 56q84 0 154 -38q5 -1 5 -11t-4 -21l-3 -9q-11 -32 -23 -27q-38 16 -67 23.5t-62 7.5q-68 0 -93 -36.5t-25 -107.5v-23h116q5 0 7 -6t2 -26v-8q0 -19 -2 -25t-7 -6
h-116v-445q0 -6 -7 -9t-34 -3h-6q-28 0 -35.5 2.5zM414.5 2.5q-7.5 2.5 -7.5 9.5v504q0 7 7.5 9.5t35.5 2.5h6q27 0 34 -3t7 -9v-504q0 -6 -7 -9t-34 -3h-6q-28 0 -35.5 2.5z" />
    <glyph glyph-name="fl" unicode="fl" horiz-adv-x="589" 
d="M422 33q-9 14 -13 39t-4 66v332q0 124 -6 211q-39 15 -81 15q-70 0 -98 -38t-28 -108v-22h116q5 0 7 -6t2 -26v-8q0 -19 -2 -25t-7 -6h-116v-445q0 -6 -7 -9t-34 -3h-6q-28 0 -35.5 2.5t-7.5 9.5v445h-73q-5 0 -7 6t-2 25v8q0 20 2 26t7 6h73v21q0 221 217 221
q34 0 72.5 -7.5t71.5 -22.5q16 -7 20 -14.5t5 -19.5q7 -84 7 -258v-329q0 -29 7 -39.5t31 -10.5h10q4 0 5 -5t1 -22v-3q0 -20 -1 -25.5t-5 -6.5q-22 -8 -47 -8q-51 0 -74 34z" />
    <glyph glyph-name="f_f.liga" unicode="ff" horiz-adv-x="664" 
d="M39 457q-5 0 -7 6t-2 25v8q0 20 2 26t7 6h63v24q0 107 45.5 162.5t136.5 55.5q53 0 101 -22q5 -3 5 -9q0 -4 -5 -26l-1 -4q-5 -19 -8.5 -25t-9.5 -4q-42 15 -79 15q-54 0 -74.5 -35t-20.5 -107v-25h241v24q0 107 45.5 162.5t136.5 55.5q53 0 101 -22q5 -3 5 -9
q0 -4 -5 -26l-1 -4q-5 -19 -8.5 -25t-9.5 -4q-42 15 -79 15q-54 0 -74.5 -35t-20.5 -107v-25h116q5 0 7 -6t2 -26v-8q0 -19 -2 -25t-7 -6h-116v-445q0 -6 -7 -9t-34 -3h-6q-28 0 -35.5 2.5t-7.5 9.5v445h-241v-445q0 -6 -7 -9t-34 -3h-6q-28 0 -35.5 2.5t-7.5 9.5v445h-63z
" />
    <glyph glyph-name="f_f_i.liga" unicode="ffi" horiz-adv-x="903" 
d="M39 457q-5 0 -7 6t-2 25v8q0 20 2 26t7 6h63v24q0 107 45.5 162.5t136.5 55.5q53 0 101 -22q5 -3 5 -9q0 -4 -5 -26l-1 -4q-5 -19 -8.5 -25t-9.5 -4q-42 15 -79 15q-54 0 -74.5 -35t-20.5 -107v-25h241v19q0 111 50.5 167t157.5 56q84 0 154 -38q5 -1 5 -11t-4 -21l-3 -9
q-11 -32 -23 -27q-38 16 -67 23.5t-62 7.5q-68 0 -93 -36.5t-25 -107.5v-23h116q5 0 7 -6t2 -26v-8q0 -19 -2 -25t-7 -6h-116v-445q0 -6 -7 -9t-34 -3h-6q-28 0 -35.5 2.5t-7.5 9.5v445h-241v-445q0 -6 -7 -9t-34 -3h-6q-28 0 -35.5 2.5t-7.5 9.5v445h-63zM787 528
q27 0 34 -3t7 -9v-504q0 -6 -7 -9t-34 -3h-6q-28 0 -35.5 2.5t-7.5 9.5v504q0 7 7.5 9.5t35.5 2.5h6z" />
    <glyph glyph-name="f_f_l.liga" unicode="ffl" horiz-adv-x="920" 
d="M433 549q0 221 217 221q34 0 72.5 -7.5t71.5 -22.5q16 -7 20 -14.5t5 -19.5q7 -84 7 -258v-329q0 -29 7 -39.5t31 -10.5h10q4 0 5 -5t1 -22v-3q0 -20 -1 -25.5t-5 -6.5q-22 -8 -47 -8q-51 0 -74 34q-9 14 -13 39t-4 66v332q0 124 -6 211q-39 15 -81 15q-70 0 -98 -38
t-28 -108v-22h116q5 0 7 -6t2 -26v-8q0 -19 -2 -25t-7 -6h-116v-445q0 -6 -7 -9t-34 -3h-6q-28 0 -35.5 2.5t-7.5 9.5v445h-241v-445q0 -6 -7 -9t-34 -3h-6q-28 0 -35.5 2.5t-7.5 9.5v445h-63q-5 0 -7 6t-2 25v8q0 20 2 26t7 6h63v24q0 107 45.5 162.5t136.5 55.5
q53 0 101 -22q5 -3 5 -9q0 -4 -5 -26l-1 -4q-5 -19 -8.5 -25t-9.5 -4q-42 15 -79 15q-54 0 -74.5 -35t-20.5 -107v-25h241v21z" />
    <glyph glyph-name=".notdef" horiz-adv-x="694" 
d="M90 720h514v-720h-514v720zM522 669h-350l176 -263zM316 360l-174 262v-524zM553 622l-175 -262l175 -262v524zM522 52l-174 262l-176 -262h350z" />
    <glyph glyph-name=".null" horiz-adv-x="0" 
 />
    <glyph glyph-name="nonmarkingreturn" unicode="&#xd;" horiz-adv-x="250" 
 />
    <glyph glyph-name="space" unicode=" " horiz-adv-x="250" 
 />
    <glyph glyph-name="A" unicode="A" horiz-adv-x="648" 
d="M23 11l244 698q2 6 12 8.5t34 2.5h19q22 0 32.5 -2.5t12.5 -8.5l248 -698q4 -11 -43 -11h-15q-42 0 -46 11l-59 176h-282l-59 -176q-4 -11 -44 -11h-13q-45 0 -41 11zM438 266l-118 354l-117 -354h235z" />
    <glyph glyph-name="Aacute" unicode="&#xc1;" horiz-adv-x="648" 
d="M23 11l244 698q2 6 12 8.5t34 2.5h19q22 0 32.5 -2.5t12.5 -8.5l248 -698q4 -11 -43 -11h-15q-42 0 -46 11l-59 176h-282l-59 -176q-4 -11 -44 -11h-13q-45 0 -41 11zM438 266l-118 354l-117 -354h235zM258 775l73 128q6 11 44 11h12q26 0 34.5 -4t4.5 -10l-94 -128
q-4 -5 -11 -7t-25 -2h-8q-38 0 -30 12z" />
    <glyph glyph-name="Abreve" unicode="&#x102;" horiz-adv-x="648" 
d="M23 11l244 698q2 6 12 8.5t34 2.5h19q22 0 32.5 -2.5t12.5 -8.5l248 -698q4 -11 -43 -11h-15q-42 0 -46 11l-59 176h-282l-59 -176q-4 -11 -44 -11h-13q-45 0 -41 11zM438 266l-118 354l-117 -354h235zM216 812.5q-39 29.5 -43 89.5q0 10 32 10h12q16 0 22.5 -2.5
t7.5 -7.5q3 -28 22.5 -43.5t51.5 -15.5q31 0 50.5 15.5t23.5 43.5q1 5 7.5 7.5t22.5 2.5h13q32 0 32 -10q-4 -59 -44.5 -89t-106.5 -30q-64 0 -103 29.5z" />
    <glyph glyph-name="uni01CD" unicode="&#x1cd;" horiz-adv-x="648" 
d="M23 11l244 698q2 6 12 8.5t34 2.5h19q22 0 32.5 -2.5t12.5 -8.5l248 -698q4 -11 -43 -11h-15q-42 0 -46 11l-59 176h-282l-59 -176q-4 -11 -44 -11h-13q-45 0 -41 11zM438 266l-118 354l-117 -354h235zM257 781l-89 94q-2 2 -2 6q0 8 12 22l8 9q7 8 15.5 12.5t12.5 0.5
l112 -98l109 95q2 2 5 2q9 0 20 -13l6 -7q17 -18 9 -27l-91 -97q-11 -13 -44 -13h-38q-33 0 -45 14z" />
    <glyph glyph-name="Acircumflex" unicode="&#xc2;" horiz-adv-x="648" 
d="M23 11l244 698q2 6 12 8.5t34 2.5h19q22 0 32.5 -2.5t12.5 -8.5l248 -698q4 -11 -43 -11h-15q-42 0 -46 11l-59 176h-282l-59 -176q-4 -11 -44 -11h-13q-45 0 -41 11zM438 266l-118 354l-117 -354h235zM321 848l-112 -95q-2 -2 -4 -2q-9 0 -20 13l-7 8q-17 19 -10 27
l91 97q11 13 44 13h38q33 0 45 -14l89 -94q3 -3 3 -7q0 -7 -13 -22l-8 -9q-7 -8 -14.5 -11.5t-11.5 0.5z" />
    <glyph glyph-name="Adieresis" unicode="&#xc4;" horiz-adv-x="648" 
d="M23 11l244 698q2 6 12 8.5t34 2.5h19q22 0 32.5 -2.5t12.5 -8.5l248 -698q4 -11 -43 -11h-15q-42 0 -46 11l-59 176h-282l-59 -176q-4 -11 -44 -11h-13q-45 0 -41 11zM438 266l-118 354l-117 -354h235zM174.5 781.5q-16.5 16.5 -16.5 40.5t16.5 40.5t40.5 16.5
t40.5 -16.5t16.5 -40.5t-16.5 -40.5t-40.5 -16.5t-40.5 16.5zM387.5 781.5q-16.5 16.5 -16.5 40.5t16.5 40.5t40.5 16.5t40.5 -16.5t16.5 -40.5t-16.5 -40.5t-40.5 -16.5t-40.5 16.5z" />
    <glyph glyph-name="Agrave" unicode="&#xc0;" horiz-adv-x="648" 
d="M23 11l244 698q2 6 12 8.5t34 2.5h19q22 0 32.5 -2.5t12.5 -8.5l248 -698q4 -11 -43 -11h-15q-42 0 -46 11l-59 176h-282l-59 -176q-4 -11 -44 -11h-13q-45 0 -41 11zM438 266l-118 354l-117 -354h235zM310 772l-94 128q-4 5 5.5 9.5t34.5 4.5h13q40 0 46 -11l73 -128
q6 -12 -32 -12h-9q-30 0 -37 9z" />
    <glyph glyph-name="Amacron" unicode="&#x100;" horiz-adv-x="648" 
d="M23 11l244 698q2 6 12 8.5t34 2.5h19q22 0 32.5 -2.5t12.5 -8.5l248 -698q4 -11 -43 -11h-15q-42 0 -46 11l-59 176h-282l-59 -176q-4 -11 -44 -11h-13q-45 0 -41 11zM438 266l-118 354l-117 -354h235zM174 833v12q0 29 10 29h275q10 0 10 -29v-12q0 -32 -10 -32h-275
q-10 0 -10 32z" />
    <glyph glyph-name="Aogonek" unicode="&#x104;" horiz-adv-x="648" 
d="M468 -184q-29 27 -29 65t23 71t60 54l-60 181h-282l-59 -176q-4 -11 -44 -11h-13q-45 0 -41 11l244 698q2 6 12 8.5t34 2.5h19q22 0 32.5 -2.5t12.5 -8.5l247 -695q1 -2 1 -5t-3.5 -5t-8.5 -3q-37 -7 -66 -36.5t-29 -66.5q0 -43 49 -43q24 0 41 6h2q4 0 7 -6t5 -16l2 -9
q2 -8 2 -18q0 -8 -4 -9q-33 -14 -72 -14q-53 0 -82 27zM438 266l-118 354l-117 -354h235z" />
    <glyph glyph-name="Aring" unicode="&#xc5;" horiz-adv-x="648" 
d="M582 0h-15q-42 0 -46 11l-59 176h-282l-59 -176q-4 -11 -44 -11h-13q-45 0 -41 11l243 695q-18 12 -28 31t-10 41q0 37 28 63.5t66 26.5q39 0 66.5 -26t27.5 -64q0 -22 -10 -41t-28 -31l247 -695q4 -11 -43 -11zM292 808q-12 -12 -12 -30t12 -30t30 -12t29.5 12t11.5 30
t-11.5 30t-29.5 12t-30 -12zM438 266l-118 354l-117 -354h235z" />
    <glyph glyph-name="Atilde" unicode="&#xc3;" horiz-adv-x="648" 
d="M23 11l244 698q2 6 12 8.5t34 2.5h19q22 0 32.5 -2.5t12.5 -8.5l248 -698q4 -11 -43 -11h-15q-42 0 -46 11l-59 176h-282l-59 -176q-4 -11 -44 -11h-13q-45 0 -41 11zM438 266l-118 354l-117 -354h235zM351.5 775q-13.5 5 -30.5 14q-19 9 -31 13.5t-27 4.5q-30 0 -53 -27
q-1 -1 -4 -1q-8 0 -22 19l-7 10q-14 19 -8 27q17 21 42 34t54 13q20 0 33.5 -5t34.5 -15q16 -9 26.5 -13t24.5 -4q26 0 51 27q2 2 4 2q7 0 22 -17l6 -8q6 -8 8.5 -15.5t-0.5 -11.5q-16 -22 -40.5 -37t-52.5 -15q-17 0 -30.5 5z" />
    <glyph glyph-name="AE" unicode="&#xc6;" horiz-adv-x="892" 
d="M14 3q-13 3 -10 8l397 694q5 8 15 11.5t33 3.5h379q5 0 7 -8t2 -25v-12q0 -18 -2 -26t-7 -8h-295v-237h249q5 0 7 -8t2 -25v-12q0 -18 -2 -26t-7 -8h-249v-245h299q5 0 7 -8t2 -25v-13q0 -18 -2 -26t-7 -8h-394v192h-229l-100 -181q-6 -11 -46 -11h-14q-22 0 -35 3z
M438 271v333l-185 -333h185z" />
    <glyph glyph-name="AEacute" unicode="&#x1fc;" horiz-adv-x="892" 
d="M14 3q-13 3 -10 8l397 694q5 8 15 11.5t33 3.5h379q5 0 7 -8t2 -25v-12q0 -18 -2 -26t-7 -8h-295v-237h249q5 0 7 -8t2 -25v-12q0 -18 -2 -26t-7 -8h-249v-245h299q5 0 7 -8t2 -25v-13q0 -18 -2 -26t-7 -8h-394v192h-229l-100 -181q-6 -11 -46 -11h-14q-22 0 -35 3z
M438 271v333l-185 -333h185zM545 775l73 128q6 11 44 11h12q26 0 34.5 -4t4.5 -10l-94 -128q-4 -5 -11 -7t-25 -2h-8q-38 0 -30 12z" />
    <glyph glyph-name="B" unicode="B" horiz-adv-x="574" 
d="M80 720h174q109 0 176 -44.5t67 -142.5q0 -53 -24.5 -92t-60.5 -59q62 -27 92.5 -68.5t30.5 -104.5q0 -111 -71.5 -160t-188.5 -49h-195v720zM253 408q75 0 111.5 32t36.5 86q0 67 -43 91.5t-101 24.5h-82v-234h78zM267 78q71 0 121 24.5t50 98.5q0 60 -38.5 96
t-114.5 36h-110v-255h92z" />
    <glyph glyph-name="C" unicode="C" horiz-adv-x="573" 
d="M120.5 87.5q-72.5 97.5 -72.5 262.5q0 166 72.5 273t230.5 107q106 0 180 -50q4 -4 4 -10q0 -8 -7 -24l-6 -12q-6 -12 -13 -18.5t-11 -4.5q-70 38 -137 38q-96 0 -155.5 -74t-59.5 -219q0 -121 49 -202t161 -81q71 0 137 33q5 2 11.5 -3.5t12.5 -18.5l6 -13q7 -16 7 -24
q0 -6 -4 -10q-82 -47 -188 -47q-145 0 -217.5 97.5z" />
    <glyph glyph-name="Cacute" unicode="&#x106;" horiz-adv-x="573" 
d="M120.5 87.5q-72.5 97.5 -72.5 262.5q0 166 72.5 273t230.5 107q106 0 180 -50q4 -4 4 -10q0 -8 -7 -24l-6 -12q-6 -12 -13 -18.5t-11 -4.5q-70 38 -137 38q-96 0 -155.5 -74t-59.5 -219q0 -121 49 -202t161 -81q71 0 137 33q5 2 11.5 -3.5t12.5 -18.5l6 -13q7 -16 7 -24
q0 -6 -4 -10q-82 -47 -188 -47q-145 0 -217.5 97.5zM282 775l73 128q6 11 44 11h12q26 0 34.5 -4t4.5 -10l-94 -128q-4 -5 -11 -7t-25 -2h-8q-38 0 -30 12z" />
    <glyph glyph-name="Ccaron" unicode="&#x10c;" horiz-adv-x="573" 
d="M120.5 87.5q-72.5 97.5 -72.5 262.5q0 166 72.5 273t230.5 107q106 0 180 -50q4 -4 4 -10q0 -8 -7 -24l-6 -12q-6 -12 -13 -18.5t-11 -4.5q-70 38 -137 38q-96 0 -155.5 -74t-59.5 -219q0 -121 49 -202t161 -81q71 0 137 33q5 2 11.5 -3.5t12.5 -18.5l6 -13q7 -16 7 -24
q0 -6 -4 -10q-82 -47 -188 -47q-145 0 -217.5 97.5zM281 781l-89 94q-2 2 -2 6q0 8 12 22l8 9q7 8 15.5 12.5t12.5 0.5l112 -98l109 95q2 2 5 2q9 0 20 -13l6 -7q17 -18 9 -27l-91 -97q-11 -13 -44 -13h-38q-33 0 -45 14z" />
    <glyph glyph-name="Ccedilla" unicode="&#xc7;" horiz-adv-x="573" 
d="M523 71q7 -16 7 -24q0 -6 -4 -10q-64 -37 -146 -45l-3 -33q6 1 17 1q40 0 65.5 -22t25.5 -62q0 -41 -30 -69.5t-88 -28.5q-20 0 -41 3.5t-35 8.5q-6 2 -6 11l2 12l4 16q5 21 14 18q27 -8 54 -8q20 0 32.5 8.5t12.5 24.5q0 17 -11.5 23t-38.5 6q-35 0 -59 -3l12 93
q-129 11 -194 107t-65 252q0 166 72.5 273t230.5 107q106 0 180 -50q4 -4 4 -10q0 -8 -7 -24l-6 -12q-6 -12 -13 -18.5t-11 -4.5q-70 38 -137 38q-96 0 -155.5 -74t-59.5 -219q0 -121 49 -202t161 -81q71 0 137 33q5 2 11.5 -3.5t12.5 -18.5z" />
    <glyph glyph-name="Ccircumflex" unicode="&#x108;" horiz-adv-x="573" 
d="M120.5 87.5q-72.5 97.5 -72.5 262.5q0 166 72.5 273t230.5 107q106 0 180 -50q4 -4 4 -10q0 -8 -7 -24l-6 -12q-6 -12 -13 -18.5t-11 -4.5q-70 38 -137 38q-96 0 -155.5 -74t-59.5 -219q0 -121 49 -202t161 -81q71 0 137 33q5 2 11.5 -3.5t12.5 -18.5l6 -13q7 -16 7 -24
q0 -6 -4 -10q-82 -47 -188 -47q-145 0 -217.5 97.5zM345 848l-112 -95q-2 -2 -4 -2q-9 0 -20 13l-7 8q-17 19 -10 27l91 97q11 13 44 13h38q33 0 45 -14l89 -94q3 -3 3 -7q0 -7 -13 -22l-8 -9q-7 -8 -14.5 -11.5t-11.5 0.5z" />
    <glyph glyph-name="Cdotaccent" unicode="&#x10a;" horiz-adv-x="573" 
d="M120.5 87.5q-72.5 97.5 -72.5 262.5q0 166 72.5 273t230.5 107q106 0 180 -50q4 -4 4 -10q0 -8 -7 -24l-6 -12q-6 -12 -13 -18.5t-11 -4.5q-70 38 -137 38q-96 0 -155.5 -74t-59.5 -219q0 -121 49 -202t161 -81q71 0 137 33q5 2 11.5 -3.5t12.5 -18.5l6 -13q7 -16 7 -24
q0 -6 -4 -10q-82 -47 -188 -47q-145 0 -217.5 97.5zM306 802q-17 17 -17 40t17 39.5t40 16.5t39.5 -16.5t16.5 -39.5t-16.5 -40t-39.5 -17t-40 17z" />
    <glyph glyph-name="D" unicode="D" horiz-adv-x="654" 
d="M80 720h168q100 0 164 -20t109 -68q88 -91 88 -268q0 -94 -25.5 -167.5t-76.5 -122.5q-43 -41 -104.5 -57.5t-149.5 -16.5h-173v720zM255 78q120 0 180 56q37 35 56.5 93t19.5 134q0 135 -57 205q-60 76 -193 76h-86v-564h80z" />
    <glyph glyph-name="Eth" unicode="&#xd0;" horiz-adv-x="668" 
d="M94 328h-55q-10 0 -10 32v11q0 31 10 31h55v318h168q100 0 164 -20t109 -68q88 -91 88 -268q0 -94 -25.5 -167.5t-76.5 -122.5q-43 -41 -104.5 -57.5t-149.5 -16.5h-173v328zM269 78q120 0 180 56q37 35 56.5 93t19.5 134q0 135 -57 205q-60 76 -193 76h-86v-240h168
q10 0 10 -31v-11q0 -32 -10 -32h-168v-250h80z" />
    <glyph glyph-name="Dcaron" unicode="&#x10e;" horiz-adv-x="654" 
d="M80 720h168q100 0 164 -20t109 -68q88 -91 88 -268q0 -94 -25.5 -167.5t-76.5 -122.5q-43 -41 -104.5 -57.5t-149.5 -16.5h-173v720zM255 78q120 0 180 56q37 35 56.5 93t19.5 134q0 135 -57 205q-60 76 -193 76h-86v-564h80zM262 781l-89 94q-2 2 -2 6q0 8 12 22l8 9
q7 8 15.5 12.5t12.5 0.5l112 -98l109 95q2 2 5 2q9 0 20 -13l6 -7q17 -18 9 -27l-91 -97q-11 -13 -44 -13h-38q-33 0 -45 14z" />
    <glyph glyph-name="Dcroat" unicode="&#x110;" horiz-adv-x="668" 
d="M94 328h-55q-10 0 -10 32v11q0 31 10 31h55v318h168q100 0 164 -20t109 -68q88 -91 88 -268q0 -94 -25.5 -167.5t-76.5 -122.5q-43 -41 -104.5 -57.5t-149.5 -16.5h-173v328zM269 78q120 0 180 56q37 35 56.5 93t19.5 134q0 135 -57 205q-60 76 -193 76h-86v-240h168
q10 0 10 -31v-11q0 -32 -10 -32h-168v-250h80z" />
    <glyph glyph-name="E" unicode="E" horiz-adv-x="544" 
d="M80 720h400q5 0 7 -8t2 -25v-12q0 -18 -2 -26t-7 -8h-305v-237h259q5 0 7 -8t2 -25v-12q0 -18 -2 -26t-7 -8h-259v-245h309q5 0 7 -8t2 -25v-13q0 -18 -2 -26t-7 -8h-404v720z" />
    <glyph glyph-name="Eacute" unicode="&#xc9;" horiz-adv-x="544" 
d="M80 720h400q5 0 7 -8t2 -25v-12q0 -18 -2 -26t-7 -8h-305v-237h259q5 0 7 -8t2 -25v-12q0 -18 -2 -26t-7 -8h-259v-245h309q5 0 7 -8t2 -25v-13q0 -18 -2 -26t-7 -8h-404v720zM232 775l73 128q6 11 44 11h12q26 0 34.5 -4t4.5 -10l-94 -128q-4 -5 -11 -7t-25 -2h-8
q-38 0 -30 12z" />
    <glyph glyph-name="Ebreve" unicode="&#x114;" horiz-adv-x="544" 
d="M80 720h400q5 0 7 -8t2 -25v-12q0 -18 -2 -26t-7 -8h-305v-237h259q5 0 7 -8t2 -25v-12q0 -18 -2 -26t-7 -8h-259v-245h309q5 0 7 -8t2 -25v-13q0 -18 -2 -26t-7 -8h-404v720zM190 812.5q-39 29.5 -43 89.5q0 10 32 10h12q16 0 22.5 -2.5t7.5 -7.5q3 -28 22.5 -43.5
t51.5 -15.5q31 0 50.5 15.5t23.5 43.5q1 5 7.5 7.5t22.5 2.5h13q32 0 32 -10q-4 -59 -44.5 -89t-106.5 -30q-64 0 -103 29.5z" />
    <glyph glyph-name="Ecaron" unicode="&#x11a;" horiz-adv-x="544" 
d="M80 720h400q5 0 7 -8t2 -25v-12q0 -18 -2 -26t-7 -8h-305v-237h259q5 0 7 -8t2 -25v-12q0 -18 -2 -26t-7 -8h-259v-245h309q5 0 7 -8t2 -25v-13q0 -18 -2 -26t-7 -8h-404v720zM231 781l-89 94q-2 2 -2 6q0 8 12 22l8 9q7 8 15.5 12.5t12.5 0.5l112 -98l109 95q2 2 5 2
q9 0 20 -13l6 -7q17 -18 9 -27l-91 -97q-11 -13 -44 -13h-38q-33 0 -45 14z" />
    <glyph glyph-name="Ecircumflex" unicode="&#xca;" horiz-adv-x="544" 
d="M80 720h400q5 0 7 -8t2 -25v-12q0 -18 -2 -26t-7 -8h-305v-237h259q5 0 7 -8t2 -25v-12q0 -18 -2 -26t-7 -8h-259v-245h309q5 0 7 -8t2 -25v-13q0 -18 -2 -26t-7 -8h-404v720zM295 848l-112 -95q-2 -2 -4 -2q-9 0 -20 13l-7 8q-17 19 -10 27l91 97q11 13 44 13h38
q33 0 45 -14l89 -94q3 -3 3 -7q0 -7 -13 -22l-8 -9q-7 -8 -14.5 -11.5t-11.5 0.5z" />
    <glyph glyph-name="Edieresis" unicode="&#xcb;" horiz-adv-x="544" 
d="M80 720h400q5 0 7 -8t2 -25v-12q0 -18 -2 -26t-7 -8h-305v-237h259q5 0 7 -8t2 -25v-12q0 -18 -2 -26t-7 -8h-259v-245h309q5 0 7 -8t2 -25v-13q0 -18 -2 -26t-7 -8h-404v720zM148.5 781.5q-16.5 16.5 -16.5 40.5t16.5 40.5t40.5 16.5t40.5 -16.5t16.5 -40.5t-16.5 -40.5
t-40.5 -16.5t-40.5 16.5zM361.5 781.5q-16.5 16.5 -16.5 40.5t16.5 40.5t40.5 16.5t40.5 -16.5t16.5 -40.5t-16.5 -40.5t-40.5 -16.5t-40.5 16.5z" />
    <glyph glyph-name="Edotaccent" unicode="&#x116;" horiz-adv-x="544" 
d="M80 720h400q5 0 7 -8t2 -25v-12q0 -18 -2 -26t-7 -8h-305v-237h259q5 0 7 -8t2 -25v-12q0 -18 -2 -26t-7 -8h-259v-245h309q5 0 7 -8t2 -25v-13q0 -18 -2 -26t-7 -8h-404v720zM256 802q-17 17 -17 40t17 39.5t40 16.5t39.5 -16.5t16.5 -39.5t-16.5 -40t-39.5 -17t-40 17z
" />
    <glyph glyph-name="Egrave" unicode="&#xc8;" horiz-adv-x="544" 
d="M80 720h400q5 0 7 -8t2 -25v-12q0 -18 -2 -26t-7 -8h-305v-237h259q5 0 7 -8t2 -25v-12q0 -18 -2 -26t-7 -8h-259v-245h309q5 0 7 -8t2 -25v-13q0 -18 -2 -26t-7 -8h-404v720zM284 772l-94 128q-4 5 5.5 9.5t34.5 4.5h13q40 0 46 -11l73 -128q6 -12 -32 -12h-9
q-30 0 -37 9z" />
    <glyph glyph-name="Emacron" unicode="&#x112;" horiz-adv-x="544" 
d="M80 720h400q5 0 7 -8t2 -25v-12q0 -18 -2 -26t-7 -8h-305v-237h259q5 0 7 -8t2 -25v-12q0 -18 -2 -26t-7 -8h-259v-245h309q5 0 7 -8t2 -25v-13q0 -18 -2 -26t-7 -8h-404v720zM148 833v12q0 29 10 29h275q10 0 10 -29v-12q0 -32 -10 -32h-275q-10 0 -10 32z" />
    <glyph glyph-name="Eogonek" unicode="&#x118;" horiz-adv-x="544" 
d="M328 -184q-29 27 -29 65q0 36 19.5 68t52.5 51h-291v720h400q5 0 7 -8t2 -25v-12q0 -18 -2 -26t-7 -8h-305v-237h259q5 0 7 -8t2 -25v-12q0 -18 -2 -26t-7 -8h-259v-245h309q5 0 7 -8t2 -25v-13q0 -18 -2 -26t-7 -8h-7q-24 0 -47 -14.5t-37.5 -38.5t-14.5 -49
q0 -23 14 -33t35 -10q24 0 41 6h2q4 0 7 -6t5 -16l2 -9q2 -8 2 -18q0 -8 -4 -9q-33 -14 -72 -14q-53 0 -82 27z" />
    <glyph glyph-name="F" unicode="F" horiz-adv-x="490" 
d="M80 11v709h375q5 0 7 -8t2 -25v-12q0 -18 -2 -26t-7 -8h-280v-237h234q5 0 7 -8t2 -25v-12q0 -18 -2 -26t-7 -8h-234v-314q0 -11 -41 -11h-11q-43 0 -43 11z" />
    <glyph glyph-name="G" unicode="G" horiz-adv-x="635" 
d="M119 85.5q-78 95.5 -78 267.5q0 175 79.5 276t229.5 101q123 0 202 -60q5 -3 5 -12q0 -10 -7 -23l-7 -12q-7 -13 -15 -18t-13 -2q-73 47 -161 47q-107 0 -161 -77.5t-54 -213.5q0 -135 54.5 -212t169.5 -77q32 0 64.5 5.5t56.5 15.5v216h-157q-5 0 -7 7.5t-2 24.5v14
q0 18 2 25.5t7 7.5h251v-346q-46 -21 -108 -35.5t-122 -14.5q-151 0 -229 95.5z" />
    <glyph glyph-name="Gbreve" unicode="&#x11e;" horiz-adv-x="635" 
d="M119 85.5q-78 95.5 -78 267.5q0 175 79.5 276t229.5 101q123 0 202 -60q5 -3 5 -12q0 -10 -7 -23l-7 -12q-7 -13 -15 -18t-13 -2q-73 47 -161 47q-107 0 -161 -77.5t-54 -213.5q0 -135 54.5 -212t169.5 -77q32 0 64.5 5.5t56.5 15.5v216h-157q-5 0 -7 7.5t-2 24.5v14
q0 18 2 25.5t7 7.5h251v-346q-46 -21 -108 -35.5t-122 -14.5q-151 0 -229 95.5zM242 812.5q-39 29.5 -43 89.5q0 10 32 10h12q16 0 22.5 -2.5t7.5 -7.5q3 -28 22.5 -43.5t51.5 -15.5q31 0 50.5 15.5t23.5 43.5q1 5 7.5 7.5t22.5 2.5h13q32 0 32 -10q-4 -59 -44.5 -89
t-106.5 -30q-64 0 -103 29.5z" />
    <glyph glyph-name="Gcircumflex" unicode="&#x11c;" horiz-adv-x="635" 
d="M119 85.5q-78 95.5 -78 267.5q0 175 79.5 276t229.5 101q123 0 202 -60q5 -3 5 -12q0 -10 -7 -23l-7 -12q-7 -13 -15 -18t-13 -2q-73 47 -161 47q-107 0 -161 -77.5t-54 -213.5q0 -135 54.5 -212t169.5 -77q32 0 64.5 5.5t56.5 15.5v216h-157q-5 0 -7 7.5t-2 24.5v14
q0 18 2 25.5t7 7.5h251v-346q-46 -21 -108 -35.5t-122 -14.5q-151 0 -229 95.5zM347 848l-112 -95q-2 -2 -4 -2q-9 0 -20 13l-7 8q-17 19 -10 27l91 97q11 13 44 13h38q33 0 45 -14l89 -94q3 -3 3 -7q0 -7 -13 -22l-8 -9q-7 -8 -14.5 -11.5t-11.5 0.5z" />
    <glyph glyph-name="Gcommaaccent" unicode="&#x122;" horiz-adv-x="635" 
d="M119 85.5q-78 95.5 -78 267.5q0 175 79.5 276t229.5 101q123 0 202 -60q5 -3 5 -12q0 -10 -7 -23l-7 -12q-7 -13 -15 -18t-13 -2q-73 47 -161 47q-107 0 -161 -77.5t-54 -213.5q0 -135 54.5 -212t169.5 -77q32 0 64.5 5.5t56.5 15.5v216h-157q-5 0 -7 7.5t-2 24.5v14
q0 18 2 25.5t7 7.5h251v-346q-46 -21 -108 -35.5t-122 -14.5q-151 0 -229 95.5zM315 -299q-5 0 -12 6l-9 10q-6 7 -6 12t5 10q47 47 47 81q0 11 -4 17.5t-13 15.5t-14 17.5t-5 23.5q0 20 15.5 33.5t36.5 13.5q27 0 43 -18t16 -46q0 -48 -24 -94t-65 -78q-5 -4 -11 -4z" />
    <glyph glyph-name="Gdotaccent" unicode="&#x120;" horiz-adv-x="635" 
d="M119 85.5q-78 95.5 -78 267.5q0 175 79.5 276t229.5 101q123 0 202 -60q5 -3 5 -12q0 -10 -7 -23l-7 -12q-7 -13 -15 -18t-13 -2q-73 47 -161 47q-107 0 -161 -77.5t-54 -213.5q0 -135 54.5 -212t169.5 -77q32 0 64.5 5.5t56.5 15.5v216h-157q-5 0 -7 7.5t-2 24.5v14
q0 18 2 25.5t7 7.5h251v-346q-46 -21 -108 -35.5t-122 -14.5q-151 0 -229 95.5zM308 802q-17 17 -17 40t17 39.5t40 16.5t39.5 -16.5t16.5 -39.5t-16.5 -40t-39.5 -17t-40 17z" />
    <glyph glyph-name="H" unicode="H" horiz-adv-x="664" 
d="M80 11v698q0 11 41 11h11q43 0 43 -11v-305h314v305q0 11 41 11h11q43 0 43 -11v-698q0 -11 -41 -11h-11q-43 0 -43 11v314h-314v-314q0 -11 -41 -11h-11q-43 0 -43 11z" />
    <glyph glyph-name="Hbar" unicode="&#x126;" horiz-adv-x="692" 
d="M94 11v520h-59q-10 0 -10 32v8q0 31 10 31h59v107q0 11 41 11h11q43 0 43 -11v-107h314v107q0 11 41 11h11q43 0 43 -11v-107h60q10 0 10 -31v-8q0 -32 -10 -32h-60v-520q0 -11 -41 -11h-11q-43 0 -43 11v314h-314v-314q0 -11 -41 -11h-11q-43 0 -43 11zM503 404v127
h-314v-127h314z" />
    <glyph glyph-name="Hcircumflex" unicode="&#x124;" horiz-adv-x="664" 
d="M80 11v698q0 11 41 11h11q43 0 43 -11v-305h314v305q0 11 41 11h11q43 0 43 -11v-698q0 -11 -41 -11h-11q-43 0 -43 11v314h-314v-314q0 -11 -41 -11h-11q-43 0 -43 11zM331 848l-112 -95q-2 -2 -4 -2q-9 0 -20 13l-7 8q-17 19 -10 27l91 97q11 13 44 13h38q33 0 45 -14
l89 -94q3 -3 3 -7q0 -7 -13 -22l-8 -9q-7 -8 -14.5 -11.5t-11.5 0.5z" />
    <glyph glyph-name="I" unicode="I" horiz-adv-x="381" 
d="M63.5 5.5q-1.5 5.5 -1.5 23.5v11q0 18 1.5 23.5t6.5 5.5h73v582h-73q-5 0 -6.5 5.5t-1.5 23.5v11q0 18 1.5 23.5t6.5 5.5h241q8 0 8 -28v-12q0 -29 -8 -29h-73v-582h73q8 0 8 -29v-12q0 -28 -8 -28h-241q-5 0 -6.5 5.5z" />
    <glyph glyph-name="IJ" unicode="&#x132;" horiz-adv-x="823" 
d="M63.5 5.5q-1.5 5.5 -1.5 23.5v11q0 18 1.5 23.5t6.5 5.5h73v582h-73q-5 0 -6.5 5.5t-1.5 23.5v11q0 18 1.5 23.5t6.5 5.5h241q8 0 8 -28v-12q0 -29 -8 -29h-73v-582h73q8 0 8 -29v-12q0 -28 -8 -28h-241q-5 0 -6.5 5.5zM406 40q-4 4 -1 15t12 23l7 10q8 11 16.5 15.5
t13.5 0.5q49 -33 98 -33q107 0 107 136v502q0 11 41 11h11q43 0 43 -11v-493q0 -111 -47 -168.5t-150 -57.5q-97 0 -151 50z" />
    <glyph glyph-name="Iacute" unicode="&#xcd;" horiz-adv-x="381" 
d="M63.5 5.5q-1.5 5.5 -1.5 23.5v11q0 18 1.5 23.5t6.5 5.5h73v582h-73q-5 0 -6.5 5.5t-1.5 23.5v11q0 18 1.5 23.5t6.5 5.5h241q8 0 8 -28v-12q0 -29 -8 -29h-73v-582h73q8 0 8 -29v-12q0 -28 -8 -28h-241q-5 0 -6.5 5.5zM127 775l73 128q6 11 44 11h12q26 0 34.5 -4
t4.5 -10l-94 -128q-4 -5 -11 -7t-25 -2h-8q-38 0 -30 12z" />
    <glyph glyph-name="Ibreve" unicode="&#x12c;" horiz-adv-x="381" 
d="M63.5 5.5q-1.5 5.5 -1.5 23.5v11q0 18 1.5 23.5t6.5 5.5h73v582h-73q-5 0 -6.5 5.5t-1.5 23.5v11q0 18 1.5 23.5t6.5 5.5h241q8 0 8 -28v-12q0 -29 -8 -29h-73v-582h73q8 0 8 -29v-12q0 -28 -8 -28h-241q-5 0 -6.5 5.5zM85 812.5q-39 29.5 -43 89.5q0 10 32 10h12
q16 0 22.5 -2.5t7.5 -7.5q3 -28 22.5 -43.5t51.5 -15.5q31 0 50.5 15.5t23.5 43.5q1 5 7.5 7.5t22.5 2.5h13q32 0 32 -10q-4 -59 -44.5 -89t-106.5 -30q-64 0 -103 29.5z" />
    <glyph glyph-name="Icircumflex" unicode="&#xce;" horiz-adv-x="381" 
d="M63.5 5.5q-1.5 5.5 -1.5 23.5v11q0 18 1.5 23.5t6.5 5.5h73v582h-73q-5 0 -6.5 5.5t-1.5 23.5v11q0 18 1.5 23.5t6.5 5.5h241q8 0 8 -28v-12q0 -29 -8 -29h-73v-582h73q8 0 8 -29v-12q0 -28 -8 -28h-241q-5 0 -6.5 5.5zM190 848l-112 -95q-2 -2 -4 -2q-9 0 -20 13l-7 8
q-17 19 -10 27l91 97q11 13 44 13h38q33 0 45 -14l89 -94q3 -3 3 -7q0 -7 -13 -22l-8 -9q-7 -8 -14.5 -11.5t-11.5 0.5z" />
    <glyph glyph-name="Idieresis" unicode="&#xcf;" horiz-adv-x="381" 
d="M63.5 5.5q-1.5 5.5 -1.5 23.5v11q0 18 1.5 23.5t6.5 5.5h73v582h-73q-5 0 -6.5 5.5t-1.5 23.5v11q0 18 1.5 23.5t6.5 5.5h241q8 0 8 -28v-12q0 -29 -8 -29h-73v-582h73q8 0 8 -29v-12q0 -28 -8 -28h-241q-5 0 -6.5 5.5zM43.5 781.5q-16.5 16.5 -16.5 40.5t16.5 40.5
t40.5 16.5t40.5 -16.5t16.5 -40.5t-16.5 -40.5t-40.5 -16.5t-40.5 16.5zM256.5 781.5q-16.5 16.5 -16.5 40.5t16.5 40.5t40.5 16.5t40.5 -16.5t16.5 -40.5t-16.5 -40.5t-40.5 -16.5t-40.5 16.5z" />
    <glyph glyph-name="Idotaccent" unicode="&#x130;" horiz-adv-x="381" 
d="M63.5 5.5q-1.5 5.5 -1.5 23.5v11q0 18 1.5 23.5t6.5 5.5h73v582h-73q-5 0 -6.5 5.5t-1.5 23.5v11q0 18 1.5 23.5t6.5 5.5h241q8 0 8 -28v-12q0 -29 -8 -29h-73v-582h73q8 0 8 -29v-12q0 -28 -8 -28h-241q-5 0 -6.5 5.5zM151 802q-17 17 -17 40t17 39.5t40 16.5
t39.5 -16.5t16.5 -39.5t-16.5 -40t-39.5 -17t-40 17z" />
    <glyph glyph-name="Igrave" unicode="&#xcc;" horiz-adv-x="381" 
d="M63.5 5.5q-1.5 5.5 -1.5 23.5v11q0 18 1.5 23.5t6.5 5.5h73v582h-73q-5 0 -6.5 5.5t-1.5 23.5v11q0 18 1.5 23.5t6.5 5.5h241q8 0 8 -28v-12q0 -29 -8 -29h-73v-582h73q8 0 8 -29v-12q0 -28 -8 -28h-241q-5 0 -6.5 5.5zM179 772l-94 128q-4 5 5.5 9.5t34.5 4.5h13
q40 0 46 -11l73 -128q6 -12 -32 -12h-9q-30 0 -37 9z" />
    <glyph glyph-name="Imacron" unicode="&#x12a;" horiz-adv-x="381" 
d="M63.5 5.5q-1.5 5.5 -1.5 23.5v11q0 18 1.5 23.5t6.5 5.5h73v582h-73q-5 0 -6.5 5.5t-1.5 23.5v11q0 18 1.5 23.5t6.5 5.5h241q8 0 8 -28v-12q0 -29 -8 -29h-73v-582h73q8 0 8 -29v-12q0 -28 -8 -28h-241q-5 0 -6.5 5.5zM43 833v12q0 29 10 29h275q10 0 10 -29v-12
q0 -32 -10 -32h-275q-10 0 -10 32z" />
    <glyph glyph-name="Iogonek" unicode="&#x12e;" horiz-adv-x="381" 
d="M138 -184q-29 27 -29 65q0 36 19.5 68t52.5 51h-111q-5 0 -6.5 5.5t-1.5 23.5v11q0 18 1.5 23.5t6.5 5.5h73v582h-73q-5 0 -6.5 5.5t-1.5 23.5v11q0 18 1.5 23.5t6.5 5.5h241q8 0 8 -28v-12q0 -29 -8 -29h-73v-582h73q8 0 8 -29v-12q0 -28 -8 -28h-13q-48 0 -80 -32
q-30 -32 -30 -70q0 -23 14 -33t35 -10q24 0 41 6h2q4 0 7 -6t5 -16l2 -9q2 -8 2 -18q0 -8 -4 -9q-33 -14 -72 -14q-53 0 -82 27z" />
    <glyph glyph-name="Itilde" unicode="&#x128;" horiz-adv-x="381" 
d="M63.5 5.5q-1.5 5.5 -1.5 23.5v11q0 18 1.5 23.5t6.5 5.5h73v582h-73q-5 0 -6.5 5.5t-1.5 23.5v11q0 18 1.5 23.5t6.5 5.5h241q8 0 8 -28v-12q0 -29 -8 -29h-73v-582h73q8 0 8 -29v-12q0 -28 -8 -28h-241q-5 0 -6.5 5.5zM220.5 775q-13.5 5 -30.5 14q-19 9 -31 13.5
t-27 4.5q-30 0 -53 -27q-1 -1 -4 -1q-8 0 -22 19l-7 10q-14 19 -8 27q17 21 42 34t54 13q20 0 33.5 -5t34.5 -15q16 -9 26.5 -13t24.5 -4q26 0 51 27q2 2 4 2q7 0 22 -17l6 -8q6 -8 8.5 -15.5t-0.5 -11.5q-16 -22 -40.5 -37t-52.5 -15q-17 0 -30.5 5z" />
    <glyph glyph-name="J" unicode="J" horiz-adv-x="442" 
d="M25 40q-4 4 -1 15t12 23l7 10q8 11 16.5 15.5t13.5 0.5q49 -33 98 -33q107 0 107 136v502q0 11 41 11h11q43 0 43 -11v-493q0 -111 -47 -168.5t-150 -57.5q-97 0 -151 50z" />
    <glyph glyph-name="Jcircumflex" unicode="&#x134;" horiz-adv-x="442" 
d="M25 40q-4 4 -1 15t12 23l7 10q8 11 16.5 15.5t13.5 0.5q49 -33 98 -33q107 0 107 136v502q0 11 41 11h11q43 0 43 -11v-493q0 -111 -47 -168.5t-150 -57.5q-97 0 -151 50zM325 848l-112 -95q-2 -2 -4 -2q-9 0 -20 13l-7 8q-17 19 -10 27l91 97q11 13 44 13h38
q33 0 45 -14l89 -94q3 -3 3 -7q0 -7 -13 -22l-8 -9q-7 -8 -14.5 -11.5t-11.5 0.5z" />
    <glyph glyph-name="K" unicode="K" horiz-adv-x="588" 
d="M80 11v698q0 11 41 11h11q43 0 43 -11v-342l77 86q135 151 192 257q3 6 11 8t31 2h9q27 0 35 -2t5 -9q-19 -47 -77.5 -129t-134.5 -164l244 -405q3 -5 -9 -8t-34 -3h-19q-42 0 -48 11l-200 342l-82 -91v-251q0 -11 -41 -11h-11q-43 0 -43 11z" />
    <glyph glyph-name="Kcommaaccent" unicode="&#x136;" horiz-adv-x="588" 
d="M80 11v698q0 11 41 11h11q43 0 43 -11v-342l77 86q135 151 192 257q3 6 11 8t31 2h9q27 0 35 -2t5 -9q-19 -47 -77.5 -129t-134.5 -164l244 -405q3 -5 -9 -8t-34 -3h-19q-42 0 -48 11l-200 342l-82 -91v-251q0 -11 -41 -11h-11q-43 0 -43 11zM268 -299q-5 0 -12 6l-9 10
q-6 7 -6 12t5 10q47 47 47 81q0 11 -4 17.5t-13 15.5t-14 17.5t-5 23.5q0 20 15.5 33.5t36.5 13.5q27 0 43 -18t16 -46q0 -48 -24 -94t-65 -78q-5 -4 -11 -4z" />
    <glyph glyph-name="L" unicode="L" horiz-adv-x="506" 
d="M88 3q-8 3 -8 11v695q0 11 41 11h11q43 0 43 -11v-629h286q5 0 7 -8t2 -25v-13q0 -18 -2 -26t-7 -8h-346q-19 0 -27 3z" />
    <glyph glyph-name="Lacute" unicode="&#x139;" horiz-adv-x="506" 
d="M88 3q-8 3 -8 11v695q0 11 41 11h11q43 0 43 -11v-629h286q5 0 7 -8t2 -25v-13q0 -18 -2 -26t-7 -8h-346q-19 0 -27 3zM67 775l73 128q6 11 44 11h12q26 0 34.5 -4t4.5 -10l-94 -128q-4 -5 -11 -7t-25 -2h-8q-38 0 -30 12z" />
    <glyph glyph-name="Lcaron" unicode="&#x13d;" horiz-adv-x="506" 
d="M88 3q-8 3 -8 11v695q0 11 41 11h11q43 0 43 -11v-629h286q5 0 7 -8t2 -25v-13q0 -18 -2 -26t-7 -8h-346q-19 0 -27 3zM293 490q-5 0 -12 6l-9 10q-6 7 -6 12t5 10q47 47 47 81q0 11 -4 17.5t-13 15.5t-14 17.5t-5 23.5q0 20 15.5 33.5t36.5 13.5q27 0 43 -18t16 -46
q0 -48 -24 -94t-65 -78q-5 -4 -11 -4z" />
    <glyph glyph-name="Lcommaaccent" unicode="&#x13b;" horiz-adv-x="506" 
d="M88 3q-8 3 -8 11v695q0 11 41 11h11q43 0 43 -11v-629h286q5 0 7 -8t2 -25v-13q0 -18 -2 -26t-7 -8h-346q-19 0 -27 3zM237 -299q-5 0 -12 6l-9 10q-6 7 -6 12t5 10q47 47 47 81q0 11 -4 17.5t-13 15.5t-14 17.5t-5 23.5q0 20 15.5 33.5t36.5 13.5q27 0 43 -18t16 -46
q0 -48 -24 -94t-65 -78q-5 -4 -11 -4z" />
    <glyph glyph-name="Ldot" unicode="&#x13f;" horiz-adv-x="506" 
d="M88 3q-8 3 -8 11v695q0 11 41 11h11q43 0 43 -11v-629h286q5 0 7 -8t2 -25v-13q0 -18 -2 -26t-7 -8h-346q-19 0 -27 3zM318 344q-17 17 -17 40t17 39.5t40 16.5t39.5 -16.5t16.5 -39.5t-16.5 -40t-39.5 -17t-40 17z" />
    <glyph glyph-name="Lslash" unicode="&#x141;" horiz-adv-x="513" 
d="M92 3q-8 3 -8 11v247l-59 -44l-4 -2q-8 0 -8 26v20q0 28 8 34l63 47v367q0 11 41 11h11q43 0 43 -11v-304l119 90l4 2q8 0 8 -26v-22q0 -28 -8 -34l-123 -91v-244h286q5 0 7 -8t2 -25v-13q0 -18 -2 -26t-7 -8h-346q-19 0 -27 3z" />
    <glyph glyph-name="M" unicode="M" horiz-adv-x="779" 
d="M65 11l33 694q1 10 9.5 12.5t40.5 2.5h5q29 0 40.5 -3.5t14.5 -11.5l186 -466l181 466q3 9 13.5 12t38.5 3h7q30 0 41 -3.5t11 -11.5l28 -694q0 -11 -39 -11h-11q-41 0 -41 11l-18 555l-165 -431q-2 -5 -12 -7.5t-33 -2.5h-8q-24 0 -33.5 2.5t-11.5 8.5l-167 416
l-20 -541q0 -11 -41 -11h-10q-39 0 -39 11z" />
    <glyph glyph-name="N" unicode="N" horiz-adv-x="678" 
d="M76 11v698q0 7 9.5 9t37.5 2h5q30 0 40 -2.5t15 -10.5l333 -554v556q0 11 38 11h8q40 0 40 -11v-698q0 -7 -9.5 -9t-37.5 -2h-3q-30 0 -40 2.5t-15 10.5l-335 553v-555q0 -11 -38 -11h-8q-40 0 -40 11z" />
    <glyph glyph-name="Nacute" unicode="&#x143;" horiz-adv-x="678" 
d="M76 11v698q0 7 9.5 9t37.5 2h5q30 0 40 -2.5t15 -10.5l333 -554v556q0 11 38 11h8q40 0 40 -11v-698q0 -7 -9.5 -9t-37.5 -2h-3q-30 0 -40 2.5t-15 10.5l-335 553v-555q0 -11 -38 -11h-8q-40 0 -40 11zM275 775l73 128q6 11 44 11h12q26 0 34.5 -4t4.5 -10l-94 -128
q-4 -5 -11 -7t-25 -2h-8q-38 0 -30 12z" />
    <glyph glyph-name="Ncaron" unicode="&#x147;" horiz-adv-x="678" 
d="M76 11v698q0 7 9.5 9t37.5 2h5q30 0 40 -2.5t15 -10.5l333 -554v556q0 11 38 11h8q40 0 40 -11v-698q0 -7 -9.5 -9t-37.5 -2h-3q-30 0 -40 2.5t-15 10.5l-335 553v-555q0 -11 -38 -11h-8q-40 0 -40 11zM274 781l-89 94q-2 2 -2 6q0 8 12 22l8 9q7 8 15.5 12.5t12.5 0.5
l112 -98l109 95q2 2 5 2q9 0 20 -13l6 -7q17 -18 9 -27l-91 -97q-11 -13 -44 -13h-38q-33 0 -45 14z" />
    <glyph glyph-name="Ncommaaccent" unicode="&#x145;" horiz-adv-x="678" 
d="M76 11v698q0 7 9.5 9t37.5 2h5q30 0 40 -2.5t15 -10.5l333 -554v556q0 11 38 11h8q40 0 40 -11v-698q0 -7 -9.5 -9t-37.5 -2h-3q-30 0 -40 2.5t-15 10.5l-335 553v-555q0 -11 -38 -11h-8q-40 0 -40 11zM303 -299q-5 0 -12 6l-9 10q-6 7 -6 12t5 10q47 47 47 81
q0 11 -4 17.5t-13 15.5t-14 17.5t-5 23.5q0 20 15.5 33.5t36.5 13.5q27 0 43 -18t16 -46q0 -48 -24 -94t-65 -78q-5 -4 -11 -4z" />
    <glyph glyph-name="Eng" unicode="&#x14a;" horiz-adv-x="678" 
d="M378.5 -189.5q-21.5 4.5 -32.5 10.5q-6 3 -6 11q0 5 3 19l3 15q3 15 7 19.5t12 3.5q35 -7 46 -7q91 0 102 106l-351 578v-555q0 -11 -38 -11h-8q-40 0 -40 11v698q0 7 9.5 9t37.5 2h5q30 0 40 -2.5t15 -10.5l333 -554v556q0 11 38 11h8q40 0 40 -11v-666
q0 -237 -185 -237q-17 0 -38.5 4.5z" />
    <glyph glyph-name="Ntilde" unicode="&#xd1;" horiz-adv-x="678" 
d="M76 11v698q0 7 9.5 9t37.5 2h5q30 0 40 -2.5t15 -10.5l333 -554v556q0 11 38 11h8q40 0 40 -11v-698q0 -7 -9.5 -9t-37.5 -2h-3q-30 0 -40 2.5t-15 10.5l-335 553v-555q0 -11 -38 -11h-8q-40 0 -40 11zM368.5 775q-13.5 5 -30.5 14q-19 9 -31 13.5t-27 4.5q-30 0 -53 -27
q-1 -1 -4 -1q-8 0 -22 19l-7 10q-14 19 -8 27q17 21 42 34t54 13q20 0 33.5 -5t34.5 -15q16 -9 26.5 -13t24.5 -4q26 0 51 27q2 2 4 2q7 0 22 -17l6 -8q6 -8 8.5 -15.5t-0.5 -11.5q-16 -22 -40.5 -37t-52.5 -15q-17 0 -30.5 5z" />
    <glyph glyph-name="O" unicode="O" horiz-adv-x="697" 
d="M184 31q-66 41 -102.5 122t-36.5 197t39 202t110 132t166 46q87 0 153 -40.5t102.5 -121.5t36.5 -197t-39 -202t-110 -132.5t-166 -46.5q-87 0 -153 41zM497 149.5q57 78.5 57 217.5q0 136 -52 209t-146 73q-99 0 -156 -77.5t-57 -217.5q0 -136 52 -209.5t146 -73.5
q99 0 156 78.5z" />
    <glyph glyph-name="Oacute" unicode="&#xd3;" horiz-adv-x="697" 
d="M184 31q-66 41 -102.5 122t-36.5 197t39 202t110 132t166 46q87 0 153 -40.5t102.5 -121.5t36.5 -197t-39 -202t-110 -132.5t-166 -46.5q-87 0 -153 41zM497 149.5q57 78.5 57 217.5q0 136 -52 209t-146 73q-99 0 -156 -77.5t-57 -217.5q0 -136 52 -209.5t146 -73.5
q99 0 156 78.5zM295 775l73 128q6 11 44 11h12q26 0 34.5 -4t4.5 -10l-94 -128q-4 -5 -11 -7t-25 -2h-8q-38 0 -30 12z" />
    <glyph glyph-name="Obreve" unicode="&#x14e;" horiz-adv-x="697" 
d="M184 31q-66 41 -102.5 122t-36.5 197t39 202t110 132t166 46q87 0 153 -40.5t102.5 -121.5t36.5 -197t-39 -202t-110 -132.5t-166 -46.5q-87 0 -153 41zM497 149.5q57 78.5 57 217.5q0 136 -52 209t-146 73q-99 0 -156 -77.5t-57 -217.5q0 -136 52 -209.5t146 -73.5
q99 0 156 78.5zM253 812.5q-39 29.5 -43 89.5q0 10 32 10h12q16 0 22.5 -2.5t7.5 -7.5q3 -28 22.5 -43.5t51.5 -15.5q31 0 50.5 15.5t23.5 43.5q1 5 7.5 7.5t22.5 2.5h13q32 0 32 -10q-4 -59 -44.5 -89t-106.5 -30q-64 0 -103 29.5z" />
    <glyph glyph-name="Ocircumflex" unicode="&#xd4;" horiz-adv-x="697" 
d="M184 31q-66 41 -102.5 122t-36.5 197t39 202t110 132t166 46q87 0 153 -40.5t102.5 -121.5t36.5 -197t-39 -202t-110 -132.5t-166 -46.5q-87 0 -153 41zM497 149.5q57 78.5 57 217.5q0 136 -52 209t-146 73q-99 0 -156 -77.5t-57 -217.5q0 -136 52 -209.5t146 -73.5
q99 0 156 78.5zM358 848l-112 -95q-2 -2 -4 -2q-9 0 -20 13l-7 8q-17 19 -10 27l91 97q11 13 44 13h38q33 0 45 -14l89 -94q3 -3 3 -7q0 -7 -13 -22l-8 -9q-7 -8 -14.5 -11.5t-11.5 0.5z" />
    <glyph glyph-name="Odieresis" unicode="&#xd6;" horiz-adv-x="697" 
d="M184 31q-66 41 -102.5 122t-36.5 197t39 202t110 132t166 46q87 0 153 -40.5t102.5 -121.5t36.5 -197t-39 -202t-110 -132.5t-166 -46.5q-87 0 -153 41zM497 149.5q57 78.5 57 217.5q0 136 -52 209t-146 73q-99 0 -156 -77.5t-57 -217.5q0 -136 52 -209.5t146 -73.5
q99 0 156 78.5zM211.5 781.5q-16.5 16.5 -16.5 40.5t16.5 40.5t40.5 16.5t40.5 -16.5t16.5 -40.5t-16.5 -40.5t-40.5 -16.5t-40.5 16.5zM424.5 781.5q-16.5 16.5 -16.5 40.5t16.5 40.5t40.5 16.5t40.5 -16.5t16.5 -40.5t-16.5 -40.5t-40.5 -16.5t-40.5 16.5z" />
    <glyph glyph-name="Ograve" unicode="&#xd2;" horiz-adv-x="697" 
d="M184 31q-66 41 -102.5 122t-36.5 197t39 202t110 132t166 46q87 0 153 -40.5t102.5 -121.5t36.5 -197t-39 -202t-110 -132.5t-166 -46.5q-87 0 -153 41zM497 149.5q57 78.5 57 217.5q0 136 -52 209t-146 73q-99 0 -156 -77.5t-57 -217.5q0 -136 52 -209.5t146 -73.5
q99 0 156 78.5zM347 772l-94 128q-4 5 5.5 9.5t34.5 4.5h13q40 0 46 -11l73 -128q6 -12 -32 -12h-9q-30 0 -37 9z" />
    <glyph glyph-name="Ohungarumlaut" unicode="&#x150;" horiz-adv-x="697" 
d="M184 31q-66 41 -102.5 122t-36.5 197t39 202t110 132t166 46q87 0 153 -40.5t102.5 -121.5t36.5 -197t-39 -202t-110 -132.5t-166 -46.5q-87 0 -153 41zM497 149.5q57 78.5 57 217.5q0 136 -52 209t-146 73q-99 0 -156 -77.5t-57 -217.5q0 -136 52 -209.5t146 -73.5
q99 0 156 78.5zM210 765q-5 3 -2 10l64 128q5 11 42 11h10q47 0 38 -14l-84 -128q-6 -10 -34 -10h-8q-21 0 -26 3zM378 765q-5 3 -2 10l64 128q5 11 42 11h10q47 0 38 -14l-84 -128q-6 -10 -34 -10h-8q-21 0 -26 3z" />
    <glyph glyph-name="Omacron" unicode="&#x14c;" horiz-adv-x="697" 
d="M184 31q-66 41 -102.5 122t-36.5 197t39 202t110 132t166 46q87 0 153 -40.5t102.5 -121.5t36.5 -197t-39 -202t-110 -132.5t-166 -46.5q-87 0 -153 41zM497 149.5q57 78.5 57 217.5q0 136 -52 209t-146 73q-99 0 -156 -77.5t-57 -217.5q0 -136 52 -209.5t146 -73.5
q99 0 156 78.5zM211 833v12q0 29 10 29h275q10 0 10 -29v-12q0 -32 -10 -32h-275q-10 0 -10 32z" />
    <glyph glyph-name="Oslash" unicode="&#xd8;" horiz-adv-x="717" 
d="M115 -38q-11 0 -24 10l-23 17q-9 7 -13.5 14.5t-0.5 12.5l65 90q-62 91 -62 244q0 116 39 202t110 132t166 46q94 0 162 -47l49 71q3 4 9 4q10 0 24 -10l24 -17q11 -7 14 -14.5t0 -11.5l-59 -82q69 -93 69 -252q0 -116 -39 -202t-110 -132.5t-166 -46.5q-102 0 -170 52
l-55 -76q-4 -4 -9 -4zM485 608q-47 41 -117 41q-99 0 -156 -77.5t-57 -217.5q0 -99 28 -167zM509 149.5q57 78.5 57 217.5q0 105 -33 176l-305 -424q48 -48 125 -48q99 0 156 78.5z" />
    <glyph glyph-name="Oslashacute" unicode="&#x1fe;" horiz-adv-x="717" 
d="M115 -38q-11 0 -24 10l-23 17q-9 7 -13.5 14.5t-0.5 12.5l65 90q-62 91 -62 244q0 116 39 202t110 132t166 46q94 0 162 -47l49 71q3 4 9 4q10 0 24 -10l24 -17q11 -7 14 -14.5t0 -11.5l-59 -82q69 -93 69 -252q0 -116 -39 -202t-110 -132.5t-166 -46.5q-102 0 -170 52
l-55 -76q-4 -4 -9 -4zM485 608q-47 41 -117 41q-99 0 -156 -77.5t-57 -217.5q0 -99 28 -167zM509 149.5q57 78.5 57 217.5q0 105 -33 176l-305 -424q48 -48 125 -48q99 0 156 78.5zM305 775l73 128q6 11 44 11h12q26 0 34.5 -4t4.5 -10l-94 -128q-4 -5 -11 -7t-25 -2h-8
q-38 0 -30 12z" />
    <glyph glyph-name="Otilde" unicode="&#xd5;" horiz-adv-x="697" 
d="M184 31q-66 41 -102.5 122t-36.5 197t39 202t110 132t166 46q87 0 153 -40.5t102.5 -121.5t36.5 -197t-39 -202t-110 -132.5t-166 -46.5q-87 0 -153 41zM497 149.5q57 78.5 57 217.5q0 136 -52 209t-146 73q-99 0 -156 -77.5t-57 -217.5q0 -136 52 -209.5t146 -73.5
q99 0 156 78.5zM388.5 775q-13.5 5 -30.5 14q-19 9 -31 13.5t-27 4.5q-30 0 -53 -27q-1 -1 -4 -1q-8 0 -22 19l-7 10q-14 19 -8 27q17 21 42 34t54 13q20 0 33.5 -5t34.5 -15q16 -9 26.5 -13t24.5 -4q26 0 51 27q2 2 4 2q7 0 22 -17l6 -8q6 -8 8.5 -15.5t-0.5 -11.5
q-16 -22 -40.5 -37t-52.5 -15q-17 0 -30.5 5z" />
    <glyph glyph-name="OE" unicode="&#x152;" horiz-adv-x="937" 
d="M126 79q-81 89 -81 266q0 122 38.5 208.5t111 131.5t172.5 45q49 0 106 -10h400q5 0 7 -8t2 -25v-12q0 -18 -2 -26t-7 -8h-305v-237h259q5 0 7 -8t2 -25v-12q0 -18 -2 -26t-7 -8h-259v-245h309q5 0 7 -8t2 -25v-13q0 -18 -2 -26t-7 -8h-404q-68 -10 -124 -10
q-142 0 -223 89zM473 78v561q-44 12 -107 12q-108 0 -165.5 -76t-57.5 -223q0 -140 54 -212t157 -72q68 0 119 10z" />
    <glyph glyph-name="P" unicode="P" horiz-adv-x="537" 
d="M80 11v709h169q126 0 197.5 -49t71.5 -168q0 -58 -22.5 -111t-76 -87.5t-140.5 -34.5q-55 0 -104 6v-265q0 -11 -41 -11h-11q-43 0 -43 11zM383 388q37 41 37 112q0 86 -45.5 114t-113.5 28h-86v-289q46 -6 97 -6q74 0 111 41z" />
    <glyph glyph-name="Thorn" unicode="&#xde;" horiz-adv-x="539" 
d="M80 11v698q0 11 41 11h11q43 0 43 -11v-140q40 5 77 5q123 0 194.5 -45t71.5 -152q0 -89 -56 -152t-188 -63q-61 0 -99 6v-157q0 -11 -41 -11h-11q-43 0 -43 11zM383 274q37 35 37 98q0 77 -46.5 100.5t-118.5 23.5q-38 0 -80 -5v-246q34 -6 92 -6q79 0 116 35z" />
    <glyph glyph-name="Q" unicode="Q" horiz-adv-x="695" 
d="M445 8q-49 -18 -108 -18q-87 0 -153 41t-102.5 122t-36.5 197t39 202t110 132t166 46q87 0 153 -40.5t102.5 -121.5t36.5 -197q0 -110 -35 -193.5t-100 -131.5q44 -60 82 -90q5 -4 2 -11.5t-15 -21.5l-9 -10q-14 -17 -26 -17q-4 0 -10 4q-47 44 -96 108zM404 81
q-34 53 -50 96q-4 11 23 22l14 6q13 5 21 5q10 0 14 -7q28 -55 45 -83q40 37 61.5 99.5t21.5 147.5q0 136 -52 209t-146 73q-99 0 -156 -77.5t-57 -217.5q0 -136 52 -209.5t146 -73.5q36 0 63 10z" />
    <glyph glyph-name="R" unicode="R" horiz-adv-x="574" 
d="M80 11v709h169q128 0 199.5 -45t71.5 -159q0 -153 -147 -208l48 -93q53 -106 120 -199q4 -6 -7.5 -11t-32.5 -5h-19q-21 0 -34.5 5.5t-18.5 13.5q-23 33 -40 62t-39 73l-11 22l-61 119h-103v-284q0 -11 -41 -11h-11q-43 0 -43 11zM266 371q80 0 118 38.5t38 103.5
q0 79 -45.5 104.5t-112.5 25.5h-89v-272h91z" />
    <glyph glyph-name="Racute" unicode="&#x154;" horiz-adv-x="574" 
d="M80 11v709h169q128 0 199.5 -45t71.5 -159q0 -153 -147 -208l48 -93q53 -106 120 -199q4 -6 -7.5 -11t-32.5 -5h-19q-21 0 -34.5 5.5t-18.5 13.5q-23 33 -40 62t-39 73l-11 22l-61 119h-103v-284q0 -11 -41 -11h-11q-43 0 -43 11zM266 371q80 0 118 38.5t38 103.5
q0 79 -45.5 104.5t-112.5 25.5h-89v-272h91zM236 775l73 128q6 11 44 11h12q26 0 34.5 -4t4.5 -10l-94 -128q-4 -5 -11 -7t-25 -2h-8q-38 0 -30 12z" />
    <glyph glyph-name="Rcaron" unicode="&#x158;" horiz-adv-x="574" 
d="M80 11v709h169q128 0 199.5 -45t71.5 -159q0 -153 -147 -208l48 -93q53 -106 120 -199q4 -6 -7.5 -11t-32.5 -5h-19q-21 0 -34.5 5.5t-18.5 13.5q-23 33 -40 62t-39 73l-11 22l-61 119h-103v-284q0 -11 -41 -11h-11q-43 0 -43 11zM266 371q80 0 118 38.5t38 103.5
q0 79 -45.5 104.5t-112.5 25.5h-89v-272h91zM235 781l-89 94q-2 2 -2 6q0 8 12 22l8 9q7 8 15.5 12.5t12.5 0.5l112 -98l109 95q2 2 5 2q9 0 20 -13l6 -7q17 -18 9 -27l-91 -97q-11 -13 -44 -13h-38q-33 0 -45 14z" />
    <glyph glyph-name="Rcommaaccent" unicode="&#x156;" horiz-adv-x="574" 
d="M80 11v709h169q128 0 199.5 -45t71.5 -159q0 -153 -147 -208l48 -93q53 -106 120 -199q4 -6 -7.5 -11t-32.5 -5h-19q-21 0 -34.5 5.5t-18.5 13.5q-23 33 -40 62t-39 73l-11 22l-61 119h-103v-284q0 -11 -41 -11h-11q-43 0 -43 11zM266 371q80 0 118 38.5t38 103.5
q0 79 -45.5 104.5t-112.5 25.5h-89v-272h91zM263 -299q-5 0 -12 6l-9 10q-6 7 -6 12t5 10q47 47 47 81q0 11 -4 17.5t-13 15.5t-14 17.5t-5 23.5q0 20 15.5 33.5t36.5 13.5q27 0 43 -18t16 -46q0 -48 -24 -94t-65 -78q-5 -4 -11 -4z" />
    <glyph glyph-name="S" unicode="S" horiz-adv-x="519" 
d="M136.5 5.5q-53.5 15.5 -87.5 41.5q-4 3 -4 11q0 13 10 30l7 12q7 12 15 17t13 2q33 -23 74.5 -36t75.5 -13q64 0 105.5 30t41.5 84q0 38 -19.5 65t-49 45.5t-78.5 41.5q-56 27 -90.5 49t-58 58t-23.5 88q0 61 28 106t75.5 69t104.5 24q46 0 94 -13.5t77 -37.5q3 -3 3 -8
q0 -9 -9 -27l-5 -9q-8 -14 -15.5 -18.5t-12.5 -1.5q-53 35 -125 35q-60 0 -91 -31t-31 -75q0 -30 17.5 -53t44 -39.5t72.5 -39.5q60 -29 97 -53.5t63 -64.5t26 -98q0 -94 -59.5 -150t-170.5 -56q-61 0 -114.5 15.5z" />
    <glyph glyph-name="Sacute" unicode="&#x15a;" horiz-adv-x="519" 
d="M136.5 5.5q-53.5 15.5 -87.5 41.5q-4 3 -4 11q0 13 10 30l7 12q7 12 15 17t13 2q33 -23 74.5 -36t75.5 -13q64 0 105.5 30t41.5 84q0 38 -19.5 65t-49 45.5t-78.5 41.5q-56 27 -90.5 49t-58 58t-23.5 88q0 61 28 106t75.5 69t104.5 24q46 0 94 -13.5t77 -37.5q3 -3 3 -8
q0 -9 -9 -27l-5 -9q-8 -14 -15.5 -18.5t-12.5 -1.5q-53 35 -125 35q-60 0 -91 -31t-31 -75q0 -30 17.5 -53t44 -39.5t72.5 -39.5q60 -29 97 -53.5t63 -64.5t26 -98q0 -94 -59.5 -150t-170.5 -56q-61 0 -114.5 15.5zM212 775l73 128q6 11 44 11h12q26 0 34.5 -4t4.5 -10
l-94 -128q-4 -5 -11 -7t-25 -2h-8q-38 0 -30 12z" />
    <glyph glyph-name="Scaron" unicode="&#x160;" horiz-adv-x="519" 
d="M136.5 5.5q-53.5 15.5 -87.5 41.5q-4 3 -4 11q0 13 10 30l7 12q7 12 15 17t13 2q33 -23 74.5 -36t75.5 -13q64 0 105.5 30t41.5 84q0 38 -19.5 65t-49 45.5t-78.5 41.5q-56 27 -90.5 49t-58 58t-23.5 88q0 61 28 106t75.5 69t104.5 24q46 0 94 -13.5t77 -37.5q3 -3 3 -8
q0 -9 -9 -27l-5 -9q-8 -14 -15.5 -18.5t-12.5 -1.5q-53 35 -125 35q-60 0 -91 -31t-31 -75q0 -30 17.5 -53t44 -39.5t72.5 -39.5q60 -29 97 -53.5t63 -64.5t26 -98q0 -94 -59.5 -150t-170.5 -56q-61 0 -114.5 15.5zM211 781l-89 94q-2 2 -2 6q0 8 12 22l8 9q7 8 15.5 12.5
t12.5 0.5l112 -98l109 95q2 2 5 2q9 0 20 -13l6 -7q17 -18 9 -27l-91 -97q-11 -13 -44 -13h-38q-33 0 -45 14z" />
    <glyph glyph-name="Scedilla" unicode="&#x15e;" horiz-adv-x="519" 
d="M427.5 52.5q-53.5 -55.5 -152.5 -61.5l-3 -32q6 1 17 1q40 0 65.5 -22t25.5 -62q0 -41 -30 -69.5t-88 -28.5q-20 0 -41 3.5t-35 8.5q-6 2 -6 11l2 12l4 16q5 21 14 18q27 -8 54 -8q20 0 32.5 8.5t12.5 24.5q0 17 -11.5 23t-38.5 6q-35 0 -59 -3l12 95q-47 5 -86.5 19.5
t-66.5 34.5q-4 3 -4 11q0 13 10 30l7 12q7 12 15 17t13 2q33 -23 74.5 -36t75.5 -13q64 0 105.5 30t41.5 84q0 38 -19.5 65t-49 45.5t-78.5 41.5q-56 27 -90.5 49t-58 58t-23.5 88q0 61 28 106t75.5 69t104.5 24q46 0 94 -13.5t77 -37.5q3 -3 3 -8q0 -9 -9 -27l-5 -9
q-8 -14 -15.5 -18.5t-12.5 -1.5q-53 35 -125 35q-60 0 -91 -31t-31 -75q0 -30 17.5 -53t44 -39.5t72.5 -39.5q60 -29 97 -53.5t63 -64.5t26 -98q0 -88 -53.5 -143.5z" />
    <glyph glyph-name="Scircumflex" unicode="&#x15c;" horiz-adv-x="519" 
d="M136.5 5.5q-53.5 15.5 -87.5 41.5q-4 3 -4 11q0 13 10 30l7 12q7 12 15 17t13 2q33 -23 74.5 -36t75.5 -13q64 0 105.5 30t41.5 84q0 38 -19.5 65t-49 45.5t-78.5 41.5q-56 27 -90.5 49t-58 58t-23.5 88q0 61 28 106t75.5 69t104.5 24q46 0 94 -13.5t77 -37.5q3 -3 3 -8
q0 -9 -9 -27l-5 -9q-8 -14 -15.5 -18.5t-12.5 -1.5q-53 35 -125 35q-60 0 -91 -31t-31 -75q0 -30 17.5 -53t44 -39.5t72.5 -39.5q60 -29 97 -53.5t63 -64.5t26 -98q0 -94 -59.5 -150t-170.5 -56q-61 0 -114.5 15.5zM275 848l-112 -95q-2 -2 -4 -2q-9 0 -20 13l-7 8
q-17 19 -10 27l91 97q11 13 44 13h38q33 0 45 -14l89 -94q3 -3 3 -7q0 -7 -13 -22l-8 -9q-7 -8 -14.5 -11.5t-11.5 0.5z" />
    <glyph glyph-name="Scommaaccent" unicode="&#x218;" horiz-adv-x="519" 
d="M136.5 5.5q-53.5 15.5 -87.5 41.5q-4 3 -4 11q0 13 10 30l7 12q7 12 15 17t13 2q33 -23 74.5 -36t75.5 -13q64 0 105.5 30t41.5 84q0 38 -19.5 65t-49 45.5t-78.5 41.5q-56 27 -90.5 49t-58 58t-23.5 88q0 61 28 106t75.5 69t104.5 24q46 0 94 -13.5t77 -37.5q3 -3 3 -8
q0 -9 -9 -27l-5 -9q-8 -14 -15.5 -18.5t-12.5 -1.5q-53 35 -125 35q-60 0 -91 -31t-31 -75q0 -30 17.5 -53t44 -39.5t72.5 -39.5q60 -29 97 -53.5t63 -64.5t26 -98q0 -94 -59.5 -150t-170.5 -56q-61 0 -114.5 15.5zM230 -299q-5 0 -12 6l-9 10q-6 7 -6 12t5 10q47 47 47 81
q0 11 -4 17.5t-13 15.5t-14 17.5t-5 23.5q0 20 15.5 33.5t36.5 13.5q27 0 43 -18t16 -46q0 -48 -24 -94t-65 -78q-5 -4 -11 -4z" />
    <glyph glyph-name="T" unicode="T" horiz-adv-x="512" 
d="M208 11v630h-185q-5 0 -7 8t-2 26v12q0 17 2 25t7 8h466q5 0 7 -8t2 -25v-12q0 -18 -2 -26t-7 -8h-186v-630q0 -11 -43 -11h-11q-41 0 -41 11z" />
    <glyph glyph-name="Tbar" unicode="&#x166;" horiz-adv-x="512" 
d="M208 11v319h-110q-10 0 -10 32v7q0 29 10 29h110v243h-185q-5 0 -7 8t-2 26v12q0 17 2 25t7 8h466q5 0 7 -8t2 -25v-12q0 -18 -2 -26t-7 -8h-186v-243h110q10 0 10 -29v-7q0 -32 -10 -32h-110v-319q0 -11 -43 -11h-11q-41 0 -41 11z" />
    <glyph glyph-name="Tcaron" unicode="&#x164;" horiz-adv-x="512" 
d="M208 11v630h-185q-5 0 -7 8t-2 26v12q0 17 2 25t7 8h466q5 0 7 -8t2 -25v-12q0 -18 -2 -26t-7 -8h-186v-630q0 -11 -43 -11h-11q-41 0 -41 11zM191 781l-89 94q-2 2 -2 6q0 8 12 22l8 9q7 8 15.5 12.5t12.5 0.5l112 -98l109 95q2 2 5 2q9 0 20 -13l6 -7q17 -18 9 -27
l-91 -97q-11 -13 -44 -13h-38q-33 0 -45 14z" />
    <glyph glyph-name="uni0162" unicode="&#x162;" horiz-adv-x="512" 
d="M208 11v630h-185q-5 0 -7 8t-2 26v12q0 17 2 25t7 8h466q5 0 7 -8t2 -25v-12q0 -18 -2 -26t-7 -8h-186v-630q0 -11 -43 -11h-11q-41 0 -41 11zM218 -299q-5 0 -12 6l-9 10q-6 7 -6 12t5 10q47 47 47 81q0 11 -4 17.5t-13 15.5t-14 17.5t-5 23.5q0 20 15.5 33.5t36.5 13.5
q27 0 43 -18t16 -46q0 -48 -24 -94t-65 -78q-5 -4 -11 -4z" />
    <glyph glyph-name="uni021A" unicode="&#x21a;" horiz-adv-x="512" 
d="M208 11v630h-185q-5 0 -7 8t-2 26v12q0 17 2 25t7 8h466q5 0 7 -8t2 -25v-12q0 -18 -2 -26t-7 -8h-186v-630q0 -11 -43 -11h-11q-41 0 -41 11zM218 -299q-5 0 -12 6l-9 10q-6 7 -6 12t5 10q47 47 47 81q0 11 -4 17.5t-13 15.5t-14 17.5t-5 23.5q0 20 15.5 33.5t36.5 13.5
q27 0 43 -18t16 -46q0 -48 -24 -94t-65 -78q-5 -4 -11 -4z" />
    <glyph glyph-name="U" unicode="U" horiz-adv-x="678" 
d="M138.5 56q-65.5 66 -65.5 206v447q0 11 41 11h11q43 0 43 -11v-440q0 -104 43 -151.5t128 -47.5q83 0 127 50.5t44 147.5v441q0 11 41 11h11q43 0 43 -11v-429q0 -147 -67 -218.5t-203 -71.5q-131 0 -196.5 66z" />
    <glyph glyph-name="Uacute" unicode="&#xda;" horiz-adv-x="678" 
d="M138.5 56q-65.5 66 -65.5 206v447q0 11 41 11h11q43 0 43 -11v-440q0 -104 43 -151.5t128 -47.5q83 0 127 50.5t44 147.5v441q0 11 41 11h11q43 0 43 -11v-429q0 -147 -67 -218.5t-203 -71.5q-131 0 -196.5 66zM275 775l73 128q6 11 44 11h12q26 0 34.5 -4t4.5 -10
l-94 -128q-4 -5 -11 -7t-25 -2h-8q-38 0 -30 12z" />
    <glyph glyph-name="Ubreve" unicode="&#x16c;" horiz-adv-x="678" 
d="M138.5 56q-65.5 66 -65.5 206v447q0 11 41 11h11q43 0 43 -11v-440q0 -104 43 -151.5t128 -47.5q83 0 127 50.5t44 147.5v441q0 11 41 11h11q43 0 43 -11v-429q0 -147 -67 -218.5t-203 -71.5q-131 0 -196.5 66zM233 812.5q-39 29.5 -43 89.5q0 10 32 10h12
q16 0 22.5 -2.5t7.5 -7.5q3 -28 22.5 -43.5t51.5 -15.5q31 0 50.5 15.5t23.5 43.5q1 5 7.5 7.5t22.5 2.5h13q32 0 32 -10q-4 -59 -44.5 -89t-106.5 -30q-64 0 -103 29.5z" />
    <glyph glyph-name="Ucircumflex" unicode="&#xdb;" horiz-adv-x="678" 
d="M138.5 56q-65.5 66 -65.5 206v447q0 11 41 11h11q43 0 43 -11v-440q0 -104 43 -151.5t128 -47.5q83 0 127 50.5t44 147.5v441q0 11 41 11h11q43 0 43 -11v-429q0 -147 -67 -218.5t-203 -71.5q-131 0 -196.5 66zM338 848l-112 -95q-2 -2 -4 -2q-9 0 -20 13l-7 8
q-17 19 -10 27l91 97q11 13 44 13h38q33 0 45 -14l89 -94q3 -3 3 -7q0 -7 -13 -22l-8 -9q-7 -8 -14.5 -11.5t-11.5 0.5z" />
    <glyph glyph-name="Udieresis" unicode="&#xdc;" horiz-adv-x="678" 
d="M138.5 56q-65.5 66 -65.5 206v447q0 11 41 11h11q43 0 43 -11v-440q0 -104 43 -151.5t128 -47.5q83 0 127 50.5t44 147.5v441q0 11 41 11h11q43 0 43 -11v-429q0 -147 -67 -218.5t-203 -71.5q-131 0 -196.5 66zM191.5 781.5q-16.5 16.5 -16.5 40.5t16.5 40.5t40.5 16.5
t40.5 -16.5t16.5 -40.5t-16.5 -40.5t-40.5 -16.5t-40.5 16.5zM404.5 781.5q-16.5 16.5 -16.5 40.5t16.5 40.5t40.5 16.5t40.5 -16.5t16.5 -40.5t-16.5 -40.5t-40.5 -16.5t-40.5 16.5z" />
    <glyph glyph-name="Ugrave" unicode="&#xd9;" horiz-adv-x="678" 
d="M138.5 56q-65.5 66 -65.5 206v447q0 11 41 11h11q43 0 43 -11v-440q0 -104 43 -151.5t128 -47.5q83 0 127 50.5t44 147.5v441q0 11 41 11h11q43 0 43 -11v-429q0 -147 -67 -218.5t-203 -71.5q-131 0 -196.5 66zM327 772l-94 128q-4 5 5.5 9.5t34.5 4.5h13q40 0 46 -11
l73 -128q6 -12 -32 -12h-9q-30 0 -37 9z" />
    <glyph glyph-name="Uhungarumlaut" unicode="&#x170;" horiz-adv-x="678" 
d="M138.5 56q-65.5 66 -65.5 206v447q0 11 41 11h11q43 0 43 -11v-440q0 -104 43 -151.5t128 -47.5q83 0 127 50.5t44 147.5v441q0 11 41 11h11q43 0 43 -11v-429q0 -147 -67 -218.5t-203 -71.5q-131 0 -196.5 66zM190 765q-5 3 -2 10l64 128q5 11 42 11h10q47 0 38 -14
l-84 -128q-6 -10 -34 -10h-8q-21 0 -26 3zM358 765q-5 3 -2 10l64 128q5 11 42 11h10q47 0 38 -14l-84 -128q-6 -10 -34 -10h-8q-21 0 -26 3z" />
    <glyph glyph-name="Umacron" unicode="&#x16a;" horiz-adv-x="678" 
d="M138.5 56q-65.5 66 -65.5 206v447q0 11 41 11h11q43 0 43 -11v-440q0 -104 43 -151.5t128 -47.5q83 0 127 50.5t44 147.5v441q0 11 41 11h11q43 0 43 -11v-429q0 -147 -67 -218.5t-203 -71.5q-131 0 -196.5 66zM191 833v12q0 29 10 29h275q10 0 10 -29v-12q0 -32 -10 -32
h-275q-10 0 -10 32z" />
    <glyph glyph-name="Uogonek" unicode="&#x172;" horiz-adv-x="678" 
d="M325.5 -186q-29.5 25 -29.5 67q0 30 15.5 58.5t42.5 50.5h-18q-131 0 -197 66.5t-66 205.5v447q0 11 41 11h11q43 0 43 -11v-440q0 -104 43 -151.5t128 -47.5q83 0 127 50.5t44 147.5v441q0 11 41 11h11q43 0 43 -11v-431q0 -86 -22 -135t-73 -92q-18 -16 -40 -31
q-40 -30 -61 -50q-17 -17 -25.5 -32.5t-8.5 -35.5q0 -23 14 -35t36 -12q16 0 40 6h2q4 0 6.5 -4.5t5.5 -17.5l2 -9q2 -8 2 -18q0 -8 -4 -9q-33 -14 -72 -14q-52 0 -81.5 25z" />
    <glyph glyph-name="Uring" unicode="&#x16e;" horiz-adv-x="678" 
d="M138.5 56q-65.5 66 -65.5 206v447q0 11 41 11h11q43 0 43 -11v-440q0 -104 43 -151.5t128 -47.5q83 0 127 50.5t44 147.5v441q0 11 41 11h11q43 0 43 -11v-429q0 -147 -67 -218.5t-203 -71.5q-131 0 -196.5 66zM273 768.5q-28 26.5 -28 63.5t28 63.5t66 26.5
q39 0 66.5 -26t27.5 -64t-27.5 -64t-66.5 -26q-38 0 -66 26.5zM368.5 802q11.5 12 11.5 30t-11.5 30t-29.5 12t-30 -12t-12 -30t12 -30t30 -12t29.5 12z" />
    <glyph glyph-name="Utilde" unicode="&#x168;" horiz-adv-x="678" 
d="M138.5 56q-65.5 66 -65.5 206v447q0 11 41 11h11q43 0 43 -11v-440q0 -104 43 -151.5t128 -47.5q83 0 127 50.5t44 147.5v441q0 11 41 11h11q43 0 43 -11v-429q0 -147 -67 -218.5t-203 -71.5q-131 0 -196.5 66zM368.5 775q-13.5 5 -30.5 14q-19 9 -31 13.5t-27 4.5
q-30 0 -53 -27q-1 -1 -4 -1q-8 0 -22 19l-7 10q-14 19 -8 27q17 21 42 34t54 13q20 0 33.5 -5t34.5 -15q16 -9 26.5 -13t24.5 -4q26 0 51 27q2 2 4 2q7 0 22 -17l6 -8q6 -8 8.5 -15.5t-0.5 -11.5q-16 -22 -40.5 -37t-52.5 -15q-17 0 -30.5 5z" />
    <glyph glyph-name="V" unicode="V" horiz-adv-x="607" 
d="M249 11l-231 697q-2 6 10 9t34 3h15q19 0 32 -3.5t15 -8.5l186 -613l183 613q3 12 43 12h13q45 0 40 -12l-223 -697q-4 -11 -47 -11h-24q-42 0 -46 11z" />
    <glyph glyph-name="W" unicode="W" horiz-adv-x="953" 
d="M218 12l-190 696q-3 12 44 12h14q44 0 47 -12l148 -613l146 614q3 11 45 11h23q42 0 45 -11l150 -614l144 613q3 12 42 12h11q43 0 40 -12l-179 -698q-3 -11 -47 -11h-30q-43 0 -46 11l-144 590l-139 -588q-1 -6 -14 -9.5t-33 -3.5h-31q-43 0 -46 13z" />
    <glyph glyph-name="Wacute" unicode="&#x1e82;" horiz-adv-x="953" 
d="M218 12l-190 696q-3 12 44 12h14q44 0 47 -12l148 -613l146 614q3 11 45 11h23q42 0 45 -11l150 -614l144 613q3 12 42 12h11q43 0 40 -12l-179 -698q-3 -11 -47 -11h-30q-43 0 -46 11l-144 590l-139 -588q-1 -6 -14 -9.5t-33 -3.5h-31q-43 0 -46 13zM421 775l73 128
q6 11 44 11h12q26 0 34.5 -4t4.5 -10l-94 -128q-4 -5 -11 -7t-25 -2h-8q-38 0 -30 12z" />
    <glyph glyph-name="Wcircumflex" unicode="&#x174;" horiz-adv-x="953" 
d="M218 12l-190 696q-3 12 44 12h14q44 0 47 -12l148 -613l146 614q3 11 45 11h23q42 0 45 -11l150 -614l144 613q3 12 42 12h11q43 0 40 -12l-179 -698q-3 -11 -47 -11h-30q-43 0 -46 11l-144 590l-139 -588q-1 -6 -14 -9.5t-33 -3.5h-31q-43 0 -46 13zM484 848l-112 -95
q-2 -2 -4 -2q-9 0 -20 13l-7 8q-17 19 -10 27l91 97q11 13 44 13h38q33 0 45 -14l89 -94q3 -3 3 -7q0 -7 -13 -22l-8 -9q-7 -8 -14.5 -11.5t-11.5 0.5z" />
    <glyph glyph-name="Wdieresis" unicode="&#x1e84;" horiz-adv-x="953" 
d="M218 12l-190 696q-3 12 44 12h14q44 0 47 -12l148 -613l146 614q3 11 45 11h23q42 0 45 -11l150 -614l144 613q3 12 42 12h11q43 0 40 -12l-179 -698q-3 -11 -47 -11h-30q-43 0 -46 11l-144 590l-139 -588q-1 -6 -14 -9.5t-33 -3.5h-31q-43 0 -46 13zM337.5 781.5
q-16.5 16.5 -16.5 40.5t16.5 40.5t40.5 16.5t40.5 -16.5t16.5 -40.5t-16.5 -40.5t-40.5 -16.5t-40.5 16.5zM550.5 781.5q-16.5 16.5 -16.5 40.5t16.5 40.5t40.5 16.5t40.5 -16.5t16.5 -40.5t-16.5 -40.5t-40.5 -16.5t-40.5 16.5z" />
    <glyph glyph-name="Wgrave" unicode="&#x1e80;" horiz-adv-x="953" 
d="M218 12l-190 696q-3 12 44 12h14q44 0 47 -12l148 -613l146 614q3 11 45 11h23q42 0 45 -11l150 -614l144 613q3 12 42 12h11q43 0 40 -12l-179 -698q-3 -11 -47 -11h-30q-43 0 -46 11l-144 590l-139 -588q-1 -6 -14 -9.5t-33 -3.5h-31q-43 0 -46 13zM473 772l-94 128
q-4 5 5.5 9.5t34.5 4.5h13q40 0 46 -11l73 -128q6 -12 -32 -12h-9q-30 0 -37 9z" />
    <glyph glyph-name="X" unicode="X" horiz-adv-x="576" 
d="M27.5 3.5q-12.5 3.5 -8.5 9.5l221 365l-190 330q-3 6 9.5 9t34.5 3h12q43 0 48 -11l149 -265l149 265q7 11 48 11h10q22 0 35 -3t9 -9l-206 -339l210 -356q4 -6 -9 -9.5t-35 -3.5h-15q-43 0 -49 11l-162 290l-166 -290q-6 -11 -48 -11h-12q-22 0 -34.5 3.5z" />
    <glyph glyph-name="Y" unicode="Y" horiz-adv-x="543" 
d="M222 11v268l-212 429q-3 6 9.5 9t34.5 3h15q43 0 48 -11l159 -338l156 338q6 11 46 11h11q21 0 33 -3t9 -9l-214 -429v-268q0 -11 -43 -11h-11q-41 0 -41 11z" />
    <glyph glyph-name="Yacute" unicode="&#xdd;" horiz-adv-x="543" 
d="M222 11v268l-212 429q-3 6 9.5 9t34.5 3h15q43 0 48 -11l159 -338l156 338q6 11 46 11h11q21 0 33 -3t9 -9l-214 -429v-268q0 -11 -43 -11h-11q-41 0 -41 11zM208 775l73 128q6 11 44 11h12q26 0 34.5 -4t4.5 -10l-94 -128q-4 -5 -11 -7t-25 -2h-8q-38 0 -30 12z" />
    <glyph glyph-name="Ycircumflex" unicode="&#x176;" horiz-adv-x="543" 
d="M222 11v268l-212 429q-3 6 9.5 9t34.5 3h15q43 0 48 -11l159 -338l156 338q6 11 46 11h11q21 0 33 -3t9 -9l-214 -429v-268q0 -11 -43 -11h-11q-41 0 -41 11zM271 848l-112 -95q-2 -2 -4 -2q-9 0 -20 13l-7 8q-17 19 -10 27l91 97q11 13 44 13h38q33 0 45 -14l89 -94
q3 -3 3 -7q0 -7 -13 -22l-8 -9q-7 -8 -14.5 -11.5t-11.5 0.5z" />
    <glyph glyph-name="Ydieresis" unicode="&#x178;" horiz-adv-x="543" 
d="M222 11v268l-212 429q-3 6 9.5 9t34.5 3h15q43 0 48 -11l159 -338l156 338q6 11 46 11h11q21 0 33 -3t9 -9l-214 -429v-268q0 -11 -43 -11h-11q-41 0 -41 11zM124.5 781.5q-16.5 16.5 -16.5 40.5t16.5 40.5t40.5 16.5t40.5 -16.5t16.5 -40.5t-16.5 -40.5t-40.5 -16.5
t-40.5 16.5zM337.5 781.5q-16.5 16.5 -16.5 40.5t16.5 40.5t40.5 16.5t40.5 -16.5t16.5 -40.5t-16.5 -40.5t-40.5 -16.5t-40.5 16.5z" />
    <glyph glyph-name="Ygrave" unicode="&#x1ef2;" horiz-adv-x="543" 
d="M222 11v268l-212 429q-3 6 9.5 9t34.5 3h15q43 0 48 -11l159 -338l156 338q6 11 46 11h11q21 0 33 -3t9 -9l-214 -429v-268q0 -11 -43 -11h-11q-41 0 -41 11zM260 772l-94 128q-4 5 5.5 9.5t34.5 4.5h13q40 0 46 -11l73 -128q6 -12 -32 -12h-9q-30 0 -37 9z" />
    <glyph glyph-name="Z" unicode="Z" horiz-adv-x="547" 
d="M48.5 3q-7.5 3 -7.5 11v43q0 13 4.5 24.5t13.5 26.5l334 533h-323q-5 0 -7 7.5t-2 29.5v7q0 35 9 35h398q20 0 27.5 -3t7.5 -11v-43q0 -11 -5.5 -22.5t-15.5 -27.5l-333 -533h353q5 0 7 -8t2 -25v-12q0 -35 -9 -35h-426q-20 0 -27.5 3z" />
    <glyph glyph-name="Zacute" unicode="&#x179;" horiz-adv-x="547" 
d="M48.5 3q-7.5 3 -7.5 11v43q0 13 4.5 24.5t13.5 26.5l334 533h-323q-5 0 -7 7.5t-2 29.5v7q0 35 9 35h398q20 0 27.5 -3t7.5 -11v-43q0 -11 -5.5 -22.5t-15.5 -27.5l-333 -533h353q5 0 7 -8t2 -25v-12q0 -35 -9 -35h-426q-20 0 -27.5 3zM218 775l73 128q6 11 44 11h12
q26 0 34.5 -4t4.5 -10l-94 -128q-4 -5 -11 -7t-25 -2h-8q-38 0 -30 12z" />
    <glyph glyph-name="Zcaron" unicode="&#x17d;" horiz-adv-x="547" 
d="M48.5 3q-7.5 3 -7.5 11v43q0 13 4.5 24.5t13.5 26.5l334 533h-323q-5 0 -7 7.5t-2 29.5v7q0 35 9 35h398q20 0 27.5 -3t7.5 -11v-43q0 -11 -5.5 -22.5t-15.5 -27.5l-333 -533h353q5 0 7 -8t2 -25v-12q0 -35 -9 -35h-426q-20 0 -27.5 3zM217 781l-89 94q-2 2 -2 6
q0 8 12 22l8 9q7 8 15.5 12.5t12.5 0.5l112 -98l109 95q2 2 5 2q9 0 20 -13l6 -7q17 -18 9 -27l-91 -97q-11 -13 -44 -13h-38q-33 0 -45 14z" />
    <glyph glyph-name="Zdotaccent" unicode="&#x17b;" horiz-adv-x="547" 
d="M48.5 3q-7.5 3 -7.5 11v43q0 13 4.5 24.5t13.5 26.5l334 533h-323q-5 0 -7 7.5t-2 29.5v7q0 35 9 35h398q20 0 27.5 -3t7.5 -11v-43q0 -11 -5.5 -22.5t-15.5 -27.5l-333 -533h353q5 0 7 -8t2 -25v-12q0 -35 -9 -35h-426q-20 0 -27.5 3zM242 802q-17 17 -17 40t17 39.5
t40 16.5t39.5 -16.5t16.5 -39.5t-16.5 -40t-39.5 -17t-40 17z" />
    <glyph glyph-name="Iacute_J.loclNLD" horiz-adv-x="823" 
d="M63.5 5.5q-1.5 5.5 -1.5 23.5v11q0 18 1.5 23.5t6.5 5.5h73v582h-73q-5 0 -6.5 5.5t-1.5 23.5v11q0 18 1.5 23.5t6.5 5.5h241q8 0 8 -28v-12q0 -29 -8 -29h-73v-582h73q8 0 8 -29v-12q0 -28 -8 -28h-241q-5 0 -6.5 5.5zM127 775l73 128q6 11 44 11h12q26 0 34.5 -4
t4.5 -10l-94 -128q-4 -5 -11 -7t-25 -2h-8q-38 0 -30 12zM406 40q-4 4 -1 15t12 23l7 10q8 11 16.5 15.5t13.5 0.5q49 -33 98 -33q107 0 107 136v502q0 11 41 11h11q43 0 43 -11v-493q0 -111 -47 -168.5t-150 -57.5q-97 0 -151 50zM643 775l73 128q6 11 44 11h12
q26 0 34.5 -4t4.5 -10l-94 -128q-4 -5 -11 -7t-25 -2h-8q-38 0 -30 12z" />
    <glyph glyph-name="Cacute.loclPLK" horiz-adv-x="573" 
d="M120.5 87.5q-72.5 97.5 -72.5 262.5q0 166 72.5 273t230.5 107q106 0 180 -50q4 -4 4 -10q0 -8 -7 -24l-6 -12q-6 -12 -13 -18.5t-11 -4.5q-70 38 -137 38q-96 0 -155.5 -74t-59.5 -219q0 -121 49 -202t161 -81q71 0 137 33q5 2 11.5 -3.5t12.5 -18.5l6 -13q7 -16 7 -24
q0 -6 -4 -10q-82 -47 -188 -47q-145 0 -217.5 97.5zM305 765.5q-7 2.5 -5 9.5l28 128q2 6 9.5 8.5t30.5 2.5h11q29 0 35.5 -3t4.5 -11l-49 -128q-3 -6 -8.5 -7.5t-23.5 -1.5h-3q-23 0 -30 2.5z" />
    <glyph glyph-name="Nacute.loclPLK" horiz-adv-x="678" 
d="M76 11v698q0 7 9.5 9t37.5 2h5q30 0 40 -2.5t15 -10.5l333 -554v556q0 11 38 11h8q40 0 40 -11v-698q0 -7 -9.5 -9t-37.5 -2h-3q-30 0 -40 2.5t-15 10.5l-335 553v-555q0 -11 -38 -11h-8q-40 0 -40 11zM298 765.5q-7 2.5 -5 9.5l28 128q2 6 9.5 8.5t30.5 2.5h11
q29 0 35.5 -3t4.5 -11l-49 -128q-3 -6 -8.5 -7.5t-23.5 -1.5h-3q-23 0 -30 2.5z" />
    <glyph glyph-name="Oacute.loclPLK" horiz-adv-x="697" 
d="M184 31q-66 41 -102.5 122t-36.5 197t39 202t110 132t166 46q87 0 153 -40.5t102.5 -121.5t36.5 -197t-39 -202t-110 -132.5t-166 -46.5q-87 0 -153 41zM497 149.5q57 78.5 57 217.5q0 136 -52 209t-146 73q-99 0 -156 -77.5t-57 -217.5q0 -136 52 -209.5t146 -73.5
q99 0 156 78.5zM318 765.5q-7 2.5 -5 9.5l28 128q2 6 9.5 8.5t30.5 2.5h11q29 0 35.5 -3t4.5 -11l-49 -128q-3 -6 -8.5 -7.5t-23.5 -1.5h-3q-23 0 -30 2.5z" />
    <glyph glyph-name="Sacute.loclPLK" horiz-adv-x="519" 
d="M136.5 5.5q-53.5 15.5 -87.5 41.5q-4 3 -4 11q0 13 10 30l7 12q7 12 15 17t13 2q33 -23 74.5 -36t75.5 -13q64 0 105.5 30t41.5 84q0 38 -19.5 65t-49 45.5t-78.5 41.5q-56 27 -90.5 49t-58 58t-23.5 88q0 61 28 106t75.5 69t104.5 24q46 0 94 -13.5t77 -37.5q3 -3 3 -8
q0 -9 -9 -27l-5 -9q-8 -14 -15.5 -18.5t-12.5 -1.5q-53 35 -125 35q-60 0 -91 -31t-31 -75q0 -30 17.5 -53t44 -39.5t72.5 -39.5q60 -29 97 -53.5t63 -64.5t26 -98q0 -94 -59.5 -150t-170.5 -56q-61 0 -114.5 15.5zM235 765.5q-7 2.5 -5 9.5l28 128q2 6 9.5 8.5t30.5 2.5h11
q29 0 35.5 -3t4.5 -11l-49 -128q-3 -6 -8.5 -7.5t-23.5 -1.5h-3q-23 0 -30 2.5z" />
    <glyph glyph-name="Zacute.loclPLK" horiz-adv-x="547" 
d="M48.5 3q-7.5 3 -7.5 11v43q0 13 4.5 24.5t13.5 26.5l334 533h-323q-5 0 -7 7.5t-2 29.5v7q0 35 9 35h398q20 0 27.5 -3t7.5 -11v-43q0 -11 -5.5 -22.5t-15.5 -27.5l-333 -533h353q5 0 7 -8t2 -25v-12q0 -35 -9 -35h-426q-20 0 -27.5 3zM241 765.5q-7 2.5 -5 9.5l28 128
q2 6 9.5 8.5t30.5 2.5h11q29 0 35.5 -3t4.5 -11l-49 -128q-3 -6 -8.5 -7.5t-23.5 -1.5h-3q-23 0 -30 2.5z" />
    <glyph glyph-name="a" unicode="a" horiz-adv-x="567" 
d="M140.5 25.5q-48.5 35.5 -72 95.5t-23.5 134q0 84 30 148.5t82 99.5t118 35q43 0 78 -17.5t57 -46.5l5 42q1 9 6.5 10.5t29.5 1.5h2q26 0 32.5 -2.5t6.5 -9.5q0 -24 -1 -42l-1 -110v-140q0 -84 7 -212q0 -7 -7 -9.5t-29 -2.5h-4q-23 0 -30 2.5t-8 9.5l-6 46
q-25 -30 -66 -49t-88 -19q-70 0 -118.5 35.5zM329.5 79.5q26.5 9.5 45.5 29.5q15 17 20 44t5 94v142q-18 29 -49.5 48.5t-65.5 19.5q-68 0 -107 -53t-39 -144q0 -81 32.5 -135.5t103.5 -54.5q28 0 54.5 9.5z" />
    <glyph glyph-name="aacute" unicode="&#xe1;" horiz-adv-x="567" 
d="M140.5 25.5q-48.5 35.5 -72 95.5t-23.5 134q0 84 30 148.5t82 99.5t118 35q43 0 78 -17.5t57 -46.5l5 42q1 9 6.5 10.5t29.5 1.5h2q26 0 32.5 -2.5t6.5 -9.5q0 -24 -1 -42l-1 -110v-140q0 -84 7 -212q0 -7 -7 -9.5t-29 -2.5h-4q-23 0 -30 2.5t-8 9.5l-6 46
q-25 -30 -66 -49t-88 -19q-70 0 -118.5 35.5zM329.5 79.5q26.5 9.5 45.5 29.5q15 17 20 44t5 94v142q-18 29 -49.5 48.5t-65.5 19.5q-68 0 -107 -53t-39 -144q0 -81 32.5 -135.5t103.5 -54.5q28 0 54.5 9.5zM226 593l73 128q6 11 44 11h12q26 0 34.5 -4t4.5 -10l-94 -128
q-5 -9 -36 -9h-8q-38 0 -30 12z" />
    <glyph glyph-name="abreve" unicode="&#x103;" horiz-adv-x="567" 
d="M140.5 25.5q-48.5 35.5 -72 95.5t-23.5 134q0 84 30 148.5t82 99.5t118 35q43 0 78 -17.5t57 -46.5l5 42q1 9 6.5 10.5t29.5 1.5h2q26 0 32.5 -2.5t6.5 -9.5q0 -24 -1 -42l-1 -110v-140q0 -84 7 -212q0 -7 -7 -9.5t-29 -2.5h-4q-23 0 -30 2.5t-8 9.5l-6 46
q-25 -30 -66 -49t-88 -19q-70 0 -118.5 35.5zM329.5 79.5q26.5 9.5 45.5 29.5q15 17 20 44t5 94v142q-18 29 -49.5 48.5t-65.5 19.5q-68 0 -107 -53t-39 -144q0 -81 32.5 -135.5t103.5 -54.5q28 0 54.5 9.5zM174 622.5q-39 29.5 -43 89.5q0 10 32 10h12q16 0 22.5 -2.5
t7.5 -7.5q3 -28 22.5 -43.5t51.5 -15.5q31 0 50.5 15.5t23.5 43.5q1 5 7.5 7.5t22.5 2.5h13q32 0 32 -10q-4 -59 -44.5 -89t-106.5 -30q-64 0 -103 29.5z" />
    <glyph glyph-name="uni01CE" unicode="&#x1ce;" horiz-adv-x="567" 
d="M140.5 25.5q-48.5 35.5 -72 95.5t-23.5 134q0 84 30 148.5t82 99.5t118 35q43 0 78 -17.5t57 -46.5l5 42q1 9 6.5 10.5t29.5 1.5h2q26 0 32.5 -2.5t6.5 -9.5q0 -24 -1 -42l-1 -110v-140q0 -84 7 -212q0 -7 -7 -9.5t-29 -2.5h-4q-23 0 -30 2.5t-8 9.5l-6 46
q-25 -30 -66 -49t-88 -19q-70 0 -118.5 35.5zM329.5 79.5q26.5 9.5 45.5 29.5q15 17 20 44t5 94v142q-18 29 -49.5 48.5t-65.5 19.5q-68 0 -107 -53t-39 -144q0 -81 32.5 -135.5t103.5 -54.5q28 0 54.5 9.5zM215 589l-89 94q-2 2 -2 6q0 8 12 22l8 9q7 8 15.5 12.5t12.5 0.5
l112 -98l109 95q2 2 5 2q9 0 20 -13l6 -7q17 -18 9 -27l-91 -97q-11 -13 -44 -13h-38q-33 0 -45 14z" />
    <glyph glyph-name="acircumflex" unicode="&#xe2;" horiz-adv-x="567" 
d="M140.5 25.5q-48.5 35.5 -72 95.5t-23.5 134q0 84 30 148.5t82 99.5t118 35q43 0 78 -17.5t57 -46.5l5 42q1 9 6.5 10.5t29.5 1.5h2q26 0 32.5 -2.5t6.5 -9.5q0 -24 -1 -42l-1 -110v-140q0 -84 7 -212q0 -7 -7 -9.5t-29 -2.5h-4q-23 0 -30 2.5t-8 9.5l-6 46
q-25 -30 -66 -49t-88 -19q-70 0 -118.5 35.5zM329.5 79.5q26.5 9.5 45.5 29.5q15 17 20 44t5 94v142q-18 29 -49.5 48.5t-65.5 19.5q-68 0 -107 -53t-39 -144q0 -81 32.5 -135.5t103.5 -54.5q28 0 54.5 9.5zM279 676l-112 -95q-2 -2 -4 -2q-9 0 -20 13l-7 8q-17 19 -10 27
l91 97q11 13 44 13h38q33 0 45 -14l89 -94q3 -3 3 -7q0 -7 -13 -22l-8 -9q-7 -8 -14.5 -11.5t-11.5 0.5z" />
    <glyph glyph-name="adieresis" unicode="&#xe4;" horiz-adv-x="567" 
d="M140.5 25.5q-48.5 35.5 -72 95.5t-23.5 134q0 84 30 148.5t82 99.5t118 35q43 0 78 -17.5t57 -46.5l5 42q1 9 6.5 10.5t29.5 1.5h2q26 0 32.5 -2.5t6.5 -9.5q0 -24 -1 -42l-1 -110v-140q0 -84 7 -212q0 -7 -7 -9.5t-29 -2.5h-4q-23 0 -30 2.5t-8 9.5l-6 46
q-25 -30 -66 -49t-88 -19q-70 0 -118.5 35.5zM329.5 79.5q26.5 9.5 45.5 29.5q15 17 20 44t5 94v142q-18 29 -49.5 48.5t-65.5 19.5q-68 0 -107 -53t-39 -144q0 -81 32.5 -135.5t103.5 -54.5q28 0 54.5 9.5zM122.5 614.5q-16.5 16.5 -16.5 40.5t16.5 40.5t40.5 16.5
t40.5 -16.5t16.5 -40.5t-16.5 -40.5t-40.5 -16.5t-40.5 16.5zM355.5 614.5q-16.5 16.5 -16.5 40.5t16.5 40.5t40.5 16.5t40.5 -16.5t16.5 -40.5t-16.5 -40.5t-40.5 -16.5t-40.5 16.5z" />
    <glyph glyph-name="agrave" unicode="&#xe0;" horiz-adv-x="567" 
d="M140.5 25.5q-48.5 35.5 -72 95.5t-23.5 134q0 84 30 148.5t82 99.5t118 35q43 0 78 -17.5t57 -46.5l5 42q1 9 6.5 10.5t29.5 1.5h2q26 0 32.5 -2.5t6.5 -9.5q0 -24 -1 -42l-1 -110v-140q0 -84 7 -212q0 -7 -7 -9.5t-29 -2.5h-4q-23 0 -30 2.5t-8 9.5l-6 46
q-25 -30 -66 -49t-88 -19q-70 0 -118.5 35.5zM329.5 79.5q26.5 9.5 45.5 29.5q15 17 20 44t5 94v142q-18 29 -49.5 48.5t-65.5 19.5q-68 0 -107 -53t-39 -144q0 -81 32.5 -135.5t103.5 -54.5q28 0 54.5 9.5zM268 590l-94 128q-4 5 5.5 9.5t34.5 4.5h13q40 0 46 -11l73 -128
q6 -12 -32 -12h-9q-30 0 -37 9z" />
    <glyph glyph-name="amacron" unicode="&#x101;" horiz-adv-x="567" 
d="M140.5 25.5q-48.5 35.5 -72 95.5t-23.5 134q0 84 30 148.5t82 99.5t118 35q43 0 78 -17.5t57 -46.5l5 42q1 9 6.5 10.5t29.5 1.5h2q26 0 32.5 -2.5t6.5 -9.5q0 -24 -1 -42l-1 -110v-140q0 -84 7 -212q0 -7 -7 -9.5t-29 -2.5h-4q-23 0 -30 2.5t-8 9.5l-6 46
q-25 -30 -66 -49t-88 -19q-70 0 -118.5 35.5zM329.5 79.5q26.5 9.5 45.5 29.5q15 17 20 44t5 94v142q-18 29 -49.5 48.5t-65.5 19.5q-68 0 -107 -53t-39 -144q0 -81 32.5 -135.5t103.5 -54.5q28 0 54.5 9.5zM132 652v12q0 29 10 29h275q10 0 10 -29v-12q0 -32 -10 -32h-275
q-10 0 -10 32z" />
    <glyph glyph-name="aogonek" unicode="&#x105;" horiz-adv-x="567" 
d="M340 -184q-29 27 -29 65q0 89 107 138l-5 39q-25 -30 -66 -49t-88 -19q-70 0 -118.5 35.5t-72 95.5t-23.5 134q0 84 30 148.5t82 99.5t118 35q43 0 78 -17.5t57 -46.5l5 42q1 9 6.5 10.5t29.5 1.5h2q26 0 32.5 -2.5t6.5 -9.5q0 -24 -1 -42l-1 -110v-140q0 -133 7 -210v-2
q0 -8 -12 -11q-37 -7 -66 -36.5t-29 -66.5q0 -43 49 -43q24 0 41 6h2q4 0 7 -6t5 -16l2 -9q2 -8 2 -18q0 -8 -4 -9q-33 -14 -72 -14q-53 0 -82 27zM329.5 79.5q26.5 9.5 45.5 29.5q15 17 20 44t5 94v142q-18 29 -49.5 48.5t-65.5 19.5q-68 0 -107 -53t-39 -144
q0 -81 32.5 -135.5t103.5 -54.5q28 0 54.5 9.5z" />
    <glyph glyph-name="aring" unicode="&#xe5;" horiz-adv-x="567" 
d="M140.5 25.5q-48.5 35.5 -72 95.5t-23.5 134q0 84 30 148.5t82 99.5t118 35q43 0 78 -17.5t57 -46.5l5 42q1 9 6.5 10.5t29.5 1.5h2q26 0 32.5 -2.5t6.5 -9.5q0 -24 -1 -42l-1 -110v-140q0 -84 7 -212q0 -7 -7 -9.5t-29 -2.5h-4q-23 0 -30 2.5t-8 9.5l-6 46
q-25 -30 -66 -49t-88 -19q-70 0 -118.5 35.5zM329.5 79.5q26.5 9.5 45.5 29.5q15 17 20 44t5 94v142q-18 29 -49.5 48.5t-65.5 19.5q-68 0 -107 -53t-39 -144q0 -81 32.5 -135.5t103.5 -54.5q28 0 54.5 9.5zM214 604.5q-28 26.5 -28 63.5t28 63.5t66 26.5q39 0 66.5 -26
t27.5 -64t-27.5 -64t-66.5 -26q-38 0 -66 26.5zM309.5 638q11.5 12 11.5 30t-11.5 30t-29.5 12t-30 -12t-12 -30t12 -30t30 -12t29.5 12z" />
    <glyph glyph-name="atilde" unicode="&#xe3;" horiz-adv-x="567" 
d="M140.5 25.5q-48.5 35.5 -72 95.5t-23.5 134q0 84 30 148.5t82 99.5t118 35q43 0 78 -17.5t57 -46.5l5 42q1 9 6.5 10.5t29.5 1.5h2q26 0 32.5 -2.5t6.5 -9.5q0 -24 -1 -42l-1 -110v-140q0 -84 7 -212q0 -7 -7 -9.5t-29 -2.5h-4q-23 0 -30 2.5t-8 9.5l-6 46
q-25 -30 -66 -49t-88 -19q-70 0 -118.5 35.5zM329.5 79.5q26.5 9.5 45.5 29.5q15 17 20 44t5 94v142q-18 29 -49.5 48.5t-65.5 19.5q-68 0 -107 -53t-39 -144q0 -81 32.5 -135.5t103.5 -54.5q28 0 54.5 9.5zM309.5 613q-13.5 5 -30.5 14q-19 9 -31 13.5t-27 4.5
q-30 0 -53 -27q-1 -1 -4 -1q-8 0 -22 19l-7 10q-14 19 -8 27q17 21 42 34t54 13q20 0 33.5 -5t34.5 -15q16 -9 26.5 -13t24.5 -4q26 0 51 27q2 2 4 2q7 0 22 -17l6 -8q6 -8 8.5 -15.5t-0.5 -11.5q-16 -22 -40.5 -37t-52.5 -15q-17 0 -30.5 5z" />
    <glyph glyph-name="ae" unicode="&#xe6;" horiz-adv-x="857" 
d="M133.5 9q-41.5 19 -66.5 56t-25 90q0 83 56 130t155 47q30 0 60.5 -6t53.5 -15v16q0 70 -28.5 100.5t-94.5 30.5q-70 0 -137 -26q-5 -3 -11 2.5t-12 20.5l-4 13q-5 15 -5 23q0 9 5 11q33 17 80.5 26.5t91.5 9.5q67 0 109.5 -21t65.5 -61q30 40 74 61t99 21q63 0 108 -29
t71 -81q32 -67 32 -160q0 -22 -2 -29t-8 -7h-342q5 -86 48 -124q39 -36 114 -36q65 0 129 29l8 2q8 0 17 -21l5 -12q8 -17 8 -27q0 -7 -6 -10q-74 -43 -178 -43q-127 0 -189 82q-37 -37 -81.5 -59.5t-110.5 -22.5q-48 0 -89.5 19zM719 306q-1 62 -31.5 106t-86.5 44
q-55 0 -92.5 -37.5t-46.5 -112.5h257zM326.5 86.5q37.5 17.5 58.5 42.5q-19 51 -20 111q-53 19 -110 19q-55 0 -88.5 -24.5t-33.5 -72.5q0 -43 30.5 -68t79.5 -25q46 0 83.5 17.5z" />
    <glyph glyph-name="aeacute" unicode="&#x1fd;" horiz-adv-x="857" 
d="M133.5 9q-41.5 19 -66.5 56t-25 90q0 83 56 130t155 47q30 0 60.5 -6t53.5 -15v16q0 70 -28.5 100.5t-94.5 30.5q-70 0 -137 -26q-5 -3 -11 2.5t-12 20.5l-4 13q-5 15 -5 23q0 9 5 11q33 17 80.5 26.5t91.5 9.5q67 0 109.5 -21t65.5 -61q30 40 74 61t99 21q63 0 108 -29
t71 -81q32 -67 32 -160q0 -22 -2 -29t-8 -7h-342q5 -86 48 -124q39 -36 114 -36q65 0 129 29l8 2q8 0 17 -21l5 -12q8 -17 8 -27q0 -7 -6 -10q-74 -43 -178 -43q-127 0 -189 82q-37 -37 -81.5 -59.5t-110.5 -22.5q-48 0 -89.5 19zM719 306q-1 62 -31.5 106t-86.5 44
q-55 0 -92.5 -37.5t-46.5 -112.5h257zM326.5 86.5q37.5 17.5 58.5 42.5q-19 51 -20 111q-53 19 -110 19q-55 0 -88.5 -24.5t-33.5 -72.5q0 -43 30.5 -68t79.5 -25q46 0 83.5 17.5zM395 593l73 128q6 11 44 11h12q26 0 34.5 -4t4.5 -10l-94 -128q-5 -9 -36 -9h-8
q-38 0 -30 12z" />
    <glyph glyph-name="b" unicode="b" horiz-adv-x="560" 
d="M77 25q-3 2 -3 10v713q0 7 7.5 9.5t35.5 2.5h6q27 0 34 -3t7 -9v-269q22 26 63.5 42.5t85.5 16.5q59 0 103.5 -29t68.5 -81q30 -65 30 -150q0 -135 -65.5 -211.5t-190.5 -76.5q-105 0 -182 35zM377.5 123q43.5 55 43.5 148q0 90 -32 136t-96 46q-28 0 -55 -10t-44 -27
q-11 -11 -17.5 -27t-9.5 -45q-3 -42 -3 -135v-124q43 -17 87 -17q83 0 126.5 55z" />
    <glyph glyph-name="c" unicode="c" horiz-adv-x="487" 
d="M148.5 24.5q-51.5 34.5 -77.5 95t-26 136.5q0 89 32 152.5t88 96.5t126 33q45 0 86.5 -14t74.5 -38q5 -5 5 -10q0 -10 -11 -36q-13 -29 -24 -29q-5 0 -8 3q-62 42 -118 42q-71 0 -114 -51.5t-43 -142.5q0 -81 36 -135.5t111 -54.5q63 0 127 31q4 2 6 2q12 0 20 -22l5 -13
q6 -13 6 -24q0 -8 -6 -11q-80 -45 -170 -45q-74 0 -125.5 34.5z" />
    <glyph glyph-name="cacute" unicode="&#x107;" horiz-adv-x="487" 
d="M148.5 24.5q-51.5 34.5 -77.5 95t-26 136.5q0 89 32 152.5t88 96.5t126 33q45 0 86.5 -14t74.5 -38q5 -5 5 -10q0 -10 -11 -36q-13 -29 -24 -29q-5 0 -8 3q-62 42 -118 42q-71 0 -114 -51.5t-43 -142.5q0 -81 36 -135.5t111 -54.5q63 0 127 31q4 2 6 2q12 0 20 -22l5 -13
q6 -13 6 -24q0 -8 -6 -11q-80 -45 -170 -45q-74 0 -125.5 34.5zM235 593l73 128q6 11 44 11h12q26 0 34.5 -4t4.5 -10l-94 -128q-5 -9 -36 -9h-8q-38 0 -30 12z" />
    <glyph glyph-name="ccaron" unicode="&#x10d;" horiz-adv-x="487" 
d="M148.5 24.5q-51.5 34.5 -77.5 95t-26 136.5q0 89 32 152.5t88 96.5t126 33q45 0 86.5 -14t74.5 -38q5 -5 5 -10q0 -10 -11 -36q-13 -29 -24 -29q-5 0 -8 3q-62 42 -118 42q-71 0 -114 -51.5t-43 -142.5q0 -81 36 -135.5t111 -54.5q63 0 127 31q4 2 6 2q12 0 20 -22l5 -13
q6 -13 6 -24q0 -8 -6 -11q-80 -45 -170 -45q-74 0 -125.5 34.5zM224 589l-89 94q-2 2 -2 6q0 8 12 22l8 9q7 8 15.5 12.5t12.5 0.5l112 -98l109 95q2 2 5 2q9 0 20 -13l6 -7q17 -18 9 -27l-91 -97q-11 -13 -44 -13h-38q-33 0 -45 14z" />
    <glyph glyph-name="ccedilla" unicode="&#xe7;" horiz-adv-x="487" 
d="M444 70q6 -13 6 -24q0 -8 -6 -11q-56 -32 -121 -41l-3 -35q6 1 17 1q39 0 65 -22t26 -62q0 -41 -30 -69.5t-88 -28.5q-20 0 -41 3.5t-35 8.5q-6 2 -6 11l2 12l4 16q5 21 14 18q27 -8 54 -8q20 0 32.5 8.5t12.5 24.5q0 17 -11.5 23t-38.5 6q-35 0 -59 -3l12 93
q-99 9 -152 82t-53 183q0 89 32 152.5t88 96.5t126 33q45 0 86.5 -14t74.5 -38q5 -5 5 -10q0 -10 -11 -36q-13 -29 -24 -29q-5 0 -8 3q-62 42 -118 42q-71 0 -114 -51.5t-43 -142.5q0 -81 36 -135.5t111 -54.5q63 0 127 31q4 2 6 2q12 0 20 -22z" />
    <glyph glyph-name="ccircumflex" unicode="&#x109;" horiz-adv-x="487" 
d="M148.5 24.5q-51.5 34.5 -77.5 95t-26 136.5q0 89 32 152.5t88 96.5t126 33q45 0 86.5 -14t74.5 -38q5 -5 5 -10q0 -10 -11 -36q-13 -29 -24 -29q-5 0 -8 3q-62 42 -118 42q-71 0 -114 -51.5t-43 -142.5q0 -81 36 -135.5t111 -54.5q63 0 127 31q4 2 6 2q12 0 20 -22l5 -13
q6 -13 6 -24q0 -8 -6 -11q-80 -45 -170 -45q-74 0 -125.5 34.5zM288 676l-112 -95q-2 -2 -4 -2q-9 0 -20 13l-7 8q-17 19 -10 27l91 97q11 13 44 13h38q33 0 45 -14l89 -94q3 -3 3 -7q0 -7 -13 -22l-8 -9q-7 -8 -14.5 -11.5t-11.5 0.5z" />
    <glyph glyph-name="cdotaccent" unicode="&#x10b;" horiz-adv-x="487" 
d="M148.5 24.5q-51.5 34.5 -77.5 95t-26 136.5q0 89 32 152.5t88 96.5t126 33q45 0 86.5 -14t74.5 -38q5 -5 5 -10q0 -10 -11 -36q-13 -29 -24 -29q-5 0 -8 3q-62 42 -118 42q-71 0 -114 -51.5t-43 -142.5q0 -81 36 -135.5t111 -54.5q63 0 127 31q4 2 6 2q12 0 20 -22l5 -13
q6 -13 6 -24q0 -8 -6 -11q-80 -45 -170 -45q-74 0 -125.5 34.5zM249 622q-17 17 -17 40t17 39.5t40 16.5t39.5 -16.5t16.5 -39.5t-16.5 -40t-39.5 -17t-40 17z" />
    <glyph glyph-name="d" unicode="d" horiz-adv-x="580" 
d="M102.5 60q-57.5 70 -57.5 193q0 78 27 142.5t82 103.5t134 39q29 0 61 -10t52 -23v242q0 8 9 10.5t34 2.5h6q24 0 32.5 -2.5t8.5 -10.5v-622q0 -25 3 -36t10 -14.5t22 -3.5q5 0 7 -6t2 -21v-7q0 -17 -2 -24t-7 -9q-17 -6 -44 -6q-23 0 -41.5 15t-27.5 43h-1
q-20 -28 -61 -47t-92 -19q-99 0 -156.5 70zM329.5 78.5q25.5 8.5 42.5 25.5t23 46.5t6 93.5v175q-19 16 -49 26.5t-59 10.5q-70 0 -112 -54.5t-42 -145.5q0 -89 38.5 -137.5t99.5 -48.5q27 0 52.5 8.5z" />
    <glyph glyph-name="eth" unicode="&#xf0;" horiz-adv-x="559" 
d="M161.5 21q-53.5 31 -83.5 89.5t-30 138.5q0 81 30.5 141.5t81.5 93t112 32.5q63 0 117 -34l-15 27q-39 59 -107 107l-130 -61h-2q-6 0 -16 19l-8 16q-11 22 -3 25l92 45q-28 17 -83 43q-4 2 -4 8q0 10 10 24l5 8q10 14 15 19t10 3q74 -31 127 -64l125 59h2q5 0 16 -19
l7 -13q14 -23 4 -27l-90 -44q64 -49 104 -108q73 -109 73 -263t-66.5 -225t-170.5 -71q-69 0 -122.5 31zM394 127q34 56 34 166q0 50 -8 96q-26 21 -64.5 33.5t-73.5 12.5q-76 0 -108 -55.5t-32 -128.5q0 -84 38.5 -132t107.5 -48q72 0 106 56z" />
    <glyph glyph-name="dcaron" unicode="&#x10f;" horiz-adv-x="662" 
d="M102.5 60q-57.5 70 -57.5 193q0 78 27 142.5t82 103.5t134 39q29 0 61 -10t52 -23v242q0 8 9 10.5t34 2.5h6q24 0 32.5 -2.5t8.5 -10.5v-622q0 -25 3 -36t10 -14.5t22 -3.5q5 0 7 -6t2 -21v-7q0 -17 -2 -24t-7 -9q-17 -6 -44 -6q-23 0 -41.5 15t-27.5 43h-1
q-20 -28 -61 -47t-92 -19q-99 0 -156.5 70zM329.5 78.5q25.5 8.5 42.5 25.5t23 46.5t6 93.5v175q-19 16 -49 26.5t-59 10.5q-70 0 -112 -54.5t-42 -145.5q0 -89 38.5 -137.5t99.5 -48.5q27 0 52.5 8.5zM572 490q-5 0 -12 6l-9 10q-6 7 -6 12t5 10q47 47 47 81q0 11 -4 17.5
t-13 15.5t-14 17.5t-5 23.5q0 20 15.5 33.5t36.5 13.5q27 0 43 -18t16 -46q0 -48 -24 -94t-65 -78q-5 -4 -11 -4z" />
    <glyph glyph-name="dcroat" unicode="&#x111;" horiz-adv-x="580" 
d="M102.5 60q-57.5 70 -57.5 193q0 78 27 142.5t82 103.5t134 39q29 0 61 -10t52 -23v105h-157q-5 0 -7 7.5t-2 24.5q0 32 9 32h157v73q0 8 9 10.5t34 2.5h6q24 0 32.5 -2.5t8.5 -10.5v-73h58q9 0 9 -32q0 -17 -2 -24.5t-7 -7.5h-58v-485q0 -25 3 -36t10 -14.5t22 -3.5
q5 0 7 -6t2 -21v-7q0 -17 -2 -24t-7 -9q-17 -6 -44 -6q-23 0 -41.5 15t-27.5 43h-1q-20 -28 -61 -47t-92 -19q-99 0 -156.5 70zM329.5 78.5q25.5 8.5 42.5 25.5t23 46.5t6 93.5v175q-19 16 -49 26.5t-59 10.5q-70 0 -112 -54.5t-42 -145.5q0 -89 38.5 -137.5t99.5 -48.5
q27 0 52.5 8.5z" />
    <glyph glyph-name="e" unicode="e" horiz-adv-x="544" 
d="M108 59.5q-63 69.5 -63 192.5q0 84 29.5 149t83.5 101t127 36q65 0 111 -29t72 -81q33 -66 33 -160q0 -22 -2 -29t-8 -7h-352q5 -86 50 -124q41 -36 118 -36q62 0 132 32l8 2q8 0 17 -21l5 -12q8 -17 8 -27q0 -7 -6 -10q-78 -46 -181 -46q-119 0 -182 69.5zM409 306
q-1 62 -32.5 106t-90.5 44q-57 0 -95.5 -37.5t-48.5 -112.5h267z" />
    <glyph glyph-name="eacute" unicode="&#xe9;" horiz-adv-x="544" 
d="M108 59.5q-63 69.5 -63 192.5q0 84 29.5 149t83.5 101t127 36q65 0 111 -29t72 -81q33 -66 33 -160q0 -22 -2 -29t-8 -7h-352q5 -86 50 -124q41 -36 118 -36q62 0 132 32l8 2q8 0 17 -21l5 -12q8 -17 8 -27q0 -7 -6 -10q-78 -46 -181 -46q-119 0 -182 69.5zM409 306
q-1 62 -32.5 106t-90.5 44q-57 0 -95.5 -37.5t-48.5 -112.5h267zM228 593l73 128q6 11 44 11h12q26 0 34.5 -4t4.5 -10l-94 -128q-5 -9 -36 -9h-8q-38 0 -30 12z" />
    <glyph glyph-name="ebreve" unicode="&#x115;" horiz-adv-x="544" 
d="M108 59.5q-63 69.5 -63 192.5q0 84 29.5 149t83.5 101t127 36q65 0 111 -29t72 -81q33 -66 33 -160q0 -22 -2 -29t-8 -7h-352q5 -86 50 -124q41 -36 118 -36q62 0 132 32l8 2q8 0 17 -21l5 -12q8 -17 8 -27q0 -7 -6 -10q-78 -46 -181 -46q-119 0 -182 69.5zM409 306
q-1 62 -32.5 106t-90.5 44q-57 0 -95.5 -37.5t-48.5 -112.5h267zM176 622.5q-39 29.5 -43 89.5q0 10 32 10h12q16 0 22.5 -2.5t7.5 -7.5q3 -28 22.5 -43.5t51.5 -15.5q31 0 50.5 15.5t23.5 43.5q1 5 7.5 7.5t22.5 2.5h13q32 0 32 -10q-4 -59 -44.5 -89t-106.5 -30
q-64 0 -103 29.5z" />
    <glyph glyph-name="ecaron" unicode="&#x11b;" horiz-adv-x="544" 
d="M108 59.5q-63 69.5 -63 192.5q0 84 29.5 149t83.5 101t127 36q65 0 111 -29t72 -81q33 -66 33 -160q0 -22 -2 -29t-8 -7h-352q5 -86 50 -124q41 -36 118 -36q62 0 132 32l8 2q8 0 17 -21l5 -12q8 -17 8 -27q0 -7 -6 -10q-78 -46 -181 -46q-119 0 -182 69.5zM409 306
q-1 62 -32.5 106t-90.5 44q-57 0 -95.5 -37.5t-48.5 -112.5h267zM217 589l-89 94q-2 2 -2 6q0 8 12 22l8 9q7 8 15.5 12.5t12.5 0.5l112 -98l109 95q2 2 5 2q9 0 20 -13l6 -7q17 -18 9 -27l-91 -97q-11 -13 -44 -13h-38q-33 0 -45 14z" />
    <glyph glyph-name="ecircumflex" unicode="&#xea;" horiz-adv-x="544" 
d="M108 59.5q-63 69.5 -63 192.5q0 84 29.5 149t83.5 101t127 36q65 0 111 -29t72 -81q33 -66 33 -160q0 -22 -2 -29t-8 -7h-352q5 -86 50 -124q41 -36 118 -36q62 0 132 32l8 2q8 0 17 -21l5 -12q8 -17 8 -27q0 -7 -6 -10q-78 -46 -181 -46q-119 0 -182 69.5zM409 306
q-1 62 -32.5 106t-90.5 44q-57 0 -95.5 -37.5t-48.5 -112.5h267zM281 676l-112 -95q-2 -2 -4 -2q-9 0 -20 13l-7 8q-17 19 -10 27l91 97q11 13 44 13h38q33 0 45 -14l89 -94q3 -3 3 -7q0 -7 -13 -22l-8 -9q-7 -8 -14.5 -11.5t-11.5 0.5z" />
    <glyph glyph-name="edieresis" unicode="&#xeb;" horiz-adv-x="544" 
d="M108 59.5q-63 69.5 -63 192.5q0 84 29.5 149t83.5 101t127 36q65 0 111 -29t72 -81q33 -66 33 -160q0 -22 -2 -29t-8 -7h-352q5 -86 50 -124q41 -36 118 -36q62 0 132 32l8 2q8 0 17 -21l5 -12q8 -17 8 -27q0 -7 -6 -10q-78 -46 -181 -46q-119 0 -182 69.5zM409 306
q-1 62 -32.5 106t-90.5 44q-57 0 -95.5 -37.5t-48.5 -112.5h267zM124.5 614.5q-16.5 16.5 -16.5 40.5t16.5 40.5t40.5 16.5t40.5 -16.5t16.5 -40.5t-16.5 -40.5t-40.5 -16.5t-40.5 16.5zM357.5 614.5q-16.5 16.5 -16.5 40.5t16.5 40.5t40.5 16.5t40.5 -16.5t16.5 -40.5
t-16.5 -40.5t-40.5 -16.5t-40.5 16.5z" />
    <glyph glyph-name="edotaccent" unicode="&#x117;" horiz-adv-x="544" 
d="M108 59.5q-63 69.5 -63 192.5q0 84 29.5 149t83.5 101t127 36q65 0 111 -29t72 -81q33 -66 33 -160q0 -22 -2 -29t-8 -7h-352q5 -86 50 -124q41 -36 118 -36q62 0 132 32l8 2q8 0 17 -21l5 -12q8 -17 8 -27q0 -7 -6 -10q-78 -46 -181 -46q-119 0 -182 69.5zM409 306
q-1 62 -32.5 106t-90.5 44q-57 0 -95.5 -37.5t-48.5 -112.5h267zM242 622q-17 17 -17 40t17 39.5t40 16.5t39.5 -16.5t16.5 -39.5t-16.5 -40t-39.5 -17t-40 17z" />
    <glyph glyph-name="egrave" unicode="&#xe8;" horiz-adv-x="544" 
d="M108 59.5q-63 69.5 -63 192.5q0 84 29.5 149t83.5 101t127 36q65 0 111 -29t72 -81q33 -66 33 -160q0 -22 -2 -29t-8 -7h-352q5 -86 50 -124q41 -36 118 -36q62 0 132 32l8 2q8 0 17 -21l5 -12q8 -17 8 -27q0 -7 -6 -10q-78 -46 -181 -46q-119 0 -182 69.5zM409 306
q-1 62 -32.5 106t-90.5 44q-57 0 -95.5 -37.5t-48.5 -112.5h267zM270 590l-94 128q-4 5 5.5 9.5t34.5 4.5h13q40 0 46 -11l73 -128q6 -12 -32 -12h-9q-30 0 -37 9z" />
    <glyph glyph-name="emacron" unicode="&#x113;" horiz-adv-x="544" 
d="M108 59.5q-63 69.5 -63 192.5q0 84 29.5 149t83.5 101t127 36q65 0 111 -29t72 -81q33 -66 33 -160q0 -22 -2 -29t-8 -7h-352q5 -86 50 -124q41 -36 118 -36q62 0 132 32l8 2q8 0 17 -21l5 -12q8 -17 8 -27q0 -7 -6 -10q-78 -46 -181 -46q-119 0 -182 69.5zM409 306
q-1 62 -32.5 106t-90.5 44q-57 0 -95.5 -37.5t-48.5 -112.5h267zM134 652v12q0 29 10 29h275q10 0 10 -29v-12q0 -32 -10 -32h-275q-10 0 -10 32z" />
    <glyph glyph-name="eogonek" unicode="&#x119;" horiz-adv-x="544" 
d="M301 -184q-29 27 -29 65q0 32 16.5 61t45.5 51q-22 -3 -44 -3q-119 0 -182 69.5t-63 192.5q0 84 29.5 149t84 101t127.5 36q64 0 110 -29.5t72 -80.5q33 -66 33 -160q0 -22 -2 -29t-8 -7h-352q5 -86 50 -124q41 -36 118 -36q62 0 132 32l8 2q8 0 17 -21l5 -12
q7 -19 7 -24q0 -7 -6 -10q-59 -34 -89 -66.5t-30 -71.5q0 -24 13.5 -35t35.5 -11q19 0 41 6h2q4 0 7 -6t5 -16l2 -9q2 -8 2 -18q0 -8 -4 -9q-33 -14 -72 -14q-53 0 -82 27zM409 306q-1 62 -32.5 106t-89.5 44q-57 0 -95.5 -37.5t-49.5 -112.5h267z" />
    <glyph glyph-name="f" unicode="f" horiz-adv-x="333" 
d="M109.5 2.5q-7.5 2.5 -7.5 9.5v445h-63q-5 0 -7 6t-2 25v8q0 20 2 26t7 6h63v24q0 107 45.5 162.5t136.5 55.5q53 0 101 -22q5 -3 5 -9q0 -4 -5 -26l-1 -4q-5 -19 -8.5 -25t-9.5 -4q-42 15 -79 15q-54 0 -74.5 -35t-20.5 -107v-25h116q5 0 7 -6t2 -26v-8q0 -19 -2 -25
t-7 -6h-116v-445q0 -6 -7 -9t-34 -3h-6q-28 0 -35.5 2.5z" />
    <glyph glyph-name="g" unicode="g" horiz-adv-x="565" 
d="M170.5 -225.5q-44.5 8.5 -67.5 22.5q-5 2 -5 10q0 7 6 25l4 12q6 17 9.5 22.5t7.5 5.5t12.5 -3.5t11.5 -4.5q49 -17 95 -17q131 0 154 114q6 31 6 96q-26 -28 -65.5 -42.5t-80.5 -14.5q-104 0 -158.5 71.5t-54.5 186.5q0 85 30 148.5t81.5 97.5t116.5 34q43 0 77.5 -17
t52.5 -47h1v41q0 7 8.5 10t32.5 3h3q24 0 31.5 -2.5t8.5 -10.5q3 -33 4.5 -112.5t1.5 -135.5v-166q0 -66 -4.5 -110t-14.5 -78q-21 -69 -82 -108t-139 -39q-39 0 -83.5 8.5zM348 97.5q35 16.5 56 42.5v144q0 51 -3 75t-12 41q-13 25 -40 39.5t-68 14.5q-65 0 -103.5 -52.5
t-38.5 -139.5q0 -88 34.5 -134.5t102.5 -46.5q37 0 72 16.5z" />
    <glyph glyph-name="gbreve" unicode="&#x11f;" horiz-adv-x="565" 
d="M170.5 -225.5q-44.5 8.5 -67.5 22.5q-5 2 -5 10q0 7 6 25l4 12q6 17 9.5 22.5t7.5 5.5t12.5 -3.5t11.5 -4.5q49 -17 95 -17q131 0 154 114q6 31 6 96q-26 -28 -65.5 -42.5t-80.5 -14.5q-104 0 -158.5 71.5t-54.5 186.5q0 85 30 148.5t81.5 97.5t116.5 34q43 0 77.5 -17
t52.5 -47h1v41q0 7 8.5 10t32.5 3h3q24 0 31.5 -2.5t8.5 -10.5q3 -33 4.5 -112.5t1.5 -135.5v-166q0 -66 -4.5 -110t-14.5 -78q-21 -69 -82 -108t-139 -39q-39 0 -83.5 8.5zM348 97.5q35 16.5 56 42.5v144q0 51 -3 75t-12 41q-13 25 -40 39.5t-68 14.5q-65 0 -103.5 -52.5
t-38.5 -139.5q0 -88 34.5 -134.5t102.5 -46.5q37 0 72 16.5zM177 622.5q-39 29.5 -43 89.5q0 10 32 10h12q16 0 22.5 -2.5t7.5 -7.5q3 -28 22.5 -43.5t51.5 -15.5q31 0 50.5 15.5t23.5 43.5q1 5 7.5 7.5t22.5 2.5h13q32 0 32 -10q-4 -59 -44.5 -89t-106.5 -30
q-64 0 -103 29.5z" />
    <glyph glyph-name="gcircumflex" unicode="&#x11d;" horiz-adv-x="565" 
d="M170.5 -225.5q-44.5 8.5 -67.5 22.5q-5 2 -5 10q0 7 6 25l4 12q6 17 9.5 22.5t7.5 5.5t12.5 -3.5t11.5 -4.5q49 -17 95 -17q131 0 154 114q6 31 6 96q-26 -28 -65.5 -42.5t-80.5 -14.5q-104 0 -158.5 71.5t-54.5 186.5q0 85 30 148.5t81.5 97.5t116.5 34q43 0 77.5 -17
t52.5 -47h1v41q0 7 8.5 10t32.5 3h3q24 0 31.5 -2.5t8.5 -10.5q3 -33 4.5 -112.5t1.5 -135.5v-166q0 -66 -4.5 -110t-14.5 -78q-21 -69 -82 -108t-139 -39q-39 0 -83.5 8.5zM348 97.5q35 16.5 56 42.5v144q0 51 -3 75t-12 41q-13 25 -40 39.5t-68 14.5q-65 0 -103.5 -52.5
t-38.5 -139.5q0 -88 34.5 -134.5t102.5 -46.5q37 0 72 16.5zM282 676l-112 -95q-2 -2 -4 -2q-9 0 -20 13l-7 8q-17 19 -10 27l91 97q11 13 44 13h38q33 0 45 -14l89 -94q3 -3 3 -7q0 -7 -13 -22l-8 -9q-7 -8 -14.5 -11.5t-11.5 0.5z" />
    <glyph glyph-name="gcommaaccent" unicode="&#x123;" horiz-adv-x="565" 
d="M231 604q-16 18 -16 46q0 48 24 94t65 78q5 4 11 4q4 0 12 -6l9 -10q6 -7 6 -12t-5 -10q-47 -47 -47 -81q0 -11 4 -17.5t13 -15.5t14 -17.5t5 -23.5q0 -20 -15.5 -33.5t-36.5 -13.5q-27 0 -43 18zM170.5 -225.5q-44.5 8.5 -67.5 22.5q-5 2 -5 10q0 7 6 25l4 12
q6 17 9.5 22.5t7.5 5.5t12.5 -3.5t11.5 -4.5q49 -17 95 -17q131 0 154 114q6 31 6 96q-26 -28 -65.5 -42.5t-80.5 -14.5q-104 0 -158.5 71.5t-54.5 186.5q0 85 30 148.5t81.5 97.5t116.5 34q43 0 77.5 -17t52.5 -47h1v41q0 7 8.5 10t32.5 3h3q24 0 31.5 -2.5t8.5 -10.5
q3 -33 4.5 -112.5t1.5 -135.5v-166q0 -66 -4.5 -110t-14.5 -78q-21 -69 -82 -108t-139 -39q-39 0 -83.5 8.5zM348 97.5q35 16.5 56 42.5v144q0 51 -3 75t-12 41q-13 25 -40 39.5t-68 14.5q-65 0 -103.5 -52.5t-38.5 -139.5q0 -88 34.5 -134.5t102.5 -46.5q37 0 72 16.5z" />
    <glyph glyph-name="gdotaccent" unicode="&#x121;" horiz-adv-x="565" 
d="M170.5 -225.5q-44.5 8.5 -67.5 22.5q-5 2 -5 10q0 7 6 25l4 12q6 17 9.5 22.5t7.5 5.5t12.5 -3.5t11.5 -4.5q49 -17 95 -17q131 0 154 114q6 31 6 96q-26 -28 -65.5 -42.5t-80.5 -14.5q-104 0 -158.5 71.5t-54.5 186.5q0 85 30 148.5t81.5 97.5t116.5 34q43 0 77.5 -17
t52.5 -47h1v41q0 7 8.5 10t32.5 3h3q24 0 31.5 -2.5t8.5 -10.5q3 -33 4.5 -112.5t1.5 -135.5v-166q0 -66 -4.5 -110t-14.5 -78q-21 -69 -82 -108t-139 -39q-39 0 -83.5 8.5zM348 97.5q35 16.5 56 42.5v144q0 51 -3 75t-12 41q-13 25 -40 39.5t-68 14.5q-65 0 -103.5 -52.5
t-38.5 -139.5q0 -88 34.5 -134.5t102.5 -46.5q37 0 72 16.5zM243 622q-17 17 -17 40t17 39.5t40 16.5t39.5 -16.5t16.5 -39.5t-16.5 -40t-39.5 -17t-40 17z" />
    <glyph glyph-name="h" unicode="h" horiz-adv-x="584" 
d="M83.5 2.5q-7.5 2.5 -7.5 9.5v736q0 6 7 9t34 3h6q28 0 35.5 -2.5t7.5 -9.5v-274q26 29 70.5 46.5t89.5 17.5q41 0 76.5 -13.5t60.5 -39.5q27 -28 39 -68.5t12 -101.5v-303q0 -6 -7 -9t-34 -3h-6q-28 0 -35.5 2.5t-7.5 9.5v261q0 66 -5 96.5t-22 50.5q-27 33 -95 33
q-29 0 -59 -9.5t-47 -26.5q-11 -10 -17.5 -25.5t-9.5 -45.5q-3 -42 -3 -137v-197q0 -6 -7 -9t-34 -3h-6q-28 0 -35.5 2.5z" />
    <glyph glyph-name="hbar" unicode="&#x127;" horiz-adv-x="584" 
d="M83.5 2.5q-7.5 2.5 -7.5 9.5v598h-58q-5 0 -7 7.5t-2 24.5q0 32 9 32h58v74q0 6 7 9t34 3h6q28 0 35.5 -2.5t7.5 -9.5v-74h157q9 0 9 -32q0 -17 -2 -24.5t-7 -7.5h-157v-136q26 29 70.5 46.5t89.5 17.5q41 0 76.5 -13.5t60.5 -39.5q27 -28 39 -68.5t12 -101.5v-303
q0 -6 -7 -9t-34 -3h-6q-28 0 -35.5 2.5t-7.5 9.5v261q0 66 -5 96.5t-22 50.5q-27 33 -95 33q-29 0 -59 -9.5t-47 -26.5q-11 -10 -17.5 -25.5t-9.5 -45.5q-3 -42 -3 -137v-197q0 -6 -7 -9t-34 -3h-6q-28 0 -35.5 2.5z" />
    <glyph glyph-name="hcircumflex" unicode="&#x125;" horiz-adv-x="584" 
d="M83.5 2.5q-7.5 2.5 -7.5 9.5v736q0 6 7 9t34 3h6q28 0 35.5 -2.5t7.5 -9.5v-274q26 29 70.5 46.5t89.5 17.5q41 0 76.5 -13.5t60.5 -39.5q27 -28 39 -68.5t12 -101.5v-303q0 -6 -7 -9t-34 -3h-6q-28 0 -35.5 2.5t-7.5 9.5v261q0 66 -5 96.5t-22 50.5q-27 33 -95 33
q-29 0 -59 -9.5t-47 -26.5q-11 -10 -17.5 -25.5t-9.5 -45.5q-3 -42 -3 -137v-197q0 -6 -7 -9t-34 -3h-6q-28 0 -35.5 2.5zM120 855l-112 -95q-2 -2 -4 -2q-9 0 -20 13l-7 8q-17 19 -10 27l91 97q11 13 44 13h38q33 0 45 -14l89 -94q3 -3 3 -7q0 -7 -13 -22l-8 -9
q-7 -8 -14.5 -11.5t-11.5 0.5z" />
    <glyph glyph-name="i" unicode="i" horiz-adv-x="240" 
d="M75.5 645.5q-18.5 18.5 -18.5 44.5t18.5 44.5t44.5 18.5t44.5 -18.5t18.5 -44.5t-18.5 -44.5t-44.5 -18.5t-44.5 18.5zM82.5 2.5q-7.5 2.5 -7.5 9.5v504q0 7 7.5 9.5t35.5 2.5h6q27 0 34 -3t7 -9v-504q0 -6 -7 -9t-34 -3h-6q-28 0 -35.5 2.5z" />
    <glyph glyph-name="dotlessi" unicode="&#x131;" horiz-adv-x="240" 
d="M82.5 2.5q-7.5 2.5 -7.5 9.5v504q0 7 7.5 9.5t35.5 2.5h6q27 0 34 -3t7 -9v-504q0 -6 -7 -9t-34 -3h-6q-28 0 -35.5 2.5z" />
    <glyph glyph-name="iacute" unicode="&#xed;" horiz-adv-x="240" 
d="M82.5 2.5q-7.5 2.5 -7.5 9.5v504q0 7 7.5 9.5t35.5 2.5h6q27 0 34 -3t7 -9v-504q0 -6 -7 -9t-34 -3h-6q-28 0 -35.5 2.5zM66 593l73 128q6 11 44 11h12q26 0 34.5 -4t4.5 -10l-94 -128q-5 -9 -36 -9h-8q-38 0 -30 12z" />
    <glyph glyph-name="ibreve" unicode="&#x12d;" horiz-adv-x="240" 
d="M82.5 2.5q-7.5 2.5 -7.5 9.5v504q0 7 7.5 9.5t35.5 2.5h6q27 0 34 -3t7 -9v-504q0 -6 -7 -9t-34 -3h-6q-28 0 -35.5 2.5zM14 622.5q-39 29.5 -43 89.5q0 10 32 10h12q16 0 22.5 -2.5t7.5 -7.5q3 -28 22.5 -43.5t51.5 -15.5q31 0 50.5 15.5t23.5 43.5q1 5 7.5 7.5
t22.5 2.5h13q32 0 32 -10q-4 -59 -44.5 -89t-106.5 -30q-64 0 -103 29.5z" />
    <glyph glyph-name="icircumflex" unicode="&#xee;" horiz-adv-x="240" 
d="M82.5 2.5q-7.5 2.5 -7.5 9.5v504q0 7 7.5 9.5t35.5 2.5h6q27 0 34 -3t7 -9v-504q0 -6 -7 -9t-34 -3h-6q-28 0 -35.5 2.5zM119 676l-112 -95q-2 -2 -4 -2q-9 0 -20 13l-7 8q-17 19 -10 27l91 97q11 13 44 13h38q33 0 45 -14l89 -94q3 -3 3 -7q0 -7 -13 -22l-8 -9
q-7 -8 -14.5 -11.5t-11.5 0.5z" />
    <glyph glyph-name="idieresis" unicode="&#xef;" horiz-adv-x="240" 
d="M82.5 2.5q-7.5 2.5 -7.5 9.5v504q0 7 7.5 9.5t35.5 2.5h6q27 0 34 -3t7 -9v-504q0 -6 -7 -9t-34 -3h-6q-28 0 -35.5 2.5zM-37.5 614.5q-16.5 16.5 -16.5 40.5t16.5 40.5t40.5 16.5t40.5 -16.5t16.5 -40.5t-16.5 -40.5t-40.5 -16.5t-40.5 16.5zM195.5 614.5
q-16.5 16.5 -16.5 40.5t16.5 40.5t40.5 16.5t40.5 -16.5t16.5 -40.5t-16.5 -40.5t-40.5 -16.5t-40.5 16.5z" />
    <glyph glyph-name="i.loclTRK" horiz-adv-x="240" 
d="M82.5 2.5q-7.5 2.5 -7.5 9.5v504q0 7 7.5 9.5t35.5 2.5h6q27 0 34 -3t7 -9v-504q0 -6 -7 -9t-34 -3h-6q-28 0 -35.5 2.5zM80 622q-17 17 -17 40t17 39.5t40 16.5t39.5 -16.5t16.5 -39.5t-16.5 -40t-39.5 -17t-40 17z" />
    <glyph glyph-name="igrave" unicode="&#xec;" horiz-adv-x="240" 
d="M82.5 2.5q-7.5 2.5 -7.5 9.5v504q0 7 7.5 9.5t35.5 2.5h6q27 0 34 -3t7 -9v-504q0 -6 -7 -9t-34 -3h-6q-28 0 -35.5 2.5zM108 590l-94 128q-4 5 5.5 9.5t34.5 4.5h13q40 0 46 -11l73 -128q6 -12 -32 -12h-9q-30 0 -37 9z" />
    <glyph glyph-name="ij" unicode="&#x133;" horiz-adv-x="493" 
d="M75.5 645.5q-18.5 18.5 -18.5 44.5t18.5 44.5t44.5 18.5t44.5 -18.5t18.5 -44.5t-18.5 -44.5t-44.5 -18.5t-44.5 18.5zM82.5 2.5q-7.5 2.5 -7.5 9.5v504q0 7 7.5 9.5t35.5 2.5h6q27 0 34 -3t7 -9v-504q0 -6 -7 -9t-34 -3h-6q-28 0 -35.5 2.5zM328.5 645.5
q-18.5 18.5 -18.5 44.5t18.5 44.5t44.5 18.5t44.5 -18.5t18.5 -44.5t-18.5 -44.5t-44.5 -18.5t-44.5 18.5zM194 -229.5q-21 4.5 -32 10.5q-6 3 -6 11q0 5 3 19l3 15q3 15 7 19.5t12 3.5q35 -7 46 -7q54 0 77.5 37t23.5 122v515q0 7 7.5 9.5t35.5 2.5h6q27 0 34 -3t7 -9v-513
q0 -237 -185 -237q-18 0 -39 4.5z" />
    <glyph glyph-name="imacron" unicode="&#x12b;" horiz-adv-x="240" 
d="M82.5 2.5q-7.5 2.5 -7.5 9.5v504q0 7 7.5 9.5t35.5 2.5h6q27 0 34 -3t7 -9v-504q0 -6 -7 -9t-34 -3h-6q-28 0 -35.5 2.5zM-28 652v12q0 29 10 29h275q10 0 10 -29v-12q0 -32 -10 -32h-275q-10 0 -10 32z" />
    <glyph glyph-name="iogonek" unicode="&#x12f;" horiz-adv-x="240" 
d="M75.5 645.5q-18.5 18.5 -18.5 44.5t18.5 44.5t44.5 18.5t44.5 -18.5t18.5 -44.5t-18.5 -44.5t-44.5 -18.5t-44.5 18.5zM38 -183.5q-29 27.5 -29 67.5q0 67 66 121v511q0 7 7.5 9.5t35.5 2.5h6q27 0 34 -3t7 -9v-496q0 -7 -2.5 -10.5t-9.5 -8.5q-30 -18 -47.5 -44
t-17.5 -57q0 -20 11.5 -32.5t37.5 -12.5q24 0 41 6h2q4 0 7 -6t5 -16l2 -9q2 -8 2 -18q0 -8 -4 -9q-33 -14 -72 -14q-53 0 -82 27.5z" />
    <glyph glyph-name="itilde" unicode="&#x129;" horiz-adv-x="240" 
d="M82.5 2.5q-7.5 2.5 -7.5 9.5v504q0 7 7.5 9.5t35.5 2.5h6q27 0 34 -3t7 -9v-504q0 -6 -7 -9t-34 -3h-6q-28 0 -35.5 2.5zM149.5 613q-13.5 5 -30.5 14q-19 9 -31 13.5t-27 4.5q-30 0 -53 -27q-1 -1 -4 -1q-8 0 -22 19l-7 10q-14 19 -8 27q17 21 42 34t54 13q20 0 33.5 -5
t34.5 -15q16 -9 26.5 -13t24.5 -4q26 0 51 27q2 2 4 2q7 0 22 -17l6 -8q6 -8 8.5 -15.5t-0.5 -11.5q-16 -22 -40.5 -37t-52.5 -15q-17 0 -30.5 5z" />
    <glyph glyph-name="j" unicode="j" horiz-adv-x="253" 
d="M88.5 645.5q-18.5 18.5 -18.5 44.5t18.5 44.5t44.5 18.5t44.5 -18.5t18.5 -44.5t-18.5 -44.5t-44.5 -18.5t-44.5 18.5zM-46 -229.5q-21 4.5 -32 10.5q-6 3 -6 11q0 5 3 19l3 15q3 15 7 19.5t12 3.5q35 -7 46 -7q54 0 77.5 37t23.5 122v515q0 7 7.5 9.5t35.5 2.5h6
q27 0 34 -3t7 -9v-513q0 -237 -185 -237q-18 0 -39 4.5z" />
    <glyph glyph-name="uni0237" unicode="&#x237;" horiz-adv-x="253" 
d="M-46 -229.5q-21 4.5 -32 10.5q-6 3 -6 11q0 5 3 19l3 15q3 15 7 19.5t12 3.5q35 -7 46 -7q54 0 77.5 37t23.5 122v515q0 7 7.5 9.5t35.5 2.5h6q27 0 34 -3t7 -9v-513q0 -237 -185 -237q-18 0 -39 4.5z" />
    <glyph glyph-name="jcircumflex" unicode="&#x135;" horiz-adv-x="253" 
d="M-46 -229.5q-21 4.5 -32 10.5q-6 3 -6 11q0 5 3 19l3 15q3 15 7 19.5t12 3.5q35 -7 46 -7q54 0 77.5 37t23.5 122v515q0 7 7.5 9.5t35.5 2.5h6q27 0 34 -3t7 -9v-513q0 -237 -185 -237q-18 0 -39 4.5zM133 676l-112 -95q-2 -2 -4 -2q-9 0 -20 13l-7 8q-17 19 -10 27
l91 97q11 13 44 13h38q33 0 45 -14l89 -94q3 -3 3 -7q0 -7 -13 -22l-8 -9q-7 -8 -14.5 -11.5t-11.5 0.5z" />
    <glyph glyph-name="k" unicode="k" horiz-adv-x="492" 
d="M83.5 2.5q-7.5 2.5 -7.5 9.5v736q0 7 7.5 9.5t35.5 2.5h6q27 0 34 -3t7 -9v-436l61 57q40 38 68 69t64 79q5 7 13.5 9t34.5 2q51 0 43 -15q-16 -30 -62 -84.5t-104 -110.5l187 -304q8 -14 -39 -14h-7q-28 0 -38.5 2.5t-14.5 8.5l-155 251l-51 -45v-205q0 -6 -7 -9t-34 -3
h-6q-28 0 -35.5 2.5z" />
    <glyph glyph-name="kcommaaccent" unicode="&#x137;" horiz-adv-x="492" 
d="M83.5 2.5q-7.5 2.5 -7.5 9.5v736q0 7 7.5 9.5t35.5 2.5h6q27 0 34 -3t7 -9v-436l61 57q40 38 68 69t64 79q5 7 13.5 9t34.5 2q51 0 43 -15q-16 -30 -62 -84.5t-104 -110.5l187 -304q8 -14 -39 -14h-7q-28 0 -38.5 2.5t-14.5 8.5l-155 251l-51 -45v-205q0 -6 -7 -9t-34 -3
h-6q-28 0 -35.5 2.5zM230 -299q-5 0 -12 6l-9 10q-6 7 -6 12t5 10q47 47 47 81q0 11 -4 17.5t-13 15.5t-14 17.5t-5 23.5q0 20 15.5 33.5t36.5 13.5q27 0 43 -18t16 -46q0 -48 -24 -94t-65 -78q-5 -4 -11 -4z" />
    <glyph glyph-name="kgreenlandic" unicode="&#x138;" horiz-adv-x="492" 
d="M83.5 2.5q-7.5 2.5 -7.5 9.5v504q0 7 7.5 9.5t35.5 2.5h6q27 0 34 -3t7 -9v-204l61 57q40 38 68 69t64 79q5 7 13.5 9t34.5 2q51 0 43 -15q-16 -30 -62 -84.5t-104 -110.5l187 -304q8 -14 -39 -14h-7q-28 0 -38.5 2.5t-14.5 8.5l-155 251l-51 -45v-205q0 -6 -7 -9t-34 -3
h-6q-28 0 -35.5 2.5z" />
    <glyph glyph-name="l" unicode="l" horiz-adv-x="256" 
d="M89 33q-9 14 -13 39t-4 66v335q0 227 -6 274q-1 7 8 10t35 3h6q23 0 31 -2.5t10 -10.5q6 -34 6 -296v-332q0 -29 7 -39.5t31 -10.5h10q4 0 5 -5t1 -22v-3q0 -20 -1 -25.5t-5 -6.5q-22 -8 -47 -8q-51 0 -74 34z" />
    <glyph glyph-name="lacute" unicode="&#x13a;" horiz-adv-x="256" 
d="M89 33q-9 14 -13 39t-4 66v335q0 227 -6 274q-1 7 8 10t35 3h6q23 0 31 -2.5t10 -10.5q6 -34 6 -296v-332q0 -29 7 -39.5t31 -10.5h10q4 0 5 -5t1 -22v-3q0 -20 -1 -25.5t-5 -6.5q-22 -8 -47 -8q-51 0 -74 34zM46 802l73 128q6 11 44 11h12q26 0 34.5 -4t4.5 -10
l-94 -128q-4 -5 -11 -7t-25 -2h-8q-38 0 -30 12z" />
    <glyph glyph-name="lcaron" unicode="&#x13e;" horiz-adv-x="333" 
d="M89 33q-9 14 -13 39t-4 66v335q0 227 -6 274q-1 7 8 10t35 3h6q23 0 31 -2.5t10 -10.5q6 -34 6 -296v-332q0 -29 7 -39.5t31 -10.5h10q4 0 5 -5t1 -22v-3q0 -20 -1 -25.5t-5 -6.5q-22 -8 -47 -8q-51 0 -74 34zM243 490q-5 0 -12 6l-9 10q-6 7 -6 12t5 10q47 47 47 81
q0 11 -4 17.5t-13 15.5t-14 17.5t-5 23.5q0 20 15.5 33.5t36.5 13.5q27 0 43 -18t16 -46q0 -48 -24 -94t-65 -78q-5 -4 -11 -4z" />
    <glyph glyph-name="lcommaaccent" unicode="&#x13c;" horiz-adv-x="256" 
d="M89 33q-9 14 -13 39t-4 66v335q0 227 -6 274q-1 7 8 10t35 3h6q23 0 31 -2.5t10 -10.5q6 -34 6 -296v-332q0 -29 7 -39.5t31 -10.5h10q4 0 5 -5t1 -22v-3q0 -20 -1 -25.5t-5 -6.5q-22 -8 -47 -8q-51 0 -74 34zM95 -299q-5 0 -12 6l-9 10q-6 7 -6 12t5 10q47 47 47 81
q0 11 -4 17.5t-13 15.5t-14 17.5t-5 23.5q0 20 15.5 33.5t36.5 13.5q27 0 43 -18t16 -46q0 -48 -24 -94t-65 -78q-5 -4 -11 -4z" />
    <glyph glyph-name="ldot" unicode="&#x140;" horiz-adv-x="335" 
d="M89 33q-9 14 -13 39t-4 66v335q0 227 -6 274q-1 7 8 10t35 3h6q23 0 31 -2.5t10 -10.5q6 -34 6 -296v-332q0 -29 7 -39.5t31 -10.5h10q4 0 5 -5t1 -22v-3q0 -20 -1 -25.5t-5 -6.5q-22 -8 -47 -8q-51 0 -74 34zM238 334q-17 17 -17 40t17 39.5t40 16.5t39.5 -16.5
t16.5 -39.5t-16.5 -40t-39.5 -17t-40 17z" />
    <glyph glyph-name="lslash" unicode="&#x142;" horiz-adv-x="271" 
d="M96 33q-9 14 -13 39t-4 66v157l-53 -43l-4 -2q-8 0 -8 26v17q0 28 8 34l57 46v100q0 227 -6 274q-1 7 8 10t35 3h6q24 0 31.5 -2.5t9.5 -10.5q6 -34 6 -296v-10l66 54l4 2q8 0 8 -26v-17q0 -28 -8 -34l-70 -57v-244q0 -29 7 -39.5t31 -10.5h10q4 0 5 -5t1 -22v-3
q0 -20 -1 -25.5t-5 -6.5q-22 -8 -47 -8q-51 0 -74 34z" />
    <glyph glyph-name="m" unicode="m" horiz-adv-x="910" 
d="M81.5 2.5q-7.5 2.5 -7.5 9.5v341l-1 118q-1 20 -1 45q0 7 7 9.5t34 2.5h5q26 0 33.5 -2.5t7.5 -9.5l1 -45h1q26 31 67.5 49t87.5 18q41 0 75.5 -13.5t59.5 -39.5q16 -18 23 -32q29 41 77.5 63t102.5 22q41 0 75.5 -13.5t59.5 -39.5q27 -28 39 -68.5t12 -101.5v-303
q0 -6 -7 -9t-34 -3h-6q-28 0 -35.5 2.5t-7.5 9.5v261q0 66 -5 96.5t-22 50.5q-27 33 -91 33q-27 0 -55 -9.5t-45 -25.5q-11 -10 -17.5 -25.5t-9.5 -45.5q-3 -42 -3 -137v-198q0 -6 -7 -9t-34 -3h-6q-28 0 -35.5 2.5t-7.5 9.5v261q0 66 -5 96.5t-22 50.5q-27 33 -91 33
q-27 0 -55 -9.5t-45 -25.5q-11 -10 -17.5 -25.5t-9.5 -45.5q-3 -42 -3 -137v-198q0 -6 -7 -9t-34 -3h-6q-28 0 -35.5 2.5z" />
    <glyph glyph-name="n" unicode="n" horiz-adv-x="585" 
d="M85.5 2.5q-7.5 2.5 -7.5 9.5v341l-1 118q-1 20 -1 45q0 7 7.5 9.5t33.5 2.5h5q26 0 33.5 -2.5t7.5 -9.5l1 -45h1q26 30 71 48.5t92 18.5q41 0 76.5 -13.5t60.5 -39.5q27 -28 39 -68.5t12 -101.5v-303q0 -6 -7 -9t-34 -3h-6q-28 0 -35.5 2.5t-7.5 9.5v261q0 66 -5 96.5
t-22 50.5q-27 33 -95 33q-29 0 -59 -9.5t-47 -26.5q-11 -10 -17.5 -25.5t-9.5 -45.5q-3 -42 -3 -137v-197q0 -6 -7 -9t-34 -3h-6q-28 0 -35.5 2.5z" />
    <glyph glyph-name="nacute" unicode="&#x144;" horiz-adv-x="585" 
d="M85.5 2.5q-7.5 2.5 -7.5 9.5v341l-1 118q-1 20 -1 45q0 7 7.5 9.5t33.5 2.5h5q26 0 33.5 -2.5t7.5 -9.5l1 -45h1q26 30 71 48.5t92 18.5q41 0 76.5 -13.5t60.5 -39.5q27 -28 39 -68.5t12 -101.5v-303q0 -6 -7 -9t-34 -3h-6q-28 0 -35.5 2.5t-7.5 9.5v261q0 66 -5 96.5
t-22 50.5q-27 33 -95 33q-29 0 -59 -9.5t-47 -26.5q-11 -10 -17.5 -25.5t-9.5 -45.5q-3 -42 -3 -137v-197q0 -6 -7 -9t-34 -3h-6q-28 0 -35.5 2.5zM261 593l73 128q6 11 44 11h12q26 0 34.5 -4t4.5 -10l-94 -128q-5 -9 -36 -9h-8q-38 0 -30 12z" />
    <glyph glyph-name="ncaron" unicode="&#x148;" horiz-adv-x="585" 
d="M85.5 2.5q-7.5 2.5 -7.5 9.5v341l-1 118q-1 20 -1 45q0 7 7.5 9.5t33.5 2.5h5q26 0 33.5 -2.5t7.5 -9.5l1 -45h1q26 30 71 48.5t92 18.5q41 0 76.5 -13.5t60.5 -39.5q27 -28 39 -68.5t12 -101.5v-303q0 -6 -7 -9t-34 -3h-6q-28 0 -35.5 2.5t-7.5 9.5v261q0 66 -5 96.5
t-22 50.5q-27 33 -95 33q-29 0 -59 -9.5t-47 -26.5q-11 -10 -17.5 -25.5t-9.5 -45.5q-3 -42 -3 -137v-197q0 -6 -7 -9t-34 -3h-6q-28 0 -35.5 2.5zM250 589l-89 94q-2 2 -2 6q0 8 12 22l8 9q7 8 15.5 12.5t12.5 0.5l112 -98l109 95q2 2 5 2q9 0 20 -13l6 -7q17 -18 9 -27
l-91 -97q-11 -13 -44 -13h-38q-33 0 -45 14z" />
    <glyph glyph-name="ncommaaccent" unicode="&#x146;" horiz-adv-x="585" 
d="M85.5 2.5q-7.5 2.5 -7.5 9.5v341l-1 118q-1 20 -1 45q0 7 7.5 9.5t33.5 2.5h5q26 0 33.5 -2.5t7.5 -9.5l1 -45h1q26 30 71 48.5t92 18.5q41 0 76.5 -13.5t60.5 -39.5q27 -28 39 -68.5t12 -101.5v-303q0 -6 -7 -9t-34 -3h-6q-28 0 -35.5 2.5t-7.5 9.5v261q0 66 -5 96.5
t-22 50.5q-27 33 -95 33q-29 0 -59 -9.5t-47 -26.5q-11 -10 -17.5 -25.5t-9.5 -45.5q-3 -42 -3 -137v-197q0 -6 -7 -9t-34 -3h-6q-28 0 -35.5 2.5zM257 -299q-5 0 -12 6l-9 10q-6 7 -6 12t5 10q47 47 47 81q0 11 -4 17.5t-13 15.5t-14 17.5t-5 23.5q0 20 15.5 33.5
t36.5 13.5q27 0 43 -18t16 -46q0 -48 -24 -94t-65 -78q-5 -4 -11 -4z" />
    <glyph glyph-name="eng" unicode="&#x14b;" horiz-adv-x="585" 
d="M291.5 -189.5q-21.5 4.5 -32.5 10.5q-6 3 -6 11q0 5 3 19l3 15q3 15 7 19.5t12 3.5q35 -7 46 -7q54 0 77.5 37t23.5 122v232q0 66 -5 96.5t-22 50.5q-27 33 -95 33q-29 0 -59 -9.5t-47 -26.5q-11 -10 -17.5 -25.5t-9.5 -45.5q-3 -42 -3 -137v-197q0 -6 -7 -9t-34 -3h-6
q-28 0 -35.5 2.5t-7.5 9.5v341l-1 118q-1 20 -1 45q0 7 7.5 9.5t33.5 2.5h5q26 0 33.5 -2.5t7.5 -9.5l1 -45h1q26 30 71 48.5t92 18.5q41 0 76.5 -13.5t60.5 -39.5q27 -28 39 -68.5t12 -101.5v-272q0 -237 -185 -237q-17 0 -38.5 4.5z" />
    <glyph glyph-name="ntilde" unicode="&#xf1;" horiz-adv-x="585" 
d="M85.5 2.5q-7.5 2.5 -7.5 9.5v341l-1 118q-1 20 -1 45q0 7 7.5 9.5t33.5 2.5h5q26 0 33.5 -2.5t7.5 -9.5l1 -45h1q26 30 71 48.5t92 18.5q41 0 76.5 -13.5t60.5 -39.5q27 -28 39 -68.5t12 -101.5v-303q0 -6 -7 -9t-34 -3h-6q-28 0 -35.5 2.5t-7.5 9.5v261q0 66 -5 96.5
t-22 50.5q-27 33 -95 33q-29 0 -59 -9.5t-47 -26.5q-11 -10 -17.5 -25.5t-9.5 -45.5q-3 -42 -3 -137v-197q0 -6 -7 -9t-34 -3h-6q-28 0 -35.5 2.5zM344.5 613q-13.5 5 -30.5 14q-19 9 -31 13.5t-27 4.5q-30 0 -53 -27q-1 -1 -4 -1q-8 0 -22 19l-7 10q-14 19 -8 27
q17 21 42 34t54 13q20 0 33.5 -5t34.5 -15q16 -9 26.5 -13t24.5 -4q26 0 51 27q2 2 4 2q7 0 22 -17l6 -8q6 -8 8.5 -15.5t-0.5 -11.5q-16 -22 -40.5 -37t-52.5 -15q-17 0 -30.5 5z" />
    <glyph glyph-name="o" unicode="o" horiz-adv-x="568" 
d="M124 40q-38 33 -58.5 87.5t-20.5 124.5q0 139 67 212.5t182 73.5q94 0 150 -50q38 -33 58.5 -87.5t20.5 -124.5q0 -139 -67 -212.5t-182 -73.5q-94 0 -150 50zM386.5 119q42.5 49 42.5 150q0 79 -32 134t-107 55q-66 0 -108.5 -49t-42.5 -150q0 -79 32 -134t107 -55
q66 0 108.5 49z" />
    <glyph glyph-name="oacute" unicode="&#xf3;" horiz-adv-x="568" 
d="M124 40q-38 33 -58.5 87.5t-20.5 124.5q0 139 67 212.5t182 73.5q94 0 150 -50q38 -33 58.5 -87.5t20.5 -124.5q0 -139 -67 -212.5t-182 -73.5q-94 0 -150 50zM386.5 119q42.5 49 42.5 150q0 79 -32 134t-107 55q-66 0 -108.5 -49t-42.5 -150q0 -79 32 -134t107 -55
q66 0 108.5 49zM234 593l73 128q6 11 44 11h12q26 0 34.5 -4t4.5 -10l-94 -128q-5 -9 -36 -9h-8q-38 0 -30 12z" />
    <glyph glyph-name="obreve" unicode="&#x14f;" horiz-adv-x="568" 
d="M124 40q-38 33 -58.5 87.5t-20.5 124.5q0 139 67 212.5t182 73.5q94 0 150 -50q38 -33 58.5 -87.5t20.5 -124.5q0 -139 -67 -212.5t-182 -73.5q-94 0 -150 50zM386.5 119q42.5 49 42.5 150q0 79 -32 134t-107 55q-66 0 -108.5 -49t-42.5 -150q0 -79 32 -134t107 -55
q66 0 108.5 49zM182 622.5q-39 29.5 -43 89.5q0 10 32 10h12q16 0 22.5 -2.5t7.5 -7.5q3 -28 22.5 -43.5t51.5 -15.5q31 0 50.5 15.5t23.5 43.5q1 5 7.5 7.5t22.5 2.5h13q32 0 32 -10q-4 -59 -44.5 -89t-106.5 -30q-64 0 -103 29.5z" />
    <glyph glyph-name="ocircumflex" unicode="&#xf4;" horiz-adv-x="568" 
d="M124 40q-38 33 -58.5 87.5t-20.5 124.5q0 139 67 212.5t182 73.5q94 0 150 -50q38 -33 58.5 -87.5t20.5 -124.5q0 -139 -67 -212.5t-182 -73.5q-94 0 -150 50zM386.5 119q42.5 49 42.5 150q0 79 -32 134t-107 55q-66 0 -108.5 -49t-42.5 -150q0 -79 32 -134t107 -55
q66 0 108.5 49zM287 676l-112 -95q-2 -2 -4 -2q-9 0 -20 13l-7 8q-17 19 -10 27l91 97q11 13 44 13h38q33 0 45 -14l89 -94q3 -3 3 -7q0 -7 -13 -22l-8 -9q-7 -8 -14.5 -11.5t-11.5 0.5z" />
    <glyph glyph-name="odieresis" unicode="&#xf6;" horiz-adv-x="568" 
d="M124 40q-38 33 -58.5 87.5t-20.5 124.5q0 139 67 212.5t182 73.5q94 0 150 -50q38 -33 58.5 -87.5t20.5 -124.5q0 -139 -67 -212.5t-182 -73.5q-94 0 -150 50zM386.5 119q42.5 49 42.5 150q0 79 -32 134t-107 55q-66 0 -108.5 -49t-42.5 -150q0 -79 32 -134t107 -55
q66 0 108.5 49zM130.5 614.5q-16.5 16.5 -16.5 40.5t16.5 40.5t40.5 16.5t40.5 -16.5t16.5 -40.5t-16.5 -40.5t-40.5 -16.5t-40.5 16.5zM363.5 614.5q-16.5 16.5 -16.5 40.5t16.5 40.5t40.5 16.5t40.5 -16.5t16.5 -40.5t-16.5 -40.5t-40.5 -16.5t-40.5 16.5z" />
    <glyph glyph-name="ograve" unicode="&#xf2;" horiz-adv-x="568" 
d="M124 40q-38 33 -58.5 87.5t-20.5 124.5q0 139 67 212.5t182 73.5q94 0 150 -50q38 -33 58.5 -87.5t20.5 -124.5q0 -139 -67 -212.5t-182 -73.5q-94 0 -150 50zM386.5 119q42.5 49 42.5 150q0 79 -32 134t-107 55q-66 0 -108.5 -49t-42.5 -150q0 -79 32 -134t107 -55
q66 0 108.5 49zM276 590l-94 128q-4 5 5.5 9.5t34.5 4.5h13q40 0 46 -11l73 -128q6 -12 -32 -12h-9q-30 0 -37 9z" />
    <glyph glyph-name="ohungarumlaut" unicode="&#x151;" horiz-adv-x="568" 
d="M124 40q-38 33 -58.5 87.5t-20.5 124.5q0 139 67 212.5t182 73.5q94 0 150 -50q38 -33 58.5 -87.5t20.5 -124.5q0 -139 -67 -212.5t-182 -73.5q-94 0 -150 50zM386.5 119q42.5 49 42.5 150q0 79 -32 134t-107 55q-66 0 -108.5 -49t-42.5 -150q0 -79 32 -134t107 -55
q66 0 108.5 49zM145 583q-5 3 -2 10l64 128q5 11 42 11h10q47 0 38 -14l-84 -128q-6 -10 -34 -10h-8q-21 0 -26 3zM313 583q-5 3 -2 10l64 128q5 11 42 11h10q47 0 38 -14l-84 -128q-6 -10 -34 -10h-8q-21 0 -26 3z" />
    <glyph glyph-name="omacron" unicode="&#x14d;" horiz-adv-x="568" 
d="M124 40q-38 33 -58.5 87.5t-20.5 124.5q0 139 67 212.5t182 73.5q94 0 150 -50q38 -33 58.5 -87.5t20.5 -124.5q0 -139 -67 -212.5t-182 -73.5q-94 0 -150 50zM386.5 119q42.5 49 42.5 150q0 79 -32 134t-107 55q-66 0 -108.5 -49t-42.5 -150q0 -79 32 -134t107 -55
q66 0 108.5 49zM140 652v12q0 29 10 29h275q10 0 10 -29v-12q0 -32 -10 -32h-275q-10 0 -10 32z" />
    <glyph glyph-name="oslash" unicode="&#xf8;" horiz-adv-x="583" 
d="M111 -31q-9 0 -22 10l-21 17q-11 8 -14.5 13.5t0.5 10.5l43 60q-44 67 -44 172q0 139 67 212.5t182 73.5q63 0 108 -22l34 49q4 4 8 4q9 0 22 -10l24 -17q10 -7 13.5 -13.5t0.5 -10.5l-38 -53q27 -34 42 -82.5t15 -106.5q0 -139 -67 -212.5t-182 -73.5q-78 0 -127 32
l-36 -49q-4 -4 -8 -4zM362 442q-27 15 -64 15q-66 0 -108.5 -48.5t-42.5 -149.5q0 -59 14 -97zM394.5 119.5q42.5 48.5 42.5 149.5q0 72 -24 119l-210 -290q33 -27 83 -27q66 0 108.5 48.5z" />
    <glyph glyph-name="oslashacute" unicode="&#x1ff;" horiz-adv-x="583" 
d="M111 -31q-9 0 -22 10l-21 17q-11 8 -14.5 13.5t0.5 10.5l43 60q-44 67 -44 172q0 139 67 212.5t182 73.5q63 0 108 -22l34 49q4 4 8 4q9 0 22 -10l24 -17q10 -7 13.5 -13.5t0.5 -10.5l-38 -53q27 -34 42 -82.5t15 -106.5q0 -139 -67 -212.5t-182 -73.5q-78 0 -127 32
l-36 -49q-4 -4 -8 -4zM362 442q-27 15 -64 15q-66 0 -108.5 -48.5t-42.5 -149.5q0 -59 14 -97zM394.5 119.5q42.5 48.5 42.5 149.5q0 72 -24 119l-210 -290q33 -27 83 -27q66 0 108.5 48.5zM238 593l73 128q6 11 44 11h12q26 0 34.5 -4t4.5 -10l-94 -128q-5 -9 -36 -9h-8
q-38 0 -30 12z" />
    <glyph glyph-name="otilde" unicode="&#xf5;" horiz-adv-x="568" 
d="M124 40q-38 33 -58.5 87.5t-20.5 124.5q0 139 67 212.5t182 73.5q94 0 150 -50q38 -33 58.5 -87.5t20.5 -124.5q0 -139 -67 -212.5t-182 -73.5q-94 0 -150 50zM386.5 119q42.5 49 42.5 150q0 79 -32 134t-107 55q-66 0 -108.5 -49t-42.5 -150q0 -79 32 -134t107 -55
q66 0 108.5 49zM317.5 613q-13.5 5 -30.5 14q-19 9 -31 13.5t-27 4.5q-30 0 -53 -27q-1 -1 -4 -1q-8 0 -22 19l-7 10q-14 19 -8 27q17 21 42 34t54 13q20 0 33.5 -5t34.5 -15q16 -9 26.5 -13t24.5 -4q26 0 51 27q2 2 4 2q7 0 22 -17l6 -8q6 -8 8.5 -15.5t-0.5 -11.5
q-16 -22 -40.5 -37t-52.5 -15q-17 0 -30.5 5z" />
    <glyph glyph-name="oe" unicode="&#x153;" horiz-adv-x="912" 
d="M123 40q-37 33 -57 87.5t-20 124.5q0 139 65.5 212.5t178.5 73.5q66 0 110.5 -24.5t72.5 -76.5q25 47 72 74t110 27t108 -29t71 -81q32 -67 32 -160q0 -22 -2 -29t-8 -7h-342q5 -86 48 -124q39 -36 114 -36q61 0 128 32l8 2q8 0 17 -21l5 -12q8 -17 8 -27q0 -7 -6 -10
q-77 -46 -177 -46q-72 0 -121.5 26.5t-74.5 72.5q-25 -46 -75.5 -72.5t-117.5 -26.5q-91 0 -147 50zM378 118.5q42 47.5 42 145.5q0 83 -31 138t-103 55q-63 0 -104.5 -48.5t-41.5 -149.5q0 -79 31 -133.5t103 -54.5q62 0 104 47.5zM774 306q-1 62 -31.5 106t-86.5 44
q-55 0 -92.5 -37.5t-46.5 -112.5h257z" />
    <glyph glyph-name="p" unicode="p" horiz-adv-x="565" 
d="M463 468q57 -70 57 -193q0 -77 -27.5 -142t-82.5 -103.5t-134 -38.5q-29 0 -59.5 9t-49.5 22v-241q0 -8 -9 -10.5t-34 -2.5h-6q-24 0 -32.5 2.5t-8.5 10.5v572l-1 118q-1 20 -1 45q0 7 7.5 9.5t33.5 2.5h4q26 0 34 -2.5t8 -9.5l1 -44q23 29 63 47.5t81 18.5q99 0 156 -70
zM383.5 126.5q42.5 54.5 42.5 145.5q0 88 -37 136.5t-97 48.5q-30 0 -60.5 -12.5t-45.5 -31.5q-13 -17 -16 -43t-3 -105v-155q20 -17 47.5 -27.5t56.5 -10.5q70 0 112.5 54.5z" />
    <glyph glyph-name="thorn" unicode="&#xfe;" horiz-adv-x="563" 
d="M82.5 -229.5q-8.5 2.5 -8.5 10.5v967q0 7 7.5 9.5t35.5 2.5h6q27 0 34 -3t7 -9v-271q24 27 62.5 44t77.5 17q99 0 156 -70t57 -193q0 -77 -27.5 -142t-82.5 -103.5t-134 -38.5q-29 0 -59.5 9t-49.5 22v-241q0 -8 -9 -10.5t-34 -2.5h-6q-24 0 -32.5 2.5zM380.5 126.5
q42.5 54.5 42.5 145.5q0 88 -37 136.5t-97 48.5q-30 0 -60.5 -12.5t-45.5 -31.5q-11 -14 -15 -34t-4 -63v-206q20 -17 47.5 -27.5t56.5 -10.5q70 0 112.5 54.5z" />
    <glyph glyph-name="q" unicode="q" horiz-adv-x="565" 
d="M414.5 -220.5q-7.5 2.5 -9.5 10.5q-6 31 -6 259q-23 -27 -63 -43t-87 -16q-66 0 -112 34.5t-69 93.5t-23 132q0 88 32.5 153t92 100t138.5 35q101 0 178 -35q3 -1 3 -10v-429q0 -227 6 -274q1 -7 -8 -10t-35 -3h-6q-24 0 -31.5 2.5zM323 82.5q25 8.5 42 24.5
q21 19 27.5 58t6.5 135v143q-42 17 -87 17q-82 0 -127.5 -55t-45.5 -148q0 -91 33 -137t98 -46q28 0 53 8.5z" />
    <glyph glyph-name="r" unicode="r" horiz-adv-x="359" 
d="M84.5 2.5q-7.5 2.5 -7.5 9.5v341l-1 118q-1 20 -1 45q0 7 7.5 9.5t33.5 2.5h5q26 0 33.5 -2.5t7.5 -9.5l2 -103q27 61 65.5 91t80.5 30q11 0 21 -2q7 -1 8.5 -6t1.5 -22v-15q0 -23 -2 -30t-9 -7q-48 0 -79 -24t-57 -67q-21 -35 -24 -86q-3 -42 -3 -148v-115q0 -6 -7 -9
t-34 -3h-6q-28 0 -35.5 2.5z" />
    <glyph glyph-name="racute" unicode="&#x155;" horiz-adv-x="359" 
d="M84.5 2.5q-7.5 2.5 -7.5 9.5v341l-1 118q-1 20 -1 45q0 7 7.5 9.5t33.5 2.5h5q26 0 33.5 -2.5t7.5 -9.5l2 -103q27 61 65.5 91t80.5 30q11 0 21 -2q7 -1 8.5 -6t1.5 -22v-15q0 -23 -2 -30t-9 -7q-48 0 -79 -24t-57 -67q-21 -35 -24 -86q-3 -42 -3 -148v-115q0 -6 -7 -9
t-34 -3h-6q-28 0 -35.5 2.5zM163 593l73 128q6 11 44 11h12q26 0 34.5 -4t4.5 -10l-94 -128q-5 -9 -36 -9h-8q-38 0 -30 12z" />
    <glyph glyph-name="rcaron" unicode="&#x159;" horiz-adv-x="359" 
d="M84.5 2.5q-7.5 2.5 -7.5 9.5v341l-1 118q-1 20 -1 45q0 7 7.5 9.5t33.5 2.5h5q26 0 33.5 -2.5t7.5 -9.5l2 -103q27 61 65.5 91t80.5 30q11 0 21 -2q7 -1 8.5 -6t1.5 -22v-15q0 -23 -2 -30t-9 -7q-48 0 -79 -24t-57 -67q-21 -35 -24 -86q-3 -42 -3 -148v-115q0 -6 -7 -9
t-34 -3h-6q-28 0 -35.5 2.5zM152 589l-89 94q-2 2 -2 6q0 8 12 22l8 9q7 8 15.5 12.5t12.5 0.5l112 -98l109 95q2 2 5 2q9 0 20 -13l6 -7q17 -18 9 -27l-91 -97q-11 -13 -44 -13h-38q-33 0 -45 14z" />
    <glyph glyph-name="rcommaaccent" unicode="&#x157;" horiz-adv-x="359" 
d="M84.5 2.5q-7.5 2.5 -7.5 9.5v341l-1 118q-1 20 -1 45q0 7 7.5 9.5t33.5 2.5h5q26 0 33.5 -2.5t7.5 -9.5l2 -103q27 61 65.5 91t80.5 30q11 0 21 -2q7 -1 8.5 -6t1.5 -22v-15q0 -23 -2 -30t-9 -7q-48 0 -79 -24t-57 -67q-21 -35 -24 -86q-3 -42 -3 -148v-115q0 -6 -7 -9
t-34 -3h-6q-28 0 -35.5 2.5zM85 -299q-5 0 -12 6l-9 10q-6 7 -6 12t5 10q47 47 47 81q0 11 -4 17.5t-13 15.5t-14 17.5t-5 23.5q0 20 15.5 33.5t36.5 13.5q27 0 43 -18t16 -46q0 -48 -24 -94t-65 -78q-5 -4 -11 -4z" />
    <glyph glyph-name="s" unicode="s" horiz-adv-x="458" 
d="M124 4q-44 14 -74 36q-6 5 -6 10q0 4 10 26l5 11q7 15 11 20t8 5q6 0 11 -4q31 -18 65 -29t65 -11q41 0 75.5 20.5t34.5 60.5q0 36 -32 54t-83 29q-43 10 -71.5 21.5t-47.5 29.5q-19 17 -29.5 42.5t-10.5 54.5q0 48 25 83.5t67.5 55t92.5 19.5q46 0 88 -15t70 -40
q6 -4 6 -12q0 -10 -10 -24l-7 -10q-13 -18 -18.5 -21.5t-11.5 1.5q-31 22 -58 33t-58 11q-38 0 -69 -17t-31 -54q0 -36 27 -51.5t77 -28.5q51 -13 86.5 -29t59 -46.5t23.5 -79.5q0 -77 -57 -121t-143 -44q-46 0 -90 14z" />
    <glyph glyph-name="sacute" unicode="&#x15b;" horiz-adv-x="458" 
d="M124 4q-44 14 -74 36q-6 5 -6 10q0 4 10 26l5 11q7 15 11 20t8 5q6 0 11 -4q31 -18 65 -29t65 -11q41 0 75.5 20.5t34.5 60.5q0 36 -32 54t-83 29q-43 10 -71.5 21.5t-47.5 29.5q-19 17 -29.5 42.5t-10.5 54.5q0 48 25 83.5t67.5 55t92.5 19.5q46 0 88 -15t70 -40
q6 -4 6 -12q0 -10 -10 -24l-7 -10q-13 -18 -18.5 -21.5t-11.5 1.5q-31 22 -58 33t-58 11q-38 0 -69 -17t-31 -54q0 -36 27 -51.5t77 -28.5q51 -13 86.5 -29t59 -46.5t23.5 -79.5q0 -77 -57 -121t-143 -44q-46 0 -90 14zM184 593l73 128q6 11 44 11h12q26 0 34.5 -4t4.5 -10
l-94 -128q-5 -9 -36 -9h-8q-38 0 -30 12z" />
    <glyph glyph-name="scaron" unicode="&#x161;" horiz-adv-x="458" 
d="M124 4q-44 14 -74 36q-6 5 -6 10q0 4 10 26l5 11q7 15 11 20t8 5q6 0 11 -4q31 -18 65 -29t65 -11q41 0 75.5 20.5t34.5 60.5q0 36 -32 54t-83 29q-43 10 -71.5 21.5t-47.5 29.5q-19 17 -29.5 42.5t-10.5 54.5q0 48 25 83.5t67.5 55t92.5 19.5q46 0 88 -15t70 -40
q6 -4 6 -12q0 -10 -10 -24l-7 -10q-13 -18 -18.5 -21.5t-11.5 1.5q-31 22 -58 33t-58 11q-38 0 -69 -17t-31 -54q0 -36 27 -51.5t77 -28.5q51 -13 86.5 -29t59 -46.5t23.5 -79.5q0 -77 -57 -121t-143 -44q-46 0 -90 14zM173 589l-89 94q-2 2 -2 6q0 8 12 22l8 9
q7 8 15.5 12.5t12.5 0.5l112 -98l109 95q2 2 5 2q9 0 20 -13l6 -7q17 -18 9 -27l-91 -97q-11 -13 -44 -13h-38q-33 0 -45 14z" />
    <glyph glyph-name="scedilla" unicode="&#x15f;" horiz-adv-x="458" 
d="M366 41q-48 -43 -124 -50l-3 -32q6 1 17 1q40 0 65.5 -22t25.5 -62q0 -41 -30 -69.5t-88 -28.5q-20 0 -41 3.5t-35 8.5q-6 2 -6 11l2 12l4 16q5 21 14 18q27 -8 54 -8q20 0 32.5 8.5t12.5 24.5q0 17 -11.5 23t-38.5 6q-35 0 -59 -3l12 96q-34 5 -65 17.5t-54 28.5
q-6 5 -6 10q0 4 10 26l5 11q7 15 11 20t8 5q6 0 11 -4q31 -18 65 -29t65 -11q41 0 75.5 20.5t34.5 60.5q0 36 -32 54t-83 29q-43 10 -71.5 21.5t-47.5 29.5q-19 17 -29.5 42.5t-10.5 54.5q0 48 25 83.5t67.5 55t92.5 19.5q46 0 88 -15t70 -40q6 -4 6 -12q0 -10 -10 -24
l-7 -10q-13 -18 -18.5 -21.5t-11.5 1.5q-31 22 -58 33t-58 11q-38 0 -69 -17t-31 -54q0 -36 27 -51.5t77 -28.5q51 -13 86.5 -29t59 -46.5t23.5 -79.5q0 -71 -48 -114z" />
    <glyph glyph-name="scircumflex" unicode="&#x15d;" horiz-adv-x="458" 
d="M124 4q-44 14 -74 36q-6 5 -6 10q0 4 10 26l5 11q7 15 11 20t8 5q6 0 11 -4q31 -18 65 -29t65 -11q41 0 75.5 20.5t34.5 60.5q0 36 -32 54t-83 29q-43 10 -71.5 21.5t-47.5 29.5q-19 17 -29.5 42.5t-10.5 54.5q0 48 25 83.5t67.5 55t92.5 19.5q46 0 88 -15t70 -40
q6 -4 6 -12q0 -10 -10 -24l-7 -10q-13 -18 -18.5 -21.5t-11.5 1.5q-31 22 -58 33t-58 11q-38 0 -69 -17t-31 -54q0 -36 27 -51.5t77 -28.5q51 -13 86.5 -29t59 -46.5t23.5 -79.5q0 -77 -57 -121t-143 -44q-46 0 -90 14zM237 676l-112 -95q-2 -2 -4 -2q-9 0 -20 13l-7 8
q-17 19 -10 27l91 97q11 13 44 13h38q33 0 45 -14l89 -94q3 -3 3 -7q0 -7 -13 -22l-8 -9q-7 -8 -14.5 -11.5t-11.5 0.5z" />
    <glyph glyph-name="scommaaccent" unicode="&#x219;" horiz-adv-x="458" 
d="M124 4q-44 14 -74 36q-6 5 -6 10q0 4 10 26l5 11q7 15 11 20t8 5q6 0 11 -4q31 -18 65 -29t65 -11q41 0 75.5 20.5t34.5 60.5q0 36 -32 54t-83 29q-43 10 -71.5 21.5t-47.5 29.5q-19 17 -29.5 42.5t-10.5 54.5q0 48 25 83.5t67.5 55t92.5 19.5q46 0 88 -15t70 -40
q6 -4 6 -12q0 -10 -10 -24l-7 -10q-13 -18 -18.5 -21.5t-11.5 1.5q-31 22 -58 33t-58 11q-38 0 -69 -17t-31 -54q0 -36 27 -51.5t77 -28.5q51 -13 86.5 -29t59 -46.5t23.5 -79.5q0 -77 -57 -121t-143 -44q-46 0 -90 14zM197 -299q-5 0 -12 6l-9 10q-6 7 -6 12t5 10
q47 47 47 81q0 11 -4 17.5t-13 15.5t-14 17.5t-5 23.5q0 20 15.5 33.5t36.5 13.5q27 0 43 -18t16 -46q0 -48 -24 -94t-65 -78q-5 -4 -11 -4z" />
    <glyph glyph-name="germandbls" unicode="&#xdf;" horiz-adv-x="606" 
d="M306 0.5q-42 10.5 -66 27.5q-7 6 -7 13t7 24l6 12q10 24 22 24q4 0 8 -3q18 -13 49.5 -21.5t58.5 -8.5q41 0 73 23t32 70q0 43 -25 64t-65 34q-58 19 -92 51t-34 97q0 41 14.5 68t41.5 57q21 24 31.5 42t10.5 41q0 36 -24 58t-68 22q-63 0 -89 -44.5t-26 -129.5v-509
q0 -6 -7 -9t-34 -3h-6q-28 0 -35.5 2.5t-7.5 9.5v501q0 124 51.5 190.5t150.5 66.5q72 0 125.5 -35t53.5 -111q0 -44 -15 -73.5t-43 -62.5q-19 -23 -28 -38t-9 -33q0 -33 20.5 -49.5t55.5 -27.5q64 -20 101 -55.5t37 -111.5q0 -58 -24.5 -99t-66.5 -62.5t-93 -21.5
q-42 0 -84 10.5z" />
    <glyph glyph-name="longs" unicode="&#x17f;" horiz-adv-x="300" 
d="M109.5 2.5q-7.5 2.5 -7.5 9.5v445h-63q-5 0 -7 6t-2 25v8q0 20 2 26t7 6h63v24q0 107 45.5 162.5t136.5 55.5q53 0 101 -22q5 -3 5 -9q0 -4 -5 -26l-1 -4q-5 -19 -8.5 -25t-9.5 -4q-42 15 -79 15q-54 0 -74.5 -35t-20.5 -107v-541q0 -6 -7 -9t-34 -3h-6q-28 0 -35.5 2.5z
" />
    <glyph glyph-name="t" unicode="t" horiz-adv-x="368" 
d="M135 23q-21 20 -29.5 50t-8.5 82v302h-63q-5 0 -7 6t-2 26v8q0 19 2 25t7 6h63v136q0 7 7.5 9.5t35.5 2.5h6q27 0 34 -3t7 -9v-136h126q5 0 7 -6t2 -25v-8q0 -20 -2 -26t-7 -6h-126v-295q0 -31 3.5 -49t12.5 -28q17 -18 51 -18q25 0 68 13q2 1 5 1q4 0 7 -4.5t6 -16.5
l3 -13q3 -13 3 -20t-6 -12q-18 -12 -47 -18.5t-58 -6.5q-65 0 -100 33z" />
    <glyph glyph-name="tbar" unicode="&#x167;" horiz-adv-x="368" 
d="M135 23q-21 20 -29.5 50t-8.5 82v85h-60q-5 0 -7 7.5t-2 24.5q0 32 9 32h60v153h-63q-5 0 -7 6t-2 26v8q0 19 2 25t7 6h63v136q0 7 7.5 9.5t35.5 2.5h6q27 0 34 -3t7 -9v-136h126q5 0 7 -6t2 -25v-8q0 -20 -2 -26t-7 -6h-126v-153h106q9 0 9 -32q0 -17 -2 -24.5t-7 -7.5
h-106v-78q0 -31 3.5 -49t12.5 -28q17 -18 51 -18q25 0 68 13q2 1 5 1q4 0 7 -4.5t6 -16.5l3 -13q3 -13 3 -20t-6 -12q-18 -12 -47 -18.5t-58 -6.5q-65 0 -100 33z" />
    <glyph glyph-name="tcaron" unicode="&#x165;" horiz-adv-x="368" 
d="M135 23q-21 20 -29.5 50t-8.5 82v302h-63q-5 0 -7 6t-2 26v8q0 19 2 25t7 6h63v136q0 7 7.5 9.5t35.5 2.5h6q27 0 34 -3t7 -9v-136h126q5 0 7 -6t2 -25v-8q0 -20 -2 -26t-7 -6h-126v-295q0 -31 3.5 -49t12.5 -28q17 -18 51 -18q25 0 68 13q2 1 5 1q4 0 7 -4.5t6 -16.5
l3 -13q3 -13 3 -20t-6 -12q-18 -12 -47 -18.5t-58 -6.5q-65 0 -100 33zM268 591q-5 0 -12 6l-9 10q-6 7 -6 12t5 10q47 47 47 81q0 11 -4 17.5t-13 15.5t-14 17.5t-5 23.5q0 20 15.5 33.5t36.5 13.5q27 0 43 -18t16 -46q0 -48 -24 -94t-65 -78q-5 -4 -11 -4z" />
    <glyph glyph-name="uni0163" unicode="&#x163;" horiz-adv-x="368" 
d="M135 23q-21 20 -29.5 50t-8.5 82v302h-63q-5 0 -7 6t-2 26v8q0 19 2 25t7 6h63v136q0 7 7.5 9.5t35.5 2.5h6q27 0 34 -3t7 -9v-136h126q5 0 7 -6t2 -25v-8q0 -20 -2 -26t-7 -6h-126v-295q0 -31 3.5 -49t12.5 -28q17 -18 51 -18q25 0 68 13q2 1 5 1q4 0 7 -4.5t6 -16.5
l3 -13q3 -13 3 -20t-6 -12q-18 -12 -47 -18.5t-58 -6.5q-65 0 -100 33zM178 -299q-5 0 -12 6l-9 10q-6 7 -6 12t5 10q47 47 47 81q0 11 -4 17.5t-13 15.5t-14 17.5t-5 23.5q0 20 15.5 33.5t36.5 13.5q27 0 43 -18t16 -46q0 -48 -24 -94t-65 -78q-5 -4 -11 -4z" />
    <glyph glyph-name="uni021B" unicode="&#x21b;" horiz-adv-x="368" 
d="M135 23q-21 20 -29.5 50t-8.5 82v302h-63q-5 0 -7 6t-2 26v8q0 19 2 25t7 6h63v136q0 7 7.5 9.5t35.5 2.5h6q27 0 34 -3t7 -9v-136h126q5 0 7 -6t2 -25v-8q0 -20 -2 -26t-7 -6h-126v-295q0 -31 3.5 -49t12.5 -28q17 -18 51 -18q25 0 68 13q2 1 5 1q4 0 7 -4.5t6 -16.5
l3 -13q3 -13 3 -20t-6 -12q-18 -12 -47 -18.5t-58 -6.5q-65 0 -100 33zM178 -299q-5 0 -12 6l-9 10q-6 7 -6 12t5 10q47 47 47 81q0 11 -4 17.5t-13 15.5t-14 17.5t-5 23.5q0 20 15.5 33.5t36.5 13.5q27 0 43 -18t16 -46q0 -48 -24 -94t-65 -78q-5 -4 -11 -4z" />
    <glyph glyph-name="u" unicode="u" horiz-adv-x="581" 
d="M118 43q-26 27 -37.5 68t-11.5 102v303q0 6 7 9t33 3h8q27 0 34.5 -2.5t7.5 -9.5v-262q0 -64 4.5 -96t20.5 -51q28 -34 89 -34q30 0 61 9.5t48 26.5q17 16 24.5 49t7.5 111v247q0 6 8 9t32 3h9q24 0 32.5 -3t8.5 -9v-341l1 -118q1 -20 1 -45q0 -7 -7.5 -9.5t-33.5 -2.5
h-4q-25 0 -33 3t-8 9l-2 43h-1q-59 -65 -166 -65q-83 0 -133 53z" />
    <glyph glyph-name="uacute" unicode="&#xfa;" horiz-adv-x="581" 
d="M118 43q-26 27 -37.5 68t-11.5 102v303q0 6 7 9t33 3h8q27 0 34.5 -2.5t7.5 -9.5v-262q0 -64 4.5 -96t20.5 -51q28 -34 89 -34q30 0 61 9.5t48 26.5q17 16 24.5 49t7.5 111v247q0 6 8 9t32 3h9q24 0 32.5 -3t8.5 -9v-341l1 -118q1 -20 1 -45q0 -7 -7.5 -9.5t-33.5 -2.5
h-4q-25 0 -33 3t-8 9l-2 43h-1q-59 -65 -166 -65q-83 0 -133 53zM237 593l73 128q6 11 44 11h12q26 0 34.5 -4t4.5 -10l-94 -128q-5 -9 -36 -9h-8q-38 0 -30 12z" />
    <glyph glyph-name="ubreve" unicode="&#x16d;" horiz-adv-x="581" 
d="M118 43q-26 27 -37.5 68t-11.5 102v303q0 6 7 9t33 3h8q27 0 34.5 -2.5t7.5 -9.5v-262q0 -64 4.5 -96t20.5 -51q28 -34 89 -34q30 0 61 9.5t48 26.5q17 16 24.5 49t7.5 111v247q0 6 8 9t32 3h9q24 0 32.5 -3t8.5 -9v-341l1 -118q1 -20 1 -45q0 -7 -7.5 -9.5t-33.5 -2.5
h-4q-25 0 -33 3t-8 9l-2 43h-1q-59 -65 -166 -65q-83 0 -133 53zM185 622.5q-39 29.5 -43 89.5q0 10 32 10h12q16 0 22.5 -2.5t7.5 -7.5q3 -28 22.5 -43.5t51.5 -15.5q31 0 50.5 15.5t23.5 43.5q1 5 7.5 7.5t22.5 2.5h13q32 0 32 -10q-4 -59 -44.5 -89t-106.5 -30
q-64 0 -103 29.5z" />
    <glyph glyph-name="ucircumflex" unicode="&#xfb;" horiz-adv-x="581" 
d="M118 43q-26 27 -37.5 68t-11.5 102v303q0 6 7 9t33 3h8q27 0 34.5 -2.5t7.5 -9.5v-262q0 -64 4.5 -96t20.5 -51q28 -34 89 -34q30 0 61 9.5t48 26.5q17 16 24.5 49t7.5 111v247q0 6 8 9t32 3h9q24 0 32.5 -3t8.5 -9v-341l1 -118q1 -20 1 -45q0 -7 -7.5 -9.5t-33.5 -2.5
h-4q-25 0 -33 3t-8 9l-2 43h-1q-59 -65 -166 -65q-83 0 -133 53zM290 676l-112 -95q-2 -2 -4 -2q-9 0 -20 13l-7 8q-17 19 -10 27l91 97q11 13 44 13h38q33 0 45 -14l89 -94q3 -3 3 -7q0 -7 -13 -22l-8 -9q-7 -8 -14.5 -11.5t-11.5 0.5z" />
    <glyph glyph-name="udieresis" unicode="&#xfc;" horiz-adv-x="581" 
d="M118 43q-26 27 -37.5 68t-11.5 102v303q0 6 7 9t33 3h8q27 0 34.5 -2.5t7.5 -9.5v-262q0 -64 4.5 -96t20.5 -51q28 -34 89 -34q30 0 61 9.5t48 26.5q17 16 24.5 49t7.5 111v247q0 6 8 9t32 3h9q24 0 32.5 -3t8.5 -9v-341l1 -118q1 -20 1 -45q0 -7 -7.5 -9.5t-33.5 -2.5
h-4q-25 0 -33 3t-8 9l-2 43h-1q-59 -65 -166 -65q-83 0 -133 53zM133.5 614.5q-16.5 16.5 -16.5 40.5t16.5 40.5t40.5 16.5t40.5 -16.5t16.5 -40.5t-16.5 -40.5t-40.5 -16.5t-40.5 16.5zM366.5 614.5q-16.5 16.5 -16.5 40.5t16.5 40.5t40.5 16.5t40.5 -16.5t16.5 -40.5
t-16.5 -40.5t-40.5 -16.5t-40.5 16.5z" />
    <glyph glyph-name="ugrave" unicode="&#xf9;" horiz-adv-x="581" 
d="M118 43q-26 27 -37.5 68t-11.5 102v303q0 6 7 9t33 3h8q27 0 34.5 -2.5t7.5 -9.5v-262q0 -64 4.5 -96t20.5 -51q28 -34 89 -34q30 0 61 9.5t48 26.5q17 16 24.5 49t7.5 111v247q0 6 8 9t32 3h9q24 0 32.5 -3t8.5 -9v-341l1 -118q1 -20 1 -45q0 -7 -7.5 -9.5t-33.5 -2.5
h-4q-25 0 -33 3t-8 9l-2 43h-1q-59 -65 -166 -65q-83 0 -133 53zM279 590l-94 128q-4 5 5.5 9.5t34.5 4.5h13q40 0 46 -11l73 -128q6 -12 -32 -12h-9q-30 0 -37 9z" />
    <glyph glyph-name="uhungarumlaut" unicode="&#x171;" horiz-adv-x="581" 
d="M118 43q-26 27 -37.5 68t-11.5 102v303q0 6 7 9t33 3h8q27 0 34.5 -2.5t7.5 -9.5v-262q0 -64 4.5 -96t20.5 -51q28 -34 89 -34q30 0 61 9.5t48 26.5q17 16 24.5 49t7.5 111v247q0 6 8 9t32 3h9q24 0 32.5 -3t8.5 -9v-341l1 -118q1 -20 1 -45q0 -7 -7.5 -9.5t-33.5 -2.5
h-4q-25 0 -33 3t-8 9l-2 43h-1q-59 -65 -166 -65q-83 0 -133 53zM148 583q-5 3 -2 10l64 128q5 11 42 11h10q47 0 38 -14l-84 -128q-6 -10 -34 -10h-8q-21 0 -26 3zM316 583q-5 3 -2 10l64 128q5 11 42 11h10q47 0 38 -14l-84 -128q-6 -10 -34 -10h-8q-21 0 -26 3z" />
    <glyph glyph-name="umacron" unicode="&#x16b;" horiz-adv-x="581" 
d="M118 43q-26 27 -37.5 68t-11.5 102v303q0 6 7 9t33 3h8q27 0 34.5 -2.5t7.5 -9.5v-262q0 -64 4.5 -96t20.5 -51q28 -34 89 -34q30 0 61 9.5t48 26.5q17 16 24.5 49t7.5 111v247q0 6 8 9t32 3h9q24 0 32.5 -3t8.5 -9v-341l1 -118q1 -20 1 -45q0 -7 -7.5 -9.5t-33.5 -2.5
h-4q-25 0 -33 3t-8 9l-2 43h-1q-59 -65 -166 -65q-83 0 -133 53zM143 652v12q0 29 10 29h275q10 0 10 -29v-12q0 -32 -10 -32h-275q-10 0 -10 32z" />
    <glyph glyph-name="uogonek" unicode="&#x173;" horiz-adv-x="581" 
d="M349 -184q-29 27 -29 65q0 86 100 134l-2 40h-1q-59 -65 -166 -65q-83 0 -133 53q-26 27 -37.5 68t-11.5 102v303q0 6 7 9t33 3h8q27 0 34.5 -2.5t7.5 -9.5v-262q0 -64 4.5 -96t20.5 -51q28 -34 89 -34q30 0 61 9.5t48 26.5q17 16 24.5 49t7.5 111v247q0 6 8 9t32 3h9
q24 0 32.5 -3t8.5 -9v-341l1 -117q1 -19 1 -44q0 -6 -2.5 -9t-9.5 -4q-37 -7 -66 -36.5t-29 -66.5q0 -43 49 -43q24 0 41 6h2q4 0 7 -6t5 -16l2 -9q2 -8 2 -18q0 -8 -4 -9q-33 -14 -72 -14q-53 0 -82 27z" />
    <glyph glyph-name="uring" unicode="&#x16f;" horiz-adv-x="581" 
d="M118 43q-26 27 -37.5 68t-11.5 102v303q0 6 7 9t33 3h8q27 0 34.5 -2.5t7.5 -9.5v-262q0 -64 4.5 -96t20.5 -51q28 -34 89 -34q30 0 61 9.5t48 26.5q17 16 24.5 49t7.5 111v247q0 6 8 9t32 3h9q24 0 32.5 -3t8.5 -9v-341l1 -118q1 -20 1 -45q0 -7 -7.5 -9.5t-33.5 -2.5
h-4q-25 0 -33 3t-8 9l-2 43h-1q-59 -65 -166 -65q-83 0 -133 53zM225 604.5q-28 26.5 -28 63.5t28 63.5t66 26.5q39 0 66.5 -26t27.5 -64t-27.5 -64t-66.5 -26q-38 0 -66 26.5zM320.5 638q11.5 12 11.5 30t-11.5 30t-29.5 12t-30 -12t-12 -30t12 -30t30 -12t29.5 12z" />
    <glyph glyph-name="utilde" unicode="&#x169;" horiz-adv-x="581" 
d="M118 43q-26 27 -37.5 68t-11.5 102v303q0 6 7 9t33 3h8q27 0 34.5 -2.5t7.5 -9.5v-262q0 -64 4.5 -96t20.5 -51q28 -34 89 -34q30 0 61 9.5t48 26.5q17 16 24.5 49t7.5 111v247q0 6 8 9t32 3h9q24 0 32.5 -3t8.5 -9v-341l1 -118q1 -20 1 -45q0 -7 -7.5 -9.5t-33.5 -2.5
h-4q-25 0 -33 3t-8 9l-2 43h-1q-59 -65 -166 -65q-83 0 -133 53zM320.5 613q-13.5 5 -30.5 14q-19 9 -31 13.5t-27 4.5q-30 0 -53 -27q-1 -1 -4 -1q-8 0 -22 19l-7 10q-14 19 -8 27q17 21 42 34t54 13q20 0 33.5 -5t34.5 -15q16 -9 26.5 -13t24.5 -4q26 0 51 27q2 2 4 2
q7 0 22 -17l6 -8q6 -8 8.5 -15.5t-0.5 -11.5q-16 -22 -40.5 -37t-52.5 -15q-17 0 -30.5 5z" />
    <glyph glyph-name="v" unicode="v" horiz-adv-x="493" 
d="M209.5 2q-9.5 2 -12.5 10l-183 502q-3 9 6 11.5t38 2.5q27 0 39 -2.5t14 -8.5l144 -415h1q91 246 128 416q2 6 8 8t34 2q31 0 39 -3t5 -16q-34 -136 -78.5 -266t-90.5 -231q-4 -8 -13 -10t-40 -2q-29 0 -38.5 2z" />
    <glyph glyph-name="w" unicode="w" horiz-adv-x="777" 
d="M182.5 2.5q-10.5 2.5 -12.5 10.5l-149 501q-2 9 6 11.5t34 2.5q30 0 41 -2.5t13 -8.5l113 -413l106 410q2 8 10.5 11t34.5 3h21q23 0 31 -3t10 -11l110 -411q41 129 66 221.5t42 191.5q1 7 9.5 9.5t35.5 2.5q28 0 36 -3.5t5 -16.5q-31 -141 -65.5 -256t-78.5 -237
q-3 -8 -14 -11.5t-35 -3.5h-15q-22 0 -33 3t-13 11l-63 235q-21 77 -42 180q-15 -77 -43 -181l-62 -235q-2 -8 -12 -10.5t-37 -2.5h-9q-30 0 -40.5 2.5z" />
    <glyph glyph-name="wacute" unicode="&#x1e83;" horiz-adv-x="777" 
d="M182.5 2.5q-10.5 2.5 -12.5 10.5l-149 501q-2 9 6 11.5t34 2.5q30 0 41 -2.5t13 -8.5l113 -413l106 410q2 8 10.5 11t34.5 3h21q23 0 31 -3t10 -11l110 -411q41 129 66 221.5t42 191.5q1 7 9.5 9.5t35.5 2.5q28 0 36 -3.5t5 -16.5q-31 -141 -65.5 -256t-78.5 -237
q-3 -8 -14 -11.5t-35 -3.5h-15q-22 0 -33 3t-13 11l-63 235q-21 77 -42 180q-15 -77 -43 -181l-62 -235q-2 -8 -12 -10.5t-37 -2.5h-9q-30 0 -40.5 2.5zM336 593l73 128q6 11 44 11h12q26 0 34.5 -4t4.5 -10l-94 -128q-5 -9 -36 -9h-8q-38 0 -30 12z" />
    <glyph glyph-name="wcircumflex" unicode="&#x175;" horiz-adv-x="777" 
d="M182.5 2.5q-10.5 2.5 -12.5 10.5l-149 501q-2 9 6 11.5t34 2.5q30 0 41 -2.5t13 -8.5l113 -413l106 410q2 8 10.5 11t34.5 3h21q23 0 31 -3t10 -11l110 -411q41 129 66 221.5t42 191.5q1 7 9.5 9.5t35.5 2.5q28 0 36 -3.5t5 -16.5q-31 -141 -65.5 -256t-78.5 -237
q-3 -8 -14 -11.5t-35 -3.5h-15q-22 0 -33 3t-13 11l-63 235q-21 77 -42 180q-15 -77 -43 -181l-62 -235q-2 -8 -12 -10.5t-37 -2.5h-9q-30 0 -40.5 2.5zM389 676l-112 -95q-2 -2 -4 -2q-9 0 -20 13l-7 8q-17 19 -10 27l91 97q11 13 44 13h38q33 0 45 -14l89 -94q3 -3 3 -7
q0 -7 -13 -22l-8 -9q-7 -8 -14.5 -11.5t-11.5 0.5z" />
    <glyph glyph-name="wdieresis" unicode="&#x1e85;" horiz-adv-x="777" 
d="M182.5 2.5q-10.5 2.5 -12.5 10.5l-149 501q-2 9 6 11.5t34 2.5q30 0 41 -2.5t13 -8.5l113 -413l106 410q2 8 10.5 11t34.5 3h21q23 0 31 -3t10 -11l110 -411q41 129 66 221.5t42 191.5q1 7 9.5 9.5t35.5 2.5q28 0 36 -3.5t5 -16.5q-31 -141 -65.5 -256t-78.5 -237
q-3 -8 -14 -11.5t-35 -3.5h-15q-22 0 -33 3t-13 11l-63 235q-21 77 -42 180q-15 -77 -43 -181l-62 -235q-2 -8 -12 -10.5t-37 -2.5h-9q-30 0 -40.5 2.5zM232.5 614.5q-16.5 16.5 -16.5 40.5t16.5 40.5t40.5 16.5t40.5 -16.5t16.5 -40.5t-16.5 -40.5t-40.5 -16.5t-40.5 16.5z
M465.5 614.5q-16.5 16.5 -16.5 40.5t16.5 40.5t40.5 16.5t40.5 -16.5t16.5 -40.5t-16.5 -40.5t-40.5 -16.5t-40.5 16.5z" />
    <glyph glyph-name="wgrave" unicode="&#x1e81;" horiz-adv-x="777" 
d="M182.5 2.5q-10.5 2.5 -12.5 10.5l-149 501q-2 9 6 11.5t34 2.5q30 0 41 -2.5t13 -8.5l113 -413l106 410q2 8 10.5 11t34.5 3h21q23 0 31 -3t10 -11l110 -411q41 129 66 221.5t42 191.5q1 7 9.5 9.5t35.5 2.5q28 0 36 -3.5t5 -16.5q-31 -141 -65.5 -256t-78.5 -237
q-3 -8 -14 -11.5t-35 -3.5h-15q-22 0 -33 3t-13 11l-63 235q-21 77 -42 180q-15 -77 -43 -181l-62 -235q-2 -8 -12 -10.5t-37 -2.5h-9q-30 0 -40.5 2.5zM378 590l-94 128q-4 5 5.5 9.5t34.5 4.5h13q40 0 46 -11l73 -128q6 -12 -32 -12h-9q-30 0 -37 9z" />
    <glyph glyph-name="x" unicode="x" horiz-adv-x="519" 
d="M43 3q-10 3 -5 11l171 261l-153 241q-5 7 5 9.5t41 2.5q34 0 44.5 -2t14.5 -9l101 -165l99 165q4 7 15.5 9t39.5 2q29 0 39 -3t5 -11l-150 -232l176 -270q4 -7 -6 -9.5t-41 -2.5q-33 0 -43 2t-15 9l-124 196l-120 -196q-5 -6 -16.5 -8.5t-38.5 -2.5q-29 0 -39 3z" />
    <glyph glyph-name="y" unicode="y" horiz-adv-x="507" 
d="M31 -228q-22 5 -38 13q-8 4 -8 12q0 5 5 20l4 12q6 18 10 22.5t12 2.5q32 -9 54 -9q50 0 83 32.5t64 116.5l-199 520q-4 9 6 11.5t41 2.5q27 0 38 -2.5t13 -8.5l94 -249q36 -95 55 -171q11 46 51 164l89 256q2 7 11.5 9t33.5 2q29 0 39 -3t7 -11l-189 -526
q-40 -112 -85 -160q-57 -61 -149 -61q-20 0 -42 5z" />
    <glyph glyph-name="yacute" unicode="&#xfd;" horiz-adv-x="507" 
d="M31 -228q-22 5 -38 13q-8 4 -8 12q0 5 5 20l4 12q6 18 10 22.5t12 2.5q32 -9 54 -9q50 0 83 32.5t64 116.5l-199 520q-4 9 6 11.5t41 2.5q27 0 38 -2.5t13 -8.5l94 -249q36 -95 55 -171q11 46 51 164l89 256q2 7 11.5 9t33.5 2q29 0 39 -3t7 -11l-189 -526
q-40 -112 -85 -160q-57 -61 -149 -61q-20 0 -42 5zM207 593l73 128q6 11 44 11h12q26 0 34.5 -4t4.5 -10l-94 -128q-5 -9 -36 -9h-8q-38 0 -30 12z" />
    <glyph glyph-name="ycircumflex" unicode="&#x177;" horiz-adv-x="507" 
d="M31 -228q-22 5 -38 13q-8 4 -8 12q0 5 5 20l4 12q6 18 10 22.5t12 2.5q32 -9 54 -9q50 0 83 32.5t64 116.5l-199 520q-4 9 6 11.5t41 2.5q27 0 38 -2.5t13 -8.5l94 -249q36 -95 55 -171q11 46 51 164l89 256q2 7 11.5 9t33.5 2q29 0 39 -3t7 -11l-189 -526
q-40 -112 -85 -160q-57 -61 -149 -61q-20 0 -42 5zM260 676l-112 -95q-2 -2 -4 -2q-9 0 -20 13l-7 8q-17 19 -10 27l91 97q11 13 44 13h38q33 0 45 -14l89 -94q3 -3 3 -7q0 -7 -13 -22l-8 -9q-7 -8 -14.5 -11.5t-11.5 0.5z" />
    <glyph glyph-name="ydieresis" unicode="&#xff;" horiz-adv-x="507" 
d="M31 -228q-22 5 -38 13q-8 4 -8 12q0 5 5 20l4 12q6 18 10 22.5t12 2.5q32 -9 54 -9q50 0 83 32.5t64 116.5l-199 520q-4 9 6 11.5t41 2.5q27 0 38 -2.5t13 -8.5l94 -249q36 -95 55 -171q11 46 51 164l89 256q2 7 11.5 9t33.5 2q29 0 39 -3t7 -11l-189 -526
q-40 -112 -85 -160q-57 -61 -149 -61q-20 0 -42 5zM103.5 614.5q-16.5 16.5 -16.5 40.5t16.5 40.5t40.5 16.5t40.5 -16.5t16.5 -40.5t-16.5 -40.5t-40.5 -16.5t-40.5 16.5zM336.5 614.5q-16.5 16.5 -16.5 40.5t16.5 40.5t40.5 16.5t40.5 -16.5t16.5 -40.5t-16.5 -40.5
t-40.5 -16.5t-40.5 16.5z" />
    <glyph glyph-name="ygrave" unicode="&#x1ef3;" horiz-adv-x="507" 
d="M31 -228q-22 5 -38 13q-8 4 -8 12q0 5 5 20l4 12q6 18 10 22.5t12 2.5q32 -9 54 -9q50 0 83 32.5t64 116.5l-199 520q-4 9 6 11.5t41 2.5q27 0 38 -2.5t13 -8.5l94 -249q36 -95 55 -171q11 46 51 164l89 256q2 7 11.5 9t33.5 2q29 0 39 -3t7 -11l-189 -526
q-40 -112 -85 -160q-57 -61 -149 -61q-20 0 -42 5zM249 590l-94 128q-4 5 5.5 9.5t34.5 4.5h13q40 0 46 -11l73 -128q6 -12 -32 -12h-9q-30 0 -37 9z" />
    <glyph glyph-name="z" unicode="z" horiz-adv-x="455" 
d="M42 6q-2 6 -2 22v9q0 12 1.5 18t6.5 14l249 382h-236q-5 0 -7 6t-2 26v14q0 19 2 25t7 6h341q5 0 7 -6t2 -22v-7q0 -13 -1.5 -20t-6.5 -14l-249 -382h254q5 0 7 -6t2 -26v-14q0 -19 -2 -25t-7 -6h-359q-5 0 -7 6z" />
    <glyph glyph-name="zacute" unicode="&#x17a;" horiz-adv-x="455" 
d="M42 6q-2 6 -2 22v9q0 12 1.5 18t6.5 14l249 382h-236q-5 0 -7 6t-2 26v14q0 19 2 25t7 6h341q5 0 7 -6t2 -22v-7q0 -13 -1.5 -20t-6.5 -14l-249 -382h254q5 0 7 -6t2 -26v-14q0 -19 -2 -25t-7 -6h-359q-5 0 -7 6zM182 593l73 128q6 11 44 11h12q26 0 34.5 -4t4.5 -10
l-94 -128q-5 -9 -36 -9h-8q-38 0 -30 12z" />
    <glyph glyph-name="zcaron" unicode="&#x17e;" horiz-adv-x="455" 
d="M42 6q-2 6 -2 22v9q0 12 1.5 18t6.5 14l249 382h-236q-5 0 -7 6t-2 26v14q0 19 2 25t7 6h341q5 0 7 -6t2 -22v-7q0 -13 -1.5 -20t-6.5 -14l-249 -382h254q5 0 7 -6t2 -26v-14q0 -19 -2 -25t-7 -6h-359q-5 0 -7 6zM171 589l-89 94q-2 2 -2 6q0 8 12 22l8 9q7 8 15.5 12.5
t12.5 0.5l112 -98l109 95q2 2 5 2q9 0 20 -13l6 -7q17 -18 9 -27l-91 -97q-11 -13 -44 -13h-38q-33 0 -45 14z" />
    <glyph glyph-name="zdotaccent" unicode="&#x17c;" horiz-adv-x="455" 
d="M42 6q-2 6 -2 22v9q0 12 1.5 18t6.5 14l249 382h-236q-5 0 -7 6t-2 26v14q0 19 2 25t7 6h341q5 0 7 -6t2 -22v-7q0 -13 -1.5 -20t-6.5 -14l-249 -382h254q5 0 7 -6t2 -26v-14q0 -19 -2 -25t-7 -6h-359q-5 0 -7 6zM196 622q-17 17 -17 40t17 39.5t40 16.5t39.5 -16.5
t16.5 -39.5t-16.5 -40t-39.5 -17t-40 17z" />
    <glyph glyph-name="iacute_j.loclNLD" horiz-adv-x="493" 
d="M82.5 2.5q-7.5 2.5 -7.5 9.5v504q0 7 7.5 9.5t35.5 2.5h6q27 0 34 -3t7 -9v-504q0 -6 -7 -9t-34 -3h-6q-28 0 -35.5 2.5zM66 593l73 128q6 11 44 11h12q26 0 34.5 -4t4.5 -10l-94 -128q-5 -9 -36 -9h-8q-38 0 -30 12zM194 -229.5q-21 4.5 -32 10.5q-6 3 -6 11q0 5 3 19
l3 15q3 15 7 19.5t12 3.5q35 -7 46 -7q54 0 77.5 37t23.5 122v515q0 7 7.5 9.5t35.5 2.5h6q27 0 34 -3t7 -9v-513q0 -237 -185 -237q-18 0 -39 4.5zM320 593l73 128q6 11 44 11h12q26 0 34.5 -4t4.5 -10l-94 -128q-5 -9 -36 -9h-8q-38 0 -30 12z" />
    <glyph glyph-name="cacute.loclPLK" horiz-adv-x="487" 
d="M148.5 24.5q-51.5 34.5 -77.5 95t-26 136.5q0 89 32 152.5t88 96.5t126 33q45 0 86.5 -14t74.5 -38q5 -5 5 -10q0 -10 -11 -36q-13 -29 -24 -29q-5 0 -8 3q-62 42 -118 42q-71 0 -114 -51.5t-43 -142.5q0 -81 36 -135.5t111 -54.5q63 0 127 31q4 2 6 2q12 0 20 -22l5 -13
q6 -13 6 -24q0 -8 -6 -11q-80 -45 -170 -45q-74 0 -125.5 34.5zM250 583.5q-7 2.5 -5 9.5l28 128q2 6 9.5 8.5t30.5 2.5h11q29 0 35.5 -3t4.5 -11l-49 -128q-3 -6 -8.5 -7.5t-23.5 -1.5h-3q-23 0 -30 2.5z" />
    <glyph glyph-name="nacute.loclPLK" horiz-adv-x="585" 
d="M85.5 2.5q-7.5 2.5 -7.5 9.5v341l-1 118q-1 20 -1 45q0 7 7.5 9.5t33.5 2.5h5q26 0 33.5 -2.5t7.5 -9.5l1 -45h1q26 30 71 48.5t92 18.5q41 0 76.5 -13.5t60.5 -39.5q27 -28 39 -68.5t12 -101.5v-303q0 -6 -7 -9t-34 -3h-6q-28 0 -35.5 2.5t-7.5 9.5v261q0 66 -5 96.5
t-22 50.5q-27 33 -95 33q-29 0 -59 -9.5t-47 -26.5q-11 -10 -17.5 -25.5t-9.5 -45.5q-3 -42 -3 -137v-197q0 -6 -7 -9t-34 -3h-6q-28 0 -35.5 2.5zM276 583.5q-7 2.5 -5 9.5l28 128q2 6 9.5 8.5t30.5 2.5h11q29 0 35.5 -3t4.5 -11l-49 -128q-3 -6 -8.5 -7.5t-23.5 -1.5h-3
q-23 0 -30 2.5z" />
    <glyph glyph-name="oacute.loclPLK" horiz-adv-x="568" 
d="M124 40q-38 33 -58.5 87.5t-20.5 124.5q0 139 67 212.5t182 73.5q94 0 150 -50q38 -33 58.5 -87.5t20.5 -124.5q0 -139 -67 -212.5t-182 -73.5q-94 0 -150 50zM386.5 119q42.5 49 42.5 150q0 79 -32 134t-107 55q-66 0 -108.5 -49t-42.5 -150q0 -79 32 -134t107 -55
q66 0 108.5 49zM249 583.5q-7 2.5 -5 9.5l28 128q2 6 9.5 8.5t30.5 2.5h11q29 0 35.5 -3t4.5 -11l-49 -128q-3 -6 -8.5 -7.5t-23.5 -1.5h-3q-23 0 -30 2.5z" />
    <glyph glyph-name="sacute.loclPLK" horiz-adv-x="458" 
d="M124 4q-44 14 -74 36q-6 5 -6 10q0 4 10 26l5 11q7 15 11 20t8 5q6 0 11 -4q31 -18 65 -29t65 -11q41 0 75.5 20.5t34.5 60.5q0 36 -32 54t-83 29q-43 10 -71.5 21.5t-47.5 29.5q-19 17 -29.5 42.5t-10.5 54.5q0 48 25 83.5t67.5 55t92.5 19.5q46 0 88 -15t70 -40
q6 -4 6 -12q0 -10 -10 -24l-7 -10q-13 -18 -18.5 -21.5t-11.5 1.5q-31 22 -58 33t-58 11q-38 0 -69 -17t-31 -54q0 -36 27 -51.5t77 -28.5q51 -13 86.5 -29t59 -46.5t23.5 -79.5q0 -77 -57 -121t-143 -44q-46 0 -90 14zM199 583.5q-7 2.5 -5 9.5l28 128q2 6 9.5 8.5
t30.5 2.5h11q29 0 35.5 -3t4.5 -11l-49 -128q-3 -6 -8.5 -7.5t-23.5 -1.5h-3q-23 0 -30 2.5z" />
    <glyph glyph-name="zacute.loclPLK" horiz-adv-x="455" 
d="M42 6q-2 6 -2 22v9q0 12 1.5 18t6.5 14l249 382h-236q-5 0 -7 6t-2 26v14q0 19 2 25t7 6h341q5 0 7 -6t2 -22v-7q0 -13 -1.5 -20t-6.5 -14l-249 -382h254q5 0 7 -6t2 -26v-14q0 -19 -2 -25t-7 -6h-359q-5 0 -7 6zM197 583.5q-7 2.5 -5 9.5l28 128q2 6 9.5 8.5t30.5 2.5
h11q29 0 35.5 -3t4.5 -11l-49 -128q-3 -6 -8.5 -7.5t-23.5 -1.5h-3q-23 0 -30 2.5z" />
    <glyph glyph-name="ordfeminine" unicode="&#xaa;" horiz-adv-x="424" 
d="M83 418.5q-37 49.5 -37 124.5q0 55 20 97.5t55 66t79 23.5q56 0 91 -38l2 22q1 10 25 10h16q28 0 28 -8l-1 -101v-92q0 -80 5 -140q0 -4 -8 -6t-33 -2h-3q-20 0 -24.5 1.5t-5.5 6.5l-3 23q-17 -17 -43.5 -27t-55.5 -10q-70 0 -107 49.5zM266 456q17 21 17 79v93
q-12 15 -30.5 25.5t-38.5 10.5q-42 0 -65 -31.5t-23 -85.5q0 -47 19 -79.5t61 -32.5q43 0 60 21z" />
    <glyph glyph-name="ordmasculine" unicode="&#xba;" horiz-adv-x="429" 
d="M102 402q-27 22 -41.5 58t-14.5 82q0 91 47 139.5t127 48.5q70 0 107 -33q27 -22 41.5 -58t14.5 -82q0 -91 -47 -139.5t-128 -48.5q-68 0 -106 33zM277 464q26 29 26 89q0 47 -20 79t-65 32q-40 0 -66 -29t-26 -89q0 -47 20 -79t65 -32q40 0 66 29z" />
    <glyph glyph-name="uni0394" unicode="&#x394;" horiz-adv-x="601" 
d="M38.5 3q-7.5 3 -7.5 11v44q0 23 9 50l209 602q2 6 11.5 8t34.5 2h17q23 0 33 -2t12 -8l204 -602q9 -27 9 -50v-44q0 -8 -7.5 -11t-27.5 -3h-469q-20 0 -27.5 3zM467 79l-167 541l-173 -541h340z" />
    <glyph glyph-name="uni03A9" unicode="&#x3a9;" horiz-adv-x="748" 
d="M53 7.5q-2 7.5 -2 24.5v12q0 16 2 23t7 7h121q-53 43 -81 115t-28 168q0 116 39 200t109 128.5t162 44.5q93 0 160 -45t102.5 -127t35.5 -191q0 -102 -31 -175t-87 -118h126q5 0 7 -7t2 -23v-12q0 -17 -2 -24.5t-7 -7.5h-259q-5 0 -7 6.5t-2 22.5v16q0 14 2 19.5t7 7.5
q75 21 112.5 98.5t37.5 189.5q0 141 -53 215t-146 74q-97 0 -153.5 -76.5t-56.5 -220.5q0 -113 36 -186t113 -95q5 -1 7 -7t2 -20v-15q0 -16 -2 -22.5t-7 -6.5h-259q-5 0 -7 7.5z" />
    <glyph glyph-name="uni03BC" unicode="&#x3bc;" horiz-adv-x="595" 
d="M88 -229.5q-8 2.5 -10 10.5q-6 20 -6 180v555q0 6 7 9t34 3h6q28 0 35.5 -2.5t7.5 -9.5v-261q0 -62 5 -94.5t20 -50.5q27 -35 91 -35q31 0 58 9t47 27q21 21 26 71q3 42 3 137v197q0 6 7 9t34 3h6q28 0 35.5 -2.5t7.5 -9.5v-391q0 -26 3 -37.5t9.5 -14t21.5 -2.5
q6 0 7.5 -4t1.5 -23v-5q0 -20 -1 -25.5t-5 -6.5q-25 -9 -46 -9q-26 0 -44.5 17t-27.5 48q-26 -34 -66 -53.5t-92 -19.5q-61 0 -101 35v-52q0 -160 6 -192q1 -7 -8 -10t-35 -3h-6q-23 0 -31 2.5z" />
    <glyph glyph-name="pi" unicode="&#x3c0;" horiz-adv-x="648" 
d="M431.5 11q-25.5 21 -34 58.5t-8.5 96.5v291h-181v-445q0 -6 -7 -9t-34 -3h-6q-28 0 -35.5 2.5t-7.5 9.5v445h-88q-5 0 -7 6t-2 26v8q0 19 2 25t7 6h565q5 0 7 -6t2 -25v-8q0 -20 -2 -26t-7 -6h-116v-281q0 -42 2.5 -62.5t13 -31.5t33.5 -11q30 0 57 17q1 1 4 1
q8 0 19 -23l4 -8q9 -19 9 -25q0 -5 -4 -8q-51 -35 -112 -35q-48 0 -73.5 21z" />
    <glyph glyph-name="zero" unicode="0" 
d="M104.5 79.5q-61.5 89.5 -61.5 265.5q0 186 66 285.5t185 99.5q111 0 172.5 -88t61.5 -266q0 -185 -65.5 -285.5t-185.5 -100.5q-111 0 -172.5 89.5zM393.5 147q39.5 78 39.5 224q0 138 -36.5 209t-106.5 71q-72 0 -111.5 -76.5t-39.5 -222.5q0 -139 36 -211t106 -72
q73 0 112.5 78z" />
    <glyph glyph-name="one" unicode="1" 
d="M147.5 5.5q-1.5 5.5 -1.5 23.5v16q0 18 1.5 23.5t6.5 5.5h112v537l-141 -84q-5 -3 -13 3t-15 19l-7 12q-9 17 -9 27q0 7 3 8l183 114q17 10 41 10h18q19 0 27 -2.5t8 -8.5v-635h104q4 0 6 -6.5t2 -21.5v-17q0 -29 -8 -29h-311q-5 0 -6.5 5.5z" />
    <glyph glyph-name="two" unicode="2" 
d="M72.5 7.5q-2.5 7.5 -2.5 27.5v18q0 34 14 49l140 162q63 72 93.5 113t45 75.5t14.5 74.5q0 59 -35 90.5t-93 31.5q-64 0 -136 -44q-4 -2 -10.5 4.5t-12.5 18.5l-5 10q-7 14 -7 24q0 6 4 10q38 27 86.5 42.5t98.5 15.5q57 0 103 -22.5t73 -66t27 -104.5q0 -53 -20 -101
t-55 -94.5t-101 -122.5l-121 -139h306q5 0 7 -8t2 -25v-13q0 -18 -2 -26t-7 -8h-397q-7 0 -9.5 7.5z" />
    <glyph glyph-name="three" unicode="3" 
d="M149 -0.5q-44 9.5 -81 26.5q-4 2 -4 9t6 25l7 17q11 27 20 23q29 -15 66 -23t70 -8q67 0 110 35.5t43 99.5q0 68 -52 102.5t-128 34.5h-39q-5 0 -6.5 5.5t-1.5 23.5v17q0 18 1.5 23.5t6.5 5.5h38q69 0 112.5 31t43.5 93q0 58 -36 86t-91 28q-30 0 -63 -8t-60 -23
q-1 -1 -3 -1q-7 0 -17 22l-7 15q-6 15 -6 22t4 9q75 40 159 40q57 0 106 -20.5t78.5 -62t29.5 -100.5t-30 -104t-77 -60q54 -10 94 -55.5t40 -120.5q0 -69 -34.5 -118.5t-90.5 -74t-122 -24.5q-42 0 -86 9.5z" />
    <glyph glyph-name="four" unicode="4" 
d="M340 11v172h-266q-20 0 -27.5 3t-7.5 11v44q0 27 12 54l200 413q5 12 45 12h16q19 0 30 -3.5t8 -10.5l-213 -443h203v159q0 11 41 11h11q43 0 43 -11v-159h81q5 0 7 -8t2 -25v-13q0 -18 -2 -26t-7 -8h-81v-172q0 -11 -41 -11h-11q-43 0 -43 11z" />
    <glyph glyph-name="five" unicode="5" 
d="M152.5 -2q-42.5 8 -73.5 21q-5 3 -5 10t5 25l4 13q10 33 20 29q61 -25 134 -25q72 0 116.5 41t44.5 116q0 146 -150 146q-69 0 -141 -16v362h357q5 0 7 -8t2 -25v-13q0 -18 -2 -26t-7 -8h-264v-195q37 7 64 7q101 0 165 -54.5t64 -163.5q0 -79 -34.5 -134t-94 -82.5
t-135.5 -27.5q-34 0 -76.5 8z" />
    <glyph glyph-name="six" unicode="6" 
d="M115.5 75q-52.5 85 -52.5 227q0 112 29 208.5t95 158t169 61.5q68 0 126 -29q5 -2 5 -10q0 -10 -5 -24l-3 -9q-6 -17 -10.5 -25t-8.5 -6q-22 12 -50 18t-54 6q-88 0 -133.5 -70.5t-57.5 -176.5q58 45 144 45q104 0 158 -59.5t54 -161.5q0 -69 -26 -123t-76 -84.5
t-120 -30.5q-131 0 -183.5 85zM396 113q29 44 29 106q0 67 -28 109.5t-97 42.5q-38 0 -75 -12t-66 -31v-26q0 -101 28.5 -167t114.5 -66q65 0 94 44z" />
    <glyph glyph-name="seven" unicode="7" 
d="M153 3q-11 3 -9 9l265 628h-324q-5 0 -7 8t-2 26v13q0 17 2 25t7 8h381q20 0 27.5 -3t7.5 -11v-49q0 -18 -9 -41l-249 -606q-4 -10 -44 -10h-16q-19 0 -30 3z" />
    <glyph glyph-name="eight" unicode="8" 
d="M164 11.5q-51 21.5 -81.5 65.5t-30.5 109q0 69 40.5 120t103.5 74q-52 19 -84.5 62t-32.5 105q0 59 29.5 100t78 62t103.5 21q53 0 99.5 -19.5t74.5 -58t28 -93.5q0 -60 -34 -103.5t-85 -66.5q64 -25 104.5 -72t40.5 -117q0 -64 -32.5 -111.5t-87.5 -73t-122 -25.5
q-61 0 -112 21.5zM369 481.5q29 29.5 29 71.5q0 45 -31 72.5t-81 27.5q-49 0 -81 -28t-32 -73q0 -43 31 -71.5t85 -50.5q51 22 80 51.5zM381.5 103q41.5 35 41.5 90t-38.5 87.5t-103.5 58.5q-60 -23 -97 -59.5t-37 -89.5q0 -57 37.5 -89.5t96.5 -32.5t100.5 35z" />
    <glyph glyph-name="nine" unicode="9" 
d="M70 24q-5 3 -5 13q0 12 6 25l4 9q5 12 13 20t13 5q23 -12 54.5 -19.5t60.5 -7.5q101 0 144.5 81.5t50.5 202.5q-30 -26 -72.5 -41t-84.5 -15q-101 0 -152 56.5t-51 152.5q0 65 26.5 116t78 79.5t123.5 28.5q128 0 179 -85t51 -227q0 -184 -68 -306t-225 -122
q-80 0 -146 34zM415 425v12q0 93 -28.5 154t-110.5 61q-67 0 -98.5 -41t-31.5 -96q0 -61 27 -100t94 -39q69 0 148 49z" />
    <glyph glyph-name="uni00B9" unicode="&#xb9;" horiz-adv-x="400" 
d="M112 400v12q0 24 8 24h60v251l-75 -43q-1 -1 -3 -1q-7 0 -18 17l-8 15q-4 8 -5 16t2 10l100 59q18 10 38 10h19q27 0 27 -9v-325h51q8 0 8 -24v-12q0 -24 -8 -24h-188q-8 0 -8 24z" />
    <glyph glyph-name="uni00B2" unicode="&#xb2;" horiz-adv-x="400" 
d="M67 398v11q0 15 10 27l77 81q50 53 69.5 83.5t19.5 58.5q0 54 -67 54q-38 0 -75 -23l-3 -1q-8 0 -14 11l-13 24q-2 3 -2 9q0 8 4 12q47 32 118 32q56 0 92.5 -30t36.5 -83q0 -42 -22 -80.5t-75 -91.5l-50 -51h155q8 0 8 -24v-17q0 -24 -8 -24h-254q-7 0 -7 22z" />
    <glyph glyph-name="uni00B3" unicode="&#xb3;" horiz-adv-x="400" 
d="M74 388q-4 2 -4 9q0 8 5 18l6 14q9 20 17 17q35 -14 78 -14q42 0 66.5 15t24.5 42q0 32 -30.5 47t-77.5 15h-37q-9 0 -9 24v13q0 23 9 23h36q43 0 69 12.5t26 40.5q0 26 -20 39t-51 13q-47 0 -79 -23h-2q-6 0 -15 17l-6 12q-10 21 -2 25q41 30 111 30q62 0 101.5 -27
t39.5 -76q0 -33 -18.5 -57t-49.5 -34q35 -6 59 -30.5t24 -66.5q0 -55 -46 -86t-115 -31q-67 0 -110 19z" />
    <glyph glyph-name="fraction" unicode="&#x2044;" horiz-adv-x="386" 
d="M-17 -6l337 734q5 9 33 9h17q34 0 29 -11l-336 -734q-4 -9 -33 -9h-18q-34 0 -29 11z" />
    <glyph glyph-name="onehalf" unicode="&#xbd;" horiz-adv-x="900" 
d="M233 -6l337 734q5 9 33 9h17q34 0 29 -11l-336 -734q-4 -9 -33 -9h-18q-34 0 -29 11zM110 350v12q0 24 8 24h60v251l-75 -43q-1 -1 -3 -1q-7 0 -18 17l-8 15q-4 8 -5 16t2 10l100 59q18 10 38 10h19q27 0 27 -9v-325h51q8 0 8 -24v-12q0 -24 -8 -24h-188q-8 0 -8 24z
M551 22v11q0 15 10 27l77 81q50 53 69.5 83.5t19.5 58.5q0 54 -67 54q-38 0 -75 -23l-3 -1q-8 0 -14 11l-13 24q-2 3 -2 9q0 8 4 12q47 32 118 32q56 0 92.5 -30t36.5 -83q0 -42 -22 -80.5t-75 -91.5l-50 -51h155q8 0 8 -24v-17q0 -24 -8 -24h-254q-7 0 -7 22z" />
    <glyph glyph-name="onequarter" unicode="&#xbc;" horiz-adv-x="900" 
d="M233 -6l337 734q5 9 33 9h17q34 0 29 -11l-336 -734q-4 -9 -33 -9h-18q-34 0 -29 11zM110 350v12q0 24 8 24h60v251l-75 -43q-1 -1 -3 -1q-7 0 -18 17l-8 15q-4 8 -5 16t2 10l100 59q18 10 38 10h19q27 0 27 -9v-325h51q8 0 8 -24v-12q0 -24 -8 -24h-188q-8 0 -8 24z
M712.5 2q-6.5 2 -6.5 8v79h-178q-7 0 -7 22v22q0 14 13 38l112 213q3 6 10 8t28 2h8q25 0 32 -2.5t4 -7.5l-121 -231h99v75q0 6 6.5 8t30.5 2h5q23 0 29 -2.5t6 -7.5v-75h37q8 0 8 -24v-16q0 -24 -8 -24h-37v-79q0 -5 -6 -7.5t-29 -2.5h-5q-24 0 -30.5 2z" />
    <glyph glyph-name="threequarters" unicode="&#xbe;" horiz-adv-x="900" 
d="M255 -6l337 734q5 9 33 9h17q34 0 29 -11l-336 -734q-4 -9 -33 -9h-18q-34 0 -29 11zM67 338q-4 2 -4 9q0 8 5 18l6 14q9 20 17 17q35 -14 78 -14q42 0 66.5 15t24.5 42q0 32 -30.5 47t-77.5 15h-37q-9 0 -9 24v13q0 23 9 23h36q43 0 69 12.5t26 40.5q0 26 -20 39t-51 13
q-47 0 -79 -23h-2q-6 0 -15 17l-6 12q-10 21 -2 25q41 30 111 30q62 0 101.5 -27t39.5 -76q0 -33 -18.5 -57t-49.5 -34q35 -6 59 -30.5t24 -66.5q0 -55 -46 -86t-115 -31q-67 0 -110 19zM724.5 2q-6.5 2 -6.5 8v79h-178q-7 0 -7 22v22q0 14 13 38l112 213q3 6 10 8t28 2h8
q25 0 32 -2.5t4 -7.5l-121 -231h99v75q0 6 6.5 8t30.5 2h5q23 0 29 -2.5t6 -7.5v-75h37q8 0 8 -24v-16q0 -24 -8 -24h-37v-79q0 -5 -6 -7.5t-29 -2.5h-5q-24 0 -30.5 2z" />
    <glyph glyph-name="asterisk" unicode="*" horiz-adv-x="397" 
d="M130 416q-9 0 -26 13l-11 9q-25 19 -18 26l75 87l-109 25q-6 2 -6 10q0 7 5 25l5 15q5 18 9.5 23t10.5 3l103 -43l-9 110q0 6 7 8.5t25 2.5h14q30 0 30 -11l-9 -110l105 43q7 2 11.5 -4t9.5 -23l5 -14q5 -18 5 -25t-5 -9l-114 -26l78 -85q8 -10 -19 -28l-12 -9
q-14 -9 -21 -11.5t-10 2.5l-63 96l-59 -96q-1 -4 -7 -4z" />
    <glyph glyph-name="backslash" unicode="\" horiz-adv-x="336" 
d="M232 -7l-219 733q-3 12 32 12h23q19 0 26 -2t9 -8l220 -733q3 -12 -31 -12h-24q-33 0 -36 10z" />
    <glyph glyph-name="periodcentered" unicode="&#xb7;" horiz-adv-x="241" 
d="M76.5 313.5q-19.5 19.5 -19.5 47.5t19.5 48t47.5 20q29 0 48.5 -19.5t19.5 -48.5q0 -28 -20 -47.5t-48 -19.5t-47.5 19.5z" />
    <glyph glyph-name="bullet" unicode="&#x2022;" horiz-adv-x="335" 
d="M80.5 262.5q-35.5 35.5 -35.5 85.5q0 52 35.5 88t85.5 36q52 0 88 -36t36 -88q0 -50 -36 -85.5t-88 -35.5q-50 0 -85.5 35.5z" />
    <glyph glyph-name="colon" unicode=":" horiz-adv-x="241" 
d="M76.5 382.5q-19.5 19.5 -19.5 47.5t19.5 47.5t47.5 19.5t47.5 -19.5t19.5 -47.5t-19.5 -47.5t-47.5 -19.5t-47.5 19.5zM76.5 9.5q-19.5 19.5 -19.5 47.5t19.5 47.5t47.5 19.5t47.5 -19.5t19.5 -47.5t-19.5 -47.5t-47.5 -19.5t-47.5 19.5z" />
    <glyph glyph-name="comma" unicode="," horiz-adv-x="241" 
d="M71 -169q-9 0 -16 7l-11 12q-7 7 -7 15q0 7 5 12q58 56 58 100q0 13 -4.5 20t-14.5 17q-12 10 -18.5 21t-6.5 32q0 26 18.5 42t44.5 16q34 0 53.5 -22.5t19.5 -55.5q0 -58 -29.5 -115t-78.5 -96q-7 -5 -13 -5z" />
    <glyph glyph-name="ellipsis" unicode="&#x2026;" horiz-adv-x="723" 
d="M76.5 9.5q-19.5 19.5 -19.5 47.5t19.5 48t47.5 20q29 0 48.5 -19.5t19.5 -48.5q0 -28 -20 -47.5t-48 -19.5t-47.5 19.5zM317.5 9.5q-19.5 19.5 -19.5 47.5t19.5 48t47.5 20q29 0 48.5 -19.5t19.5 -48.5q0 -28 -20 -47.5t-48 -19.5t-47.5 19.5zM558.5 9.5
q-19.5 19.5 -19.5 47.5t19.5 48t47.5 20q29 0 48.5 -19.5t19.5 -48.5q0 -28 -20 -47.5t-48 -19.5t-47.5 19.5z" />
    <glyph glyph-name="exclam" unicode="!" horiz-adv-x="303" 
d="M120 200q-8 2 -8 7l-18 500q0 7 11.5 10t36.5 3h14q26 0 37.5 -3t11.5 -10l-16 -500q0 -5 -7.5 -7t-24.5 -2h-11q-18 0 -26 2zM107 9q-19 19 -19 44q0 26 18.5 45t44.5 19t45 -19t19 -45t-19 -44.5t-45 -18.5q-25 0 -44 19z" />
    <glyph glyph-name="exclamdown" unicode="&#xa1;" horiz-adv-x="293" 
d="M102 430q-19 19 -19 45t19 44.5t45 18.5t44.5 -18.5t18.5 -44.5t-18.5 -45t-44.5 -19t-45 19zM104.5 -189q-11.5 3 -11.5 10l16 500q0 5 7.5 7t24.5 2h11q19 0 26.5 -2t7.5 -7l18 -500q0 -7 -11.5 -10t-36.5 -3h-14q-26 0 -37.5 3z" />
    <glyph glyph-name="numbersign" unicode="#" horiz-adv-x="588" 
d="M73.5 2q-7.5 2 -6.5 8l39 191h-77q-5 0 -7 6.5t-2 23.5v9q0 16 2 22.5t7 6.5h90l39 187h-83q-5 0 -7 6.5t-2 23.5v9q0 16 2 22.5t7 6.5h96l39 186q2 6 8 8t25 2h7q18 0 25 -2t6 -8l-37 -186h154l39 186q2 6 8 8t25 2h7q18 0 25 -2t6 -8l-36 -186h91q5 0 7 -6.5t2 -22.5
v-9q0 -17 -2 -23.5t-7 -6.5h-105l-38 -187h95q5 0 7 -6.5t2 -22.5v-9q0 -17 -2 -23.5t-7 -6.5h-109l-38 -191q-1 -6 -8 -8t-26 -2h-8q-18 0 -25.5 2t-6.5 8l38 191h-153l-38 -191q-1 -6 -8 -8t-26 -2h-8q-18 0 -25.5 2zM346 269l39 187h-154l-38 -187h153z" />
    <glyph glyph-name="period" unicode="." horiz-adv-x="241" 
d="M76.5 9.5q-19.5 19.5 -19.5 47.5t19.5 48t47.5 20q29 0 48.5 -19.5t19.5 -48.5q0 -28 -20 -47.5t-48 -19.5t-47.5 19.5z" />
    <glyph glyph-name="question" unicode="?" horiz-adv-x="412" 
d="M101 207v64q0 58 23.5 92.5t82.5 64.5q46 23 66.5 50t20.5 70q0 54 -31 76t-84 22q-54 0 -104 -25q-1 -1 -3 -1q-11 0 -21 20l-9 20q-4 9 -4 20q0 10 4 13q30 17 70 27t77 10q91 0 146 -41.5t55 -128.5q0 -69 -33.5 -119t-92.5 -80q-40 -21 -55 -39t-15 -47v-68
q0 -10 -39 -10h-13q-41 0 -41 10zM105 9q-19 19 -19 44q0 26 18.5 45t44.5 19t45 -19t19 -45t-19 -44.5t-45 -18.5q-25 0 -44 19z" />
    <glyph glyph-name="questiondown" unicode="&#xbf;" horiz-adv-x="412" 
d="M222 430q-19 19 -19 45t19 44.5t45 18.5t44.5 -18.5t18.5 -44.5t-18.5 -45t-44.5 -19t-45 19zM81 -160.5q-55 41.5 -55 128.5q0 69 33.5 119t92.5 80q40 21 55 39t15 47v68q0 10 39 10h13q41 0 41 -10v-64q0 -58 -23.5 -92.5t-82.5 -64.5q-46 -23 -66.5 -50t-20.5 -70
q0 -54 31 -76t84 -22q54 0 104 25q1 1 4 1q12 0 20 -20l9 -20q5 -12 5 -20q0 -10 -5 -13q-30 -17 -70 -27t-77 -10q-91 0 -146 41.5z" />
    <glyph glyph-name="quotedbl" unicode="&#x22;" horiz-adv-x="424" 
d="M79 451l-9 257q0 7 9 9.5t29 2.5h17q22 0 31.5 -2.5t9.5 -9.5l-10 -257q0 -10 -32 -10h-11q-34 0 -34 10zM267 451l-9 257q0 7 9 9.5t29 2.5h17q22 0 31.5 -2.5t9.5 -9.5l-10 -257q0 -10 -32 -10h-11q-34 0 -34 10z" />
    <glyph glyph-name="quotesingle" unicode="'" horiz-adv-x="236" 
d="M79 451l-9 256q0 13 38 13h17q41 0 41 -13l-10 -256q0 -10 -32 -10h-11q-34 0 -34 10z" />
    <glyph glyph-name="semicolon" unicode=";" horiz-adv-x="241" 
d="M72.5 382.5q-19.5 19.5 -19.5 47.5t19.5 47.5t47.5 19.5t47.5 -19.5t19.5 -47.5t-19.5 -47.5t-47.5 -19.5t-47.5 19.5zM68 -169q-9 0 -16 7l-11 12q-7 7 -7 15q0 7 5 12q58 56 58 100q0 13 -4.5 20t-14.5 17q-12 10 -18.5 21t-6.5 32q0 26 19 42t47 16q33 0 51.5 -22
t18.5 -56q0 -58 -29.5 -115t-78.5 -96q-7 -5 -13 -5z" />
    <glyph glyph-name="slash" unicode="/" horiz-adv-x="330" 
d="M12 -5l220 733q2 6 9.5 8t25.5 2h19q35 0 32 -12l-219 -733q-3 -10 -36 -10h-20q-34 0 -31 12z" />
    <glyph glyph-name="underscore" unicode="_" horiz-adv-x="500" 
d="M-9 -193q-2 6 -2 23v9q0 16 2 22t7 6h504q5 0 7 -6t2 -22v-9q0 -17 -2 -23t-7 -6h-504q-5 0 -7 6z" />
    <glyph glyph-name="braceleft" unicode="{" horiz-adv-x="326" 
d="M156.5 -87.5q-44.5 44.5 -44.5 124.5v131q0 46 -15 79t-51 36q-4 1 -5.5 9t-1.5 25v6q0 30 7 31q33 3 49.5 34t16.5 69v118q0 83 44.5 130.5t114.5 47.5h29q9 0 9 -32v-6q0 -35 -9 -35h-23q-38 0 -57 -26.5t-19 -69.5v-114q0 -53 -14.5 -99.5t-54.5 -51.5
q40 -7 54.5 -49.5t14.5 -92.5v-130q0 -47 19.5 -76.5t57.5 -29.5h25q9 0 9 -32v-6q0 -35 -9 -35h-29q-73 0 -117.5 44.5z" />
    <glyph glyph-name="braceright" unicode="}" horiz-adv-x="326" 
d="M15 -97v6q0 32 9 32h25q38 0 57.5 28t19.5 72v128q0 53 14.5 97.5t54.5 52.5q-39 5 -54 48.5t-15 93.5v119q0 45 -19 72.5t-57 27.5h-23q-9 0 -9 35v6q0 32 9 32h29q70 0 114.5 -44.5t44.5 -121.5v-119q0 -43 16.5 -77t49.5 -37q7 -1 7 -30v-8q0 -17 -1.5 -24.5
t-5.5 -8.5q-66 -6 -66 -107v-131q0 -83 -44.5 -130t-117.5 -47h-29q-9 0 -9 35z" />
    <glyph glyph-name="bracketleft" unicode="[" horiz-adv-x="326" 
d="M86 753h203q9 0 9 -32v-6q0 -35 -9 -35h-114v-739h117q9 0 9 -32v-6q0 -35 -9 -35h-206v885z" />
    <glyph glyph-name="bracketright" unicode="]" horiz-adv-x="326" 
d="M25 -97v6q0 32 9 32h117v739h-114q-9 0 -9 35v6q0 32 9 32h203v-885h-206q-9 0 -9 35z" />
    <glyph glyph-name="parenleft" unicode="(" horiz-adv-x="326" 
d="M124 54.5q-40 112.5 -40 255.5q0 144 40.5 259t99.5 193q2 3 7 3q9 0 27 -10l8 -4q30 -15 23 -25q-115 -179 -115 -408q0 -128 31 -229t87 -190q3 -6 -1.5 -12t-22.5 -14l-8 -4q-29 -14 -35 -7q-61 80 -101 192.5z" />
    <glyph glyph-name="parenright" unicode=")" horiz-adv-x="326" 
d="M97 -141q-8 0 -28 10l-8 4q-30 16 -24 26q57 93 87.5 191t30.5 228q0 122 -31 225t-84 183q-7 10 23 25l8 4q29 15 34 7q60 -78 100 -186t40 -246q0 -149 -40.5 -268t-100.5 -200q-3 -3 -7 -3z" />
    <glyph glyph-name="emdash" unicode="&#x2014;" horiz-adv-x="1000" 
d="M41 256q-2 7 -2 24v8q0 16 2 22t7 6h904q5 0 7 -6t2 -22v-8q0 -17 -2 -24t-7 -7h-904q-5 0 -7 7z" />
    <glyph glyph-name="endash" unicode="&#x2013;" horiz-adv-x="500" 
d="M41 256q-2 7 -2 24v8q0 16 2 22t7 6h404q5 0 7 -6t2 -22v-8q0 -17 -2 -24t-7 -7h-404q-5 0 -7 7z" />
    <glyph glyph-name="hyphen" unicode="-" horiz-adv-x="378" 
d="M45 274.5q-2 7.5 -2 24.5v9q0 16 2 23.5t7 7.5h274q5 0 7 -7.5t2 -23.5v-9q0 -17 -2 -24.5t-7 -7.5h-274q-5 0 -7 7.5z" />
    <glyph glyph-name="uni00AD" unicode="&#xad;" horiz-adv-x="378" 
d="M45 274.5q-2 7.5 -2 24.5v9q0 16 2 23.5t7 7.5h274q5 0 7 -7.5t2 -23.5v-9q0 -17 -2 -24.5t-7 -7.5h-274q-5 0 -7 7.5z" />
    <glyph glyph-name="guillemotleft" unicode="&#xab;" horiz-adv-x="511" 
d="M53 272q-7 11 -7 26v9q0 15 7 25l129 188q3 4 10 4t24 -6l8 -3q30 -12 24 -21l-116 -188l120 -194q6 -9 -22 -23l-8 -4q-16 -9 -27 -9q-7 0 -10 5zM261 272q-7 11 -7 26v9q0 15 7 25l129 188q3 4 10 4q8 0 24 -6l8 -3q30 -12 24 -21l-116 -188l120 -194q6 -9 -22 -23
l-8 -4q-16 -9 -27 -9q-7 0 -10 5z" />
    <glyph glyph-name="guillemotright" unicode="&#xbb;" horiz-adv-x="511" 
d="M111 76q-7 0 -24 6l-8 3q-30 12 -24 21l116 193l-120 189q-6 9 22 23l8 4q17 9 27 9q7 0 10 -5l132 -186q7 -10 7 -26v-9q0 -14 -7 -25l-129 -193q-3 -4 -10 -4zM319 76q-7 0 -24 6l-8 3q-30 12 -24 21l116 193l-120 189q-6 9 22 23l8 4q17 9 27 9q7 0 10 -5l132 -186
q7 -10 7 -26v-9q0 -14 -7 -25l-129 -193q-3 -4 -10 -4z" />
    <glyph glyph-name="guilsinglleft" unicode="&#x2039;" horiz-adv-x="303" 
d="M53 272q-7 11 -7 26v9q0 15 7 25l129 188q3 4 10 4t24 -6l8 -3q30 -12 24 -21l-116 -188l120 -194q6 -9 -22 -23l-8 -4q-16 -9 -27 -9q-7 0 -10 5z" />
    <glyph glyph-name="guilsinglright" unicode="&#x203a;" horiz-adv-x="303" 
d="M111 76q-7 0 -24 6l-8 3q-30 12 -24 21l116 193l-120 189q-6 9 22 23l8 4q17 9 27 9q7 0 10 -5l132 -186q7 -10 7 -26v-9q0 -14 -7 -25l-129 -193q-3 -4 -10 -4z" />
    <glyph glyph-name="quotedblbase" unicode="&#x201e;" horiz-adv-x="438" 
d="M80 -168q-9 0 -16 7l-10 11q-7 7 -7 15q0 7 5 12q58 56 58 100q0 13 -5 20.5t-14 16.5q-12 11 -18.5 22t-6.5 31q0 25 18 41t43 16q34 0 53.5 -22t19.5 -55q0 -58 -29 -114.5t-78 -95.5q-7 -5 -13 -5zM277 -168q-9 0 -16 7l-10 11q-7 7 -7 15q0 7 5 12q58 56 58 100
q0 13 -5 20.5t-14 16.5q-12 11 -18.5 22t-6.5 31q0 25 18 41t43 16q34 0 53.5 -22t19.5 -55q0 -58 -29 -114.5t-78 -95.5q-7 -5 -13 -5z" />
    <glyph glyph-name="quotedblleft" unicode="&#x201c;" horiz-adv-x="432" 
d="M60.5 468q-19.5 22 -19.5 54q0 57 28 112.5t74 94.5q7 5 14 5q8 0 15 -7l9 -10q7 -7 7 -16q0 -6 -5 -11q-54 -54 -54 -98q0 -13 4.5 -20.5t14.5 -17.5q12 -11 18 -22t6 -30q0 -25 -17 -40.5t-42 -15.5q-33 0 -52.5 22zM257.5 468q-19.5 22 -19.5 54q0 57 28 112.5
t74 94.5q7 5 14 5q8 0 15 -7l9 -10q7 -7 7 -16q0 -6 -5 -11q-54 -54 -54 -98q0 -13 4.5 -20.5t14.5 -17.5q12 -11 18 -22t6 -30q0 -25 -17 -40.5t-42 -15.5q-33 0 -52.5 22z" />
    <glyph glyph-name="quotedblright" unicode="&#x201d;" horiz-adv-x="432" 
d="M78 442q-8 0 -15 7l-9 10q-7 7 -7 16q0 6 5 11q54 54 54 98q0 13 -4.5 20.5t-14.5 17.5q-12 11 -18 22t-6 30q0 25 17 40.5t42 15.5q33 0 52.5 -21.5t19.5 -54.5q0 -57 -28 -112.5t-74 -94.5q-7 -5 -14 -5zM275 442q-8 0 -15 7l-9 10q-7 7 -7 16q0 6 5 11q54 54 54 98
q0 13 -4.5 20.5t-14.5 17.5q-12 11 -18 22t-6 30q0 25 17 40.5t42 15.5q33 0 52.5 -22t19.5 -54q0 -57 -28 -112.5t-74 -94.5q-7 -5 -14 -5z" />
    <glyph glyph-name="quoteleft" unicode="&#x2018;" horiz-adv-x="235" 
d="M60.5 469q-19.5 22 -19.5 54q0 57 28 112.5t74 94.5q7 5 14 5q8 0 15 -7l9 -10q7 -7 7 -16q0 -6 -5 -11q-54 -54 -54 -98q0 -13 4.5 -20.5t14.5 -17.5q12 -11 18 -22t6 -30q0 -25 -17 -40.5t-42 -15.5q-33 0 -52.5 22z" />
    <glyph glyph-name="quoteright" unicode="&#x2019;" horiz-adv-x="235" 
d="M78 442q-8 0 -15 7l-9 10q-7 7 -7 16q0 6 5 11q54 54 54 98q0 13 -4.5 20.5t-14.5 17.5q-12 11 -18 22t-6 30q0 25 17 40.5t42 15.5q33 0 52.5 -21.5t19.5 -54.5q0 -57 -28 -112.5t-74 -94.5q-7 -5 -14 -5z" />
    <glyph glyph-name="quotesinglbase" unicode="&#x201a;" horiz-adv-x="241" 
d="M80 -168q-9 0 -16 7l-10 11q-7 7 -7 15q0 7 5 12q58 56 58 100q0 13 -5 20.5t-14 16.5q-12 11 -18.5 22t-6.5 31q0 25 18 41t43 16q34 0 53.5 -22t19.5 -55q0 -58 -29 -114.5t-78 -95.5q-7 -5 -13 -5z" />
    <glyph glyph-name="uni2003" unicode="&#x2003;" horiz-adv-x="1000" 
 />
    <glyph glyph-name="uni2002" unicode="&#x2002;" horiz-adv-x="500" 
 />
    <glyph glyph-name="uni200A" unicode="&#x200a;" horiz-adv-x="100" 
 />
    <glyph glyph-name="uni00A0" unicode="&#xa0;" horiz-adv-x="250" 
 />
    <glyph glyph-name="uni2009" unicode="&#x2009;" horiz-adv-x="200" 
 />
    <glyph glyph-name="cent" unicode="&#xa2;" 
d="M287 2.5q-7 2.5 -7 8.5v92q-94 12 -144 80t-50 170q0 113 56 182t148 83v91q0 6 7.5 8.5t24.5 2.5h13q19 0 26 -2.5t7 -8.5v-90q63 -7 125 -50q5 -5 5 -10q0 -10 -11 -36q-13 -29 -24 -29q-5 0 -8 3q-30 22 -57 32t-61 10q-71 0 -114 -47.5t-43 -132.5q0 -75 36 -125.5
t111 -50.5q31 0 65 8.5t63 23.5q4 2 6 2q8 0 17 -23l4 -10q8 -21 8 -27t-5 -11q-59 -34 -127 -43v-92q0 -6 -7.5 -8.5t-24.5 -2.5h-13q-19 0 -26 2.5z" />
    <glyph glyph-name="currency" unicode="&#xa4;" 
d="M75.5 84q-6.5 3 -3.5 9l70 121q-39 53 -39 137q0 98 46 155l-69 120q-3 6 3.5 9t30.5 3h17q20 0 26.5 -2t11.5 -10l43 -73q36 15 81 15q40 0 73 -14l43 72q5 8 11.5 10t26.5 2h17q24 0 30.5 -3t3.5 -9l-70 -121q39 -52 39 -137q0 -98 -46 -155l69 -120q3 -6 -3.5 -9
t-30.5 -3h-17q-20 0 -26.5 2t-11.5 10l-43 73q-36 -15 -81 -15q-40 0 -73 14l-43 -72q-5 -8 -11.5 -10t-26.5 -2h-17q-24 0 -30.5 3zM355 260q29 34 29 103q0 55 -21.5 92.5t-72.5 37.5q-46 0 -75 -34t-29 -103q0 -55 21.5 -92.5t72.5 -37.5q46 0 75 34z" />
    <glyph glyph-name="dollar" unicode="$" 
d="M240 -73.5q-7 2.5 -7 8.5v87q-47 4 -86.5 19t-63.5 38q-5 3 -5 9q0 11 12 28l7 12q18 25 28 20q29 -22 67.5 -35.5t68.5 -13.5q57 0 94 27t37 76q0 34 -17 58t-42.5 40t-68.5 37q-51 25 -81.5 45t-52 53.5t-21.5 82.5q0 77 45 125t118 58v77q0 6 7.5 8.5t24.5 2.5h13
q19 0 26 -2.5t7 -8.5v-77q62 -9 112 -45q2 -1 2 -6q0 -7 -10 -26l-5 -9q-8 -13 -15 -18.5t-12 -2.5q-48 33 -107 33q-56 0 -85 -28.5t-29 -68.5q0 -28 15.5 -49t39 -36t64.5 -36q52 -26 85 -48.5t56 -58.5t23 -89q0 -79 -44.5 -130t-128.5 -61v-87q0 -6 -7.5 -8.5
t-24.5 -2.5h-13q-19 0 -26 2.5z" />
    <glyph glyph-name="Euro" unicode="&#x20ac;" 
d="M192 59q-68 69 -87 191h-78q-5 0 -7 6.5t-2 21.5v13q0 15 2 21t7 6h71v32q0 29 1 44h-59q-5 0 -7 6.5t-2 21.5v13q0 15 2 21t7 6h67q20 121 89 194.5t192 73.5q102 0 173 -50q4 -4 4 -10q0 -8 -7 -24l-6 -12q-6 -12 -13 -18.5t-11 -4.5q-65 38 -129 38q-72 0 -123.5 -47
t-70.5 -140h239q5 0 7 -6t2 -21v-13q0 -15 -2 -21.5t-7 -6.5h-247q-1 -12 -1 -38t1 -38h234q5 0 7 -6t2 -21v-13q0 -15 -2 -21.5t-7 -6.5h-225q16 -81 61.5 -129t126.5 -48q67 0 129 33q5 2 11.5 -3.5t12.5 -18.5l6 -13q7 -16 7 -24q0 -6 -4 -10q-79 -47 -180 -47
q-116 0 -184 69z" />
    <glyph glyph-name="florin" unicode="&#x192;" 
d="M15 -92q-5 2 -5 12q0 8 5 23l4 11q10 29 19 26q27 -11 59 -11q50 0 74.5 40.5t34.5 126.5l28 232h-100q-5 0 -7 6t-2 23v13q0 16 2 22t7 6h109l6 50q31 242 202 242q39 0 75 -16q5 -1 5 -12q0 -10 -4 -22l-3 -10q-4 -14 -9.5 -22t-9.5 -7q-25 10 -52 10q-51 0 -76 -40
t-35 -117l-7 -56h124q5 0 7 -6t2 -22v-13q0 -17 -2 -23t-7 -6h-133l-27 -222q-16 -125 -59 -190.5t-136 -65.5q-53 0 -89 18z" />
    <glyph glyph-name="sterling" unicode="&#xa3;" 
d="M75 8q-2 8 -2 26v11q0 29 10 36q37 26 56.5 68.5t19.5 94.5v95h-77q-5 0 -7 6.5t-2 23.5v12q0 16 2 22.5t7 6.5h77v81q0 110 54.5 174.5t161.5 64.5q34 0 70.5 -10t66.5 -30q3 -1 3 -8q0 -12 -7 -26l-4 -9q-5 -13 -12 -19.5t-13 -3.5q-28 15 -50 21t-46 6
q-70 0 -99.5 -39.5t-29.5 -113.5v-88h193q5 0 7 -6.5t2 -22.5v-12q0 -17 -2 -23.5t-7 -6.5h-193v-79q0 -67 -16 -110t-54 -70h333q5 0 7 -8t2 -25v-13q0 -18 -2 -26t-7 -8h-435q-5 0 -7 8z" />
    <glyph glyph-name="yen" unicode="&#xa5;" 
d="M237 11v170h-139q-5 0 -7 6.5t-2 21.5v9q0 15 2 21t7 6h139v34l-20 46h-119q-5 0 -7 6.5t-2 21.5v9q0 15 2 21t7 6h91l-140 319q-5 12 44 12h14q44 0 48 -11l136 -338l133 338q4 11 46 11h10q21 0 33 -3t9 -9l-141 -319h101q5 0 7 -6t2 -21v-9q0 -15 -2 -21.5t-7 -6.5
h-130l-20 -46v-34h150q5 0 7 -6t2 -21v-9q0 -15 -2 -21.5t-7 -6.5h-150v-170q0 -11 -43 -11h-11q-41 0 -41 11z" />
    <glyph glyph-name="dotmath" unicode="&#x22c5;" horiz-adv-x="241" 
d="M76.5 313.5q-19.5 19.5 -19.5 47.5t19.5 48t47.5 20q29 0 48.5 -19.5t19.5 -48.5q0 -28 -20 -47.5t-48 -19.5t-47.5 19.5z" />
    <glyph glyph-name="plus" unicode="+" 
d="M254 100.5q-7 2.5 -7 7.5v222h-209q-5 0 -7 6.5t-2 23.5v9q0 16 2 22.5t7 6.5h209v220q0 5 7 7.5t24 2.5h15q16 0 23 -2.5t7 -7.5v-220h209q5 0 7 -6.5t2 -22.5v-9q0 -17 -2 -23.5t-7 -6.5h-209v-222q0 -5 -7 -7.5t-23 -2.5h-15q-17 0 -24 2.5z" />
    <glyph glyph-name="minus" unicode="&#x2212;" 
d="M36 336.5q-2 6.5 -2 23.5v9q0 16 2 22.5t7 6.5h484q5 0 7 -6.5t2 -22.5v-9q0 -17 -2 -23.5t-7 -6.5h-484q-5 0 -7 6.5z" />
    <glyph glyph-name="multiply" unicode="&#xd7;" 
d="M80 112q-7 0 -24 17l-8 8q-11 11 -14 17t1 10l199 202l-198 202q-2 2 -2 5q0 7 16 23l11 11q14 14 20.5 16.5t10.5 -1.5l195 -202l192 198q2 2 6 2q8 0 24 -16l7 -7q11 -11 14 -17t-1 -10l-193 -199l198 -203q2 -2 2 -5q0 -7 -16 -23l-10 -10q-23 -23 -31 -15l-197 202
l-196 -202q-3 -3 -6 -3z" />
    <glyph glyph-name="divide" unicode="&#xf7;" 
d="M244.5 520.5q-17.5 17.5 -17.5 42.5t17.5 43t42.5 18q26 0 43.5 -17.5t17.5 -43.5q0 -25 -18 -42.5t-43 -17.5t-42.5 17.5zM36 336.5q-2 6.5 -2 23.5v9q0 16 2 22.5t7 6.5h484q5 0 7 -6.5t2 -22.5v-9q0 -17 -2 -23.5t-7 -6.5h-484q-5 0 -7 6.5zM244.5 118.5
q-17.5 17.5 -17.5 42.5t17.5 43t42.5 18q26 0 43.5 -17.5t17.5 -43.5q0 -25 -18 -42.5t-43 -17.5t-42.5 17.5z" />
    <glyph glyph-name="equal" unicode="=" 
d="M36 438.5q-2 6.5 -2 23.5v9q0 16 2 22.5t7 6.5h484q5 0 7 -6.5t2 -22.5v-9q0 -17 -2 -23.5t-7 -6.5h-484q-5 0 -7 6.5zM36 234.5q-2 6.5 -2 23.5v9q0 16 2 22.5t7 6.5h484q5 0 7 -6.5t2 -22.5v-9q0 -17 -2 -23.5t-7 -6.5h-484q-5 0 -7 6.5z" />
    <glyph glyph-name="notequal" unicode="&#x2260;" 
d="M124.5 116.5q-6.5 3.5 -3.5 8.5l56 103h-134q-5 0 -7 6.5t-2 23.5v9q0 16 2 22.5t7 6.5h172l74 136h-246q-5 0 -7 6.5t-2 23.5v9q0 16 2 22.5t7 6.5h281l47 85q3 6 9.5 8t21.5 2h15q17 0 23.5 -3.5t3.5 -8.5l-46 -83h129q5 0 7 -6.5t2 -22.5v-9q0 -17 -2 -23.5t-7 -6.5
h-164l-74 -136h238q5 0 7 -6.5t2 -22.5v-9q0 -17 -2 -23.5t-7 -6.5h-275l-57 -105q-5 -10 -31 -10h-16q-17 0 -23.5 3.5z" />
    <glyph glyph-name="greater" unicode="&#x3e;" 
d="M76 91.5q-5 5.5 -13 19.5l-5 9q-9 17 -9 27q0 6 3 7l390 213l-392 218q-3 2 -3 7q0 10 8 23l7 12q6 10 13 16.5t11 4.5l433 -240q8 -5 8 -33v-11q0 -27 -8 -32l-434 -244q-4 -2 -9 3.5z" />
    <glyph glyph-name="less" unicode="&#x3c;" 
d="M51 326q-8 5 -8 33v11q0 27 8 32l434 244q4 2 9 -3.5t13 -19.5l5 -9q9 -17 9 -27q0 -5 -3 -7l-390 -213l392 -218q3 -1 3 -7q0 -10 -8 -23l-7 -12q-5 -10 -12.5 -16.5t-11.5 -4.5z" />
    <glyph glyph-name="greaterequal" unicode="&#x2265;" 
d="M82 197.5q-5 4.5 -13 19.5l-5 9q-9 17 -9 27q0 6 3 7l382 184l-381 187q-3 2 -3 6q0 12 9 26l6 10q16 25 24 21l422 -209q8 -5 8 -33v-11q0 -27 -8 -32l-425 -214q-5 -2 -10 2.5zM48 6.5q-2 6.5 -2 23.5v9q0 16 2 22.5t7 6.5h464q5 0 7 -6.5t2 -22.5v-9q0 -17 -2 -23.5
t-7 -6.5h-464q-5 0 -7 6.5z" />
    <glyph glyph-name="lessequal" unicode="&#x2264;" 
d="M54 403q-8 5 -8 33v11q0 27 8 32l422 212q5 2 10 -2.5t13 -19.5l5 -9q9 -16 9 -27q0 -5 -3 -7l-379 -182l384 -189q3 -1 3 -6q0 -12 -9 -26l-6 -10q-16 -25 -24 -21zM44 6.5q-2 6.5 -2 23.5v9q0 16 2 22.5t7 6.5h464q5 0 7 -6.5t2 -22.5v-9q0 -17 -2 -23.5t-7 -6.5h-464
q-5 0 -7 6.5z" />
    <glyph glyph-name="plusminus" unicode="&#xb1;" 
d="M254 205.5q-7 2.5 -7 7.5v197h-194q-5 0 -7 6.5t-2 23.5v9q0 16 2 22.5t7 6.5h194v195q0 5 7 7.5t24 2.5h15q16 0 23 -2.5t7 -7.5v-195h194q5 0 7 -6.5t2 -22.5v-9q0 -17 -2 -23.5t-7 -6.5h-194v-197q0 -5 -7 -7.5t-23 -2.5h-15q-17 0 -24 2.5zM46 6.5q-2 6.5 -2 23.5v9
q0 16 2 22.5t7 6.5h464q5 0 7 -6.5t2 -22.5v-9q0 -17 -2 -23.5t-7 -6.5h-464q-5 0 -7 6.5z" />
    <glyph glyph-name="approxequal" unicode="&#x2248;" 
d="M322 403.5q-27 10.5 -60 30.5q-25 17 -44.5 25t-46.5 8q-31 0 -50.5 -15.5t-24.5 -42.5q-1 -6 -12 -6q-10 0 -17 2l-13 3q-15 3 -19.5 6.5t-4.5 8.5q10 56 50.5 85.5t100.5 29.5q36 0 62.5 -10t60.5 -30q29 -17 51.5 -26t50.5 -9t45.5 13t22.5 36q0 7 15 7q9 0 14 -1
l11 -2q16 -3 21 -6t5 -8q-10 -57 -50 -83t-99 -26q-42 0 -69 10.5zM321.5 198.5q-27.5 10.5 -59.5 31.5q-25 17 -44.5 25t-46.5 8q-31 0 -50.5 -15.5t-24.5 -42.5q-1 -6 -12 -6q-10 0 -17 2l-13 3q-26 6 -24 15q13 57 52.5 86.5t98.5 29.5q36 0 61.5 -10t61.5 -30
q28 -18 51 -27t51 -9q29 0 47.5 13.5t20.5 35.5q1 7 15 7q9 0 14 -1l11 -2q16 -3 21.5 -6t4.5 -8q-6 -57 -47.5 -83.5t-101.5 -26.5q-42 0 -69.5 10.5z" />
    <glyph glyph-name="asciitilde" unicode="~" 
d="M327.5 309.5q-28.5 12.5 -66.5 38.5q-29 21 -49 30.5t-45 9.5q-32 0 -53 -19.5t-26 -55.5q-1 -6 -11 -6q-8 0 -20 3l-14 3q-17 4 -22 7.5t-4 9.5q10 67 52 100.5t106 33.5q34 0 62.5 -12.5t66.5 -36.5q36 -22 58 -32.5t48 -10.5q29 0 47.5 17t23.5 48q1 7 15 7l17 -2
l12 -2q17 -3 23 -6t5 -9q-10 -68 -51.5 -98t-104.5 -30q-41 0 -69.5 12.5z" />
    <glyph glyph-name="logicalnot" unicode="&#xac;" 
d="M466 217.5q-7 2.5 -7 7.5v152h-419q-5 0 -7 6.5t-2 23.5v9q0 16 2 22.5t7 6.5h495v-220q0 -5 -7 -7.5t-23 -2.5h-15q-17 0 -24 2.5z" />
    <glyph glyph-name="infinity" unicode="&#x221e;" horiz-adv-x="819" 
d="M96 208q-47 43 -47 117q0 73 45.5 118t119.5 45q56 0 103 -27t94 -82q46 53 90.5 80t103.5 27q73 0 119 -42.5t46 -116.5q0 -76 -48.5 -118t-119.5 -42q-51 0 -96 25t-96 81q-41 -50 -91 -79t-107 -29q-69 0 -116 43zM294 264.5q33 22.5 64 63.5q-37 44 -67.5 65.5
t-70.5 21.5q-41 0 -66.5 -23.5t-25.5 -63.5t26.5 -63t66.5 -23t73 22.5zM662 266.5q27 24.5 27 63.5t-28 61t-68 22q-39 0 -68.5 -22t-61.5 -63q44 -50 69.5 -68t58.5 -18q44 0 71 24.5z" />
    <glyph glyph-name="integral" unicode="&#x222b;" horiz-adv-x="360" 
d="M24 -138q-5 1 -5 13q0 4 2 22l1 8q3 20 6.5 27.5t9.5 5.5q18 -7 46 -7q49 0 68 31t19 87q0 50 -9 99t-26 120q-20 83 -29.5 138.5t-9.5 118.5q0 205 176 205q36 0 61 -8q6 -1 6 -14q0 -11 -2 -19l-3 -13q-4 -19 -7.5 -26t-9.5 -5q-20 6 -39 6q-51 0 -69 -30.5t-18 -88.5
q0 -57 9.5 -108.5t28.5 -129.5t28.5 -132t9.5 -113q0 -90 -44.5 -143t-134.5 -53q-37 0 -65 9z" />
    <glyph glyph-name="uni2126" unicode="&#x2126;" horiz-adv-x="748" 
d="M53 7.5q-2 7.5 -2 24.5v12q0 16 2 23t7 7h121q-53 43 -81 115t-28 168q0 116 39 200t109 128.5t162 44.5q93 0 160 -45t102.5 -127t35.5 -191q0 -102 -31 -175t-87 -118h126q5 0 7 -7t2 -23v-12q0 -17 -2 -24.5t-7 -7.5h-259q-5 0 -7 6.5t-2 22.5v16q0 14 2 19.5t7 7.5
q75 21 112.5 98.5t37.5 189.5q0 141 -53 215t-146 74q-97 0 -153.5 -76.5t-56.5 -220.5q0 -113 36 -186t113 -95q5 -1 7 -7t2 -20v-15q0 -16 -2 -22.5t-7 -6.5h-259q-5 0 -7 7.5z" />
    <glyph glyph-name="uni2206" unicode="&#x2206;" horiz-adv-x="601" 
d="M38.5 3q-7.5 3 -7.5 11v44q0 23 9 50l209 602q2 6 11.5 8t34.5 2h17q23 0 33 -2t12 -8l204 -602q9 -27 9 -50v-44q0 -8 -7.5 -11t-27.5 -3h-469q-20 0 -27.5 3zM467 79l-167 541l-173 -541h340z" />
    <glyph glyph-name="product" unicode="&#x220f;" horiz-adv-x="694" 
d="M115 -156v797h-84q-5 0 -7 8t-2 26v12q0 17 2 25t7 8h632q5 0 7 -8t2 -25v-12q0 -18 -2 -26t-7 -8h-89v-797q0 -11 -41 -11h-11q-43 0 -43 11v797h-269v-797q0 -11 -41 -11h-11q-43 0 -43 11z" />
    <glyph glyph-name="summation" unicode="&#x2211;" horiz-adv-x="563" 
d="M28.5 -164q-7.5 3 -7.5 11v33q0 12 4.5 21.5t15.5 22.5l290 355l-290 350q-10 12 -15 22t-5 22v33q0 8 7.5 11t27.5 3h477q5 0 7 -8t2 -25v-12q0 -18 -2 -26t-7 -8h-382l261 -314q8 -8 8 -31v-19q0 -23 -9 -34l-266 -331h395q5 0 7 -8t2 -25v-12q0 -18 -2 -26t-7 -8h-484
q-20 0 -27.5 3z" />
    <glyph glyph-name="radical" unicode="&#x221a;" horiz-adv-x="640" 
d="M261.5 -78q-7.5 2 -9.5 8l-168 476h-68q-10 0 -10 31v17q0 30 10 30h127q9 0 14.5 -6.5t11.5 -25.5l137 -422l237 780q3 12 39 12h21q20 0 28.5 -2.5t6.5 -9.5l-282 -880q-2 -6 -10 -8t-24 -2h-35q-18 0 -25.5 2z" />
    <glyph glyph-name="uni00B5" unicode="&#xb5;" horiz-adv-x="595" 
d="M88 -229.5q-8 2.5 -10 10.5q-6 20 -6 180v555q0 6 7 9t34 3h6q28 0 35.5 -2.5t7.5 -9.5v-261q0 -62 5 -94.5t20 -50.5q27 -35 91 -35q31 0 58 9t47 27q21 21 26 71q3 42 3 137v197q0 6 7 9t34 3h6q28 0 35.5 -2.5t7.5 -9.5v-391q0 -26 3 -37.5t9.5 -14t21.5 -2.5
q6 0 7.5 -4t1.5 -23v-5q0 -20 -1 -25.5t-5 -6.5q-25 -9 -46 -9q-26 0 -44.5 17t-27.5 48q-26 -34 -66 -53.5t-92 -19.5q-61 0 -101 35v-52q0 -160 6 -192q1 -7 -8 -10t-35 -3h-6q-23 0 -31 2.5z" />
    <glyph glyph-name="partialdiff" unicode="&#x2202;" horiz-adv-x="547" 
d="M101 52.5q-58 62.5 -58 164.5q0 71 27.5 122t75 78t107.5 27q80 0 138 -43q-2 111 -45 181t-130 70q-50 0 -103 -26q-1 -1 -3 -1q-9 0 -18 23l-7 16q-6 14 -6 20q0 8 5 11q64 35 140 35q148 0 207 -119t59 -278q0 -161 -56 -252t-176 -91q-99 0 -157 62.5zM365.5 138
q29.5 68 29.5 176q-56 51 -128 51q-63 0 -96.5 -43t-33.5 -105q0 -60 31.5 -103.5t91.5 -43.5q76 0 105.5 68z" />
    <glyph glyph-name="percent" unicode="%" horiz-adv-x="881" 
d="M229 -6l337 734q5 9 33 9h17q34 0 29 -11l-336 -734q-4 -9 -33 -9h-18q-34 0 -29 11zM83.5 369q-43.5 50 -43.5 147q0 103 46 158.5t127 55.5q77 0 120 -49.5t43 -147.5q0 -102 -45.5 -158t-127.5 -56q-76 0 -119.5 50zM265 426.5q21 36.5 21 104.5q0 63 -19.5 95.5
t-56.5 32.5t-58.5 -36t-21.5 -103q0 -64 19 -97t56 -33q39 0 60 36.5zM548.5 40q-43.5 50 -43.5 147q0 103 46 158.5t127 55.5q77 0 120 -49.5t43 -147.5q0 -102 -45.5 -158t-127.5 -56q-76 0 -119.5 50zM730 97.5q21 36.5 21 104.5q0 63 -19.5 95.5t-56.5 32.5t-58.5 -36
t-21.5 -103q0 -63 19 -96.5t56 -33.5q39 0 60 36.5z" />
    <glyph glyph-name="perthousand" unicode="&#x2030;" horiz-adv-x="1271" 
d="M229 -6l337 734q5 9 33 9h17q34 0 29 -11l-336 -734q-4 -9 -33 -9h-18q-34 0 -29 11zM83.5 369q-43.5 50 -43.5 147q0 103 46 158.5t127 55.5q77 0 120 -49.5t43 -147.5q0 -102 -45.5 -158t-127.5 -56q-76 0 -119.5 50zM265 426.5q21 36.5 21 104.5q0 63 -19.5 95.5
t-56.5 32.5t-58.5 -36t-21.5 -103q0 -64 19 -97t56 -33q39 0 60 36.5zM548.5 40q-43.5 50 -43.5 147q0 103 46 158.5t127 55.5q77 0 120 -49.5t43 -147.5q0 -102 -45.5 -158t-127.5 -56q-76 0 -119.5 50zM938.5 40q-43.5 50 -43.5 147q0 103 46 158.5t127 55.5
q77 0 120 -49.5t43 -147.5q0 -102 -45.5 -158t-127.5 -56q-76 0 -119.5 50zM730 97.5q21 36.5 21 104.5q0 63 -19.5 95.5t-56.5 32.5t-58.5 -36t-21.5 -103q0 -63 19 -96.5t56 -33.5q39 0 60 36.5zM1120 97.5q21 36.5 21 104.5q0 63 -19.5 95.5t-56.5 32.5t-58.5 -36
t-21.5 -103q0 -63 19 -96.5t56 -33.5q39 0 60 36.5z" />
    <glyph glyph-name="arrowup" unicode="&#x2191;" horiz-adv-x="666" 
d="M299 2q-7 2 -7 7v443l-133 -120q-4 -4 -10 -0.5t-19 16.5l-9 9q-13 13 -16 18.5t1 9.5l201 176q7 7 12 10t10 3h8q5 0 10 -3t12 -10l201 -176q2 -2 2 -5q0 -6 -17 -23l-9 -9q-13 -13 -19 -16.5t-10 0.5l-133 120v-443q0 -5 -7 -7t-27 -2h-14q-20 0 -27 2z" />
    <glyph glyph-name="arrowright" unicode="&#x2192;" horiz-adv-x="666" 
d="M424 63q-6 0 -23 17l-9 9q-13 13 -16.5 19t0.5 10l120 133h-443q-5 0 -7 7t-2 27v14q0 20 2 27t7 7h443l-120 133q-4 4 -0.5 10t16.5 19l9 9q13 13 18.5 16t9.5 -1l176 -201q7 -7 10 -12t3 -10v-8q0 -5 -3 -10t-10 -12l-176 -201q-2 -2 -5 -2z" />
    <glyph glyph-name="arrowdown" unicode="&#x2193;" horiz-adv-x="666" 
d="M319 3q-5 3 -12 10l-201 176q-2 2 -2 5q0 6 17 23l9 9q13 13 19 16.5t10 -0.5l133 -120v443q0 5 7 7t27 2h14q20 0 27 -2t7 -7v-443l133 120q4 4 10 0.5t19 -16.5l9 -9q13 -13 16 -18.5t-1 -9.5l-201 -176q-7 -7 -12 -10t-10 -3h-8q-5 0 -10 3z" />
    <glyph glyph-name="arrowleft" unicode="&#x2190;" horiz-adv-x="666" 
d="M61 266q-7 7 -10 12t-3 10v8q0 5 3 10t10 12l176 201q2 2 5 2q6 0 23 -17l9 -9q13 -13 16.5 -19t-0.5 -10l-120 -133h443q5 0 7 -7t2 -27v-14q0 -20 -2 -27t-7 -7h-443l120 -133q4 -4 0.5 -10t-16.5 -19l-9 -9q-13 -13 -18.5 -16t-9.5 1z" />
    <glyph glyph-name="lozenge" unicode="&#x25ca;" horiz-adv-x="541" 
d="M227 -13l-186 329q-9 16 -9 40v14q0 22 9 38l193 335q5 9 33 9h14q29 0 33 -9l186 -330q9 -16 9 -38v-13q0 -24 -9 -40l-191 -335q-5 -9 -32 -9h-16q-29 0 -34 9zM425 366l-152 272l-154 -275l154 -272z" />
    <glyph glyph-name="uniF8FF" unicode="&#xf8ff;" horiz-adv-x="521" 
d="M64 676h401v-66h-334v-543h74v-67h-141v676zM196 274h202v69h-202v199h269v-66h-201v-66h201v-202h-269v66z" />
    <glyph glyph-name="at" unicode="@" horiz-adv-x="818" 
d="M209 30q-78 40 -122 116t-44 181q0 115 53 207t145 144t204 52q96 0 173.5 -37t122.5 -106.5t45 -163.5q0 -65 -22.5 -125.5t-67.5 -99t-110 -38.5q-37 0 -56.5 13.5t-38.5 41.5q-25 -26 -54.5 -40.5t-67.5 -14.5q-71 0 -105 39.5t-34 103.5q0 57 24.5 112.5t71.5 91.5
t111 36q51 0 81 -27l2 8q3 12 30 12h25q15 0 21.5 -4t5.5 -9q-13 -45 -25 -107l-19 -97q-5 -27 -5 -43q0 -55 50 -55q39 0 64.5 32t37 77.5t11.5 89.5q0 77 -35.5 132.5t-97 85t-140.5 29.5q-95 0 -170 -42t-117.5 -117t-42.5 -172q0 -90 36 -154t100.5 -96.5t149.5 -32.5
q84 0 159 24h2q8 0 14 -19l2 -7q4 -16 4 -20q0 -8 -5 -9q-39 -15 -90.5 -23.5t-97.5 -8.5q-100 0 -178 40zM444 259.5q20 30.5 33 86.5l22 101q-26 29 -67 29q-36 0 -62 -24.5t-38.5 -62t-12.5 -77.5q0 -41 14.5 -62t48.5 -21q42 0 62 30.5z" />
    <glyph glyph-name="ampersand" unicode="&#x26;" horiz-adv-x="697" 
d="M149 16q-52 26 -78.5 71.5t-26.5 104.5q0 70 38 121.5t106 85.5q-32 34 -47.5 71t-15.5 74q0 50 22 92.5t68.5 68t115.5 25.5q68 0 129 -33q5 -2 5 -11t-4 -21l-3 -9q-5 -14 -11 -23t-10 -7q-52 27 -106 27q-111 0 -111 -101q0 -36 16 -66t53 -74q86 -103 199 -203
q40 76 57 186q1 7 8.5 10t27.5 3h11q38 0 36 -15q-17 -136 -78 -238q61 -52 117 -92q9 -6 -12 -35l-8 -11q-11 -15 -18 -21t-11 -3q-62 42 -117 91q-84 -94 -228 -94q-72 0 -124 26zM439 137q-113 99 -205 204q-95 -59 -95 -143q0 -60 40.5 -95.5t104.5 -35.5q94 0 155 70z
" />
    <glyph glyph-name="paragraph" unicode="&#xb6;" horiz-adv-x="613" 
d="M235.5 -135q-9.5 2 -9.5 8v434q-91 4 -144.5 59.5t-53.5 142.5q0 98 60 154.5t173 56.5h305q5 0 7 -6t2 -26v-10q0 -19 -2 -25t-7 -6h-68v-774q0 -6 -9.5 -8t-28.5 -2h-9q-20 0 -29.5 2t-9.5 8v775h-100v-775q0 -6 -9.5 -8t-28.5 -2h-9q-20 0 -29.5 2z" />
    <glyph glyph-name="section" unicode="&#xa7;" horiz-adv-x="497" 
d="M123 -29.5q-45 10.5 -76 27.5q-6 3 -6 11q0 10 9 26l5 10q7 13 13 18t15 2q30 -13 68 -21.5t69 -8.5q44 0 77.5 20.5t33.5 61.5q0 37 -33.5 55t-89.5 30q-81 17 -128.5 51.5t-47.5 104.5q0 40 20 76t61 60q-30 26 -30 78q0 74 51.5 116t131.5 42q47 0 89.5 -11.5
t72.5 -31.5q6 -3 6 -10q0 -9 -10 -26l-4 -7q-11 -19 -17 -22t-13 1q-31 17 -59.5 25.5t-63.5 8.5q-39 0 -68.5 -17.5t-29.5 -55.5q0 -35 30.5 -53t80.5 -29q87 -19 136 -53t49 -110q0 -45 -19.5 -81t-53.5 -58q24 -30 24 -75q0 -77 -55.5 -121t-142.5 -44q-50 0 -95 10.5z
M369.5 282q11.5 23 11.5 50q0 40 -34.5 60.5t-88.5 32.5q-61 13 -95 30q-21 -18 -33.5 -40t-12.5 -45q0 -39 31.5 -59t80.5 -32q70 -17 108 -36q21 16 32.5 39z" />
    <glyph glyph-name="copyright" unicode="&#xa9;" horiz-adv-x="805" 
d="M220.5 39.5q-83.5 49.5 -132 134.5t-48.5 186q0 102 48.5 186.5t132 134t184.5 49.5q100 0 182.5 -49.5t130 -134t47.5 -186.5q0 -101 -48 -186t-131 -134.5t-182 -49.5q-100 0 -183.5 49.5zM549 92.5q66 40.5 104 111t38 156.5q0 85 -37.5 155.5t-103 111.5t-145.5 41
t-146 -41t-104.5 -111.5t-38.5 -155.5t37.5 -155.5t103.5 -111.5t146 -41t146 40.5zM278.5 211q-47.5 57 -47.5 148q0 57 20.5 105t63.5 77.5t109 29.5q55 0 101 -25q4 -1 4 -8q0 -3 -6 -21l-4 -10q-4 -11 -10.5 -17.5t-12.5 -3.5q-37 17 -68 17q-51 0 -83.5 -36.5
t-32.5 -105.5q0 -59 26 -97.5t89 -38.5q31 0 64 14q2 1 5 1q9 0 16 -17l6 -14q4 -9 4 -19q0 -9 -4 -12q-46 -24 -105 -24q-87 0 -134.5 57z" />
    <glyph glyph-name="registered" unicode="&#xae;" horiz-adv-x="805" 
d="M220.5 39.5q-83.5 49.5 -132 134.5t-48.5 186q0 102 48.5 186.5t132 134t184.5 49.5q100 0 182.5 -49.5t130 -134t47.5 -186.5q0 -101 -48 -186t-131 -134.5t-182 -49.5q-100 0 -183.5 49.5zM549 92.5q66 40.5 104 111t38 156.5q0 85 -37.5 155.5t-103 111.5t-145.5 41
t-146 -41t-104.5 -111.5t-38.5 -155.5t37.5 -155.5t103.5 -111.5t146 -41t146 40.5zM271.5 166q-6.5 3 -6.5 6v391h130q78 0 120 -27t42 -89q0 -91 -82 -124l24 -42q26 -45 72 -107q4 -5 -4 -8t-24 -3h-23q-27 0 -35 10q-31 40 -54 81l-35 61h-52v-143q0 -3 -6.5 -6
t-16.5 -3h-32q-11 0 -17.5 3zM402 377q40 0 59 17.5t19 46.5q0 33 -24.5 45t-62.5 12h-49v-121h58z" />
    <glyph glyph-name="trademark" unicode="&#x2122;" horiz-adv-x="887" 
d="M170 320.5q-7 2.5 -7 7.5v333h-120q-9 0 -9 27v6q0 26 9 26h313q9 0 9 -26v-6q0 -27 -9 -27h-120v-333q0 -5 -7 -7.5t-23 -2.5h-11q-18 0 -25 2.5zM408 320.5q-7 2.5 -7 7.5l26 379q1 7 8 10t24 3h21q15 0 21 -2.5t9 -7.5l103 -237l100 237q3 5 9 7.5t21 2.5h21
q17 0 24 -3t8 -10l25 -379q0 -5 -7 -7.5t-25 -2.5h-9q-16 0 -23 2.5t-7 7.5l-17 270l-84 -203q-3 -5 -9 -7.5t-21 -2.5h-14q-17 0 -23 2.5t-9 7.5l-85 196l-17 -263q0 -5 -7 -7.5t-23 -2.5h-8q-18 0 -25 2.5z" />
    <glyph glyph-name="degree" unicode="&#xb0;" horiz-adv-x="353" 
d="M69.5 481q-38.5 36 -38.5 103t40.5 106.5t108.5 39.5q65 0 103.5 -35.5t38.5 -103.5q0 -67 -40.5 -106.5t-108.5 -39.5q-65 0 -103.5 36zM229 528.5q20 21.5 20 61.5q0 38 -18 58t-52 20q-35 0 -55.5 -21.5t-20.5 -60.5q0 -38 18.5 -58.5t52.5 -20.5q35 0 55 21.5z" />
    <glyph glyph-name="bar" unicode="|" horiz-adv-x="278" 
d="M96 -261v1066q0 12 36 12h13q20 0 28.5 -3t8.5 -9v-1066q0 -12 -35 -12h-13q-38 0 -38 12z" />
    <glyph glyph-name="brokenbar" unicode="&#xa6;" horiz-adv-x="272" 
d="M101.5 367.5q-8.5 2.5 -8.5 8.5v379q0 6 8 8.5t28 2.5h13q21 0 29 -2.5t8 -8.5v-379q0 -6 -8 -8.5t-27 -2.5h-13q-21 0 -29.5 2.5zM101.5 -219.5q-8.5 2.5 -8.5 8.5v379q0 6 8 8.5t28 2.5h13q21 0 29 -2.5t8 -8.5v-379q0 -6 -8 -8.5t-27 -2.5h-13q-21 0 -29.5 2.5z" />
    <glyph glyph-name="uni2113" unicode="&#x2113;" horiz-adv-x="256" 
d="M89 33q-9 14 -13 39t-4 66v335q0 227 -6 274q-1 7 8 10t35 3h6q23 0 31 -2.5t10 -10.5q6 -34 6 -296v-332q0 -29 7 -39.5t31 -10.5h10q4 0 5 -5t1 -22v-3q0 -20 -1 -25.5t-5 -6.5q-22 -8 -47 -8q-51 0 -74 34z" />
    <glyph glyph-name="dagger" unicode="&#x2020;" horiz-adv-x="469" 
d="M199.5 -135q-9.5 2 -9.5 8v533h-165q-5 0 -7 6t-2 25v10q0 20 2 26t7 6h165v231q0 6 9.5 8t28.5 2h9q20 0 29.5 -2t9.5 -8v-231h168q5 0 7 -6t2 -26v-10q0 -19 -2 -25t-7 -6h-168v-533q0 -6 -9.5 -8t-28.5 -2h-9q-20 0 -29.5 2z" />
    <glyph glyph-name="daggerdbl" unicode="&#x2021;" horiz-adv-x="483" 
d="M206.5 -135q-9.5 2 -9.5 8v211h-165q-5 0 -7 6t-2 25v10q0 20 2 26t7 6h165v269h-165q-5 0 -7 6t-2 25v10q0 20 2 26t7 6h165v211q0 6 9.5 8t28.5 2h9q20 0 29.5 -2t9.5 -8v-211h168q5 0 7 -6t2 -26v-10q0 -19 -2 -25t-7 -6h-168v-269h168q5 0 7 -6t2 -26v-10
q0 -19 -2 -25t-7 -6h-168v-211q0 -6 -9.5 -8t-28.5 -2h-9q-20 0 -29.5 2z" />
    <glyph glyph-name="estimated" unicode="&#x212e;" horiz-adv-x="922" 
d="M255.5 40q-94.5 50 -150 135t-55.5 185q0 101 55.5 186t150 134.5t206.5 49.5q111 0 205.5 -49.5t149.5 -134.5t55 -186v-8h-666q-3 0 -4 -1.5t-1 -4.5v-202q0 -12 9 -24q50 -50 115.5 -79t137.5 -29q78 0 147 32.5t117 89.5h60q-57 -67 -142.5 -105.5t-182.5 -38.5
q-112 0 -206.5 50zM716 371q5 0 5 6v203q0 13 -10 25q-49 48 -113 75.5t-135 27.5q-72 0 -137 -28t-115 -78q-10 -10 -10 -26v-199q0 -6 5 -6h510z" />
    <glyph glyph-name="uni2116" unicode="&#x2116;" horiz-adv-x="1073" 
d="M76 11v698q0 7 9.5 9t37.5 2h5q30 0 40 -2.5t15 -10.5l333 -554v556q0 11 38 11h8q40 0 40 -11v-698q0 -7 -9.5 -9t-37.5 -2h-3q-30 0 -40 2.5t-15 10.5l-335 553v-555q0 -11 -38 -11h-8q-40 0 -40 11zM714 305.5q-45 54.5 -45 145.5q0 103 51 160t139 57q84 0 129 -54.5
t45 -145.5q0 -103 -51 -160t-139 -57q-84 0 -129 54.5zM921 360q29 34 29 103q0 55 -21.5 92.5t-72.5 37.5q-46 0 -75 -34t-29 -103q0 -55 21.5 -92.5t72.5 -37.5q46 0 75 34z" />
    <glyph glyph-name="asciicircum" unicode="^" 
d="M55 340l181 377q7 13 39 13h23q35 0 41 -13l177 -377q3 -7 -6 -9.5t-33 -2.5h-15q-21 0 -31.5 3t-13.5 10l-133 294l-134 -294q-3 -7 -12 -10t-30 -3h-13q-46 0 -40 12z" />
    <glyph glyph-name="uni0308" unicode="&#x308;" horiz-adv-x="0" 
d="M-332.5 614.5q-16.5 16.5 -16.5 40.5t16.5 40.5t40.5 16.5t40.5 -16.5t16.5 -40.5t-16.5 -40.5t-40.5 -16.5t-40.5 16.5zM-99.5 614.5q-16.5 16.5 -16.5 40.5t16.5 40.5t40.5 16.5t40.5 -16.5t16.5 -40.5t-16.5 -40.5t-40.5 -16.5t-40.5 16.5z" />
    <glyph glyph-name="uni0307" unicode="&#x307;" horiz-adv-x="0" 
d="M-215 622q-17 17 -17 40t17 39.5t40 16.5t39.5 -16.5t16.5 -39.5t-16.5 -40t-39.5 -17t-40 17z" />
    <glyph glyph-name="gravecomb" unicode="&#x300;" horiz-adv-x="0" 
d="M-181 590l-94 128q-4 5 5.5 9.5t34.5 4.5h13q40 0 46 -11l73 -128q6 -12 -32 -12h-9q-30 0 -37 9z" />
    <glyph glyph-name="acutecomb" unicode="&#x301;" horiz-adv-x="0" 
d="M-249 593l73 128q6 11 44 11h12q26 0 34.5 -4t4.5 -10l-94 -128q-5 -9 -36 -9h-8q-38 0 -30 12z" />
    <glyph glyph-name="uni030B" unicode="&#x30b;" horiz-adv-x="0" 
d="M-329 583q-5 3 -2 10l64 128q5 11 42 11h10q47 0 38 -14l-84 -128q-6 -10 -34 -10h-8q-21 0 -26 3zM-161 583q-5 3 -2 10l64 128q5 11 42 11h10q47 0 38 -14l-84 -128q-6 -10 -34 -10h-8q-21 0 -26 3z" />
    <glyph glyph-name="uni0302" unicode="&#x302;" horiz-adv-x="0" 
d="M-175 676l-112 -95q-2 -2 -4 -2q-9 0 -20 13l-7 8q-17 19 -10 27l91 97q11 13 44 13h38q33 0 45 -14l89 -94q3 -3 3 -7q0 -7 -13 -22l-8 -9q-7 -8 -14.5 -11.5t-11.5 0.5z" />
    <glyph glyph-name="uni030C" unicode="&#x30c;" horiz-adv-x="0" 
d="M-240 589l-89 94q-2 2 -2 6q0 8 12 22l8 9q7 8 15.5 12.5t12.5 0.5l112 -98l109 95q2 2 5 2q9 0 20 -13l6 -7q17 -18 9 -27l-91 -97q-11 -13 -44 -13h-38q-33 0 -45 14z" />
    <glyph glyph-name="uni0306" unicode="&#x306;" horiz-adv-x="0" 
d="M-281 622.5q-39 29.5 -43 89.5q0 10 32 10h12q16 0 22.5 -2.5t7.5 -7.5q3 -28 22.5 -43.5t51.5 -15.5q31 0 50.5 15.5t23.5 43.5q1 5 7.5 7.5t22.5 2.5h13q32 0 32 -10q-4 -59 -44.5 -89t-106.5 -30q-64 0 -103 29.5z" />
    <glyph glyph-name="uni030A" unicode="&#x30a;" horiz-adv-x="0" 
d="M-241 604.5q-28 26.5 -28 63.5t28 63.5t66 26.5q39 0 66.5 -26t27.5 -64t-27.5 -64t-66.5 -26q-38 0 -66 26.5zM-145.5 638q11.5 12 11.5 30t-11.5 30t-29.5 12t-30 -12t-12 -30t12 -30t30 -12t29.5 12z" />
    <glyph glyph-name="tildecomb" unicode="&#x303;" horiz-adv-x="0" 
d="M-146.5 613q-13.5 5 -30.5 14q-19 9 -31 13.5t-27 4.5q-30 0 -53 -27q-1 -1 -4 -1q-8 0 -22 19l-7 10q-14 19 -8 27q17 21 42 34t54 13q20 0 33.5 -5t34.5 -15q16 -9 26.5 -13t24.5 -4q26 0 51 27q2 2 4 2q7 0 22 -17l6 -8q6 -8 8.5 -15.5t-0.5 -11.5q-16 -22 -40.5 -37
t-52.5 -15q-17 0 -30.5 5z" />
    <glyph glyph-name="uni0304" unicode="&#x304;" horiz-adv-x="0" 
d="M-323 652v12q0 29 10 29h275q10 0 10 -29v-12q0 -32 -10 -32h-275q-10 0 -10 32z" />
    <glyph glyph-name="uni0326" unicode="&#x326;" horiz-adv-x="0" 
d="M-210 -299q-5 0 -12 6l-9 10q-6 7 -6 12t5 10q47 47 47 81q0 11 -4 17.5t-13 15.5t-14 17.5t-5 23.5q0 20 15.5 33.5t36.5 13.5q27 0 43 -18t16 -46q0 -48 -24 -94t-65 -78q-5 -4 -11 -4z" />
    <glyph glyph-name="uni0327" unicode="&#x327;" horiz-adv-x="0" 
d="M-215 -218.5q-21 3.5 -35 8.5q-6 2 -6 11l2 12l4 16q5 21 14 18q27 -8 54 -8q20 0 32.5 8.5t12.5 24.5q0 17 -11.5 23t-38.5 6q-35 0 -59 -3l14 111q2 8 22 8h29q21 0 21 -8l-4 -50q6 1 17 1q39 0 65 -22t26 -62q0 -41 -30 -69.5t-88 -28.5q-20 0 -41 3.5z" />
    <glyph glyph-name="uni0328" unicode="&#x328;" horiz-adv-x="0" 
d="M-242 -184q-29 27 -29 65t23 71t61 55q14 8 34 8h19q16 0 20.5 -4.5t-0.5 -7.5q-40 -27 -59 -56t-19 -55q0 -37 49 -37q24 0 41 6h2q4 0 7 -6t5 -16l2 -9q2 -8 2 -18q0 -8 -4 -9q-33 -14 -72 -14q-53 0 -82 27z" />
    <glyph glyph-name="uni0308.case" horiz-adv-x="0" 
d="M-322.5 781.5q-16.5 16.5 -16.5 40.5t16.5 40.5t40.5 16.5t40.5 -16.5t16.5 -40.5t-16.5 -40.5t-40.5 -16.5t-40.5 16.5zM-109.5 781.5q-16.5 16.5 -16.5 40.5t16.5 40.5t40.5 16.5t40.5 -16.5t16.5 -40.5t-16.5 -40.5t-40.5 -16.5t-40.5 16.5z" />
    <glyph glyph-name="uni0307.case" horiz-adv-x="0" 
d="M-215 802q-17 17 -17 40t17 39.5t40 16.5t39.5 -16.5t16.5 -39.5t-16.5 -40t-39.5 -17t-40 17z" />
    <glyph glyph-name="gravecomb.case" horiz-adv-x="0" 
d="M-181 772l-94 128q-4 5 5.5 9.5t34.5 4.5h13q40 0 46 -11l73 -128q6 -12 -32 -12h-9q-30 0 -37 9z" />
    <glyph glyph-name="acutecomb.case" horiz-adv-x="0" 
d="M-246 775l73 128q6 11 44 11h12q26 0 34.5 -4t4.5 -10l-94 -128q-4 -5 -11 -7t-25 -2h-8q-38 0 -30 12z" />
    <glyph glyph-name="uni030B.case" horiz-adv-x="0" 
d="M-329 765q-5 3 -2 10l64 128q5 11 42 11h10q47 0 38 -14l-84 -128q-6 -10 -34 -10h-8q-21 0 -26 3zM-161 765q-5 3 -2 10l64 128q5 11 42 11h10q47 0 38 -14l-84 -128q-6 -10 -34 -10h-8q-21 0 -26 3z" />
    <glyph glyph-name="uni0302.case" horiz-adv-x="0" 
d="M-175 848l-112 -95q-2 -2 -4 -2q-9 0 -20 13l-7 8q-17 19 -10 27l91 97q11 13 44 13h38q33 0 45 -14l89 -94q3 -3 3 -7q0 -7 -13 -22l-8 -9q-7 -8 -14.5 -11.5t-11.5 0.5z" />
    <glyph glyph-name="uni030C.case" horiz-adv-x="0" 
d="M-240 781l-89 94q-2 2 -2 6q0 8 12 22l8 9q7 8 15.5 12.5t12.5 0.5l112 -98l109 95q2 2 5 2q9 0 20 -13l6 -7q17 -18 9 -27l-91 -97q-11 -13 -44 -13h-38q-33 0 -45 14z" />
    <glyph glyph-name="uni0306.case" horiz-adv-x="0" 
d="M-281 812.5q-39 29.5 -43 89.5q0 10 32 10h12q16 0 22.5 -2.5t7.5 -7.5q3 -28 22.5 -43.5t51.5 -15.5q31 0 50.5 15.5t23.5 43.5q1 5 7.5 7.5t22.5 2.5h13q32 0 32 -10q-4 -59 -44.5 -89t-106.5 -30q-64 0 -103 29.5z" />
    <glyph glyph-name="uni030A.case" horiz-adv-x="0" 
d="M-241 768.5q-28 26.5 -28 63.5t28 63.5t66 26.5q39 0 66.5 -26t27.5 -64t-27.5 -64t-66.5 -26q-38 0 -66 26.5zM-145.5 802q11.5 12 11.5 30t-11.5 30t-29.5 12t-30 -12t-12 -30t12 -30t30 -12t29.5 12z" />
    <glyph glyph-name="tildecomb.case" horiz-adv-x="0" 
d="M-146.5 775q-13.5 5 -30.5 14q-19 9 -31 13.5t-27 4.5q-30 0 -53 -27q-1 -1 -4 -1q-8 0 -22 19l-7 10q-14 19 -8 27q17 21 42 34t54 13q20 0 33.5 -5t34.5 -15q16 -9 26.5 -13t24.5 -4q26 0 51 27q2 2 4 2q7 0 22 -17l6 -8q6 -8 8.5 -15.5t-0.5 -11.5q-16 -22 -40.5 -37
t-52.5 -15q-17 0 -30.5 5z" />
    <glyph glyph-name="uni0304.case" horiz-adv-x="0" 
d="M-323 833v12q0 29 10 29h275q10 0 10 -29v-12q0 -32 -10 -32h-275q-10 0 -10 32z" />
    <glyph glyph-name="acutecomb.loclPLK" horiz-adv-x="0" 
d="M-230 583.5q-7 2.5 -5 9.5l28 128q2 6 9.5 8.5t30.5 2.5h11q29 0 35.5 -3t4.5 -11l-49 -128q-3 -6 -8.5 -7.5t-23.5 -1.5h-3q-23 0 -30 2.5z" />
    <glyph glyph-name="acutecomb.case.loclPLK" horiz-adv-x="0" 
d="M-230 765.5q-7 2.5 -5 9.5l28 128q2 6 9.5 8.5t30.5 2.5h11q29 0 35.5 -3t4.5 -11l-49 -128q-3 -6 -8.5 -7.5t-23.5 -1.5h-3q-23 0 -30 2.5z" />
    <glyph glyph-name="acute" unicode="&#xb4;" horiz-adv-x="350" 
d="M101 593l73 128q6 11 44 11h12q26 0 34.5 -4t4.5 -10l-94 -128q-5 -9 -36 -9h-8q-38 0 -30 12z" />
    <glyph glyph-name="breve" unicode="&#x2d8;" horiz-adv-x="350" 
d="M69 622.5q-39 29.5 -43 89.5q0 10 32 10h12q16 0 22.5 -2.5t7.5 -7.5q3 -28 22.5 -43.5t51.5 -15.5q31 0 50.5 15.5t23.5 43.5q1 5 7.5 7.5t22.5 2.5h13q32 0 32 -10q-4 -59 -44.5 -89t-106.5 -30q-64 0 -103 29.5z" />
    <glyph glyph-name="caron" unicode="&#x2c7;" horiz-adv-x="350" 
d="M110 589l-89 94q-2 2 -2 6q0 8 12 22l8 9q7 8 15.5 12.5t12.5 0.5l112 -98l109 95q2 2 5 2q9 0 20 -13l6 -7q17 -18 9 -27l-91 -97q-11 -13 -44 -13h-38q-33 0 -45 14z" />
    <glyph glyph-name="cedilla" unicode="&#xb8;" horiz-adv-x="350" 
d="M135 -218.5q-21 3.5 -35 8.5q-6 2 -6 11l2 12l4 16q5 21 14 18q27 -8 54 -8q20 0 32.5 8.5t12.5 24.5q0 17 -11.5 23t-38.5 6q-35 0 -59 -3l14 111q2 8 22 8h29q21 0 21 -8l-4 -50q6 1 17 1q39 0 65 -22t26 -62q0 -41 -30 -69.5t-88 -28.5q-20 0 -41 3.5z" />
    <glyph glyph-name="circumflex" unicode="&#x2c6;" horiz-adv-x="350" 
d="M175 676l-112 -95q-2 -2 -4 -2q-9 0 -20 13l-7 8q-17 19 -10 27l91 97q11 13 44 13h38q33 0 45 -14l89 -94q3 -3 3 -7q0 -7 -13 -22l-8 -9q-7 -8 -14.5 -11.5t-11.5 0.5z" />
    <glyph glyph-name="dieresis" unicode="&#xa8;" horiz-adv-x="350" 
d="M17.5 614.5q-16.5 16.5 -16.5 40.5t16.5 40.5t40.5 16.5t40.5 -16.5t16.5 -40.5t-16.5 -40.5t-40.5 -16.5t-40.5 16.5zM250.5 614.5q-16.5 16.5 -16.5 40.5t16.5 40.5t40.5 16.5t40.5 -16.5t16.5 -40.5t-16.5 -40.5t-40.5 -16.5t-40.5 16.5z" />
    <glyph glyph-name="dotaccent" unicode="&#x2d9;" horiz-adv-x="350" 
d="M135 622q-17 17 -17 40t17 39.5t40 16.5t39.5 -16.5t16.5 -39.5t-16.5 -40t-39.5 -17t-40 17z" />
    <glyph glyph-name="grave" unicode="`" horiz-adv-x="350" 
d="M169 590l-94 128q-4 5 5.5 9.5t34.5 4.5h13q40 0 46 -11l73 -128q6 -12 -32 -12h-9q-30 0 -37 9z" />
    <glyph glyph-name="hungarumlaut" unicode="&#x2dd;" horiz-adv-x="350" 
d="M21 583q-5 3 -2 10l64 128q5 11 42 11h10q47 0 38 -14l-84 -128q-6 -10 -34 -10h-8q-21 0 -26 3zM189 583q-5 3 -2 10l64 128q5 11 42 11h10q47 0 38 -14l-84 -128q-6 -10 -34 -10h-8q-21 0 -26 3z" />
    <glyph glyph-name="macron" unicode="&#xaf;" horiz-adv-x="350" 
d="M27 652v12q0 29 10 29h275q10 0 10 -29v-12q0 -32 -10 -32h-275q-10 0 -10 32z" />
    <glyph glyph-name="ogonek" unicode="&#x2db;" horiz-adv-x="350" 
d="M108 -184q-29 27 -29 65t23 71t61 55q14 8 34 8h19q16 0 20.5 -4.5t-0.5 -7.5q-40 -27 -59 -56t-19 -55q0 -37 49 -37q24 0 41 6h2q4 0 7 -6t5 -16l2 -9q2 -8 2 -18q0 -8 -4 -9q-33 -14 -72 -14q-53 0 -82 27z" />
    <glyph glyph-name="ring" unicode="&#x2da;" horiz-adv-x="350" 
d="M109 604.5q-28 26.5 -28 63.5t28 63.5t66 26.5q39 0 66.5 -26t27.5 -64t-27.5 -64t-66.5 -26q-38 0 -66 26.5zM204.5 638q11.5 12 11.5 30t-11.5 30t-29.5 12t-30 -12t-12 -30t12 -30t30 -12t29.5 12z" />
    <glyph glyph-name="tilde" unicode="&#x2dc;" horiz-adv-x="350" 
d="M203.5 613q-13.5 5 -30.5 14q-19 9 -31 13.5t-27 4.5q-30 0 -53 -27q-1 -1 -4 -1q-8 0 -22 19l-7 10q-14 19 -8 27q17 21 42 34t54 13q20 0 33.5 -5t34.5 -15q16 -9 26.5 -13t24.5 -4q26 0 51 27q2 2 4 2q7 0 22 -17l6 -8q6 -8 8.5 -15.5t-0.5 -11.5q-16 -22 -40.5 -37
t-52.5 -15q-17 0 -30.5 5z" />
    <glyph glyph-name="acute.case" horiz-adv-x="350" 
d="M104 775l73 128q6 11 44 11h12q26 0 34.5 -4t4.5 -10l-94 -128q-4 -5 -11 -7t-25 -2h-8q-38 0 -30 12z" />
    <glyph glyph-name="breve.case" horiz-adv-x="350" 
d="M69 812.5q-39 29.5 -43 89.5q0 10 32 10h12q16 0 22.5 -2.5t7.5 -7.5q3 -28 22.5 -43.5t51.5 -15.5q31 0 50.5 15.5t23.5 43.5q1 5 7.5 7.5t22.5 2.5h13q32 0 32 -10q-4 -59 -44.5 -89t-106.5 -30q-64 0 -103 29.5z" />
    <glyph glyph-name="caron.case" horiz-adv-x="350" 
d="M110 781l-89 94q-2 2 -2 6q0 8 12 22l8 9q7 8 15.5 12.5t12.5 0.5l112 -98l109 95q2 2 5 2q9 0 20 -13l6 -7q17 -18 9 -27l-91 -97q-11 -13 -44 -13h-38q-33 0 -45 14z" />
    <glyph glyph-name="circumflex.case" horiz-adv-x="350" 
d="M175 848l-112 -95q-2 -2 -4 -2q-9 0 -20 13l-7 8q-17 19 -10 27l91 97q11 13 44 13h38q33 0 45 -14l89 -94q3 -3 3 -7q0 -7 -13 -22l-8 -9q-7 -8 -14.5 -11.5t-11.5 0.5z" />
    <glyph glyph-name="dieresis.case" horiz-adv-x="350" 
d="M27.5 781.5q-16.5 16.5 -16.5 40.5t16.5 40.5t40.5 16.5t40.5 -16.5t16.5 -40.5t-16.5 -40.5t-40.5 -16.5t-40.5 16.5zM240.5 781.5q-16.5 16.5 -16.5 40.5t16.5 40.5t40.5 16.5t40.5 -16.5t16.5 -40.5t-16.5 -40.5t-40.5 -16.5t-40.5 16.5z" />
    <glyph glyph-name="dotaccent.case" horiz-adv-x="350" 
d="M135 802q-17 17 -17 40t17 39.5t40 16.5t39.5 -16.5t16.5 -39.5t-16.5 -40t-39.5 -17t-40 17z" />
    <glyph glyph-name="grave.case" horiz-adv-x="350" 
d="M169 772l-94 128q-4 5 5.5 9.5t34.5 4.5h13q40 0 46 -11l73 -128q6 -12 -32 -12h-9q-30 0 -37 9z" />
    <glyph glyph-name="hungarumlaut.case" horiz-adv-x="350" 
d="M21 765q-5 3 -2 10l64 128q5 11 42 11h10q47 0 38 -14l-84 -128q-6 -10 -34 -10h-8q-21 0 -26 3zM189 765q-5 3 -2 10l64 128q5 11 42 11h10q47 0 38 -14l-84 -128q-6 -10 -34 -10h-8q-21 0 -26 3z" />
    <glyph glyph-name="macron.case" horiz-adv-x="350" 
d="M27 833v12q0 29 10 29h275q10 0 10 -29v-12q0 -32 -10 -32h-275q-10 0 -10 32z" />
    <glyph glyph-name="ring.case" horiz-adv-x="350" 
d="M109 768.5q-28 26.5 -28 63.5t28 63.5t66 26.5q39 0 66.5 -26t27.5 -64t-27.5 -64t-66.5 -26q-38 0 -66 26.5zM204.5 802q11.5 12 11.5 30t-11.5 30t-29.5 12t-30 -12t-12 -30t12 -30t30 -12t29.5 12z" />
    <glyph glyph-name="tilde.case" horiz-adv-x="350" 
d="M203.5 775q-13.5 5 -30.5 14q-19 9 -31 13.5t-27 4.5q-30 0 -53 -27q-1 -1 -4 -1q-8 0 -22 19l-7 10q-14 19 -8 27q17 21 42 34t54 13q20 0 33.5 -5t34.5 -15q16 -9 26.5 -13t24.5 -4q26 0 51 27q2 2 4 2q7 0 22 -17l6 -8q6 -8 8.5 -15.5t-0.5 -11.5q-16 -22 -40.5 -37
t-52.5 -15q-17 0 -30.5 5z" />
  </font>
</defs>
</svg>
