<?xml version="1.0" standalone="no"?>
<!DOCTYPE svg PUBLIC "-//W3C//DTD SVG 1.1//EN" "http://www.w3.org/Graphics/SVG/1.1/DTD/svg11.dtd" >
<svg xmlns="http://www.w3.org/2000/svg">
<metadata>
Copyright (c) 2016 by Fontsmith Ltd. All rights reserved. This font may not be altered in any way without prior permission of Fontsmith Ltd.
</metadata>
<defs>
<font id="JustScriptWeb-Regular" horiz-adv-x="461" >
  <font-face 
    font-family="Just Script Web"
    font-weight="400"
    font-stretch="normal"
    units-per-em="1000"
    panose-1="2 2 8 3 5 4 2 2 2 3"
    ascent="800"
    descent="-200"
    x-height="573"
    cap-height="601"
    bbox="7 -110.286 1055 689"
    underline-thickness="104"
    underline-position="4"
    unicode-range="U+000D-2122"
  />
<missing-glyph horiz-adv-x="560" 
d="M50 689h460v-689h-460v689zM426 643h-275l138 -240zM259 352l-163 283v-566zM464 605l-146 -253l146 -253v506zM435 46l-146 255l-147 -255h293z" />
    <glyph glyph-name=".notdef" horiz-adv-x="560" 
d="M50 689h460v-689h-460v689zM426 643h-275l138 -240zM259 352l-163 283v-566zM464 605l-146 -253l146 -253v506zM435 46l-146 255l-147 -255h293z" />
    <glyph glyph-name=".null" horiz-adv-x="0" 
 />
    <glyph glyph-name="nonmarkingreturn" unicode="&#xd;" horiz-adv-x="255" 
 />
    <glyph glyph-name="space" unicode=" " horiz-adv-x="255" 
 />
    <glyph glyph-name="A" unicode="A" horiz-adv-x="503" 
d="M386 3q-1 0 -3 2l-4 13q-3 2 -5.5 9t-4.5 12q-21 48 -36 85q-4 6 -13 6h-4q-28 -1 -94 -4t-67 -4l-38 -100q-2 -9 -13 -15q-11 -7 -20 -7l-1 0.5t-2 0.5l-8 2q-1 0 -5.5 2.5t-9.5 3.5l-25 6q-21 7 -21 26q0 7 3 16l164 518q1 6 9 12q7 6 18.5 8.5t14.5 3.5t9 1
q19 0 30 -2.5t16 -13.5l4 -7q11 -27 32.5 -84t33.5 -89q10 -25 13 -31l78 -194q2 -9 20 -52l29 -73q2 -8 2 -11q0 -9 -7 -9q-1 -3 -4 -3.5t-7 2.5q0 -1 2 -2.5t1.5 -2.5t-6.5 -3q-2 -1 -8 -1q0 -1 -3 -5t-8 1q0 -5 -5 -7q-1 0 -4.5 -1t-6.5 1q-2 -5 -6.5 -6.5t-10.5 -0.5
l-4 1q-1 -6 -6 -1q-1 0 -3 -1t-3 0q-7 -7 -10 -6zM278 236h15l-47 121l-39 -115v-1l1 -2q0 -2 1.5 -2.5t3.5 -0.5l42 -1q8 1 23 1z" />
    <glyph glyph-name="B" unicode="B" horiz-adv-x="472" 
d="M119 -18q-3 0 -4 -1l-3 -1q-2 -1 -4.5 0.5t-3.5 3.5q-2 6 -2 11q0 1 -2 3q-2 1 -4 1.5t-2 1.5t-1 0.5t-2 -0.5q-3 0 -4 1q-2 2 0 4l3 4q1 1 0 2t-2 1l-2 1q-2 1 -4 2.5t-3 3.5q0 1 2 5l-1 1q-1 1 -3 1l-1 7l-3 -3q-3 -3 -5 -1q-1 1 -1 3l1 4q-3 0 -5 1l-2 1l-1 2
q0 2 1.5 7.5t1.5 9.5q0 10 -1.5 20t-1.5 18q0 22 4 66q3 32 3 48l1 35l2 128q0 66 -2 80q-3 21 -3 28l-2 29q0 3 1.5 9.5t2.5 10.5q1 6 2.5 10.5t2.5 8.5q1 8 3 10q10 20 44.5 29.5t81.5 9.5q59 0 109 -12q33 -8 67 -46q11 -12 13.5 -27t2.5 -42v-16q0 -16 -1 -26
q-1 -5 -5.5 -20.5t-16 -35.5t-30.5 -33q32 -10 52 -25.5t38 -44.5q14 -22 14 -75q0 -14 -3 -29q-16 -82 -59 -121.5t-129 -56.5q-7 -1 -46.5 -9.5t-65.5 -8.5q-22 0 -22 12zM219 357q13 3 23 9q21 12 33 32q0 31 -2 42q-2 16 -9 28q-10 15 -19 20q-12 6 -33 6h-17v-140
q11 0 24 3zM232 91q35 7 43 14q11 9 15 17l3 5q12 25 15 49q2 16 2 22q0 43 -29 49l-26 4h-4q-9 0 -20 -3q-7 -1 -14.5 -2.5t-12.5 -3.5t-11 -6l-1 -31q-1 -7 0 -15.5t0 -15.5l-1 -80q4 -3 11 -4l16 -1q2 0 14 2z" />
    <glyph glyph-name="C" unicode="C" horiz-adv-x="423" 
d="M201 1q-10 0 -15 3q-41 17 -62.5 29t-21.5 13q-6 8 -17 22.5t-17 22.5l-6 12l-4 12l-8 16l-20 168v5v7l1 16l2 33l3 33q0 8 1 12t1 5q12 51 40 101l6 10l14 15l16 16l12 11q13 10 27 15q13 8 27 12q14 5 32 7q12 3 19 3q16 0 34 -2q15 -1 29 -6q12 -3 25 -11
q14 -7 27 -18q2 -1 3.5 -3t4.5 -4l5 -8q2 -3 4 -8t5 -11q10 -21 16.5 -40.5t9.5 -48.5v-3v-5q0 -7 -1 -13t-5 -18q-3 -8 -9 -14q-5 -7 -13 -7h-63q-8 0 -18 8q-9 9 -9 15q-5 35 -20 58q-1 4 -8 8q-5 4 -10 4q-14 0 -20 -5q-7 -4 -13 -12q-2 -2 -7 -6t-5 -8l1 -3
q-1 -2 -4 -6.5t-3 -6.5q-1 -1 -5 -12q-2 -5 -3.5 -9.5t-3.5 -9.5l-6 -20l-3 -12v-89q1 -5 1 -12l7 -77q3 -24 10 -37q3 -8 14.5 -13.5t20.5 -5.5q13 0 29 10q7 5 12 16l9 21q1 2 5 14.5t14 41.5q13 16 19 20q5 4 11 4h7l4 -3q6 2 8 1q1 -1 2.5 -2t2.5 -4q2 2 4 2t8 -4
q4 -4 6 -4l4 2l4 2q3 0 7 -4q6 -3 9 -3q2 0 4 2l4 1q7 -2 7 -10q2 -9 4 -12q-1 -37 -3.5 -55.5t-3.5 -22.5q-1 -5 -9 -25.5t-27 -60.5q-7 -18 -25 -29t-38 -17q-18 -6 -41 -8q-30 -2 -37 -2q-12 0 -18 1z" />
    <glyph glyph-name="D" unicode="D" horiz-adv-x="520" 
d="M113 7q-6 2 -15.5 28t-9.5 31q0 4 -2.5 16.5t-4.5 26.5l-1 14q0 16 -1 25l-1 30q-1 11 -1 31q-2 18 -2 25v14l-3 134q0 27 3 54q2 28 2 38q0 8 -1 11q-6 7 -11 19t-5 24q0 2 1.5 5.5t1.5 5.5q0 11 6.5 18t23.5 18q8 5 18.5 8.5l13.5 4.5l14 3q9 3 15 3l11 1
q10 -1 34 -4.5t29 -5.5q6 -1 30 -6.5t30 -8.5l75 -26l21 -11q11 -8 21 -18q9 -9 12 -13q2 -4 12 -16.5t18 -25.5q12 -19 25 -70.5t13 -59.5v-8l1 -11q0 -3 1.5 -8t1.5 -12l1 -12q0 -11 -2 -37q-1 -11 -10 -36l-29 -82q-13 -31 -34.5 -50t-40.5 -27q-16 -9 -48.5 -17
t-82.5 -17l-43 -9q-22 -4 -39 -4q-29 0 -48 7zM291 147q8 3 21 17q7 8 19 30q5 9 14 36q5 16 5 32q0 37 -4 62t-16 51q-1 3 -5 12t-8.5 15.5t-10.5 12.5q-19 18 -44 28q-2 1 -4 2.5t-8 2.5l-9 5q-8 2 -10 2q-3 2 -25 2v-24q1 -2 1 -22q0 -21 -1 -25v-28l-1 -28l-1 -24v-19
q0 -3 2 -11q0 -2 0.5 -19.5t-0.5 -23.5q-2 -9 -2 -56v-55z" />
    <glyph glyph-name="E" unicode="E" horiz-adv-x="421" 
d="M99 2q-9 0 -17 6q-9 12 -11 18q-5 12 -5 24q-2 9 -2 26v18l-4 193l1 104q2 37 8 103q1 3 1 9t2 14l3 26v3l-1 15q0 10 6 15q21 16 33 16q5 0 11.5 2t9.5 3q12 4 39 4q18 0 38 -2q5 -1 11 -2t15 -1l58 -5q30 -2 45 -4l45 -5q25 -2 25 -6v-36q0 -6 1 -11v-15q0 -15 -2 -21
q0 -1 -42.5 -5.5t-163.5 -10.5l-3 -86v-8q0 -8 1 -14l2 -8h125q11 0 19 -5q6 -5 13 -15q6 -10 7 -18q2 -6 2 -18q-1 -8 -2.5 -12t-2.5 -5l-5 -12l-7 -14l-5 -9l-15 -3l-132 -15q-2 -18 -2 -26l-2 -77q0 -2 1 -6.5t3 -8.5q55 -4 136 -4q14 0 26 -2q11 -4 13 -6q5 -3 5 -7
l1 -14l-4 -32l-3 -16q-3 -6 -4.5 -10.5t-5.5 -9.5q-2 -2 -34 -3t-47 -1l-181 -10h-3z" />
    <glyph glyph-name="F" unicode="F" horiz-adv-x="379" 
d="M95 2q-5 0 -8 3q-4 4 -6.5 13t-2.5 16q0 2 -0.5 7.5t-0.5 15.5q-7 95 -14 218q-3 66 -3 134v69l3 68v5l3 9l3 10q3 5 6 6q63 13 87 18t26 5q5 1 15 1h22q11 0 17 -1l91 -9q14 -3 21 -3q7 -1 16 -8q9 -6 9 -14l-2 -19l-6 -28q-2 -5 -3.5 -11.5t-4.5 -13.5q-3 -11 -6 -11
h-171l-1 -57q0 -36 2 -40l124 -9q7 -1 9 -10q3 -9 3 -18v-1l-5 -46q-1 -3 -2.5 -10.5t-5.5 -9.5q-5 -3 -11 -4.5t-12 -1.5h-90l2 -33q1 -28 4 -81t2 -59l-3 -40l-2 -25l-4 -14l-4 -13q-1 -2 -5.5 -4t-8.5 -2q-3 0 -4.5 1t-4.5 1q-3 -1 -8 -2.5t-8 -2.5q-3 0 -5.5 1.5
t-5.5 1.5q-4 0 -7.5 -2t-7.5 -2q-3 0 -7 1.5t-7 1.5q-1 0 -10 -3q-3 2 -8 2z" />
    <glyph glyph-name="G" unicode="G" horiz-adv-x="480" 
d="M168.5 24.5q-46.5 21.5 -81 63t-44.5 96.5q-13 75 -13 118q0 34 6 61q11 61 25 102.5t68 85.5t158 44q30 0 47 -2q22 -2 54 -24t48 -43q8 -11 15 -22t10 -23l3 -11v-5l1 -6v-6q0 -5 -2 -21q-2 -12 -7 -22q-2 0 -7.5 -4t-9.5 -7q-12 -7 -28 -7q-12 0 -17 -2h-9q-6 0 -9 -1
l-16 -6q-10 6 -15 18q-1 4 -2 10t-4 13l-8 22q-11 27 -25 37q-9 6 -28 6h-16t-24 -6q-30 -19 -47.5 -53t-20.5 -96q-2 -44 -2 -59q0 -50 14 -87.5t36 -57.5t45 -20h3q9 0 19 3q7 2 15.5 7.5t11.5 11.5q10 10 16.5 27t8.5 21t2 12.5t1 10.5t-2 4t-3 4q-1 1 -4.5 2.5t-7.5 1.5
h-41q-6 2 -12 2q-7 1 -14 5q-13 5 -13 15q0 1 -0.5 5t1.5 8l2 5l-3 6q2 7 4 8q-2 6 -2 14q0 4 3 7q0 5 1 9q1 5 11.5 8.5l13.5 4.5q3 2 23 9q10 2 24 4q8 1 26 1h24q15 -1 30 -4q14 -1 29 -8q6 -3 12.5 -6.5t7.5 -4.5l7 -24q2 -8 4 -20q1 -6 1 -18q1 -6 1 -21l-1 -32
q-1 -11 -9 -33q-2 -2 -2 -12q-23 -63 -74.5 -101.5t-116.5 -38.5q-45 0 -91.5 21.5z" />
    <glyph glyph-name="H" unicode="H" horiz-adv-x="509" 
d="M448 354q1 -43 1 -117q0 -51 -2 -75q-3 -30 -3 -87q0 -14 -1 -24.5t-2 -17.5q-1 -8 -8 -15q-9 -9 -16 -9q-4 0 -7.5 1t-5.5 1q-1 0 -4 -3.5t-5 -3.5q-5 0 -9.5 2.5t-7.5 2.5t-5 -1.5t-5 -1.5q-6 4 -9 5l-4 1l-4.5 1.5t-5.5 0.5h-9l-7 -1q-1 0 -2.5 3t-4.5 3h-5
q-2 0 -5.5 6t-3.5 11q0 4 -1 8t-1 7v171h-15q-6 3 -21 3h-74q-1 0 -1 -90q0 -30 3 -45q0 -12 1.5 -22.5t1.5 -19.5q0 -15 -6 -21q-3 -6 -15 -12t-21 -9q-2 -1 -14.5 -2.5t-36.5 -3.5q-12 3 -24 15t-15 21q-2 7 -3 13.5t-3 13.5q-3 14 -3 27v132l6 240q0 10 2 28l1 23v33
q3 12 9 24t9 15q6 6 15 6q4 0 10.5 1.5t13.5 1.5l12 3h6q20 0 28 -12q6 -12 6 -24q6 -20 10 -31t5 -14t4 -17.5t4 -42.5l3 -57v-48q0 -2 1 -4t2 -2h102q2 0 2.5 3t0.5 9l-3 90l-1 89q0 25 4.5 36t12.5 18q10 10 29 10h53q22 0 31 -15q2 -3 4 -6.5t2 -5.5q3 -6 3 -12v-51z
" />
    <glyph glyph-name="I" unicode="I" horiz-adv-x="315" 
d="M25.5 6q-7.5 5 -9.5 9l2 4q2 2 2 4l0.5 2.5t-1.5 5.5q-5 4 -5 6v1q0 2 2 4l1 3q3 5 0 7q-3 6 -2 7q0 2 -1 3.5t1 2.5l-1 6l2 6v9q1 5 5 8t11 5q5 2 21.5 4t37.5 2h2l-1 21v99q-1 14 -1 42v103q0 28 1 42v81l-44 1q-14 0 -19 12l-4 68q2 6 7 10l9 7q4 1 20 3l40 3
q11 0 31 2l20 2h12l128 -15q2 0 4.5 -1.5t4.5 -2.5q4 -4 4 -9q0 -3 -1 -4l-2 -18q0 -4 -1 -7q0 -6 -1 -9q-2 -6 -2 -9q-2 -4 -2 -19l-2 -7q-2 -5 -6 -8q-6 -3 -14 -3q-24 0 -44 -1l-4 -2v-3q0 -40 -1 -118t-2 -116v-73q-2 -32 -2 -47q0 -25 5 -26l36 -2q6 0 24 -3
q8 -3 13 -6q3 -2 5 -8v-13q-4 -27 -6 -37.5t-3 -11.5l-8 -10l-8 -9q-1 -1 -19 -1l-55 1l-165 -2q-7 0 -14.5 5z" />
    <glyph glyph-name="J" unicode="J" horiz-adv-x="395" 
d="M179 2l-21 1q-15 0 -35 5.5t-32 13.5q-76 48 -76 156q0 17 1 26l0.5 -0.5t3.5 1.5q4 2 6.5 0.5t3.5 -1.5q2 1 3 2l2 2q2 2 8 2q3 0 4 1l2 2q2 0 4.5 -1t3.5 0q1 2 1.5 4t2.5 3q1 1 4 0t4 -1h1q2 1 5 4t5 3q3 -1 3 1l1 3q0 1 2 3q1 0 3.5 -1t6.5 0q2 1 4.5 2.5t4.5 2.5
q4 1 9 1h1q4 -3 6 -15.5t2 -14.5q9 -32 17 -53q3 -12 11 -18t18 -6q7 0 14 3q16 6 24 15t10 25q3 20 3 43q0 59 -4 119l-4 56q-6 68 -6 102q0 38 5.5 64t23.5 29l62 9h2q7 0 16.5 -6t10.5 -12q17 -139 17 -264q0 -38 1 -58l1 -62q0 -83 -33 -129q-15 -21 -30 -31.5
t-42 -20.5q-14 -7 -23 -10q-5 -2 -16 -2q-8 0 -22 2z" />
    <glyph glyph-name="K" unicode="K" horiz-adv-x="429" 
d="M122.5 3q-7.5 2 -9.5 3q-12 4 -36 18l-12 6q-5 4 -5 9l15 528q1 12 12 20q4 0 14 3q5 1 22 5q7 2 21 4l15 2q3 0 10 -5q5 -5 8 -11q3 -4 4 -7t2 -5l3 -6l12 -134l115 157l3 2l4 1q11 0 19 -1q16 -2 24 -4q14 -4 21 -8q9 -6 9 -14q0 -11 -8 -33q-6 -20 -18 -46
q-9 -22 -27 -53l-31 -53q-23 -36 -32 -47q-18 -23 -30 -35q-2 0 -4 -6q-4 -5 -4 -8l4 -5q1 -3 4 -6l168 -165q1 0 3 -5l1 -6q0 -2 -3 -5t-3 -5q0 -6 -1 -8q-2 -3 -5.5 -5t-5.5 -5q-1 -2 -2.5 -3t-2.5 -2t-1.5 -4.5t-2.5 -6.5q-3 -3 -7 -5q-1 0 -1 -2.5t-3 -5.5l-8 -5
q-2 -1 -3.5 -3.5t-4.5 -4.5l-7 -2q-2 -1 -5 -3t-5 -2q-4 0 -9 3l-153 122l-4 -107q0 -7 -1.5 -12t-2.5 -6q-17 -20 -40 -20q-8 0 -15.5 2z" />
    <glyph glyph-name="L" unicode="L" horiz-adv-x="374" 
d="M97 4q-1 1 -14 22q0 1 -1 1l-1 2l-1 4q-6 11 -8 22t-3 27q-2 34 -2 49l1 39v50q0 42 -3 82q-2 42 -2 62l-1 46q-2 64 -2 97v3q0 10 1 16q0 8 2 20q1 5 5 18q4 7 12 10l70 26h3q10 0 17 -16q6 -13 13 -36q6 -19 9 -36l3 -18q1 -5 1 -11t1 -12l2 -37l3 -43l1 -22
q1 -7 1 -21q0 -26 1 -36l2 -24v-46q0 -15 -1 -23l-1 -24q0 -31 -1 -45v-29h118l14 -1l1.5 -1.5t2.5 -1.5q1 -1 2 0t3 0q1 -1 0 -3.5t0 -2.5t3 -2l1 -1l-1 -6q0 -2 -1 -3.5t-1 -4.5q0 -2 1 -4.5t1 -5.5q0 -2 -1.5 -4.5t-2.5 -4.5q0 -2 1.5 -3.5t1.5 -3.5t-1.5 -3t-1.5 -2
t1 -2.5t1 -2.5q0 -2 -2 -3.5t-2 -3.5q0 -3 1.5 -6t1.5 -4q0 -3 -2 -5.5t-2 -5.5l1 -9q0 -7 -4.5 -11.5t-10.5 -4.5l-21 -1q-6 0 -12.5 -1t-13.5 -1q0 -2 -32.5 -4.5t-126.5 -2.5q-16 0 -24 9z" />
    <glyph glyph-name="M" unicode="M" horiz-adv-x="602" 
d="M461 5q-2 0 -5 -2t-4 -1q-3 0 -7 3t-6 4t-7 2t-7 6q-6 14 -6 30l-4 28q0 8 -2 26q0 13 -3 25q-2 21 -3.5 62t-2.5 65l-2 35q-2 21 -5 29l-43 -90q-1 -3 -5 -8t-6 -7q-4 -7 -13 -7l-51 -6h-3q-9 0 -13 4l-6 10l-62 123q-2 -8 -2 -21v-73q0 -195 -6 -195q-5 -38 -26 -40
q-30 -5 -49 -5h-14l-8 1q-2 0 -10 5q-6 5 -6 8l-11 220q-1 8 1 26l1 22q0 36 -3 72q-2 24 -2 72v15l1 14v46q0 8 1.5 19t2.5 18q1 14 11 32q6 15 18 16l55 13h5l9 -2q5 0 9 -4q24 -34 35.5 -53t14.5 -23q3 -3 13 -17.5t29.5 -48t45.5 -85.5q34 63 68 114q9 13 15 23.5
l10 17.5q13 25 21 34q11 11 20 13.5t10 2.5q10 3 19 3h21l5 -2q1 -1 6 -1l7 -3l14 -37l14 -313v-29q0 -44 1 -66q1 -23 1 -67v-15l-1 -28q0 -3 -3.5 -2t-5.5 1q-4 0 -5 -1q-2 -1 -5.5 -1.5t-6.5 -0.5t-8 -3.5t-8 -3.5q-4 0 -6.5 1.5t-4.5 1.5h-1q-4 -1 -7 -3.5t-8 -2.5z" />
    <glyph glyph-name="N" unicode="N" horiz-adv-x="541" 
d="M365 17.5q-10 10.5 -20 27.5q-8 12 -13 22q-1 6 -87 168q-44 81 -46 87l-1 2q0 5 -6 11q-1 1 -3 1q-1 0 -1 -2l-1 -3v-14v-5q1 -5 2 -78l1 -36v-4l4 -138l-1 -23q0 -6 -15 -13.5t-38 -11.5l-7 -2q-33 1 -45 7t-15 16q-3 2 -3 5q-3 12 -3 13q0 4 -1 5l-2 13l-1 18v17
l-2 116l-1 41q0 52 3.5 150.5t7.5 124.5q0 5 1 7q2 10 4 16q1 8 9 10q1 0 7 2.5t72 7.5l8 2q2 1 7 1q6 0 8 -1q5 -2 7.5 -7t4.5 -8l56 -97l4 -8l6 -9q4 -6 39 -78.5t48 -102.5q2 -3 3 -2q1 3 1 10v10l-2 116v10q0 51 2 71l2 23l2.5 20t1.5 21v11q0 8 1 11q3 6 7 6q2 0 4 -2
t4 -3q1 0 3.5 3t3.5 3q2 1 3.5 -2t3.5 -3t4.5 3t5.5 3q2 0 3 -1q1 0 4 -3q1 0 4 3q1 0 2.5 -1t3.5 1q1 1 2 -1.5t2 -2.5t3.5 3t3.5 3t2 -0.5t2 0.5l2 2q1 0 2.5 -1.5t2.5 -1.5t1.5 1.5t2.5 1.5q1 0 2.5 -1.5t2.5 -1.5t2.5 1.5t2.5 1.5q2 2 5 1q0 -1 2 -1q6 0 7 -7
q4 -11 5 -19v-6q1 -4 3.5 -206t3.5 -282q0 -21 -6 -29l-5 -5q-12 -12 -35 -18.5t-43 -6.5h-3q-14 7 -24 17.5z" />
    <glyph glyph-name="O" unicode="O" horiz-adv-x="532" 
d="M199 5q-12 5 -24 11q-48 23 -77 58t-40.5 64.5t-20.5 64.5q-2 9 -4.5 30.5t-2.5 36.5q0 96 30 171q16 40 48.5 78.5t64.5 59.5q12 8 36 13q14 4 37 6h13q38 0 61 -3.5t46 -16.5q41 -22 72 -62q32 -43 47 -91q17 -56 17 -110q0 -32 -10.5 -79.5t-10.5 -49.5l-1 -2l-23 -58
l-15 -26q-20 -35 -61 -65q-41 -31 -80 -31l-47 -4h-32q-11 0 -23 5zM334.5 176.5q26.5 55.5 26.5 129.5q0 25 -3 49q-1 5 -3 21t-5 23v1q-4 8 -6.5 16t-5.5 14q-12 26 -30 36t-35 10q-7 0 -21 -3.5t-20 -7.5q-19 -13 -34.5 -46t-21.5 -70q-6 -40 -6 -77q0 -43 12 -77.5
t31.5 -54t41.5 -19.5q53 0 79.5 55.5z" />
    <glyph glyph-name="P" unicode="P" 
d="M72 5l-6 2h-6v47l10 521q2 2 5.5 8t7.5 6q82 11 201 11q50 0 83 -19q34 -20 47 -44q19 -32 22 -53q5 -32 5 -49q0 -24 -9 -53q-10 -31 -25 -53q-17 -25 -39 -41q-13 -9 -32.5 -16.5t-20.5 -8.5q-42 -20 -89 -20q-12 0 -21 1t-11 2v-7q0 -22 1 -27v-23q0 -40 -3 -81
l-7 -79q-1 -11 -6 -16.5t-12 -5.5l-8 1q-4 0 -6 -1q-3 -1 -7.5 -3.5t-7.5 -2.5q-2 0 -4.5 2t-3.5 2h-1q-4 -1 -6.5 -2.5t-5.5 -1.5q-5 0 -6.5 2t-6.5 2l-11 -5l-8 2q-2 1 -4 -0.5t-3 -1.5q-6 2 -6 5zM203.5 352q10.5 1 20.5 2q35 7 45 13q3 2 24 23q15 15 15 36v14
q0 16 -4 22q-4 7 -17.5 17t-20.5 12q-6 2 -10 2q-7 0 -14.5 -1.5t-15.5 -1.5q-11 0 -23 -2.5t-20 -3.5v-133q10 0 20.5 1z" />
    <glyph glyph-name="Q" unicode="Q" horiz-adv-x="540" 
d="M345 -20q-16 12 -43 50q-9 -9 -17 -12q-1 -1 -17 -8.5t-39 -7.5q-19 0 -58 21q-28 15 -53.5 38.5t-36.5 42.5q-51 91 -51 194q0 63 20.5 118.5t49 93.5t51.5 53q62 41 132 41q50 0 102 -24q57 -27 88.5 -89t35.5 -126v-5q0 -5 1 -9v-10q0 -74 -16 -131.5t-51 -106.5
l-36 -36q1 -2 8.5 -16t10.5 -24q3 -12 3 -15t-5 -8q-1 -1 -3 -2t-2 -3v-3.5t-2 -3.5q-5 -3 -7 -6l-3 -4q-2 -3 -9 -4q-1 0 -3.5 -2t-6.5 -2q-3 0 -6.5 1t-6.5 1q-2 0 -4 -2.5t-3 -2.5q-11 0 -23 9zM250 135q-1 10 14 32t21 28q3 3 9 3t15 -7l15 -14l13 -14l10 -11q2 8 9 19
q10 19 15 34q7 20 10.5 54t3.5 56v8q-2 44 -7 71t-23.5 52.5t-56.5 38.5q-12 4 -31 4q-29 0 -53 -32t-32 -52q-16 -32 -16 -77v-82q0 -42 24.5 -80.5t63.5 -46.5q-4 8 -4 16z" />
    <glyph glyph-name="R" unicode="R" 
d="M84 0q-6 0 -8 10q-2 8 -2 12v12l-1 85q0 28 1 42q4 56 4 128q0 56 -5 100q0 4 -5.5 52.5t-6.5 77.5l-1 11l3 9l6 13q5 10 8 14q2 2 41 12.5t64 14.5q53 9 84 9q28 0 49.5 -6.5t49.5 -22.5q37 -20 54 -49t17 -68q0 -28 -3.5 -49t-13.5 -50q-7 -19 -20 -36
q-29 -37 -44 -50.5t-41 -19.5q0 -2 42 -71l24 -39q2 -4 13.5 -22.5t18.5 -25.5q2 -2 2 -8q0 -2 -1 -3t-4.5 -4t-3.5 -5q0 -5 -1 -8t-2.5 -5t-2.5 -4q-1 -4 -2.5 -7.5t-1.5 -5.5q-1 -4 -5 -8q-1 -1 -4 -2t-5 -3t-3 -4l-2 -4q-7 -3 -10 -5q-4 -4 -5 -7h-3q-10 -3 -18 1.5
t-15 11.5t-10 9l-111 170l-6 3l-14 -172q-3 -19 -25 -26.5t-51 -7.5zM279 358q8 6 16 24q3 7 7 30q3 15 3 39q0 4 -3.5 12t-8.5 11q-24 15 -55 15q-21 0 -31 -7v-147q44 0 72 23z" />
    <glyph glyph-name="S" unicode="S" horiz-adv-x="407" 
d="M176 2q-12 2 -17 3q-32 6 -54 16q-20 10 -39 29q-12 11 -20.5 27t-17.5 42q-4 12 -2 25q0 1 2 1q1 0 4.5 -1.5t6.5 2.5q4 5 9 4.5t6 1.5q2 3 3 6t2 3h7q2 2 2.5 5t1.5 3h2q2 0 4.5 -1t3.5 0q2 2 3 5t3 4q4 2 6 2q3 0 9 -3q1 2 3.5 4t4.5 4q3 3 6 2.5t5 -0.5q4 0 5.5 2
t2.5 2q9 0 13 -3l16 -26q2 -3 4 -8t8 -8q2 -6 11.5 -10.5t10.5 -5.5q8 -5 20 -5q19 0 32 13t13 23q0 15 -1 21q-1 4 -8.5 12.5t-12.5 13.5l-124 81q-35 22 -55 55t-20 75q0 52 23 92q12 21 39 45q23 20 68.5 32.5t87.5 12.5q21 0 43 -10q32 -14 45 -27q15 -16 25 -38
q9 -17 16 -41v-2q1 0 1 -2l-1 -1v-5q0 -1 0.5 -5t-1.5 -8l-1 -19q-1 -5 -3 -10.5t-3 -11.5q-33 -12 -60 -17.5t-27 -4.5l-5 -1q-10 0 -12.5 6.5t-2.5 7.5q-4 9 -5 18t-6 18q-1 4 -6.5 10.5t-10.5 9.5q-7 6 -20 6q-5 0 -18 -4.5t-21 -11.5q-14 -11 -14 -27q0 -13 8 -24.5
t16 -17.5l119 -74q45 -28 61.5 -61.5t16.5 -78.5q0 -40 -20.5 -80t-61 -66.5t-97.5 -26.5l-10 -1q-10 0 -22 2z" />
    <glyph glyph-name="T" unicode="T" horiz-adv-x="432" 
d="M199 1.5q-3 1.5 -6 1.5q-2 0 -5.5 -1.5t-4.5 0.5q-5 1 -7.5 3t-2.5 9l-1 5q0 2 2 14l-14 429l-2 8l-2 6l-128 13q-7 0 -7 5q-1 3 -1 10v9l1 14l3 21l3 21q0 6 2 12.5t4 9.5q3 6 20 6h5l7 -1l297 4q21 0 27 -2q11 -3 15 -7q3 -2 5 -8q1 -6 2 -20.5t1 -30.5q0 -12 -1 -15
q-1 -13 -13 -25q-51 -7 -73 -9.5t-25 -2.5l-4 -4v-74q1 -16 1 -52v-116q0 -37 -1 -54v-90q0 -8 -2 -26l-1 -26q0 -21 -2 -27q-8 -8 -13 -6q-4 3 -8 1l-8 -3h-1l-9 1q-4 0 -6.5 -1t-6.5 -2q-2 0 -5 1.5t-6 1.5t-5.5 -1.5t-7.5 -0.5t-7.5 -0.5l-2.5 -1.5q-3 0 -6 1.5z" />
    <glyph glyph-name="U" unicode="U" horiz-adv-x="499" 
d="M175 7q-35 12 -60 33q-26 22 -43 51q-14 25 -14 70v41q0 31 -4 89l-3 50q-1 45 -1 139v13l2 16l3 24q2 16 4 23l3 15q11 12 31 20q10 3 25 5.5t26 2.5q8 0 18 -8q9 -11 9 -17l15 -318q1 -8 0.5 -17.5t-0.5 -13.5l2 -26q0 -8 1 -14.5t2 -11.5q3 -17 8 -29t19 -20
q6 -4 25 -4q20 0 32 15q12 12 20 35q7 16 11 41q3 21 3 33v299q3 21 4 33t1 15q0 7 10 0q1 1 2.5 3.5t6.5 2.5q1 0 2.5 -1.5t3.5 -1.5t4 1.5t6 1.5q1 0 2.5 -1.5t3.5 -1.5t5.5 3t7.5 3q3 0 5.5 -1.5t5.5 -1.5t6 1.5t6 1.5h16q2 0 6.5 -3t7.5 -3t10 5q2 0 3 -3q2 -2 4 -6
l3 -8q1 -1 1 -4l2 -35q4 -46 4 -68q0 -3 0.5 -30t0.5 -100q0 -23 -2 -70t-4 -60q-1 -25 -5 -53q-1 -9 -1.5 -15t-1.5 -8q-9 -26 -15 -38.5t-8 -14.5q-13 -20 -53 -57q-1 0 -2.5 -1t-4.5 -2l-15 -8l-17 -7q-10 -5 -14 -6q-1 -1 -12 -3l-15 -1q-5 -1 -16 -1h-16q-50 0 -72 7z
" />
    <glyph glyph-name="V" unicode="V" horiz-adv-x="544" 
d="M247 4.5q-23 2.5 -23 3.5l-9 9q-1 2 -2.5 4t-3.5 5q-5 5 -6 9l-87 246l-99 255q-4 8 -4 17q0 11 4 16l51 28l20 5q3 1 10 1q13 0 23 -5q9 -4 11.5 -10.5t3.5 -7.5l146 -408l127 364l6 12q7 15 19 25q3 2 5.5 4.5t4.5 3.5q9 3 10 3l3 -1q1 -1 1.5 -2t2.5 -2q4 0 7 1.5
t5 1.5l2 -1q4 -2 3.5 -3.5t0.5 -3.5q3 2 5 2t3 -6q4 3 9 3l3 -1q4 -1 5 -3t2 -3q4 3 9 0q2 0 2 -2t1 -4q2 -2 6 -2t5 -2t3 -4q5 3 7 3q5 0 5 -6l-20 -54l-163 -469l-9 -18q-3 -6 -15 -6q-67 0 -90 2.5z" />
    <glyph glyph-name="W" unicode="W" horiz-adv-x="636" 
d="M187 -3l-28 21l-7 7q-5 5 -5 9l-133 510q-1 2 -1 6q0 5 4 9q14 14 31 22l51 19q2 0 14 -4q8 -3 10 -12l86 -340q2 0 25 121q22 113 25 126q0 1 6 1q8 5 19 5q4 0 10.5 1t11.5 0l22 -3q5 -1 9.5 -0.5t8.5 -0.5q7 0 7 -6q2 -14 4 -20l11 -42q50 -185 52 -185q5 10 8 22
l6 26l7 23q13 43 39 130t38 132q0 3 4.5 10.5t11.5 7.5q4 0 7 -1t5 -2h1q2 0 4.5 1t6.5 1q9 0 12 -2.5t4 -3.5q2 -1 6 -1l13 1q2 0 6.5 -5.5t6.5 -7.5t7 0t7 -1t4.5 -3t3.5 -3q0 -1 4 -1.5t4 -4.5q0 -9 -8 -34.5t-9 -29.5q0 -4 -38 -153.5t-54 -211.5q-29 -94 -29 -102
q-2 -8 -7 -12q-12 -6 -15 -7q-10 -4 -15 -5q-4 -1 -31 4t-31 7l-13 6q-12 7 -22 20q-3 4 -5.5 12t-6.5 24q-16 72 -22 98t-7 29l-13 42l-7 -46l-15 -83l-3 -16q-2 -6 -4 -12.5t-4 -13.5q-2 -6 -4 -12.5t-4 -13.5l-7 -24q0 -3 -5 -12q-1 -2 -11 -6q-7 -2 -13.5 -3.5
t-10.5 -2.5l-15 -3l-9 -3h-6q-3 0 -5 2z" />
    <glyph glyph-name="X" unicode="X" horiz-adv-x="474" 
d="M91 17.5q-32 18.5 -36 22.5q-4 2 -7.5 6t-4.5 6q-3 3 -3 12q73 122 98.5 165.5t27.5 47.5q0 1 -0.5 3t-2.5 6q-6 12 -12 21l-43 65q-2 4 -3.5 6t-2.5 3q-53 90 -85 139q-1 2 0 3.5t1 2.5q2 0 8 2q2 1 3 3.5t2 3.5q2 2 8.5 4t7.5 3t0 3.5t1 4.5t5 2t4 1l4 4q1 1 5 1t5 1
t1 3t2 4q1 1 4 1h3.5t2.5 1q1 0 2.5 1t1.5 3t8 6q3 2 6.5 1.5t4.5 -0.5q2 0 3.5 1t3.5 1t4 -1t3 -2l120 -171l13 21q87 142 96 146q11 5 21.5 8.5t21.5 3.5q27 0 45 -9q9 -4 12.5 -10.5t5.5 -20.5q2 -13 2 -25q0 -13 -8 -27l-125 -214l114 -201q4 -10 -17 -31q-6 -6 -18 -14
q-3 -2 -6 -5.5t-7 -3.5q-1 0 -3 -1.5t-4 -1.5q-4 0 -7 -1t-5 -2q-6 -1 -10 -0.5t-7 0.5q-5 -2 -25.5 27.5t-23.5 32.5q-10 14 -27.5 42t-25.5 40h-9q-30 -45 -60 -87l-17 -25q-11 -19 -19 -27q-7 -9 -13.5 -14.5t-7.5 -6.5q-4 -2 -36 16.5z" />
    <glyph glyph-name="Y" unicode="Y" horiz-adv-x="443" 
d="M204 3q0 1 -0.5 1h-0.5l-3 -2t-11 -2q-4 0 -3 2t0 2q-5 0 -6.5 -2t-3.5 -2q-3 0 -3 1t-2 1l-8 -2q-3 0 -3.5 3.5t-1.5 3.5q-2 -2 -4.5 -2.5t-4.5 1.5q-4 2 -5 8.5t-1 16.5l-6 246l-117 231q-2 2 -4.5 10.5t-3.5 13.5q0 8 5 18q3 6 8 9.5t7 5.5l15 15q3 3 15 12q9 6 12 6
q2 0 4.5 1.5t4.5 1.5q21 0 27 -3l105 -201q0 3 6 9l18 24q4 9 22 36q3 6 11 18q13 18 63 96q6 12 9 12q3 3 15 3q24 0 36 -3t30 -9q6 -6 6 -15l-6 -39q-90 -170 -122 -231t-34 -66v-3q0 -1 -0.5 -4t-0.5 -8q0 -28 3 -102t4 -99q0 -6 -4 -8t-13 -2q-2 0 -5.5 -1.5t-7.5 -2.5
h-1q-2 0 -4.5 1.5t-5.5 1.5t-5.5 -2t-5.5 -3q-6 -3 -10 -3q-5 0 -9 6z" />
    <glyph glyph-name="Z" unicode="Z" horiz-adv-x="441" 
d="M56.5 3.5q-10.5 2.5 -36.5 9.5q-1 1 -2 3t-1 6q-5 8 -5 20q0 11 8 43q2 9 13 25.5t14 20.5q46 79 117 187t117 169q-22 3 -51 3l-64 -1q-48 -2 -68 -2h-24q-5 2 -11.5 3t-9.5 3q-4 0 -7.5 2.5t-7.5 6.5q-6 6 -6 18v12q0 5 1.5 9t1.5 9q0 12 3 18q2 4 4.5 7.5t4.5 7.5
q6 6 15 6q72 17 184 17q58 0 125 -5q4 0 8.5 -2t9.5 -4q12 -6 18 -12l18 -18q6 -6 6 -18v-6l-18 -66l-224 -344l-3 -12h183q1 0 5 -3t5 -8q0 -2 3 -2.5t4 -3.5v-4t-2 -3q4 -3 4 -5v-3q2 -1 1 -2.5t-1 -3.5q0 -5 -2 -7l4 -6v-10l-3 -5q3 -2 5 -4t1 -2.5t-1 -2.5q6 -5 6 -12
q0 -4 -4.5 -8t-10.5 -5q-51 -7 -96 -10.5t-57 -4.5q-42 -3 -126 -3h-36q-1 0 -11.5 2.5z" />
    <glyph glyph-name="A.ss01" horiz-adv-x="504" 
d="M78 -4l-5 3l-6 3l-3 2q-1 0 -4 0.5t-9 0.5q-5 0 -22.5 23.5t-16.5 24.5l165 522q3 8 9 12l16 8q5 2 17 4q7 1 17 1h7q4 0 18 -4q10 -3 14 -12l213 -539q1 -1 1 -5q0 -7 -7 -7l-10 -1q-2 0 -2.5 -3.5t-1.5 -3.5l-11 -1q-3 0 -4.5 -3t-1.5 -4q-2 -2 -4.5 -1.5t-3.5 0.5
q-3 0 -5.5 -2.5t-2.5 -3.5q-4 0 -5 1t-3 1h-7q-3 0 -4.5 -1t-3.5 -1q-1 0 -2.5 1.5t-3.5 1.5t-3.5 -2t-2.5 -2q-2 0 -6.5 -2t-7.5 -2t-9 14t-7 18q-23 57 -38 83q-4 6 -14 6h-5q-28 -1 -93.5 -4t-66.5 -4l-38 -100q-3 -9 -14 -16q-14 -7 -20 -7zM230 232h24l23 2h15l-55 144
l-31 -139v-2q3 -5 8 -5h16z" />
    <glyph glyph-name="B.ss01" horiz-adv-x="462" 
d="M76 34q-16 38 -16 92q0 17 2 51q5 77 5 142q0 35 -2 101q-2 68 -2 102q0 8 5 15.5t14.5 16.5t11.5 13q8 15 28 23q18 7 41 9q15 1 59 1q34 0 54 -5q7 -2 26 -6.5t32 -10.5q20 -10 41 -34q23 -29 23 -57v-6q0 -20 -16 -47t-45 -46l-1.5 -2t-5.5 -5q23 -8 42 -25
q21 -19 33 -38q14 -21 21 -45q8 -26 8 -46q0 -25 -8 -45q-10 -25 -21 -43t-30 -38q-6 -5 -16 -15.5t-18 -15.5l-35 -23q-83 -52 -168 -52q-42 0 -62 39zM211 402.5q9 0.5 14 1.5q10 2 15 4q14 6 24 20t10 30q0 10 -6 16t-13 9.5t-10 5.5q-8 5 -30 5q-10 0 -23 -5v-89
q10 2 19 2.5zM207 118l20 6q5 3 18 8q27 17 38 41.5t11 58.5q-1 33 -10 45t-39 22q-12 4 -25 4q-7 0 -10 -1h-14l-1 -24l-2 -36q-1 -7 -1.5 -21t-1.5 -21l-1 -24v-8l1 -28q2 -6 2 -19v-6q6 0 15 3z" />
    <glyph glyph-name="C.ss01" horiz-adv-x="451" 
d="M199.5 3q-7.5 1 -13.5 2q-13 1 -30 5q-15 3 -20 8q-8 8 -17 14q-12 9 -19 16t-10 18q-2 4 -7.5 11t-7.5 11q-2 2 -2 4t-1 3q-19 38 -30.5 102.5t-11.5 123.5q0 104 33.5 162.5t73.5 86.5l15 10q5 3 22 6q8 2 18 5.5t17 4.5q12 2 20.5 2.5t14.5 0.5l21 2q0 1 20 -1.5
t52 -11.5q15 -4 23 -11q12 -11 24 -28q8 -14 24 -50q19 -47 19 -78q0 -19 -12 -29q-6 -5 -35.5 -9.5t-41.5 -4.5q-13 0 -19 14q-10 8 -14 20l-11 38q-4 14 -15 23q-8 7 -20 7q-27 0 -40 -8q-28 -18 -40 -69t-12 -102q0 -56 6 -91.5t7 -40.5q1 -6 8 -20.5t11 -17.5
q7 -5 18 -9.5t20 -4.5q23 0 32 3.5t15 19.5l13 29l10 25l8 25q4 16 13 16q1 0 2.5 2.5t3.5 2.5t4.5 -2t3.5 -2l8 -1q2 0 4 2.5t7 2.5q1 0 3 -1t4 -1q1 0 3.5 2t4.5 2q1 0 2.5 -1t3.5 -1q1 0 1.5 1t5.5 1q2 0 3.5 -2t2.5 -2l9 -1q1 0 3 -2.5t4 -2.5t3.5 -3.5t4.5 -3.5
q2 0 3 1t4 1q5 0 5 -26q0 -3 -4.5 -16t-4.5 -17v-8q0 -12 -14 -43t-27 -43q-1 -1 -28 -31.5t-91 -38.5q-16 -2 -23 -2h-22q-10 0 -17.5 1z" />
    <glyph glyph-name="D.ss01" horiz-adv-x="509" 
d="M138 5q-6 2 -14 4l-40 10q-9 0 -14 11q-2 5 -5 22.5t-4 24.5l-1 7l1 135l3 134v15q0 5 1 11t1 14q0 20 1 30q1 11 1 30l1 25q0 6 0.5 9.5t0.5 5.5q0 8 3.5 23.5t3.5 18.5q0 7 -4 12q-3 4 -3 15q0 13 9 20t23 12q12 4 26 6q9 1 22 1q47 0 119 -12.5t113 -46.5l17 -15
q18 -10 36.5 -45t31 -79t12.5 -80l-1 -12q0 -7 -1.5 -12.5t-1.5 -8.5l-1 -10v-8q0 -6 -14.5 -59t-23.5 -72q-14 -30 -31.5 -48.5t-42 -32t-74.5 -35.5q-22 -9 -62.5 -16t-61.5 -7h-11q-6 0 -15 3zM196 128q10 0 13 1q9 2 10 3q3 2 9 4q4 1 7 3t6 3q30 12 48 27q18 14 30 41
q11 25 16 58q4 24 4 72q0 11 -5 31q-2 9 -7 20t-7 16q-6 14 -19 31q-11 14 -21 17l-98 25v-55q0 -8 0.5 -26t1.5 -30q1 -33 1.5 -98.5t0.5 -99.5v-6q0 -4 -2 -14q-1 -4 -1 -14q0 -4 -0.5 -6t-0.5 -3h14z" />
    <glyph glyph-name="E.ss01" horiz-adv-x="413" 
d="M402 81l1 -14q0 -3 -4.5 -6t-4.5 -7q0 -5 2 -11t2 -10v-2q-3 -11 -7 -15q-1 -2 -97.5 -5.5t-154.5 -3.5q-41 0 -45 2q-5 2 -14 5.5t-14 6.5q-5 4 -5 17l1 20l-1 117q-1 34 -1 103v36v33v66q0 100 10 158q1 3 3 5.5t3 3.5q5 5 17.5 7t16.5 3q23 4 37 5q13 2 31 3.5t28 2.5
q13 0 20 1q38 3 74 3q41 0 91 -5q4 -2 6 -4l6 -98q-2 -3 -4 -8.5t-7 -5.5q-2 -1 -49 -6t-59 -5l-57 -1q-17 0 -26 1q-4 0 -7 -3q-1 0 -3 -2q-1 -1 -1 -3l2 -58q1 -36 3 -38q0 -3 3 -3l22 1q30 2 50 2q11 1 34 1t33 -2q5 0 5 -5v-3q0 -5 2.5 -14t2.5 -15t-1 -9q-1 -2 0 -5
t1 -5l-2 -5q-1 -1 -4.5 -2t-3.5 -3q0 -1 3.5 -4.5t4.5 -6.5q2 -2 2 -12q-1 1 -3 0t-3 -2q0 -1 6 -2.5t6 -5.5q0 -8 -1 -12t-6 -6q-24 -10 -56 -10q-22 0 -46 3q-30 2 -42 2q-2 0 -4 -2l-2 -1q-2 -12 -2 -20l1 -20q0 -5 1 -37t11 -38q30 3 97 3q47 0 77 2q12 1 18 -26z
M347 278v1v0v-1z" />
    <glyph glyph-name="F.ss01" horiz-adv-x="380" 
d="M380 543q0 -3 -2 -9q-2 -4 -1 -7q0 -10 0.5 -16t-0.5 -10l-5 -14l-4 -4q-3 0 -5 -1q-5 0 -8 -4q-5 -5 -12 -5h-3q-5 0 -8 -1l-89 -4h-39l-1 -152q0 -1 1 -2t2 -1l4 1q16 1 47 2t50 1h18q4 -1 12 -5q2 -2 2 -3v-4q0 -4 2 -6q3 -3 3 -6q2 -3 -1 -6q-2 -1 -2 -6l1 -2
q1 -3 1 -10q0 -5 -1 -8t-1 -11q-3 -9 -3 -10q0 -2 -0.5 -4t0.5 -5q1 -2 -1 -7q-1 -2 -1.5 -0.5t-0.5 -0.5v-4q0 -6 -1 -9q-1 -4 -5 -8q-2 -1 -3.5 -2t-2.5 -2q-2 -2 -7 -4h-4q-4 0 -6 -2q-4 -2 -8 -2h-4q-2 0 -10.5 0.5t-19.5 0.5q-19 0 -38 -0.5t-26 -1.5q-2 -95 -4 -130
q-1 -11 -4.5 -27.5t-2.5 -15.5q-2 -2 -3 -2l-18 -12q-4 -2 -8 -2q-6 2 -12 0q-4 0 -5 1q-3 1 -0.5 1h2.5h-4q-1 -1 -2.5 -0.5t-2.5 0.5q1 0 1 -0.5t-1 -0.5h-6q-2 1 -6.5 2.5t-7.5 1.5t-6 -1.5t-7 -1.5q-1 0 -2.5 1.5t-2.5 1.5l-4 2q-2 1 -4 3t-4 2q-3 0 -4.5 1t-3.5 2
q-1 0 -3 2q-15 14 -15 51l1 15q2 27 2 131q1 9 2.5 47t2.5 93q9 213 9 214q2 6 4 11q4 4 7 5h2l112 9q107 8 125 6l13 -2q4 0 14 -2q7 -2 12 -7q6 -6 7 -9q0 -2 0.5 -4t-0.5 -5q-2 -3 0 -7q0 -2 1 -3t1 -3q1 -1 1.5 -3.5t1.5 -3.5q1 0 1 -0.5v-0.5zM189 16z" />
    <glyph glyph-name="G.ss01" horiz-adv-x="479" 
d="M145.5 36q-48.5 35 -74.5 84q-41 79 -41 198q0 24 1 37q4 49 25.5 102.5t46.5 81.5q30 33 76.5 53t96.5 20q58 0 97 -26l21 -14q21 -27 30.5 -41.5t11.5 -17.5q2 -5 6.5 -21t7.5 -35l4 -20q-1 -6 -5 -10t-13 -9l-43 -16q-2 0 -7.5 -1.5t-10.5 -1.5q-17 0 -21 11
q-15 35 -23.5 48t-28.5 23q-6 3 -13 5t-8 2h-3l-29 -1q-13 0 -32.5 -18.5t-28.5 -41.5q-21 -55 -21 -144q0 -51 16.5 -96t52.5 -68q4 -1 14 -3t14 -1q7 -1 22 -1l12 1q13 6 20.5 22.5t7.5 22.5q2 9 2.5 25.5t-0.5 27.5q0 3 -17 3h-6l-9 1q-4 0 -8.5 2t-9.5 3
q-10 2 -15.5 6.5t-2.5 8.5l4 7v1q0 2 -2 5t-2 4q0 3 1.5 6t1.5 6q0 2 -1.5 4.5t-1.5 4.5t1.5 4.5t1.5 4.5t-2 3.5t-2 3.5q0 1 2.5 4.5t3.5 6.5v3v6.5t3 3.5l8 1q20 1 54 1l22 -1q11 0 20.5 1t20.5 1l7 1q5 0 13 -1.5t13 -1.5q4 0 8.5 -1.5t8.5 -4.5q1 0 11 -8q5 -5 7 -10
q3 -6 3 -16l-2 -38q0 -81 -23 -143v-3q-4 -8 -10 -16.5t-9 -13.5q-19 -20 -65 -40q-48 -21 -96 -21q-65 0 -113.5 35z" />
    <glyph glyph-name="H.ss01" horiz-adv-x="526" 
d="M466 29q0 -7 -3 -8l-4 -1q-3 -1 -4.5 0t-2.5 1t-1.5 -2.5t-2.5 -2.5t-3 4t-2 4q-2 0 -3.5 -3.5t-2.5 -4.5q-4 -1 -9 3q-2 2 -5 1.5l-3 -0.5q-1 0 -3 -2t-3 -2q-1 -1 -2 1t-2 2q-2 1 -4 -2t-3 -3t-3 2.5t-4 2.5q-1 0 -2 -3t-5 -3q-2 0 -3.5 1.5t-4.5 1.5t-3.5 -2t-1.5 -2
q-3 0 -4.5 -0.5t-4.5 1.5q-1 1 -1.5 -0.5t-1.5 -1.5t-1.5 2t-1.5 2q-4 -4 -6 -2q-1 2 -5 4q-4 0 -4 5q-4 18 -4 26q-2 16 -2 23q-1 6 -1 18q-1 7 -1 21q-2 26 -2 39q0 23 -1 35v46l-29 -1q-11 -1 -24.5 -1t-13.5 -1h-3l-67 -2h-4l-4 -195q0 -7 -3 -10.5t-4 -4.5q-2 -2 -6 -4
q-28 -7 -39 -7q-8 0 -16.5 -1.5t-17.5 -1.5l-20 -1q-19 0 -19 31l-4 197l-1 83q0 79 1 140.5t2 86.5q0 6 0.5 8.5t0.5 4.5q0 9 1 13q1 2 1 7q1 6 5 16q1 3 4 5t6 2l30 2l23 1q8 1 22 1t19.5 -4.5t6.5 -16.5l9 -226q0 -7 4 -7h2q12 0 36 2l14 1l84 11h1q3 0 3 3l1 12
q-1 14 -1 41q0 19 -1 29v11q0 3 0.5 8t-0.5 12l1 16q0 14 2 46l4 29l1 10q2 6 8.5 8t10.5 2q11 2 37 6.5t28 3.5l3 1h3q7 0 11.5 -2.5t5.5 -5.5q1 -2 1 -6q1 -23 2.5 -67.5t1.5 -27.5v-14l7 -283l1 -20l2 -25z" />
    <glyph glyph-name="I.ss01" horiz-adv-x="324" 
d="M29 14q-6 0 -9 3q-6 6 -3 9l4 5q-1 0 -2 1.5t-1 3.5t1.5 4t2.5 4q0 2 -1 3t-1 3q0 5 2 8q1 1 0 4.5t1 5.5l3 5q0 1 -1.5 3t-0.5 4v8l-1 4q0 3 6 9q0 2 1.5 3.5t1.5 2.5q3 3 15 3q24 0 45 3h3v3l3 173v100l1 31q2 36 2 56q0 10 -1 17.5t-5 9.5q-44 2 -65 2q-13 0 -14 3
q-2 4 -2 12q0 13 3.5 32t8.5 32q1 4 4.5 6.5t4.5 3.5l9 8q1 1 19 1l53 -1l168 3q9 0 16 -4.5t8 -10.5l6 -54q-5 -12 -10 -18.5t-7.5 -9t-3.5 -2.5q-5 -2 -21.5 -4t-38.5 -2h-3v-21l3 -102v-270l60 -3l6 -78q0 -6 -6 -12q-4 -2 -6 -3.5t-3 -2.5q-2 0 -8.5 -1.5t-12.5 -1.5z
" />
    <glyph glyph-name="J.ss01" horiz-adv-x="392" 
d="M107 21q-22 11 -53 47q-22 25 -22 48q-2 7 -9.5 40.5t-7.5 46.5q0 5 4 4t5 0t1 3t5 3h5.5t4.5 2q2 4 3.5 7.5t5.5 3.5q2 0 3 -1.5t2 -1.5l4 1q3 1 4.5 2.5t3.5 2.5q4 1 6 2.5t15 1.5h1q3 1 4.5 3t5.5 3h1q2 0 4 -1.5t4 -1.5q1 0 3 2.5t4 0.5l24 -81q3 -12 12 -21t16 -9
q15 0 26 11q9 10 12 28t3 46v44q0 53 -3 75l-6 51l-3 63v84q0 7 1.5 13.5t1.5 10.5q3 9 9 21q12 12 18 12l57 18h3q9 0 18 -9t9 -12l10 -65q10 -77 13 -113q5 -64 7 -155v-60q0 -7 -1.5 -13.5t-1.5 -13.5q-2 -7 -3 -13.5t-3 -13.5q-3 -9 -9 -21q-15 -34 -41 -59.5
t-50.5 -38.5t-34.5 -13h-21q-46 0 -70 16z" />
    <glyph glyph-name="K.ss01" horiz-adv-x="444" 
d="M93 2q-7 3 -12 24q-6 36 -6 66q-6 48 -6 78q-1 10 -3 89t-6 313q0 13 15 18.5t52 5.5q16 0 24 -4q12 -6 16 -10q2 -2 4 -7.5t4 -9.5q3 -6 5 -31l12 -118l108 159l6 6q2 2 4.5 3t4.5 3q6 6 12 9q3 3 9 3t12 -3q2 -1 31.5 -18t29.5 -45q0 -6 -3 -14q0 -2 -48.5 -72.5
t-102.5 -141.5l71 -85l104 -139q4 -5 4 -11q0 -5 -4 -9q-1 -1 -1.5 -4.5t-4.5 -4.5q-2 0 -5 -1t-4 -2q0 -1 -1 -4t-2 -4q-2 -1 -4.5 -1.5t-2.5 -1.5q0 -3 -5 -8q-1 -1 -2.5 0.5t-3.5 1.5t-3.5 -1.5t-0.5 -2.5l1 -1t-4 -2q-4 0 -6 -2l-3 -3q-3 -2 -4 -4.5t-3 -4.5h-1
q-2 0 -5 1t-8 1h-4q-3 0 -4 -1.5t-6 -1.5l-12 12q-7 10 -30.5 40.5t-42.5 53.5l-54 63v-30v-27q0 -39 -3 -57q0 -21 -6 -51q-43 -9 -60.5 -12t-20.5 -3q-18 0 -21 3z" />
    <glyph glyph-name="L.ss01" horiz-adv-x="390" 
d="M293 1l-30 1h-7q-27 0 -82.5 1.5t-81.5 2.5q-1 1 -2 0.5t-2 -0.5q-1 -1 -5 1q-1 1 -2.5 0.5t-2.5 0.5l-7 6l-2 42q-4 70 -4 89q0 191 -2.5 214.5t-2.5 24.5v114v59q1 8 6 11t10.5 4.5t7.5 1.5q9 3 10 3q4 -1 10 -1l23 -1q6 0 8 1q8 2 12 2h5q5 1 14 0.5t11 -0.5h1h3
q6 0 8 -6q0 -2 1 -3q0 -8 -1 -12q0 -10 1 -15q0 -15 6 -139q9 -173 9 -203q0 -31 1 -49t1 -24q0 -2 1 -3q0 -2 2 -4l3 -1l128 -1h4q15 0 15 -5l-0.5 -0.5t1.5 -1.5q1 -1 0.5 -2.5t0.5 -3.5q0 -2 1.5 -3t1.5 -3l-1 -6l-2 -4q0 -2 1 -3t1 -3t-1 -3.5t-1 -2.5q0 -2 1 -3t1 -3
q0 -1 -1.5 -2.5t-1.5 -2.5v-6q0 -2 1.5 -3t1.5 -3q-1 -1 -3.5 -2.5t-2.5 -2.5t3 -3.5t3 -4.5q0 -1 -1.5 -2t-1.5 -2q0 -8 -2 -12t-3 -5t1 -4t2 -5q-2 -3 -5.5 -6t-5.5 -3l-13 -1q-11 0 -16 -1h-5q-7 1 -21 1z" />
    <glyph glyph-name="M.ss01" horiz-adv-x="636" 
d="M466 4.5q-4 2.5 -6.5 8t-2.5 16.5l-15 323l-66 -122q-4 -7 -12 -15q-5 -5 -11 -5q-4 0 -7.5 1t-5.5 1h-21q-4 0 -8.5 -1.5t-6.5 -1.5t-4.5 1.5t-4.5 1.5q-9 0 -19 16l-83 130v-15l1 -70q0 -64 1 -79v-33q0 -47 -3 -91q-3 -22 -6.5 -34t-10.5 -18q-12 -9 -26 -11.5
t-44 -2.5q-26 0 -41 18q-4 4 -4 10l1 8l6 79q9 182 14 350q0 32 2 74q0 24 11 43q5 7 12.5 10.5t21.5 3.5q11 0 17 -1q3 0 13.5 -2.5t16.5 -6.5q16 -5 21 -15l32 -57l56 -89l47 -66l30 57l35 70l31 76q4 12 24 12l67 4q29 0 32 -37l19 -312q0 -5 2 -31q5 -82 5 -157
q0 -14 -3 -23q-1 -1 -3 -7t-7 -6q-3 0 -5 1q-2 0 -4 -2t-4 -1q-4 0 -6 3l-2 -2.5t-10 -2.5q-2 0 -7 3q-2 0 -4.5 -3t-4.5 -3q-3 0 -7.5 2.5t-6.5 2.5t-4 -1.5t-5 -1.5q-1 0 -4.5 1t-6.5 -1q-6 -4 -9 -4h-1q-2 2 -6 4.5z" />
    <glyph glyph-name="N.ss01" horiz-adv-x="564" 
d="M399 -1q-3 0 -6 3q-2 3 -14 19t-23 33q-13 21 -23 39.5t-12 21.5q-2 7 -55 93.5t-72 114.5l-17 -294l-6 -9q-36 -9 -57 -11t-21 -1q-27 0 -33 18l6 270q0 15 6 51q0 9 2 27l1 27v42q0 36 3 54q0 21 6 51q4 22 15 39q5 2 13 5.5t14 3.5q9 3 27 3h9q6 0 6 -3l210 -362
q3 57 4.5 87.5t1 38.5t-0.5 9l-2 203q0 1 0.5 4t2.5 5q0 4 3.5 2t5.5 -2t3.5 1t5.5 2q3 1 6 0t6 0q7 1 8.5 2.5t7.5 1.5q4 0 6 -1t4 -1q3 0 5.5 1t5.5 1l9 -1q2 0 4 1t4 0q2 0 3.5 -2.5t4.5 -2.5t6 -1t7 -1q2 0 4.5 -4t3.5 -4l1 -9l6 -220v-102q0 -51 -6 -111q-5 -54 -6 -60
q-3 -18 -5.5 -27.5t-9.5 -17.5q-8 -9 -19 -15l-20 -9q-4 -2 -6 -2.5t-3 -0.5q-5 -2 -16 -2q-10 0 -14 2z" />
    <glyph glyph-name="O.ss01" horiz-adv-x="546" 
d="M263 -1.5q-4 0.5 -8 0.5l-25 2q-7 1 -24 4q-14 0 -18 2t-23.5 10t-35.5 24l-1 1q-31 28 -47 57q-20 32 -30 67q-15 44 -17 71l-1 10q-1 5 -1 10t-1 11l1 -1q-2 8 -2 23q0 13 7 60t14 69q21 65 53.5 102.5t95.5 63.5q2 3 19 8q13 4 22 5q7 1 15 1l13 2l25 3l27 2
q4 0 12.5 -1t13.5 -2q16 -4 26 -10l-1 1q39 -19 75.5 -71t53.5 -109v1q5 -15 6 -16l2 -14l2 -9l2 -9q1 -1 0.5 -2t-0.5 -3v-9l2 -12q1 -14 1 -37q0 -19 -1 -31.5t-2 -15.5q-7 -33 -15 -58t-23 -52q-63 -112 -182 -146l-23 -4q-3 1 -7 1.5zM288 112q4 1 15 6q8 2 16 12l13 21
q14 21 26.5 67t12.5 91q0 11 -2 25q-9 72 -32 113.5t-54 41.5q-14 0 -22 -2q-85 -18 -85 -180q0 -21 2 -42.5t5 -35.5q13 -79 49 -109l7 -5q8 -6 22 -6q12 0 27 3z" />
    <glyph glyph-name="P.ss01" horiz-adv-x="466" 
d="M138.5 4.5q-2.5 3.5 -4.5 3.5q-1 0 -4 -2.5t-5 -2.5t-4 1.5t-3 1.5q-3 0 -5 -1.5t-4 -1.5t-3 1t-3 1t-3.5 -1t-3.5 -1q-1 0 -2.5 1.5t-2.5 1.5q-3 0 -4.5 -1t-3.5 -1l-11 1q-3 0 -7 7q-2 4 -2 10q0 38 2 70q2 34 2 50q0 64 -4 194q-3 98 -3 194q0 17 7 30q6 14 18 23
q12 10 26 13q16 3 38 3q27 0 72 -6q62 -9 97.5 -19t59.5 -29q23 -18 45.5 -65t22.5 -80q0 -111 -124 -173q-36 -18 -120 -18h-22l1 -18v-16q1 -16 1 -54v-60q0 -22 -2 -31q-1 -6 -2.5 -14.5t-4.5 -9.5q-6 -2 -7 -2l-8 1q-3 0 -7.5 -2t-7.5 -2q-2 0 -4.5 3.5zM225 317l28 4
q38 5 47 30q10 28 10 45q0 39 -18 59q-9 11 -45.5 19.5t-65.5 8.5q0 -27 2 -79q3 -37 3 -92q16 0 39 5z" />
    <glyph glyph-name="Q.ss01" horiz-adv-x="555" 
d="M427 -28l-20 14q-22 17 -46 41q-23 -17 -57.5 -25t-59.5 -8q-27 0 -60 13t-49 26q-18 13 -39 36q-5 7 -21 28.5t-24 44.5q-13 35 -17 62.5t-4 58.5v34q0 18 5 60l4 40q0 8 17.5 47.5t58.5 81t108 57.5l6 1q3 1 8 1q27 4 64 6q34 0 61 -9q1 0 11 -4q12 -5 15 -7
q7 -1 14 -6q4 -1 7 -4q33 -33 55 -57t32 -48q29 -71 29 -146q0 -97 -39 -177q0 -2 -7 -12t-23 -26l-4 -4q9 -7 22 -20q1 -1 10.5 -10t9.5 -14q0 -4 -3 -6.5t-3 -4.5v-1q1 -5 0 -6t-2.5 -0.5t-2.5 0.5t-3 -2.5t-4 -4.5q0 -1 1 -3t1 -4q0 -1 -4 -3t-4 -4q0 -3 1.5 -4.5
t1.5 -3.5q0 -1 -2 -1h-4q-5 0 -7 -2q-1 -1 -1 -4t-1 -4q-1 -2 -5 -3.5t-6 -4.5q-2 -2 -4 -7t-7 -5q-3 0 -9 3zM288 110q5 1 6 2q-27 31 -30 38q-4 8 -4 16q0 15 15.5 29.5t16.5 15.5q2 2 7 4.5t8 2.5q16 0 23 -5q6 -4 22 -20l27 -25l8 28q9 32 10 37q2 6 2 20l-1 38
q0 15 -1 23q-2 16 -6 37t-7 29q-9 24 -18 40q-2 6 -7 11q-14 23 -26 30q-7 4 -18.5 6.5t-18.5 4.5q-4 1 -15 1q-72 -12 -95 -61.5t-23 -127.5q0 -66 39 -122q4 -6 9.5 -14.5t10.5 -13.5q27 -25 55 -25q6 0 11 1z" />
    <glyph glyph-name="R.ss01" horiz-adv-x="472" 
d="M339 4q-6 4 -15 13l-66 80q-4 4 -14 15t-14 14l-17 21q-2 3 -7.5 10t-11.5 12q-12 12 -16 17l-2 -159q0 -8 -5 -13q-4 -5 -11 -7q-6 -3 -14 -3h-13q-20 0 -26 2q-5 1 -14.5 6t-12.5 8l-2.5 2.5l-2.5 2.5q-8 14 -9 28l-4 38q-1 13 -1 43l-1 46v16q0 67 5 159l4 58
q6 74 6 115v27q0 11 1 17q2 10 7 15l36 10q18 4 35 4q24 0 77.5 -6.5t84.5 -12.5q34 -6 64.5 -30.5t48.5 -61t18 -76.5q0 -33 -13 -79q-8 -28 -32 -48q-25 -21 -50 -34t-63 -18q61 -57 97.5 -98.5t45.5 -59.5q3 -6 3 -7l-0.5 -1.5t-0.5 -5.5q0 -3 -5 -4q-3 -1 -4 -4t-2 -3
q-3 0 -2.5 -3t0.5 -5q-1 -2 -4 -1.5t-3 -1.5q-1 -4 -3.5 -6.5l-3.5 -3.5q-1 0 -3.5 -0.5t-5.5 -3.5q-2 -2 -3 -4.5t-5 -3.5q-2 -1 -11 -6q-1 0 -1.5 -3.5t-2.5 -3.5q-5 0 -7.5 0.5t-5.5 0.5t-4.5 -3.5t-3.5 -3.5q-9 0 -15 4zM195 321l8 1q18 -1 32.5 4t26 11t17.5 8
t13.5 8.5t11.5 12.5q4 5 7.5 21.5t3.5 24.5q0 15 -8 30q-9 14 -15.5 19t-22.5 10q-21 4 -29 5q-11 2 -28 3.5t-29 1.5q-4 -88 -4 -153q0 -5 2 -6t7 -1h7z" />
    <glyph glyph-name="S.ss01" horiz-adv-x="428" 
d="M152 -7q-10 2 -39 16.5t-36 23.5q-22 30 -33.5 51.5t-14.5 43.5q-1 8 -2.5 23t-1.5 23q0 5 2 5l5 -1q3 0 5.5 3.5t5.5 4.5l2 2t3 1t4.5 -1.5l2.5 -1.5q4 2 6 4.5t4 3.5q4 1 6 1t4 1t5.5 2.5t8.5 0.5l-1 2q0 2 3.5 2.5t3.5 1.5q4 3 11 5q1 1 6 1q9 0 13 -11
q16 -44 35 -71.5t49 -27.5q12 0 18.5 1t16.5 8q2 1 7 7t9.5 17.5t4.5 26.5q0 19 -29 40.5t-84 52.5l-54 32q-23 16 -50 60q-8 14 -13.5 33.5t-5.5 37.5q0 8 2 18q6 31 15.5 51t18 30t27.5 29q13 13 42 25t39 14q12 2 23 2h4q92 0 137.5 -30.5t65.5 -97.5v-6q1 -1 3 -15
l1 -16q1 -6 1 -14v-7q0 -12 -7 -20q-3 -4 -12 -7t-6 -3q-5 -2 -24 -5.5t-38 -3.5q-15 0 -24.5 6t-11.5 14l-14 48q-3 5 -4 9t-3 8q-3 8 -11.5 18t-16.5 13q-12 5 -24 5q-14 0 -21.5 -4t-15.5 -14q-10 -13 -12.5 -23.5t-2.5 -24.5q0 -13 13.5 -27.5t27.5 -21.5
q86 -42 155 -97q14 -11 29.5 -42.5t15.5 -53.5q0 -19 -3 -37q-7 -32 -9 -37q-4 -8 -12 -17t-12 -15q-24 -34 -64 -55.5t-94 -21.5h-16q-25 0 -39 2z" />
    <glyph glyph-name="T.ss01" horiz-adv-x="415" 
d="M190 -4.5q-1 2.5 -3 2.5q-3 0 -5 -3q-2 -2 -3 -2q-7 0 -9 2.5t-4 2.5t-5 -1t-6 -1l-4 2q-4 5 -6.5 18t-4.5 18q-4 11 -4 27q-2 20 -2 30v42q0 22 -1 35l-1 44q0 53 1 80q1 26 1 79q0 28 -2 82q-1 3 -1 10t-1 7l-93 14q-13 2 -15 8l-2 12v17q0 3 1 7.5t1 9.5v12q0 9 1 12
q3 11 12 14t18 4q19 2 27 4q9 2 27 4q24 3 31 3h21q53 0 104 -3q36 -2 53 -2l52 -2q5 0 8 -3q5 -5 9 -16q5 -12 8 -26q2 -9 2 -22q0 -4 -3 -12q-1 -3 -1 -9t-2 -9q-5 -10 -9 -15q-5 -6 -12 -6h-106q1 -51 1 -135q0 -299 -8 -325q-1 -4 -6 -4l-8 1q-3 0 -5.5 -3.5t-7.5 -5.5
l-9 2l-4 5q-1 0 -3 -2.5t-4 -2.5t-4.5 1.5t-4.5 1.5t-2 -2q0 -1 -1 -2.5t-2 -1.5q-3 0 -4 2.5z" />
    <glyph glyph-name="U.ss01" horiz-adv-x="516" 
d="M190 13q-55 12 -79 36q-13 13 -16 20q-9 13 -13 27q-15 38 -21 77q-10 65 -10 123q0 26 1 38t1 33l-1 41q-2 40 -1 64l-1 43q0 14 1 20q1 11 3.5 17t10.5 10t20.5 6.5t18.5 3.5q5 1 15 1q7 0 29 -2q24 -4 33 -7q8 -11 10 -34v-33v-75v-39v-60q0 -41 -1 -61l-1 -36
q0 -73 34 -94q13 -8 44 -8q33 0 46 12q10 8 14 29q3 17 3 47q0 23 -2 53q-1 12 -1 35l1 71l1 56q1 16 1 42v72q0 9 5 9q1 0 3 -1.5t4 -1.5t4 2t3 2q2 0 3.5 -1t4.5 -1q2 0 4 3t5 4t5.5 -0.5t3.5 -1.5t2.5 3t5.5 3q2 0 3 -1t4 -1q5 0 5.5 2t3.5 2q5 0 7.5 -1.5t5.5 -1.5t6 2
t5 2q3 0 6.5 -1t9.5 -1q3 0 6 2.5t5 2.5q3 0 7 -8q6 -14 5.5 -34.5t-0.5 -26.5v-46q0 -17 2 -53q2 -52 2 -79q0 -14 -2 -40q-2 -16 -2 -25l-1 -23q-2 -28 -2 -41q0 -28 -8 -60q-9 -34 -38.5 -60.5t-68 -42.5t-74.5 -19q-6 -1 -20 -1q-36 0 -60 6z" />
    <glyph glyph-name="V.ss01" horiz-adv-x="506" 
d="M237 4.5q-27 3.5 -46 8.5q-10 2 -15 5t-8 9q0 -3 -19 46.5t-50 145.5l-80 279q-6 18 -6 29t4 19q3 6 14 13t17 11q2 0 5.5 2t6.5 4q2 2 8.5 4.5t10.5 4.5l14 8q10 5 13 5q7 0 14 -6q5 -4 7 -9.5t3 -6.5l112 -411l29 80l30 85l83 246q6 18 14 18q4 0 7 -1q1 -1 4 -1h1
q1 -1 1 -3l3 -3h2q0 3 2 3q1 1 3 0.5t2 -1.5q1 -6 2 -6t1.5 1.5t2.5 1.5l4 1l1.5 -3t1.5 -2q2 -3 12 -2q2 0 3 -1.5t3 -2.5q1 -1 2.5 -2t2.5 -1l9 -1q1 0 3.5 1t5.5 1q2 0 4 -3t3 -3q3 0 5.5 1.5t5.5 1.5q5 -2 8 -7t3 -18q0 -4 -3 -13l-8 -18l-122 -358q-3 -8 -15.5 -40.5
t-35.5 -85.5q-13 -15 -19.5 -20.5t-7.5 -6.5q-4 0 -10 -1.5t-11 -1.5q-10 1 -37 4.5z" />
    <glyph glyph-name="W.ss01" horiz-adv-x="611" 
d="M163 1q-7 4 -15.5 11.5t-10.5 11.5l-22 49q-3 9 -14 52.5t-32.5 141.5t-51.5 247q-4 12 -4 23q0 12 6 15l82 47q3 3 6 3h8q10 0 13 -13l75 -378l43 246l4 29q3 13 6 15q46 7 64 7q10 0 19 -3q6 -10 12 -30q1 -8 6 -19l15 -70l31 -146l21 69l20 73l37.5 135t15.5 55
q0 2 4.5 6t11.5 1h2q2 0 4 2.5t3 2.5t3 -2.5t4 -2.5q5 0 6 3t5 2q1 0 1.5 -1t2.5 -1h6q2 0 3.5 -2t2.5 -2h7q1 0 2.5 -1t2.5 -1l7 1q1 0 2 -2t4 -2q1 0 4.5 1.5t6.5 1.5t7 -4q1 -5 3 -5h2q-1 0 3.5 -10t2.5 -16l-7 -29l-18 -67q-22 -81 -47 -167.5t-53 -170.5
q-8 -25 -24 -61l-9 -22q-3 -2 -29.5 -4t-36.5 -2q-8 0 -17 10q-13 16 -19 24q-4 5 -8 18.5t-7 19.5l-31 106q-17 -79 -32.5 -124t-21.5 -51q-10 -10 -18 -14q-11 -6 -21 -9t-20 -3h-3q-11 0 -25 6z" />
    <glyph glyph-name="X.ss01" horiz-adv-x="477" 
d="M329 17.5q-14 16.5 -23.5 34t-11.5 23.5l-55 78l-45 -54l-71 -84q-4 -2 -7.5 -4.5t-7.5 -4.5q-3 0 -6 -1.5t-6 -1.5h-6q-9 13 -22 21q-6 3 -15 12l-15 15q-3 3 -3 15v12q3 3 3 9l129 183l-135 222q0 2 -7.5 15t-7.5 15l-1 12q0 3 3 3t3 2q0 1 -2 2t-2 3t4.5 3.5t7.5 3.5
q3 3 8 5t7 4q4 4 5 7t3 6q4 7 10 7h7t6 1q3 2 3 6t3 5q2 1 4 1t4 1q3 2 3 4t2 2q9 0 15 -3q2 -1 6 -4.5t6 -7.5l117 -201l105 156q3 12 21 30q9 9 33 9q12 -3 29.5 -10t21.5 -11q6 -4 9 -17.5t3 -18.5l-147 -258l99 -186q2 -4 3 -8.5t3 -6.5q0 -6 3 -9v-9q0 -15 -57 -42
q-3 -2 -9 -2q-13 0 -27 16.5z" />
    <glyph glyph-name="Y.ss01" horiz-adv-x="457" 
d="M210.5 5.5q-2.5 2.5 -6.5 2.5h-4.5t-7.5 2q-2 1 -3 2t-4 2q-2 1 -5 -1t-5 1q-1 3 -4 16t-5 36l-9 228l-91 147l-48 72l-6 27q-1 2 4 5t5 4q5 0 9 9l17 10l10 17q7 4 7 11q8 4 17 4q12 0 20 -4q11 -5 23.5 -19t16.5 -19q4 -2 7.5 -6t4.5 -6l9 -9l72 -114q44 72 71.5 111
t40 52.5t12.5 11.5l1.5 0.5t4.5 0.5q5 0 9 -1l54 -18q15 -5 15 -18q3 -9 3 -27v-15q-17 -47 -40 -81q-34 -48 -73 -95q-37 -47 -43 -56q0 -33 6 -87q3 -15 3 -42l1 -35q1 -11 1 -32v-32.5t-2 -39.5q-1 -5 -16 -8l-8 -1l-8 1q-7 0 -11 -4q-1 -1 -4 1.5t-3 1.5q0 -2 -4 -3.5
t-5 -1.5h-2q-2 0 -5.5 2t-5.5 2q-4 0 -7.5 -3.5t-4.5 -3.5t-3.5 2.5z" />
    <glyph glyph-name="Z.ss01" horiz-adv-x="428" 
d="M415.5 56q-2.5 -3 -2.5 -5t-1.5 -3.5t-1.5 -3.5q0 -3 1 -5t1 -3q-2 -4 -24 -7.5t-54 -7.5q-108 -7 -180 -7q-61 0 -89.5 5t-46.5 17l-6 60v9l225 367l0.5 1.5t2.5 1.5v6l-30 -1q-24 -2 -40 -2q-21 -3 -52 -3h-27l-20 -1q-23 0 -37 6t-17 24q0 4 -1.5 7.5t-1.5 7.5v48
q0 6 4 10q5 5 20 7l89 16h184q18 -3 57 -3q9 0 18 -8.5t15 -18.5t6 -12q0 -4 1.5 -7t1.5 -5q0 -4 1.5 -5.5t1.5 -3.5v-12q-3 -3 -3 -12v-12l-176 -267l-54 -97v-3l163 3l55 -3q13 0 10 -9q0 -1 1 -2t2 -4q1 -2 0 -0.5t-2 -1.5q0 -2 2.5 -2.5t2.5 -4.5v-4q1 -1 2 -3.5t1 -5.5
q0 -2 -0.5 -3t-0.5 -2q2 -3 1.5 -6t-0.5 -4q0 -2 -2 -4t-2 -3t1.5 -2.5t1.5 -4.5l2 -8q0 -1 -2.5 -4z" />
    <glyph glyph-name="a" unicode="a" horiz-adv-x="504" 
d="M78 -4l-5 3l-6 3l-3 2q-1 0 -4 0.5t-9 0.5q-5 0 -22.5 23.5t-16.5 24.5l165 522q3 8 9 12l16 8q5 2 17 4q7 1 17 1h7q4 0 18 -4q10 -3 14 -12l213 -539q1 -1 1 -5q0 -7 -7 -7l-10 -1q-2 0 -2.5 -3.5t-1.5 -3.5l-11 -1q-3 0 -4.5 -3t-1.5 -4q-2 -2 -4.5 -1.5t-3.5 0.5
q-3 0 -5.5 -2.5t-2.5 -3.5q-4 0 -5 1t-3 1h-7q-3 0 -4.5 -1t-3.5 -1q-1 0 -2.5 1.5t-3.5 1.5t-3.5 -2t-2.5 -2q-2 0 -6.5 -2t-7.5 -2t-9 14t-7 18q-23 57 -38 83q-4 6 -14 6h-5q-28 -1 -93.5 -4t-66.5 -4l-38 -100q-3 -9 -14 -16q-14 -7 -20 -7zM230 232h24l23 2h15l-55 144
l-31 -139v-2q3 -5 8 -5h16z" />
    <glyph glyph-name="b" unicode="b" horiz-adv-x="462" 
d="M76 34q-16 38 -16 92q0 17 2 51q5 77 5 142q0 35 -2 101q-2 68 -2 102q0 8 5 15.5t14.5 16.5t11.5 13q8 15 28 23q18 7 41 9q15 1 59 1q34 0 54 -5q7 -2 26 -6.5t32 -10.5q20 -10 41 -34q23 -29 23 -57v-6q0 -20 -16 -47t-45 -46l-1.5 -2t-5.5 -5q23 -8 42 -25
q21 -19 33 -38q14 -21 21 -45q8 -26 8 -46q0 -25 -8 -45q-10 -25 -21 -43t-30 -38q-6 -5 -16 -15.5t-18 -15.5l-35 -23q-83 -52 -168 -52q-42 0 -62 39zM211 402.5q9 0.5 14 1.5q10 2 15 4q14 6 24 20t10 30q0 10 -6 16t-13 9.5t-10 5.5q-8 5 -30 5q-10 0 -23 -5v-89
q10 2 19 2.5zM207 118l20 6q5 3 18 8q27 17 38 41.5t11 58.5q-1 33 -10 45t-39 22q-12 4 -25 4q-7 0 -10 -1h-14l-1 -24l-2 -36q-1 -7 -1.5 -21t-1.5 -21l-1 -24v-8l1 -28q2 -6 2 -19v-6q6 0 15 3z" />
    <glyph glyph-name="c" unicode="c" horiz-adv-x="451" 
d="M199.5 3q-7.5 1 -13.5 2q-13 1 -30 5q-15 3 -20 8q-8 8 -17 14q-12 9 -19 16t-10 18q-2 4 -7.5 11t-7.5 11q-2 2 -2 4t-1 3q-19 38 -30.5 102.5t-11.5 123.5q0 104 33.5 162.5t73.5 86.5l15 10q5 3 22 6q8 2 18 5.5t17 4.5q12 2 20.5 2.5t14.5 0.5l21 2q0 1 20 -1.5
t52 -11.5q15 -4 23 -11q12 -11 24 -28q8 -14 24 -50q19 -47 19 -78q0 -19 -12 -29q-6 -5 -35.5 -9.5t-41.5 -4.5q-13 0 -19 14q-10 8 -14 20l-11 38q-4 14 -15 23q-8 7 -20 7q-27 0 -40 -8q-28 -18 -40 -69t-12 -102q0 -56 6 -91.5t7 -40.5q1 -6 8 -20.5t11 -17.5
q7 -5 18 -9.5t20 -4.5q23 0 32 3.5t15 19.5l13 29l10 25l8 25q4 16 13 16q1 0 2.5 2.5t3.5 2.5t4.5 -2t3.5 -2l8 -1q2 0 4 2.5t7 2.5q1 0 3 -1t4 -1q1 0 3.5 2t4.5 2q1 0 2.5 -1t3.5 -1q1 0 1.5 1t5.5 1q2 0 3.5 -2t2.5 -2l9 -1q1 0 3 -2.5t4 -2.5t3.5 -3.5t4.5 -3.5
q2 0 3 1t4 1q5 0 5 -26q0 -3 -4.5 -16t-4.5 -17v-8q0 -12 -14 -43t-27 -43q-1 -1 -28 -31.5t-91 -38.5q-16 -2 -23 -2h-22q-10 0 -17.5 1z" />
    <glyph glyph-name="d" unicode="d" horiz-adv-x="509" 
d="M138 5q-6 2 -14 4l-40 10q-9 0 -14 11q-2 5 -5 22.5t-4 24.5l-1 7l1 135l3 134v15q0 5 1 11t1 14q0 20 1 30q1 11 1 30l1 25q0 6 0.5 9.5t0.5 5.5q0 8 3.5 23.5t3.5 18.5q0 7 -4 12q-3 4 -3 15q0 13 9 20t23 12q12 4 26 6q9 1 22 1q47 0 119 -12.5t113 -46.5l17 -15
q18 -10 36.5 -45t31 -79t12.5 -80l-1 -12q0 -7 -1.5 -12.5t-1.5 -8.5l-1 -10v-8q0 -6 -14.5 -59t-23.5 -72q-14 -30 -31.5 -48.5t-42 -32t-74.5 -35.5q-22 -9 -62.5 -16t-61.5 -7h-11q-6 0 -15 3zM196 128q10 0 13 1q9 2 10 3q3 2 9 4q4 1 7 3t6 3q30 12 48 27q18 14 30 41
q11 25 16 58q4 24 4 72q0 11 -5 31q-2 9 -7 20t-7 16q-6 14 -19 31q-11 14 -21 17l-98 25v-55q0 -8 0.5 -26t1.5 -30q1 -33 1.5 -98.5t0.5 -99.5v-6q0 -4 -2 -14q-1 -4 -1 -14q0 -4 -0.5 -6t-0.5 -3h14z" />
    <glyph glyph-name="e" unicode="e" horiz-adv-x="413" 
d="M402 81l1 -14q0 -3 -4.5 -6t-4.5 -7q0 -5 2 -11t2 -10v-2q-3 -11 -7 -15q-1 -2 -97.5 -5.5t-154.5 -3.5q-41 0 -45 2q-5 2 -14 5.5t-14 6.5q-5 4 -5 17l1 20l-1 117q-1 34 -1 103v36v33v66q0 100 10 158q1 3 3 5.5t3 3.5q5 5 17.5 7t16.5 3q23 4 37 5q13 2 31 3.5t28 2.5
q13 0 20 1q38 3 74 3q41 0 91 -5q4 -2 6 -4l6 -98q-2 -3 -4 -8.5t-7 -5.5q-2 -1 -49 -6t-59 -5l-57 -1q-17 0 -26 1q-4 0 -7 -3q-1 0 -3 -2q-1 -1 -1 -3l2 -58q1 -36 3 -38q0 -3 3 -3l22 1q30 2 50 2q11 1 34 1t33 -2q5 0 5 -5v-3q0 -5 2.5 -14t2.5 -15t-1 -9q-1 -2 0 -5
t1 -5l-2 -5q-1 -1 -4.5 -2t-3.5 -3q0 -1 3.5 -4.5t4.5 -6.5q2 -2 2 -12q-1 1 -3 0t-3 -2q0 -1 6 -2.5t6 -5.5q0 -8 -1 -12t-6 -6q-24 -10 -56 -10q-22 0 -46 3q-30 2 -42 2q-2 0 -4 -2l-2 -1q-2 -12 -2 -20l1 -20q0 -5 1 -37t11 -38q30 3 97 3q47 0 77 2q12 1 18 -26z
M347 278v1v0v-1z" />
    <glyph glyph-name="f" unicode="f" horiz-adv-x="380" 
d="M380 543q0 -3 -2 -9q-2 -4 -1 -7q0 -10 0.5 -16t-0.5 -10l-5 -14l-4 -4q-3 0 -5 -1q-5 0 -8 -4q-5 -5 -12 -5h-3q-5 0 -8 -1l-89 -4h-39l-1 -152q0 -1 1 -2t2 -1l4 1q16 1 47 2t50 1h18q4 -1 12 -5q2 -2 2 -3v-4q0 -4 2 -6q3 -3 3 -6q2 -3 -1 -6q-2 -1 -2 -6l1 -2
q1 -3 1 -10q0 -5 -1 -8t-1 -11q-3 -9 -3 -10q0 -2 -0.5 -4t0.5 -5q1 -2 -1 -7q-1 -2 -1.5 -0.5t-0.5 -0.5v-4q0 -6 -1 -9q-1 -4 -5 -8q-2 -1 -3.5 -2t-2.5 -2q-2 -2 -7 -4h-4q-4 0 -6 -2q-4 -2 -8 -2h-4q-2 0 -10.5 0.5t-19.5 0.5q-19 0 -38 -0.5t-26 -1.5q-2 -95 -4 -130
q-1 -11 -4.5 -27.5t-2.5 -15.5q-2 -2 -3 -2l-18 -12q-4 -2 -8 -2q-6 2 -12 0q-4 0 -5 1q-3 1 -0.5 1h2.5h-4q-1 -1 -2.5 -0.5t-2.5 0.5q1 0 1 -0.5t-1 -0.5h-6q-2 1 -6.5 2.5t-7.5 1.5t-6 -1.5t-7 -1.5q-1 0 -2.5 1.5t-2.5 1.5l-4 2q-2 1 -4 3t-4 2q-3 0 -4.5 1t-3.5 2
q-1 0 -3 2q-15 14 -15 51l1 15q2 27 2 131q1 9 2.5 47t2.5 93q9 213 9 214q2 6 4 11q4 4 7 5h2l112 9q107 8 125 6l13 -2q4 0 14 -2q7 -2 12 -7q6 -6 7 -9q0 -2 0.5 -4t-0.5 -5q-2 -3 0 -7q0 -2 1 -3t1 -3q1 -1 1.5 -3.5t1.5 -3.5q1 0 1 -0.5v-0.5zM189 16z" />
    <glyph glyph-name="g" unicode="g" horiz-adv-x="479" 
d="M145.5 36q-48.5 35 -74.5 84q-41 79 -41 198q0 24 1 37q4 49 25.5 102.5t46.5 81.5q30 33 76.5 53t96.5 20q58 0 97 -26l21 -14q21 -27 30.5 -41.5t11.5 -17.5q2 -5 6.5 -21t7.5 -35l4 -20q-1 -6 -5 -10t-13 -9l-43 -16q-2 0 -7.5 -1.5t-10.5 -1.5q-17 0 -21 11
q-15 35 -23.5 48t-28.5 23q-6 3 -13 5t-8 2h-3l-29 -1q-13 0 -32.5 -18.5t-28.5 -41.5q-21 -55 -21 -144q0 -51 16.5 -96t52.5 -68q4 -1 14 -3t14 -1q7 -1 22 -1l12 1q13 6 20.5 22.5t7.5 22.5q2 9 2.5 25.5t-0.5 27.5q0 3 -17 3h-6l-9 1q-4 0 -8.5 2t-9.5 3
q-10 2 -15.5 6.5t-2.5 8.5l4 7v1q0 2 -2 5t-2 4q0 3 1.5 6t1.5 6q0 2 -1.5 4.5t-1.5 4.5t1.5 4.5t1.5 4.5t-2 3.5t-2 3.5q0 1 2.5 4.5t3.5 6.5v3v6.5t3 3.5l8 1q20 1 54 1l22 -1q11 0 20.5 1t20.5 1l7 1q5 0 13 -1.5t13 -1.5q4 0 8.5 -1.5t8.5 -4.5q1 0 11 -8q5 -5 7 -10
q3 -6 3 -16l-2 -38q0 -81 -23 -143v-3q-4 -8 -10 -16.5t-9 -13.5q-19 -20 -65 -40q-48 -21 -96 -21q-65 0 -113.5 35z" />
    <glyph glyph-name="h" unicode="h" horiz-adv-x="526" 
d="M466 29q0 -7 -3 -8l-4 -1q-3 -1 -4.5 0t-2.5 1t-1.5 -2.5t-2.5 -2.5t-3 4t-2 4q-2 0 -3.5 -3.5t-2.5 -4.5q-4 -1 -9 3q-2 2 -5 1.5l-3 -0.5q-1 0 -3 -2t-3 -2q-1 -1 -2 1t-2 2q-2 1 -4 -2t-3 -3t-3 2.5t-4 2.5q-1 0 -2 -3t-5 -3q-2 0 -3.5 1.5t-4.5 1.5t-3.5 -2t-1.5 -2
q-3 0 -4.5 -0.5t-4.5 1.5q-1 1 -1.5 -0.5t-1.5 -1.5t-1.5 2t-1.5 2q-4 -4 -6 -2q-1 2 -5 4q-4 0 -4 5q-4 18 -4 26q-2 16 -2 23q-1 6 -1 18q-1 7 -1 21q-2 26 -2 39q0 23 -1 35v46l-29 -1q-11 -1 -24.5 -1t-13.5 -1h-3l-67 -2h-4l-4 -195q0 -7 -3 -10.5t-4 -4.5q-2 -2 -6 -4
q-28 -7 -39 -7q-8 0 -16.5 -1.5t-17.5 -1.5l-20 -1q-19 0 -19 31l-4 197l-1 83q0 79 1 140.5t2 86.5q0 6 0.5 8.5t0.5 4.5q0 9 1 13q1 2 1 7q1 6 5 16q1 3 4 5t6 2l30 2l23 1q8 1 22 1t19.5 -4.5t6.5 -16.5l9 -226q0 -7 4 -7h2q12 0 36 2l14 1l84 11h1q3 0 3 3l1 12
q-1 14 -1 41q0 19 -1 29v11q0 3 0.5 8t-0.5 12l1 16q0 14 2 46l4 29l1 10q2 6 8.5 8t10.5 2q11 2 37 6.5t28 3.5l3 1h3q7 0 11.5 -2.5t5.5 -5.5q1 -2 1 -6q1 -23 2.5 -67.5t1.5 -27.5v-14l7 -283l1 -20l2 -25z" />
    <glyph glyph-name="i" unicode="i" horiz-adv-x="324" 
d="M29 14q-6 0 -9 3q-6 6 -3 9l4 5q-1 0 -2 1.5t-1 3.5t1.5 4t2.5 4q0 2 -1 3t-1 3q0 5 2 8q1 1 0 4.5t1 5.5l3 5q0 1 -1.5 3t-0.5 4v8l-1 4q0 3 6 9q0 2 1.5 3.5t1.5 2.5q3 3 15 3q24 0 45 3h3v3l3 173v100l1 31q2 36 2 56q0 10 -1 17.5t-5 9.5q-44 2 -65 2q-13 0 -14 3
q-2 4 -2 12q0 13 3.5 32t8.5 32q1 4 4.5 6.5t4.5 3.5l9 8q1 1 19 1l53 -1l168 3q9 0 16 -4.5t8 -10.5l6 -54q-5 -12 -10 -18.5t-7.5 -9t-3.5 -2.5q-5 -2 -21.5 -4t-38.5 -2h-3v-21l3 -102v-270l60 -3l6 -78q0 -6 -6 -12q-4 -2 -6 -3.5t-3 -2.5q-2 0 -8.5 -1.5t-12.5 -1.5z
" />
    <glyph glyph-name="j" unicode="j" horiz-adv-x="392" 
d="M107 21q-22 11 -53 47q-22 25 -22 48q-2 7 -9.5 40.5t-7.5 46.5q0 5 4 4t5 0t1 3t5 3h5.5t4.5 2q2 4 3.5 7.5t5.5 3.5q2 0 3 -1.5t2 -1.5l4 1q3 1 4.5 2.5t3.5 2.5q4 1 6 2.5t15 1.5h1q3 1 4.5 3t5.5 3h1q2 0 4 -1.5t4 -1.5q1 0 3 2.5t4 0.5l24 -81q3 -12 12 -21t16 -9
q15 0 26 11q9 10 12 28t3 46v44q0 53 -3 75l-6 51l-3 63v84q0 7 1.5 13.5t1.5 10.5q3 9 9 21q12 12 18 12l57 18h3q9 0 18 -9t9 -12l10 -65q10 -77 13 -113q5 -64 7 -155v-60q0 -7 -1.5 -13.5t-1.5 -13.5q-2 -7 -3 -13.5t-3 -13.5q-3 -9 -9 -21q-15 -34 -41 -59.5
t-50.5 -38.5t-34.5 -13h-21q-46 0 -70 16z" />
    <glyph glyph-name="k" unicode="k" horiz-adv-x="444" 
d="M93 2q-7 3 -12 24q-6 36 -6 66q-6 48 -6 78q-1 10 -3 89t-6 313q0 13 15 18.5t52 5.5q16 0 24 -4q12 -6 16 -10q2 -2 4 -7.5t4 -9.5q3 -6 5 -31l12 -118l108 159l6 6q2 2 4.5 3t4.5 3q6 6 12 9q3 3 9 3t12 -3q2 -1 31.5 -18t29.5 -45q0 -6 -3 -14q0 -2 -48.5 -72.5
t-102.5 -141.5l71 -85l104 -139q4 -5 4 -11q0 -5 -4 -9q-1 -1 -1.5 -4.5t-4.5 -4.5q-2 0 -5 -1t-4 -2q0 -1 -1 -4t-2 -4q-2 -1 -4.5 -1.5t-2.5 -1.5q0 -3 -5 -8q-1 -1 -2.5 0.5t-3.5 1.5t-3.5 -1.5t-0.5 -2.5l1 -1t-4 -2q-4 0 -6 -2l-3 -3q-3 -2 -4 -4.5t-3 -4.5h-1
q-2 0 -5 1t-8 1h-4q-3 0 -4 -1.5t-6 -1.5l-12 12q-7 10 -30.5 40.5t-42.5 53.5l-54 63v-30v-27q0 -39 -3 -57q0 -21 -6 -51q-43 -9 -60.5 -12t-20.5 -3q-18 0 -21 3z" />
    <glyph glyph-name="l" unicode="l" horiz-adv-x="390" 
d="M293 1l-30 1h-7q-27 0 -82.5 1.5t-81.5 2.5q-1 1 -2 0.5t-2 -0.5q-1 -1 -5 1q-1 1 -2.5 0.5t-2.5 0.5l-7 6l-2 42q-4 70 -4 89q0 191 -2.5 214.5t-2.5 24.5v114v59q1 8 6 11t10.5 4.5t7.5 1.5q9 3 10 3q4 -1 10 -1l23 -1q6 0 8 1q8 2 12 2h5q5 1 14 0.5t11 -0.5h1h3
q6 0 8 -6q0 -2 1 -3q0 -8 -1 -12q0 -10 1 -15q0 -15 6 -139q9 -173 9 -203q0 -31 1 -49t1 -24q0 -2 1 -3q0 -2 2 -4l3 -1l128 -1h4q15 0 15 -5l-0.5 -0.5t1.5 -1.5q1 -1 0.5 -2.5t0.5 -3.5q0 -2 1.5 -3t1.5 -3l-1 -6l-2 -4q0 -2 1 -3t1 -3t-1 -3.5t-1 -2.5q0 -2 1 -3t1 -3
q0 -1 -1.5 -2.5t-1.5 -2.5v-6q0 -2 1.5 -3t1.5 -3q-1 -1 -3.5 -2.5t-2.5 -2.5t3 -3.5t3 -4.5q0 -1 -1.5 -2t-1.5 -2q0 -8 -2 -12t-3 -5t1 -4t2 -5q-2 -3 -5.5 -6t-5.5 -3l-13 -1q-11 0 -16 -1h-5q-7 1 -21 1z" />
    <glyph glyph-name="m" unicode="m" horiz-adv-x="636" 
d="M466 4.5q-4 2.5 -6.5 8t-2.5 16.5l-15 323l-66 -122q-4 -7 -12 -15q-5 -5 -11 -5q-4 0 -7.5 1t-5.5 1h-21q-4 0 -8.5 -1.5t-6.5 -1.5t-4.5 1.5t-4.5 1.5q-9 0 -19 16l-83 130v-15l1 -70q0 -64 1 -79v-33q0 -47 -3 -91q-3 -22 -6.5 -34t-10.5 -18q-12 -9 -26 -11.5
t-44 -2.5q-26 0 -41 18q-4 4 -4 10l1 8l6 79q9 182 14 350q0 32 2 74q0 24 11 43q5 7 12.5 10.5t21.5 3.5q11 0 17 -1q3 0 13.5 -2.5t16.5 -6.5q16 -5 21 -15l32 -57l56 -89l47 -66l30 57l35 70l31 76q4 12 24 12l67 4q29 0 32 -37l19 -312q0 -5 2 -31q5 -82 5 -157
q0 -14 -3 -23q-1 -1 -3 -7t-7 -6q-3 0 -5 1q-2 0 -4 -2t-4 -1q-4 0 -6 3l-2 -2.5t-10 -2.5q-2 0 -7 3q-2 0 -4.5 -3t-4.5 -3q-3 0 -7.5 2.5t-6.5 2.5t-4 -1.5t-5 -1.5q-1 0 -4.5 1t-6.5 -1q-6 -4 -9 -4h-1q-2 2 -6 4.5z" />
    <glyph glyph-name="n" unicode="n" horiz-adv-x="564" 
d="M399 -1q-3 0 -6 3q-2 3 -14 19t-23 33q-13 21 -23 39.5t-12 21.5q-2 7 -55 93.5t-72 114.5l-17 -294l-6 -9q-36 -9 -57 -11t-21 -1q-27 0 -33 18l6 270q0 15 6 51q0 9 2 27l1 27v42q0 36 3 54q0 21 6 51q4 22 15 39q5 2 13 5.5t14 3.5q9 3 27 3h9q6 0 6 -3l210 -362
q3 57 4.5 87.5t1 38.5t-0.5 9l-2 203q0 1 0.5 4t2.5 5q0 4 3.5 2t5.5 -2t3.5 1t5.5 2q3 1 6 0t6 0q7 1 8.5 2.5t7.5 1.5q4 0 6 -1t4 -1q3 0 5.5 1t5.5 1l9 -1q2 0 4 1t4 0q2 0 3.5 -2.5t4.5 -2.5t6 -1t7 -1q2 0 4.5 -4t3.5 -4l1 -9l6 -220v-102q0 -51 -6 -111q-5 -54 -6 -60
q-3 -18 -5.5 -27.5t-9.5 -17.5q-8 -9 -19 -15l-20 -9q-4 -2 -6 -2.5t-3 -0.5q-5 -2 -16 -2q-10 0 -14 2z" />
    <glyph glyph-name="o" unicode="o" horiz-adv-x="546" 
d="M263 -1.5q-4 0.5 -8 0.5l-25 2q-7 1 -24 4q-14 0 -18 2t-23.5 10t-35.5 24l-1 1q-31 28 -47 57q-20 32 -30 67q-15 44 -17 71l-1 10q-1 5 -1 10t-1 11l1 -1q-2 8 -2 23q0 13 7 60t14 69q21 65 53.5 102.5t95.5 63.5q2 3 19 8q13 4 22 5q7 1 15 1l13 2l25 3l27 2
q4 0 12.5 -1t13.5 -2q16 -4 26 -10l-1 1q39 -19 75.5 -71t53.5 -109v1q5 -15 6 -16l2 -14l2 -9l2 -9q1 -1 0.5 -2t-0.5 -3v-9l2 -12q1 -14 1 -37q0 -19 -1 -31.5t-2 -15.5q-7 -33 -15 -58t-23 -52q-63 -112 -182 -146l-23 -4q-3 1 -7 1.5zM288 112q4 1 15 6q8 2 16 12l13 21
q14 21 26.5 67t12.5 91q0 11 -2 25q-9 72 -32 113.5t-54 41.5q-14 0 -22 -2q-85 -18 -85 -180q0 -21 2 -42.5t5 -35.5q13 -79 49 -109l7 -5q8 -6 22 -6q12 0 27 3z" />
    <glyph glyph-name="p" unicode="p" horiz-adv-x="466" 
d="M138.5 4.5q-2.5 3.5 -4.5 3.5q-1 0 -4 -2.5t-5 -2.5t-4 1.5t-3 1.5q-3 0 -5 -1.5t-4 -1.5t-3 1t-3 1t-3.5 -1t-3.5 -1q-1 0 -2.5 1.5t-2.5 1.5q-3 0 -4.5 -1t-3.5 -1l-11 1q-3 0 -7 7q-2 4 -2 10q0 38 2 70q2 34 2 50q0 64 -4 194q-3 98 -3 194q0 17 7 30q6 14 18 23
q12 10 26 13q16 3 38 3q27 0 72 -6q62 -9 97.5 -19t59.5 -29q23 -18 45.5 -65t22.5 -80q0 -111 -124 -173q-36 -18 -120 -18h-22l1 -18v-16q1 -16 1 -54v-60q0 -22 -2 -31q-1 -6 -2.5 -14.5t-4.5 -9.5q-6 -2 -7 -2l-8 1q-3 0 -7.5 -2t-7.5 -2q-2 0 -4.5 3.5zM225 317l28 4
q38 5 47 30q10 28 10 45q0 39 -18 59q-9 11 -45.5 19.5t-65.5 8.5q0 -27 2 -79q3 -37 3 -92q16 0 39 5z" />
    <glyph glyph-name="q" unicode="q" horiz-adv-x="555" 
d="M427 -28l-20 14q-22 17 -46 41q-23 -17 -57.5 -25t-59.5 -8q-27 0 -60 13t-49 26q-18 13 -39 36q-5 7 -21 28.5t-24 44.5q-13 35 -17 62.5t-4 58.5v34q0 18 5 60l4 40q0 8 17.5 47.5t58.5 81t108 57.5l6 1q3 1 8 1q27 4 64 6q34 0 61 -9q1 0 11 -4q12 -5 15 -7
q7 -1 14 -6q4 -1 7 -4q33 -33 55 -57t32 -48q29 -71 29 -146q0 -97 -39 -177q0 -2 -7 -12t-23 -26l-4 -4q9 -7 22 -20q1 -1 10.5 -10t9.5 -14q0 -4 -3 -6.5t-3 -4.5v-1q1 -5 0 -6t-2.5 -0.5t-2.5 0.5t-3 -2.5t-4 -4.5q0 -1 1 -3t1 -4q0 -1 -4 -3t-4 -4q0 -3 1.5 -4.5
t1.5 -3.5q0 -1 -2 -1h-4q-5 0 -7 -2q-1 -1 -1 -4t-1 -4q-1 -2 -5 -3.5t-6 -4.5q-2 -2 -4 -7t-7 -5q-3 0 -9 3zM288 110q5 1 6 2q-27 31 -30 38q-4 8 -4 16q0 15 15.5 29.5t16.5 15.5q2 2 7 4.5t8 2.5q16 0 23 -5q6 -4 22 -20l27 -25l8 28q9 32 10 37q2 6 2 20l-1 38
q0 15 -1 23q-2 16 -6 37t-7 29q-9 24 -18 40q-2 6 -7 11q-14 23 -26 30q-7 4 -18.5 6.5t-18.5 4.5q-4 1 -15 1q-72 -12 -95 -61.5t-23 -127.5q0 -66 39 -122q4 -6 9.5 -14.5t10.5 -13.5q27 -25 55 -25q6 0 11 1z" />
    <glyph glyph-name="r" unicode="r" horiz-adv-x="472" 
d="M339 4q-6 4 -15 13l-66 80q-4 4 -14 15t-14 14l-17 21q-2 3 -7.5 10t-11.5 12q-12 12 -16 17l-2 -159q0 -8 -5 -13q-4 -5 -11 -7q-6 -3 -14 -3h-13q-20 0 -26 2q-5 1 -14.5 6t-12.5 8l-2.5 2.5l-2.5 2.5q-8 14 -9 28l-4 38q-1 13 -1 43l-1 46v16q0 67 5 159l4 58
q6 74 6 115v27q0 11 1 17q2 10 7 15l36 10q18 4 35 4q24 0 77.5 -6.5t84.5 -12.5q34 -6 64.5 -30.5t48.5 -61t18 -76.5q0 -33 -13 -79q-8 -28 -32 -48q-25 -21 -50 -34t-63 -18q61 -57 97.5 -98.5t45.5 -59.5q3 -6 3 -7l-0.5 -1.5t-0.5 -5.5q0 -3 -5 -4q-3 -1 -4 -4t-2 -3
q-3 0 -2.5 -3t0.5 -5q-1 -2 -4 -1.5t-3 -1.5q-1 -4 -3.5 -6.5l-3.5 -3.5q-1 0 -3.5 -0.5t-5.5 -3.5q-2 -2 -3 -4.5t-5 -3.5q-2 -1 -11 -6q-1 0 -1.5 -3.5t-2.5 -3.5q-5 0 -7.5 0.5t-5.5 0.5t-4.5 -3.5t-3.5 -3.5q-9 0 -15 4zM195 321l8 1q18 -1 32.5 4t26 11t17.5 8
t13.5 8.5t11.5 12.5q4 5 7.5 21.5t3.5 24.5q0 15 -8 30q-9 14 -15.5 19t-22.5 10q-21 4 -29 5q-11 2 -28 3.5t-29 1.5q-4 -88 -4 -153q0 -5 2 -6t7 -1h7z" />
    <glyph glyph-name="s" unicode="s" horiz-adv-x="428" 
d="M152 -7q-10 2 -39 16.5t-36 23.5q-22 30 -33.5 51.5t-14.5 43.5q-1 8 -2.5 23t-1.5 23q0 5 2 5l5 -1q3 0 5.5 3.5t5.5 4.5l2 2t3 1t4.5 -1.5l2.5 -1.5q4 2 6 4.5t4 3.5q4 1 6 1t4 1t5.5 2.5t8.5 0.5l-1 2q0 2 3.5 2.5t3.5 1.5q4 3 11 5q1 1 6 1q9 0 13 -11
q16 -44 35 -71.5t49 -27.5q12 0 18.5 1t16.5 8q2 1 7 7t9.5 17.5t4.5 26.5q0 19 -29 40.5t-84 52.5l-54 32q-23 16 -50 60q-8 14 -13.5 33.5t-5.5 37.5q0 8 2 18q6 31 15.5 51t18 30t27.5 29q13 13 42 25t39 14q12 2 23 2h4q92 0 137.5 -30.5t65.5 -97.5v-6q1 -1 3 -15
l1 -16q1 -6 1 -14v-7q0 -12 -7 -20q-3 -4 -12 -7t-6 -3q-5 -2 -24 -5.5t-38 -3.5q-15 0 -24.5 6t-11.5 14l-14 48q-3 5 -4 9t-3 8q-3 8 -11.5 18t-16.5 13q-12 5 -24 5q-14 0 -21.5 -4t-15.5 -14q-10 -13 -12.5 -23.5t-2.5 -24.5q0 -13 13.5 -27.5t27.5 -21.5
q86 -42 155 -97q14 -11 29.5 -42.5t15.5 -53.5q0 -19 -3 -37q-7 -32 -9 -37q-4 -8 -12 -17t-12 -15q-24 -34 -64 -55.5t-94 -21.5h-16q-25 0 -39 2z" />
    <glyph glyph-name="t" unicode="t" horiz-adv-x="415" 
d="M190 -4.5q-1 2.5 -3 2.5q-3 0 -5 -3q-2 -2 -3 -2q-7 0 -9 2.5t-4 2.5t-5 -1t-6 -1l-4 2q-4 5 -6.5 18t-4.5 18q-4 11 -4 27q-2 20 -2 30v42q0 22 -1 35l-1 44q0 53 1 80q1 26 1 79q0 28 -2 82q-1 3 -1 10t-1 7l-93 14q-13 2 -15 8l-2 12v17q0 3 1 7.5t1 9.5v12q0 9 1 12
q3 11 12 14t18 4q19 2 27 4q9 2 27 4q24 3 31 3h21q53 0 104 -3q36 -2 53 -2l52 -2q5 0 8 -3q5 -5 9 -16q5 -12 8 -26q2 -9 2 -22q0 -4 -3 -12q-1 -3 -1 -9t-2 -9q-5 -10 -9 -15q-5 -6 -12 -6h-106q1 -51 1 -135q0 -299 -8 -325q-1 -4 -6 -4l-8 1q-3 0 -5.5 -3.5t-7.5 -5.5
l-9 2l-4 5q-1 0 -3 -2.5t-4 -2.5t-4.5 1.5t-4.5 1.5t-2 -2q0 -1 -1 -2.5t-2 -1.5q-3 0 -4 2.5z" />
    <glyph glyph-name="u" unicode="u" horiz-adv-x="516" 
d="M190 13q-55 12 -79 36q-13 13 -16 20q-9 13 -13 27q-15 38 -21 77q-10 65 -10 123q0 26 1 38t1 33l-1 41q-2 40 -1 64l-1 43q0 14 1 20q1 11 3.5 17t10.5 10t20.5 6.5t18.5 3.5q5 1 15 1q7 0 29 -2q24 -4 33 -7q8 -11 10 -34v-33v-75v-39v-60q0 -41 -1 -61l-1 -36
q0 -73 34 -94q13 -8 44 -8q33 0 46 12q10 8 14 29q3 17 3 47q0 23 -2 53q-1 12 -1 35l1 71l1 56q1 16 1 42v72q0 9 5 9q1 0 3 -1.5t4 -1.5t4 2t3 2q2 0 3.5 -1t4.5 -1q2 0 4 3t5 4t5.5 -0.5t3.5 -1.5t2.5 3t5.5 3q2 0 3 -1t4 -1q5 0 5.5 2t3.5 2q5 0 7.5 -1.5t5.5 -1.5t6 2
t5 2q3 0 6.5 -1t9.5 -1q3 0 6 2.5t5 2.5q3 0 7 -8q6 -14 5.5 -34.5t-0.5 -26.5v-46q0 -17 2 -53q2 -52 2 -79q0 -14 -2 -40q-2 -16 -2 -25l-1 -23q-2 -28 -2 -41q0 -28 -8 -60q-9 -34 -38.5 -60.5t-68 -42.5t-74.5 -19q-6 -1 -20 -1q-36 0 -60 6z" />
    <glyph glyph-name="v" unicode="v" horiz-adv-x="506" 
d="M237 4.5q-27 3.5 -46 8.5q-10 2 -15 5t-8 9q0 -3 -19 46.5t-50 145.5l-80 279q-6 18 -6 29t4 19q3 6 14 13t17 11q2 0 5.5 2t6.5 4q2 2 8.5 4.5t10.5 4.5l14 8q10 5 13 5q7 0 14 -6q5 -4 7 -9.5t3 -6.5l112 -411l29 80l30 85l83 246q6 18 14 18q4 0 7 -1q1 -1 4 -1h1
q1 -1 1 -3l3 -3h2q0 3 2 3q1 1 3 0.5t2 -1.5q1 -6 2 -6t1.5 1.5t2.5 1.5l4 1l1.5 -3t1.5 -2q2 -3 12 -2q2 0 3 -1.5t3 -2.5q1 -1 2.5 -2t2.5 -1l9 -1q1 0 3.5 1t5.5 1q2 0 4 -3t3 -3q3 0 5.5 1.5t5.5 1.5q5 -2 8 -7t3 -18q0 -4 -3 -13l-8 -18l-122 -358q-3 -8 -15.5 -40.5
t-35.5 -85.5q-13 -15 -19.5 -20.5t-7.5 -6.5q-4 0 -10 -1.5t-11 -1.5q-10 1 -37 4.5z" />
    <glyph glyph-name="w" unicode="w" horiz-adv-x="611" 
d="M163 1q-7 4 -15.5 11.5t-10.5 11.5l-22 49q-3 9 -14 52.5t-32.5 141.5t-51.5 247q-4 12 -4 23q0 12 6 15l82 47q3 3 6 3h8q10 0 13 -13l75 -378l43 246l4 29q3 13 6 15q46 7 64 7q10 0 19 -3q6 -10 12 -30q1 -8 6 -19l15 -70l31 -146l21 69l20 73l37.5 135t15.5 55
q0 2 4.5 6t11.5 1h2q2 0 4 2.5t3 2.5t3 -2.5t4 -2.5q5 0 6 3t5 2q1 0 1.5 -1t2.5 -1h6q2 0 3.5 -2t2.5 -2h7q1 0 2.5 -1t2.5 -1l7 1q1 0 2 -2t4 -2q1 0 4.5 1.5t6.5 1.5t7 -4q1 -5 3 -5h2q-1 0 3.5 -10t2.5 -16l-7 -29l-18 -67q-22 -81 -47 -167.5t-53 -170.5
q-8 -25 -24 -61l-9 -22q-3 -2 -29.5 -4t-36.5 -2q-8 0 -17 10q-13 16 -19 24q-4 5 -8 18.5t-7 19.5l-31 106q-17 -79 -32.5 -124t-21.5 -51q-10 -10 -18 -14q-11 -6 -21 -9t-20 -3h-3q-11 0 -25 6z" />
    <glyph glyph-name="x" unicode="x" horiz-adv-x="477" 
d="M329 17.5q-14 16.5 -23.5 34t-11.5 23.5l-55 78l-45 -54l-71 -84q-4 -2 -7.5 -4.5t-7.5 -4.5q-3 0 -6 -1.5t-6 -1.5h-6q-9 13 -22 21q-6 3 -15 12l-15 15q-3 3 -3 15v12q3 3 3 9l129 183l-135 222q0 2 -7.5 15t-7.5 15l-1 12q0 3 3 3t3 2q0 1 -2 2t-2 3t4.5 3.5t7.5 3.5
q3 3 8 5t7 4q4 4 5 7t3 6q4 7 10 7h7t6 1q3 2 3 6t3 5q2 1 4 1t4 1q3 2 3 4t2 2q9 0 15 -3q2 -1 6 -4.5t6 -7.5l117 -201l105 156q3 12 21 30q9 9 33 9q12 -3 29.5 -10t21.5 -11q6 -4 9 -17.5t3 -18.5l-147 -258l99 -186q2 -4 3 -8.5t3 -6.5q0 -6 3 -9v-9q0 -15 -57 -42
q-3 -2 -9 -2q-13 0 -27 16.5z" />
    <glyph glyph-name="y" unicode="y" horiz-adv-x="457" 
d="M210.5 5.5q-2.5 2.5 -6.5 2.5h-4.5t-7.5 2q-2 1 -3 2t-4 2q-2 1 -5 -1t-5 1q-1 3 -4 16t-5 36l-9 228l-91 147l-48 72l-6 27q-1 2 4 5t5 4q5 0 9 9l17 10l10 17q7 4 7 11q8 4 17 4q12 0 20 -4q11 -5 23.5 -19t16.5 -19q4 -2 7.5 -6t4.5 -6l9 -9l72 -114q44 72 71.5 111
t40 52.5t12.5 11.5l1.5 0.5t4.5 0.5q5 0 9 -1l54 -18q15 -5 15 -18q3 -9 3 -27v-15q-17 -47 -40 -81q-34 -48 -73 -95q-37 -47 -43 -56q0 -33 6 -87q3 -15 3 -42l1 -35q1 -11 1 -32v-32.5t-2 -39.5q-1 -5 -16 -8l-8 -1l-8 1q-7 0 -11 -4q-1 -1 -4 1.5t-3 1.5q0 -2 -4 -3.5
t-5 -1.5h-2q-2 0 -5.5 2t-5.5 2q-4 0 -7.5 -3.5t-4.5 -3.5t-3.5 2.5z" />
    <glyph glyph-name="z" unicode="z" horiz-adv-x="428" 
d="M415.5 56q-2.5 -3 -2.5 -5t-1.5 -3.5t-1.5 -3.5q0 -3 1 -5t1 -3q-2 -4 -24 -7.5t-54 -7.5q-108 -7 -180 -7q-61 0 -89.5 5t-46.5 17l-6 60v9l225 367l0.5 1.5t2.5 1.5v6l-30 -1q-24 -2 -40 -2q-21 -3 -52 -3h-27l-20 -1q-23 0 -37 6t-17 24q0 4 -1.5 7.5t-1.5 7.5v48
q0 6 4 10q5 5 20 7l89 16h184q18 -3 57 -3q9 0 18 -8.5t15 -18.5t6 -12q0 -4 1.5 -7t1.5 -5q0 -4 1.5 -5.5t1.5 -3.5v-12q-3 -3 -3 -12v-12l-176 -267l-54 -97v-3l163 3l55 -3q13 0 10 -9q0 -1 1 -2t2 -4q1 -2 0 -0.5t-2 -1.5q0 -2 2.5 -2.5t2.5 -4.5v-4q1 -1 2 -3.5t1 -5.5
q0 -2 -0.5 -3t-0.5 -2q2 -3 1.5 -6t-0.5 -4q0 -2 -2 -4t-2 -3t1.5 -2.5t1.5 -4.5l2 -8q0 -1 -2.5 -4z" />
    <glyph glyph-name="a.ss01" horiz-adv-x="503" 
d="M386 3q-1 0 -3 2l-4 13q-3 2 -5.5 9t-4.5 12q-21 48 -36 85q-4 6 -13 6h-4q-28 -1 -94 -4t-67 -4l-38 -100q-2 -9 -13 -15q-11 -7 -20 -7l-1 0.5t-2 0.5l-8 2q-1 0 -5.5 2.5t-9.5 3.5l-25 6q-21 7 -21 26q0 7 3 16l164 518q1 6 9 12q7 6 18.5 8.5t14.5 3.5t9 1
q19 0 30 -2.5t16 -13.5l4 -7q11 -27 32.5 -84t33.5 -89q10 -25 13 -31l78 -194q2 -9 20 -52l29 -73q2 -8 2 -11q0 -9 -7 -9q-1 -3 -4 -3.5t-7 2.5q0 -1 2 -2.5t1.5 -2.5t-6.5 -3q-2 -1 -8 -1q0 -1 -3 -5t-8 1q0 -5 -5 -7q-1 0 -4.5 -1t-6.5 1q-2 -5 -6.5 -6.5t-10.5 -0.5
l-4 1q-1 -6 -6 -1q-1 0 -3 -1t-3 0q-7 -7 -10 -6zM278 236h15l-47 121l-39 -115v-1l1 -2q0 -2 1.5 -2.5t3.5 -0.5l42 -1q8 1 23 1z" />
    <glyph glyph-name="b.ss01" horiz-adv-x="472" 
d="M119 -18q-3 0 -4 -1l-3 -1q-2 -1 -4.5 0.5t-3.5 3.5q-2 6 -2 11q0 1 -2 3q-2 1 -4 1.5t-2 1.5t-1 0.5t-2 -0.5q-3 0 -4 1q-2 2 0 4l3 4q1 1 0 2t-2 1l-2 1q-2 1 -4 2.5t-3 3.5q0 1 2 5l-1 1q-1 1 -3 1l-1 7l-3 -3q-3 -3 -5 -1q-1 1 -1 3l1 4q-3 0 -5 1l-2 1l-1 2
q0 2 1.5 7.5t1.5 9.5q0 10 -1.5 20t-1.5 18q0 22 4 66q3 32 3 48l1 35l2 128q0 66 -2 80q-3 21 -3 28l-2 29q0 3 1.5 9.5t2.5 10.5q1 6 2.5 10.5t2.5 8.5q1 8 3 10q10 20 44.5 29.5t81.5 9.5q59 0 109 -12q33 -8 67 -46q11 -12 13.5 -27t2.5 -42v-16q0 -16 -1 -26
q-1 -5 -5.5 -20.5t-16 -35.5t-30.5 -33q32 -10 52 -25.5t38 -44.5q14 -22 14 -75q0 -14 -3 -29q-16 -82 -59 -121.5t-129 -56.5q-7 -1 -46.5 -9.5t-65.5 -8.5q-22 0 -22 12zM219 357q13 3 23 9q21 12 33 32q0 31 -2 42q-2 16 -9 28q-10 15 -19 20q-12 6 -33 6h-17v-140
q11 0 24 3zM232 91q35 7 43 14q11 9 15 17l3 5q12 25 15 49q2 16 2 22q0 43 -29 49l-26 4h-4q-9 0 -20 -3q-7 -1 -14.5 -2.5t-12.5 -3.5t-11 -6l-1 -31q-1 -7 0 -15.5t0 -15.5l-1 -80q4 -3 11 -4l16 -1q2 0 14 2z" />
    <glyph glyph-name="c.ss01" horiz-adv-x="423" 
d="M201 1q-10 0 -15 3q-41 17 -62.5 29t-21.5 13q-6 8 -17 22.5t-17 22.5l-6 12l-4 12l-8 16l-20 168v5v7l1 16l2 33l3 33q0 8 1 12t1 5q12 51 40 101l6 10l14 15l16 16l12 11q13 10 27 15q13 8 27 12q14 5 32 7q12 3 19 3q16 0 34 -2q15 -1 29 -6q12 -3 25 -11
q14 -7 27 -18q2 -1 3.5 -3t4.5 -4l5 -8q2 -3 4 -8t5 -11q10 -21 16.5 -40.5t9.5 -48.5v-3v-5q0 -7 -1 -13t-5 -18q-3 -8 -9 -14q-5 -7 -13 -7h-63q-8 0 -18 8q-9 9 -9 15q-5 35 -20 58q-1 4 -8 8q-5 4 -10 4q-14 0 -20 -5q-7 -4 -13 -12q-2 -2 -7 -6t-5 -8l1 -3
q-1 -2 -4 -6.5t-3 -6.5q-1 -1 -5 -12q-2 -5 -3.5 -9.5t-3.5 -9.5l-6 -20l-3 -12v-89q1 -5 1 -12l7 -77q3 -24 10 -37q3 -8 14.5 -13.5t20.5 -5.5q13 0 29 10q7 5 12 16l9 21q1 2 5 14.5t14 41.5q13 16 19 20q5 4 11 4h7l4 -3q6 2 8 1q1 -1 2.5 -2t2.5 -4q2 2 4 2t8 -4
q4 -4 6 -4l4 2l4 2q3 0 7 -4q6 -3 9 -3q2 0 4 2l4 1q7 -2 7 -10q2 -9 4 -12q-1 -37 -3.5 -55.5t-3.5 -22.5q-1 -5 -9 -25.5t-27 -60.5q-7 -18 -25 -29t-38 -17q-18 -6 -41 -8q-30 -2 -37 -2q-12 0 -18 1z" />
    <glyph glyph-name="d.ss01" horiz-adv-x="520" 
d="M113 7q-6 2 -15.5 28t-9.5 31q0 4 -2.5 16.5t-4.5 26.5l-1 14q0 16 -1 25l-1 30q-1 11 -1 31q-2 18 -2 25v14l-3 134q0 27 3 54q2 28 2 38q0 8 -1 11q-6 7 -11 19t-5 24q0 2 1.5 5.5t1.5 5.5q0 11 6.5 18t23.5 18q8 5 18.5 8.5l13.5 4.5l14 3q9 3 15 3l11 1
q10 -1 34 -4.5t29 -5.5q6 -1 30 -6.5t30 -8.5l75 -26l21 -11q11 -8 21 -18q9 -9 12 -13q2 -4 12 -16.5t18 -25.5q12 -19 25 -70.5t13 -59.5v-8l1 -11q0 -3 1.5 -8t1.5 -12l1 -12q0 -11 -2 -37q-1 -11 -10 -36l-29 -82q-13 -31 -34.5 -50t-40.5 -27q-16 -9 -48.5 -17
t-82.5 -17l-43 -9q-22 -4 -39 -4q-29 0 -48 7zM291 147q8 3 21 17q7 8 19 30q5 9 14 36q5 16 5 32q0 37 -4 62t-16 51q-1 3 -5 12t-8.5 15.5t-10.5 12.5q-19 18 -44 28q-2 1 -4 2.5t-8 2.5l-9 5q-8 2 -10 2q-3 2 -25 2v-24q1 -2 1 -22q0 -21 -1 -25v-28l-1 -28l-1 -24v-19
q0 -3 2 -11q0 -2 0.5 -19.5t-0.5 -23.5q-2 -9 -2 -56v-55z" />
    <glyph glyph-name="e.ss01" horiz-adv-x="421" 
d="M99 2q-9 0 -17 6q-9 12 -11 18q-5 12 -5 24q-2 9 -2 26v18l-4 193l1 104q2 37 8 103q1 3 1 9t2 14l3 26v3l-1 15q0 10 6 15q21 16 33 16q5 0 11.5 2t9.5 3q12 4 39 4q18 0 38 -2q5 -1 11 -2t15 -1l58 -5q30 -2 45 -4l45 -5q25 -2 25 -6v-36q0 -6 1 -11v-15q0 -15 -2 -21
q0 -1 -42.5 -5.5t-163.5 -10.5l-3 -86v-8q0 -8 1 -14l2 -8h125q11 0 19 -5q6 -5 13 -15q6 -10 7 -18q2 -6 2 -18q-1 -8 -2.5 -12t-2.5 -5l-5 -12l-7 -14l-5 -9l-15 -3l-132 -15q-2 -18 -2 -26l-2 -77q0 -2 1 -6.5t3 -8.5q55 -4 136 -4q14 0 26 -2q11 -4 13 -6q5 -3 5 -7
l1 -14l-4 -32l-3 -16q-3 -6 -4.5 -10.5t-5.5 -9.5q-2 -2 -34 -3t-47 -1l-181 -10h-3z" />
    <glyph glyph-name="f.ss01" horiz-adv-x="379" 
d="M95 2q-5 0 -8 3q-4 4 -6.5 13t-2.5 16q0 2 -0.5 7.5t-0.5 15.5q-7 95 -14 218q-3 66 -3 134v69l3 68v5l3 9l3 10q3 5 6 6q63 13 87 18t26 5q5 1 15 1h22q11 0 17 -1l91 -9q14 -3 21 -3q7 -1 16 -8q9 -6 9 -14l-2 -19l-6 -28q-2 -5 -3.5 -11.5t-4.5 -13.5q-3 -11 -6 -11
h-171l-1 -57q0 -36 2 -40l124 -9q7 -1 9 -10q3 -9 3 -18v-1l-5 -46q-1 -3 -2.5 -10.5t-5.5 -9.5q-5 -3 -11 -4.5t-12 -1.5h-90l2 -33q1 -28 4 -81t2 -59l-3 -40l-2 -25l-4 -14l-4 -13q-1 -2 -5.5 -4t-8.5 -2q-3 0 -4.5 1t-4.5 1q-3 -1 -8 -2.5t-8 -2.5q-3 0 -5.5 1.5
t-5.5 1.5q-4 0 -7.5 -2t-7.5 -2q-3 0 -7 1.5t-7 1.5q-1 0 -10 -3q-3 2 -8 2z" />
    <glyph glyph-name="g.ss01" horiz-adv-x="480" 
d="M168.5 24.5q-46.5 21.5 -81 63t-44.5 96.5q-13 75 -13 118q0 34 6 61q11 61 25 102.5t68 85.5t158 44q30 0 47 -2q22 -2 54 -24t48 -43q8 -11 15 -22t10 -23l3 -11v-5l1 -6v-6q0 -5 -2 -21q-2 -12 -7 -22q-2 0 -7.5 -4t-9.5 -7q-12 -7 -28 -7q-12 0 -17 -2h-9q-6 0 -9 -1
l-16 -6q-10 6 -15 18q-1 4 -2 10t-4 13l-8 22q-11 27 -25 37q-9 6 -28 6h-16t-24 -6q-30 -19 -47.5 -53t-20.5 -96q-2 -44 -2 -59q0 -50 14 -87.5t36 -57.5t45 -20h3q9 0 19 3q7 2 15.5 7.5t11.5 11.5q10 10 16.5 27t8.5 21t2 12.5t1 10.5t-2 4t-3 4q-1 1 -4.5 2.5t-7.5 1.5
h-41q-6 2 -12 2q-7 1 -14 5q-13 5 -13 15q0 1 -0.5 5t1.5 8l2 5l-3 6q2 7 4 8q-2 6 -2 14q0 4 3 7q0 5 1 9q1 5 11.5 8.5l13.5 4.5q3 2 23 9q10 2 24 4q8 1 26 1h24q15 -1 30 -4q14 -1 29 -8q6 -3 12.5 -6.5t7.5 -4.5l7 -24q2 -8 4 -20q1 -6 1 -18q1 -6 1 -21l-1 -32
q-1 -11 -9 -33q-2 -2 -2 -12q-23 -63 -74.5 -101.5t-116.5 -38.5q-45 0 -91.5 21.5z" />
    <glyph glyph-name="h.ss01" horiz-adv-x="509" 
d="M448 354q1 -43 1 -117q0 -51 -2 -75q-3 -30 -3 -87q0 -14 -1 -24.5t-2 -17.5q-1 -8 -8 -15q-9 -9 -16 -9q-4 0 -7.5 1t-5.5 1q-1 0 -4 -3.5t-5 -3.5q-5 0 -9.5 2.5t-7.5 2.5t-5 -1.5t-5 -1.5q-6 4 -9 5l-4 1l-4.5 1.5t-5.5 0.5h-9l-7 -1q-1 0 -2.5 3t-4.5 3h-5
q-2 0 -5.5 6t-3.5 11q0 4 -1 8t-1 7v171h-15q-6 3 -21 3h-74q-1 0 -1 -90q0 -30 3 -45q0 -12 1.5 -22.5t1.5 -19.5q0 -15 -6 -21q-3 -6 -15 -12t-21 -9q-2 -1 -14.5 -2.5t-36.5 -3.5q-12 3 -24 15t-15 21q-2 7 -3 13.5t-3 13.5q-3 14 -3 27v132l6 240q0 10 2 28l1 23v33
q3 12 9 24t9 15q6 6 15 6q4 0 10.5 1.5t13.5 1.5l12 3h6q20 0 28 -12q6 -12 6 -24q6 -20 10 -31t5 -14t4 -17.5t4 -42.5l3 -57v-48q0 -2 1 -4t2 -2h102q2 0 2.5 3t0.5 9l-3 90l-1 89q0 25 4.5 36t12.5 18q10 10 29 10h53q22 0 31 -15q2 -3 4 -6.5t2 -5.5q3 -6 3 -12v-51z
" />
    <glyph glyph-name="i.ss01" horiz-adv-x="315" 
d="M25.5 6q-7.5 5 -9.5 9l2 4q2 2 2 4l0.5 2.5t-1.5 5.5q-5 4 -5 6v1q0 2 2 4l1 3q3 5 0 7q-3 6 -2 7q0 2 -1 3.5t1 2.5l-1 6l2 6v9q1 5 5 8t11 5q5 2 21.5 4t37.5 2h2l-1 21v99q-1 14 -1 42v103q0 28 1 42v81l-44 1q-14 0 -19 12l-4 68q2 6 7 10l9 7q4 1 20 3l40 3
q11 0 31 2l20 2h12l128 -15q2 0 4.5 -1.5t4.5 -2.5q4 -4 4 -9q0 -3 -1 -4l-2 -18q0 -4 -1 -7q0 -6 -1 -9q-2 -6 -2 -9q-2 -4 -2 -19l-2 -7q-2 -5 -6 -8q-6 -3 -14 -3q-24 0 -44 -1l-4 -2v-3q0 -40 -1 -118t-2 -116v-73q-2 -32 -2 -47q0 -25 5 -26l36 -2q6 0 24 -3
q8 -3 13 -6q3 -2 5 -8v-13q-4 -27 -6 -37.5t-3 -11.5l-8 -10l-8 -9q-1 -1 -19 -1l-55 1l-165 -2q-7 0 -14.5 5z" />
    <glyph glyph-name="j.ss01" horiz-adv-x="395" 
d="M179 2l-21 1q-15 0 -35 5.5t-32 13.5q-76 48 -76 156q0 17 1 26l0.5 -0.5t3.5 1.5q4 2 6.5 0.5t3.5 -1.5q2 1 3 2l2 2q2 2 8 2q3 0 4 1l2 2q2 0 4.5 -1t3.5 0q1 2 1.5 4t2.5 3q1 1 4 0t4 -1h1q2 1 5 4t5 3q3 -1 3 1l1 3q0 1 2 3q1 0 3.5 -1t6.5 0q2 1 4.5 2.5t4.5 2.5
q4 1 9 1h1q4 -3 6 -15.5t2 -14.5q9 -32 17 -53q3 -12 11 -18t18 -6q7 0 14 3q16 6 24 15t10 25q3 20 3 43q0 59 -4 119l-4 56q-6 68 -6 102q0 38 5.5 64t23.5 29l62 9h2q7 0 16.5 -6t10.5 -12q17 -139 17 -264q0 -38 1 -58l1 -62q0 -83 -33 -129q-15 -21 -30 -31.5
t-42 -20.5q-14 -7 -23 -10q-5 -2 -16 -2q-8 0 -22 2z" />
    <glyph glyph-name="k.ss01" horiz-adv-x="429" 
d="M122.5 3q-7.5 2 -9.5 3q-12 4 -36 18l-12 6q-5 4 -5 9l15 528q1 12 12 20q4 0 14 3q5 1 22 5q7 2 21 4l15 2q3 0 10 -5q5 -5 8 -11q3 -4 4 -7t2 -5l3 -6l12 -134l115 157l3 2l4 1q11 0 19 -1q16 -2 24 -4q14 -4 21 -8q9 -6 9 -14q0 -11 -8 -33q-6 -20 -18 -46
q-9 -22 -27 -53l-31 -53q-23 -36 -32 -47q-18 -23 -30 -35q-2 0 -4 -6q-4 -5 -4 -8l4 -5q1 -3 4 -6l168 -165q1 0 3 -5l1 -6q0 -2 -3 -5t-3 -5q0 -6 -1 -8q-2 -3 -5.5 -5t-5.5 -5q-1 -2 -2.5 -3t-2.5 -2t-1.5 -4.5t-2.5 -6.5q-3 -3 -7 -5q-1 0 -1 -2.5t-3 -5.5l-8 -5
q-2 -1 -3.5 -3.5t-4.5 -4.5l-7 -2q-2 -1 -5 -3t-5 -2q-4 0 -9 3l-153 122l-4 -107q0 -7 -1.5 -12t-2.5 -6q-17 -20 -40 -20q-8 0 -15.5 2z" />
    <glyph glyph-name="l.ss01" horiz-adv-x="374" 
d="M97 4q-1 1 -14 22q0 1 -1 1l-1 2l-1 4q-6 11 -8 22t-3 27q-2 34 -2 49l1 39v50q0 42 -3 82q-2 42 -2 62l-1 46q-2 64 -2 97v3q0 10 1 16q0 8 2 20q1 5 5 18q4 7 12 10l70 26h3q10 0 17 -16q6 -13 13 -36q6 -19 9 -36l3 -18q1 -5 1 -11t1 -12l2 -37l3 -43l1 -22
q1 -7 1 -21q0 -26 1 -36l2 -24v-46q0 -15 -1 -23l-1 -24q0 -31 -1 -45v-29h118l14 -1l1.5 -1.5t2.5 -1.5q1 -1 2 0t3 0q1 -1 0 -3.5t0 -2.5t3 -2l1 -1l-1 -6q0 -2 -1 -3.5t-1 -4.5q0 -2 1 -4.5t1 -5.5q0 -2 -1.5 -4.5t-2.5 -4.5q0 -2 1.5 -3.5t1.5 -3.5t-1.5 -3t-1.5 -2
t1 -2.5t1 -2.5q0 -2 -2 -3.5t-2 -3.5q0 -3 1.5 -6t1.5 -4q0 -3 -2 -5.5t-2 -5.5l1 -9q0 -7 -4.5 -11.5t-10.5 -4.5l-21 -1q-6 0 -12.5 -1t-13.5 -1q0 -2 -32.5 -4.5t-126.5 -2.5q-16 0 -24 9z" />
    <glyph glyph-name="m.ss01" horiz-adv-x="602" 
d="M461 5q-2 0 -5 -2t-4 -1q-3 0 -7 3t-6 4t-7 2t-7 6q-6 14 -6 30l-4 28q0 8 -2 26q0 13 -3 25q-2 21 -3.5 62t-2.5 65l-2 35q-2 21 -5 29l-43 -90q-1 -3 -5 -8t-6 -7q-4 -7 -13 -7l-51 -6h-3q-9 0 -13 4l-6 10l-62 123q-2 -8 -2 -21v-73q0 -195 -6 -195q-5 -38 -26 -40
q-30 -5 -49 -5h-14l-8 1q-2 0 -10 5q-6 5 -6 8l-11 220q-1 8 1 26l1 22q0 36 -3 72q-2 24 -2 72v15l1 14v46q0 8 1.5 19t2.5 18q1 14 11 32q6 15 18 16l55 13h5l9 -2q5 0 9 -4q24 -34 35.5 -53t14.5 -23q3 -3 13 -17.5t29.5 -48t45.5 -85.5q34 63 68 114q9 13 15 23.5
l10 17.5q13 25 21 34q11 11 20 13.5t10 2.5q10 3 19 3h21l5 -2q1 -1 6 -1l7 -3l14 -37l14 -313v-29q0 -44 1 -66q1 -23 1 -67v-15l-1 -28q0 -3 -3.5 -2t-5.5 1q-4 0 -5 -1q-2 -1 -5.5 -1.5t-6.5 -0.5t-8 -3.5t-8 -3.5q-4 0 -6.5 1.5t-4.5 1.5h-1q-4 -1 -7 -3.5t-8 -2.5z" />
    <glyph glyph-name="n.ss01" horiz-adv-x="541" 
d="M365 17.5q-10 10.5 -20 27.5q-8 12 -13 22q-1 6 -87 168q-44 81 -46 87l-1 2q0 5 -6 11q-1 1 -3 1q-1 0 -1 -2l-1 -3v-14v-5q1 -5 2 -78l1 -36v-4l4 -138l-1 -23q0 -6 -15 -13.5t-38 -11.5l-7 -2q-33 1 -45 7t-15 16q-3 2 -3 5q-3 12 -3 13q0 4 -1 5l-2 13l-1 18v17
l-2 116l-1 41q0 52 3.5 150.5t7.5 124.5q0 5 1 7q2 10 4 16q1 8 9 10q1 0 7 2.5t72 7.5l8 2q2 1 7 1q6 0 8 -1q5 -2 7.5 -7t4.5 -8l56 -97l4 -8l6 -9q4 -6 39 -78.5t48 -102.5q2 -3 3 -2q1 3 1 10v10l-2 116v10q0 51 2 71l2 23l2.5 20t1.5 21v11q0 8 1 11q3 6 7 6q2 0 4 -2
t4 -3q1 0 3.5 3t3.5 3q2 1 3.5 -2t3.5 -3t4.5 3t5.5 3q2 0 3 -1q1 0 4 -3q1 0 4 3q1 0 2.5 -1t3.5 1q1 1 2 -1.5t2 -2.5t3.5 3t3.5 3t2 -0.5t2 0.5l2 2q1 0 2.5 -1.5t2.5 -1.5t1.5 1.5t2.5 1.5q1 0 2.5 -1.5t2.5 -1.5t2.5 1.5t2.5 1.5q2 2 5 1q0 -1 2 -1q6 0 7 -7
q4 -11 5 -19v-6q1 -4 3.5 -206t3.5 -282q0 -21 -6 -29l-5 -5q-12 -12 -35 -18.5t-43 -6.5h-3q-14 7 -24 17.5z" />
    <glyph glyph-name="o.ss01" horiz-adv-x="532" 
d="M199 5q-12 5 -24 11q-48 23 -77 58t-40.5 64.5t-20.5 64.5q-2 9 -4.5 30.5t-2.5 36.5q0 96 30 171q16 40 48.5 78.5t64.5 59.5q12 8 36 13q14 4 37 6h13q38 0 61 -3.5t46 -16.5q41 -22 72 -62q32 -43 47 -91q17 -56 17 -110q0 -32 -10.5 -79.5t-10.5 -49.5l-1 -2l-23 -58
l-15 -26q-20 -35 -61 -65q-41 -31 -80 -31l-47 -4h-32q-11 0 -23 5zM334.5 176.5q26.5 55.5 26.5 129.5q0 25 -3 49q-1 5 -3 21t-5 23v1q-4 8 -6.5 16t-5.5 14q-12 26 -30 36t-35 10q-7 0 -21 -3.5t-20 -7.5q-19 -13 -34.5 -46t-21.5 -70q-6 -40 -6 -77q0 -43 12 -77.5
t31.5 -54t41.5 -19.5q53 0 79.5 55.5z" />
    <glyph glyph-name="p.ss01" 
d="M72 5l-6 2h-6v47l10 521q2 2 5.5 8t7.5 6q82 11 201 11q50 0 83 -19q34 -20 47 -44q19 -32 22 -53q5 -32 5 -49q0 -24 -9 -53q-10 -31 -25 -53q-17 -25 -39 -41q-13 -9 -32.5 -16.5t-20.5 -8.5q-42 -20 -89 -20q-12 0 -21 1t-11 2v-7q0 -22 1 -27v-23q0 -40 -3 -81
l-7 -79q-1 -11 -6 -16.5t-12 -5.5l-8 1q-4 0 -6 -1q-3 -1 -7.5 -3.5t-7.5 -2.5q-2 0 -4.5 2t-3.5 2h-1q-4 -1 -6.5 -2.5t-5.5 -1.5q-5 0 -6.5 2t-6.5 2l-11 -5l-8 2q-2 1 -4 -0.5t-3 -1.5q-6 2 -6 5zM203.5 352q10.5 1 20.5 2q35 7 45 13q3 2 24 23q15 15 15 36v14
q0 16 -4 22q-4 7 -17.5 17t-20.5 12q-6 2 -10 2q-7 0 -14.5 -1.5t-15.5 -1.5q-11 0 -23 -2.5t-20 -3.5v-133q10 0 20.5 1z" />
    <glyph glyph-name="q.ss01" horiz-adv-x="540" 
d="M345 -20q-16 12 -43 50q-9 -9 -17 -12q-1 -1 -17 -8.5t-39 -7.5q-19 0 -58 21q-28 15 -53.5 38.5t-36.5 42.5q-51 91 -51 194q0 63 20.5 118.5t49 93.5t51.5 53q62 41 132 41q50 0 102 -24q57 -27 88.5 -89t35.5 -126v-5q0 -5 1 -9v-10q0 -74 -16 -131.5t-51 -106.5
l-36 -36q1 -2 8.5 -16t10.5 -24q3 -12 3 -15t-5 -8q-1 -1 -3 -2t-2 -3v-3.5t-2 -3.5q-5 -3 -7 -6l-3 -4q-2 -3 -9 -4q-1 0 -3.5 -2t-6.5 -2q-3 0 -6.5 1t-6.5 1q-2 0 -4 -2.5t-3 -2.5q-11 0 -23 9zM250 135q-1 10 14 32t21 28q3 3 9 3t15 -7l15 -14l13 -14l10 -11q2 8 9 19
q10 19 15 34q7 20 10.5 54t3.5 56v8q-2 44 -7 71t-23.5 52.5t-56.5 38.5q-12 4 -31 4q-29 0 -53 -32t-32 -52q-16 -32 -16 -77v-82q0 -42 24.5 -80.5t63.5 -46.5q-4 8 -4 16z" />
    <glyph glyph-name="r.ss01" 
d="M84 0q-6 0 -8 10q-2 8 -2 12v12l-1 85q0 28 1 42q4 56 4 128q0 56 -5 100q0 4 -5.5 52.5t-6.5 77.5l-1 11l3 9l6 13q5 10 8 14q2 2 41 12.5t64 14.5q53 9 84 9q28 0 49.5 -6.5t49.5 -22.5q37 -20 54 -49t17 -68q0 -28 -3.5 -49t-13.5 -50q-7 -19 -20 -36
q-29 -37 -44 -50.5t-41 -19.5q0 -2 42 -71l24 -39q2 -4 13.5 -22.5t18.5 -25.5q2 -2 2 -8q0 -2 -1 -3t-4.5 -4t-3.5 -5q0 -5 -1 -8t-2.5 -5t-2.5 -4q-1 -4 -2.5 -7.5t-1.5 -5.5q-1 -4 -5 -8q-1 -1 -4 -2t-5 -3t-3 -4l-2 -4q-7 -3 -10 -5q-4 -4 -5 -7h-3q-10 -3 -18 1.5
t-15 11.5t-10 9l-111 170l-6 3l-14 -172q-3 -19 -25 -26.5t-51 -7.5zM279 358q8 6 16 24q3 7 7 30q3 15 3 39q0 4 -3.5 12t-8.5 11q-24 15 -55 15q-21 0 -31 -7v-147q44 0 72 23z" />
    <glyph glyph-name="s.ss01" horiz-adv-x="407" 
d="M176 2q-12 2 -17 3q-32 6 -54 16q-20 10 -39 29q-12 11 -20.5 27t-17.5 42q-4 12 -2 25q0 1 2 1q1 0 4.5 -1.5t6.5 2.5q4 5 9 4.5t6 1.5q2 3 3 6t2 3h7q2 2 2.5 5t1.5 3h2q2 0 4.5 -1t3.5 0q2 2 3 5t3 4q4 2 6 2q3 0 9 -3q1 2 3.5 4t4.5 4q3 3 6 2.5t5 -0.5q4 0 5.5 2
t2.5 2q9 0 13 -3l16 -26q2 -3 4 -8t8 -8q2 -6 11.5 -10.5t10.5 -5.5q8 -5 20 -5q19 0 32 13t13 23q0 15 -1 21q-1 4 -8.5 12.5t-12.5 13.5l-124 81q-35 22 -55 55t-20 75q0 52 23 92q12 21 39 45q23 20 68.5 32.5t87.5 12.5q21 0 43 -10q32 -14 45 -27q15 -16 25 -38
q9 -17 16 -41v-2q1 0 1 -2l-1 -1v-5q0 -1 0.5 -5t-1.5 -8l-1 -19q-1 -5 -3 -10.5t-3 -11.5q-33 -12 -60 -17.5t-27 -4.5l-5 -1q-10 0 -12.5 6.5t-2.5 7.5q-4 9 -5 18t-6 18q-1 4 -6.5 10.5t-10.5 9.5q-7 6 -20 6q-5 0 -18 -4.5t-21 -11.5q-14 -11 -14 -27q0 -13 8 -24.5
t16 -17.5l119 -74q45 -28 61.5 -61.5t16.5 -78.5q0 -40 -20.5 -80t-61 -66.5t-97.5 -26.5l-10 -1q-10 0 -22 2z" />
    <glyph glyph-name="t.ss01" horiz-adv-x="432" 
d="M199 1.5q-3 1.5 -6 1.5q-2 0 -5.5 -1.5t-4.5 0.5q-5 1 -7.5 3t-2.5 9l-1 5q0 2 2 14l-14 429l-2 8l-2 6l-128 13q-7 0 -7 5q-1 3 -1 10v9l1 14l3 21l3 21q0 6 2 12.5t4 9.5q3 6 20 6h5l7 -1l297 4q21 0 27 -2q11 -3 15 -7q3 -2 5 -8q1 -6 2 -20.5t1 -30.5q0 -12 -1 -15
q-1 -13 -13 -25q-51 -7 -73 -9.5t-25 -2.5l-4 -4v-74q1 -16 1 -52v-116q0 -37 -1 -54v-90q0 -8 -2 -26l-1 -26q0 -21 -2 -27q-8 -8 -13 -6q-4 3 -8 1l-8 -3h-1l-9 1q-4 0 -6.5 -1t-6.5 -2q-2 0 -5 1.5t-6 1.5t-5.5 -1.5t-7.5 -0.5t-7.5 -0.5l-2.5 -1.5q-3 0 -6 1.5z" />
    <glyph glyph-name="u.ss01" horiz-adv-x="499" 
d="M175 7q-35 12 -60 33q-26 22 -43 51q-14 25 -14 70v41q0 31 -4 89l-3 50q-1 45 -1 139v13l2 16l3 24q2 16 4 23l3 15q11 12 31 20q10 3 25 5.5t26 2.5q8 0 18 -8q9 -11 9 -17l15 -318q1 -8 0.5 -17.5t-0.5 -13.5l2 -26q0 -8 1 -14.5t2 -11.5q3 -17 8 -29t19 -20
q6 -4 25 -4q20 0 32 15q12 12 20 35q7 16 11 41q3 21 3 33v299q3 21 4 33t1 15q0 7 10 0q1 1 2.5 3.5t6.5 2.5q1 0 2.5 -1.5t3.5 -1.5t4 1.5t6 1.5q1 0 2.5 -1.5t3.5 -1.5t5.5 3t7.5 3q3 0 5.5 -1.5t5.5 -1.5t6 1.5t6 1.5h16q2 0 6.5 -3t7.5 -3t10 5q2 0 3 -3q2 -2 4 -6
l3 -8q1 -1 1 -4l2 -35q4 -46 4 -68q0 -3 0.5 -30t0.5 -100q0 -23 -2 -70t-4 -60q-1 -25 -5 -53q-1 -9 -1.5 -15t-1.5 -8q-9 -26 -15 -38.5t-8 -14.5q-13 -20 -53 -57q-1 0 -2.5 -1t-4.5 -2l-15 -8l-17 -7q-10 -5 -14 -6q-1 -1 -12 -3l-15 -1q-5 -1 -16 -1h-16q-50 0 -72 7z
" />
    <glyph glyph-name="v.ss01" horiz-adv-x="544" 
d="M247 4.5q-23 2.5 -23 3.5l-9 9q-1 2 -2.5 4t-3.5 5q-5 5 -6 9l-87 246l-99 255q-4 8 -4 17q0 11 4 16l51 28l20 5q3 1 10 1q13 0 23 -5q9 -4 11.5 -10.5t3.5 -7.5l146 -408l127 364l6 12q7 15 19 25q3 2 5.5 4.5t4.5 3.5q9 3 10 3l3 -1q1 -1 1.5 -2t2.5 -2q4 0 7 1.5
t5 1.5l2 -1q4 -2 3.5 -3.5t0.5 -3.5q3 2 5 2t3 -6q4 3 9 3l3 -1q4 -1 5 -3t2 -3q4 3 9 0q2 0 2 -2t1 -4q2 -2 6 -2t5 -2t3 -4q5 3 7 3q5 0 5 -6l-20 -54l-163 -469l-9 -18q-3 -6 -15 -6q-67 0 -90 2.5z" />
    <glyph glyph-name="w.ss01" horiz-adv-x="636" 
d="M187 -3l-28 21l-7 7q-5 5 -5 9l-133 510q-1 2 -1 6q0 5 4 9q14 14 31 22l51 19q2 0 14 -4q8 -3 10 -12l86 -340q2 0 25 121q22 113 25 126q0 1 6 1q8 5 19 5q4 0 10.5 1t11.5 0l22 -3q5 -1 9.5 -0.5t8.5 -0.5q7 0 7 -6q2 -14 4 -20l11 -42q50 -185 52 -185q5 10 8 22
l6 26l7 23q13 43 39 130t38 132q0 3 4.5 10.5t11.5 7.5q4 0 7 -1t5 -2h1q2 0 4.5 1t6.5 1q9 0 12 -2.5t4 -3.5q2 -1 6 -1l13 1q2 0 6.5 -5.5t6.5 -7.5t7 0t7 -1t4.5 -3t3.5 -3q0 -1 4 -1.5t4 -4.5q0 -9 -8 -34.5t-9 -29.5q0 -4 -38 -153.5t-54 -211.5q-29 -94 -29 -102
q-2 -8 -7 -12q-12 -6 -15 -7q-10 -4 -15 -5q-4 -1 -31 4t-31 7l-13 6q-12 7 -22 20q-3 4 -5.5 12t-6.5 24q-16 72 -22 98t-7 29l-13 42l-7 -46l-15 -83l-3 -16q-2 -6 -4 -12.5t-4 -13.5q-2 -6 -4 -12.5t-4 -13.5l-7 -24q0 -3 -5 -12q-1 -2 -11 -6q-7 -2 -13.5 -3.5
t-10.5 -2.5l-15 -3l-9 -3h-6q-3 0 -5 2z" />
    <glyph glyph-name="x.ss01" horiz-adv-x="474" 
d="M91 17.5q-32 18.5 -36 22.5q-4 2 -7.5 6t-4.5 6q-3 3 -3 12q73 122 98.5 165.5t27.5 47.5q0 1 -0.5 3t-2.5 6q-6 12 -12 21l-43 65q-2 4 -3.5 6t-2.5 3q-53 90 -85 139q-1 2 0 3.5t1 2.5q2 0 8 2q2 1 3 3.5t2 3.5q2 2 8.5 4t7.5 3t0 3.5t1 4.5t5 2t4 1l4 4q1 1 5 1t5 1
t1 3t2 4q1 1 4 1h3.5t2.5 1q1 0 2.5 1t1.5 3t8 6q3 2 6.5 1.5t4.5 -0.5q2 0 3.5 1t3.5 1t4 -1t3 -2l120 -171l13 21q87 142 96 146q11 5 21.5 8.5t21.5 3.5q27 0 45 -9q9 -4 12.5 -10.5t5.5 -20.5q2 -13 2 -25q0 -13 -8 -27l-125 -214l114 -201q4 -10 -17 -31q-6 -6 -18 -14
q-3 -2 -6 -5.5t-7 -3.5q-1 0 -3 -1.5t-4 -1.5q-4 0 -7 -1t-5 -2q-6 -1 -10 -0.5t-7 0.5q-5 -2 -25.5 27.5t-23.5 32.5q-10 14 -27.5 42t-25.5 40h-9q-30 -45 -60 -87l-17 -25q-11 -19 -19 -27q-7 -9 -13.5 -14.5t-7.5 -6.5q-4 -2 -36 16.5z" />
    <glyph glyph-name="y.ss01" horiz-adv-x="443" 
d="M204 3q0 1 -0.5 1h-0.5l-3 -2t-11 -2q-4 0 -3 2t0 2q-5 0 -6.5 -2t-3.5 -2q-3 0 -3 1t-2 1l-8 -2q-3 0 -3.5 3.5t-1.5 3.5q-2 -2 -4.5 -2.5t-4.5 1.5q-4 2 -5 8.5t-1 16.5l-6 246l-117 231q-2 2 -4.5 10.5t-3.5 13.5q0 8 5 18q3 6 8 9.5t7 5.5l15 15q3 3 15 12q9 6 12 6
q2 0 4.5 1.5t4.5 1.5q21 0 27 -3l105 -201q0 3 6 9l18 24q4 9 22 36q3 6 11 18q13 18 63 96q6 12 9 12q3 3 15 3q24 0 36 -3t30 -9q6 -6 6 -15l-6 -39q-90 -170 -122 -231t-34 -66v-3q0 -1 -0.5 -4t-0.5 -8q0 -28 3 -102t4 -99q0 -6 -4 -8t-13 -2q-2 0 -5.5 -1.5t-7.5 -2.5
h-1q-2 0 -4.5 1.5t-5.5 1.5t-5.5 -2t-5.5 -3q-6 -3 -10 -3q-5 0 -9 6z" />
    <glyph glyph-name="z.ss01" horiz-adv-x="441" 
d="M56.5 3.5q-10.5 2.5 -36.5 9.5q-1 1 -2 3t-1 6q-5 8 -5 20q0 11 8 43q2 9 13 25.5t14 20.5q46 79 117 187t117 169q-22 3 -51 3l-64 -1q-48 -2 -68 -2h-24q-5 2 -11.5 3t-9.5 3q-4 0 -7.5 2.5t-7.5 6.5q-6 6 -6 18v12q0 5 1.5 9t1.5 9q0 12 3 18q2 4 4.5 7.5t4.5 7.5
q6 6 15 6q72 17 184 17q58 0 125 -5q4 0 8.5 -2t9.5 -4q12 -6 18 -12l18 -18q6 -6 6 -18v-6l-18 -66l-224 -344l-3 -12h183q1 0 5 -3t5 -8q0 -2 3 -2.5t4 -3.5v-4t-2 -3q4 -3 4 -5v-3q2 -1 1 -2.5t-1 -3.5q0 -5 -2 -7l4 -6v-10l-3 -5q3 -2 5 -4t1 -2.5t-1 -2.5q6 -5 6 -12
q0 -4 -4.5 -8t-10.5 -5q-51 -7 -96 -10.5t-57 -4.5q-42 -3 -126 -3h-36q-1 0 -11.5 2.5z" />
    <glyph glyph-name="zero" unicode="0" horiz-adv-x="493" 
d="M232.5 0.5q-6.5 0.5 -8.5 0.5q-3 0 -8 1t-28 5q-66 12 -112 79.5t-46 199.5q0 32 3 69q7 74 26.5 120t40.5 66.5t49 39.5q29 20 104 20q12 0 19 -1t10 -1q103 -13 142 -100.5t39 -205.5q0 -24 -4 -56q-8 -60 -34 -121q-24 -55 -74.5 -85.5t-96.5 -30.5q-15 0 -21.5 0.5z
M296.5 130.5q18.5 27.5 21.5 68.5l4 51q5 45 5 82q0 34 -4 59q-8 54 -26.5 78.5t-40.5 24.5q-31 0 -52 -17q-16 -13 -26 -44.5t-12 -70.5q-3 -63 -3 -87q0 -67 9 -104q8 -29 27 -48.5t49 -19.5t48.5 27.5z" />
    <glyph glyph-name="one" unicode="1" horiz-adv-x="340" 
d="M285 367l1 -75q1 -25 1 -75q0 -52 -6 -124l-2 -38q0 -39 -7 -46q-1 -1 -5.5 -1.5t-7.5 -2.5q-1 -1 -4 -2.5t-11 -2.5h-4l-18 1q-3 0 -5.5 -2.5t-4.5 -2.5q-12 -2 -18 -1q-3 1 -6 3t-5 2q-4 0 -6 -2.5t-5 -2.5q-7 0 -10 13t-3 61v92l-1 62v86q0 59 -4 115l-72 -60
q-6 -5 -13 -5q-6 0 -10.5 4t-5.5 5l-18 15q-7 7 -14 19l-9 18q-3 7 -4 12.5l-1 5.5q0 6 8 18q3 2 6.5 6t9.5 8q4 3 8.5 7.5t10.5 9.5l58 46q4 4 20.5 17.5t30.5 22.5q5 3 16.5 11t23.5 12q8 2 18 2q17 0 32 -3q6 -1 5.5 -1.5t1.5 -0.5q11 -1 15 -3.5t8 -8.5q0 -1 1 -1
l0.5 -2l2.5 -10l1 -4q4 -11 4 -28l-1 -27q0 -37 -1 -53q-1 -13 -1 -39v-50zM7 438z" />
    <glyph glyph-name="two" unicode="2" 
d="M46 8q-5 9 -9 22.5t-4 22.5q0 39 22 68l23 22l55 60l63 62l50 55q19 21 27.5 41.5t8.5 48.5q0 31 -31 62q-16 16 -40 16q-23 0 -34.5 -8t-24.5 -28l-12 -18q-5 -12 -11.5 -15.5t-15.5 -3.5q-8 0 -14.5 1.5t-13.5 1.5q-5 0 -9.5 3.5t-5.5 4.5q-1 0 -17 5q-15 4 -15 16
q0 13 3 24t4 17q2 15 11 30q10 18 39 38t63.5 33.5t59.5 13.5l27 -2l31 -3q23 -3 63 -36q33 -27 54.5 -56t21.5 -72v-12q0 -28 -10.5 -66.5t-23.5 -58.5l-81 -88l-85 -88v-3l137 2q23 0 36 -3q3 -1 10 -1.5t10.5 -2.5t3.5 -6q0 -1 -1 -2t0 -4l4.5 -4.5t3.5 -6.5
q0 -1 -1 -2.5t-1 -2.5l2 -8q0 -2 -2 -4.5t-2 -5.5q0 -1 3 -3.5t3 -3.5t-2.5 -3.5t-2.5 -3.5q0 -3 1.5 -4.5t1.5 -3.5t-1 -3q-1 -3 -4 -7t-4 -9q-2 -5 -10.5 -7t-30.5 -4l-35 -4q-59 0 -127 -4q-52 -2 -71 -2h-39z" />
    <glyph glyph-name="three" unicode="3" horiz-adv-x="432" 
d="M109 9.5q-43 19.5 -69.5 50t-26.5 60.5q0 8 0.5 13.5t3.5 10.5q2 1 7 2t9 4q2 2 4.5 5.5t4.5 4.5q1 1 4.5 0.5t5.5 -0.5q4 0 6.5 2t5.5 2q8 0 13 1q4 1 5.5 3.5t3.5 3.5q4 2 5 2q2 0 4.5 -1.5t4.5 -1.5q1 0 4 2.5t6 1.5q11 -6 16 -17q29 -53 77 -53q23 0 33 5t23 17
q23 21 23 46q0 18 -9.5 29t-25.5 20q-34 16 -59 16l-18 -2q-14 0 -21.5 2.5t-13.5 11.5q-7 9 -7 27q0 14 7 40q5 14 11 19t20 6l22 1q11 0 28 5.5t25 14.5q17 18 22.5 26.5t5.5 19.5q0 39 -23 57t-53 18q-21 0 -36.5 -11.5t-22.5 -31.5q-3 -7 -7.5 -13.5t-8.5 -6.5
q-3 0 -13 2q-3 0 -4 1t-4 1q-3 1 -9 0.5t-8 -0.5q-14 0 -30 6l-19 8q-2 2 -7.5 6.5t-5.5 12.5q0 6 6 26t16 36l12 18q16 23 56.5 44t86.5 21q39 0 69.5 -9t61.5 -25q32 -17 55 -56t23 -78t-24.5 -79.5t-70.5 -54.5q45 -8 74 -39.5t29 -82.5q0 -12 -3 -27q-14 -67 -72 -112
q-30 -23 -66 -36.5t-73 -13.5q-46 0 -89 19.5z" />
    <glyph glyph-name="four" unicode="4" horiz-adv-x="498" 
d="M473 183q0 -7 -2 -15q-3 -12 -10 -16q-10 -5 -70 -13l-1 -118q0 -14 -5 -14q-2 0 -4.5 -1t-5.5 -1q-2 0 -5.5 -3t-5.5 -4q-13 -5 -15 -5q-4 0 -7.5 -1.5t-6.5 -1.5q-6 0 -10.5 1t-7.5 1q-1 0 -2.5 1.5t-3.5 1.5q-1 0 -5 -2.5t-6 -2.5q-9 0 -15 8q-7 9 -7 23l-4 115
q0 1 -109 -6l-42 -3l-29 2q-8 1 -25.5 7.5t-25.5 12.5q-7 7 -13.5 32.5t-6.5 48.5q0 17 4 25l103 171l21 34l38 58l20 26q32 42 37 48q8 9 19 12.5t27 3.5q14 0 57 -5q12 -2 19 -6t13 -9.5t9 -12.5q3 -6 3 -26l-2 -301h45l12 1q8 0 13 -5q4 -4 9 -19q3 -9 3 -42zM273 440
l-59 -90l-23 -38l-43 -69q16 -3 29 -3.5t12 0.5l71 7q9 2 10 2zM376 248v1q-3 0 0 -1z" />
    <glyph glyph-name="five" unicode="5" horiz-adv-x="419" 
d="M390.5 252q13.5 -34 13.5 -56q0 -19 -3 -37q-5 -23 -10 -37q-16 -38 -24 -48q-28 -34 -68 -58.5t-80 -24.5h-17q-41 0 -69 8t-62 36q-12 10 -24 26t-19 30q-2 3 -7.5 13.5t-5.5 19.5q0 19 10 19q6 0 6.5 2.5t1.5 2.5q3 0 6 1t5 1t6.5 4t7.5 6q2 1 8 1q2 0 4.5 3t4.5 4
q5 2 13 2q4 0 6 3t3 3q9 0 18 -13q4 -6 17 -29q10 -17 29 -26.5t40 -9.5q14 0 25.5 4.5t28.5 14.5q10 7 15 24.5t5 41.5q0 30 -30.5 49.5t-103.5 19.5q-56 0 -75 12q-16 10 -16 34q2 47 7 137t8 134q2 6 4 11q4 4 7 5h2l117 5q45 3 81 3q47 0 59 -2l13 -2q5 0 15 -2
q7 -2 12 -7q6 -6 7 -9q2 -10 4 -17.5t2 -11.5q1 0 1 -0.5v-0.5q0 -25 -2 -22v-15q-3 -7 -6 -15.5t-5 -11t-8 -1.5q-5 0 -8 -1l-164 5h-25l-6 -126q142 0 199 -55q13 -13 26.5 -47zM389 541z" />
    <glyph glyph-name="six" unicode="6" horiz-adv-x="453" 
d="M439 199q0 -66 -13 -81q-21 -53 -73.5 -86.5t-110.5 -33.5q-33 0 -64.5 11t-56.5 29q-34 24 -54.5 60t-28.5 89q-8 51 -8 97q0 38 9 92q8 45 52 113q10 16 26 30t44 36q24 19 57 27.5t61 8.5q119 0 139 -34q2 -4 2 -9.5v-10.5q0 -7 -1 -14.5t-2 -13.5q-1 -13 -3.5 -18.5
t-6 -8.5t-5.5 -6q-6 -12 -26 -10q-8 2 -21 6.5t-27 7t-35 2.5q-23 0 -44.5 -7.5t-35.5 -20.5q-16 -14 -25.5 -27t-15.5 -31q-12 -34 -16 -76q16 13 46.5 25.5t40.5 13.5q8 1 25 1q71 0 111.5 -29.5t58.5 -110.5q1 -6 1 -21zM305.5 149q7.5 13 7.5 35q0 32 -12.5 50t-47.5 18
q-20 0 -45 -11t-47 -30q8 -51 25.5 -73.5t44.5 -31.5q8 -3 14 -3t15 4.5t21 11.5q17 17 24.5 30z" />
    <glyph glyph-name="seven" unicode="7" horiz-adv-x="433" 
d="M120 -3.5q-3 2.5 -6 3.5h-1q-2 0 -4 -1t-4 -1q-6 0 -9 2.5t-6 8.5q-2 2 -4.5 2.5t-4.5 2.5q-1 1 -5 2t-5 3t-5 2q-2 0 -5.5 -0.5t-5 0.5t-1.5 5q0 7 8 27t15 33l13 23l12 22q14 28 38.5 73t35.5 66q72 133 104 197q-45 6 -195 6h-24q-12 0 -21 6q-1 1 -5 3.5t-9 12.5
q0 1 -3 6t-3 17v19q0 6 5 16q2 4 3 7.5t3 7.5q4 4 15 6q58 10 125.5 13t158.5 3h33q20 0 36 -8q14 -7 19 -14q6 -7 6 -18q-1 -22 -3 -35q-7 -43 -20.5 -76.5t-34.5 -73.5l-15 -28q-45 -90 -73 -144t-43 -84q-38 -73 -35 -71q-8 -16 -13.5 -24.5t-14.5 -13.5q-4 -3 -8 -3
t-8 -1h-2q-3 0 -8 1t-9 0l-11 -3h-1q-2 0 -5 2.5z" />
    <glyph glyph-name="eight" unicode="8" horiz-adv-x="439" 
d="M120 13.5q-46 19.5 -73.5 57.5t-27.5 90q0 39 10.5 63.5t28 40.5t52.5 40q-34 18 -59.5 54.5t-25.5 67.5v19q0 22 11 46t25 40q31 35 75 56t93 21q38 0 67.5 -11.5t58.5 -31.5q67 -46 67 -125q0 -43 -31 -83q-32 -40 -62 -53q27 -11 42 -23t30 -31q10 -14 18.5 -34.5
t8.5 -38.5q0 -12 -3 -27q-12 -63 -54 -99q-6 -5 -17 -12t-17 -11q-51 -35 -118 -35q-53 0 -99 19.5zM264 366q17 15 23.5 29t6.5 35q0 32 -20.5 48.5t-44.5 16.5t-47.5 -21t-23.5 -46q0 -18 9.5 -33t27.5 -25q33 -18 39 -18q16 0 30 14zM275 117.5q19 17.5 19 44.5
q0 12 -3.5 25.5t-10.5 20.5q-13 13 -40 26.5t-38 13.5q-20 0 -36 -20.5t-16 -47.5l1 -21q0 -16 12.5 -30t29.5 -22t28 -7q35 0 54 17.5z" />
    <glyph glyph-name="nine" unicode="9" horiz-adv-x="476" 
d="M446 339q0 -46 -9 -100q-12 -73 -73 -142q-30 -34 -52 -50q-28 -20 -78 -35t-74 -15q-35 0 -42 1h-3h-6q-6 0 -9 4q-4 4 -4.5 8.5t-0.5 5.5q-5 0 -7 5t-2 6q-1 2 -1 5t1.5 6t1.5 6t-3 7t-3 7q0 5 -1.5 9t-1.5 6q0 3 0.5 5.5t-0.5 6.5q-1 2 -2 5t-1 6q0 6 4.5 8.5t9 3.5
t6.5 1q8 1 26 1q37 0 61 6q54 15 90 61q29 36 38 88q-46 -26 -78 -26h-33q-11 0 -18 0.5t-18 3.5q-39 6 -71 31t-50.5 60.5t-18.5 72.5q0 31 21 90l3 6q9 23 27.5 40.5t46.5 34.5q58 33 109 33q29 0 59 -6.5t51 -18.5q26 -14 46 -34q21 -21 33 -50t18 -70q8 -50 8 -93z
M315 366q-1 9 -5 39q-6 37 -15 54q-17 34 -53 42q-10 2 -14 2q-19 0 -38 -12q-39 -25 -39 -65q0 -16 4.5 -32.5t14.5 -26.5q23 -23 59 -23q42 0 86 22z" />
    <glyph glyph-name="asterisk" unicode="*" horiz-adv-x="349" 
d="M132 355q0 6 1.5 13.5t0.5 10.5l-2 41l-25 -16l-33 -25h-8q-1 1 -3.5 1.5t-3.5 1.5t-1 3t-1 3t-3 1t-3 1t-1 4t-1 4q-1 2 -3 3t-3 2l-1 2q0 2 2 4.5t1 3.5l-2 1q-2 0 -5 -0.5t-3 3.5q0 2 -1 3.5t-2 1.5q-2 4 -2 6q0 7 10 17l56 42l-71 37q-1 0 -1.5 1t-1.5 1q-9 7 -7 15
q6 26 11 34q7 9 15 15t13 6t13 -4l54 -26l9 -4l4 64q1 11 4 17t11 8q12 3 26 3q12 0 19.5 -1t8.5 -1q6 0 10 -2q3 -1 5 -6q0 -1 1 -3t0 -5l-3 -80l58 42q1 1 3.5 2t5.5 1q6 0 17 -7q29 -18 29 -38q0 -6 -5 -11l-64 -42l18 -13l51 -32q5 -2 5 -6q0 -1 -1.5 -2t-2.5 -2t-1 -4
q0 -8 -3 -11l-4 -4l-2 -2t-1 -3q0 -5 -4 -6.5t-4 -3.5q0 -1 1 -2.5t1 -3.5q0 -9 -2.5 -9.5t-3.5 -1.5l-1 -2q0 -3 -5 -8q-1 -1 -8 1l-44 26l-32 14l-2 -71v-8q0 -5 -1 -5l-3 -3h-1q-1 0 -3.5 0.5t-7.5 0.5q-4 0 -7.5 -1.5t-7.5 -1.5q-3 0 -6.5 -2t-6.5 -2t-5.5 1.5t-5.5 1.5
t-6 -2t-6 -2t-4.5 -0.5t-3.5 0.5q-8 5 -8 21z" />
    <glyph glyph-name="backslash" unicode="\" horiz-adv-x="485" 
d="M370 -26q-3 0 -5 -1.5t-3 -1.5q-4 1 -8.5 6.5t-7.5 8.5q-10 15 -11 17q-3 7 -7 13t-7 13q-12 18 -16 26l-10 18l-41 70q-10 18 -23 43l-30 54q-42 92 -129 256q-48 91 -51 103q-4 20 -6 36v4q0 12 9 12h3l43 12q4 1 20.5 -6t21.5 -11l14 -18l13 -20q3 -4 5 -8.5t4 -7.5
l2 -3l92 -183l108 -201l105 -200q0 -1 7.5 -13t7.5 -13t-4.5 0t-5.5 -1q0 -1 -2.5 -0.5t-4.5 0.5t-3.5 -3t-3.5 -3q-1 0 -3.5 2.5t-4.5 1.5q-4 -3 -6 -3t-5.5 2.5t-5.5 2.5t-4.5 -2t-4.5 -2q-2 1 -4 0.5t-4 -0.5l-11 -1q-2 0 -4.5 1t-4.5 1t-3 -3t-2 -2q-4 4 -9 4z" />
    <glyph glyph-name="periodcentered" unicode="&#xb7;" horiz-adv-x="249" 
d="M82 247.5q-24 15.5 -33 39.5q-4 11 -4 25q0 24 14.5 43.5t38.5 26.5q5 2 16 2q26 0 53.5 -17.5t34.5 -39.5q2 -6 2 -11q0 -20 -13.5 -47t-26.5 -32t-30 -5q-28 0 -52 15.5z" />
    <glyph glyph-name="bullet" unicode="&#x2022;" horiz-adv-x="334" 
d="M133 190q-17 6 -39 26q-21 19 -32.5 45t-11.5 53t11 48q6 12 24 30q32 32 80 32q30 0 60 -15q6 -2 21 -15q20 -17 29 -46t9 -61q0 -26 -4 -43q-1 -5 -10 -14q-18 -18 -53 -30.5t-63 -12.5q-12 0 -21 3z" />
    <glyph glyph-name="colon" unicode=":" horiz-adv-x="256" 
d="M82 337.5q-24 15.5 -33 39.5q-4 11 -4 25q0 24 14.5 43.5t38.5 26.5q5 2 16 2q26 0 53.5 -17.5t34.5 -39.5q2 -6 2 -11q0 -20 -13.5 -47t-26.5 -32q-12 -5 -30 -5q-28 0 -52 15.5zM96 -3q-26 11 -37 35q-5 13 -5 25t6 33q9 24 24 38q25 20 54 20q41 0 53 -27
q13 -10 19 -31q1 -4 1 -12q0 -18 -6 -35q-7 -21 -29 -35.5t-44 -14.5q-25 0 -36 4z" />
    <glyph glyph-name="comma" unicode="," horiz-adv-x="250" 
d="M203 53q0 -83 -102 -148q-7 -4 -19 -8t-18 -7q-1 -1 -1 1.5t-1 2.5q-5 0 -6 1q-2 2 -2 3.5t-1 2.5l-2 -1t-6 3q-1 1 0 2t0 3q-1 1 -3.5 0.5t-3.5 -0.5q-3 3 -3 6q0 2 -0.5 2.5t-0.5 2.5q-1 1 -2.5 1t-3.5 1q-4 1 -4.5 4t0.5 4q24 16 48 42t24 45l-6 1q-16 5 -28.5 22.5
t-12.5 36.5t15 36t37 26q3 1 11 3.5t14 2.5q15 0 33 -12t30.5 -28.5t12.5 -29.5v-17zM38 -92z" />
    <glyph glyph-name="ellipsis" unicode="&#x2026;" horiz-adv-x="771" 
d="M359 -32q-23 8 -36.5 28t-12.5 45v3q0 6 3 13q8 24 33 44.5t49 20.5q3 0 11 -2q19 -5 39.5 -26.5t22.5 -36.5v-4q0 -33 -25.5 -61t-58.5 -28q-14 0 -25 4zM85 -27q-13 5 -26.5 32t-13.5 47q0 5 2 11q7 22 34.5 39.5t53.5 17.5q11 0 16 -2q24 -7 38.5 -26.5t14.5 -43.5
q0 -14 -4 -25q-9 -24 -33 -39.5t-52 -15.5q-17 0 -30 5zM589 -10q-7 7 -14 21q-7 13 -7 30q0 33 27 55q4 5 13 9q19 8 43 8q20 0 36.5 -6t24.5 -18l6 -10q8 -16 8 -40q0 -15 -3.5 -28t-8.5 -20q-8 -10 -25 -17q-19 -8 -38 -8q-38 0 -62 24z" />
    <glyph glyph-name="exclam" unicode="!" horiz-adv-x="262" 
d="M117.5 178.5q-2.5 2.5 -6.5 2.5q-2 0 -3 -1t-3 -1h-2h-3q-5 0 -8 4l-2 1q-3 0 -5 -1t-4 -1q-5 0 -10 9q-6 16 -6 53v241q0 38 5.5 63.5t23.5 29.5q5 1 16 4t20 4q8 1 23 1q8 0 17.5 -5t9.5 -13q0 -54 2 -136l1 -112q0 -66 -8 -130q-1 -12 -10 -12l-8 1q-2 0 -5 -2t-5 -2
q-1 0 -3.5 1.5t-7.5 1.5q-6 0 -8.5 -1.5t-4.5 -1.5q-3 0 -5.5 2.5zM111 -11q-17 6 -30 16q-9 7 -10 11q-11 20 -11 40q0 26 17 43q3 3 7 8.5t9 7.5q15 7 34 7q34 0 56 -22q12 -12 16 -21q3 -6 3 -17q0 -17 -6 -36t-15 -28l-9 -8q-11 -7 -28 -7q-16 0 -33 6z" />
    <glyph glyph-name="exclamdown" unicode="&#xa1;" horiz-adv-x="262" 
d="M113.5 442q-5.5 2 -8.5 3q-23 6 -37 28q-11 17 -11 36q0 16 2 22q9 27 43 48q14 9 27 9q4 0 12 -2q13 -4 27 -16.5t24 -27.5q5 -8 7 -16l1 -7q0 -22 -11 -39t-29 -28q-20 -12 -35 -12q-6 0 -11.5 2zM73 0l-3 47q-5 50 -5 83l1 110q2 82 2 135q0 9 7.5 13.5t19.5 4.5l59 1
q18 0 23.5 -15t5.5 -48v-277q0 -50 -11 -61q-2 -2 -4.5 -1t-4.5 0l-8 -3q-2 -1 -3.5 -2.5t-3.5 -1.5h-7q-6 0 -9.5 -1t-7.5 -1q-2 0 -5 2t-5 2q-3 0 -7 -2.5t-6 -2.5l-14 1q-3 0 -5 -1t-3 -1q-5 0 -6 19z" />
    <glyph glyph-name="numbersign" unicode="#" horiz-adv-x="635" 
d="M614 440.5q-2 -1.5 -2 -2.5t2 -3t2 -5q0 -2 -2 -3t-4 -3q-1 -1 0.5 -4.5t-0.5 -4.5t-4 -1.5t-2 -1.5t0.5 -2.5t-0.5 -4.5t-5 -4.5t-7 -1.5l-95 -3l-30 -147h93q8 0 8 -4v-5q0 -4 1.5 -4t1.5 -1q1 -1 -1 -3.5t-2 -3.5q2 -6 2 -8q0 -3 -2 -4t-2 -2t1.5 -2.5t1.5 -3.5t-1 -3
t-1 -3l1 -10q0 -1 1.5 -3.5t-0.5 -5.5q-2 -2 -3 -7q-1 -3 -0.5 -6t-2.5 -4q-2 -1 -5 -5t-9 -5q-10 -2 -34 -2l-21 1q-2 0 -12 -0.5t-33 -0.5l-16 -83l-3 -16q-3 -23 -4 -25q-1 -3 -3 -15t-7 -12q-1 0 -3 1t-9 -1l-8 -2q-5 -1 -14 -1h-7q-1 0 -2.5 1t-2.5 1t-2.5 -1t-2.5 -1
q-2 1 -4.5 2.5t-3.5 1.5q-2 0 -6 -2.5t-5 -1.5q-2 3 -10 3q-1 0 -3 -1t-4 -1q-5 0 -5 11t8 63l11 61l2 10q-19 1 -116 -1l-2 -8q-14 -61 -22 -126q-1 -5 -4.5 -5.5t-4.5 -1.5q-4 -3 -8.5 -2.5t-6.5 0.5l-11 -4q-1 0 -3.5 1t-5.5 0q-2 0 -3 1.5t-3 1.5t-5.5 -2t-7.5 -2
t-6.5 2t-4.5 2l-8 -2q-6 0 -6.5 1.5t-1.5 2.5t-4 0t-4 1q-1 1 -1 6q0 10 2 22l12 110l-82 -2q-8 0 -11 3q-13 13 -13 42q0 13 3 20q2 4 2.5 8.5t2.5 8.5q4 8 11 15q5 5 22 5h79l21 119l4 24l-74 -2q-10 0 -16.5 5.5t-11.5 19.5q-3 6 -3 12v6l-1 15q0 14 2 21q3 10 11 13
q9 3 17 4l25 4q5 1 15 1.5t22 1.5q24 2 29 2l10 65l1 3q1 3 1 7t2 9q1 4 6 20q1 5 8 18q6 7 38 7h33q8 0 15 -4t9 -12q2 -10 2 -22.5v-16.5q0 -7 -2.5 -19.5t-2.5 -20.5l-1 -21l-1 -15q13 -1 108 -1l3 10q1 2 3 9t3 13q1 8 7 34q4 19 5 26q0 3 5 17q7 7 13 9q11 3 30.5 7.5
t31.5 6.5q2 0 8 -4t7 -8q1 -2 4 -11q2 -6 1 -10l-12 -100q80 -2 95 -3q14 -2 10.5 -5l-3.5 -3q2 0 3 -1t1 -3q0 -3 -1.5 -6.5t-0.5 -5.5t2.5 -4.5t1.5 -5.5q-1 -6 -3 -7.5zM381 393l-106 -3q-3 -13 -28 -147h110l15 97l6 39z" />
    <glyph glyph-name="period" unicode="." horiz-adv-x="249" 
d="M82 -16.5q-24 15.5 -33 39.5q-4 11 -4 25q0 24 14.5 43.5t38.5 26.5q5 2 16 2q26 0 53.5 -17.5t34.5 -39.5q2 -6 2 -11q0 -20 -13.5 -47t-26.5 -32t-30 -5q-28 0 -52 15.5z" />
    <glyph glyph-name="question" unicode="?" horiz-adv-x="402" 
d="M110 173q-2 2 -8 14q-8 17 -9 31.5t-1 17.5l2 21l3 20q7 51 55 84q18 12 36 21q29 14 43 27.5t14 39.5q0 11 -3.5 18.5t-11.5 16.5t-17.5 13.5t-25.5 8.5q-4 1 -24 1q-25 0 -63 -12q-5 -1 -18 -5t-24 -4q-10 0 -15 5q-17 21 -17 62q0 20 10.5 27.5t40.5 15.5
q43 12 115 12q79 0 137 -49q12 -10 19 -20q25 -36 25 -81v-12q0 -28 -8.5 -46t-25 -31.5t-58.5 -44.5l-22 -16q-30 -22 -46 -44q-13 -17 -13 -41q0 -12 1 -17q0 -4 1.5 -9t1.5 -9v-2q-2 -4 -11 -4q-6 0 -16 -2q-2 -1 -3.5 -2.5t-4.5 -1.5t-8 -3q-8 -4 -11 -4q-2 0 -4.5 -1.5
t-5.5 -1.5t-4.5 1t-3.5 1q-3 0 -4 -1q-4 -2 -7 -2t-11 8zM132 -8q-16 4 -26 11q-8 7 -14 26.5t-6 37.5q0 7 2 17q2 8 4 11q10 14 33 23t46 9q10 0 15 -1q11 -2 14 -5q17 -10 25.5 -26t8.5 -34q0 -5 -2 -17q-1 -2 -2.5 -9.5t-5.5 -12.5q-13 -15 -32 -23.5t-40 -8.5
q-6 0 -20 2z" />
    <glyph glyph-name="questiondown" unicode="&#xbf;" horiz-adv-x="394" 
d="M203 499q-14 17 -17 40l-1 12q0 4 2 12q9 23 30.5 38.5t46.5 18.5l10 1q9 0 18 -3q12 -4 25 -27.5t18 -43.5q2 -6 0 -12q-5 -20 -29.5 -37.5t-49.5 -21.5q-9 -1 -15 0q-24 6 -38 23zM164 -5q-43 9 -88.5 37.5t-45.5 101.5v12q0 52 33 90q18 20 33.5 32t35.5 22l24 12
q27 16 37 26t10 20q9 61 26 68q8 3 13 3q9 0 30 -7l34 -12q6 -2 6 -29v-9l1 -34q-4 -30 -17 -48t-41 -37q-44 -30 -54 -35q-18 -11 -28 -24t-10 -36q0 -43 75 -43q24 0 42 5q24 3 27 3q14 0 34 10q2 1 7 1q7 0 12 -4q3 -3 3 -15q0 -2 -1.5 -4t-1.5 -4t1.5 -3t1.5 -3
q0 -3 -1.5 -5t-1.5 -4t2 -4t2 -5q0 -2 -0.5 -6.5t0.5 -7.5q0 -1 -2.5 -3t-2.5 -4t1.5 -6.5t1.5 -10.5q0 -3 -3 -6.5t-3 -5.5q0 -7 -6 -9q-12 -5 -43 -14q-29 -10 -93 -10q-10 0 -50 5z" />
    <glyph glyph-name="quotedbl" unicode="&#x22;" horiz-adv-x="263" 
d="M116 423q-2 -1 -4.5 -1h-4.5t-4.5 2t-3.5 3q-2 0 -2.5 -0.5t-5.5 1.5q-4 3 -5.5 9.5t-2.5 8.5q0 -6 -2 6t-3.5 29t-1.5 33q0 12 1 16v34l-2 14q0 1 3 20q2 14 5 21q1 8 8 15q3 2 5.5 2.5t4.5 0.5q6 1 19.5 2t28.5 0q20 -2 24 -8q6 -6 8 -15q6 -39 6.5 -89.5t0.5 -65.5
q0 -29 -9 -34q-1 0 -4 -2.5t-8 -2.5q-3 0 -5 0.5t-5 0.5q-2 0 -4.5 -1t-4.5 -1q-3 0 -4.5 1t-3.5 1q-3 0 -4.5 -1t-3.5 -2q-1 -1 -5 -1q-5 0 -11 4z" />
    <glyph glyph-name="quotesingle" unicode="'" horiz-adv-x="446" 
d="M111 423.5q-1 2.5 -3 1.5q-5 -3 -9 -1q-2 1 -7 1q-2 0 -4 -1.5t-3 -1.5q-7 3 -8 15t-1 28q0 3 -0.5 14.5t-0.5 30.5v47v22l1 32q0 13 8 18q13 9 23 13.5t31 4.5q13 0 24 -4q7 -3 9 -4q7 -7 8 -15q1 -2 1 -5v-17q0 -13 2 -27l2 -14l-3 -41l1 -31q1 -24 -2.5 -39.5
t-6.5 -18.5q-2 -2 -3.5 -4.5t-3.5 -4.5q-1 -1 -3.5 1.5t-4.5 2.5q-4 0 -6.5 -1t-4.5 -1q-3 0 -4.5 1t-3.5 1q-4 0 -5 -2l-1 -2l-19 -1q-2 0 -3 2.5zM306 418q-2 1 -4 1l-7 -1q-11 0 -14 5q-3 -4 -6 -4q-5 0 -6.5 10.5t-1.5 12.5l-1 35v22l-1 49q0 19 -0.5 30.5t-0.5 14.5
q0 1 -1 4.5t-1 8.5q0 24 24 31q3 0 12.5 1t22.5 1q24 0 36 -12q3 -4 4.5 -7.5t2.5 -5.5l4 -14q2 -6 2 -16l-0.5 -1.5t-0.5 -4.5q0 -5 1 -9l-1 -41l2 -28l-2 -14l-2 -21l1 -21q0 -11 -1 -14t-3.5 -3.5t-3.5 -1.5t-2 -2.5t-3 -1.5q-6 0 -8 0.5l-2 0.5q-2 0 -4.5 -1.5
t-4.5 -1.5q-7 0 -9 1t-3 1q-5 -4 -11 -4q-5 0 -7 1z" />
    <glyph glyph-name="semicolon" unicode=";" horiz-adv-x="256" 
d="M100 327.5q-23 10.5 -35 22.5q-4 5 -6 9q-5 13 -5 26q0 20 8.5 41t22.5 35q6 6 13 9q18 8 34 8q32 0 52 -23q11 -13 14 -21q6 -18 6 -29q0 -19 -8.5 -37t-22.5 -32t-25 -17q-6 -2 -10 -2q-15 0 -38 10.5zM67.5 -102q-0.5 3 -1.5 3q-5 0 -7 2l-3 4h-2q-4 0 -5 5t0 5
q-6 2 -6 8q0 1 -2 3v2.5t-2 0.5q-1 -1 -2.5 0t-1.5 3q0 1 3 3q18 8 38 33.5t20 45.5l-6 1q-16 5 -28.5 22.5t-12.5 36.5t15 36t37 26q3 1 11 3.5t14 2.5q23 0 48 -23t25 -43v-23l1 -4q0 -36 -22.5 -72t-67.5 -66q-15 -11 -34 -16q-8 -2 -8.5 1z" />
    <glyph glyph-name="slash" unicode="/" horiz-adv-x="490" 
d="M110 -41.5q-3 3.5 -5 2.5q-6 -3 -10 -4t-5 -1l-0.5 3t-7.5 2h-2q-2 0 -3.5 1t-3.5 1q-4 0 -10.5 -1.5t-10.5 -2.5h-1q-3 0 -3 4.5t-2 5.5q-1 1 -3 1q-3 0 -6.5 -2.5t-5.5 -2.5t-2 2.5t-1 4.5q-1 1 -5.5 -0.5t-4.5 0.5q-1 2 -2 4.5t-1 4.5q0 1 5 8t5 9l109 211l86 155
l113 213l2 3q2 3 4 7.5t5 8.5l13 20l14 18q4 4 20.5 10.5t21.5 6.5h53q9 0 9 -12q0 -10 -6 -40q-2 -10 -7.5 -24t-7.5 -19q-6 -17 -7 -18q-1 -5 -10 -23l-24 -41q-22 -37 -23 -40l-19 -43q-8 -16 -35 -62q-42 -73 -53 -95l-30 -54q-13 -25 -23 -43l-38 -67l-10 -18
q-4 -8 -16 -26q-3 -7 -7 -13t-7 -13q-1 -2 -11 -17q-2 -2 -10 -13.5t-15 -14.5h-1q-2 0 -5 3.5z" />
    <glyph glyph-name="underscore" unicode="_" horiz-adv-x="463" 
d="M223 -61q-13 1 -66 1q-95 0 -123 4h-4q-8 3 -14 18.5t-6 22.5l3 10q9 12 10 13q2 2 11 12q8 5 12 5h178l215 -3q4 -1 4.5 -3t1.5 -3v-4q2 0 4 -2.5t2 -4.5q-1 -2 -2.5 -4t-2.5 -3q0 -2 0.5 -3.5l1.5 -4.5v-1q0 -1 -1.5 -3t-1.5 -4q0 -5 1 -6.5t0 -9.5q0 -2 -8 -15
q0 -1 1 -5t-5 -5q-8 -1 -18.5 -0.5t-19.5 -0.5q-6 -1 -17.5 -1h-18.5q-5 0 -8 -0.5t2 -1.5h-33q-66 0 -98 2z" />
    <glyph glyph-name="braceleft" unicode="{" horiz-adv-x="392" 
d="M378 574l-1 -1q-2 -2 -3 -2q-4 -2 -5 -3l-7 -3l-7 -3l-4 -1l-37 -7q-41 0 -41 -66v-29q1 -14 1 -32v-10q2 0 2 -19q0 -17 -8.5 -41t-23.5 -43t-33 -24l2 -1q22 -7 40 -33t18 -55q0 -15 -1 -23l-1 -24q0 -15 1 -23q0 -6 0.5 -14.5t-0.5 -17.5q0 -24 6.5 -32t24.5 -15
l39 -11q1 0 1.5 -0.5l1.5 -1.5l7 -4l6 -5l4 -4q1 0 2 -2l1 -1q0 -1 -1.5 -3t-2.5 -5q-1 -4 -3 -8t-2 -7q0 -6 -3 -15q-1 -3 -2 -4.5t-2 -2.5q-1 -3 0.5 -5.5t1.5 -3.5q-1 -3 -4 -3.5t-4 -1.5q-2 -6 -3 -7q-2 -2 -4 -3t-2 -4q0 -4 -7 -4q-3 0 -23 4q-1 0 -4 1.5t-5 1.5
q-58 6 -96.5 39t-42.5 83q-2 34 -2 39l1 36q0 8 0.5 11.5t0.5 11.5v9q-1 0 -1 10q0 55 -62 55l-12 -2q-6 2 -13.5 2.5t-10.5 2.5q-4 0 -6.5 3.5t-5.5 7.5q-2 2 -2 8q0 2 3 17l4 14q1 2 1 5t-1 6.5t-1 6.5t3 6.5t0 5.5q-4 3 -4 6q0 2 1.5 4.5t2.5 4.5q6 6 15 6l22 1h24.5
t29.5 9.5t9 30.5v42l-1 41q0 15 2 49q0 10 2 17.5t6 18.5l1 4l1 2q1 0 1 1q3 5 14.5 23.5t30 33t45.5 24.5q8 3 27.5 7t23.5 5q7 0 13.5 -1t12.5 -1l21 -1q24 -18 24 -36z" />
    <glyph glyph-name="braceright" unicode="}" horiz-adv-x="392" 
d="M342 302q-1 -3 -2.5 -6.5t-1.5 -7.5l0.5 -1.5t0.5 -6.5q0 -3 -3 -6.5t0 -5.5q4 -3 4 -6q0 -2 -1.5 -4.5t-2.5 -4.5q-3 -6 -15 -6l-22 -1q-27 0 -42 -8t-15 -23v-42q0 -7 0.5 -10.5t0.5 -10.5q0 -15 -2 -49q0 -10 -2 -17.5t-6 -18.5l-1 -4l-1 -2q-1 0 -1 -1
q-4 -6 -15.5 -25t-29.5 -38t-45 -38q-9 -7 -29 -9t-22 -3l-60 2q-4 0 -0.5 2.5t0.5 2.5q-1 1 1 2.5t1 2.5l-1 2q0 2 1 4.5t0 4.5q-2 5 -2 7.5v5.5l1 6q0 3 -2 7t-1 7t-2 6t2 6q3 2 3 4q0 1 -5 5.5t-1 11.5q1 1 3 1t3 1q2 1 3.5 2t2.5 2l7 3l4 1l37 7q14 9 24.5 25.5
t10.5 40.5v29q-1 14 -1 32v16q0 -10 -1 -10q0 1 -0.5 4.5t-0.5 8.5q0 46 17.5 73t47.5 35l-2 1q-33 21 -45.5 41.5t-12.5 56.5q0 15 1 23l1 24q0 23 -1 33q0 7 -0.5 15t0.5 17q0 24 -6.5 32t-24.5 15l-39 11q-1 0 -1.5 0.5l-1.5 1.5l-7 4l-6 5l-4 4q-1 0 -2 2l-1 1l14 45
q4 12 10 19.5t16 11.5l21 -3q3 -1 3.5 -2t5.5 -1q58 -6 97 -39t42 -83q2 -34 2 -39l-1 -46q0 -8 -0.5 -11.5t-0.5 -11.5v-9q1 0 1 -10q0 -26 12 -40t36 -21l22 -4q7 -2 13.5 -3t10.5 -2q11 -4 12 -11q0 -1 1 -2.5t1 -4.5q0 -7 -5 -25z" />
    <glyph glyph-name="bracketleft" unicode="[" horiz-adv-x="316" 
d="M95 -46q-1 1 -14 22q0 1 -1 1l-1 2l-1 4q-10 27 -11 49q-2 34 -2 49l1 89v42v8q0 39 -2 121l-1 41v50l-1 89q0 15 2 49q0 10 2 17.5t6 18.5l1 4l1 2q1 0 1 1q13 21 14 22q9 11 27 14q19 3 55 3q20 0 34.5 -1t18.5 -1q7 0 13.5 -1t12.5 -1l21 -1q18 -13 18 -36l4 -47
l-1 -1q-2 -2 -3 -2q-4 -2 -5 -3l-7 -3l-7 -3l-4 -1h-78v-29q1 -14 1 -115v-16l1 -22q1 -7 1 -21q0 -26 1 -36l2 -24v-46q0 -15 -1 -23l-1 -24q0 -101 -1 -115v-29l78 -7l27 -1q1 0 1 -2q0 -5 -5 -10q7 -7 -3 -10q1 -6 4.5 -8t3.5 -3q0 -5 -3 -5.5t-4 -0.5q0 -1 1.5 -2
t1.5 -6q-1 -2 -1.5 -2.5t-0.5 -2.5v-7l-3 -15q0 -4 2.5 -8t0.5 -7t-8 -3.5t-9 -2.5l-21 -1q-6 0 -12.5 -1t-13.5 -1h-108q-16 0 -24 9z" />
    <glyph glyph-name="bracketright" unicode="]" horiz-adv-x="316" 
d="M71.5 -50q-6.5 1 -12.5 1h-5q-19 0 -27 8q-2 1 1 2.5t3 2.5q0 2 -2 4t-3 5q-1 1 0 3t1 3q0 3 -1 4.5t-1 4.5q0 1 1.5 2t1.5 4t-3 8.5t-3 7.5t3 3t1 3q-4 4 -2.5 7.5t0.5 3.5q1 1 0 3.5l-1 2.5q-3 6 -1.5 6t2.5 1q-1 1 -2 3t1 3q4 1 11.5 1.5t11.5 1.5l4 1h78v27
q-1 14 -1 115v16l-1 22q-1 7 -1 21q0 26 -1 36l-2 24v46q0 15 1 23l1 24q0 114 1 128v29h-78l-4 1l-7 3l-7 3q-1 1 -5 3q-1 0 -3 2l-1 1l4 47q0 23 18 36l21 1q6 0 12.5 1t13.5 1h105q16 0 24 -9q1 -1 14 -22q0 -1 1 -1l1 -2l1 -4q10 -28 11 -45q2 -34 2 -49l-1 -79v-62v-8
q0 -39 2 -121l1 -41v-50l1 -89q0 -15 -2 -49q0 -10 -2 -17.5t-6 -18.5l-1 -4l-1 -2q-1 0 -1 -1q-13 -21 -14 -22q-7 -8 -27 -12q-20 -3 -52 -3h-60q-7 0 -13.5 1z" />
    <glyph glyph-name="parenleft" unicode="(" horiz-adv-x="332" 
d="M250 -61q-3 0 -8.5 2.5t-8.5 2.5l-21 7l-16 10q-6 4 -14 8t-13 8t-12 11.5t-13 11.5q-13 9 -15 14q-1 2 -2.5 3t-3.5 4t-7.5 11.5t-5.5 10.5q0 3 -1.5 4.5t-1.5 2.5q-22 44 -40 128t-15 142q4 82 25.5 131.5t40.5 75t24 32.5q10 15 24 29q15 14 37 28.5t40 20.5l34 11h3
q5 0 9 -2q9 -6 13 -16q0 1 5.5 -6t7.5 -10q1 -3 1 -9q0 -3 2.5 -9t3.5 -12l1 -11q0 -2 -5.5 -7.5t-5.5 -7.5q-4 -4 -11 -10.5t-10 -8.5q-6 -2 -15 -9t-15 -14q-47 -53 -64.5 -122t-17.5 -125q0 -74 10 -108.5t11 -38.5q18 -66 79 -95q1 -5 6 -7q2 -2 4 -2q0 -1 1 -2.5
t1 -3.5l-2 -7q0 -2 -0.5 -4.5t-1.5 -5.5q-3 -3 -3 -7q0 -8 -1 -9.5l-3 -4.5q-1 0 -2.5 -1.5t-2.5 -1.5q-2 0 -0.5 -4t0.5 -4q0 -1 -2 -2t-3 -3q-1 -1 -1 -6q-4 -2 -3.5 -4.5t0.5 -3.5v-1q-1 -2 -4.5 -2t-6.5 -1q-2 -1 -5 -1z" />
    <glyph glyph-name="parenright" unicode=")" horiz-adv-x="317" 
d="M77 -69q-5 0 -8 3q-1 1 -5 1q-5 -3 -7 -1q-1 1 -1 6q-1 1 -3.5 0.5t-3.5 -0.5q-1 1 -1.5 4t-2.5 3h-1q-1 1 -0.5 2t-0.5 2h-6v1l-2 2t-1 2t1 2.5t1 4.5q0 1 -1 2l-2 2q0 2 -4 3.5t-5 1.5q-1 2 0.5 4t1.5 3q-2 4 -2.5 4t-1.5 2h-7l5 11q-1 2 0 3.5t1 2.5q4 0 2 2q5 3 5 6
v2q4 9 11 12q3 1 7 10q6 3 19.5 15.5t17.5 19.5q33 55 47.5 119t14.5 111q0 69 -23 141l-5 21q-2 10 -7 24t-9 23q-25 50 -50 59q-1 1 -4 4.5t-5 4.5q-3 1 -6.5 4t-4.5 6q-1 5 -6 7q-2 2 -4 2q0 1 -1 2.5t-1 3.5q1 7 7 19.5t8 16.5q0 1 1.5 2.5l2.5 2.5q1 16 21 16l9 -1
l38 -11l16 -10q6 -4 12.5 -7.5t14.5 -8.5q6 -5 13 -12.5t12 -10.5q14 -10 15 -14q1 -2 2.5 -3t3.5 -4t7.5 -11.5t5.5 -10.5q0 -3 1.5 -4.5t1.5 -2.5q22 -43 38 -120.5t14 -133.5q-6 -161 -70 -257q-7 -11 -9 -15q-1 -4 -5.5 -11.5t-9.5 -12.5q-5 -4 -12 -11.5t-13 -11.5
q-10 -7 -18.5 -13t-14.5 -10q-5 -4 -15.5 -9.5t-15.5 -10.5h-3z" />
    <glyph glyph-name="emdash" unicode="&#x2014;" horiz-adv-x="743" 
d="M230 224q-26 2 -40 2h-106q6 0 -7.5 0.5t-18.5 2.5q-8 0 -17.5 2.5t-13.5 6.5q-2 3 -4.5 7t-2.5 7q0 4 2 9.5t2 11.5l1 9q0 2 -1 4t-1 4q0 3 4 15q1 3 2 8.5t5 9.5q2 3 15 3l33 -1q24 0 50 3l172 1q55 0 78 -1q100 -2 159 -2q114 0 147 -3q16 -1 20.5 -3.5t4.5 -15.5v-1
l-1 -9q0 -2 -1.5 -3.5t-1.5 -2.5q0 -2 2 -5t4 -5q6 -8 2 -9.5l-4 -1.5q1 -2 3 -4.5t2 -5.5v-2q0 -1 -2 -5t-2 -9l1 -12q0 -5 -3 -6l-198 -1l-51 1l-198 -1q-11 0 -35 2z" />
    <glyph glyph-name="endash" unicode="&#x2013;" horiz-adv-x="494" 
d="M468.5 305q1.5 -2 1.5 -5q0 -2 -1 -4t-1 -5q0 -2 1 -4.5t1 -4.5q0 -4 -2.5 -6.5t-2.5 -4.5q0 -4 1 -6l2 -4v-1q0 -2 -2 -5.5t-2 -6.5v-3.5t-1 -3.5q-2 -5 -49 -8q-15 -1 -49 -5l-172 -1q-124 0 -145 8q-11 4 -13 8q-1 3 -1.5 6t-1.5 6q-1 2 -3 2.5t-3 2.5q-1 4 -1 8.5
t-1 7.5t-1 21q0 -2 1.5 -1.5t2 2.5t-0.5 5q-1 1 -1 4t1 5.5t2 4.5q1 3 1 5.5v3.5l203 9q11 0 35 -2q26 -2 40 -2h106q-6 0 7.5 -0.5t18.5 -2.5q8 0 17.5 -2.5t13.5 -6.5q1 -1 1 -3q0 -1 -2 -3t-2 -4t1.5 -4zM23 297z" />
    <glyph glyph-name="hyphen" unicode="-" horiz-adv-x="354" 
d="M27 245q-4 31 -4 42q0 6 2 12l9 17q2 4 13 8q15 5 33.5 6.5t63.5 2.5q18 0 78 2q34 -4 49 -5q47 -3 49 -8q6 -6 6 -10t-4 -8l-1 -1q0 -1 4 -3t4 -5t-2.5 -6.5t-2.5 -6.5q0 -2 2.5 -5t3.5 -5q0 -2 -2 -5.5t-2 -8.5q0 -2 1 -4.5t1 -4.5q0 -3 -1 -5q-4 -4 -13.5 -6.5
t-17.5 -2.5q-5 -2 -18.5 -2.5t-7.5 -0.5h-69q-175 0 -174 13z" />
    <glyph glyph-name="quotedblleft" unicode="&#x201c;" horiz-adv-x="473" 
d="M223.5 638q0.5 -3 -0.5 -4q-23 -20 -40.5 -43t-14.5 -42q2 1 3.5 0.5t2.5 -0.5q16 -2 29.5 -20.5t13.5 -38.5q0 -18 -13 -35.5t-31 -26.5t-30 -9q-21 0 -46.5 20t-31.5 40l-3 17l-1 4q-1 5 -1 15q0 36 17.5 68.5t66.5 64.5q18 12 32 19q3 1 7.5 1t5.5 -1q-2 -2 -2 -3
q2 -2 2.5 -3.5t1.5 -2.5q1 0 2.5 1.5t5.5 -2.5l1 -0.5t2 -2.5q1 -1 2.5 -1h2.5l2 -1.5t2 -4.5q0 -1 1.5 -1t1.5 -2q0 -3 4 -3q5 0 5.5 -3zM408 532q11 -15 11 -34q0 -31 -13 -50.5t-35 -25.5q-14 -4 -30 -4q-26 0 -50.5 21.5t-24.5 55.5q0 2 -1 7t0 11q3 39 20.5 69.5
t59.5 56.5l35 21q4 2 6 -0.5l2 -2.5q5 -5 5 -6t1.5 1t5.5 -2q1 0 2.5 -1t2.5 -3q1 -1 2.5 -0.5t1.5 1.5q2 -2 3 -5q1 -2 2.5 -3t1.5 -2q0 -2 4 -2q5 0 8 -2.5t3 -4.5q-3 -3 -19.5 -17.5t-26 -30t-9.5 -28.5l6 -1q15 -4 26 -19zM207 653zM409 647z" />
    <glyph glyph-name="quotedblright" unicode="&#x201d;" horiz-adv-x="468" 
d="M420 555q0 -79 -73 -132q-13 -10 -32 -19q-5 -2 -7 0l-4 3q-2 2 -2.5 3.5t-1.5 2.5q-1 0 -2.5 -1.5t-5.5 2.5l-1 0.5t-2 2.5q-1 1 -2.5 1h-2.5l-2 1.5t-2 4.5q0 2 -1.5 2t-1.5 1q0 3 -4 3q-5 0 -5.5 3t0.5 4q19 16 33 40t11 44q-2 -1 -3.5 -0.5t-2.5 0.5
q-16 2 -29.5 20.5t-13.5 38.5q0 18 13 35.5t31 26.5t30 9q21 0 46.5 -20t31.5 -40l3 -17l1 -4q1 -5 1 -15zM194.5 629q24.5 -20 24.5 -54l1 -18q-3 -33 -23.5 -69t-44.5 -56q-23 -19 -34 -25q-4 -2 -6 0.5l-2 2.5q-5 5 -5 6t-1.5 -1t-5.5 2q-1 0 -2.5 1t-2.5 3
q-1 1 -2.5 0.5t-1.5 -1.5q-2 2 -3 5q-1 2 -2.5 3t-1.5 2q0 2 -4 2q-5 0 -8 2.5t-3 4.5q18 17 30.5 38t11.5 41l-6 1q-15 4 -29 24t-14 39q0 30 14 42.5t40 20.5q14 4 30 4q26 0 50.5 -20zM89 420zM284 418z" />
    <glyph glyph-name="quoteleft" unicode="&#x2018;" horiz-adv-x="268" 
d="M203 532q11 -15 11 -34q0 -31 -13 -50.5t-35 -25.5q-14 -4 -30 -4q-26 0 -50.5 21.5t-24.5 55.5l-1 18q3 39 20.5 69.5t59.5 56.5l35 21q4 2 6 -0.5l2 -2.5q5 -5 5 -6t1.5 1t5.5 -2q1 0 2.5 -1t2.5 -3q1 -1 2.5 -0.5t1.5 1.5q2 -2 3 -5q1 -2 2.5 -3t1.5 -2q0 -2 4 -2
q5 0 8 -2.5t3 -4.5q-3 -3 -19.5 -17.5t-26 -30t-9.5 -28.5l6 -1q15 -4 26 -19zM204 647z" />
    <glyph glyph-name="quoteright" unicode="&#x2019;" horiz-adv-x="268" 
d="M220 557q-3 -33 -23.5 -69t-44.5 -56q-23 -19 -34 -25q-4 -2 -6 0.5l-2 2.5q-5 5 -5 6t-1.5 -1t-5.5 2q-1 0 -2.5 1t-2.5 3q-1 1 -2.5 0.5t-1.5 -1.5q-2 2 -3 5q-1 2 -2.5 3t-1.5 2q0 2 -4 2q-5 0 -8 2.5t-3 4.5q18 17 30.5 38t11.5 41l-6 1q-15 4 -29 24t-14 39
q0 30 14 42.5t40 20.5q14 4 30 4q26 0 50.5 -20t24.5 -54zM89 420z" />
    <glyph glyph-name="uni2003" unicode="&#x2003;" horiz-adv-x="743" 
 />
    <glyph glyph-name="uni2002" unicode="&#x2002;" horiz-adv-x="494" 
 />
    <glyph glyph-name="uni200A" unicode="&#x200a;" horiz-adv-x="16" 
 />
    <glyph glyph-name="uni00A0" unicode="&#xa0;" horiz-adv-x="255" 
 />
    <glyph glyph-name="uni2009" unicode="&#x2009;" horiz-adv-x="51" 
 />
    <glyph glyph-name="cent" unicode="&#xa2;" horiz-adv-x="370" 
d="M358.5 221q1.5 0 1.5 -5q0 -25 -1.5 -39t-3 -18t-2.5 -5q0 -2 -10.5 -19.5t-28.5 -35.5q-7 -12 -21 -18q-10 -5 -32 -11q-15 -4 -31 -4q0 -15 -2 -41l-1 -35q-1 -7 -4 -14.5t-5 -7.5h-1l-4 5q-2 0 -3.5 -2t-2.5 -2t-2.5 2t-2.5 2q-2 0 -3.5 -0.5t-3.5 0.5q-1 0 -1.5 2.5
t-3.5 2.5q-1 0 -2.5 -0.5t-3.5 0.5l-5 2q-8 4 -10 86q-23 0 -43 6.5t-30 16.5q-20 10 -32 23t-26 32q-10 16 -14.5 53t-4.5 76v4v5l1 10q1 5 1 20l3 21q0 5 0.5 7t0.5 3q8 30 34 64q4 4 11.5 13t11.5 15q4 4 12 10q-2 -1 13 10l10 7q4 3 13.5 4.5t13.5 2.5q5 2 10.5 4
t10.5 4v21q0 53 14 55q8 2 11 2l11 -1q2 0 4 1.5t3 2.5q6 2 8 2h1q16 0 16 -13v-65q14 -2 21 -4q10 -2 21 -7q10 -4 21 -11q1 0 8 -5q3 -4 4 -4q40 -40 47 -83v-1v-4l2 -21q-3 -9 -4 -11q-3 -3 -7 -9q-7 -5 -11 -5l-40 -1q-5 0 -15 5q-7 7 -7 10q0 12 -10.5 34.5t-18.5 29.5
q-2 1 -4.5 1t-5.5 1l1 -191q0 -36 -1 -57l7 1l10 10q9 7 14 19.5t8.5 26t5.5 18.5q1 5 6 9.5t8 4.5q2 0 5.5 -1t10.5 -1h2q1 -1 2 -2.5t2 -1.5q2 0 3.5 -1.5t2.5 -1.5t7 2l3 0.5t6 -1.5q2 -1 2.5 -2t1.5 -1t2.5 1.5t3.5 1.5t2 -1t1 -1q7 0 7 -6q0 -1 1.5 -1zM160 158l8 -3
v231q-29 -25 -30 -27t-2.5 -4t-1.5 -4q-1 -1 -2 -2.5l-3 -4.5l-5 -12l-5 -13l-2 -7l1 -41v-12q1 -2 1 -7q0 -6 2 -18.5t7 -26.5q16 -44 32 -49z" />
    <glyph glyph-name="dollar" unicode="$" horiz-adv-x="474" 
d="M440 235q14 -30 14 -59q0 -19 -3 -37q-5 -23 -10 -37q-6 -15 -20 -32q-21 -27 -53.5 -47t-74.5 -27l-2 -59q-1 -9 -3 -17t-4 -11q-2 -2 -6 -2l-6 1q-7 0 -10 1q-1 1 -3 2.5t-3 1.5q-2 0 -5 -1t-5 -1q-1 0 -3 1.5t-4 1.5l-7 -1l-6 1q-10 1 -14 79l-17 2q-18 2 -45 12.5
t-45 28.5q-35 35 -57.5 67.5t-22.5 54.5q0 4 1 6.5t3 1.5q3 -2 3.5 0.5t2.5 2.5q0 4 4 6.5t5 3.5l3 8l10 6q2 1 4 1.5t4 0.5q1 0 2 2.5t3 2.5q3 0 4 2.5t2 2.5t2 -0.5t4 0.5q7 3 8 1.5t3 -1.5t3 3.5t4 4.5q10 0 16 -14q4 -7 8 -16t9 -19q27 -46 71 -66l6 -3v149
q-53 20 -86 41q-31 20 -52 55q-9 14 -14.5 34.5t-5.5 38.5q0 8 2 18q8 40 22.5 62t29 35t18.5 17q14 14 41.5 28.5t34.5 15.5l12 2q4 76 14 80q6 2 8 2q3 0 11 2l13 3q4 1 14 1q5 0 8 -1q11 -4 11 -27v-64q59 -7 90.5 -30.5t57.5 -67.5v-6q1 -1 3 -15q0 -5 1 -8.5t1 -7.5
q1 -6 1 -14v-7q0 -10 -8 -20q-4 -6 -11 -8t-8 -2q-24 -6 -49 -6q-3 0 -6 -1t-7 -1q-1 0 -7 3q-2 1 -5 8q-1 4 -8.5 27t-19.5 30q-2 4 -10.5 10t-10.5 8t-3 2l2 -151q60 -20 102 -48q30 -17 44 -47zM210 360v115v11q-15 -4 -20 -9q-15 -18 -22 -34q-4 -8 -4 -27q0 -37 46 -56
zM330 123.5q15 18.5 15 41.5q0 14 -13 25t-37 22v-18q0 -64 -1 -99q21 10 36 28.5z" />
    <glyph glyph-name="Euro" unicode="&#x20ac;" horiz-adv-x="538" 
d="M515 147q3 0 3 -3q-1 -5 -3.5 -13t-4.5 -13q-16 -32 -37 -53q-43 -43 -80 -54t-80 -11q-56 0 -102.5 29.5t-65.5 65.5q-20 42 -31 99l-14 -1q-6 0 -8 1q-8 -2 -11 -2q-5 0 -10 1t-8 2q-5 1 -11 2t-7 2q-2 2 -7 4.5t-6 7.5q-2 8 -2 15v7q1 3 1 8t1 9q2 6 2 15v3q0 3 5 5
l28 6h21l15 -1q-1 11 -1 32v14h-63q-5 2 -5 5v2q0 11 -2 16q-1 3 -1 10.5t-1 12.5v4q0 5 2 15q1 6 13 12q8 4 22 4l47 2q15 62 45.5 103t59.5 60q34 21 60.5 26t40 4.5t16.5 -0.5q33 0 77 -13q22 -7 46 -26.5t42 -45.5q7 -11 7 -21q0 -4 -2 -10q-3 -7 -26.5 -27t-33.5 -26
q-4 -3 -8 -3q-7 0 -10 2.5t-12 11.5l-21 21q-7 10 -24 18.5t-33 8.5q-33 0 -50 -13q-31 -23 -46 -67h33h82q4 0 4 -1q1 0 2.5 -0.5t1.5 -4.5v-13q0 -5 -1 -9l-1 -2q0 -1 2.5 -3t0.5 -5v-8q0 -2 1 -3.5t1 -3.5q0 -1 -3 -1.5t-3 -1.5q0 -2 1.5 -4t1.5 -3q0 -2 -1.5 -3.5
t-1.5 -3.5q0 -1 1.5 -2.5t1.5 -2.5q0 -2 -3 -3.5t-3 -2.5t-6 -1l-27 1h-97v-27v-28h90l48 1q2 -2 5.5 -4.5t4.5 -3.5q0 -2 -2 -2l5 -6q2 -2 0.5 -4t-1.5 -4v-2q1 -2 2 -5t1 -10l-2 -5l-2 -2t-1 -3t2 -4.5t2 -4.5v-1q-2 -2 -1 -6.5t0 -6.5q0 -7 -3 -7q-36 0 -53 -1l-69 -1
h-17l7 -23q6 -17 17 -31.5t17 -18.5q2 -1 10 -6t16 -7.5t17 -2.5q28 0 50.5 17t48.5 52q1 1 4.5 9t9.5 10q2 0 4.5 -3t8.5 -3q4 0 8 1.5t8 1.5h2q1 0 1 -4t2 -4t4 2q3 2 4.5 1t2.5 -2q2 0 3.5 -3.5t3.5 -3.5q3 0 9 -2q1 -1 1.5 -5t5.5 -4q2 0 3.5 -3t1.5 -5t2 -3.5t2 -2.5
q0 -2 3 -2z" />
    <glyph glyph-name="sterling" unicode="&#xa3;" horiz-adv-x="536" 
d="M505 101.5q-3 -1.5 -3 -3.5v-4t-3 -4q-1 0 -1 -1t2 -2.5t2 -4.5q0 -5 -1 -6.5l-1 -1.5q0 -1 -4 -3t-4 -4q0 -1 3 -3.5t3 -4.5t-1.5 -4t-1.5 -4q-1 -3 -0.5 -5.5t-0.5 -4.5l-3 -7q-1 -2 2 -4t3 -4l-1 -2q-3 -4 -43 -6q-39 -2 -58 -5l-172 -1q-124 0 -145 8q-11 4 -13 8
q-2 2 -2 5.5t-1 6.5q-1 2 -3 2.5t-3 2.5q-2 4 -2 12v4q-1 4 -1 21q0 2 1.5 5t1.5 5q0 1 0.5 2.5t-0.5 0.5l-1 -1l3 8q1 3 1.5 6.5t1.5 5.5l71 6q20 20 30 48t10 51q0 18 -8 36l-121 -4q-3 3 -2.5 5t0.5 3v3q-3 4 -2.5 7.5t0.5 4.5q0 3 -1 4q-1 10 -1.5 9.5t-0.5 0.5
q0 34 6 42q1 2 5.5 3.5t7.5 1.5q12 0 62 4q-25 48 -25 79l-1 12q-3 44 15.5 75t52.5 56q33 25 67.5 39t62.5 14q38 0 64.5 -4t56.5 -13l39 -18q9 -5 16.5 -11.5t11.5 -9.5l10 -11l2 -2l1 -4q4 -6 -1 -15t-11.5 -18t-8.5 -12l-18 -20q-13 -13 -24 -13q-7 0 -15 5l-17 10
q-16 11 -44.5 19t-52.5 8q-15 0 -32 -7t-27 -19q-10 -13 -17.5 -28.5t-7.5 -28.5q0 -7 1 -10q0 -20 5 -31.5t18 -32.5h9h38q11 0 21 -1q9 -1 33 -1q33 0 48 -2l18 -2q6 0 11 -2.5t6 -7.5q0 -2 -1.5 -4.5t-0.5 -4.5q0 -3 3 -9q0 -2 -3 -5q-2 -1 0.5 -3.5t2.5 -3.5t-1.5 -2.5
t-1.5 -3.5q0 -3 2 -3.5t2 -2.5l-3 -6q-1 -1 -1 -3l1 -13q0 -1 -7 -3t-10 -3l-24 -5h-100q4 -18 4 -26q0 -31 -7.5 -52.5t-28.5 -55.5v-3q7 -6 29 -6q14 0 22 1l24 1h49h71q-6 0 7.5 -0.5t18.5 -2.5q31 0 38 -7q2 -3 -1 -4.5z" />
    <glyph glyph-name="percent" unicode="%" horiz-adv-x="766" 
d="M520 386l-16 -20l-100 -132q-14 -26 -24 -38.5t-12 -15.5q-7 -10 -17.5 -22.5t-16.5 -20.5l-39 -52q-2 -4 -23 -31v0l-1 -2v0.5t1 0.5l-10 -12l-19 -26q-3 -5 -8 -10t-6 -7q-10 -7 -18 -9q-1 0 -2 2t-3 2l-9 -1q-1 0 -4 2t-5 2h-2l-8 -1q-1 0 -2.5 3.5t-2.5 3.5
q-4 2 -8 2q-2 0 -4 2.5t-4 2.5q-3 0 -5.5 1.5t-4.5 1.5t-3 2.5t-2 3.5t-3.5 0.5t-5.5 -0.5q-4 0 -3.5 4t0.5 5q0 3 4 6.5t5 5.5l121 170l113 155l106 142l2 3q3 6 12 16q5 7 9.5 12t7.5 8l17 18q5 4 22.5 10.5t22.5 6.5h53q7 0 7 -8q0 -5 -1 -8q-7 -24 -12 -36
q-3 -7 -12 -19.5t-14 -20.5l-10 -18q-3 -7 -14 -23q-4 -7 -15 -19q-17 -20 -16 -19q-3 -6 -18 -23zM151 292q-20 0 -27 4t-15 7t-11 6q-18 12 -23 18q-13 14 -16 22l-3 6q-2 3 -5 7t-4 9l-5 13q-4 15 -5 16q-2 5 -2 19q0 64 20 87l45 52q8 8 18 13q6 4 21 6q6 2 22 2h7
q45 0 69 -11q26 -11 42 -29q21 -23 28 -44q10 -30 10 -53q0 -10 -4.5 -32.5t-6.5 -30.5l-2 -1l-13 -29l-9 -11q-13 -16 -36 -33q-15 -11 -47 -11l-28 -2h-20zM138 405q6 -11 15 -17q12 -5 17 -5q23 0 36 16t13 37q0 5 -2 15q-1 5 -5.5 12.5t-7.5 9.5q-23 13 -29 13
q-5 0 -8 -1l-6 -2q-4 -2 -7 -5q-4 -2 -9 -10t-9 -18q-4 -11 -4 -20q0 -14 6 -25zM731 139q0 -9 -4.5 -31t-6.5 -29l-2 -1l-13 -28l-9 -11q-15 -16 -36 -32q-16 -10 -47 -10l-28 -2h-20q-13 0 -24 6q-5 3 -13 6t-13 6q-15 10 -23 18q-12 12 -16 21l-6 4q-6 4 -9 15l-5 12
q-4 15 -5 16q-2 5 -2 18q0 61 20 84l45 50q12 9 18 12q6 4 21 6q6 2 22 2h7q45 0 69 -11q27 -12 42 -28q20 -20 28 -42q10 -28 10 -51zM636.5 126.5q1.5 8.5 1.5 15.5q0 10 -4.5 19.5t-8.5 13.5q-3 3 -6.5 4.5t-5.5 3.5l-9 1h-5q-17 0 -28 -6q-13 -6 -17 -12q-6 -8 -9 -20
t-3 -22q0 -6 1 -9q4 -9 9 -16q14 -13 31 -13q16 0 29.5 7t20.5 20q2 5 3.5 13.5zM273 54h-1h1z" />
    <glyph glyph-name="perthousand" unicode="&#x2030;" horiz-adv-x="1090" 
d="M177 302q-7 1 -12 2q-13 3 -27 3l-6 1q-9 0 -21 7q-16 6 -20 10q-8 7 -14 17l-33 60q-9 15 -9 43q0 24 8 47q1 2 2.5 8t4.5 10q2 2 3.5 6t4.5 8l8 12q2 4 5.5 7.5l6.5 6.5l4 5q8 10 20 18q5 4 14 7.5t13 4.5q4 2 13.5 3.5t14.5 3.5q2 1 8 1q1 0 19 -3l20 -4l27 -8
q31 -7 43 -21q17 -20 28 -40l7 -13l6 -31l2 -1v-31t-3 -33q-3 -14 -9 -26t-13 -24q-6 -11 -16 -20t-20 -17q-19 -12 -48 -19q-5 -1 -14 -1q-10 0 -17 1zM203.5 -9q-2.5 2 -4.5 2q-1 0 -2 1.5t-3 2.5q-1 1 -5 0.5t-6 -0.5l-4 2q-2 0 -3 2t-2 2q-2 0 -4 -1t-5 -1q-1 0 -1 2
t-2 2t-4 3.5t-3 3.5q-2 0 -3 2t-2 2q-8 0 -11 3q-1 1 -2 4.5t-5 3.5t-3.5 4t0.5 5q0 3 4 6.5t5 5.5l119 161l122 155l108 164l2 3q3 6 12 16q5 7 9.5 12t7.5 8l17 18q5 4 28 4l17 -1l26 -6h3q4 0 9.5 -6.5t5.5 -11.5t-1 -8q-7 -24 -12 -36q-3 -7 -11 -17t-11 -15
q-6 -11 -13 -18q-3 -7 -14 -23q-5 -7 -15 -19q-17 -20 -16 -19q-3 -6 -18 -23l-16 -20l-30 -39l-25 -31l-43 -54q-11 -14 -31 -44q-32 -45 -38 -53l-75 -104l-19 -26q-5 -8 -14 -17t-14 -9q-2 0 -4.5 2zM170 396q11 0 27 6q3 1 8.5 7.5t8.5 11.5q4 11 5 14q1 4 1 12
q0 17 -9.5 30.5t-27.5 19.5q-2 1 -6 1t-12 -2q-10 -3 -18 -12.5t-11 -23.5q-1 -4 -1 -14t4 -22t8 -16q2 -3 6 -6q11 -6 13 -6h4zM545 -9q-5 3 -8 3.5t-4 0.5q-4 2 -8.5 4.5t-6.5 2.5q-4 1 -15 10q-48 39 -53 69l-9 66q0 13 2 22q1 10 9 19q1 2 7 8t6 11q0 2 3 5q6 6 15.5 17
t19 18.5t19.5 11.5q3 1 12.5 5t18.5 6l17 3q28 2 50 -6q18 -6 27 -10.5t19 -13.5q7 -6 21 -23.5t18 -23.5l-1 -2l13 -28l3 -14q3 -13 3 -31q0 -12 -1 -18q-3 -17 -22 -42l-17 -22l-13 -16q-3 -4 -8.5 -8t-11.5 -6q-7 -3 -14.5 -7.5t-11.5 -5.5q-14 -4 -28 -6q-5 -1 -12 -1
q-6 0 -14 2l-8 -3h-2q-4 0 -15 3zM877 -15q-15 2 -21 6q-10 5 -18 13l-45 52q-20 23 -20 87q0 14 2 19q1 1 5 16l5 13q1 5 4 9t5 7l3 6q3 8 16 22q5 6 23 18q3 3 11 6t15 7t27 4h20l28 -2q32 0 47 -11q23 -17 36 -33l9 -11l13 -29l2 -1q2 -8 6.5 -30.5t4.5 -32.5
q0 -23 -10 -53q-7 -21 -28 -44q-16 -18 -42 -29q-24 -11 -69 -11h-7q-16 0 -22 2zM612 95q15 18 15 36q0 11 -4 19q-3 7 -19 23q-11 11 -34 11h-2q-3 0 -6.5 -1.5t-5.5 -2.5l-7 -6q1 -1 -0.5 -2t-2.5 -2q-10 -10 -13 -26q-3 -12 -1 -20t13 -20t12 -16q1 -3 7 -5q8 -4 15 -4
q19 0 33 16zM942 89q3 2 7.5 9.5t5.5 12.5q2 10 2 16q0 21 -13 36.5t-36 15.5q-4 0 -17 -5q-9 -6 -15 -17t-6 -25q0 -9 4 -20q4 -10 9 -18t9 -10q3 -3 7 -5l6 -2t8 -1q6 0 29 13z" />
    <glyph glyph-name="at" unicode="@" horiz-adv-x="658" 
d="M613 420.5q7 -32.5 7 -60.5q0 -49 -18 -103t-46 -75q-19 -15 -46 -27t-45 -12q-38 0 -61 12.5t-37 43.5q-42 -40 -80 -40q-2 0 -4 1t-5 2q-20 0 -54 40q-25 29 -25 86q0 29 9 64.5t35 66.5q15 17 51 29.5t90 12.5q4 0 6 -1h9l7 -1q5 -3 13.5 -7.5t12.5 -6.5q3 0 8 -5
q1 -3 2 -7t1 -8q0 -1 -0.5 -2l-0.5 -1l1 -2q0 -5 -3 -56l-7 -80v-5q0 -7 -1 -10v-4v0q-2 -32 29 -32q14 0 28.5 13t24 35.5t9.5 50.5l-1 14q0 53 -13.5 84t-33.5 48t-59 40q-13 8 -28.5 11.5t-20.5 4.5q-7 2 -17 2h-9q-65 0 -111 -33.5t-69 -85t-23 -106.5q0 -53 12 -97.5
t43 -82.5q9 -11 29.5 -22.5t32.5 -15.5q16 -4 40 -7.5t38 -3.5q10 0 31.5 6.5t41.5 19.5q3 2 6 2t3 -2q0 -5 3 -7q2 -1 4 -3q1 -1 1.5 -4.5t1.5 -7.5q1 -1 0 -2.5l-1 -1.5q-1 -2 0 -3.5t1 -3.5v-1t2 -2q1 0 3 -5q1 -2 0.5 -4.5t0.5 -4.5q2 -2 5 -4q2 -4 2 -10l1 -6
q0 -3 -3 -9t-13 -10t-14 -6q-24 -12 -42 -15t-21 -4q-10 -1 -45 -1q-20 0 -31 2q-7 1 -23.5 3t-30.5 8q-7 3 -28 10t-31 18q-7 7 -25 19q-20 11 -27 21q-28 41 -42 78q-16 42 -20.5 76t-4.5 73q0 37 8.5 82.5t24.5 77.5q30 62 84.5 100.5t122.5 57.5l81 6q40 0 80 -16
q50 -20 93 -54t60 -72q14 -30 21 -62.5zM351 378l-17 1q-17 0 -25 -7q-10 -8 -15 -30t-5 -40q0 -1 -0.5 -8t0.5 -9l6 -28q1 -3 5 -7q3 -3 8.5 -3t6.5 -1q6 0 15.5 5t15.5 13v3l5 105v6z" />
    <glyph glyph-name="ampersand" unicode="&#x26;" horiz-adv-x="580" 
d="M540 51l-1 -4l-22 -34q-13 -26 -49 -26q-4 1 -6 2t-3 1q-6 2 -19 13l-47 49q-30 -29 -69 -47t-72 -18q-105 0 -153 53q-53 57 -57 105q-2 22 -2 39q0 32 26.5 72t56.5 56l26 14q-27 32 -39.5 52.5t-19.5 49.5q-4 16 -4 32t5.5 29.5t7.5 18.5q16 42 57.5 69.5t93.5 27.5
q16 0 39.5 -4.5t35.5 -12.5q44 -28 59 -59q12 -25 12 -57q0 -54 -20.5 -89t-70.5 -61q3 -5 26 -30q13 -12 31 -33l34 -40q23 45 23 106q0 7 2 9t7 2l7 -1q2 0 3.5 2t2.5 2q3 0 4.5 -1.5t3.5 -1.5l11 1q2 0 4.5 -2.5t3.5 -2.5q3 0 5 -1t3 -1l9 -1q8 0 11 0.5t5 0.5
q4 0 5.5 -3t2.5 -3q3 0 4.5 -0.5t2.5 -0.5q3 0 4 0.5t2 0.5q3 0 3 -16.5v-19.5q0 -34 -16 -76t-41 -76l70 -78q2 -4 2 -7zM206.5 477.5q-4.5 -8.5 -4.5 -17.5q0 -7 6 -22.5t15 -25.5l24 -29q18 15 29.5 32.5t11.5 32.5q0 28 -8 44.5t-30 16.5h-7q-10 0 -14 -4l-13 -14
q-5 -5 -9.5 -13.5zM326 131l-20 20l-30 34q-5 6 -11 14.5t-14 18.5l-39 47q-8 -6 -12.5 -11.5t-5.5 -7.5q-14 -19 -21 -34t-7 -31q0 -19 8 -38.5t21 -34.5q11 -12 26.5 -18t31.5 -6q32 0 73 47z" />
    <glyph glyph-name="copyright" unicode="&#xa9;" horiz-adv-x="654" 
d="M281.5 -18q-32.5 6 -55.5 14q-36 13 -53 28q-15 10 -27 21q-5 4 -10.5 11.5t-8.5 11.5q-3 3 -22.5 24t-29.5 46q-15 37 -25 69q-5 17 -6.5 37t-1.5 50q0 24 1.5 45t2.5 27q5 44 26 79.5t58 83.5q29 37 91 59t127 22q66 0 123 -37t93 -97q48 -80 48 -165q0 -86 -19.5 -141
t-53.5 -91q-51 -55 -108 -81q-19 -9 -44.5 -15.5t-44.5 -6.5q-28 0 -60.5 6zM415 93q38 24 64 69q38 66 38 137q0 40 -15 78.5t-50 84.5l-14 14q-26 26 -48.5 35t-52.5 9q-38 0 -75.5 -13.5t-57.5 -33.5q-1 -1 -7 -9q-16 -22 -27 -46.5t-14 -31.5q-18 -39 -18 -83
q0 -34 9 -70.5t25 -61.5q3 -4 10 -16.5t21 -27.5q9 -10 23 -21t21 -17q10 -8 33 -14t49 -6q48 0 86 24zM302 143q-5 2 -7 3q-26 12 -34 20t-8 11q-5 3 -11.5 8.5t-9.5 8.5l-4 6q-2 4 -2 6l-5 8l-18 64v20v3q0 60 20.5 87.5t57.5 46.5q14 8 40 14q5 1 12 1q28 0 38 -3
q48 -13 63 -79v-1v-3l-1 -6l-4 -9q0 -3 -5 -6q-2 -3 -8 -3h-32q-8 0 -11 3q-6 4 -6 7l-10 11q0 2 -5 4q-2 1 -6 1q-10 0 -16 -2l-4 -2t-4 -3q-6 -6 -7 -8q-5 -3 -11 -14t-8 -16l-2 -19v-4v-6v-5q1 -4 5 -15t4 -15q1 -3 6.5 -9.5t6.5 -8.5q3 -4 10 -6.5t13 -2.5q9 0 14 5
q7 3 8 7l6 10q1 2 3.5 6.5t5.5 8.5q6 6 9 6q4 0 3.5 -1.5t1.5 -1.5h2q6 0 6 -6q3 3 6 2q1 -1 3 -1.5t2 -1.5l3 1q1 0 0.5 -2t0.5 -4h3q0 -1 1 -0.5t2 0.5l3.5 1t1.5 -5q1 -1 2.5 0t2.5 1t2 -1.5t3 -3.5q2 2 3 2q6 0 6 -15l-7 -24q-1 -2 -5.5 -12.5t-16.5 -32.5
q-5 -10 -16 -14q-6 -3 -23 -9q-9 -2 -25 -4h-23h-16q-4 0 -9 2z" />
    <glyph glyph-name="registered" unicode="&#xae;" horiz-adv-x="437" 
d="M140 292q-31 12 -58.5 41.5t-44.5 71.5q-7 20 -7 61q0 38 7 59q14 47 38 72t61 42q39 19 84 19q37 0 74 -13q3 -1 8 -3t8 -5h1q25 -18 38 -29q28 -24 39 -50q10 -23 13 -49.5t4 -32.5q2 -12 2 -18q0 -3 -3 -27l-5 -23q-3 -17 -12.5 -35t-23.5 -32q-24 -24 -57 -42.5
t-54 -20.5q-5 -1 -12.5 -2t-17.5 -1q-45 0 -82 17zM228 344q17 0 38.5 11t37.5 30q11 12 16 28q7 14 7 52t-8 59.5t-25 37.5t-33.5 23t-36.5 7q-55 0 -89 -41q-19 -20 -22 -45q-4 -30 -4 -38q0 -23 2 -31q2 -17 11.5 -34.5t22.5 -30.5q17 -17 37 -21q7 -1 18 -4t23 -3h5z
M262 385q-5 0 -8 3q-5 0 -7 2l-23 22v1l-6 3q-2 1 -5 4t-7 5q-1 4 -4 5v-37l-0.5 -1.5t-1.5 -2.5t-3 -1h-29q-2 0 -4.5 2t-3.5 3h-2q-2 2 -2 7q0 3 -0.5 6t-0.5 9v7v20q0 27 1 43l1 24q1 8 1 24v8q0 2 2 4q0 1 0.5 2t1.5 2l11 9l15 1q12 0 28.5 -2t28.5 -4q18 -3 34.5 -20.5
t16.5 -34.5q0 -9 -6 -21q-2 -7 -4.5 -11t-11.5 -8l-7.5 -5t-9.5 -4q14 -14 20 -19q11 -10 14 -15q0 -1 -1.5 -2.5t-1.5 -3.5t-1.5 -3l-1.5 -1l-1 -7l-3 -2l1 -3q-1 0 -2.5 -0.5t-3.5 -1.5q-1 0 -1 -1.5t-1 -1.5h-5q-1 0 -1 -1.5t-2 -1.5h-4zM208 471h7l12 3q9 5 11 19v5
q0 4 -3 7q-1 3 -3.5 5t-7.5 3q-1 1 -6 1q-6 2 -11 2l-2 -44v-0.5t1 -0.5h2z" />
    <glyph glyph-name="trademark" unicode="&#x2122;" horiz-adv-x="542" 
d="M255 356l-5 1l-1 0.5t-2 2.5q-3 1 -3 3l5 89l1 20q0 15 1 25l1 37v31v-1q0 4 0.5 13.5t1.5 15.5q0 2 1 6.5t3 8.5q1 0 4.5 2.5t10.5 2.5l46 5h2q2 -1 5 -1t3 -1q13 -12 19 -22.5t7 -13.5l26 -60q7 15 12.5 25.5t8.5 15.5q11 29 18 36q7 11 11 11q3 1 15 1l38 2l8 -1
q2 0 5 -4.5t3 -13.5l9 -118v-9l2 -36l1 -21v-31v-4v-7q0 -1 -2 -7q-1 0 -2.5 0.5t-3.5 -0.5q-2 0 -2.5 -2t-3.5 -2q-2 0 -4 1.5t-4 1.5t-4.5 -1t-6.5 -1q-1 0 -2.5 -1.5t-3.5 -1.5q-1 0 -3 1t-6 1l-14 -2q-1 0 -2.5 1.5t-2.5 1.5l-7 -3l-1 1t-2 1q-2 0 -4 -1t-4 1
q-2 6 -2 17l-4 34v39q0 19 -1 21q-4 -17 -18 -42q-1 -2 -7 -5q0 -1 -4 -1q-10 -4 -18 -4l-12 6q-5 4 -13 18t-13 30q-4 -33 -4 -59v-28q0 -3 -0.5 -10.5t-3 -11t-7.5 -5.5l-49 -1zM132 353.5q-1 1.5 -3 1.5q-6 -2 -7 -2l-12 1l-14 1q-2 0 -3 1t-2 1q-2 0 -3 -1l-1 -1
q-1 -1 -2 0t-2 1l-3 2q-3 3 -3 6v4l-3 163l1 7l-51 5q-2 0 -2 1q-1 3 -1 8v4l1 17q0 6 0.5 18.5t3.5 19.5q2 4 19 4h1l43 -1l71 3h42q8 0 10 -1q5 -2 6 -5l1 -2q1 -1 2 -3t1 -6v-7q0 -3 -0.5 -8t0.5 -8v-4q0 -12 1 -6.5l1 5.5v-14q0 -16 -6 -19h-15h-20q-5 0 -8 0.5t-4 0.5
l-1 -2v-19v-18l3 -25v-24q0 -16 -1 -23v-39q0 -7 -1 -11v-12q0 -6 -1 -6q0 -2 -1.5 -4.5t-2.5 -2.5q-2 0 -4.5 1t-6.5 1l-8 -4h-12q-2 0 -3 1.5z" />
    <glyph glyph-name="degree" unicode="&#xb0;" horiz-adv-x="330" 
d="M115 412q-4 2 -12.5 4.5t-12.5 6.5q-16 9 -22 15q-13 14 -15 19l-3 4q-7 9 -9 14l-5 12l-4 13q-2 5 -2 16q0 55 19 74l43 44q7 7 17 11q6 3 20 5q6 2 21 2h7q22 0 37.5 -1.5t28.5 -7.5q26 -10 41 -25q19 -19 26 -37q10 -25 10 -45q0 -9 -4.5 -28.5t-6.5 -25.5l-1 -1
l-13 -24l-9 -10q-11 -14 -34 -28q-17 -9 -45 -9l-27 -2h-19q-15 0 -26 4zM193.5 499.5q11.5 13.5 11.5 32.5q0 8 -1 11q-1 4 -5 11t-7 8q-6 3 -15 7t-13 4q-5 0 -8 -1l-6 -2l-6 -3q-4 -2 -9.5 -9.5t-8.5 -15.5q-3 -9 -3 -17q0 -24 20 -35q10 -4 16 -4q23 0 34.5 13.5z" />
    <glyph glyph-name="bar" unicode="|" horiz-adv-x="237" 
d="M88 -83.5q-3 1.5 -6 1.5q-2 0 -4.5 -1.5t-3.5 0.5q-5 1 -7.5 3t-2.5 9q-5 15 -5 28v9l1 599q0 38 5.5 64t23.5 29l57 9h2q7 0 16.5 -6t10.5 -12q0 -43 1 -70l1 -115l-1 -277q-1 -85 -1 -234q0 -21 -2 -27q-6 -6 -11 -6h-1q-3 3 -7 1q-3 -1 -4.5 -2t-5.5 -1l-7 1h-2l-4 -2
t-6 -1q-2 0 -4.5 2.5t-5.5 2.5q-2 0 -4.5 -2t-5.5 -2h-2q-4 1 -6.5 -0.5l-2.5 -1.5q-3 0 -6 1.5z" />
    <glyph glyph-name="brokenbar" unicode="&#xa6;" horiz-adv-x="237" 
d="M88 351.5q-3 2.5 -6 2.5q-2 0 -4.5 -1.5t-3.5 0.5q-5 1 -7.5 3t-2.5 9q-3 8 -4 37q-1 18 -1 54l1 109q0 38 5.5 64t23.5 29l57 9h2q7 0 16.5 -6t10.5 -12q0 -47 1 -78l1 -127q0 -29 -2 -57q0 -17 -2 -23q-9 -9 -12 -10q-2 -1 -4 0t-3 1q-3 -1 -4.5 -2t-5.5 -1l-7 1h-2
l-4 -2t-6 -1q-3 0 -5 1.5t-5 1.5t-4.5 -1t-4.5 -1h-3q-4 1 -6.5 -0.5l-2.5 -1.5q-3 0 -6 2.5zM139.5 -83.5q-2.5 1.5 -6.5 0.5h-3q-3 0 -4.5 1t-3.5 1q-3 0 -5 -1.5t-5 -1.5q-4 0 -6.5 1.5t-5.5 1.5q-2 0 -2 -1t-2 0l-8 3q-3 2 -6 -1l-2 -1q-3 0 -10 7q-7 21 -7 31l-1 66
q-2 64 -2 111l2 24v47q1 6 10.5 12t16.5 6h2q14 3 26 3t34 -4q17 -3 21.5 -28t4.5 -63l-1 -165v-9q0 -12 -2 -19t-2 -9q0 -7 -2.5 -9t-7.5 -3q-1 -2 -3.5 -0.5t-4.5 1.5q-3 0 -6 -1.5t-6 -1.5z" />
    <glyph glyph-name="asciicircum" unicode="^" horiz-adv-x="432" 
d="M87 198l-25 5l-2 1q-7 3 -10 3q-7 3 -11 7t-4 6q-2 7 -3.5 16.5t-1.5 13.5l59 127q38 70 51 90t13 18q13 1 39.5 2.5t40.5 2.5q6 0 10.5 -1t7.5 -1q1 0 6.5 -3t16.5 -11q19 -27 29.5 -45.5t12.5 -22.5l71 -147l0.5 -1.5t2.5 -4.5q6 -12 6 -17q0 -4 -3 -6q-4 -2 -6 -2
q0 1 -1.5 2t-3.5 1q-1 0 -2.5 -2t-2.5 -2t-3 1.5t-3 0.5l-4 -2h-4q-1 -5 -13 -5q-1 0 -2 -1t-4 -3q-4 -2 -6 -2l-9 1q-1 0 -3 -1.5t-2 -0.5l-4 2v-4l-1 -1h-1q-2 0 -3 2t-2 1q-1 0 -1.5 -2t-1.5 -2q-7 0 -9 2.5t-4 7.5q3 0 -34 61l-7 15q0 3 -24 44t-26 41l-92 -178
q0 -1 -2 -2t-5 -2q-4 -4 -10 -4z" />
  </font>
</defs>
</svg>
