<?xml version="1.0" standalone="no"?>
<!DOCTYPE svg PUBLIC "-//W3C//DTD SVG 1.1//EN" "http://www.w3.org/Graphics/SVG/1.1/DTD/svg11.dtd" >
<svg xmlns="http://www.w3.org/2000/svg">
<metadata>
Just Sans Web is a licensed version of FS Me Copyright (c) 2009 by Fontsmith Ltd for JRP Group PLC. All rights reserved. This font may not be altered in any way without prior permission of Fontsmith Ltd.
</metadata>
<defs>
<font id="JustSansWeb-Bold" horiz-adv-x="590" >
  <font-face 
    font-family="Just Sans Web Bold"
    font-weight="700"
    font-stretch="normal"
    units-per-em="1000"
    panose-1="2 11 6 3 3 2 2 2 2 3"
    ascent="800"
    descent="-200"
    x-height="528"
    cap-height="720"
    bbox="-382.381 -318 1312 1010"
    underline-thickness="106"
    underline-position="-14"
    unicode-range="U+000D-FB02"
  />
<missing-glyph horiz-adv-x="694" 
d="M90 720h514v-720h-514v720zM522 669h-350l176 -263zM316 360l-174 262v-524zM553 622l-175 -262l175 -262v524zM522 52l-174 262l-176 -262h350z" />
    <glyph glyph-name="fi" unicode="fi" horiz-adv-x="640" 
d="M120 1.5q-14 1.5 -17.5 4.5t-3.5 9v406h-76q-8 0 -10.5 8.5t-2.5 41.5v7q0 33 2.5 41.5t10.5 8.5h76v14q0 98 57 158q32 34 81.5 52t112.5 18q101 0 183 -41q10 -4 10 -13q0 -8 -9 -31l-9 -25q-9 -24 -14.5 -29.5t-14.5 -1.5q-64 28 -127 28q-69 0 -102 -33
q-31 -31 -31 -92v-4h114q8 0 10.5 -8.5t2.5 -41.5v-7q0 -33 -2.5 -41.5t-10.5 -8.5h-114v-406q0 -9 -11.5 -12t-53.5 -3h-5q-32 0 -46 1.5zM454 1.5q-14 1.5 -17.5 4.5t-3.5 9v498q0 6 3.5 9t17.5 4.5t46 1.5h5q42 0 53.5 -3t11.5 -12v-498q0 -9 -11.5 -12t-53.5 -3h-5
q-32 0 -46 1.5z" />
    <glyph glyph-name="fl" unicode="fl" horiz-adv-x="663" 
d="M471 25q-17 17 -24.5 42.5t-7.5 62.5v347q0 59 -4 165q-29 15 -68 15q-67 0 -100 -33q-31 -31 -31 -92v-4h114q8 0 10.5 -8.5t2.5 -41.5v-7q0 -33 -2.5 -41.5t-10.5 -8.5h-114v-406q0 -9 -11.5 -12t-53.5 -3h-5q-32 0 -46 1.5t-17.5 4.5t-3.5 9v406h-76q-8 0 -10.5 8.5
t-2.5 41.5v7q0 33 2.5 41.5t10.5 8.5h76v14q0 98 57 158q33 35 82.5 52.5t121.5 17.5q61 0 116 -15t80 -38q11 -9 13.5 -17t3.5 -27q3 -84 3 -217v-318q0 -18 7.5 -26t25.5 -8h12q7 0 8.5 -8t1.5 -36v-9q0 -27 -1.5 -34t-7.5 -10q-26 -12 -67 -12q-54 0 -84 30z" />
    <glyph glyph-name="f_f.liga" unicode="ff" horiz-adv-x="740" 
d="M236 421v-406q0 -9 -11.5 -12t-53.5 -3h-5q-32 0 -46 1.5t-17.5 4.5t-3.5 9v406h-70q-8 0 -10.5 8.5t-2.5 41.5v7q0 33 2.5 41.5t10.5 8.5h70v24q0 108 56 166q51 52 144 52q58 0 110 -19q7 -3 7 -13q0 -13 -5 -33l-4 -17q-6 -25 -10.5 -33t-10.5 -6q-37 8 -64 8
q-48 0 -67 -26t-19 -83v-20h222v24q0 108 56 166q51 52 144 52q58 0 110 -19q7 -3 7 -13q0 -13 -5 -33l-4 -17q-6 -25 -10.5 -33t-10.5 -6q-37 8 -64 8q-48 0 -67 -26t-19 -83v-20h115q8 0 10.5 -8.5t2.5 -41.5v-7q0 -33 -2.5 -41.5t-10.5 -8.5h-115v-406q0 -9 -11.5 -12
t-53.5 -3h-5q-32 0 -46 1.5t-17.5 4.5t-3.5 9v406h-222z" />
    <glyph glyph-name="f_f_i.liga" unicode="ffi" horiz-adv-x="999" 
d="M458 542q0 98 57 158q32 34 81.5 52t112.5 18q101 0 183 -41q10 -4 10 -13q0 -8 -9 -31l-9 -25q-9 -24 -14.5 -29.5t-14.5 -1.5q-64 28 -127 28q-69 0 -102 -33q-31 -31 -31 -92v-4h114q8 0 10.5 -8.5t2.5 -41.5v-7q0 -33 -2.5 -41.5t-10.5 -8.5h-114v-406
q0 -9 -11.5 -12t-53.5 -3h-5q-32 0 -46 1.5t-17.5 4.5t-3.5 9v406h-222v-406q0 -9 -11.5 -12t-53.5 -3h-5q-32 0 -46 1.5t-17.5 4.5t-3.5 9v406h-70q-8 0 -10.5 8.5t-2.5 41.5v7q0 33 2.5 41.5t10.5 8.5h70v24q0 108 56 166q51 52 144 52q58 0 110 -19q7 -3 7 -13
q0 -13 -5 -33l-4 -17q-6 -25 -10.5 -33t-10.5 -6q-37 8 -64 8q-48 0 -67 -26t-19 -83v-20h222v14zM864 528q42 0 53.5 -3t11.5 -12v-498q0 -9 -11.5 -12t-53.5 -3h-5q-32 0 -46 1.5t-17.5 4.5t-3.5 9v498q0 6 3.5 9t17.5 4.5t46 1.5h5z" />
    <glyph glyph-name="f_f_l.liga" unicode="ffl" horiz-adv-x="1022" 
d="M458 542q0 98 57 158q33 35 82.5 52.5t121.5 17.5q61 0 116 -15t80 -38q11 -9 13.5 -17t3.5 -27q3 -84 3 -217v-318q0 -18 7.5 -26t25.5 -8h12q7 0 8.5 -8t1.5 -36v-9q0 -27 -1.5 -34t-7.5 -10q-26 -12 -67 -12q-54 0 -84 30q-17 17 -24.5 42.5t-7.5 62.5v347
q0 59 -4 165q-29 15 -68 15q-67 0 -100 -33q-31 -31 -31 -92v-4h114q8 0 10.5 -8.5t2.5 -41.5v-7q0 -33 -2.5 -41.5t-10.5 -8.5h-114v-406q0 -9 -11.5 -12t-53.5 -3h-5q-32 0 -46 1.5t-17.5 4.5t-3.5 9v406h-222v-406q0 -9 -11.5 -12t-53.5 -3h-5q-32 0 -46 1.5t-17.5 4.5
t-3.5 9v406h-70q-8 0 -10.5 8.5t-2.5 41.5v7q0 33 2.5 41.5t10.5 8.5h70v24q0 108 56 166q51 52 144 52q58 0 110 -19q7 -3 7 -13q0 -13 -5 -33l-4 -17q-6 -25 -10.5 -33t-10.5 -6q-37 8 -64 8q-48 0 -67 -26t-19 -83v-20h222v14z" />
    <glyph glyph-name=".notdef" horiz-adv-x="694" 
d="M90 720h514v-720h-514v720zM522 669h-350l176 -263zM316 360l-174 262v-524zM553 622l-175 -262l175 -262v524zM522 52l-174 262l-176 -262h350z" />
    <glyph glyph-name=".null" horiz-adv-x="0" 
 />
    <glyph glyph-name="nonmarkingreturn" unicode="&#xd;" horiz-adv-x="254" 
 />
    <glyph glyph-name="space" unicode=" " horiz-adv-x="254" 
 />
    <glyph glyph-name="A" unicode="A" horiz-adv-x="660" 
d="M29 1.5q-13 1.5 -16.5 5t-0.5 10.5l244 687q3 9 15 12.5t52 3.5h9q40 0 52 -3t16 -13l247 -686q4 -10 -8 -14t-54 -4h-12q-42 0 -57.5 4t-18.5 13l-57 166h-230l-55 -166q-3 -10 -17.5 -13.5t-55.5 -3.5h-10q-30 0 -43 1.5zM403 293l-11 35q-49 155 -66 217
q-26 -94 -68 -219l-11 -33h156z" />
    <glyph glyph-name="Aacute" unicode="&#xc1;" horiz-adv-x="660" 
d="M29 1.5q-13 1.5 -16.5 5t-0.5 10.5l244 687q3 9 15 12.5t52 3.5h9q40 0 52 -3t16 -13l247 -686q4 -10 -8 -14t-54 -4h-12q-42 0 -57.5 4t-18.5 13l-57 166h-230l-55 -166q-3 -10 -17.5 -13.5t-55.5 -3.5h-10q-30 0 -43 1.5zM403 293l-11 35q-49 155 -66 217
q-26 -94 -68 -219l-11 -33h156zM242 791q-6 3 -1 12l106 163q4 7 13.5 9.5t36.5 2.5h48q32 0 32 -9q0 -2 -3 -7l-130 -163q-5 -6 -14 -8.5t-27 -2.5h-38q-17 0 -23 3z" />
    <glyph glyph-name="Abreve" unicode="&#x102;" horiz-adv-x="660" 
d="M29 1.5q-13 1.5 -16.5 5t-0.5 10.5l244 687q3 9 15 12.5t52 3.5h9q40 0 52 -3t16 -13l247 -686q4 -10 -8 -14t-54 -4h-12q-42 0 -57.5 4t-18.5 13l-57 166h-230l-55 -166q-3 -10 -17.5 -13.5t-55.5 -3.5h-10q-30 0 -43 1.5zM403 293l-11 35q-49 155 -66 217
q-26 -94 -68 -219l-11 -33h156zM217.5 834q-40.5 37 -44.5 104q0 9 8 11.5t35 2.5h15q22 0 29 -2.5t8 -9.5q10 -57 60 -57t60 57q1 7 8 9.5t29 2.5h15q27 0 35 -2.5t8 -11.5q-4 -67 -44.5 -104t-110.5 -37t-110.5 37z" />
    <glyph glyph-name="uni01CD" unicode="&#x1cd;" horiz-adv-x="660" 
d="M29 1.5q-13 1.5 -16.5 5t-0.5 10.5l244 687q3 9 15 12.5t52 3.5h9q40 0 52 -3t16 -13l247 -686q4 -10 -8 -14t-54 -4h-12q-42 0 -57.5 4t-18.5 13l-57 166h-230l-55 -166q-3 -10 -17.5 -13.5t-55.5 -3.5h-10q-30 0 -43 1.5zM403 293l-11 35q-49 155 -66 217
q-26 -94 -68 -219l-11 -33h156zM280.5 793q-12.5 3 -21.5 13l-91 97q-5 5 -5 10q0 8 17 25l10 10q9 9 15.5 14.5t11.5 5.5q3 0 10 -5l101 -88l101 88q7 5 10 5q5 0 11.5 -5.5t15.5 -14.5l10 -10q17 -17 17 -25q0 -5 -5 -10l-91 -97q-9 -10 -21.5 -13t-40.5 -3h-14
q-28 0 -40.5 3z" />
    <glyph glyph-name="Acircumflex" unicode="&#xc2;" horiz-adv-x="660" 
d="M29 1.5q-13 1.5 -16.5 5t-0.5 10.5l244 687q3 9 15 12.5t52 3.5h9q40 0 52 -3t16 -13l247 -686q4 -10 -8 -14t-54 -4h-12q-42 0 -57.5 4t-18.5 13l-57 166h-230l-55 -166q-3 -10 -17.5 -13.5t-55.5 -3.5h-10q-30 0 -43 1.5zM403 293l-11 35q-49 155 -66 217
q-26 -94 -68 -219l-11 -33h156zM217 790q-5 0 -11.5 5.5t-15.5 14.5l-10 10q-17 17 -17 25q0 5 5 10l91 97q9 10 21.5 13t40.5 3h14q28 0 40.5 -3t21.5 -13l91 -97q5 -5 5 -10q0 -8 -17 -25l-10 -10q-9 -9 -15.5 -14.5t-11.5 -5.5q-3 0 -10 5l-101 88l-101 -88q-7 -5 -10 -5
z" />
    <glyph glyph-name="Adieresis" unicode="&#xc4;" horiz-adv-x="660" 
d="M29 1.5q-13 1.5 -16.5 5t-0.5 10.5l244 687q3 9 15 12.5t52 3.5h9q40 0 52 -3t16 -13l247 -686q4 -10 -8 -14t-54 -4h-12q-42 0 -57.5 4t-18.5 13l-57 166h-230l-55 -166q-3 -10 -17.5 -13.5t-55.5 -3.5h-10q-30 0 -43 1.5zM403 293l-11 35q-49 155 -66 217
q-26 -94 -68 -219l-11 -33h156zM167 822q-21 20 -21 49q0 30 21 50.5t52 20.5q32 0 52.5 -20.5t20.5 -50.5q0 -29 -20.5 -49t-52.5 -20q-31 0 -52 20zM384 822q-20 20 -20 49q0 30 20 50.5t51 20.5q33 0 54 -20.5t21 -50.5q0 -29 -21 -49t-54 -20q-31 0 -51 20z" />
    <glyph glyph-name="Agrave" unicode="&#xc0;" horiz-adv-x="660" 
d="M29 1.5q-13 1.5 -16.5 5t-0.5 10.5l244 687q3 9 15 12.5t52 3.5h9q40 0 52 -3t16 -13l247 -686q4 -10 -8 -14t-54 -4h-12q-42 0 -57.5 4t-18.5 13l-57 166h-230l-55 -166q-3 -10 -17.5 -13.5t-55.5 -3.5h-10q-30 0 -43 1.5zM403 293l-11 35q-49 155 -66 217
q-26 -94 -68 -219l-11 -33h156zM326 790.5q-9 2.5 -14 8.5l-130 163q-3 5 -3 7q0 9 32 9h48q27 0 36.5 -2.5t13.5 -9.5l106 -163q2 -3 2 -7q0 -8 -26 -8h-38q-18 0 -27 2.5z" />
    <glyph glyph-name="Amacron" unicode="&#x100;" horiz-adv-x="660" 
d="M29 1.5q-13 1.5 -16.5 5t-0.5 10.5l244 687q3 9 15 12.5t52 3.5h9q40 0 52 -3t16 -13l247 -686q4 -10 -8 -14t-54 -4h-12q-42 0 -57.5 4t-18.5 13l-57 166h-230l-55 -166q-3 -10 -17.5 -13.5t-55.5 -3.5h-10q-30 0 -43 1.5zM403 293l-11 35q-49 155 -66 217
q-26 -94 -68 -219l-11 -33h156zM182.5 836.5q-2.5 8.5 -2.5 32.5v14q0 24 2.5 32.5t10.5 8.5h270q8 0 10.5 -8.5t2.5 -32.5v-14q0 -24 -2.5 -32.5t-10.5 -8.5h-270q-8 0 -10.5 8.5z" />
    <glyph glyph-name="Aogonek" unicode="&#x104;" horiz-adv-x="660" 
d="M456 -209q-35 31 -35 86q0 35 23 69.5t58 56.5l-62 180h-230l-55 -166q-3 -10 -17.5 -13.5t-55.5 -3.5h-10q-30 0 -43 1.5t-16.5 5t-0.5 10.5l244 687q3 9 15 12.5t52 3.5h9q40 0 52 -3t16 -13l247 -686q1 -3 1 -7q0 -5 -11 -8q-31 -7 -56.5 -23.5t-40.5 -37.5
q-18 -26 -18 -55q0 -18 11.5 -28t30.5 -10q20 0 42 10q6 3 10 -2t12 -25l4 -12q6 -18 6 -25q0 -8 -8 -14q-17 -9 -41 -15t-43 -6q-55 0 -90 31zM403 293l-11 35q-49 155 -66 217q-26 -94 -68 -219l-11 -33h156z" />
    <glyph glyph-name="Aring" unicode="&#xc5;" horiz-adv-x="660" 
d="M639 4q-12 -4 -54 -4h-12q-42 0 -57.5 4t-18.5 13l-57 166h-230l-55 -166q-3 -10 -17.5 -13.5t-55.5 -3.5h-10q-30 0 -43 1.5t-16.5 5t-0.5 10.5l247 700q-21 15 -33 38t-12 49q0 45 33.5 77t80.5 32t80 -31.5t33 -77.5q0 -27 -12.5 -50.5t-33.5 -38.5l252 -697
q4 -10 -8 -14zM299.5 832q-11.5 -11 -11.5 -28t11.5 -28.5t28.5 -11.5q16 0 27 11.5t11 28.5q0 16 -11 27.5t-27 11.5q-17 0 -28.5 -11zM403 293l-11 35q-49 155 -66 217q-26 -94 -68 -219l-11 -33h156z" />
    <glyph glyph-name="Atilde" unicode="&#xc3;" horiz-adv-x="660" 
d="M29 1.5q-13 1.5 -16.5 5t-0.5 10.5l244 687q3 9 15 12.5t52 3.5h9q40 0 52 -3t16 -13l247 -686q4 -10 -8 -14t-54 -4h-12q-42 0 -57.5 4t-18.5 13l-57 166h-230l-55 -166q-3 -10 -17.5 -13.5t-55.5 -3.5h-10q-30 0 -43 1.5zM403 293l-11 35q-49 155 -66 217
q-26 -94 -68 -219l-11 -33h156zM351.5 818.5q-15.5 5.5 -37.5 16.5q-12 6 -23.5 10.5t-20.5 4.5q-27 0 -59 -32q-4 -4 -12 -1t-24 19l-4 4q-20 20 -20 28q0 3 4 9q54 67 115 67q19 0 34.5 -5.5t37.5 -16.5q11 -6 22.5 -10.5t20.5 -4.5q27 0 59 32q4 4 12 1t24 -19l4 -4
q20 -20 20 -28q0 -3 -4 -9q-54 -67 -115 -67q-18 0 -33.5 5.5z" />
    <glyph glyph-name="AE" unicode="&#xc6;" horiz-adv-x="977" 
d="M6.5 3.5q-9.5 3.5 -3.5 13.5l423 687q6 10 16 13t41 3h422q8 0 11 -3t4.5 -13.5t1.5 -36.5v-8q0 -35 -3.5 -45t-13.5 -10h-275v-182h233q8 0 11 -3t4.5 -13.5t1.5 -36.5v-8q0 -35 -3.5 -45t-13.5 -10h-233v-190h279q8 0 11 -3t4.5 -13.5t1.5 -36.5v-8q0 -35 -3.5 -45
t-13.5 -10h-379q-29 0 -37 2.5t-8 12.5v159h-237l-93 -157q-6 -10 -21 -13.5t-53 -3.5h-25q-40 0 -49.5 3.5zM485 283v303q-19 -46 -100 -182l-72 -121h172z" />
    <glyph glyph-name="AEacute" unicode="&#x1fc;" horiz-adv-x="977" 
d="M6.5 3.5q-9.5 3.5 -3.5 13.5l423 687q6 10 16 13t41 3h422q8 0 11 -3t4.5 -13.5t1.5 -36.5v-8q0 -35 -3.5 -45t-13.5 -10h-275v-182h233q8 0 11 -3t4.5 -13.5t1.5 -36.5v-8q0 -35 -3.5 -45t-13.5 -10h-233v-190h279q8 0 11 -3t4.5 -13.5t1.5 -36.5v-8q0 -35 -3.5 -45
t-13.5 -10h-379q-29 0 -37 2.5t-8 12.5v159h-237l-93 -157q-6 -10 -21 -13.5t-53 -3.5h-25q-40 0 -49.5 3.5zM485 283v303q-19 -46 -100 -182l-72 -121h172zM571 791q-6 3 -1 12l106 163q4 7 13.5 9.5t36.5 2.5h48q32 0 32 -9q0 -2 -3 -7l-130 -163q-5 -6 -14 -8.5t-27 -2.5
h-38q-17 0 -23 3z" />
    <glyph glyph-name="B" unicode="B" horiz-adv-x="604" 
d="M81 2.5q-8 2.5 -8 12.5v690q0 10 8 12.5t37 2.5h131q83 0 138 -15.5t89 -51.5q45 -46 45 -117q0 -98 -97 -152q133 -48 133 -171q0 -84 -50 -137q-38 -40 -96 -58t-145 -18h-148q-29 0 -37 2.5zM254 425q63 0 94 27q27 24 27 67q0 38 -21 59q-14 14 -38 20.5t-62 6.5h-36
v-180h36zM268 114q40 0 67 6t47 23q28 25 28 72q0 46 -23 69q-18 18 -45 24.5t-75 6.5h-49v-201h50z" />
    <glyph glyph-name="C" unicode="C" horiz-adv-x="586" 
d="M176.5 33.5q-68.5 43.5 -104.5 125.5t-36 194t38 197.5t109 132.5t168 47q113 0 192 -60q12 -9 12 -17q0 -9 -15 -36l-13 -23q-12 -20 -17 -27t-10 -7q-3 0 -8 3q-36 24 -65 34.5t-65 10.5q-84 0 -130.5 -64.5t-46.5 -186.5q0 -118 44.5 -181t133.5 -63q70 0 135 35
q6 3 10 3q6 0 10.5 -6.5t13.5 -25.5l11 -24q12 -25 12 -34q0 -8 -12 -16q-37 -23 -93.5 -39t-108.5 -16q-96 0 -164.5 43.5z" />
    <glyph glyph-name="Cacute" unicode="&#x106;" horiz-adv-x="586" 
d="M176.5 33.5q-68.5 43.5 -104.5 125.5t-36 194t38 197.5t109 132.5t168 47q113 0 192 -60q12 -9 12 -17q0 -9 -15 -36l-13 -23q-12 -20 -17 -27t-10 -7q-3 0 -8 3q-36 24 -65 34.5t-65 10.5q-84 0 -130.5 -64.5t-46.5 -186.5q0 -118 44.5 -181t133.5 -63q70 0 135 35
q6 3 10 3q6 0 10.5 -6.5t13.5 -25.5l11 -24q12 -25 12 -34q0 -8 -12 -16q-37 -23 -93.5 -39t-108.5 -16q-96 0 -164.5 43.5zM261 791q-6 3 -1 12l106 163q4 7 13.5 9.5t36.5 2.5h48q32 0 32 -9q0 -2 -3 -7l-130 -163q-5 -6 -14 -8.5t-27 -2.5h-38q-17 0 -23 3z" />
    <glyph glyph-name="Ccaron" unicode="&#x10c;" horiz-adv-x="586" 
d="M176.5 33.5q-68.5 43.5 -104.5 125.5t-36 194t38 197.5t109 132.5t168 47q113 0 192 -60q12 -9 12 -17q0 -9 -15 -36l-13 -23q-12 -20 -17 -27t-10 -7q-3 0 -8 3q-36 24 -65 34.5t-65 10.5q-84 0 -130.5 -64.5t-46.5 -186.5q0 -118 44.5 -181t133.5 -63q70 0 135 35
q6 3 10 3q6 0 10.5 -6.5t13.5 -25.5l11 -24q12 -25 12 -34q0 -8 -12 -16q-37 -23 -93.5 -39t-108.5 -16q-96 0 -164.5 43.5zM299.5 793q-12.5 3 -21.5 13l-91 97q-5 5 -5 10q0 8 17 25l10 10q9 9 15.5 14.5t11.5 5.5q3 0 10 -5l101 -88l101 88q7 5 10 5q5 0 11.5 -5.5
t15.5 -14.5l10 -10q17 -17 17 -25q0 -5 -5 -10l-91 -97q-9 -10 -21.5 -13t-40.5 -3h-14q-28 0 -40.5 3z" />
    <glyph glyph-name="Ccedilla" unicode="&#xc7;" horiz-adv-x="586" 
d="M543 95q12 -25 12 -34q0 -8 -12 -16q-33 -21 -84.5 -36.5t-101.5 -18.5l-2 -27q48 -2 77 -25t29 -69q0 -45 -32.5 -76.5t-94.5 -31.5q-47 0 -78 13q-4 2 -5.5 4t-1.5 7q0 9 4 24l3 11q5 18 9 23.5t13 2.5q21 -6 46 -6q20 0 29.5 8t9.5 21q0 30 -45 30q-31 0 -60 -4
l15 101q-114 22 -175.5 115.5t-61.5 241.5q0 112 38 197.5t109 132.5t168 47q113 0 192 -60q12 -9 12 -17q0 -9 -15 -36l-13 -23q-12 -20 -17 -27t-10 -7q-3 0 -8 3q-36 24 -65 34.5t-65 10.5q-84 0 -130.5 -64.5t-46.5 -186.5q0 -118 44.5 -181t133.5 -63q70 0 135 35
q6 3 10 3q6 0 10.5 -6.5t13.5 -25.5z" />
    <glyph glyph-name="Ccircumflex" unicode="&#x108;" horiz-adv-x="586" 
d="M176.5 33.5q-68.5 43.5 -104.5 125.5t-36 194t38 197.5t109 132.5t168 47q113 0 192 -60q12 -9 12 -17q0 -9 -15 -36l-13 -23q-12 -20 -17 -27t-10 -7q-3 0 -8 3q-36 24 -65 34.5t-65 10.5q-84 0 -130.5 -64.5t-46.5 -186.5q0 -118 44.5 -181t133.5 -63q70 0 135 35
q6 3 10 3q6 0 10.5 -6.5t13.5 -25.5l11 -24q12 -25 12 -34q0 -8 -12 -16q-37 -23 -93.5 -39t-108.5 -16q-96 0 -164.5 43.5zM236 790q-5 0 -11.5 5.5t-15.5 14.5l-10 10q-17 17 -17 25q0 5 5 10l91 97q9 10 21.5 13t40.5 3h14q28 0 40.5 -3t21.5 -13l91 -97q5 -5 5 -10
q0 -8 -17 -25l-10 -10q-9 -9 -15.5 -14.5t-11.5 -5.5q-3 0 -10 5l-101 88l-101 -88q-7 -5 -10 -5z" />
    <glyph glyph-name="Cdotaccent" unicode="&#x10a;" horiz-adv-x="586" 
d="M176.5 33.5q-68.5 43.5 -104.5 125.5t-36 194t38 197.5t109 132.5t168 47q113 0 192 -60q12 -9 12 -17q0 -9 -15 -36l-13 -23q-12 -20 -17 -27t-10 -7q-3 0 -8 3q-36 24 -65 34.5t-65 10.5q-84 0 -130.5 -64.5t-46.5 -186.5q0 -118 44.5 -181t133.5 -63q70 0 135 35
q6 3 10 3q6 0 10.5 -6.5t13.5 -25.5l11 -24q12 -25 12 -34q0 -8 -12 -16q-37 -23 -93.5 -39t-108.5 -16q-96 0 -164.5 43.5zM296 828.5q-22 21.5 -22 51.5t22 51t52 21t51 -21t21 -51t-21 -51.5t-51 -21.5t-52 21.5z" />
    <glyph glyph-name="D" unicode="D" horiz-adv-x="671" 
d="M81 2.5q-8 2.5 -8 12.5v690q0 10 8 12.5t37 2.5h150q97 0 165 -22t111 -67q42 -44 66.5 -113t24.5 -155q0 -91 -26 -164t-79 -123q-44 -42 -106.5 -59t-150.5 -17h-155q-29 0 -37 2.5zM270 116q105 0 155 46q30 29 46 80.5t16 118.5q0 60 -12 106.5t-35 73.5
q-27 33 -67 48t-99 15h-56v-488h52z" />
    <glyph glyph-name="Eth" unicode="&#xd0;" horiz-adv-x="683" 
d="M93 2.5q-8 2.5 -8 12.5v294h-65q-8 0 -11 9.5t-3 40.5v10q0 31 3 40.5t11 9.5h65v286q0 10 8 12.5t37 2.5h150q97 0 165 -22t111 -67q42 -44 66.5 -113t24.5 -155q0 -91 -26 -164t-79 -123q-44 -42 -106.5 -59t-150.5 -17h-155q-29 0 -37 2.5zM282 116q105 0 155 46
q30 29 46 80.5t16 118.5q0 60 -12 106.5t-35 73.5q-27 33 -67 48t-99 15h-56v-185h96q8 0 11 -9.5t3 -40.5v-10q0 -31 -3 -40.5t-11 -9.5h-96v-193h52z" />
    <glyph glyph-name="Dcaron" unicode="&#x10e;" horiz-adv-x="671" 
d="M81 2.5q-8 2.5 -8 12.5v690q0 10 8 12.5t37 2.5h150q97 0 165 -22t111 -67q42 -44 66.5 -113t24.5 -155q0 -91 -26 -164t-79 -123q-44 -42 -106.5 -59t-150.5 -17h-155q-29 0 -37 2.5zM270 116q105 0 155 46q30 29 46 80.5t16 118.5q0 60 -12 106.5t-35 73.5
q-27 33 -67 48t-99 15h-56v-488h52zM288.5 793q-12.5 3 -21.5 13l-91 97q-5 5 -5 10q0 8 17 25l10 10q9 9 15.5 14.5t11.5 5.5q3 0 10 -5l101 -88l101 88q7 5 10 5q5 0 11.5 -5.5t15.5 -14.5l10 -10q17 -17 17 -25q0 -5 -5 -10l-91 -97q-9 -10 -21.5 -13t-40.5 -3h-14
q-28 0 -40.5 3z" />
    <glyph glyph-name="Dcroat" unicode="&#x110;" horiz-adv-x="683" 
d="M93 2.5q-8 2.5 -8 12.5v294h-65q-8 0 -11 9.5t-3 40.5v10q0 31 3 40.5t11 9.5h65v286q0 10 8 12.5t37 2.5h150q97 0 165 -22t111 -67q42 -44 66.5 -113t24.5 -155q0 -91 -26 -164t-79 -123q-44 -42 -106.5 -59t-150.5 -17h-155q-29 0 -37 2.5zM282 116q105 0 155 46
q30 29 46 80.5t16 118.5q0 60 -12 106.5t-35 73.5q-27 33 -67 48t-99 15h-56v-185h96q8 0 11 -9.5t3 -40.5v-10q0 -31 -3 -40.5t-11 -9.5h-96v-193h52z" />
    <glyph glyph-name="E" unicode="E" horiz-adv-x="565" 
d="M81 2.5q-8 2.5 -8 12.5v690q0 10 8 12.5t37 2.5h375q8 0 11 -3t4.5 -13.5t1.5 -36.5v-8q0 -35 -3.5 -45t-13.5 -10h-275v-182h233q8 0 11 -3t4.5 -13.5t1.5 -36.5v-8q0 -35 -3.5 -45t-13.5 -10h-233v-190h279q8 0 11 -3t4.5 -13.5t1.5 -36.5v-8q0 -35 -3.5 -45t-13.5 -10
h-379q-29 0 -37 2.5z" />
    <glyph glyph-name="Eacute" unicode="&#xc9;" horiz-adv-x="565" 
d="M81 2.5q-8 2.5 -8 12.5v690q0 10 8 12.5t37 2.5h375q8 0 11 -3t4.5 -13.5t1.5 -36.5v-8q0 -35 -3.5 -45t-13.5 -10h-275v-182h233q8 0 11 -3t4.5 -13.5t1.5 -36.5v-8q0 -35 -3.5 -45t-13.5 -10h-233v-190h279q8 0 11 -3t4.5 -13.5t1.5 -36.5v-8q0 -35 -3.5 -45t-13.5 -10
h-379q-29 0 -37 2.5zM215 791q-6 3 -1 12l106 163q4 7 13.5 9.5t36.5 2.5h48q32 0 32 -9q0 -2 -3 -7l-130 -163q-5 -6 -14 -8.5t-27 -2.5h-38q-17 0 -23 3z" />
    <glyph glyph-name="Ebreve" unicode="&#x114;" horiz-adv-x="565" 
d="M81 2.5q-8 2.5 -8 12.5v690q0 10 8 12.5t37 2.5h375q8 0 11 -3t4.5 -13.5t1.5 -36.5v-8q0 -35 -3.5 -45t-13.5 -10h-275v-182h233q8 0 11 -3t4.5 -13.5t1.5 -36.5v-8q0 -35 -3.5 -45t-13.5 -10h-233v-190h279q8 0 11 -3t4.5 -13.5t1.5 -36.5v-8q0 -35 -3.5 -45t-13.5 -10
h-379q-29 0 -37 2.5zM190.5 834q-40.5 37 -44.5 104q0 9 8 11.5t35 2.5h15q22 0 29 -2.5t8 -9.5q10 -57 60 -57t60 57q1 7 8 9.5t29 2.5h15q27 0 35 -2.5t8 -11.5q-4 -67 -44.5 -104t-110.5 -37t-110.5 37z" />
    <glyph glyph-name="Ecaron" unicode="&#x11a;" horiz-adv-x="565" 
d="M81 2.5q-8 2.5 -8 12.5v690q0 10 8 12.5t37 2.5h375q8 0 11 -3t4.5 -13.5t1.5 -36.5v-8q0 -35 -3.5 -45t-13.5 -10h-275v-182h233q8 0 11 -3t4.5 -13.5t1.5 -36.5v-8q0 -35 -3.5 -45t-13.5 -10h-233v-190h279q8 0 11 -3t4.5 -13.5t1.5 -36.5v-8q0 -35 -3.5 -45t-13.5 -10
h-379q-29 0 -37 2.5zM253.5 793q-12.5 3 -21.5 13l-91 97q-5 5 -5 10q0 8 17 25l10 10q9 9 15.5 14.5t11.5 5.5q3 0 10 -5l101 -88l101 88q7 5 10 5q5 0 11.5 -5.5t15.5 -14.5l10 -10q17 -17 17 -25q0 -5 -5 -10l-91 -97q-9 -10 -21.5 -13t-40.5 -3h-14q-28 0 -40.5 3z" />
    <glyph glyph-name="Ecircumflex" unicode="&#xca;" horiz-adv-x="565" 
d="M81 2.5q-8 2.5 -8 12.5v690q0 10 8 12.5t37 2.5h375q8 0 11 -3t4.5 -13.5t1.5 -36.5v-8q0 -35 -3.5 -45t-13.5 -10h-275v-182h233q8 0 11 -3t4.5 -13.5t1.5 -36.5v-8q0 -35 -3.5 -45t-13.5 -10h-233v-190h279q8 0 11 -3t4.5 -13.5t1.5 -36.5v-8q0 -35 -3.5 -45t-13.5 -10
h-379q-29 0 -37 2.5zM190 790q-5 0 -11.5 5.5t-15.5 14.5l-10 10q-17 17 -17 25q0 5 5 10l91 97q9 10 21.5 13t40.5 3h14q28 0 40.5 -3t21.5 -13l91 -97q5 -5 5 -10q0 -8 -17 -25l-10 -10q-9 -9 -15.5 -14.5t-11.5 -5.5q-3 0 -10 5l-101 88l-101 -88q-7 -5 -10 -5z" />
    <glyph glyph-name="Edieresis" unicode="&#xcb;" horiz-adv-x="565" 
d="M81 2.5q-8 2.5 -8 12.5v690q0 10 8 12.5t37 2.5h375q8 0 11 -3t4.5 -13.5t1.5 -36.5v-8q0 -35 -3.5 -45t-13.5 -10h-275v-182h233q8 0 11 -3t4.5 -13.5t1.5 -36.5v-8q0 -35 -3.5 -45t-13.5 -10h-233v-190h279q8 0 11 -3t4.5 -13.5t1.5 -36.5v-8q0 -35 -3.5 -45t-13.5 -10
h-379q-29 0 -37 2.5zM140 822q-21 20 -21 49q0 30 21 50.5t52 20.5q32 0 52.5 -20.5t20.5 -50.5q0 -29 -20.5 -49t-52.5 -20q-31 0 -52 20zM357 822q-20 20 -20 49q0 30 20 50.5t51 20.5q33 0 54 -20.5t21 -50.5q0 -29 -21 -49t-54 -20q-31 0 -51 20z" />
    <glyph glyph-name="Edotaccent" unicode="&#x116;" horiz-adv-x="565" 
d="M81 2.5q-8 2.5 -8 12.5v690q0 10 8 12.5t37 2.5h375q8 0 11 -3t4.5 -13.5t1.5 -36.5v-8q0 -35 -3.5 -45t-13.5 -10h-275v-182h233q8 0 11 -3t4.5 -13.5t1.5 -36.5v-8q0 -35 -3.5 -45t-13.5 -10h-233v-190h279q8 0 11 -3t4.5 -13.5t1.5 -36.5v-8q0 -35 -3.5 -45t-13.5 -10
h-379q-29 0 -37 2.5zM250 828.5q-22 21.5 -22 51.5t22 51t52 21t51 -21t21 -51t-21 -51.5t-51 -21.5t-52 21.5z" />
    <glyph glyph-name="Egrave" unicode="&#xc8;" horiz-adv-x="565" 
d="M81 2.5q-8 2.5 -8 12.5v690q0 10 8 12.5t37 2.5h375q8 0 11 -3t4.5 -13.5t1.5 -36.5v-8q0 -35 -3.5 -45t-13.5 -10h-275v-182h233q8 0 11 -3t4.5 -13.5t1.5 -36.5v-8q0 -35 -3.5 -45t-13.5 -10h-233v-190h279q8 0 11 -3t4.5 -13.5t1.5 -36.5v-8q0 -35 -3.5 -45t-13.5 -10
h-379q-29 0 -37 2.5zM299 790.5q-9 2.5 -14 8.5l-130 163q-3 5 -3 7q0 9 32 9h48q27 0 36.5 -2.5t13.5 -9.5l106 -163q2 -3 2 -7q0 -8 -26 -8h-38q-18 0 -27 2.5z" />
    <glyph glyph-name="Emacron" unicode="&#x112;" horiz-adv-x="565" 
d="M81 2.5q-8 2.5 -8 12.5v690q0 10 8 12.5t37 2.5h375q8 0 11 -3t4.5 -13.5t1.5 -36.5v-8q0 -35 -3.5 -45t-13.5 -10h-275v-182h233q8 0 11 -3t4.5 -13.5t1.5 -36.5v-8q0 -35 -3.5 -45t-13.5 -10h-233v-190h279q8 0 11 -3t4.5 -13.5t1.5 -36.5v-8q0 -35 -3.5 -45t-13.5 -10
h-379q-29 0 -37 2.5zM155.5 836.5q-2.5 8.5 -2.5 32.5v14q0 24 2.5 32.5t10.5 8.5h270q8 0 10.5 -8.5t2.5 -32.5v-14q0 -24 -2.5 -32.5t-10.5 -8.5h-270q-8 0 -10.5 8.5z" />
    <glyph glyph-name="Eogonek" unicode="&#x118;" horiz-adv-x="565" 
d="M322 -209q-35 31 -35 86q0 36 22 69.5t58 53.5h-249q-29 0 -37 2.5t-8 12.5v690q0 10 8 12.5t37 2.5h375q8 0 11 -3t4.5 -13.5t1.5 -36.5v-8q0 -35 -3.5 -45t-13.5 -10h-275v-182h233q8 0 11 -3t4.5 -13.5t1.5 -36.5v-8q0 -35 -3.5 -45t-13.5 -10h-233v-190h279
q8 0 11 -3t4.5 -13.5t1.5 -36.5v-8q0 -34 -3 -43.5t-14 -11.5q-45 -10 -77 -38.5t-32 -66.5q0 -22 11.5 -34t31.5 -12q19 0 41 10q6 3 10 -2t12 -25l4 -12q6 -18 6 -25q0 -8 -8 -14q-17 -9 -41 -15t-43 -6q-55 0 -90 31z" />
    <glyph glyph-name="F" unicode="F" horiz-adv-x="537" 
d="M85 2.5q-12 2.5 -12 10.5v692q0 10 8 12.5t37 2.5h375q8 0 11 -3t4.5 -13.5t1.5 -36.5v-8q0 -35 -3.5 -45t-13.5 -10h-275v-182h233q8 0 11 -3t4.5 -13.5t1.5 -36.5v-8q0 -35 -3.5 -45t-13.5 -10h-233v-293q0 -8 -14 -10.5t-54 -2.5h-11q-42 0 -54 2.5z" />
    <glyph glyph-name="G" unicode="G" horiz-adv-x="666" 
d="M117 86.5q-81 96.5 -81 273.5q0 87 23.5 157t68.5 118q43 46 104.5 70.5t134.5 24.5q120 0 211 -65q5 -3 8 -6.5t3 -8.5q0 -10 -19 -42l-12 -20q-11 -18 -17 -25t-11 -7q-3 0 -9 4q-36 24 -69.5 36t-74.5 12q-94 0 -143 -63t-49 -184t45.5 -185.5t138.5 -64.5q44 0 86 13
v164h-111q-11 0 -14.5 9.5t-3.5 45.5v8q0 26 1.5 37t5 13.5t11.5 2.5h210q29 0 37 -2.5t8 -12.5v-330q0 -8 -2 -12.5t-10 -8.5q-39 -20 -105 -34t-128 -14q-156 0 -237 96.5z" />
    <glyph glyph-name="Gbreve" unicode="&#x11e;" horiz-adv-x="666" 
d="M117 86.5q-81 96.5 -81 273.5q0 87 23.5 157t68.5 118q43 46 104.5 70.5t134.5 24.5q120 0 211 -65q5 -3 8 -6.5t3 -8.5q0 -10 -19 -42l-12 -20q-11 -18 -17 -25t-11 -7q-3 0 -9 4q-36 24 -69.5 36t-74.5 12q-94 0 -143 -63t-49 -184t45.5 -185.5t138.5 -64.5q44 0 86 13
v164h-111q-11 0 -14.5 9.5t-3.5 45.5v8q0 26 1.5 37t5 13.5t11.5 2.5h210q29 0 37 -2.5t8 -12.5v-330q0 -8 -2 -12.5t-10 -8.5q-39 -20 -105 -34t-128 -14q-156 0 -237 96.5zM252.5 834q-40.5 37 -44.5 104q0 9 8 11.5t35 2.5h15q22 0 29 -2.5t8 -9.5q10 -57 60 -57t60 57
q1 7 8 9.5t29 2.5h15q27 0 35 -2.5t8 -11.5q-4 -67 -44.5 -104t-110.5 -37t-110.5 37z" />
    <glyph glyph-name="Gcircumflex" unicode="&#x11c;" horiz-adv-x="666" 
d="M117 86.5q-81 96.5 -81 273.5q0 87 23.5 157t68.5 118q43 46 104.5 70.5t134.5 24.5q120 0 211 -65q5 -3 8 -6.5t3 -8.5q0 -10 -19 -42l-12 -20q-11 -18 -17 -25t-11 -7q-3 0 -9 4q-36 24 -69.5 36t-74.5 12q-94 0 -143 -63t-49 -184t45.5 -185.5t138.5 -64.5q44 0 86 13
v164h-111q-11 0 -14.5 9.5t-3.5 45.5v8q0 26 1.5 37t5 13.5t11.5 2.5h210q29 0 37 -2.5t8 -12.5v-330q0 -8 -2 -12.5t-10 -8.5q-39 -20 -105 -34t-128 -14q-156 0 -237 96.5zM252 790q-5 0 -11.5 5.5t-15.5 14.5l-10 10q-17 17 -17 25q0 5 5 10l91 97q9 10 21.5 13t40.5 3
h14q28 0 40.5 -3t21.5 -13l91 -97q5 -5 5 -10q0 -8 -17 -25l-10 -10q-9 -9 -15.5 -14.5t-11.5 -5.5q-3 0 -10 5l-101 88l-101 -88q-7 -5 -10 -5z" />
    <glyph glyph-name="Gcommaaccent" unicode="&#x122;" horiz-adv-x="666" 
d="M117 86.5q-81 96.5 -81 273.5q0 87 23.5 157t68.5 118q43 46 104.5 70.5t134.5 24.5q120 0 211 -65q5 -3 8 -6.5t3 -8.5q0 -10 -19 -42l-12 -20q-11 -18 -17 -25t-11 -7q-3 0 -9 4q-36 24 -69.5 36t-74.5 12q-94 0 -143 -63t-49 -184t45.5 -185.5t138.5 -64.5q44 0 86 13
v164h-111q-11 0 -14.5 9.5t-3.5 45.5v8q0 26 1.5 37t5 13.5t11.5 2.5h210q29 0 37 -2.5t8 -12.5v-330q0 -8 -2 -12.5t-10 -8.5q-39 -20 -105 -34t-128 -14q-156 0 -237 96.5zM289 -299q-6 4 -6 10q0 5 4 9q41 51 41 92q0 9 -3.5 16t-11.5 17q-9 11 -13.5 20t-4.5 22
q0 22 17 38t44 16q29 0 47.5 -21.5t18.5 -54.5q0 -46 -25 -92t-71 -86q-7 -5 -10 -5q-4 0 -11 5z" />
    <glyph glyph-name="Gdotaccent" unicode="&#x120;" horiz-adv-x="666" 
d="M117 86.5q-81 96.5 -81 273.5q0 87 23.5 157t68.5 118q43 46 104.5 70.5t134.5 24.5q120 0 211 -65q5 -3 8 -6.5t3 -8.5q0 -10 -19 -42l-12 -20q-11 -18 -17 -25t-11 -7q-3 0 -9 4q-36 24 -69.5 36t-74.5 12q-94 0 -143 -63t-49 -184t45.5 -185.5t138.5 -64.5q44 0 86 13
v164h-111q-11 0 -14.5 9.5t-3.5 45.5v8q0 26 1.5 37t5 13.5t11.5 2.5h210q29 0 37 -2.5t8 -12.5v-330q0 -8 -2 -12.5t-10 -8.5q-39 -20 -105 -34t-128 -14q-156 0 -237 96.5zM312 828.5q-22 21.5 -22 51.5t22 51t52 21t51 -21t21 -51t-21 -51.5t-51 -21.5t-52 21.5z" />
    <glyph glyph-name="H" unicode="H" horiz-adv-x="689" 
d="M85.5 3q-12.5 3 -12.5 12v690q0 9 12.5 12t53.5 3h11q40 0 54 -3t14 -12v-283h253v283q0 9 12.5 12t53.5 3h11q40 0 54 -3t14 -12v-690q0 -9 -14 -12t-54 -3h-11q-41 0 -53.5 3t-12.5 12v291h-253v-291q0 -9 -14 -12t-54 -3h-11q-41 0 -53.5 3z" />
    <glyph glyph-name="Hbar" unicode="&#x126;" horiz-adv-x="713" 
d="M97.5 3q-12.5 3 -12.5 12v508h-65q-8 0 -11 9.5t-3 40.5v6q0 31 3 40.5t11 9.5h65v76q0 9 12.5 12t53.5 3h11q40 0 54 -3t14 -12v-76h253v76q0 9 12.5 12t53.5 3h11q40 0 54 -3t14 -12v-76h65q8 0 11 -9.5t3 -40.5v-6q0 -31 -3 -40.5t-11 -9.5h-65v-508q0 -9 -14 -12
t-54 -3h-11q-41 0 -53.5 3t-12.5 12v291h-253v-291q0 -9 -14 -12t-54 -3h-11q-41 0 -53.5 3zM483 422v101h-253v-101h253z" />
    <glyph glyph-name="Hcircumflex" unicode="&#x124;" horiz-adv-x="689" 
d="M85.5 3q-12.5 3 -12.5 12v690q0 9 12.5 12t53.5 3h11q40 0 54 -3t14 -12v-283h253v283q0 9 12.5 12t53.5 3h11q40 0 54 -3t14 -12v-690q0 -9 -14 -12t-54 -3h-11q-41 0 -53.5 3t-12.5 12v291h-253v-291q0 -9 -14 -12t-54 -3h-11q-41 0 -53.5 3zM234 790q-5 0 -11.5 5.5
t-15.5 14.5l-10 10q-17 17 -17 25q0 5 5 10l91 97q9 10 21.5 13t40.5 3h14q28 0 40.5 -3t21.5 -13l91 -97q5 -5 5 -10q0 -8 -17 -25l-10 -10q-9 -9 -15.5 -14.5t-11.5 -5.5q-3 0 -10 5l-101 88l-101 -88q-7 -5 -10 -5z" />
    <glyph glyph-name="I" unicode="I" horiz-adv-x="411" 
d="M58.5 8.5q-2.5 8.5 -2.5 40.5v5q0 32 2.5 40.5t9.5 8.5h65v514h-65q-7 0 -9.5 8.5t-2.5 40.5v5q0 32 2.5 40.5t9.5 8.5h275q7 0 9.5 -8.5t2.5 -40.5v-5q0 -32 -2.5 -40.5t-9.5 -8.5h-65v-514h65q7 0 9.5 -8.5t2.5 -40.5v-5q0 -32 -2.5 -40.5t-9.5 -8.5h-275
q-7 0 -9.5 8.5z" />
    <glyph glyph-name="IJ" unicode="&#x132;" horiz-adv-x="884" 
d="M58.5 8.5q-2.5 8.5 -2.5 40.5v5q0 32 2.5 40.5t9.5 8.5h65v514h-65q-7 0 -9.5 8.5t-2.5 40.5v5q0 32 2.5 40.5t9.5 8.5h275q7 0 9.5 -8.5t2.5 -40.5v-5q0 -32 -2.5 -40.5t-9.5 -8.5h-65v-514h65q7 0 9.5 -8.5t2.5 -40.5v-5q0 -32 -2.5 -40.5t-9.5 -8.5h-275
q-7 0 -9.5 8.5zM515 -2.5q-38 7.5 -65 19.5q-9 5 -9 16q0 13 7 35l6 20q6 22 11.5 31t13.5 9l8 -2q47 -15 84 -15q50 0 71 25q15 17 20.5 41.5t5.5 65.5v462q0 9 13 12t53 3h11q39 0 53.5 -3.5t14.5 -11.5v-464q0 -68 -13.5 -114t-41.5 -76q-55 -61 -168 -61q-37 0 -75 7.5z
" />
    <glyph glyph-name="Iacute" unicode="&#xcd;" horiz-adv-x="411" 
d="M58.5 8.5q-2.5 8.5 -2.5 40.5v5q0 32 2.5 40.5t9.5 8.5h65v514h-65q-7 0 -9.5 8.5t-2.5 40.5v5q0 32 2.5 40.5t9.5 8.5h275q7 0 9.5 -8.5t2.5 -40.5v-5q0 -32 -2.5 -40.5t-9.5 -8.5h-65v-514h65q7 0 9.5 -8.5t2.5 -40.5v-5q0 -32 -2.5 -40.5t-9.5 -8.5h-275
q-7 0 -9.5 8.5zM120 791q-6 3 -1 12l106 163q4 7 13.5 9.5t36.5 2.5h48q32 0 32 -9q0 -2 -3 -7l-130 -163q-5 -6 -14 -8.5t-27 -2.5h-38q-17 0 -23 3z" />
    <glyph glyph-name="Ibreve" unicode="&#x12c;" horiz-adv-x="411" 
d="M58.5 8.5q-2.5 8.5 -2.5 40.5v5q0 32 2.5 40.5t9.5 8.5h65v514h-65q-7 0 -9.5 8.5t-2.5 40.5v5q0 32 2.5 40.5t9.5 8.5h275q7 0 9.5 -8.5t2.5 -40.5v-5q0 -32 -2.5 -40.5t-9.5 -8.5h-65v-514h65q7 0 9.5 -8.5t2.5 -40.5v-5q0 -32 -2.5 -40.5t-9.5 -8.5h-275
q-7 0 -9.5 8.5zM95.5 834q-40.5 37 -44.5 104q0 9 8 11.5t35 2.5h15q22 0 29 -2.5t8 -9.5q10 -57 60 -57t60 57q1 7 8 9.5t29 2.5h15q27 0 35 -2.5t8 -11.5q-4 -67 -44.5 -104t-110.5 -37t-110.5 37z" />
    <glyph glyph-name="Icircumflex" unicode="&#xce;" horiz-adv-x="411" 
d="M58.5 8.5q-2.5 8.5 -2.5 40.5v5q0 32 2.5 40.5t9.5 8.5h65v514h-65q-7 0 -9.5 8.5t-2.5 40.5v5q0 32 2.5 40.5t9.5 8.5h275q7 0 9.5 -8.5t2.5 -40.5v-5q0 -32 -2.5 -40.5t-9.5 -8.5h-65v-514h65q7 0 9.5 -8.5t2.5 -40.5v-5q0 -32 -2.5 -40.5t-9.5 -8.5h-275
q-7 0 -9.5 8.5zM95 790q-5 0 -11.5 5.5t-15.5 14.5l-10 10q-17 17 -17 25q0 5 5 10l91 97q9 10 21.5 13t40.5 3h14q28 0 40.5 -3t21.5 -13l91 -97q5 -5 5 -10q0 -8 -17 -25l-10 -10q-9 -9 -15.5 -14.5t-11.5 -5.5q-3 0 -10 5l-101 88l-101 -88q-7 -5 -10 -5z" />
    <glyph glyph-name="Idieresis" unicode="&#xcf;" horiz-adv-x="411" 
d="M58.5 8.5q-2.5 8.5 -2.5 40.5v5q0 32 2.5 40.5t9.5 8.5h65v514h-65q-7 0 -9.5 8.5t-2.5 40.5v5q0 32 2.5 40.5t9.5 8.5h275q7 0 9.5 -8.5t2.5 -40.5v-5q0 -32 -2.5 -40.5t-9.5 -8.5h-65v-514h65q7 0 9.5 -8.5t2.5 -40.5v-5q0 -32 -2.5 -40.5t-9.5 -8.5h-275
q-7 0 -9.5 8.5zM45 822q-21 20 -21 49q0 30 21 50.5t52 20.5q32 0 52.5 -20.5t20.5 -50.5q0 -29 -20.5 -49t-52.5 -20q-31 0 -52 20zM262 822q-20 20 -20 49q0 30 20 50.5t51 20.5q33 0 54 -20.5t21 -50.5q0 -29 -21 -49t-54 -20q-31 0 -51 20z" />
    <glyph glyph-name="Idotaccent" unicode="&#x130;" horiz-adv-x="411" 
d="M58.5 8.5q-2.5 8.5 -2.5 40.5v5q0 32 2.5 40.5t9.5 8.5h65v514h-65q-7 0 -9.5 8.5t-2.5 40.5v5q0 32 2.5 40.5t9.5 8.5h275q7 0 9.5 -8.5t2.5 -40.5v-5q0 -32 -2.5 -40.5t-9.5 -8.5h-65v-514h65q7 0 9.5 -8.5t2.5 -40.5v-5q0 -32 -2.5 -40.5t-9.5 -8.5h-275
q-7 0 -9.5 8.5zM155 828.5q-22 21.5 -22 51.5t22 51t52 21t51 -21t21 -51t-21 -51.5t-51 -21.5t-52 21.5z" />
    <glyph glyph-name="Igrave" unicode="&#xcc;" horiz-adv-x="411" 
d="M58.5 8.5q-2.5 8.5 -2.5 40.5v5q0 32 2.5 40.5t9.5 8.5h65v514h-65q-7 0 -9.5 8.5t-2.5 40.5v5q0 32 2.5 40.5t9.5 8.5h275q7 0 9.5 -8.5t2.5 -40.5v-5q0 -32 -2.5 -40.5t-9.5 -8.5h-65v-514h65q7 0 9.5 -8.5t2.5 -40.5v-5q0 -32 -2.5 -40.5t-9.5 -8.5h-275
q-7 0 -9.5 8.5zM204 790.5q-9 2.5 -14 8.5l-130 163q-3 5 -3 7q0 9 32 9h48q27 0 36.5 -2.5t13.5 -9.5l106 -163q2 -3 2 -7q0 -8 -26 -8h-38q-18 0 -27 2.5z" />
    <glyph glyph-name="Imacron" unicode="&#x12a;" horiz-adv-x="411" 
d="M58.5 8.5q-2.5 8.5 -2.5 40.5v5q0 32 2.5 40.5t9.5 8.5h65v514h-65q-7 0 -9.5 8.5t-2.5 40.5v5q0 32 2.5 40.5t9.5 8.5h275q7 0 9.5 -8.5t2.5 -40.5v-5q0 -32 -2.5 -40.5t-9.5 -8.5h-65v-514h65q7 0 9.5 -8.5t2.5 -40.5v-5q0 -32 -2.5 -40.5t-9.5 -8.5h-275
q-7 0 -9.5 8.5zM60.5 836.5q-2.5 8.5 -2.5 32.5v14q0 24 2.5 32.5t10.5 8.5h270q8 0 10.5 -8.5t2.5 -32.5v-14q0 -24 -2.5 -32.5t-10.5 -8.5h-270q-8 0 -10.5 8.5z" />
    <glyph glyph-name="Iogonek" unicode="&#x12e;" horiz-adv-x="411" 
d="M132 -209q-35 31 -35 86q0 36 22 69.5t58 53.5h-109q-7 0 -9.5 8.5t-2.5 40.5v5q0 32 2.5 40.5t9.5 8.5h65v514h-65q-7 0 -9.5 8.5t-2.5 40.5v5q0 32 2.5 40.5t9.5 8.5h275q7 0 9.5 -8.5t2.5 -40.5v-5q0 -32 -2.5 -40.5t-9.5 -8.5h-65v-514h65q7 0 9.5 -8.5t2.5 -40.5v-5
q0 -32 -2.5 -40.5t-9.5 -8.5h-10q-67 0 -103 -35q-15 -14 -23.5 -32.5t-8.5 -37.5q0 -22 11.5 -34t31.5 -12q19 0 41 10q6 3 10 -2t12 -25l4 -12q6 -18 6 -25q0 -8 -8 -14q-17 -9 -41 -15t-43 -6q-55 0 -90 31z" />
    <glyph glyph-name="Itilde" unicode="&#x128;" horiz-adv-x="411" 
d="M58.5 8.5q-2.5 8.5 -2.5 40.5v5q0 32 2.5 40.5t9.5 8.5h65v514h-65q-7 0 -9.5 8.5t-2.5 40.5v5q0 32 2.5 40.5t9.5 8.5h275q7 0 9.5 -8.5t2.5 -40.5v-5q0 -32 -2.5 -40.5t-9.5 -8.5h-65v-514h65q7 0 9.5 -8.5t2.5 -40.5v-5q0 -32 -2.5 -40.5t-9.5 -8.5h-275
q-7 0 -9.5 8.5zM229.5 818.5q-15.5 5.5 -37.5 16.5q-12 6 -23.5 10.5t-20.5 4.5q-27 0 -59 -32q-4 -4 -12 -1t-24 19l-4 4q-20 20 -20 28q0 3 4 9q54 67 115 67q19 0 34.5 -5.5t37.5 -16.5q11 -6 22.5 -10.5t20.5 -4.5q27 0 59 32q4 4 12 1t24 -19l4 -4q20 -20 20 -28
q0 -3 -4 -9q-54 -67 -115 -67q-18 0 -33.5 5.5z" />
    <glyph glyph-name="J" unicode="J" horiz-adv-x="473" 
d="M104 -2.5q-38 7.5 -65 19.5q-9 5 -9 16q0 13 7 35l6 20q6 22 11.5 31t13.5 9l8 -2q47 -15 84 -15q50 0 71 25q15 17 20.5 41.5t5.5 65.5v462q0 9 13 12t53 3h11q39 0 53.5 -3.5t14.5 -11.5v-464q0 -68 -13.5 -114t-41.5 -76q-55 -61 -168 -61q-37 0 -75 7.5z" />
    <glyph glyph-name="Jcircumflex" unicode="&#x134;" horiz-adv-x="473" 
d="M104 -2.5q-38 7.5 -65 19.5q-9 5 -9 16q0 13 7 35l6 20q6 22 11.5 31t13.5 9l8 -2q47 -15 84 -15q50 0 71 25q15 17 20.5 41.5t5.5 65.5v462q0 9 13 12t53 3h11q39 0 53.5 -3.5t14.5 -11.5v-464q0 -68 -13.5 -114t-41.5 -76q-55 -61 -168 -61q-37 0 -75 7.5zM218 790
q-5 0 -11.5 5.5t-15.5 14.5l-10 10q-17 17 -17 25q0 5 5 10l91 97q9 10 21.5 13t40.5 3h14q28 0 40.5 -3t21.5 -13l91 -97q5 -5 5 -10q0 -8 -17 -25l-10 -10q-9 -9 -15.5 -14.5t-11.5 -5.5q-3 0 -10 5l-101 88l-101 -88q-7 -5 -10 -5z" />
    <glyph glyph-name="K" unicode="K" horiz-adv-x="623" 
d="M85.5 3q-12.5 3 -12.5 12v690q0 9 13 12t53 3h11q39 0 53.5 -3.5t14.5 -11.5v-279l27 29q111 118 199 251q6 9 17 11.5t49 2.5h12q42 0 53.5 -3.5t6.5 -12.5q-59 -123 -219 -290l232 -396q5 -10 -5 -14t-47 -4h-29q-27 0 -44 1t-22 3.5t-9 9.5l-172 300l-49 -51v-248
q0 -8 -15 -11.5t-53 -3.5h-11q-41 0 -53.5 3z" />
    <glyph glyph-name="Kcommaaccent" unicode="&#x136;" horiz-adv-x="623" 
d="M85.5 3q-12.5 3 -12.5 12v690q0 9 13 12t53 3h11q39 0 53.5 -3.5t14.5 -11.5v-279l27 29q111 118 199 251q6 9 17 11.5t49 2.5h12q42 0 53.5 -3.5t6.5 -12.5q-59 -123 -219 -290l232 -396q5 -10 -5 -14t-47 -4h-29q-27 0 -44 1t-22 3.5t-9 9.5l-172 300l-49 -51v-248
q0 -8 -15 -11.5t-53 -3.5h-11q-41 0 -53.5 3zM268 -299q-6 4 -6 10q0 5 4 9q41 51 41 92q0 9 -3.5 16t-11.5 17q-9 11 -13.5 20t-4.5 22q0 22 17 38t44 16q29 0 47.5 -21.5t18.5 -54.5q0 -46 -25 -92t-71 -86q-7 -5 -10 -5q-4 0 -11 5z" />
    <glyph glyph-name="L" unicode="L" horiz-adv-x="516" 
d="M81 2.5q-8 2.5 -8 12.5v690q0 9 13 12t53 3h11q39 0 53.5 -3.5t14.5 -11.5v-589h256q8 0 11 -3t4.5 -13.5t1.5 -36.5v-8q0 -35 -3.5 -45t-13.5 -10h-356q-29 0 -37 2.5z" />
    <glyph glyph-name="Lacute" unicode="&#x139;" horiz-adv-x="516" 
d="M81 2.5q-8 2.5 -8 12.5v690q0 9 13 12t53 3h11q39 0 53.5 -3.5t14.5 -11.5v-589h256q8 0 11 -3t4.5 -13.5t1.5 -36.5v-8q0 -35 -3.5 -45t-13.5 -10h-356q-29 0 -37 2.5zM89 791q-6 3 -1 12l106 163q4 7 13.5 9.5t36.5 2.5h48q32 0 32 -9q0 -2 -3 -7l-130 -163
q-5 -6 -14 -8.5t-27 -2.5h-38q-17 0 -23 3z" />
    <glyph glyph-name="Lcaron" unicode="&#x13d;" horiz-adv-x="516" 
d="M81 2.5q-8 2.5 -8 12.5v690q0 9 13 12t53 3h11q39 0 53.5 -3.5t14.5 -11.5v-589h256q8 0 11 -3t4.5 -13.5t1.5 -36.5v-8q0 -35 -3.5 -45t-13.5 -10h-356q-29 0 -37 2.5zM295 490q-6 4 -6 10q0 5 4 9q41 51 41 92q0 9 -3.5 16t-11.5 17q-9 11 -13.5 20t-4.5 22q0 22 17 38
t44 16q29 0 47.5 -21.5t18.5 -54.5q0 -46 -25 -92t-71 -86q-7 -5 -10 -5q-4 0 -11 5z" />
    <glyph glyph-name="Lcommaaccent" unicode="&#x13b;" horiz-adv-x="516" 
d="M81 2.5q-8 2.5 -8 12.5v690q0 9 13 12t53 3h11q39 0 53.5 -3.5t14.5 -11.5v-589h256q8 0 11 -3t4.5 -13.5t1.5 -36.5v-8q0 -35 -3.5 -45t-13.5 -10h-356q-29 0 -37 2.5zM227 -299q-6 4 -6 10q0 5 4 9q41 51 41 92q0 9 -3.5 16t-11.5 17q-9 11 -13.5 20t-4.5 22
q0 22 17 38t44 16q29 0 47.5 -21.5t18.5 -54.5q0 -46 -25 -92t-71 -86q-7 -5 -10 -5q-4 0 -11 5z" />
    <glyph glyph-name="Ldot" unicode="&#x13f;" horiz-adv-x="516" 
d="M81 2.5q-8 2.5 -8 12.5v690q0 9 13 12t53 3h11q39 0 53.5 -3.5t14.5 -11.5v-589h256q8 0 11 -3t4.5 -13.5t1.5 -36.5v-8q0 -35 -3.5 -45t-13.5 -10h-356q-29 0 -37 2.5zM320 353.5q-22 21.5 -22 51.5t22 51t52 21t51 -21t21 -51t-21 -51.5t-51 -21.5t-52 21.5z" />
    <glyph glyph-name="Lslash" unicode="&#x141;" horiz-adv-x="527" 
d="M92 2.5q-8 2.5 -8 12.5v259l-64 -35q-4 -3 -8 -3q-6 0 -8 9t-2 31v27q0 31 3 42t11 16l68 37v307q0 9 13 12t53 3h11q39 0 53.5 -3.5t14.5 -11.5v-227l126 70q4 3 8 3q6 0 8 -9t2 -31v-28q0 -31 -3 -42t-11 -16l-130 -72v-237h256q8 0 11 -3t4.5 -13.5t1.5 -36.5v-8
q0 -35 -3.5 -45t-13.5 -10h-356q-29 0 -37 2.5z" />
    <glyph glyph-name="M" unicode="M" horiz-adv-x="835" 
d="M93 1q-13 1 -17 4t-3 10l29 689q1 8 5 11t19.5 4t41.5 1h12q41 0 53.5 -3t17.5 -14l94 -226q56 -134 78 -208q9 32 31 91.5t44 113.5l93 229q4 10 16 13.5t54 3.5h8q42 0 53.5 -3t12.5 -13l27 -689q0 -7 -4 -10t-17.5 -4t-43.5 -1h-8q-41 0 -52.5 2.5t-11.5 11.5l-5 248
q-2 88 -2 134q0 41 2 95q-12 -43 -34.5 -107.5t-45.5 -119.5l-54 -132q-4 -11 -14 -14t-47 -3h-11q-36 0 -47 3.5t-15 13.5l-55 129q-26 61 -50.5 125t-35.5 103q4 -74 4 -143q0 -38 -2 -104l-7 -228q0 -10 -10.5 -12t-52.5 -2h-6q-31 0 -44 1z" />
    <glyph glyph-name="N" unicode="N" horiz-adv-x="706" 
d="M85 2.5q-12 2.5 -12 12.5v690q0 7 3 10t17 4t37 1h5q39 0 51.5 -3.5t18.5 -12.5l180 -274q60 -92 81 -128t37 -74q-6 72 -6 231v246q0 9 12 12t52 3h7q38 0 51.5 -3.5t13.5 -11.5v-690q0 -9 -10 -12t-48 -3h-6q-36 0 -49 3t-19 13l-180 274q-59 90 -83.5 131.5
t-35.5 71.5q7 -66 7 -232v-246q0 -9 -12.5 -12t-51.5 -3h-6q-42 0 -54 2.5z" />
    <glyph glyph-name="Nacute" unicode="&#x143;" horiz-adv-x="706" 
d="M85 2.5q-12 2.5 -12 12.5v690q0 7 3 10t17 4t37 1h5q39 0 51.5 -3.5t18.5 -12.5l180 -274q60 -92 81 -128t37 -74q-6 72 -6 231v246q0 9 12 12t52 3h7q38 0 51.5 -3.5t13.5 -11.5v-690q0 -9 -10 -12t-48 -3h-6q-36 0 -49 3t-19 13l-180 274q-59 90 -83.5 131.5
t-35.5 71.5q7 -66 7 -232v-246q0 -9 -12.5 -12t-51.5 -3h-6q-42 0 -54 2.5zM268 791q-6 3 -1 12l106 163q4 7 13.5 9.5t36.5 2.5h48q32 0 32 -9q0 -2 -3 -7l-130 -163q-5 -6 -14 -8.5t-27 -2.5h-38q-17 0 -23 3z" />
    <glyph glyph-name="Ncaron" unicode="&#x147;" horiz-adv-x="706" 
d="M85 2.5q-12 2.5 -12 12.5v690q0 7 3 10t17 4t37 1h5q39 0 51.5 -3.5t18.5 -12.5l180 -274q60 -92 81 -128t37 -74q-6 72 -6 231v246q0 9 12 12t52 3h7q38 0 51.5 -3.5t13.5 -11.5v-690q0 -9 -10 -12t-48 -3h-6q-36 0 -49 3t-19 13l-180 274q-59 90 -83.5 131.5
t-35.5 71.5q7 -66 7 -232v-246q0 -9 -12.5 -12t-51.5 -3h-6q-42 0 -54 2.5zM306.5 793q-12.5 3 -21.5 13l-91 97q-5 5 -5 10q0 8 17 25l10 10q9 9 15.5 14.5t11.5 5.5q3 0 10 -5l101 -88l101 88q7 5 10 5q5 0 11.5 -5.5t15.5 -14.5l10 -10q17 -17 17 -25q0 -5 -5 -10
l-91 -97q-9 -10 -21.5 -13t-40.5 -3h-14q-28 0 -40.5 3z" />
    <glyph glyph-name="Ncommaaccent" unicode="&#x145;" horiz-adv-x="706" 
d="M85 2.5q-12 2.5 -12 12.5v690q0 7 3 10t17 4t37 1h5q39 0 51.5 -3.5t18.5 -12.5l180 -274q60 -92 81 -128t37 -74q-6 72 -6 231v246q0 9 12 12t52 3h7q38 0 51.5 -3.5t13.5 -11.5v-690q0 -9 -10 -12t-48 -3h-6q-36 0 -49 3t-19 13l-180 274q-59 90 -83.5 131.5
t-35.5 71.5q7 -66 7 -232v-246q0 -9 -12.5 -12t-51.5 -3h-6q-42 0 -54 2.5zM289 -299q-6 4 -6 10q0 5 4 9q41 51 41 92q0 9 -3.5 16t-11.5 17q-9 11 -13.5 20t-4.5 22q0 22 17 38t44 16q29 0 47.5 -21.5t18.5 -54.5q0 -46 -25 -92t-71 -86q-7 -5 -10 -5q-4 0 -11 5z" />
    <glyph glyph-name="Eng" unicode="&#x14a;" horiz-adv-x="706" 
d="M384.5 -177.5q-28.5 5.5 -42.5 13.5q-9 4 -9 14q0 7 6 36l4 17q6 25 10.5 31t16.5 3q27 -6 54 -6q38 0 54 22t18 70l-175 267q-59 90 -83.5 131.5t-35.5 71.5q7 -66 7 -232v-246q0 -9 -12.5 -12t-51.5 -3h-6q-42 0 -54 2.5t-12 12.5v690q0 7 3 10t17 4t37 1h5
q39 0 51.5 -3.5t18.5 -12.5l180 -274q60 -92 81 -128t37 -74q-6 72 -6 231v246q0 9 12 12t52 3h7q38 0 51.5 -3.5t13.5 -11.5v-650q0 -238 -192 -238q-28 0 -56.5 5.5z" />
    <glyph glyph-name="Ntilde" unicode="&#xd1;" horiz-adv-x="706" 
d="M85 2.5q-12 2.5 -12 12.5v690q0 7 3 10t17 4t37 1h5q39 0 51.5 -3.5t18.5 -12.5l180 -274q60 -92 81 -128t37 -74q-6 72 -6 231v246q0 9 12 12t52 3h7q38 0 51.5 -3.5t13.5 -11.5v-690q0 -9 -10 -12t-48 -3h-6q-36 0 -49 3t-19 13l-180 274q-59 90 -83.5 131.5
t-35.5 71.5q7 -66 7 -232v-246q0 -9 -12.5 -12t-51.5 -3h-6q-42 0 -54 2.5zM377.5 818.5q-15.5 5.5 -37.5 16.5q-12 6 -23.5 10.5t-20.5 4.5q-27 0 -59 -32q-4 -4 -12 -1t-24 19l-4 4q-20 20 -20 28q0 3 4 9q54 67 115 67q19 0 34.5 -5.5t37.5 -16.5q11 -6 22.5 -10.5
t20.5 -4.5q27 0 59 32q4 4 12 1t24 -19l4 -4q20 -20 20 -28q0 -3 -4 -9q-54 -67 -115 -67q-18 0 -33.5 5.5z" />
    <glyph glyph-name="O" unicode="O" horiz-adv-x="697" 
d="M117 78.5q-81 88.5 -81 271.5q0 177 83 278.5t240 101.5q140 0 221 -88.5t81 -271.5q0 -177 -83 -278.5t-240 -101.5q-140 0 -221 88.5zM468.5 176.5q43.5 65.5 43.5 189.5q0 126 -40 184.5t-116 58.5q-84 0 -127.5 -65.5t-43.5 -189.5q0 -126 40 -184.5t116 -58.5
q84 0 127.5 65.5z" />
    <glyph glyph-name="Oacute" unicode="&#xd3;" horiz-adv-x="697" 
d="M117 78.5q-81 88.5 -81 271.5q0 177 83 278.5t240 101.5q140 0 221 -88.5t81 -271.5q0 -177 -83 -278.5t-240 -101.5q-140 0 -221 88.5zM468.5 176.5q43.5 65.5 43.5 189.5q0 126 -40 184.5t-116 58.5q-84 0 -127.5 -65.5t-43.5 -189.5q0 -126 40 -184.5t116 -58.5
q84 0 127.5 65.5zM273 791q-6 3 -1 12l106 163q4 7 13.5 9.5t36.5 2.5h48q32 0 32 -9q0 -2 -3 -7l-130 -163q-5 -6 -14 -8.5t-27 -2.5h-38q-17 0 -23 3z" />
    <glyph glyph-name="Obreve" unicode="&#x14e;" horiz-adv-x="697" 
d="M117 78.5q-81 88.5 -81 271.5q0 177 83 278.5t240 101.5q140 0 221 -88.5t81 -271.5q0 -177 -83 -278.5t-240 -101.5q-140 0 -221 88.5zM468.5 176.5q43.5 65.5 43.5 189.5q0 126 -40 184.5t-116 58.5q-84 0 -127.5 -65.5t-43.5 -189.5q0 -126 40 -184.5t116 -58.5
q84 0 127.5 65.5zM248.5 834q-40.5 37 -44.5 104q0 9 8 11.5t35 2.5h15q22 0 29 -2.5t8 -9.5q10 -57 60 -57t60 57q1 7 8 9.5t29 2.5h15q27 0 35 -2.5t8 -11.5q-4 -67 -44.5 -104t-110.5 -37t-110.5 37z" />
    <glyph glyph-name="Ocircumflex" unicode="&#xd4;" horiz-adv-x="697" 
d="M117 78.5q-81 88.5 -81 271.5q0 177 83 278.5t240 101.5q140 0 221 -88.5t81 -271.5q0 -177 -83 -278.5t-240 -101.5q-140 0 -221 88.5zM468.5 176.5q43.5 65.5 43.5 189.5q0 126 -40 184.5t-116 58.5q-84 0 -127.5 -65.5t-43.5 -189.5q0 -126 40 -184.5t116 -58.5
q84 0 127.5 65.5zM248 790q-5 0 -11.5 5.5t-15.5 14.5l-10 10q-17 17 -17 25q0 5 5 10l91 97q9 10 21.5 13t40.5 3h14q28 0 40.5 -3t21.5 -13l91 -97q5 -5 5 -10q0 -8 -17 -25l-10 -10q-9 -9 -15.5 -14.5t-11.5 -5.5q-3 0 -10 5l-101 88l-101 -88q-7 -5 -10 -5z" />
    <glyph glyph-name="Odieresis" unicode="&#xd6;" horiz-adv-x="697" 
d="M117 78.5q-81 88.5 -81 271.5q0 177 83 278.5t240 101.5q140 0 221 -88.5t81 -271.5q0 -177 -83 -278.5t-240 -101.5q-140 0 -221 88.5zM468.5 176.5q43.5 65.5 43.5 189.5q0 126 -40 184.5t-116 58.5q-84 0 -127.5 -65.5t-43.5 -189.5q0 -126 40 -184.5t116 -58.5
q84 0 127.5 65.5zM198 822q-21 20 -21 49q0 30 21 50.5t52 20.5q32 0 52.5 -20.5t20.5 -50.5q0 -29 -20.5 -49t-52.5 -20q-31 0 -52 20zM415 822q-20 20 -20 49q0 30 20 50.5t51 20.5q33 0 54 -20.5t21 -50.5q0 -29 -21 -49t-54 -20q-31 0 -51 20z" />
    <glyph glyph-name="Ograve" unicode="&#xd2;" horiz-adv-x="697" 
d="M117 78.5q-81 88.5 -81 271.5q0 177 83 278.5t240 101.5q140 0 221 -88.5t81 -271.5q0 -177 -83 -278.5t-240 -101.5q-140 0 -221 88.5zM468.5 176.5q43.5 65.5 43.5 189.5q0 126 -40 184.5t-116 58.5q-84 0 -127.5 -65.5t-43.5 -189.5q0 -126 40 -184.5t116 -58.5
q84 0 127.5 65.5zM357 790.5q-9 2.5 -14 8.5l-130 163q-3 5 -3 7q0 9 32 9h48q27 0 36.5 -2.5t13.5 -9.5l106 -163q2 -3 2 -7q0 -8 -26 -8h-38q-18 0 -27 2.5z" />
    <glyph glyph-name="Ohungarumlaut" unicode="&#x150;" horiz-adv-x="697" 
d="M117 78.5q-81 88.5 -81 271.5q0 177 83 278.5t240 101.5q140 0 221 -88.5t81 -271.5q0 -177 -83 -278.5t-240 -101.5q-140 0 -221 88.5zM468.5 176.5q43.5 65.5 43.5 189.5q0 126 -40 184.5t-116 58.5q-84 0 -127.5 -65.5t-43.5 -189.5q0 -126 40 -184.5t116 -58.5
q84 0 127.5 65.5zM173.5 798q-5.5 3 -0.5 11l92 157q4 7 13.5 9.5t34.5 2.5h43q22 0 27.5 -3.5t0.5 -11.5l-116 -157q-5 -7 -13 -9t-26 -2h-33q-17 0 -22.5 3zM373.5 798q-5.5 3 -0.5 11l92 157q4 7 13.5 9.5t34.5 2.5h43q22 0 27.5 -3.5t0.5 -11.5l-116 -157q-5 -7 -13 -9
t-26 -2h-33q-17 0 -22.5 3z" />
    <glyph glyph-name="Omacron" unicode="&#x14c;" horiz-adv-x="697" 
d="M117 78.5q-81 88.5 -81 271.5q0 177 83 278.5t240 101.5q140 0 221 -88.5t81 -271.5q0 -177 -83 -278.5t-240 -101.5q-140 0 -221 88.5zM468.5 176.5q43.5 65.5 43.5 189.5q0 126 -40 184.5t-116 58.5q-84 0 -127.5 -65.5t-43.5 -189.5q0 -126 40 -184.5t116 -58.5
q84 0 127.5 65.5zM213.5 836.5q-2.5 8.5 -2.5 32.5v14q0 24 2.5 32.5t10.5 8.5h270q8 0 10.5 -8.5t2.5 -32.5v-14q0 -24 -2.5 -32.5t-10.5 -8.5h-270q-8 0 -10.5 8.5z" />
    <glyph glyph-name="Oslash" unicode="&#xd8;" horiz-adv-x="697" 
d="M158 -62q-7 0 -36 13l-13 6q-20 10 -27.5 15.5t-7.5 11.5l2 8l45 82q-85 91 -85 276q0 177 83 278.5t240 101.5q61 0 110 -16l31 57q6 11 14 11q10 0 35 -12l13 -6q20 -9 28 -14.5t8 -11.5q0 -4 -3 -10l-36 -66q102 -91 102 -292q0 -177 -83 -278.5t-240 -101.5
q-73 0 -132 24l-35 -65q-6 -11 -13 -11zM407 601q-24 8 -51 8q-84 0 -127.5 -65.5t-43.5 -189.5q0 -82 16 -133zM468.5 176.5q43.5 65.5 43.5 189.5q0 103 -27 160l-217 -398q30 -17 73 -17q84 0 127.5 65.5z" />
    <glyph glyph-name="Oslashacute" unicode="&#x1fe;" horiz-adv-x="697" 
d="M158 -62q-7 0 -36 13l-13 6q-20 10 -27.5 15.5t-7.5 11.5l2 8l45 82q-85 91 -85 276q0 177 83 278.5t240 101.5q61 0 110 -16l31 57q6 11 14 11q10 0 35 -12l13 -6q20 -9 28 -14.5t8 -11.5q0 -4 -3 -10l-36 -66q102 -91 102 -292q0 -177 -83 -278.5t-240 -101.5
q-73 0 -132 24l-35 -65q-6 -11 -13 -11zM407 601q-24 8 -51 8q-84 0 -127.5 -65.5t-43.5 -189.5q0 -82 16 -133zM468.5 176.5q43.5 65.5 43.5 189.5q0 103 -27 160l-217 -398q30 -17 73 -17q84 0 127.5 65.5zM263 791q-6 3 -1 12l106 163q4 7 13.5 9.5t36.5 2.5h48
q32 0 32 -9q0 -2 -3 -7l-130 -163q-5 -6 -14 -8.5t-27 -2.5h-38q-17 0 -23 3z" />
    <glyph glyph-name="Otilde" unicode="&#xd5;" horiz-adv-x="697" 
d="M117 78.5q-81 88.5 -81 271.5q0 177 83 278.5t240 101.5q140 0 221 -88.5t81 -271.5q0 -177 -83 -278.5t-240 -101.5q-140 0 -221 88.5zM468.5 176.5q43.5 65.5 43.5 189.5q0 126 -40 184.5t-116 58.5q-84 0 -127.5 -65.5t-43.5 -189.5q0 -126 40 -184.5t116 -58.5
q84 0 127.5 65.5zM382.5 818.5q-15.5 5.5 -37.5 16.5q-12 6 -23.5 10.5t-20.5 4.5q-27 0 -59 -32q-4 -4 -12 -1t-24 19l-4 4q-20 20 -20 28q0 3 4 9q54 67 115 67q19 0 34.5 -5.5t37.5 -16.5q11 -6 22.5 -10.5t20.5 -4.5q27 0 59 32q4 4 12 1t24 -19l4 -4q20 -20 20 -28
q0 -3 -4 -9q-54 -67 -115 -67q-18 0 -33.5 5.5z" />
    <glyph glyph-name="OE" unicode="&#x152;" horiz-adv-x="976" 
d="M119.5 79q-84.5 89 -84.5 271q0 115 38.5 201t113.5 132.5t180 46.5q26 0 59.5 -2t47.5 -3q60 -5 106 -5h325q8 0 11 -3t4.5 -13.5t1.5 -36.5v-8q0 -35 -3.5 -45t-13.5 -10h-275v-182h233q8 0 11 -3t4.5 -13.5t1.5 -36.5v-8q0 -35 -3.5 -45t-13.5 -10h-233v-190h279
q8 0 11 -3t4.5 -13.5t1.5 -36.5v-8q0 -35 -3.5 -45t-13.5 -10h-316q-23 0 -101 -4q-94 -6 -146 -6q-142 0 -226.5 89zM459 115l26 1v488q-85 5 -119 5q-85 0 -133.5 -66.5t-48.5 -188.5q0 -124 44.5 -183.5t122.5 -59.5q46 0 108 4z" />
    <glyph glyph-name="P" unicode="P" horiz-adv-x="573" 
d="M85.5 3q-12.5 3 -12.5 12v690q0 10 8 12.5t37 2.5h121q93 0 150.5 -14.5t96.5 -53.5q54 -54 54 -159q0 -51 -16.5 -95t-47.5 -76q-32 -33 -83.5 -50.5t-118.5 -17.5q-26 0 -56 2v-241q0 -9 -14 -12t-54 -3h-11q-41 0 -53.5 3zM368 407q13 16 19.5 38.5t6.5 47.5
q0 46 -23 74q-17 20 -44 28.5t-71 8.5h-38v-232q21 -3 48 -3q72 0 102 38z" />
    <glyph glyph-name="Thorn" unicode="&#xde;" horiz-adv-x="574" 
d="M84.5 3q-12.5 3 -12.5 12v690q0 9 12.5 12t53.5 3h11q40 0 54 -3t14 -12v-117h24q93 0 150.5 -14.5t96.5 -53.5q54 -54 54 -159q0 -51 -16.5 -95t-47.5 -76q-32 -33 -83.5 -50.5t-118.5 -17.5q-29 0 -59 2v-109q0 -9 -14 -12t-54 -3h-11q-41 0 -53.5 3zM370 275
q13 16 19.5 38.5t6.5 47.5q0 46 -23 74q-17 20 -44 28.5t-71 8.5h-41v-232q21 -3 51 -3q72 0 102 38z" />
    <glyph glyph-name="Q" unicode="Q" horiz-adv-x="697" 
d="M432 1q-46 -11 -94 -11q-140 0 -221 88.5t-81 271.5q0 177 83 278.5t240 101.5q140 0 221 -88.5t81 -271.5q0 -104 -29.5 -183.5t-86.5 -127.5q32 -39 76 -79q4 -4 4 -9q0 -13 -31 -37l-16 -13q-29 -24 -43 -24q-8 0 -14 6q-42 39 -89 98zM306 211q-3 9 4 16t37 21l13 6
q31 15 44 15q8 0 13 -10q25 -52 50 -91q45 49 45 198q0 126 -40 184.5t-116 58.5q-84 0 -127.5 -65.5t-43.5 -189.5q0 -130 41 -187.5t134 -56.5q-39 64 -54 101z" />
    <glyph glyph-name="R" unicode="R" horiz-adv-x="615" 
d="M85.5 3q-12.5 3 -12.5 12v690q0 10 8 12.5t37 2.5h134q89 1 146 -14t94 -54q50 -52 50 -145q0 -139 -124 -204l23 -42q77 -139 153 -241q4 -6 4 -9q0 -11 -43 -11h-55q-28 0 -40 2.5t-22 12.5q-36 39 -123 200l-33 61h-64v-261q0 -9 -14 -12t-54 -3h-11q-41 0 -53.5 3z
M267 390q70 0 101 33q28 28 28 82q0 46 -24 70q-15 15 -40.5 22t-65.5 7h-48v-214h49z" />
    <glyph glyph-name="Racute" unicode="&#x154;" horiz-adv-x="615" 
d="M85.5 3q-12.5 3 -12.5 12v690q0 10 8 12.5t37 2.5h134q89 1 146 -14t94 -54q50 -52 50 -145q0 -139 -124 -204l23 -42q77 -139 153 -241q4 -6 4 -9q0 -11 -43 -11h-55q-28 0 -40 2.5t-22 12.5q-36 39 -123 200l-33 61h-64v-261q0 -9 -14 -12t-54 -3h-11q-41 0 -53.5 3z
M267 390q70 0 101 33q28 28 28 82q0 46 -24 70q-15 15 -40.5 22t-65.5 7h-48v-214h49zM232 791q-6 3 -1 12l106 163q4 7 13.5 9.5t36.5 2.5h48q32 0 32 -9q0 -2 -3 -7l-130 -163q-5 -6 -14 -8.5t-27 -2.5h-38q-17 0 -23 3z" />
    <glyph glyph-name="Rcaron" unicode="&#x158;" horiz-adv-x="615" 
d="M85.5 3q-12.5 3 -12.5 12v690q0 10 8 12.5t37 2.5h134q89 1 146 -14t94 -54q50 -52 50 -145q0 -139 -124 -204l23 -42q77 -139 153 -241q4 -6 4 -9q0 -11 -43 -11h-55q-28 0 -40 2.5t-22 12.5q-36 39 -123 200l-33 61h-64v-261q0 -9 -14 -12t-54 -3h-11q-41 0 -53.5 3z
M267 390q70 0 101 33q28 28 28 82q0 46 -24 70q-15 15 -40.5 22t-65.5 7h-48v-214h49zM270.5 793q-12.5 3 -21.5 13l-91 97q-5 5 -5 10q0 8 17 25l10 10q9 9 15.5 14.5t11.5 5.5q3 0 10 -5l101 -88l101 88q7 5 10 5q5 0 11.5 -5.5t15.5 -14.5l10 -10q17 -17 17 -25
q0 -5 -5 -10l-91 -97q-9 -10 -21.5 -13t-40.5 -3h-14q-28 0 -40.5 3z" />
    <glyph glyph-name="Rcommaaccent" unicode="&#x156;" horiz-adv-x="615" 
d="M85.5 3q-12.5 3 -12.5 12v690q0 10 8 12.5t37 2.5h134q89 1 146 -14t94 -54q50 -52 50 -145q0 -139 -124 -204l23 -42q77 -139 153 -241q4 -6 4 -9q0 -11 -43 -11h-55q-28 0 -40 2.5t-22 12.5q-36 39 -123 200l-33 61h-64v-261q0 -9 -14 -12t-54 -3h-11q-41 0 -53.5 3z
M267 390q70 0 101 33q28 28 28 82q0 46 -24 70q-15 15 -40.5 22t-65.5 7h-48v-214h49zM259 -299q-6 4 -6 10q0 5 4 9q41 51 41 92q0 9 -3.5 16t-11.5 17q-9 11 -13.5 20t-4.5 22q0 22 17 38t44 16q29 0 47.5 -21.5t18.5 -54.5q0 -46 -25 -92t-71 -86q-7 -5 -10 -5
q-4 0 -11 5z" />
    <glyph glyph-name="S" unicode="S" horiz-adv-x="552" 
d="M140.5 9q-57.5 19 -94.5 49q-10 8 -10 18q0 12 13 37l12 24q10 18 16.5 26t13.5 8q4 0 9 -3q80 -57 152 -57q50 0 79 22t29 63q0 29 -15.5 49t-36 32.5t-65.5 34.5q-55 27 -91 51t-60.5 62.5t-24.5 93.5q0 65 31 113t84 73t116 25q50 0 97.5 -14t83.5 -39q10 -7 10 -17
q0 -9 -14 -39l-10 -20q-10 -20 -15.5 -27.5t-11.5 -7.5q-1 0 -9 4q-36 22 -63.5 32t-60.5 10q-42 0 -68 -22.5t-26 -58.5q0 -24 15 -42t35 -30t62 -33q58 -30 94 -54.5t61.5 -65t25.5 -99.5q0 -98 -63 -157.5t-180 -59.5q-63 0 -120.5 19z" />
    <glyph glyph-name="Sacute" unicode="&#x15a;" horiz-adv-x="552" 
d="M140.5 9q-57.5 19 -94.5 49q-10 8 -10 18q0 12 13 37l12 24q10 18 16.5 26t13.5 8q4 0 9 -3q80 -57 152 -57q50 0 79 22t29 63q0 29 -15.5 49t-36 32.5t-65.5 34.5q-55 27 -91 51t-60.5 62.5t-24.5 93.5q0 65 31 113t84 73t116 25q50 0 97.5 -14t83.5 -39q10 -7 10 -17
q0 -9 -14 -39l-10 -20q-10 -20 -15.5 -27.5t-11.5 -7.5q-1 0 -9 4q-36 22 -63.5 32t-60.5 10q-42 0 -68 -22.5t-26 -58.5q0 -24 15 -42t35 -30t62 -33q58 -30 94 -54.5t61.5 -65t25.5 -99.5q0 -98 -63 -157.5t-180 -59.5q-63 0 -120.5 19zM213 791q-6 3 -1 12l106 163
q4 7 13.5 9.5t36.5 2.5h48q32 0 32 -9q0 -2 -3 -7l-130 -163q-5 -6 -14 -8.5t-27 -2.5h-38q-17 0 -23 3z" />
    <glyph glyph-name="Scaron" unicode="&#x160;" horiz-adv-x="552" 
d="M140.5 9q-57.5 19 -94.5 49q-10 8 -10 18q0 12 13 37l12 24q10 18 16.5 26t13.5 8q4 0 9 -3q80 -57 152 -57q50 0 79 22t29 63q0 29 -15.5 49t-36 32.5t-65.5 34.5q-55 27 -91 51t-60.5 62.5t-24.5 93.5q0 65 31 113t84 73t116 25q50 0 97.5 -14t83.5 -39q10 -7 10 -17
q0 -9 -14 -39l-10 -20q-10 -20 -15.5 -27.5t-11.5 -7.5q-1 0 -9 4q-36 22 -63.5 32t-60.5 10q-42 0 -68 -22.5t-26 -58.5q0 -24 15 -42t35 -30t62 -33q58 -30 94 -54.5t61.5 -65t25.5 -99.5q0 -98 -63 -157.5t-180 -59.5q-63 0 -120.5 19zM251.5 793q-12.5 3 -21.5 13
l-91 97q-5 5 -5 10q0 8 17 25l10 10q9 9 15.5 14.5t11.5 5.5q3 0 10 -5l101 -88l101 88q7 5 10 5q5 0 11.5 -5.5t15.5 -14.5l10 -10q17 -17 17 -25q0 -5 -5 -10l-91 -97q-9 -10 -21.5 -13t-40.5 -3h-14q-28 0 -40.5 3z" />
    <glyph glyph-name="Scedilla" unicode="&#x15e;" horiz-adv-x="552" 
d="M454 62q-50 -57 -145 -69l-3 -30q48 -2 77 -25t29 -69q0 -45 -32.5 -76.5t-94.5 -31.5q-47 0 -78 13q-4 2 -5.5 4t-1.5 7q0 9 4 24l3 11q5 18 9 23.5t13 2.5q21 -6 46 -6q20 0 29.5 8t9.5 21q0 30 -45 30q-31 0 -60 -4l14 97q-53 5 -99 23t-78 43q-10 8 -10 18
q0 12 13 37l12 24q10 18 16.5 26t13.5 8q4 0 9 -3q80 -57 152 -57q50 0 79 22t29 63q0 29 -15.5 49t-36 32.5t-65.5 34.5q-55 27 -91 51t-60.5 62.5t-24.5 93.5q0 65 31 113t84 73t116 25q50 0 97.5 -14t83.5 -39q10 -7 10 -17q0 -9 -14 -39l-10 -20q-10 -20 -15.5 -27.5
t-11.5 -7.5q-1 0 -9 4q-36 22 -63.5 32t-60.5 10q-42 0 -68 -22.5t-26 -58.5q0 -24 15 -42t35 -30t62 -33q58 -30 94 -54.5t61.5 -65t25.5 -99.5q0 -88 -50 -145z" />
    <glyph glyph-name="Scircumflex" unicode="&#x15c;" horiz-adv-x="552" 
d="M140.5 9q-57.5 19 -94.5 49q-10 8 -10 18q0 12 13 37l12 24q10 18 16.5 26t13.5 8q4 0 9 -3q80 -57 152 -57q50 0 79 22t29 63q0 29 -15.5 49t-36 32.5t-65.5 34.5q-55 27 -91 51t-60.5 62.5t-24.5 93.5q0 65 31 113t84 73t116 25q50 0 97.5 -14t83.5 -39q10 -7 10 -17
q0 -9 -14 -39l-10 -20q-10 -20 -15.5 -27.5t-11.5 -7.5q-1 0 -9 4q-36 22 -63.5 32t-60.5 10q-42 0 -68 -22.5t-26 -58.5q0 -24 15 -42t35 -30t62 -33q58 -30 94 -54.5t61.5 -65t25.5 -99.5q0 -98 -63 -157.5t-180 -59.5q-63 0 -120.5 19zM188 790q-5 0 -11.5 5.5
t-15.5 14.5l-10 10q-17 17 -17 25q0 5 5 10l91 97q9 10 21.5 13t40.5 3h14q28 0 40.5 -3t21.5 -13l91 -97q5 -5 5 -10q0 -8 -17 -25l-10 -10q-9 -9 -15.5 -14.5t-11.5 -5.5q-3 0 -10 5l-101 88l-101 -88q-7 -5 -10 -5z" />
    <glyph glyph-name="Scommaaccent" unicode="&#x218;" horiz-adv-x="552" 
d="M140.5 9q-57.5 19 -94.5 49q-10 8 -10 18q0 12 13 37l12 24q10 18 16.5 26t13.5 8q4 0 9 -3q80 -57 152 -57q50 0 79 22t29 63q0 29 -15.5 49t-36 32.5t-65.5 34.5q-55 27 -91 51t-60.5 62.5t-24.5 93.5q0 65 31 113t84 73t116 25q50 0 97.5 -14t83.5 -39q10 -7 10 -17
q0 -9 -14 -39l-10 -20q-10 -20 -15.5 -27.5t-11.5 -7.5q-1 0 -9 4q-36 22 -63.5 32t-60.5 10q-42 0 -68 -22.5t-26 -58.5q0 -24 15 -42t35 -30t62 -33q58 -30 94 -54.5t61.5 -65t25.5 -99.5q0 -98 -63 -157.5t-180 -59.5q-63 0 -120.5 19zM202 -299q-6 4 -6 10q0 5 4 9
q41 51 41 92q0 9 -3.5 16t-11.5 17q-9 11 -13.5 20t-4.5 22q0 22 17 38t44 16q29 0 47.5 -21.5t18.5 -54.5q0 -46 -25 -92t-71 -86q-7 -5 -10 -5q-4 0 -11 5z" />
    <glyph glyph-name="T" unicode="T" horiz-adv-x="542" 
d="M210.5 3q-12.5 3 -12.5 12v589h-165q-10 0 -13.5 9.5t-3.5 45.5v8q0 27 1.5 37.5t4.5 13t11 2.5h476q8 0 11 -3t4.5 -13.5t1.5 -36.5v-8q0 -35 -3.5 -45t-13.5 -10h-166v-589q0 -9 -14 -12t-54 -3h-11q-41 0 -53.5 3z" />
    <glyph glyph-name="Tbar" unicode="&#x166;" horiz-adv-x="542" 
d="M210.5 3q-12.5 3 -12.5 12v294h-101q-8 0 -11 9.5t-3 40.5v6q0 31 3 40.5t11 9.5h101v189h-165q-10 0 -13.5 9.5t-3.5 45.5v8q0 27 1.5 37.5t4.5 13t11 2.5h476q8 0 11 -3t4.5 -13.5t1.5 -36.5v-8q0 -35 -3.5 -45t-13.5 -10h-166v-189h101q8 0 11 -9.5t3 -40.5v-6
q0 -31 -3 -40.5t-11 -9.5h-101v-294q0 -9 -14 -12t-54 -3h-11q-41 0 -53.5 3z" />
    <glyph glyph-name="Tcaron" unicode="&#x164;" horiz-adv-x="542" 
d="M210.5 3q-12.5 3 -12.5 12v589h-165q-10 0 -13.5 9.5t-3.5 45.5v8q0 27 1.5 37.5t4.5 13t11 2.5h476q8 0 11 -3t4.5 -13.5t1.5 -36.5v-8q0 -35 -3.5 -45t-13.5 -10h-166v-589q0 -9 -14 -12t-54 -3h-11q-41 0 -53.5 3zM223.5 793q-12.5 3 -21.5 13l-91 97q-5 5 -5 10
q0 8 17 25l10 10q9 9 15.5 14.5t11.5 5.5q3 0 10 -5l101 -88l101 88q7 5 10 5q5 0 11.5 -5.5t15.5 -14.5l10 -10q17 -17 17 -25q0 -5 -5 -10l-91 -97q-9 -10 -21.5 -13t-40.5 -3h-14q-28 0 -40.5 3z" />
    <glyph glyph-name="uni0162" unicode="&#x162;" horiz-adv-x="542" 
d="M210.5 3q-12.5 3 -12.5 12v589h-165q-10 0 -13.5 9.5t-3.5 45.5v8q0 27 1.5 37.5t4.5 13t11 2.5h476q8 0 11 -3t4.5 -13.5t1.5 -36.5v-8q0 -35 -3.5 -45t-13.5 -10h-166v-589q0 -9 -14 -12t-54 -3h-11q-41 0 -53.5 3zM207 -299q-6 4 -6 10q0 5 4 9q41 51 41 92
q0 9 -3.5 16t-11.5 17q-9 11 -13.5 20t-4.5 22q0 22 17 38t44 16q29 0 47.5 -21.5t18.5 -54.5q0 -46 -25 -92t-71 -86q-7 -5 -10 -5q-4 0 -11 5z" />
    <glyph glyph-name="uni021A" unicode="&#x21a;" horiz-adv-x="542" 
d="M210.5 3q-12.5 3 -12.5 12v589h-165q-10 0 -13.5 9.5t-3.5 45.5v8q0 27 1.5 37.5t4.5 13t11 2.5h476q8 0 11 -3t4.5 -13.5t1.5 -36.5v-8q0 -35 -3.5 -45t-13.5 -10h-166v-589q0 -9 -14 -12t-54 -3h-11q-41 0 -53.5 3zM207 -299q-6 4 -6 10q0 5 4 9q41 51 41 92
q0 9 -3.5 16t-11.5 17q-9 11 -13.5 20t-4.5 22q0 22 17 38t44 16q29 0 47.5 -21.5t18.5 -54.5q0 -46 -25 -92t-71 -86q-7 -5 -10 -5q-4 0 -11 5z" />
    <glyph glyph-name="U" unicode="U" horiz-adv-x="692" 
d="M128 66q-30 34 -44.5 82t-14.5 123v434q0 9 13 12t53 3h11q39 0 53.5 -3.5t14.5 -11.5v-433q0 -48 9.5 -79.5t28.5 -50.5q31 -31 94 -31q61 0 96 35q39 41 39 126v433q0 9 13 12t53 3h8q39 0 53.5 -3.5t14.5 -11.5v-413q0 -83 -16.5 -137t-51.5 -91q-71 -74 -213 -74
q-147 0 -214 76z" />
    <glyph glyph-name="Uacute" unicode="&#xda;" horiz-adv-x="692" 
d="M128 66q-30 34 -44.5 82t-14.5 123v434q0 9 13 12t53 3h11q39 0 53.5 -3.5t14.5 -11.5v-433q0 -48 9.5 -79.5t28.5 -50.5q31 -31 94 -31q61 0 96 35q39 41 39 126v433q0 9 13 12t53 3h8q39 0 53.5 -3.5t14.5 -11.5v-413q0 -83 -16.5 -137t-51.5 -91q-71 -74 -213 -74
q-147 0 -214 76zM260 791q-6 3 -1 12l106 163q4 7 13.5 9.5t36.5 2.5h48q32 0 32 -9q0 -2 -3 -7l-130 -163q-5 -6 -14 -8.5t-27 -2.5h-38q-17 0 -23 3z" />
    <glyph glyph-name="Ubreve" unicode="&#x16c;" horiz-adv-x="692" 
d="M128 66q-30 34 -44.5 82t-14.5 123v434q0 9 13 12t53 3h11q39 0 53.5 -3.5t14.5 -11.5v-433q0 -48 9.5 -79.5t28.5 -50.5q31 -31 94 -31q61 0 96 35q39 41 39 126v433q0 9 13 12t53 3h8q39 0 53.5 -3.5t14.5 -11.5v-413q0 -83 -16.5 -137t-51.5 -91q-71 -74 -213 -74
q-147 0 -214 76zM235.5 834q-40.5 37 -44.5 104q0 9 8 11.5t35 2.5h15q22 0 29 -2.5t8 -9.5q10 -57 60 -57t60 57q1 7 8 9.5t29 2.5h15q27 0 35 -2.5t8 -11.5q-4 -67 -44.5 -104t-110.5 -37t-110.5 37z" />
    <glyph glyph-name="Ucircumflex" unicode="&#xdb;" horiz-adv-x="692" 
d="M128 66q-30 34 -44.5 82t-14.5 123v434q0 9 13 12t53 3h11q39 0 53.5 -3.5t14.5 -11.5v-433q0 -48 9.5 -79.5t28.5 -50.5q31 -31 94 -31q61 0 96 35q39 41 39 126v433q0 9 13 12t53 3h8q39 0 53.5 -3.5t14.5 -11.5v-413q0 -83 -16.5 -137t-51.5 -91q-71 -74 -213 -74
q-147 0 -214 76zM235 790q-5 0 -11.5 5.5t-15.5 14.5l-10 10q-17 17 -17 25q0 5 5 10l91 97q9 10 21.5 13t40.5 3h14q28 0 40.5 -3t21.5 -13l91 -97q5 -5 5 -10q0 -8 -17 -25l-10 -10q-9 -9 -15.5 -14.5t-11.5 -5.5q-3 0 -10 5l-101 88l-101 -88q-7 -5 -10 -5z" />
    <glyph glyph-name="Udieresis" unicode="&#xdc;" horiz-adv-x="692" 
d="M128 66q-30 34 -44.5 82t-14.5 123v434q0 9 13 12t53 3h11q39 0 53.5 -3.5t14.5 -11.5v-433q0 -48 9.5 -79.5t28.5 -50.5q31 -31 94 -31q61 0 96 35q39 41 39 126v433q0 9 13 12t53 3h8q39 0 53.5 -3.5t14.5 -11.5v-413q0 -83 -16.5 -137t-51.5 -91q-71 -74 -213 -74
q-147 0 -214 76zM185 822q-21 20 -21 49q0 30 21 50.5t52 20.5q32 0 52.5 -20.5t20.5 -50.5q0 -29 -20.5 -49t-52.5 -20q-31 0 -52 20zM402 822q-20 20 -20 49q0 30 20 50.5t51 20.5q33 0 54 -20.5t21 -50.5q0 -29 -21 -49t-54 -20q-31 0 -51 20z" />
    <glyph glyph-name="Ugrave" unicode="&#xd9;" horiz-adv-x="692" 
d="M128 66q-30 34 -44.5 82t-14.5 123v434q0 9 13 12t53 3h11q39 0 53.5 -3.5t14.5 -11.5v-433q0 -48 9.5 -79.5t28.5 -50.5q31 -31 94 -31q61 0 96 35q39 41 39 126v433q0 9 13 12t53 3h8q39 0 53.5 -3.5t14.5 -11.5v-413q0 -83 -16.5 -137t-51.5 -91q-71 -74 -213 -74
q-147 0 -214 76zM344 790.5q-9 2.5 -14 8.5l-130 163q-3 5 -3 7q0 9 32 9h48q27 0 36.5 -2.5t13.5 -9.5l106 -163q2 -3 2 -7q0 -8 -26 -8h-38q-18 0 -27 2.5z" />
    <glyph glyph-name="Uhungarumlaut" unicode="&#x170;" horiz-adv-x="692" 
d="M128 66q-30 34 -44.5 82t-14.5 123v434q0 9 13 12t53 3h11q39 0 53.5 -3.5t14.5 -11.5v-433q0 -48 9.5 -79.5t28.5 -50.5q31 -31 94 -31q61 0 96 35q39 41 39 126v433q0 9 13 12t53 3h8q39 0 53.5 -3.5t14.5 -11.5v-413q0 -83 -16.5 -137t-51.5 -91q-71 -74 -213 -74
q-147 0 -214 76zM160.5 798q-5.5 3 -0.5 11l92 157q4 7 13.5 9.5t34.5 2.5h43q22 0 27.5 -3.5t0.5 -11.5l-116 -157q-5 -7 -13 -9t-26 -2h-33q-17 0 -22.5 3zM360.5 798q-5.5 3 -0.5 11l92 157q4 7 13.5 9.5t34.5 2.5h43q22 0 27.5 -3.5t0.5 -11.5l-116 -157q-5 -7 -13 -9
t-26 -2h-33q-17 0 -22.5 3z" />
    <glyph glyph-name="Umacron" unicode="&#x16a;" horiz-adv-x="692" 
d="M128 66q-30 34 -44.5 82t-14.5 123v434q0 9 13 12t53 3h11q39 0 53.5 -3.5t14.5 -11.5v-433q0 -48 9.5 -79.5t28.5 -50.5q31 -31 94 -31q61 0 96 35q39 41 39 126v433q0 9 13 12t53 3h8q39 0 53.5 -3.5t14.5 -11.5v-413q0 -83 -16.5 -137t-51.5 -91q-71 -74 -213 -74
q-147 0 -214 76zM200.5 836.5q-2.5 8.5 -2.5 32.5v14q0 24 2.5 32.5t10.5 8.5h270q8 0 10.5 -8.5t2.5 -32.5v-14q0 -24 -2.5 -32.5t-10.5 -8.5h-270q-8 0 -10.5 8.5z" />
    <glyph glyph-name="Uogonek" unicode="&#x172;" horiz-adv-x="692" 
d="M308 -209q-36 31 -36 86q0 30 17.5 61t45.5 52q-144 3 -207 76q-30 34 -44.5 82t-14.5 123v434q0 9 13 12t53 3h11q39 0 53.5 -3.5t14.5 -11.5v-433q0 -48 9.5 -79.5t28.5 -50.5q31 -31 94 -31q61 0 96 35q39 41 39 126v433q0 9 13 12t53 3h8q39 0 53.5 -3.5t14.5 -11.5
v-413q0 -83 -16.5 -137t-51.5 -91q-11 -12 -31.5 -26.5t-42.5 -28.5q-57 -36 -81 -60q-27 -29 -27 -57q0 -19 11 -31t31 -12q19 0 42 10q6 2 10.5 -3t11.5 -24l4 -12q6 -18 6 -25q0 -8 -8 -14q-40 -21 -84 -21q-53 0 -89 31z" />
    <glyph glyph-name="Uring" unicode="&#x16e;" horiz-adv-x="692" 
d="M128 66q-30 34 -44.5 82t-14.5 123v434q0 9 13 12t53 3h11q39 0 53.5 -3.5t14.5 -11.5v-433q0 -48 9.5 -79.5t28.5 -50.5q31 -31 94 -31q61 0 96 35q39 41 39 126v433q0 9 13 12t53 3h8q39 0 53.5 -3.5t14.5 -11.5v-413q0 -83 -16.5 -137t-51.5 -91q-71 -74 -213 -74
q-147 0 -214 76zM265.5 823q-33.5 32 -33.5 78q0 45 33.5 77t80.5 32t80 -31.5t33 -77.5t-33 -78t-80 -32t-80.5 32zM373 872.5q11 11.5 11 28.5q0 16 -11 27.5t-27 11.5q-17 0 -28.5 -11t-11.5 -28t11.5 -28.5t28.5 -11.5q16 0 27 11.5z" />
    <glyph glyph-name="Utilde" unicode="&#x168;" horiz-adv-x="692" 
d="M128 66q-30 34 -44.5 82t-14.5 123v434q0 9 13 12t53 3h11q39 0 53.5 -3.5t14.5 -11.5v-433q0 -48 9.5 -79.5t28.5 -50.5q31 -31 94 -31q61 0 96 35q39 41 39 126v433q0 9 13 12t53 3h8q39 0 53.5 -3.5t14.5 -11.5v-413q0 -83 -16.5 -137t-51.5 -91q-71 -74 -213 -74
q-147 0 -214 76zM369.5 818.5q-15.5 5.5 -37.5 16.5q-12 6 -23.5 10.5t-20.5 4.5q-27 0 -59 -32q-4 -4 -12 -1t-24 19l-4 4q-20 20 -20 28q0 3 4 9q54 67 115 67q19 0 34.5 -5.5t37.5 -16.5q11 -6 22.5 -10.5t20.5 -4.5q27 0 59 32q4 4 12 1t24 -19l4 -4q20 -20 20 -28
q0 -3 -4 -9q-54 -67 -115 -67q-18 0 -33.5 5.5z" />
    <glyph glyph-name="V" unicode="V" horiz-adv-x="652" 
d="M264.5 3.5q-15.5 3.5 -19.5 15.5l-220 684q-3 10 8 13.5t52 3.5h17q45 0 58.5 -3.5t16.5 -13.5l87 -295q48 -167 69 -268q10 52 29.5 128.5t38.5 141.5l86 293q2 7 7 10.5t18.5 5t43.5 1.5h4q42 0 56 -4t11 -13l-209 -682q-4 -12 -20.5 -16.5t-60.5 -4.5h-5
q-52 0 -67.5 3.5z" />
    <glyph glyph-name="W" unicode="W" horiz-adv-x="964" 
d="M244 1.5q-14 1.5 -19.5 4.5t-7.5 11l-190 686q-3 10 9 13.5t58 3.5h14q42 0 56 -3.5t16 -13.5l73 -293q35 -142 51 -248q18 140 42 249l67 292q2 11 15 14t56 3h9q42 0 56.5 -3.5t16.5 -13.5l67 -284q30 -132 47 -270q14 113 50 268l67 286q2 11 14.5 14t55.5 3h6
q43 0 55 -4t9 -13l-181 -686q-2 -10 -16 -13.5t-56 -3.5h-13q-46 0 -62 3.5t-18 13.5l-55 226q-38 158 -51 276q-17 -136 -48 -270l-55 -232q-2 -10 -16 -13.5t-56 -3.5h-21q-31 0 -45 1.5z" />
    <glyph glyph-name="Wacute" unicode="&#x1e82;" horiz-adv-x="964" 
d="M244 1.5q-14 1.5 -19.5 4.5t-7.5 11l-190 686q-3 10 9 13.5t58 3.5h14q42 0 56 -3.5t16 -13.5l73 -293q35 -142 51 -248q18 140 42 249l67 292q2 11 15 14t56 3h9q42 0 56.5 -3.5t16.5 -13.5l67 -284q30 -132 47 -270q14 113 50 268l67 286q2 11 14.5 14t55.5 3h6
q43 0 55 -4t9 -13l-181 -686q-2 -10 -16 -13.5t-56 -3.5h-13q-46 0 -62 3.5t-18 13.5l-55 226q-38 158 -51 276q-17 -136 -48 -270l-55 -232q-2 -10 -16 -13.5t-56 -3.5h-21q-31 0 -45 1.5zM403 791q-6 3 -1 12l106 163q4 7 13.5 9.5t36.5 2.5h48q32 0 32 -9q0 -2 -3 -7
l-130 -163q-5 -6 -14 -8.5t-27 -2.5h-38q-17 0 -23 3z" />
    <glyph glyph-name="Wcircumflex" unicode="&#x174;" horiz-adv-x="964" 
d="M244 1.5q-14 1.5 -19.5 4.5t-7.5 11l-190 686q-3 10 9 13.5t58 3.5h14q42 0 56 -3.5t16 -13.5l73 -293q35 -142 51 -248q18 140 42 249l67 292q2 11 15 14t56 3h9q42 0 56.5 -3.5t16.5 -13.5l67 -284q30 -132 47 -270q14 113 50 268l67 286q2 11 14.5 14t55.5 3h6
q43 0 55 -4t9 -13l-181 -686q-2 -10 -16 -13.5t-56 -3.5h-13q-46 0 -62 3.5t-18 13.5l-55 226q-38 158 -51 276q-17 -136 -48 -270l-55 -232q-2 -10 -16 -13.5t-56 -3.5h-21q-31 0 -45 1.5zM378 790q-5 0 -11.5 5.5t-15.5 14.5l-10 10q-17 17 -17 25q0 5 5 10l91 97
q9 10 21.5 13t40.5 3h14q28 0 40.5 -3t21.5 -13l91 -97q5 -5 5 -10q0 -8 -17 -25l-10 -10q-9 -9 -15.5 -14.5t-11.5 -5.5q-3 0 -10 5l-101 88l-101 -88q-7 -5 -10 -5z" />
    <glyph glyph-name="Wdieresis" unicode="&#x1e84;" horiz-adv-x="964" 
d="M244 1.5q-14 1.5 -19.5 4.5t-7.5 11l-190 686q-3 10 9 13.5t58 3.5h14q42 0 56 -3.5t16 -13.5l73 -293q35 -142 51 -248q18 140 42 249l67 292q2 11 15 14t56 3h9q42 0 56.5 -3.5t16.5 -13.5l67 -284q30 -132 47 -270q14 113 50 268l67 286q2 11 14.5 14t55.5 3h6
q43 0 55 -4t9 -13l-181 -686q-2 -10 -16 -13.5t-56 -3.5h-13q-46 0 -62 3.5t-18 13.5l-55 226q-38 158 -51 276q-17 -136 -48 -270l-55 -232q-2 -10 -16 -13.5t-56 -3.5h-21q-31 0 -45 1.5zM328 822q-21 20 -21 49q0 30 21 50.5t52 20.5q32 0 52.5 -20.5t20.5 -50.5
q0 -29 -20.5 -49t-52.5 -20q-31 0 -52 20zM545 822q-20 20 -20 49q0 30 20 50.5t51 20.5q33 0 54 -20.5t21 -50.5q0 -29 -21 -49t-54 -20q-31 0 -51 20z" />
    <glyph glyph-name="Wgrave" unicode="&#x1e80;" horiz-adv-x="964" 
d="M244 1.5q-14 1.5 -19.5 4.5t-7.5 11l-190 686q-3 10 9 13.5t58 3.5h14q42 0 56 -3.5t16 -13.5l73 -293q35 -142 51 -248q18 140 42 249l67 292q2 11 15 14t56 3h9q42 0 56.5 -3.5t16.5 -13.5l67 -284q30 -132 47 -270q14 113 50 268l67 286q2 11 14.5 14t55.5 3h6
q43 0 55 -4t9 -13l-181 -686q-2 -10 -16 -13.5t-56 -3.5h-13q-46 0 -62 3.5t-18 13.5l-55 226q-38 158 -51 276q-17 -136 -48 -270l-55 -232q-2 -10 -16 -13.5t-56 -3.5h-21q-31 0 -45 1.5zM487 790.5q-9 2.5 -14 8.5l-130 163q-3 5 -3 7q0 9 32 9h48q27 0 36.5 -2.5
t13.5 -9.5l106 -163q2 -3 2 -7q0 -8 -26 -8h-38q-18 0 -27 2.5z" />
    <glyph glyph-name="X" unicode="X" horiz-adv-x="612" 
d="M16.5 4q-8.5 4 -3.5 12l149 243l17 27q35 59 52 84q-36 56 -69 112l-132 223q-5 9 5 12t47 3h41q37 0 49.5 -2.5t17.5 -10.5l67 -113q39 -66 60 -114q35 69 60 116l60 111q5 8 15.5 10.5t49.5 2.5h42q33 0 41 -4t3 -12l-128 -210q-45 -74 -78 -124q21 -28 65 -101
l150 -254q5 -9 -4.5 -12t-47.5 -3h-41q-37 0 -49.5 2.5t-17.5 10.5l-74 125q-37 63 -67 121l-62 -116l-70 -130q-5 -8 -16 -10.5t-49 -2.5h-42q-32 0 -40.5 4z" />
    <glyph glyph-name="Y" unicode="Y" horiz-adv-x="591" 
d="M234.5 3q-12.5 3 -12.5 12v265l-210 423q-5 10 7 13.5t56 3.5h23q40 0 54.5 -3.5t19.5 -12.5l72 -150q42 -88 61 -146q30 83 59 146l70 151q4 9 15.5 12t50.5 3h22q40 0 51 -3.5t6 -12.5l-212 -424v-265q0 -9 -14 -12t-54 -3h-11q-41 0 -53.5 3z" />
    <glyph glyph-name="Yacute" unicode="&#xdd;" horiz-adv-x="591" 
d="M234.5 3q-12.5 3 -12.5 12v265l-210 423q-5 10 7 13.5t56 3.5h23q40 0 54.5 -3.5t19.5 -12.5l72 -150q42 -88 61 -146q30 83 59 146l70 151q4 9 15.5 12t50.5 3h22q40 0 51 -3.5t6 -12.5l-212 -424v-265q0 -9 -14 -12t-54 -3h-11q-41 0 -53.5 3zM223 791q-6 3 -1 12
l106 163q4 7 13.5 9.5t36.5 2.5h48q32 0 32 -9q0 -2 -3 -7l-130 -163q-5 -6 -14 -8.5t-27 -2.5h-38q-17 0 -23 3z" />
    <glyph glyph-name="Ycircumflex" unicode="&#x176;" horiz-adv-x="591" 
d="M234.5 3q-12.5 3 -12.5 12v265l-210 423q-5 10 7 13.5t56 3.5h23q40 0 54.5 -3.5t19.5 -12.5l72 -150q42 -88 61 -146q30 83 59 146l70 151q4 9 15.5 12t50.5 3h22q40 0 51 -3.5t6 -12.5l-212 -424v-265q0 -9 -14 -12t-54 -3h-11q-41 0 -53.5 3zM198 790q-5 0 -11.5 5.5
t-15.5 14.5l-10 10q-17 17 -17 25q0 5 5 10l91 97q9 10 21.5 13t40.5 3h14q28 0 40.5 -3t21.5 -13l91 -97q5 -5 5 -10q0 -8 -17 -25l-10 -10q-9 -9 -15.5 -14.5t-11.5 -5.5q-3 0 -10 5l-101 88l-101 -88q-7 -5 -10 -5z" />
    <glyph glyph-name="Ydieresis" unicode="&#x178;" horiz-adv-x="591" 
d="M234.5 3q-12.5 3 -12.5 12v265l-210 423q-5 10 7 13.5t56 3.5h23q40 0 54.5 -3.5t19.5 -12.5l72 -150q42 -88 61 -146q30 83 59 146l70 151q4 9 15.5 12t50.5 3h22q40 0 51 -3.5t6 -12.5l-212 -424v-265q0 -9 -14 -12t-54 -3h-11q-41 0 -53.5 3zM148 822q-21 20 -21 49
q0 30 21 50.5t52 20.5q32 0 52.5 -20.5t20.5 -50.5q0 -29 -20.5 -49t-52.5 -20q-31 0 -52 20zM365 822q-20 20 -20 49q0 30 20 50.5t51 20.5q33 0 54 -20.5t21 -50.5q0 -29 -21 -49t-54 -20q-31 0 -51 20z" />
    <glyph glyph-name="Ygrave" unicode="&#x1ef2;" horiz-adv-x="591" 
d="M234.5 3q-12.5 3 -12.5 12v265l-210 423q-5 10 7 13.5t56 3.5h23q40 0 54.5 -3.5t19.5 -12.5l72 -150q42 -88 61 -146q30 83 59 146l70 151q4 9 15.5 12t50.5 3h22q40 0 51 -3.5t6 -12.5l-212 -424v-265q0 -9 -14 -12t-54 -3h-11q-41 0 -53.5 3zM307 790.5
q-9 2.5 -14 8.5l-130 163q-3 5 -3 7q0 9 32 9h48q27 0 36.5 -2.5t13.5 -9.5l106 -163q2 -3 2 -7q0 -8 -26 -8h-38q-18 0 -27 2.5z" />
    <glyph glyph-name="Z" unicode="Z" horiz-adv-x="575" 
d="M49 2.5q-8 2.5 -8 12.5v52q0 18 5 33.5t17 35.5l291 468h-281q-10 0 -13.5 9.5t-3.5 45.5v8q0 27 1.5 37.5t4.5 13t11 2.5h405q29 0 37 -2.5t8 -12.5v-52q0 -18 -4.5 -34t-16.5 -35l-291 -468h306q8 0 11 -2.5t4.5 -13t1.5 -37.5v-8q0 -36 -3.5 -45.5t-13.5 -9.5h-431
q-29 0 -37 2.5z" />
    <glyph glyph-name="Zacute" unicode="&#x179;" horiz-adv-x="575" 
d="M49 2.5q-8 2.5 -8 12.5v52q0 18 5 33.5t17 35.5l291 468h-281q-10 0 -13.5 9.5t-3.5 45.5v8q0 27 1.5 37.5t4.5 13t11 2.5h405q29 0 37 -2.5t8 -12.5v-52q0 -18 -4.5 -34t-16.5 -35l-291 -468h306q8 0 11 -2.5t4.5 -13t1.5 -37.5v-8q0 -36 -3.5 -45.5t-13.5 -9.5h-431
q-29 0 -37 2.5zM207 791q-6 3 -1 12l106 163q4 7 13.5 9.5t36.5 2.5h48q32 0 32 -9q0 -2 -3 -7l-130 -163q-5 -6 -14 -8.5t-27 -2.5h-38q-17 0 -23 3z" />
    <glyph glyph-name="Zcaron" unicode="&#x17d;" horiz-adv-x="575" 
d="M49 2.5q-8 2.5 -8 12.5v52q0 18 5 33.5t17 35.5l291 468h-281q-10 0 -13.5 9.5t-3.5 45.5v8q0 27 1.5 37.5t4.5 13t11 2.5h405q29 0 37 -2.5t8 -12.5v-52q0 -18 -4.5 -34t-16.5 -35l-291 -468h306q8 0 11 -2.5t4.5 -13t1.5 -37.5v-8q0 -36 -3.5 -45.5t-13.5 -9.5h-431
q-29 0 -37 2.5zM245.5 793q-12.5 3 -21.5 13l-91 97q-5 5 -5 10q0 8 17 25l10 10q9 9 15.5 14.5t11.5 5.5q3 0 10 -5l101 -88l101 88q7 5 10 5q5 0 11.5 -5.5t15.5 -14.5l10 -10q17 -17 17 -25q0 -5 -5 -10l-91 -97q-9 -10 -21.5 -13t-40.5 -3h-14q-28 0 -40.5 3z" />
    <glyph glyph-name="Zdotaccent" unicode="&#x17b;" horiz-adv-x="575" 
d="M49 2.5q-8 2.5 -8 12.5v52q0 18 5 33.5t17 35.5l291 468h-281q-10 0 -13.5 9.5t-3.5 45.5v8q0 27 1.5 37.5t4.5 13t11 2.5h405q29 0 37 -2.5t8 -12.5v-52q0 -18 -4.5 -34t-16.5 -35l-291 -468h306q8 0 11 -2.5t4.5 -13t1.5 -37.5v-8q0 -36 -3.5 -45.5t-13.5 -9.5h-431
q-29 0 -37 2.5zM242 828.5q-22 21.5 -22 51.5t22 51t52 21t51 -21t21 -51t-21 -51.5t-51 -21.5t-52 21.5z" />
    <glyph glyph-name="Iacute_J.loclNLD" horiz-adv-x="884" 
d="M58.5 8.5q-2.5 8.5 -2.5 40.5v5q0 32 2.5 40.5t9.5 8.5h65v514h-65q-7 0 -9.5 8.5t-2.5 40.5v5q0 32 2.5 40.5t9.5 8.5h275q7 0 9.5 -8.5t2.5 -40.5v-5q0 -32 -2.5 -40.5t-9.5 -8.5h-65v-514h65q7 0 9.5 -8.5t2.5 -40.5v-5q0 -32 -2.5 -40.5t-9.5 -8.5h-275
q-7 0 -9.5 8.5zM120 791q-6 3 -1 12l106 163q4 7 13.5 9.5t36.5 2.5h48q32 0 32 -9q0 -2 -3 -7l-130 -163q-5 -6 -14 -8.5t-27 -2.5h-38q-17 0 -23 3zM515 -2.5q-38 7.5 -65 19.5q-9 5 -9 16q0 13 7 35l6 20q6 22 11.5 31t13.5 9l8 -2q47 -15 84 -15q50 0 71 25
q15 17 20.5 41.5t5.5 65.5v462q0 9 13 12t53 3h11q39 0 53.5 -3.5t14.5 -11.5v-464q0 -68 -13.5 -114t-41.5 -76q-55 -61 -168 -61q-37 0 -75 7.5zM654 791q-6 3 -1 12l106 163q4 7 13.5 9.5t36.5 2.5h48q32 0 32 -9q0 -2 -3 -7l-130 -163q-5 -6 -14 -8.5t-27 -2.5h-38
q-17 0 -23 3z" />
    <glyph glyph-name="Cacute.loclPLK" horiz-adv-x="586" 
d="M176.5 33.5q-68.5 43.5 -104.5 125.5t-36 194t38 197.5t109 132.5t168 47q113 0 192 -60q12 -9 12 -17q0 -9 -15 -36l-13 -23q-12 -20 -17 -27t-10 -7q-3 0 -8 3q-36 24 -65 34.5t-65 10.5q-84 0 -130.5 -64.5t-46.5 -186.5q0 -118 44.5 -181t133.5 -63q70 0 135 35
q6 3 10 3q6 0 10.5 -6.5t13.5 -25.5l11 -24q12 -25 12 -34q0 -8 -12 -16q-37 -23 -93.5 -39t-108.5 -16q-96 0 -164.5 43.5zM283.5 791q-6.5 3 -4.5 12l48 163q2 8 10.5 10t35.5 2h46q24 0 31.5 -3.5t3.5 -12.5l-73 -163q-3 -6 -10.5 -8.5t-26.5 -2.5h-36q-18 0 -24.5 3z
" />
    <glyph glyph-name="Nacute.loclPLK" horiz-adv-x="706" 
d="M85 2.5q-12 2.5 -12 12.5v690q0 7 3 10t17 4t37 1h5q39 0 51.5 -3.5t18.5 -12.5l180 -274q60 -92 81 -128t37 -74q-6 72 -6 231v246q0 9 12 12t52 3h7q38 0 51.5 -3.5t13.5 -11.5v-690q0 -9 -10 -12t-48 -3h-6q-36 0 -49 3t-19 13l-180 274q-59 90 -83.5 131.5
t-35.5 71.5q7 -66 7 -232v-246q0 -9 -12.5 -12t-51.5 -3h-6q-42 0 -54 2.5zM290.5 791q-6.5 3 -4.5 12l48 163q2 8 10.5 10t35.5 2h46q24 0 31.5 -3.5t3.5 -12.5l-73 -163q-3 -6 -10.5 -8.5t-26.5 -2.5h-36q-18 0 -24.5 3z" />
    <glyph glyph-name="Oacute.loclPLK" horiz-adv-x="697" 
d="M117 78.5q-81 88.5 -81 271.5q0 177 83 278.5t240 101.5q140 0 221 -88.5t81 -271.5q0 -177 -83 -278.5t-240 -101.5q-140 0 -221 88.5zM468.5 176.5q43.5 65.5 43.5 189.5q0 126 -40 184.5t-116 58.5q-84 0 -127.5 -65.5t-43.5 -189.5q0 -126 40 -184.5t116 -58.5
q84 0 127.5 65.5zM295.5 791q-6.5 3 -4.5 12l48 163q2 8 10.5 10t35.5 2h46q24 0 31.5 -3.5t3.5 -12.5l-73 -163q-3 -6 -10.5 -8.5t-26.5 -2.5h-36q-18 0 -24.5 3z" />
    <glyph glyph-name="Sacute.loclPLK" horiz-adv-x="552" 
d="M140.5 9q-57.5 19 -94.5 49q-10 8 -10 18q0 12 13 37l12 24q10 18 16.5 26t13.5 8q4 0 9 -3q80 -57 152 -57q50 0 79 22t29 63q0 29 -15.5 49t-36 32.5t-65.5 34.5q-55 27 -91 51t-60.5 62.5t-24.5 93.5q0 65 31 113t84 73t116 25q50 0 97.5 -14t83.5 -39q10 -7 10 -17
q0 -9 -14 -39l-10 -20q-10 -20 -15.5 -27.5t-11.5 -7.5q-1 0 -9 4q-36 22 -63.5 32t-60.5 10q-42 0 -68 -22.5t-26 -58.5q0 -24 15 -42t35 -30t62 -33q58 -30 94 -54.5t61.5 -65t25.5 -99.5q0 -98 -63 -157.5t-180 -59.5q-63 0 -120.5 19zM235.5 791q-6.5 3 -4.5 12l48 163
q2 8 10.5 10t35.5 2h46q24 0 31.5 -3.5t3.5 -12.5l-73 -163q-3 -6 -10.5 -8.5t-26.5 -2.5h-36q-18 0 -24.5 3z" />
    <glyph glyph-name="Zacute.loclPLK" horiz-adv-x="575" 
d="M49 2.5q-8 2.5 -8 12.5v52q0 18 5 33.5t17 35.5l291 468h-281q-10 0 -13.5 9.5t-3.5 45.5v8q0 27 1.5 37.5t4.5 13t11 2.5h405q29 0 37 -2.5t8 -12.5v-52q0 -18 -4.5 -34t-16.5 -35l-291 -468h306q8 0 11 -2.5t4.5 -13t1.5 -37.5v-8q0 -36 -3.5 -45.5t-13.5 -9.5h-431
q-29 0 -37 2.5zM229.5 791q-6.5 3 -4.5 12l48 163q2 8 10.5 10t35.5 2h46q24 0 31.5 -3.5t3.5 -12.5l-73 -163q-3 -6 -10.5 -8.5t-26.5 -2.5h-36q-18 0 -24.5 3z" />
    <glyph glyph-name="a" unicode="a" horiz-adv-x="577" 
d="M94 60.5q-57 70.5 -57 193.5q0 88 29.5 152.5t80 98t111.5 33.5q39 0 73.5 -16.5t52.5 -42.5l4 36q1 8 11 10.5t48 2.5h6q37 0 47.5 -2.5t10.5 -11.5q0 -36 -1 -64l-1 -152v-61q0 -124 7 -219q1 -8 -2 -11.5t-15 -5t-40 -1.5h-5q-36 0 -47 2.5t-14 10.5q-2 4 -7 34
q-22 -25 -60.5 -41t-76.5 -16q-98 0 -155 70.5zM327 113q20 8 31 22q14 18 14 56v180q-14 22 -37.5 35t-49.5 13q-107 0 -107 -161q0 -73 24 -113t81 -40q24 0 44 8z" />
    <glyph glyph-name="aacute" unicode="&#xe1;" horiz-adv-x="577" 
d="M94 60.5q-57 70.5 -57 193.5q0 88 29.5 152.5t80 98t111.5 33.5q39 0 73.5 -16.5t52.5 -42.5l4 36q1 8 11 10.5t48 2.5h6q37 0 47.5 -2.5t10.5 -11.5q0 -36 -1 -64l-1 -152v-61q0 -124 7 -219q1 -8 -2 -11.5t-15 -5t-40 -1.5h-5q-36 0 -47 2.5t-14 10.5q-2 4 -7 34
q-22 -25 -60.5 -41t-76.5 -16q-98 0 -155 70.5zM327 113q20 8 31 22q14 18 14 56v180q-14 22 -37.5 35t-49.5 13q-107 0 -107 -161q0 -73 24 -113t81 -40q24 0 44 8zM183 599q-6 3 -1 12l106 163q4 7 13.5 9.5t36.5 2.5h48q32 0 32 -9q0 -2 -3 -7l-130 -163q-5 -6 -14 -8.5
t-27 -2.5h-38q-17 0 -23 3z" />
    <glyph glyph-name="abreve" unicode="&#x103;" horiz-adv-x="577" 
d="M94 60.5q-57 70.5 -57 193.5q0 88 29.5 152.5t80 98t111.5 33.5q39 0 73.5 -16.5t52.5 -42.5l4 36q1 8 11 10.5t48 2.5h6q37 0 47.5 -2.5t10.5 -11.5q0 -36 -1 -64l-1 -152v-61q0 -124 7 -219q1 -8 -2 -11.5t-15 -5t-40 -1.5h-5q-36 0 -47 2.5t-14 10.5q-2 4 -7 34
q-22 -25 -60.5 -41t-76.5 -16q-98 0 -155 70.5zM327 113q20 8 31 22q14 18 14 56v180q-14 22 -37.5 35t-49.5 13q-107 0 -107 -161q0 -73 24 -113t81 -40q24 0 44 8zM168.5 644q-40.5 37 -44.5 104q0 9 8 11.5t35 2.5h15q22 0 29 -2.5t8 -9.5q10 -57 60 -57t60 57q1 7 8 9.5
t29 2.5h15q27 0 35 -2.5t8 -11.5q-4 -67 -44.5 -104t-110.5 -37t-110.5 37z" />
    <glyph glyph-name="uni01CE" unicode="&#x1ce;" horiz-adv-x="577" 
d="M94 60.5q-57 70.5 -57 193.5q0 88 29.5 152.5t80 98t111.5 33.5q39 0 73.5 -16.5t52.5 -42.5l4 36q1 8 11 10.5t48 2.5h6q37 0 47.5 -2.5t10.5 -11.5q0 -36 -1 -64l-1 -152v-61q0 -124 7 -219q1 -8 -2 -11.5t-15 -5t-40 -1.5h-5q-36 0 -47 2.5t-14 10.5q-2 4 -7 34
q-22 -25 -60.5 -41t-76.5 -16q-98 0 -155 70.5zM327 113q20 8 31 22q14 18 14 56v180q-14 22 -37.5 35t-49.5 13q-107 0 -107 -161q0 -73 24 -113t81 -40q24 0 44 8zM231.5 601q-12.5 3 -21.5 13l-91 97q-5 5 -5 10q0 8 17 25l10 10q9 9 15.5 14.5t11.5 5.5q3 0 10 -5
l101 -88l101 88q7 5 10 5q5 0 11.5 -5.5t15.5 -14.5l10 -10q17 -17 17 -25q0 -5 -5 -10l-91 -97q-9 -10 -21.5 -13t-40.5 -3h-14q-28 0 -40.5 3z" />
    <glyph glyph-name="acircumflex" unicode="&#xe2;" horiz-adv-x="577" 
d="M94 60.5q-57 70.5 -57 193.5q0 88 29.5 152.5t80 98t111.5 33.5q39 0 73.5 -16.5t52.5 -42.5l4 36q1 8 11 10.5t48 2.5h6q37 0 47.5 -2.5t10.5 -11.5q0 -36 -1 -64l-1 -152v-61q0 -124 7 -219q1 -8 -2 -11.5t-15 -5t-40 -1.5h-5q-36 0 -47 2.5t-14 10.5q-2 4 -7 34
q-22 -25 -60.5 -41t-76.5 -16q-98 0 -155 70.5zM327 113q20 8 31 22q14 18 14 56v180q-14 22 -37.5 35t-49.5 13q-107 0 -107 -161q0 -73 24 -113t81 -40q24 0 44 8zM168 598q-5 0 -11.5 5.5t-15.5 14.5l-10 10q-17 17 -17 25q0 5 5 10l91 97q9 10 21.5 13t40.5 3h14
q28 0 40.5 -3t21.5 -13l91 -97q5 -5 5 -10q0 -8 -17 -25l-10 -10q-9 -9 -15.5 -14.5t-11.5 -5.5q-3 0 -10 5l-101 88l-101 -88q-7 -5 -10 -5z" />
    <glyph glyph-name="adieresis" unicode="&#xe4;" horiz-adv-x="577" 
d="M94 60.5q-57 70.5 -57 193.5q0 88 29.5 152.5t80 98t111.5 33.5q39 0 73.5 -16.5t52.5 -42.5l4 36q1 8 11 10.5t48 2.5h6q37 0 47.5 -2.5t10.5 -11.5q0 -36 -1 -64l-1 -152v-61q0 -124 7 -219q1 -8 -2 -11.5t-15 -5t-40 -1.5h-5q-36 0 -47 2.5t-14 10.5q-2 4 -7 34
q-22 -25 -60.5 -41t-76.5 -16q-98 0 -155 70.5zM327 113q20 8 31 22q14 18 14 56v180q-14 22 -37.5 35t-49.5 13q-107 0 -107 -161q0 -73 24 -113t81 -40q24 0 44 8zM118 630q-21 20 -21 49q0 30 21 50.5t52 20.5q32 0 52.5 -20.5t20.5 -50.5q0 -29 -20.5 -49t-52.5 -20
q-31 0 -52 20zM335 630q-20 20 -20 49q0 30 20 50.5t51 20.5q33 0 54 -20.5t21 -50.5q0 -29 -21 -49t-54 -20q-31 0 -51 20z" />
    <glyph glyph-name="agrave" unicode="&#xe0;" horiz-adv-x="577" 
d="M94 60.5q-57 70.5 -57 193.5q0 88 29.5 152.5t80 98t111.5 33.5q39 0 73.5 -16.5t52.5 -42.5l4 36q1 8 11 10.5t48 2.5h6q37 0 47.5 -2.5t10.5 -11.5q0 -36 -1 -64l-1 -152v-61q0 -124 7 -219q1 -8 -2 -11.5t-15 -5t-40 -1.5h-5q-36 0 -47 2.5t-14 10.5q-2 4 -7 34
q-22 -25 -60.5 -41t-76.5 -16q-98 0 -155 70.5zM327 113q20 8 31 22q14 18 14 56v180q-14 22 -37.5 35t-49.5 13q-107 0 -107 -161q0 -73 24 -113t81 -40q24 0 44 8zM287 598.5q-9 2.5 -14 8.5l-130 163q-3 5 -3 7q0 9 32 9h48q27 0 36.5 -2.5t13.5 -9.5l106 -163q2 -3 2 -7
q0 -8 -26 -8h-38q-18 0 -27 2.5z" />
    <glyph glyph-name="amacron" unicode="&#x101;" horiz-adv-x="577" 
d="M94 60.5q-57 70.5 -57 193.5q0 88 29.5 152.5t80 98t111.5 33.5q39 0 73.5 -16.5t52.5 -42.5l4 36q1 8 11 10.5t48 2.5h6q37 0 47.5 -2.5t10.5 -11.5q0 -36 -1 -64l-1 -152v-61q0 -124 7 -219q1 -8 -2 -11.5t-15 -5t-40 -1.5h-5q-36 0 -47 2.5t-14 10.5q-2 4 -7 34
q-22 -25 -60.5 -41t-76.5 -16q-98 0 -155 70.5zM327 113q20 8 31 22q14 18 14 56v180q-14 22 -37.5 35t-49.5 13q-107 0 -107 -161q0 -73 24 -113t81 -40q24 0 44 8zM133.5 647.5q-2.5 8.5 -2.5 32.5v14q0 24 2.5 32.5t10.5 8.5h270q8 0 10.5 -8.5t2.5 -32.5v-14
q0 -24 -2.5 -32.5t-10.5 -8.5h-270q-8 0 -10.5 8.5z" />
    <glyph glyph-name="aogonek" unicode="&#x105;" horiz-adv-x="577" 
d="M324.5 -208q-34.5 32 -34.5 85q0 42 24.5 75.5t76.5 64.5q-3 11 -5 30q-22 -25 -60.5 -41t-76.5 -16q-98 0 -155 70.5t-57 193.5q0 88 29.5 152.5t80 98t111.5 33.5q39 0 73.5 -16.5t52.5 -42.5l4 36q1 8 11 10.5t48 2.5h6q37 0 47.5 -2.5t10.5 -11.5q0 -36 -1 -64
l-1 -152v-61q0 -139 7 -219v-4q0 -4 -2 -6.5t-9 -4.5q-48 -11 -81 -40.5t-33 -68.5q0 -22 11.5 -33.5t30.5 -11.5q16 0 40 8q8 2 13 -2t11 -23l4 -12q6 -18 6 -26t-8 -13q-17 -9 -40 -15t-43 -6q-57 0 -91.5 32zM327 113q20 8 31 22q14 18 14 56v180q-14 22 -37.5 35
t-49.5 13q-107 0 -107 -161q0 -73 24 -113t81 -40q24 0 44 8z" />
    <glyph glyph-name="aring" unicode="&#xe5;" horiz-adv-x="577" 
d="M94 60.5q-57 70.5 -57 193.5q0 88 29.5 152.5t80 98t111.5 33.5q39 0 73.5 -16.5t52.5 -42.5l4 36q1 8 11 10.5t48 2.5h6q37 0 47.5 -2.5t10.5 -11.5q0 -36 -1 -64l-1 -152v-61q0 -124 7 -219q1 -8 -2 -11.5t-15 -5t-40 -1.5h-5q-36 0 -47 2.5t-14 10.5q-2 4 -7 34
q-22 -25 -60.5 -41t-76.5 -16q-98 0 -155 70.5zM327 113q20 8 31 22q14 18 14 56v180q-14 22 -37.5 35t-49.5 13q-107 0 -107 -161q0 -73 24 -113t81 -40q24 0 44 8zM198.5 623q-33.5 32 -33.5 78q0 45 33.5 77t80.5 32t80 -31.5t33 -77.5t-33 -78t-80 -32t-80.5 32z
M306 672.5q11 11.5 11 28.5q0 16 -11 27.5t-27 11.5q-17 0 -28.5 -11t-11.5 -28t11.5 -28.5t28.5 -11.5q16 0 27 11.5z" />
    <glyph glyph-name="atilde" unicode="&#xe3;" horiz-adv-x="577" 
d="M94 60.5q-57 70.5 -57 193.5q0 88 29.5 152.5t80 98t111.5 33.5q39 0 73.5 -16.5t52.5 -42.5l4 36q1 8 11 10.5t48 2.5h6q37 0 47.5 -2.5t10.5 -11.5q0 -36 -1 -64l-1 -152v-61q0 -124 7 -219q1 -8 -2 -11.5t-15 -5t-40 -1.5h-5q-36 0 -47 2.5t-14 10.5q-2 4 -7 34
q-22 -25 -60.5 -41t-76.5 -16q-98 0 -155 70.5zM327 113q20 8 31 22q14 18 14 56v180q-14 22 -37.5 35t-49.5 13q-107 0 -107 -161q0 -73 24 -113t81 -40q24 0 44 8zM302.5 625.5q-15.5 5.5 -37.5 16.5q-12 6 -23.5 10.5t-20.5 4.5q-27 0 -59 -32q-4 -4 -12 -1t-24 19l-4 4
q-20 20 -20 28q0 3 4 9q54 67 115 67q19 0 34.5 -5.5t37.5 -16.5q11 -6 22.5 -10.5t20.5 -4.5q27 0 59 32q4 4 12 1t24 -19l4 -4q20 -20 20 -28q0 -3 -4 -9q-54 -67 -115 -67q-18 0 -33.5 5.5z" />
    <glyph glyph-name="ae" unicode="&#xe6;" horiz-adv-x="867" 
d="M146.5 2.5q-36.5 12.5 -62.5 36.5q-50 47 -50 122q0 83 58 127t156 44q49 0 99 -16v28q0 40 -24 61.5t-71 21.5q-31 0 -68 -9t-69 -24q-6 -2 -8 -2q-6 0 -12 7.5t-14 26.5l-6 14q-11 27 -11 34q0 6 6 10q39 25 93.5 39.5t102.5 14.5q113 0 167 -57q65 57 160 57
q111 0 171 -74t60 -195q0 -30 -2 -41t-8 -11h-324q8 -54 41.5 -82t90.5 -28q65 0 141 32q8 4 13.5 -1.5t13.5 -27.5l9 -25q9 -24 9 -33q0 -5 -3 -8t-7 -6q-38 -22 -90.5 -35t-103.5 -13q-60 0 -108 18.5t-81 53.5q-36 -34 -86 -53t-107 -19q-39 0 -75.5 12.5zM687 315
q-5 49 -29 78.5t-64 29.5q-41 0 -67.5 -28.5t-36.5 -79.5h197zM313.5 115q30.5 12 50.5 32q-12 33 -15 71q-44 14 -85 14q-43 0 -68 -16.5t-25 -50.5q0 -31 24 -46.5t55 -15.5q33 0 63.5 12z" />
    <glyph glyph-name="aeacute" unicode="&#x1fd;" horiz-adv-x="867" 
d="M146.5 2.5q-36.5 12.5 -62.5 36.5q-50 47 -50 122q0 83 58 127t156 44q49 0 99 -16v28q0 40 -24 61.5t-71 21.5q-31 0 -68 -9t-69 -24q-6 -2 -8 -2q-6 0 -12 7.5t-14 26.5l-6 14q-11 27 -11 34q0 6 6 10q39 25 93.5 39.5t102.5 14.5q113 0 167 -57q65 57 160 57
q111 0 171 -74t60 -195q0 -30 -2 -41t-8 -11h-324q8 -54 41.5 -82t90.5 -28q65 0 141 32q8 4 13.5 -1.5t13.5 -27.5l9 -25q9 -24 9 -33q0 -5 -3 -8t-7 -6q-38 -22 -90.5 -35t-103.5 -13q-60 0 -108 18.5t-81 53.5q-36 -34 -86 -53t-107 -19q-39 0 -75.5 12.5zM687 315
q-5 49 -29 78.5t-64 29.5q-41 0 -67.5 -28.5t-36.5 -79.5h197zM313.5 115q30.5 12 50.5 32q-12 33 -15 71q-44 14 -85 14q-43 0 -68 -16.5t-25 -50.5q0 -31 24 -46.5t55 -15.5q33 0 63.5 12zM358 599q-6 3 -1 12l106 163q4 7 13.5 9.5t36.5 2.5h48q32 0 32 -9q0 -2 -3 -7
l-130 -163q-5 -6 -14 -8.5t-27 -2.5h-38q-17 0 -23 3z" />
    <glyph glyph-name="b" unicode="b" horiz-adv-x="578" 
d="M161.5 2q-54.5 12 -83.5 29q-8 5 -10 10t-2 16v688q0 6 3.5 9t17.5 4.5t46 1.5h5q42 0 53.5 -3t11.5 -12v-255q51 48 131 48q95 0 151 -71t56 -195q0 -144 -74 -218q-32 -32 -83.5 -48t-116.5 -16q-51 0 -105.5 12zM366 142q34 42 34 130q0 82 -33 120q-25 29 -73 29
q-22 0 -44 -6.5t-33 -18.5q-8 -9 -11 -21.5t-3 -32.5v-227q27 -10 67 -10q66 0 96 37z" />
    <glyph glyph-name="c" unicode="c" horiz-adv-x="499" 
d="M192.5 5.5q-44.5 15.5 -76.5 44.5q-38 35 -58.5 89t-20.5 121q0 64 19 117t54 90q69 71 188 71q48 0 92 -15.5t78 -43.5q7 -6 7 -12q0 -9 -15 -38l-10 -19q-16 -33 -28 -33q-3 0 -8 3q-29 20 -54.5 29.5t-56.5 9.5q-55 0 -90 -38t-35 -114t33 -117t98 -41q29 0 54.5 7
t56.5 22q9 4 14 -2t18 -35l6 -14q12 -28 12 -36q0 -6 -7 -11q-33 -22 -78 -36t-94 -14q-54 0 -98.5 15.5z" />
    <glyph glyph-name="cacute" unicode="&#x107;" horiz-adv-x="499" 
d="M192.5 5.5q-44.5 15.5 -76.5 44.5q-38 35 -58.5 89t-20.5 121q0 64 19 117t54 90q69 71 188 71q48 0 92 -15.5t78 -43.5q7 -6 7 -12q0 -9 -15 -38l-10 -19q-16 -33 -28 -33q-3 0 -8 3q-29 20 -54.5 29.5t-56.5 9.5q-55 0 -90 -38t-35 -114t33 -117t98 -41q29 0 54.5 7
t56.5 22q9 4 14 -2t18 -35l6 -14q12 -28 12 -36q0 -6 -7 -11q-33 -22 -78 -36t-94 -14q-54 0 -98.5 15.5zM194 599q-6 3 -1 12l106 163q4 7 13.5 9.5t36.5 2.5h48q32 0 32 -9q0 -2 -3 -7l-130 -163q-5 -6 -14 -8.5t-27 -2.5h-38q-17 0 -23 3z" />
    <glyph glyph-name="ccaron" unicode="&#x10d;" horiz-adv-x="499" 
d="M192.5 5.5q-44.5 15.5 -76.5 44.5q-38 35 -58.5 89t-20.5 121q0 64 19 117t54 90q69 71 188 71q48 0 92 -15.5t78 -43.5q7 -6 7 -12q0 -9 -15 -38l-10 -19q-16 -33 -28 -33q-3 0 -8 3q-29 20 -54.5 29.5t-56.5 9.5q-55 0 -90 -38t-35 -114t33 -117t98 -41q29 0 54.5 7
t56.5 22q9 4 14 -2t18 -35l6 -14q12 -28 12 -36q0 -6 -7 -11q-33 -22 -78 -36t-94 -14q-54 0 -98.5 15.5zM242.5 601q-12.5 3 -21.5 13l-91 97q-5 5 -5 10q0 8 17 25l10 10q9 9 15.5 14.5t11.5 5.5q3 0 10 -5l101 -88l101 88q7 5 10 5q5 0 11.5 -5.5t15.5 -14.5l10 -10
q17 -17 17 -25q0 -5 -5 -10l-91 -97q-9 -10 -21.5 -13t-40.5 -3h-14q-28 0 -40.5 3z" />
    <glyph glyph-name="ccedilla" unicode="&#xe7;" horiz-adv-x="499" 
d="M458 87q12 -28 12 -36q0 -6 -7 -11q-32 -21 -73.5 -35t-87.5 -15l-2 -27q48 -2 77 -25t29 -69q0 -45 -32.5 -76.5t-94.5 -31.5q-47 0 -78 13q-4 2 -5.5 4t-1.5 7q0 9 4 24l3 11q5 18 9 23.5t13 2.5q21 -6 46 -6q20 0 29.5 8t9.5 21q0 30 -45 30q-31 0 -60 -4l15 103
q-61 14 -102 52q-38 35 -58.5 89t-20.5 121q0 64 19 117t54 90q69 71 188 71q48 0 92 -15.5t78 -43.5q7 -6 7 -12q0 -9 -15 -38l-10 -19q-16 -33 -28 -33q-3 0 -8 3q-29 20 -54.5 29.5t-56.5 9.5q-55 0 -90 -38t-35 -114t33 -117t98 -41q29 0 54.5 7t56.5 22q9 4 14 -2
t18 -35z" />
    <glyph glyph-name="ccircumflex" unicode="&#x109;" horiz-adv-x="499" 
d="M192.5 5.5q-44.5 15.5 -76.5 44.5q-38 35 -58.5 89t-20.5 121q0 64 19 117t54 90q69 71 188 71q48 0 92 -15.5t78 -43.5q7 -6 7 -12q0 -9 -15 -38l-10 -19q-16 -33 -28 -33q-3 0 -8 3q-29 20 -54.5 29.5t-56.5 9.5q-55 0 -90 -38t-35 -114t33 -117t98 -41q29 0 54.5 7
t56.5 22q9 4 14 -2t18 -35l6 -14q12 -28 12 -36q0 -6 -7 -11q-33 -22 -78 -36t-94 -14q-54 0 -98.5 15.5zM179 598q-5 0 -11.5 5.5t-15.5 14.5l-10 10q-17 17 -17 25q0 5 5 10l91 97q9 10 21.5 13t40.5 3h14q28 0 40.5 -3t21.5 -13l91 -97q5 -5 5 -10q0 -8 -17 -25l-10 -10
q-9 -9 -15.5 -14.5t-11.5 -5.5q-3 0 -10 5l-101 88l-101 -88q-7 -5 -10 -5z" />
    <glyph glyph-name="cdotaccent" unicode="&#x10b;" horiz-adv-x="499" 
d="M192.5 5.5q-44.5 15.5 -76.5 44.5q-38 35 -58.5 89t-20.5 121q0 64 19 117t54 90q69 71 188 71q48 0 92 -15.5t78 -43.5q7 -6 7 -12q0 -9 -15 -38l-10 -19q-16 -33 -28 -33q-3 0 -8 3q-29 20 -54.5 29.5t-56.5 9.5q-55 0 -90 -38t-35 -114t33 -117t98 -41q29 0 54.5 7
t56.5 22q9 4 14 -2t18 -35l6 -14q12 -28 12 -36q0 -6 -7 -11q-33 -22 -78 -36t-94 -14q-54 0 -98.5 15.5zM239 640.5q-22 21.5 -22 51.5t22 51t52 21t51 -21t21 -51t-21 -51.5t-51 -21.5t-52 21.5z" />
    <glyph glyph-name="d" unicode="d" horiz-adv-x="591" 
d="M93.5 61.5q-56.5 71.5 -56.5 194.5q0 87 27.5 150.5t77.5 97.5t115 34q68 0 119 -45v252q0 6 3.5 9t17.5 4.5t46 1.5h5q42 0 53.5 -3t11.5 -12v-611q0 -16 6.5 -22t22.5 -6q9 0 11 -7t2 -34v-11q0 -26 -2 -35t-7 -11q-31 -12 -72 -12q-32 0 -54.5 13.5t-32.5 36.5
q-25 -27 -61.5 -41.5t-77.5 -14.5q-98 0 -154.5 71.5zM330 114q21 7 32 19q8 9 11 21.5t3 32.5v187q-38 46 -90 46q-108 0 -108 -164q0 -81 34 -120q25 -29 75 -29q22 0 43 7z" />
    <glyph glyph-name="eth" unicode="&#xf0;" horiz-adv-x="584" 
d="M148.5 22.5q-53.5 32.5 -82.5 91t-29 136.5q0 79 31 136.5t82.5 88t112.5 30.5q55 0 98 -24q-20 44 -46 79l-105 -28q-6 -2 -9.5 3.5t-9.5 24.5l-4 14q-5 18 -5 22q0 6 7 9l69 19q-29 27 -71 51q-6 3 -6 10q0 11 18 37l13 19q17 25 29 25q5 0 11 -3q85 -42 143 -102
l117 32q6 2 9.5 -3t9.5 -25l4 -14q4 -13 4 -22q0 -7 -6 -9l-84 -23q89 -125 89 -287q0 -146 -67.5 -233t-196.5 -87q-72 0 -125.5 32.5zM368 154q27 50 27 163q0 22 -3 44q-48 35 -100 35q-55 0 -85 -38t-30 -111q0 -70 27.5 -106.5t75.5 -36.5q61 0 88 50z" />
    <glyph glyph-name="dcaron" unicode="&#x10f;" horiz-adv-x="680" 
d="M93.5 61.5q-56.5 71.5 -56.5 194.5q0 87 27.5 150.5t77.5 97.5t115 34q68 0 119 -45v252q0 6 3.5 9t17.5 4.5t46 1.5h5q42 0 53.5 -3t11.5 -12v-611q0 -16 6.5 -22t22.5 -6q9 0 11 -7t2 -34v-11q0 -26 -2 -35t-7 -11q-31 -12 -72 -12q-32 0 -54.5 13.5t-32.5 36.5
q-25 -27 -61.5 -41.5t-77.5 -14.5q-98 0 -154.5 71.5zM330 114q21 7 32 19q8 9 11 21.5t3 32.5v187q-38 46 -90 46q-108 0 -108 -164q0 -81 34 -120q25 -29 75 -29q22 0 43 7zM557 490q-6 4 -6 10q0 5 4 9q41 51 41 92q0 9 -3.5 16t-11.5 17q-9 11 -13.5 20t-4.5 22
q0 22 17 38t44 16q29 0 47.5 -21.5t18.5 -54.5q0 -46 -25 -92t-71 -86q-7 -5 -10 -5q-4 0 -11 5z" />
    <glyph glyph-name="dcroat" unicode="&#x111;" horiz-adv-x="591" 
d="M93.5 61.5q-56.5 71.5 -56.5 194.5q0 87 27.5 150.5t77.5 97.5t115 34q68 0 119 -45v104h-130q-8 0 -11 9t-3 40t3 40t11 9h130v50q0 6 3.5 9t17.5 4.5t46 1.5h5q42 0 53.5 -3t11.5 -12v-50h60q8 0 11 -9t3 -40t-3 -40t-11 -9h-60v-463q0 -16 6.5 -22t22.5 -6q9 0 11 -7
t2 -34v-11q0 -26 -2 -35t-7 -11q-31 -12 -72 -12q-32 0 -54.5 13.5t-32.5 36.5q-25 -27 -61.5 -41.5t-77.5 -14.5q-98 0 -154.5 71.5zM330 114q21 7 32 19q8 9 11 21.5t3 32.5v187q-38 46 -90 46q-108 0 -108 -164q0 -81 34 -120q25 -29 75 -29q22 0 43 7z" />
    <glyph glyph-name="e" unicode="e" horiz-adv-x="557" 
d="M106 61q-69 71 -69 197q0 82 30 145.5t85.5 99t130.5 35.5q111 0 171 -74t60 -195q0 -30 -2 -41t-8 -11h-324q8 -54 41.5 -82t90.5 -28q65 0 141 32q8 4 13.5 -1.5t13.5 -27.5l9 -25q9 -24 9 -33q0 -5 -3 -8t-7 -6q-38 -22 -90.5 -35t-103.5 -13q-119 0 -188 71zM377 315
q-5 49 -29 78.5t-64 29.5q-41 0 -67.5 -28.5t-36.5 -79.5h197z" />
    <glyph glyph-name="eacute" unicode="&#xe9;" horiz-adv-x="557" 
d="M106 61q-69 71 -69 197q0 82 30 145.5t85.5 99t130.5 35.5q111 0 171 -74t60 -195q0 -30 -2 -41t-8 -11h-324q8 -54 41.5 -82t90.5 -28q65 0 141 32q8 4 13.5 -1.5t13.5 -27.5l9 -25q9 -24 9 -33q0 -5 -3 -8t-7 -6q-38 -22 -90.5 -35t-103.5 -13q-119 0 -188 71zM377 315
q-5 49 -29 78.5t-64 29.5q-41 0 -67.5 -28.5t-36.5 -79.5h197zM188 599q-6 3 -1 12l106 163q4 7 13.5 9.5t36.5 2.5h48q32 0 32 -9q0 -2 -3 -7l-130 -163q-5 -6 -14 -8.5t-27 -2.5h-38q-17 0 -23 3z" />
    <glyph glyph-name="ebreve" unicode="&#x115;" horiz-adv-x="557" 
d="M106 61q-69 71 -69 197q0 82 30 145.5t85.5 99t130.5 35.5q111 0 171 -74t60 -195q0 -30 -2 -41t-8 -11h-324q8 -54 41.5 -82t90.5 -28q65 0 141 32q8 4 13.5 -1.5t13.5 -27.5l9 -25q9 -24 9 -33q0 -5 -3 -8t-7 -6q-38 -22 -90.5 -35t-103.5 -13q-119 0 -188 71zM377 315
q-5 49 -29 78.5t-64 29.5q-41 0 -67.5 -28.5t-36.5 -79.5h197zM173.5 644q-40.5 37 -44.5 104q0 9 8 11.5t35 2.5h15q22 0 29 -2.5t8 -9.5q10 -57 60 -57t60 57q1 7 8 9.5t29 2.5h15q27 0 35 -2.5t8 -11.5q-4 -67 -44.5 -104t-110.5 -37t-110.5 37z" />
    <glyph glyph-name="ecaron" unicode="&#x11b;" horiz-adv-x="557" 
d="M106 61q-69 71 -69 197q0 82 30 145.5t85.5 99t130.5 35.5q111 0 171 -74t60 -195q0 -30 -2 -41t-8 -11h-324q8 -54 41.5 -82t90.5 -28q65 0 141 32q8 4 13.5 -1.5t13.5 -27.5l9 -25q9 -24 9 -33q0 -5 -3 -8t-7 -6q-38 -22 -90.5 -35t-103.5 -13q-119 0 -188 71zM377 315
q-5 49 -29 78.5t-64 29.5q-41 0 -67.5 -28.5t-36.5 -79.5h197zM236.5 601q-12.5 3 -21.5 13l-91 97q-5 5 -5 10q0 8 17 25l10 10q9 9 15.5 14.5t11.5 5.5q3 0 10 -5l101 -88l101 88q7 5 10 5q5 0 11.5 -5.5t15.5 -14.5l10 -10q17 -17 17 -25q0 -5 -5 -10l-91 -97
q-9 -10 -21.5 -13t-40.5 -3h-14q-28 0 -40.5 3z" />
    <glyph glyph-name="ecircumflex" unicode="&#xea;" horiz-adv-x="557" 
d="M106 61q-69 71 -69 197q0 82 30 145.5t85.5 99t130.5 35.5q111 0 171 -74t60 -195q0 -30 -2 -41t-8 -11h-324q8 -54 41.5 -82t90.5 -28q65 0 141 32q8 4 13.5 -1.5t13.5 -27.5l9 -25q9 -24 9 -33q0 -5 -3 -8t-7 -6q-38 -22 -90.5 -35t-103.5 -13q-119 0 -188 71zM377 315
q-5 49 -29 78.5t-64 29.5q-41 0 -67.5 -28.5t-36.5 -79.5h197zM173 598q-5 0 -11.5 5.5t-15.5 14.5l-10 10q-17 17 -17 25q0 5 5 10l91 97q9 10 21.5 13t40.5 3h14q28 0 40.5 -3t21.5 -13l91 -97q5 -5 5 -10q0 -8 -17 -25l-10 -10q-9 -9 -15.5 -14.5t-11.5 -5.5q-3 0 -10 5
l-101 88l-101 -88q-7 -5 -10 -5z" />
    <glyph glyph-name="edieresis" unicode="&#xeb;" horiz-adv-x="557" 
d="M106 61q-69 71 -69 197q0 82 30 145.5t85.5 99t130.5 35.5q111 0 171 -74t60 -195q0 -30 -2 -41t-8 -11h-324q8 -54 41.5 -82t90.5 -28q65 0 141 32q8 4 13.5 -1.5t13.5 -27.5l9 -25q9 -24 9 -33q0 -5 -3 -8t-7 -6q-38 -22 -90.5 -35t-103.5 -13q-119 0 -188 71zM377 315
q-5 49 -29 78.5t-64 29.5q-41 0 -67.5 -28.5t-36.5 -79.5h197zM123 630q-21 20 -21 49q0 30 21 50.5t52 20.5q32 0 52.5 -20.5t20.5 -50.5q0 -29 -20.5 -49t-52.5 -20q-31 0 -52 20zM340 630q-20 20 -20 49q0 30 20 50.5t51 20.5q33 0 54 -20.5t21 -50.5q0 -29 -21 -49
t-54 -20q-31 0 -51 20z" />
    <glyph glyph-name="edotaccent" unicode="&#x117;" horiz-adv-x="557" 
d="M106 61q-69 71 -69 197q0 82 30 145.5t85.5 99t130.5 35.5q111 0 171 -74t60 -195q0 -30 -2 -41t-8 -11h-324q8 -54 41.5 -82t90.5 -28q65 0 141 32q8 4 13.5 -1.5t13.5 -27.5l9 -25q9 -24 9 -33q0 -5 -3 -8t-7 -6q-38 -22 -90.5 -35t-103.5 -13q-119 0 -188 71zM377 315
q-5 49 -29 78.5t-64 29.5q-41 0 -67.5 -28.5t-36.5 -79.5h197zM233 640.5q-22 21.5 -22 51.5t22 51t52 21t51 -21t21 -51t-21 -51.5t-51 -21.5t-52 21.5z" />
    <glyph glyph-name="egrave" unicode="&#xe8;" horiz-adv-x="557" 
d="M106 61q-69 71 -69 197q0 82 30 145.5t85.5 99t130.5 35.5q111 0 171 -74t60 -195q0 -30 -2 -41t-8 -11h-324q8 -54 41.5 -82t90.5 -28q65 0 141 32q8 4 13.5 -1.5t13.5 -27.5l9 -25q9 -24 9 -33q0 -5 -3 -8t-7 -6q-38 -22 -90.5 -35t-103.5 -13q-119 0 -188 71zM377 315
q-5 49 -29 78.5t-64 29.5q-41 0 -67.5 -28.5t-36.5 -79.5h197zM292 598.5q-9 2.5 -14 8.5l-130 163q-3 5 -3 7q0 9 32 9h48q27 0 36.5 -2.5t13.5 -9.5l106 -163q2 -3 2 -7q0 -8 -26 -8h-38q-18 0 -27 2.5z" />
    <glyph glyph-name="emacron" unicode="&#x113;" horiz-adv-x="557" 
d="M106 61q-69 71 -69 197q0 82 30 145.5t85.5 99t130.5 35.5q111 0 171 -74t60 -195q0 -30 -2 -41t-8 -11h-324q8 -54 41.5 -82t90.5 -28q65 0 141 32q8 4 13.5 -1.5t13.5 -27.5l9 -25q9 -24 9 -33q0 -5 -3 -8t-7 -6q-38 -22 -90.5 -35t-103.5 -13q-119 0 -188 71zM377 315
q-5 49 -29 78.5t-64 29.5q-41 0 -67.5 -28.5t-36.5 -79.5h197zM138.5 647.5q-2.5 8.5 -2.5 32.5v14q0 24 2.5 32.5t10.5 8.5h270q8 0 10.5 -8.5t2.5 -32.5v-14q0 -24 -2.5 -32.5t-10.5 -8.5h-270q-8 0 -10.5 8.5z" />
    <glyph glyph-name="eogonek" unicode="&#x119;" horiz-adv-x="557" 
d="M293 -209q-35 31 -35 86q0 63 56 113h-20q-119 0 -188 71t-69 197q0 82 30 145.5t85.5 99t130.5 35.5q111 0 171 -74t60 -195q0 -30 -2 -41t-8 -11h-324q8 -54 41.5 -82t90.5 -28q65 0 141 32q9 4 14 -1.5t13 -27.5l9 -25q9 -25 9 -33q0 -5 -2 -8t-8 -6
q-62 -34 -95.5 -69t-33.5 -73q0 -21 12 -34t32 -13q16 0 39 9q8 3 12 -1.5t11 -24.5l4 -12q6 -18 6 -26t-8 -13q-16 -9 -40 -15t-44 -6q-55 0 -90 31zM377 315q-5 49 -29 78.5t-64 29.5q-41 0 -67.5 -28.5t-36.5 -79.5h197z" />
    <glyph glyph-name="f" unicode="f" horiz-adv-x="381" 
d="M120 1.5q-14 1.5 -17.5 4.5t-3.5 9v406h-70q-8 0 -10.5 8.5t-2.5 41.5v7q0 33 2.5 41.5t10.5 8.5h70v24q0 108 56 166q51 52 144 52q58 0 110 -19q7 -3 7 -13q0 -13 -5 -33l-4 -17q-6 -25 -10.5 -33t-10.5 -6q-37 8 -64 8q-48 0 -67 -26t-19 -83v-20h115q8 0 10.5 -8.5
t2.5 -41.5v-7q0 -33 -2.5 -41.5t-10.5 -8.5h-115v-406q0 -9 -11.5 -12t-53.5 -3h-5q-32 0 -46 1.5z" />
    <glyph glyph-name="g" unicode="g" horiz-adv-x="580" 
d="M180 -221.5q-46 11.5 -77 29.5q-8 5 -8 13q0 12 11 38l7 17q11 25 17 32.5t14 3.5q63 -29 118 -29q58 0 86.5 33.5t28.5 111.5v15q-53 -45 -128 -45q-99 0 -155.5 69.5t-56.5 192.5q0 87 28.5 149.5t78 95.5t112.5 33q39 0 73 -16.5t60 -45.5q1 10 3.5 22t4.5 19
q3 6 10 8.5t37 2.5h10q30 0 39 -2t12 -10q6 -17 7.5 -69t1.5 -142v-262q0 -143 -61 -210q-60 -66 -183 -66q-44 0 -90 11.5zM331 121q21 7 32 19q8 9 11 21.5t3 32.5v165q-16 30 -40 45.5t-51 15.5q-51 0 -79.5 -40.5t-28.5 -119.5q0 -72 27.5 -109t82.5 -37q22 0 43 7z" />
    <glyph glyph-name="gbreve" unicode="&#x11f;" horiz-adv-x="580" 
d="M180 -221.5q-46 11.5 -77 29.5q-8 5 -8 13q0 12 11 38l7 17q11 25 17 32.5t14 3.5q63 -29 118 -29q58 0 86.5 33.5t28.5 111.5v15q-53 -45 -128 -45q-99 0 -155.5 69.5t-56.5 192.5q0 87 28.5 149.5t78 95.5t112.5 33q39 0 73 -16.5t60 -45.5q1 10 3.5 22t4.5 19
q3 6 10 8.5t37 2.5h10q30 0 39 -2t12 -10q6 -17 7.5 -69t1.5 -142v-262q0 -143 -61 -210q-60 -66 -183 -66q-44 0 -90 11.5zM331 121q21 7 32 19q8 9 11 21.5t3 32.5v165q-16 30 -40 45.5t-51 15.5q-51 0 -79.5 -40.5t-28.5 -119.5q0 -72 27.5 -109t82.5 -37q22 0 43 7z
M179.5 644q-40.5 37 -44.5 104q0 9 8 11.5t35 2.5h15q22 0 29 -2.5t8 -9.5q10 -57 60 -57t60 57q1 7 8 9.5t29 2.5h15q27 0 35 -2.5t8 -11.5q-4 -67 -44.5 -104t-110.5 -37t-110.5 37z" />
    <glyph glyph-name="gcircumflex" unicode="&#x11d;" horiz-adv-x="580" 
d="M180 -221.5q-46 11.5 -77 29.5q-8 5 -8 13q0 12 11 38l7 17q11 25 17 32.5t14 3.5q63 -29 118 -29q58 0 86.5 33.5t28.5 111.5v15q-53 -45 -128 -45q-99 0 -155.5 69.5t-56.5 192.5q0 87 28.5 149.5t78 95.5t112.5 33q39 0 73 -16.5t60 -45.5q1 10 3.5 22t4.5 19
q3 6 10 8.5t37 2.5h10q30 0 39 -2t12 -10q6 -17 7.5 -69t1.5 -142v-262q0 -143 -61 -210q-60 -66 -183 -66q-44 0 -90 11.5zM331 121q21 7 32 19q8 9 11 21.5t3 32.5v165q-16 30 -40 45.5t-51 15.5q-51 0 -79.5 -40.5t-28.5 -119.5q0 -72 27.5 -109t82.5 -37q22 0 43 7z
M179 598q-5 0 -11.5 5.5t-15.5 14.5l-10 10q-17 17 -17 25q0 5 5 10l91 97q9 10 21.5 13t40.5 3h14q28 0 40.5 -3t21.5 -13l91 -97q5 -5 5 -10q0 -8 -17 -25l-10 -10q-9 -9 -15.5 -14.5t-11.5 -5.5q-3 0 -10 5l-101 88l-101 -88q-7 -5 -10 -5z" />
    <glyph glyph-name="gcommaaccent" unicode="&#x123;" horiz-adv-x="580" 
d="M237.5 629.5q-18.5 21.5 -18.5 54.5q0 46 25 92t71 86q7 5 10 5q4 0 11 -5l16 -14q6 -4 6 -10q0 -5 -4 -9q-41 -51 -41 -92q0 -9 3.5 -16t11.5 -17q9 -11 13.5 -20t4.5 -22q0 -22 -17 -38t-44 -16q-29 0 -47.5 21.5zM180 -221.5q-46 11.5 -77 29.5q-8 5 -8 13q0 12 11 38
l7 17q11 25 17 32.5t14 3.5q63 -29 118 -29q58 0 86.5 33.5t28.5 111.5v15q-53 -45 -128 -45q-99 0 -155.5 69.5t-56.5 192.5q0 87 28.5 149.5t78 95.5t112.5 33q39 0 73 -16.5t60 -45.5q1 10 3.5 22t4.5 19q3 6 10 8.5t37 2.5h10q30 0 39 -2t12 -10q6 -17 7.5 -69t1.5 -142
v-262q0 -143 -61 -210q-60 -66 -183 -66q-44 0 -90 11.5zM331 121q21 7 32 19q8 9 11 21.5t3 32.5v165q-16 30 -40 45.5t-51 15.5q-51 0 -79.5 -40.5t-28.5 -119.5q0 -72 27.5 -109t82.5 -37q22 0 43 7z" />
    <glyph glyph-name="gdotaccent" unicode="&#x121;" horiz-adv-x="580" 
d="M180 -221.5q-46 11.5 -77 29.5q-8 5 -8 13q0 12 11 38l7 17q11 25 17 32.5t14 3.5q63 -29 118 -29q58 0 86.5 33.5t28.5 111.5v15q-53 -45 -128 -45q-99 0 -155.5 69.5t-56.5 192.5q0 87 28.5 149.5t78 95.5t112.5 33q39 0 73 -16.5t60 -45.5q1 10 3.5 22t4.5 19
q3 6 10 8.5t37 2.5h10q30 0 39 -2t12 -10q6 -17 7.5 -69t1.5 -142v-262q0 -143 -61 -210q-60 -66 -183 -66q-44 0 -90 11.5zM331 121q21 7 32 19q8 9 11 21.5t3 32.5v165q-16 30 -40 45.5t-51 15.5q-51 0 -79.5 -40.5t-28.5 -119.5q0 -72 27.5 -109t82.5 -37q22 0 43 7z
M239 640.5q-22 21.5 -22 51.5t22 51t52 21t51 -21t21 -51t-21 -51.5t-51 -21.5t-52 21.5z" />
    <glyph glyph-name="h" unicode="h" horiz-adv-x="587" 
d="M87 1.5q-14 1.5 -17.5 4.5t-3.5 9v730q0 6 3.5 9t17.5 4.5t46 1.5h5q42 0 53.5 -3t11.5 -12v-260q25 25 59.5 39t75.5 14q45 0 80.5 -14t58.5 -40q25 -28 36 -66t11 -95v-308q0 -9 -11.5 -12t-53.5 -3h-5q-32 0 -46 1.5t-17.5 4.5t-3.5 9v270q0 52 -4 73t-16 35
q-10 11 -27.5 17t-39.5 6q-41 0 -67 -16q-15 -9 -20.5 -21t-7.5 -32q-2 -23 -2 -98v-234q0 -9 -11.5 -12t-53.5 -3h-5q-32 0 -46 1.5z" />
    <glyph glyph-name="hbar" unicode="&#x127;" horiz-adv-x="587" 
d="M87 1.5q-14 1.5 -17.5 4.5t-3.5 9v582h-60q-8 0 -11 9t-3 40t3 40t11 9h60v50q0 6 3.5 9t17.5 4.5t46 1.5h5q42 0 53.5 -3t11.5 -12v-50h130q8 0 11 -9t3 -40t-3 -40t-11 -9h-130v-112q25 25 59.5 39t75.5 14q45 0 80.5 -14t58.5 -40q25 -28 36 -66t11 -95v-308
q0 -9 -11.5 -12t-53.5 -3h-5q-32 0 -46 1.5t-17.5 4.5t-3.5 9v270q0 52 -4 73t-16 35q-10 11 -27.5 17t-39.5 6q-41 0 -67 -16q-15 -9 -20.5 -21t-7.5 -32q-2 -23 -2 -98v-234q0 -9 -11.5 -12t-53.5 -3h-5q-32 0 -46 1.5z" />
    <glyph glyph-name="hcircumflex" unicode="&#x125;" horiz-adv-x="587" 
d="M87 1.5q-14 1.5 -17.5 4.5t-3.5 9v730q0 6 3.5 9t17.5 4.5t46 1.5h5q42 0 53.5 -3t11.5 -12v-260q25 25 59.5 39t75.5 14q45 0 80.5 -14t58.5 -40q25 -28 36 -66t11 -95v-308q0 -9 -11.5 -12t-53.5 -3h-5q-32 0 -46 1.5t-17.5 4.5t-3.5 9v270q0 52 -4 73t-16 35
q-10 11 -27.5 17t-39.5 6q-41 0 -67 -16q-15 -9 -20.5 -21t-7.5 -32q-2 -23 -2 -98v-234q0 -9 -11.5 -12t-53.5 -3h-5q-32 0 -46 1.5zM24 766q-5 0 -11.5 5.5t-15.5 14.5l-10 10q-17 17 -17 25q0 5 5 10l91 97q9 10 21.5 13t40.5 3h14q28 0 40.5 -3t21.5 -13l91 -97
q5 -5 5 -10q0 -8 -17 -25l-10 -10q-9 -9 -15.5 -14.5t-11.5 -5.5q-3 0 -10 5l-101 88l-101 -88q-7 -5 -10 -5z" />
    <glyph glyph-name="i" unicode="i" horiz-adv-x="277" 
d="M76.5 632.5q-24.5 24.5 -24.5 57.5q0 34 24.5 58t59.5 24q36 0 60 -24t24 -58q0 -33 -24 -57.5t-60 -24.5q-35 0 -59.5 24.5zM91 1.5q-14 1.5 -17.5 4.5t-3.5 9v498q0 6 3.5 9t17.5 4.5t46 1.5h5q42 0 53.5 -3t11.5 -12v-498q0 -9 -11.5 -12t-53.5 -3h-5q-32 0 -46 1.5z
" />
    <glyph glyph-name="dotlessi" unicode="&#x131;" horiz-adv-x="277" 
d="M91 1.5q-14 1.5 -17.5 4.5t-3.5 9v498q0 6 3.5 9t17.5 4.5t46 1.5h5q42 0 53.5 -3t11.5 -12v-498q0 -9 -11.5 -12t-53.5 -3h-5q-32 0 -46 1.5z" />
    <glyph glyph-name="iacute" unicode="&#xed;" horiz-adv-x="277" 
d="M91 1.5q-14 1.5 -17.5 4.5t-3.5 9v498q0 6 3.5 9t17.5 4.5t46 1.5h5q42 0 53.5 -3t11.5 -12v-498q0 -9 -11.5 -12t-53.5 -3h-5q-32 0 -46 1.5zM43 599q-6 3 -1 12l106 163q4 7 13.5 9.5t36.5 2.5h48q32 0 32 -9q0 -2 -3 -7l-130 -163q-5 -6 -14 -8.5t-27 -2.5h-38
q-17 0 -23 3z" />
    <glyph glyph-name="ibreve" unicode="&#x12d;" horiz-adv-x="277" 
d="M91 1.5q-14 1.5 -17.5 4.5t-3.5 9v498q0 6 3.5 9t17.5 4.5t46 1.5h5q42 0 53.5 -3t11.5 -12v-498q0 -9 -11.5 -12t-53.5 -3h-5q-32 0 -46 1.5zM28.5 644q-40.5 37 -44.5 104q0 9 8 11.5t35 2.5h15q22 0 29 -2.5t8 -9.5q10 -57 60 -57t60 57q1 7 8 9.5t29 2.5h15
q27 0 35 -2.5t8 -11.5q-4 -67 -44.5 -104t-110.5 -37t-110.5 37z" />
    <glyph glyph-name="icircumflex" unicode="&#xee;" horiz-adv-x="277" 
d="M91 1.5q-14 1.5 -17.5 4.5t-3.5 9v498q0 6 3.5 9t17.5 4.5t46 1.5h5q42 0 53.5 -3t11.5 -12v-498q0 -9 -11.5 -12t-53.5 -3h-5q-32 0 -46 1.5zM28 598q-5 0 -11.5 5.5t-15.5 14.5l-10 10q-17 17 -17 25q0 5 5 10l91 97q9 10 21.5 13t40.5 3h14q28 0 40.5 -3t21.5 -13
l91 -97q5 -5 5 -10q0 -8 -17 -25l-10 -10q-9 -9 -15.5 -14.5t-11.5 -5.5q-3 0 -10 5l-101 88l-101 -88q-7 -5 -10 -5z" />
    <glyph glyph-name="idieresis" unicode="&#xef;" horiz-adv-x="277" 
d="M91 1.5q-14 1.5 -17.5 4.5t-3.5 9v498q0 6 3.5 9t17.5 4.5t46 1.5h5q42 0 53.5 -3t11.5 -12v-498q0 -9 -11.5 -12t-53.5 -3h-5q-32 0 -46 1.5zM-22 630q-21 20 -21 49q0 30 21 50.5t52 20.5q32 0 52.5 -20.5t20.5 -50.5q0 -29 -20.5 -49t-52.5 -20q-31 0 -52 20zM195 630
q-20 20 -20 49q0 30 20 50.5t51 20.5q33 0 54 -20.5t21 -50.5q0 -29 -21 -49t-54 -20q-31 0 -51 20z" />
    <glyph glyph-name="i.loclTRK" horiz-adv-x="277" 
d="M91 1.5q-14 1.5 -17.5 4.5t-3.5 9v498q0 6 3.5 9t17.5 4.5t46 1.5h5q42 0 53.5 -3t11.5 -12v-498q0 -9 -11.5 -12t-53.5 -3h-5q-32 0 -46 1.5zM88 640.5q-22 21.5 -22 51.5t22 51t52 21t51 -21t21 -51t-21 -51.5t-51 -21.5t-52 21.5z" />
    <glyph glyph-name="igrave" unicode="&#xec;" horiz-adv-x="277" 
d="M91 1.5q-14 1.5 -17.5 4.5t-3.5 9v498q0 6 3.5 9t17.5 4.5t46 1.5h5q42 0 53.5 -3t11.5 -12v-498q0 -9 -11.5 -12t-53.5 -3h-5q-32 0 -46 1.5zM147 598.5q-9 2.5 -14 8.5l-130 163q-3 5 -3 7q0 9 32 9h48q27 0 36.5 -2.5t13.5 -9.5l106 -163q2 -3 2 -7q0 -8 -26 -8h-38
q-18 0 -27 2.5z" />
    <glyph glyph-name="ij" unicode="&#x133;" horiz-adv-x="568" 
d="M76.5 632.5q-24.5 24.5 -24.5 57.5q0 34 24.5 58t59.5 24q36 0 60 -24t24 -58q0 -33 -24 -57.5t-60 -24.5q-35 0 -59.5 24.5zM91 1.5q-14 1.5 -17.5 4.5t-3.5 9v498q0 6 3.5 9t17.5 4.5t46 1.5h5q42 0 53.5 -3t11.5 -12v-498q0 -9 -11.5 -12t-53.5 -3h-5q-32 0 -46 1.5z
M367.5 632.5q-24.5 24.5 -24.5 57.5q0 34 24.5 58t59.5 24q36 0 60 -24t24 -58q0 -33 -24 -57.5t-60 -24.5q-35 0 -59.5 24.5zM249.5 -227.5q-28.5 5.5 -42.5 13.5q-9 4 -9 14q0 7 6 36l4 17q6 25 10.5 31t16.5 3q27 -6 54 -6q40 0 56 24.5t16 79.5v528q0 6 3.5 9t17.5 4.5
t46 1.5h5q42 0 53.5 -3t11.5 -12v-508q0 -238 -192 -238q-28 0 -56.5 5.5z" />
    <glyph glyph-name="imacron" unicode="&#x12b;" horiz-adv-x="277" 
d="M91 1.5q-14 1.5 -17.5 4.5t-3.5 9v498q0 6 3.5 9t17.5 4.5t46 1.5h5q42 0 53.5 -3t11.5 -12v-498q0 -9 -11.5 -12t-53.5 -3h-5q-32 0 -46 1.5zM-6.5 647.5q-2.5 8.5 -2.5 32.5v14q0 24 2.5 32.5t10.5 8.5h270q8 0 10.5 -8.5t2.5 -32.5v-14q0 -24 -2.5 -32.5t-10.5 -8.5
h-270q-8 0 -10.5 8.5z" />
    <glyph glyph-name="iogonek" unicode="&#x12f;" horiz-adv-x="277" 
d="M76.5 632.5q-24.5 24.5 -24.5 57.5q0 34 24.5 58t59.5 24q36 0 60 -24t24 -58q0 -33 -24 -57.5t-60 -24.5q-35 0 -59.5 24.5zM38.5 -203.5q-35.5 30.5 -35.5 82.5q0 36 18 68t49 54v512q0 6 3.5 9t17.5 4.5t46 1.5h5q42 0 53.5 -3t11.5 -12v-495q0 -8 -6 -12t-20 -9
q-16 -5 -28.5 -11.5t-23.5 -19.5q-25 -28 -25 -63q0 -23 11 -35.5t31 -12.5q15 0 44 11q6 2 10.5 -3t11.5 -24l4 -12q6 -18 6 -25q0 -8 -8 -14q-16 -10 -40 -16t-46 -6q-54 0 -89.5 30.5z" />
    <glyph glyph-name="itilde" unicode="&#x129;" horiz-adv-x="277" 
d="M91 1.5q-14 1.5 -17.5 4.5t-3.5 9v498q0 6 3.5 9t17.5 4.5t46 1.5h5q42 0 53.5 -3t11.5 -12v-498q0 -9 -11.5 -12t-53.5 -3h-5q-32 0 -46 1.5zM162.5 625.5q-15.5 5.5 -37.5 16.5q-12 6 -23.5 10.5t-20.5 4.5q-27 0 -59 -32q-4 -4 -12 -1t-24 19l-4 4q-20 20 -20 28
q0 3 4 9q54 67 115 67q19 0 34.5 -5.5t37.5 -16.5q11 -6 22.5 -10.5t20.5 -4.5q27 0 59 32q4 4 12 1t24 -19l4 -4q20 -20 20 -28q0 -3 -4 -9q-54 -67 -115 -67q-18 0 -33.5 5.5z" />
    <glyph glyph-name="j" unicode="j" horiz-adv-x="291" 
d="M90.5 632.5q-24.5 24.5 -24.5 57.5q0 34 24.5 58t59.5 24q36 0 60 -24t24 -58q0 -33 -24 -57.5t-60 -24.5q-35 0 -59.5 24.5zM-27.5 -227.5q-28.5 5.5 -42.5 13.5q-9 4 -9 14q0 7 6 36l4 17q6 25 10.5 31t16.5 3q27 -6 54 -6q40 0 56 24.5t16 79.5v528q0 6 3.5 9
t17.5 4.5t46 1.5h5q42 0 53.5 -3t11.5 -12v-508q0 -238 -192 -238q-28 0 -56.5 5.5z" />
    <glyph glyph-name="uni0237" unicode="&#x237;" horiz-adv-x="291" 
d="M-27.5 -227.5q-28.5 5.5 -42.5 13.5q-9 4 -9 14q0 7 6 36l4 17q6 25 10.5 31t16.5 3q27 -6 54 -6q40 0 56 24.5t16 79.5v528q0 6 3.5 9t17.5 4.5t46 1.5h5q42 0 53.5 -3t11.5 -12v-508q0 -238 -192 -238q-28 0 -56.5 5.5z" />
    <glyph glyph-name="jcircumflex" unicode="&#x135;" horiz-adv-x="291" 
d="M-27.5 -227.5q-28.5 5.5 -42.5 13.5q-9 4 -9 14q0 7 6 36l4 17q6 25 10.5 31t16.5 3q27 -6 54 -6q40 0 56 24.5t16 79.5v528q0 6 3.5 9t17.5 4.5t46 1.5h5q42 0 53.5 -3t11.5 -12v-508q0 -238 -192 -238q-28 0 -56.5 5.5zM42 598q-5 0 -11.5 5.5t-15.5 14.5l-10 10
q-17 17 -17 25q0 5 5 10l91 97q9 10 21.5 13t40.5 3h14q28 0 40.5 -3t21.5 -13l91 -97q5 -5 5 -10q0 -8 -17 -25l-10 -10q-9 -9 -15.5 -14.5t-11.5 -5.5q-3 0 -10 5l-101 88l-101 -88q-7 -5 -10 -5z" />
    <glyph glyph-name="k" unicode="k" horiz-adv-x="530" 
d="M87 1.5q-14 1.5 -17.5 4.5t-3.5 9v730q0 6 3.5 9t17.5 4.5t46 1.5h5q42 0 53.5 -3t11.5 -12v-412q68 67 156 182q6 8 17 10.5t49 2.5h16q37 0 47.5 -4t6.5 -13q-22 -47 -69.5 -107.5t-102.5 -111.5l200 -271q15 -21 -62 -21h-13q-49 0 -62 2.5t-20 12.5l-163 224v-224
q0 -9 -11.5 -12t-53.5 -3h-5q-32 0 -46 1.5z" />
    <glyph glyph-name="kcommaaccent" unicode="&#x137;" horiz-adv-x="530" 
d="M87 1.5q-14 1.5 -17.5 4.5t-3.5 9v730q0 6 3.5 9t17.5 4.5t46 1.5h5q42 0 53.5 -3t11.5 -12v-412q68 67 156 182q6 8 17 10.5t49 2.5h16q37 0 47.5 -4t6.5 -13q-22 -47 -69.5 -107.5t-102.5 -111.5l200 -271q15 -21 -62 -21h-13q-49 0 -62 2.5t-20 12.5l-163 224v-224
q0 -9 -11.5 -12t-53.5 -3h-5q-32 0 -46 1.5zM217 -299q-6 4 -6 10q0 5 4 9q41 51 41 92q0 9 -3.5 16t-11.5 17q-9 11 -13.5 20t-4.5 22q0 22 17 38t44 16q29 0 47.5 -21.5t18.5 -54.5q0 -46 -25 -92t-71 -86q-7 -5 -10 -5q-4 0 -11 5z" />
    <glyph glyph-name="kgreenlandic" unicode="&#x138;" horiz-adv-x="530" 
d="M87 1.5q-14 1.5 -17.5 4.5t-3.5 9v498q0 6 3.5 9t17.5 4.5t46 1.5h5q42 0 53.5 -3t11.5 -12v-180q68 67 156 182q6 8 17 10.5t49 2.5h16q37 0 47.5 -4t6.5 -13q-22 -47 -69.5 -107.5t-102.5 -111.5l200 -271q15 -21 -62 -21h-13q-49 0 -62 2.5t-20 12.5l-163 224v-224
q0 -9 -11.5 -12t-53.5 -3h-5q-32 0 -46 1.5z" />
    <glyph glyph-name="l" unicode="l" horiz-adv-x="298" 
d="M100 25q-17 17 -24.5 42.5t-7.5 62.5v347q0 67 -3 153.5t-5 116.5q-1 6 2.5 8.5t19.5 3.5t43 1h5q41 0 52.5 -2.5t13.5 -10.5q9 -43 9 -291v-318q0 -18 7.5 -26t25.5 -8h12q7 0 8.5 -8t1.5 -36v-9q0 -27 -1.5 -34t-7.5 -10q-26 -12 -67 -12q-54 0 -84 30z" />
    <glyph glyph-name="lacute" unicode="&#x13a;" horiz-adv-x="298" 
d="M100 25q-17 17 -24.5 42.5t-7.5 62.5v347q0 67 -3 153.5t-5 116.5q-1 6 2.5 8.5t19.5 3.5t43 1h5q41 0 52.5 -2.5t13.5 -10.5q9 -43 9 -291v-318q0 -18 7.5 -26t25.5 -8h12q7 0 8.5 -8t1.5 -36v-9q0 -27 -1.5 -34t-7.5 -10q-26 -12 -67 -12q-54 0 -84 30zM45 802
q-6 3 -1 12l106 163q4 7 13.5 9.5t36.5 2.5h48q32 0 32 -9q0 -2 -3 -7l-130 -163q-5 -6 -14 -8.5t-27 -2.5h-38q-17 0 -23 3z" />
    <glyph glyph-name="lcaron" unicode="&#x13e;" horiz-adv-x="372" 
d="M100 25q-17 17 -24.5 42.5t-7.5 62.5v347q0 67 -3 153.5t-5 116.5q-1 6 2.5 8.5t19.5 3.5t43 1h5q41 0 52.5 -2.5t13.5 -10.5q9 -43 9 -291v-318q0 -18 7.5 -26t25.5 -8h12q7 0 8.5 -8t1.5 -36v-9q0 -27 -1.5 -34t-7.5 -10q-26 -12 -67 -12q-54 0 -84 30zM249 490
q-6 4 -6 10q0 5 4 9q41 51 41 92q0 9 -3.5 16t-11.5 17q-9 11 -13.5 20t-4.5 22q0 22 17 38t44 16q29 0 47.5 -21.5t18.5 -54.5q0 -46 -25 -92t-71 -86q-7 -5 -10 -5q-4 0 -11 5z" />
    <glyph glyph-name="lcommaaccent" unicode="&#x13c;" horiz-adv-x="298" 
d="M100 25q-17 17 -24.5 42.5t-7.5 62.5v347q0 67 -3 153.5t-5 116.5q-1 6 2.5 8.5t19.5 3.5t43 1h5q41 0 52.5 -2.5t13.5 -10.5q9 -43 9 -291v-318q0 -18 7.5 -26t25.5 -8h12q7 0 8.5 -8t1.5 -36v-9q0 -27 -1.5 -34t-7.5 -10q-26 -12 -67 -12q-54 0 -84 30zM88 -299
q-6 4 -6 10q0 5 4 9q41 51 41 92q0 9 -3.5 16t-11.5 17q-9 11 -13.5 20t-4.5 22q0 22 17 38t44 16q29 0 47.5 -21.5t18.5 -54.5q0 -46 -25 -92t-71 -86q-7 -5 -10 -5q-4 0 -11 5z" />
    <glyph glyph-name="ldot" unicode="&#x140;" horiz-adv-x="412" 
d="M100 25q-17 17 -24.5 42.5t-7.5 62.5v347q0 67 -3 153.5t-5 116.5q-1 6 2.5 8.5t19.5 3.5t43 1h5q41 0 52.5 -2.5t13.5 -10.5q9 -43 9 -291v-318q0 -18 7.5 -26t25.5 -8h12q7 0 8.5 -8t1.5 -36v-9q0 -27 -1.5 -34t-7.5 -10q-26 -12 -67 -12q-54 0 -84 30zM281 319.5
q-22 21.5 -22 51.5t22 51t52 21t51 -21t21 -51t-21 -51.5t-51 -21.5t-52 21.5z" />
    <glyph glyph-name="lslash" unicode="&#x142;" horiz-adv-x="387" 
d="M159 25q-17 17 -24.5 42.5t-7.5 62.5v146l-85 -46q-4 -3 -8 -3q-6 0 -8 9t-2 31v27q0 31 3 42t11 16l89 49v76q0 67 -3 153.5t-5 116.5q-1 6 2.5 8.5t19.5 3.5t43 1h5q41 0 52.5 -2.5t13.5 -10.5q7 -40 9 -271l85 47q4 3 8 3q6 0 8 -9t2 -31v-28q0 -31 -3 -42t-11 -16
l-89 -49v-213q0 -18 7.5 -26t25.5 -8h12q7 0 8.5 -8t1.5 -36v-9q0 -27 -1.5 -34t-7.5 -10q-26 -12 -67 -12q-54 0 -84 30z" />
    <glyph glyph-name="m" unicode="m" horiz-adv-x="890" 
d="M89 1.5q-14 1.5 -17.5 4.5t-3.5 9v276q0 125 -7 219q-1 8 2.5 11.5t16 5t41.5 1.5h5q37 0 48 -2.5t14 -10.5q4 -11 8 -43q26 30 63 48t78 18q48 0 89 -20.5t61 -58.5q30 38 71 58.5t88 20.5q43 0 77 -14t57 -40q25 -28 36 -66t11 -95v-308q0 -9 -11.5 -12t-53.5 -3h-5
q-32 0 -46 1.5t-17.5 4.5t-3.5 9v270q0 52 -4 73t-16 35q-20 23 -63 23q-36 0 -61 -15q-15 -9 -20.5 -21t-7.5 -32q-2 -23 -2 -98v-235q0 -9 -11.5 -12t-53.5 -3h-5q-32 0 -46 1.5t-17.5 4.5t-3.5 9v270q0 52 -4 73t-16 35q-20 23 -63 23q-36 0 -61 -15q-15 -9 -20.5 -21
t-7.5 -32q-2 -23 -2 -98v-235q0 -9 -11.5 -12t-53.5 -3h-5q-32 0 -46 1.5z" />
    <glyph glyph-name="n" unicode="n" horiz-adv-x="589" 
d="M89 1.5q-14 1.5 -17.5 4.5t-3.5 9v276q0 125 -7 219q-1 8 2.5 11.5t16 5t41.5 1.5h5q37 0 48 -2.5t14 -10.5t7 -40q25 29 63 46t82 17q45 0 80.5 -14t58.5 -40q25 -28 36 -66t11 -95v-308q0 -9 -11.5 -12t-53.5 -3h-5q-32 0 -46 1.5t-17.5 4.5t-3.5 9v270q0 52 -4 73
t-16 35q-10 11 -27.5 17t-39.5 6q-41 0 -67 -16q-15 -9 -20.5 -21t-7.5 -32q-2 -23 -2 -98v-234q0 -9 -11.5 -12t-53.5 -3h-5q-32 0 -46 1.5z" />
    <glyph glyph-name="nacute" unicode="&#x144;" horiz-adv-x="589" 
d="M89 1.5q-14 1.5 -17.5 4.5t-3.5 9v276q0 125 -7 219q-1 8 2.5 11.5t16 5t41.5 1.5h5q37 0 48 -2.5t14 -10.5t7 -40q25 29 63 46t82 17q45 0 80.5 -14t58.5 -40q25 -28 36 -66t11 -95v-308q0 -9 -11.5 -12t-53.5 -3h-5q-32 0 -46 1.5t-17.5 4.5t-3.5 9v270q0 52 -4 73
t-16 35q-10 11 -27.5 17t-39.5 6q-41 0 -67 -16q-15 -9 -20.5 -21t-7.5 -32q-2 -23 -2 -98v-234q0 -9 -11.5 -12t-53.5 -3h-5q-32 0 -46 1.5zM225 599q-6 3 -1 12l106 163q4 7 13.5 9.5t36.5 2.5h48q32 0 32 -9q0 -2 -3 -7l-130 -163q-5 -6 -14 -8.5t-27 -2.5h-38
q-17 0 -23 3z" />
    <glyph glyph-name="ncaron" unicode="&#x148;" horiz-adv-x="589" 
d="M89 1.5q-14 1.5 -17.5 4.5t-3.5 9v276q0 125 -7 219q-1 8 2.5 11.5t16 5t41.5 1.5h5q37 0 48 -2.5t14 -10.5t7 -40q25 29 63 46t82 17q45 0 80.5 -14t58.5 -40q25 -28 36 -66t11 -95v-308q0 -9 -11.5 -12t-53.5 -3h-5q-32 0 -46 1.5t-17.5 4.5t-3.5 9v270q0 52 -4 73
t-16 35q-10 11 -27.5 17t-39.5 6q-41 0 -67 -16q-15 -9 -20.5 -21t-7.5 -32q-2 -23 -2 -98v-234q0 -9 -11.5 -12t-53.5 -3h-5q-32 0 -46 1.5zM273.5 601q-12.5 3 -21.5 13l-91 97q-5 5 -5 10q0 8 17 25l10 10q9 9 15.5 14.5t11.5 5.5q3 0 10 -5l101 -88l101 88q7 5 10 5
q5 0 11.5 -5.5t15.5 -14.5l10 -10q17 -17 17 -25q0 -5 -5 -10l-91 -97q-9 -10 -21.5 -13t-40.5 -3h-14q-28 0 -40.5 3z" />
    <glyph glyph-name="ncommaaccent" unicode="&#x146;" horiz-adv-x="589" 
d="M89 1.5q-14 1.5 -17.5 4.5t-3.5 9v276q0 125 -7 219q-1 8 2.5 11.5t16 5t41.5 1.5h5q37 0 48 -2.5t14 -10.5t7 -40q25 29 63 46t82 17q45 0 80.5 -14t58.5 -40q25 -28 36 -66t11 -95v-308q0 -9 -11.5 -12t-53.5 -3h-5q-32 0 -46 1.5t-17.5 4.5t-3.5 9v270q0 52 -4 73
t-16 35q-10 11 -27.5 17t-39.5 6q-41 0 -67 -16q-15 -9 -20.5 -21t-7.5 -32q-2 -23 -2 -98v-234q0 -9 -11.5 -12t-53.5 -3h-5q-32 0 -46 1.5zM231 -299q-6 4 -6 10q0 5 4 9q41 51 41 92q0 9 -3.5 16t-11.5 17q-9 11 -13.5 20t-4.5 22q0 22 17 38t44 16q29 0 47.5 -21.5
t18.5 -54.5q0 -46 -25 -92t-71 -86q-7 -5 -10 -5q-4 0 -11 5z" />
    <glyph glyph-name="eng" unicode="&#x14b;" horiz-adv-x="589" 
d="M277.5 -177.5q-28.5 5.5 -42.5 13.5q-9 4 -9 14q0 7 6 36l4 17q6 25 10.5 31t16.5 3q27 -6 54 -6q40 0 56 24.5t16 79.5v250q0 52 -4 73t-16 35q-10 11 -27.5 17t-39.5 6q-41 0 -67 -16q-15 -9 -20.5 -21t-7.5 -32q-2 -23 -2 -98v-234q0 -9 -11.5 -12t-53.5 -3h-5
q-32 0 -46 1.5t-17.5 4.5t-3.5 9v276q0 125 -7 219q-1 8 2.5 11.5t16 5t41.5 1.5h5q37 0 48 -2.5t14 -10.5t7 -40q25 29 63 46t82 17q45 0 80.5 -14t58.5 -40q25 -28 36 -66t11 -95v-268q0 -238 -192 -238q-28 0 -56.5 5.5z" />
    <glyph glyph-name="ntilde" unicode="&#xf1;" horiz-adv-x="589" 
d="M89 1.5q-14 1.5 -17.5 4.5t-3.5 9v276q0 125 -7 219q-1 8 2.5 11.5t16 5t41.5 1.5h5q37 0 48 -2.5t14 -10.5t7 -40q25 29 63 46t82 17q45 0 80.5 -14t58.5 -40q25 -28 36 -66t11 -95v-308q0 -9 -11.5 -12t-53.5 -3h-5q-32 0 -46 1.5t-17.5 4.5t-3.5 9v270q0 52 -4 73
t-16 35q-10 11 -27.5 17t-39.5 6q-41 0 -67 -16q-15 -9 -20.5 -21t-7.5 -32q-2 -23 -2 -98v-234q0 -9 -11.5 -12t-53.5 -3h-5q-32 0 -46 1.5zM344.5 625.5q-15.5 5.5 -37.5 16.5q-12 6 -23.5 10.5t-20.5 4.5q-27 0 -59 -32q-4 -4 -12 -1t-24 19l-4 4q-20 20 -20 28q0 3 4 9
q54 67 115 67q19 0 34.5 -5.5t37.5 -16.5q11 -6 22.5 -10.5t20.5 -4.5q27 0 59 32q4 4 12 1t24 -19l4 -4q20 -20 20 -28q0 -3 -4 -9q-54 -67 -115 -67q-18 0 -33.5 5.5z" />
    <glyph glyph-name="o" unicode="o" horiz-adv-x="571" 
d="M100.5 58q-63.5 68 -63.5 196q0 136 66 210t191 74q113 0 176.5 -68t63.5 -196q0 -136 -66 -210t-191 -74q-113 0 -176.5 68zM393 268q0 152 -102 152q-113 0 -113 -160q0 -152 102 -152q113 0 113 160z" />
    <glyph glyph-name="oacute" unicode="&#xf3;" horiz-adv-x="571" 
d="M100.5 58q-63.5 68 -63.5 196q0 136 66 210t191 74q113 0 176.5 -68t63.5 -196q0 -136 -66 -210t-191 -74q-113 0 -176.5 68zM393 268q0 152 -102 152q-113 0 -113 -160q0 -152 102 -152q113 0 113 160zM196 599q-6 3 -1 12l106 163q4 7 13.5 9.5t36.5 2.5h48q32 0 32 -9
q0 -2 -3 -7l-130 -163q-5 -6 -14 -8.5t-27 -2.5h-38q-17 0 -23 3z" />
    <glyph glyph-name="obreve" unicode="&#x14f;" horiz-adv-x="571" 
d="M100.5 58q-63.5 68 -63.5 196q0 136 66 210t191 74q113 0 176.5 -68t63.5 -196q0 -136 -66 -210t-191 -74q-113 0 -176.5 68zM393 268q0 152 -102 152q-113 0 -113 -160q0 -152 102 -152q113 0 113 160zM181.5 644q-40.5 37 -44.5 104q0 9 8 11.5t35 2.5h15q22 0 29 -2.5
t8 -9.5q10 -57 60 -57t60 57q1 7 8 9.5t29 2.5h15q27 0 35 -2.5t8 -11.5q-4 -67 -44.5 -104t-110.5 -37t-110.5 37z" />
    <glyph glyph-name="ocircumflex" unicode="&#xf4;" horiz-adv-x="571" 
d="M100.5 58q-63.5 68 -63.5 196q0 136 66 210t191 74q113 0 176.5 -68t63.5 -196q0 -136 -66 -210t-191 -74q-113 0 -176.5 68zM393 268q0 152 -102 152q-113 0 -113 -160q0 -152 102 -152q113 0 113 160zM181 598q-5 0 -11.5 5.5t-15.5 14.5l-10 10q-17 17 -17 25
q0 5 5 10l91 97q9 10 21.5 13t40.5 3h14q28 0 40.5 -3t21.5 -13l91 -97q5 -5 5 -10q0 -8 -17 -25l-10 -10q-9 -9 -15.5 -14.5t-11.5 -5.5q-3 0 -10 5l-101 88l-101 -88q-7 -5 -10 -5z" />
    <glyph glyph-name="odieresis" unicode="&#xf6;" horiz-adv-x="571" 
d="M100.5 58q-63.5 68 -63.5 196q0 136 66 210t191 74q113 0 176.5 -68t63.5 -196q0 -136 -66 -210t-191 -74q-113 0 -176.5 68zM393 268q0 152 -102 152q-113 0 -113 -160q0 -152 102 -152q113 0 113 160zM131 630q-21 20 -21 49q0 30 21 50.5t52 20.5q32 0 52.5 -20.5
t20.5 -50.5q0 -29 -20.5 -49t-52.5 -20q-31 0 -52 20zM348 630q-20 20 -20 49q0 30 20 50.5t51 20.5q33 0 54 -20.5t21 -50.5q0 -29 -21 -49t-54 -20q-31 0 -51 20z" />
    <glyph glyph-name="ograve" unicode="&#xf2;" horiz-adv-x="571" 
d="M100.5 58q-63.5 68 -63.5 196q0 136 66 210t191 74q113 0 176.5 -68t63.5 -196q0 -136 -66 -210t-191 -74q-113 0 -176.5 68zM393 268q0 152 -102 152q-113 0 -113 -160q0 -152 102 -152q113 0 113 160zM300 598.5q-9 2.5 -14 8.5l-130 163q-3 5 -3 7q0 9 32 9h48
q27 0 36.5 -2.5t13.5 -9.5l106 -163q2 -3 2 -7q0 -8 -26 -8h-38q-18 0 -27 2.5z" />
    <glyph glyph-name="ohungarumlaut" unicode="&#x151;" horiz-adv-x="571" 
d="M100.5 58q-63.5 68 -63.5 196q0 136 66 210t191 74q113 0 176.5 -68t63.5 -196q0 -136 -66 -210t-191 -74q-113 0 -176.5 68zM393 268q0 152 -102 152q-113 0 -113 -160q0 -152 102 -152q113 0 113 160zM108.5 606q-5.5 3 -0.5 11l92 157q4 7 13.5 9.5t34.5 2.5h43
q22 0 27.5 -3.5t0.5 -11.5l-116 -157q-5 -7 -13 -9t-26 -2h-33q-17 0 -22.5 3zM308.5 606q-5.5 3 -0.5 11l92 157q4 7 13.5 9.5t34.5 2.5h43q22 0 27.5 -3.5t0.5 -11.5l-116 -157q-5 -7 -13 -9t-26 -2h-33q-17 0 -22.5 3z" />
    <glyph glyph-name="omacron" unicode="&#x14d;" horiz-adv-x="571" 
d="M100.5 58q-63.5 68 -63.5 196q0 136 66 210t191 74q113 0 176.5 -68t63.5 -196q0 -136 -66 -210t-191 -74q-113 0 -176.5 68zM393 268q0 152 -102 152q-113 0 -113 -160q0 -152 102 -152q113 0 113 160zM146.5 647.5q-2.5 8.5 -2.5 32.5v14q0 24 2.5 32.5t10.5 8.5h270
q8 0 10.5 -8.5t2.5 -32.5v-14q0 -24 -2.5 -32.5t-10.5 -8.5h-270q-8 0 -10.5 8.5z" />
    <glyph glyph-name="oslash" unicode="&#xf8;" horiz-adv-x="571" 
d="M161 -73q-9 0 -36 13l-13 6q-20 9 -28 15t-8 12q0 4 3 9l33 63q-75 69 -75 209q0 136 66 210t191 74q38 0 78 -10l32 59q6 11 13 11q9 0 36 -13l13 -6q20 -9 28 -15t8 -12q0 -4 -3 -9l-36 -66q71 -68 71 -203q0 -136 -66 -210t-191 -74q-36 0 -71 8l-32 -60
q-6 -11 -13 -11zM312 418q-12 2 -21 2q-113 0 -113 -160q0 -44 9 -76zM393 268q0 38 -7 65l-120 -224q4 -1 14 -1q113 0 113 160z" />
    <glyph glyph-name="oslashacute" unicode="&#x1ff;" horiz-adv-x="571" 
d="M161 -73q-9 0 -36 13l-13 6q-20 9 -28 15t-8 12q0 4 3 9l33 63q-75 69 -75 209q0 136 66 210t191 74q38 0 78 -10l32 59q6 11 13 11q9 0 36 -13l13 -6q20 -9 28 -15t8 -12q0 -4 -3 -9l-36 -66q71 -68 71 -203q0 -136 -66 -210t-191 -74q-36 0 -71 8l-32 -60
q-6 -11 -13 -11zM312 418q-12 2 -21 2q-113 0 -113 -160q0 -44 9 -76zM393 268q0 38 -7 65l-120 -224q4 -1 14 -1q113 0 113 160zM190 599q-6 3 -1 12l106 163q4 7 13.5 9.5t36.5 2.5h48q32 0 32 -9q0 -2 -3 -7l-130 -163q-5 -6 -14 -8.5t-27 -2.5h-38q-17 0 -23 3z" />
    <glyph glyph-name="otilde" unicode="&#xf5;" horiz-adv-x="571" 
d="M100.5 58q-63.5 68 -63.5 196q0 136 66 210t191 74q113 0 176.5 -68t63.5 -196q0 -136 -66 -210t-191 -74q-113 0 -176.5 68zM393 268q0 152 -102 152q-113 0 -113 -160q0 -152 102 -152q113 0 113 160zM315.5 625.5q-15.5 5.5 -37.5 16.5q-12 6 -23.5 10.5t-20.5 4.5
q-27 0 -59 -32q-4 -4 -12 -1t-24 19l-4 4q-20 20 -20 28q0 3 4 9q54 67 115 67q19 0 34.5 -5.5t37.5 -16.5q11 -6 22.5 -10.5t20.5 -4.5q27 0 59 32q4 4 12 1t24 -19l4 -4q20 -20 20 -28q0 -3 -4 -9q-54 -67 -115 -67q-18 0 -33.5 5.5z" />
    <glyph glyph-name="oe" unicode="&#x153;" horiz-adv-x="913" 
d="M100.5 58q-63.5 68 -63.5 196q0 136 66 210t191 74q113 0 175 -67q32 32 75 49.5t95 17.5q111 0 171 -74t60 -195q0 -30 -2 -41t-8 -11h-324q8 -54 41.5 -82t90.5 -28q65 0 141 32q8 4 13.5 -1.5t13.5 -27.5l9 -25q9 -24 9 -33q0 -5 -3 -8t-7 -6q-38 -22 -90.5 -35
t-103.5 -13q-118 0 -187 69q-66 -69 -186 -69q-113 0 -176.5 68zM733 315q-5 49 -29 78.5t-64 29.5q-41 0 -67.5 -28.5t-36.5 -79.5h197zM393 268q0 152 -102 152q-113 0 -113 -160q0 -152 102 -152q113 0 113 160z" />
    <glyph glyph-name="p" unicode="p" horiz-adv-x="581" 
d="M89 -221.5q-14 1.5 -17.5 4.5t-3.5 9v499q0 125 -7 219q-1 8 2.5 11.5t16 5t41.5 1.5h5q37 0 48 -2.5t14 -10.5t7 -40q25 29 62 46t80 17q62 0 109 -32.5t72.5 -92.5t25.5 -141q0 -87 -27.5 -150.5t-77.5 -97.5t-116 -34q-34 0 -65 10t-53 29v-237q0 -9 -11.5 -12
t-53.5 -3h-5q-32 0 -46 1.5zM375.5 149.5q27.5 42.5 27.5 122.5q0 82 -33 120q-25 29 -75 29q-22 0 -43.5 -7t-32.5 -19q-8 -9 -11 -21.5t-3 -32.5v-196q18 -18 41.5 -28t47.5 -10q54 0 81.5 42.5z" />
    <glyph glyph-name="thorn" unicode="&#xfe;" horiz-adv-x="579" 
d="M87 -221.5q-14 1.5 -17.5 4.5t-3.5 9v953q0 6 3.5 9t17.5 4.5t46 1.5h5q42 0 53.5 -3t11.5 -12v-259q25 25 59 38.5t73 13.5q62 0 109 -32.5t72.5 -92.5t25.5 -141q0 -87 -27.5 -150.5t-77.5 -97.5t-116 -34q-34 0 -65 10t-53 29v-237q0 -9 -11.5 -12t-53.5 -3h-5
q-32 0 -46 1.5zM373.5 149.5q27.5 42.5 27.5 122.5q0 82 -33 120q-25 29 -75 29q-22 0 -43.5 -7t-32.5 -19q-8 -9 -11 -21.5t-3 -32.5v-196q18 -18 41.5 -28t47.5 -10q54 0 81.5 42.5z" />
    <glyph glyph-name="q" unicode="q" horiz-adv-x="577" 
d="M418.5 -222q-15.5 1 -20 4t-6.5 10q-7 31 -13 98t-6 148q-51 -48 -125 -48q-98 0 -154.5 71.5t-56.5 194.5q0 85 33 148.5t95.5 98.5t149.5 35q47 0 99 -14t83 -33q8 -5 10.5 -10t2.5 -15v-397q0 -77 5.5 -152t13.5 -125q1 -6 -2 -9t-16.5 -4.5t-43.5 -1.5h-8
q-25 0 -40.5 1zM327.5 113.5q20.5 6.5 31.5 18.5q8 9 11 21.5t3 32.5v228q-30 9 -64 9q-65 0 -98 -48t-33 -119q0 -81 34 -120q25 -29 73 -29q22 0 42.5 6.5z" />
    <glyph glyph-name="r" unicode="r" horiz-adv-x="395" 
d="M89 1.5q-14 1.5 -17.5 4.5t-3.5 9v276q0 125 -7 219q-1 8 2.5 11.5t16 5t41.5 1.5h6q37 0 48 -2.5t13 -10.5q2 -7 6.5 -41t5.5 -62q25 63 58 94.5t80 31.5q17 0 26 -4q6 -2 7.5 -10t1.5 -40v-14q0 -22 -1 -34.5t-4 -15.5t-9 -4q-41 -4 -69 -21t-48 -47q-19 -29 -28 -74
t-9 -115v-144q0 -9 -11.5 -12t-53.5 -3h-5q-32 0 -46 1.5z" />
    <glyph glyph-name="racute" unicode="&#x155;" horiz-adv-x="395" 
d="M89 1.5q-14 1.5 -17.5 4.5t-3.5 9v276q0 125 -7 219q-1 8 2.5 11.5t16 5t41.5 1.5h6q37 0 48 -2.5t13 -10.5q2 -7 6.5 -41t5.5 -62q25 63 58 94.5t80 31.5q17 0 26 -4q6 -2 7.5 -10t1.5 -40v-14q0 -22 -1 -34.5t-4 -15.5t-9 -4q-41 -4 -69 -21t-48 -47q-19 -29 -28 -74
t-9 -115v-144q0 -9 -11.5 -12t-53.5 -3h-5q-32 0 -46 1.5zM132 599q-6 3 -1 12l106 163q4 7 13.5 9.5t36.5 2.5h48q32 0 32 -9q0 -2 -3 -7l-130 -163q-5 -6 -14 -8.5t-27 -2.5h-38q-17 0 -23 3z" />
    <glyph glyph-name="rcaron" unicode="&#x159;" horiz-adv-x="395" 
d="M89 1.5q-14 1.5 -17.5 4.5t-3.5 9v276q0 125 -7 219q-1 8 2.5 11.5t16 5t41.5 1.5h6q37 0 48 -2.5t13 -10.5q2 -7 6.5 -41t5.5 -62q25 63 58 94.5t80 31.5q17 0 26 -4q6 -2 7.5 -10t1.5 -40v-14q0 -22 -1 -34.5t-4 -15.5t-9 -4q-41 -4 -69 -21t-48 -47q-19 -29 -28 -74
t-9 -115v-144q0 -9 -11.5 -12t-53.5 -3h-5q-32 0 -46 1.5zM180.5 601q-12.5 3 -21.5 13l-91 97q-5 5 -5 10q0 8 17 25l10 10q9 9 15.5 14.5t11.5 5.5q3 0 10 -5l101 -88l101 88q7 5 10 5q5 0 11.5 -5.5t15.5 -14.5l10 -10q17 -17 17 -25q0 -5 -5 -10l-91 -97
q-9 -10 -21.5 -13t-40.5 -3h-14q-28 0 -40.5 3z" />
    <glyph glyph-name="rcommaaccent" unicode="&#x157;" horiz-adv-x="395" 
d="M89 1.5q-14 1.5 -17.5 4.5t-3.5 9v276q0 125 -7 219q-1 8 2.5 11.5t16 5t41.5 1.5h6q37 0 48 -2.5t13 -10.5q2 -7 6.5 -41t5.5 -62q25 63 58 94.5t80 31.5q17 0 26 -4q6 -2 7.5 -10t1.5 -40v-14q0 -22 -1 -34.5t-4 -15.5t-9 -4q-41 -4 -69 -21t-48 -47q-19 -29 -28 -74
t-9 -115v-144q0 -9 -11.5 -12t-53.5 -3h-5q-32 0 -46 1.5zM67 -299q-6 4 -6 10q0 5 4 9q41 51 41 92q0 9 -3.5 16t-11.5 17q-9 11 -13.5 20t-4.5 22q0 22 17 38t44 16q29 0 47.5 -21.5t18.5 -54.5q0 -46 -25 -92t-71 -86q-7 -5 -10 -5q-4 0 -11 5z" />
    <glyph glyph-name="s" unicode="s" horiz-adv-x="478" 
d="M121 6.5q-49 16.5 -81 43.5q-5 5 -5 10q0 10 14 35l10 18q13 23 21 30t16 1q30 -20 63.5 -31.5t64.5 -11.5q39 0 61.5 13t22.5 34q0 20 -21 31.5t-65 23.5q-53 15 -86.5 31t-58.5 48.5t-25 86.5q0 51 27 89.5t74 59t106 20.5q99 0 165 -50q6 -4 6 -10q0 -7 -18 -39
l-9 -14q-18 -32 -28 -32q-4 0 -8 3q-51 32 -102 32q-45 0 -65 -17q-14 -12 -14 -29q0 -19 20.5 -30.5t66.5 -25.5q51 -15 85 -31t59 -47.5t25 -81.5q0 -34 -13.5 -66t-37.5 -55q-57 -55 -165 -55q-56 0 -105 16.5z" />
    <glyph glyph-name="sacute" unicode="&#x15b;" horiz-adv-x="478" 
d="M121 6.5q-49 16.5 -81 43.5q-5 5 -5 10q0 10 14 35l10 18q13 23 21 30t16 1q30 -20 63.5 -31.5t64.5 -11.5q39 0 61.5 13t22.5 34q0 20 -21 31.5t-65 23.5q-53 15 -86.5 31t-58.5 48.5t-25 86.5q0 51 27 89.5t74 59t106 20.5q99 0 165 -50q6 -4 6 -10q0 -7 -18 -39
l-9 -14q-18 -32 -28 -32q-4 0 -8 3q-51 32 -102 32q-45 0 -65 -17q-14 -12 -14 -29q0 -19 20.5 -30.5t66.5 -25.5q51 -15 85 -31t59 -47.5t25 -81.5q0 -34 -13.5 -66t-37.5 -55q-57 -55 -165 -55q-56 0 -105 16.5zM159 599q-6 3 -1 12l106 163q4 7 13.5 9.5t36.5 2.5h48
q32 0 32 -9q0 -2 -3 -7l-130 -163q-5 -6 -14 -8.5t-27 -2.5h-38q-17 0 -23 3z" />
    <glyph glyph-name="scaron" unicode="&#x161;" horiz-adv-x="478" 
d="M121 6.5q-49 16.5 -81 43.5q-5 5 -5 10q0 10 14 35l10 18q13 23 21 30t16 1q30 -20 63.5 -31.5t64.5 -11.5q39 0 61.5 13t22.5 34q0 20 -21 31.5t-65 23.5q-53 15 -86.5 31t-58.5 48.5t-25 86.5q0 51 27 89.5t74 59t106 20.5q99 0 165 -50q6 -4 6 -10q0 -7 -18 -39
l-9 -14q-18 -32 -28 -32q-4 0 -8 3q-51 32 -102 32q-45 0 -65 -17q-14 -12 -14 -29q0 -19 20.5 -30.5t66.5 -25.5q51 -15 85 -31t59 -47.5t25 -81.5q0 -34 -13.5 -66t-37.5 -55q-57 -55 -165 -55q-56 0 -105 16.5zM207.5 601q-12.5 3 -21.5 13l-91 97q-5 5 -5 10q0 8 17 25
l10 10q9 9 15.5 14.5t11.5 5.5q3 0 10 -5l101 -88l101 88q7 5 10 5q5 0 11.5 -5.5t15.5 -14.5l10 -10q17 -17 17 -25q0 -5 -5 -10l-91 -97q-9 -10 -21.5 -13t-40.5 -3h-14q-28 0 -40.5 3z" />
    <glyph glyph-name="scedilla" unicode="&#x15f;" horiz-adv-x="478" 
d="M206.5 351.5q20.5 -11.5 66.5 -25.5q51 -15 85 -31t59 -47.5t25 -81.5q0 -34 -13.5 -66t-37.5 -55q-45 -43 -119 -52l-3 -30q48 -2 77 -25t29 -69q0 -45 -32.5 -76.5t-94.5 -31.5q-47 0 -78 13q-4 2 -5.5 4t-1.5 7q0 9 4 24l3 11q5 18 9 23.5t13 2.5q21 -6 46 -6
q20 0 29.5 8t9.5 21q0 30 -45 30q-31 0 -60 -4l14 97q-44 5 -82 20.5t-64 37.5q-5 5 -5 10q0 10 14 35l10 18q13 23 21 30t16 1q30 -20 63.5 -31.5t64.5 -11.5q39 0 61.5 13t22.5 34q0 20 -21 31.5t-65 23.5q-53 15 -86.5 31t-58.5 48.5t-25 86.5q0 51 27 89.5t74 59
t106 20.5q99 0 165 -50q6 -4 6 -10q0 -7 -18 -39l-9 -14q-18 -32 -28 -32q-4 0 -8 3q-51 32 -102 32q-45 0 -65 -17q-14 -12 -14 -29q0 -19 20.5 -30.5z" />
    <glyph glyph-name="scircumflex" unicode="&#x15d;" horiz-adv-x="478" 
d="M121 6.5q-49 16.5 -81 43.5q-5 5 -5 10q0 10 14 35l10 18q13 23 21 30t16 1q30 -20 63.5 -31.5t64.5 -11.5q39 0 61.5 13t22.5 34q0 20 -21 31.5t-65 23.5q-53 15 -86.5 31t-58.5 48.5t-25 86.5q0 51 27 89.5t74 59t106 20.5q99 0 165 -50q6 -4 6 -10q0 -7 -18 -39
l-9 -14q-18 -32 -28 -32q-4 0 -8 3q-51 32 -102 32q-45 0 -65 -17q-14 -12 -14 -29q0 -19 20.5 -30.5t66.5 -25.5q51 -15 85 -31t59 -47.5t25 -81.5q0 -34 -13.5 -66t-37.5 -55q-57 -55 -165 -55q-56 0 -105 16.5zM144 598q-5 0 -11.5 5.5t-15.5 14.5l-10 10q-17 17 -17 25
q0 5 5 10l91 97q9 10 21.5 13t40.5 3h14q28 0 40.5 -3t21.5 -13l91 -97q5 -5 5 -10q0 -8 -17 -25l-10 -10q-9 -9 -15.5 -14.5t-11.5 -5.5q-3 0 -10 5l-101 88l-101 -88q-7 -5 -10 -5z" />
    <glyph glyph-name="scommaaccent" unicode="&#x219;" horiz-adv-x="478" 
d="M121 6.5q-49 16.5 -81 43.5q-5 5 -5 10q0 10 14 35l10 18q13 23 21 30t16 1q30 -20 63.5 -31.5t64.5 -11.5q39 0 61.5 13t22.5 34q0 20 -21 31.5t-65 23.5q-53 15 -86.5 31t-58.5 48.5t-25 86.5q0 51 27 89.5t74 59t106 20.5q99 0 165 -50q6 -4 6 -10q0 -7 -18 -39
l-9 -14q-18 -32 -28 -32q-4 0 -8 3q-51 32 -102 32q-45 0 -65 -17q-14 -12 -14 -29q0 -19 20.5 -30.5t66.5 -25.5q51 -15 85 -31t59 -47.5t25 -81.5q0 -34 -13.5 -66t-37.5 -55q-57 -55 -165 -55q-56 0 -105 16.5zM165 -299q-6 4 -6 10q0 5 4 9q41 51 41 92q0 9 -3.5 16
t-11.5 17q-9 11 -13.5 20t-4.5 22q0 22 17 38t44 16q29 0 47.5 -21.5t18.5 -54.5q0 -46 -25 -92t-71 -86q-7 -5 -10 -5q-4 0 -11 5z" />
    <glyph glyph-name="germandbls" unicode="&#xdf;" horiz-adv-x="688" 
d="M337.5 6q-46.5 16 -78.5 44q-5 5 -5 10q0 10 14 35l10 18q13 23 21 30t16 1q65 -43 123 -43q40 0 61 13t21 34q0 19 -19 30.5t-62 27.5q-46 17 -76 32.5t-52 45t-22 75.5q0 45 21.5 73.5t61.5 59.5q32 26 48.5 46t16.5 48q0 34 -29 54t-76 20q-56 0 -89 -33
q-21 -22 -30.5 -54t-9.5 -78v-480q0 -9 -11.5 -12t-53.5 -3h-5q-32 0 -46 1.5t-17.5 4.5t-3.5 9v488q0 70 18.5 117.5t52.5 80.5q35 34 84 51.5t110 17.5q70 0 126.5 -22.5t88.5 -63.5t32 -94q0 -47 -25.5 -79.5t-69.5 -66.5q-30 -24 -42.5 -37.5t-12.5 -29.5
q0 -20 19 -31.5t60 -25.5q45 -16 74.5 -31.5t51 -45.5t21.5 -77q0 -56 -30 -95.5t-78.5 -60t-105.5 -20.5q-56 0 -102.5 16z" />
    <glyph glyph-name="longs" unicode="&#x17f;" horiz-adv-x="337" 
d="M120 1.5q-14 1.5 -17.5 4.5t-3.5 9v406h-70q-8 0 -10.5 8.5t-2.5 41.5v7q0 33 2.5 41.5t10.5 8.5h70v24q0 108 56 166q51 52 144 52q58 0 110 -19q7 -3 7 -13q0 -13 -5 -33l-4 -17q-6 -25 -10.5 -33t-10.5 -6q-37 8 -64 8q-48 0 -67 -26t-19 -83v-533q0 -9 -11.5 -12
t-53.5 -3h-5q-32 0 -46 1.5z" />
    <glyph glyph-name="t" unicode="t" horiz-adv-x="405" 
d="M137 31q-21 21 -31 53.5t-10 81.5v255h-69q-8 0 -10.5 8.5t-2.5 41.5v7q0 33 2.5 41.5t10.5 8.5h69v129q0 6 3.5 9t17.5 4.5t46 1.5h5q42 0 53.5 -3t11.5 -12v-129h119q8 0 10.5 -8.5t2.5 -41.5v-7q0 -33 -2.5 -41.5t-10.5 -8.5h-119v-247q0 -22 4 -35t13 -21
q16 -14 44 -14q22 0 52 10q8 2 13 -5.5t13 -34.5l3 -10q8 -27 8 -35q0 -9 -10 -14q-24 -12 -54.5 -18.5t-60.5 -6.5q-80 0 -121 41z" />
    <glyph glyph-name="tbar" unicode="&#x167;" horiz-adv-x="405" 
d="M137 31q-21 21 -31 53.5t-10 81.5v55h-64q-8 0 -11 9t-3 40t3 40t11 9h64v102h-69q-8 0 -10.5 8.5t-2.5 41.5v7q0 33 2.5 41.5t10.5 8.5h69v129q0 6 3.5 9t17.5 4.5t46 1.5h5q42 0 53.5 -3t11.5 -12v-129h119q8 0 10.5 -8.5t2.5 -41.5v-7q0 -33 -2.5 -41.5t-10.5 -8.5
h-119v-102h101q8 0 11 -9t3 -40t-3 -40t-11 -9h-101v-47q0 -22 4 -35t13 -21q16 -14 44 -14q22 0 52 10q8 2 13 -5.5t13 -34.5l3 -10q8 -27 8 -35q0 -9 -10 -14q-24 -12 -54.5 -18.5t-60.5 -6.5q-80 0 -121 41z" />
    <glyph glyph-name="tcaron" unicode="&#x165;" horiz-adv-x="405" 
d="M137 31q-21 21 -31 53.5t-10 81.5v255h-69q-8 0 -10.5 8.5t-2.5 41.5v7q0 33 2.5 41.5t10.5 8.5h69v129q0 6 3.5 9t17.5 4.5t46 1.5h5q42 0 53.5 -3t11.5 -12v-129h119q8 0 10.5 -8.5t2.5 -41.5v-7q0 -33 -2.5 -41.5t-10.5 -8.5h-119v-247q0 -22 4 -35t13 -21
q16 -14 44 -14q22 0 52 10q8 2 13 -5.5t13 -34.5l3 -10q8 -27 8 -35q0 -9 -10 -14q-24 -12 -54.5 -18.5t-60.5 -6.5q-80 0 -121 41zM291 610q-6 4 -6 10q0 5 4 9q41 51 41 92q0 9 -3.5 16t-11.5 17q-9 11 -13.5 20t-4.5 22q0 22 17 38t44 16q29 0 47.5 -21.5t18.5 -54.5
q0 -46 -25 -92t-71 -86q-7 -5 -10 -5q-4 0 -11 5z" />
    <glyph glyph-name="uni0163" unicode="&#x163;" horiz-adv-x="405" 
d="M137 31q-21 21 -31 53.5t-10 81.5v255h-69q-8 0 -10.5 8.5t-2.5 41.5v7q0 33 2.5 41.5t10.5 8.5h69v129q0 6 3.5 9t17.5 4.5t46 1.5h5q42 0 53.5 -3t11.5 -12v-129h119q8 0 10.5 -8.5t2.5 -41.5v-7q0 -33 -2.5 -41.5t-10.5 -8.5h-119v-247q0 -22 4 -35t13 -21
q16 -14 44 -14q22 0 52 10q8 2 13 -5.5t13 -34.5l3 -10q8 -27 8 -35q0 -9 -10 -14q-24 -12 -54.5 -18.5t-60.5 -6.5q-80 0 -121 41zM169 -299q-6 4 -6 10q0 5 4 9q41 51 41 92q0 9 -3.5 16t-11.5 17q-9 11 -13.5 20t-4.5 22q0 22 17 38t44 16q29 0 47.5 -21.5t18.5 -54.5
q0 -46 -25 -92t-71 -86q-7 -5 -10 -5q-4 0 -11 5z" />
    <glyph glyph-name="uni021B" unicode="&#x21b;" horiz-adv-x="405" 
d="M137 31q-21 21 -31 53.5t-10 81.5v255h-69q-8 0 -10.5 8.5t-2.5 41.5v7q0 33 2.5 41.5t10.5 8.5h69v129q0 6 3.5 9t17.5 4.5t46 1.5h5q42 0 53.5 -3t11.5 -12v-129h119q8 0 10.5 -8.5t2.5 -41.5v-7q0 -33 -2.5 -41.5t-10.5 -8.5h-119v-247q0 -22 4 -35t13 -21
q16 -14 44 -14q22 0 52 10q8 2 13 -5.5t13 -34.5l3 -10q8 -27 8 -35q0 -9 -10 -14q-24 -12 -54.5 -18.5t-60.5 -6.5q-80 0 -121 41zM169 -299q-6 4 -6 10q0 5 4 9q41 51 41 92q0 9 -3.5 16t-11.5 17q-9 11 -13.5 20t-4.5 22q0 22 17 38t44 16q29 0 47.5 -21.5t18.5 -54.5
q0 -46 -25 -92t-71 -86q-7 -5 -10 -5q-4 0 -11 5z" />
    <glyph glyph-name="u" unicode="u" horiz-adv-x="587" 
d="M110 44q-25 28 -36 66t-11 95v308q0 6 3.5 9t17.5 4.5t46 1.5h5q42 0 53.5 -3t11.5 -12v-270q0 -52 4 -73t16 -35q20 -23 66 -23q40 0 66 16q15 9 20.5 21t7.5 32q2 23 2 98v234q0 6 3.5 9t17.5 4.5t46 1.5h5q42 0 53.5 -3t11.5 -12v-276q0 -124 7 -219q1 -8 -2.5 -11.5
t-16 -5t-41.5 -1.5h-5q-37 0 -48 2.5t-14 10.5t-7 40q-25 -29 -62 -46t-82 -17q-90 0 -138 54z" />
    <glyph glyph-name="uacute" unicode="&#xfa;" horiz-adv-x="587" 
d="M110 44q-25 28 -36 66t-11 95v308q0 6 3.5 9t17.5 4.5t46 1.5h5q42 0 53.5 -3t11.5 -12v-270q0 -52 4 -73t16 -35q20 -23 66 -23q40 0 66 16q15 9 20.5 21t7.5 32q2 23 2 98v234q0 6 3.5 9t17.5 4.5t46 1.5h5q42 0 53.5 -3t11.5 -12v-276q0 -124 7 -219q1 -8 -2.5 -11.5
t-16 -5t-41.5 -1.5h-5q-37 0 -48 2.5t-14 10.5t-7 40q-25 -29 -62 -46t-82 -17q-90 0 -138 54zM197 599q-6 3 -1 12l106 163q4 7 13.5 9.5t36.5 2.5h48q32 0 32 -9q0 -2 -3 -7l-130 -163q-5 -6 -14 -8.5t-27 -2.5h-38q-17 0 -23 3z" />
    <glyph glyph-name="ubreve" unicode="&#x16d;" horiz-adv-x="587" 
d="M110 44q-25 28 -36 66t-11 95v308q0 6 3.5 9t17.5 4.5t46 1.5h5q42 0 53.5 -3t11.5 -12v-270q0 -52 4 -73t16 -35q20 -23 66 -23q40 0 66 16q15 9 20.5 21t7.5 32q2 23 2 98v234q0 6 3.5 9t17.5 4.5t46 1.5h5q42 0 53.5 -3t11.5 -12v-276q0 -124 7 -219q1 -8 -2.5 -11.5
t-16 -5t-41.5 -1.5h-5q-37 0 -48 2.5t-14 10.5t-7 40q-25 -29 -62 -46t-82 -17q-90 0 -138 54zM182.5 644q-40.5 37 -44.5 104q0 9 8 11.5t35 2.5h15q22 0 29 -2.5t8 -9.5q10 -57 60 -57t60 57q1 7 8 9.5t29 2.5h15q27 0 35 -2.5t8 -11.5q-4 -67 -44.5 -104t-110.5 -37
t-110.5 37z" />
    <glyph glyph-name="ucircumflex" unicode="&#xfb;" horiz-adv-x="587" 
d="M110 44q-25 28 -36 66t-11 95v308q0 6 3.5 9t17.5 4.5t46 1.5h5q42 0 53.5 -3t11.5 -12v-270q0 -52 4 -73t16 -35q20 -23 66 -23q40 0 66 16q15 9 20.5 21t7.5 32q2 23 2 98v234q0 6 3.5 9t17.5 4.5t46 1.5h5q42 0 53.5 -3t11.5 -12v-276q0 -124 7 -219q1 -8 -2.5 -11.5
t-16 -5t-41.5 -1.5h-5q-37 0 -48 2.5t-14 10.5t-7 40q-25 -29 -62 -46t-82 -17q-90 0 -138 54zM182 598q-5 0 -11.5 5.5t-15.5 14.5l-10 10q-17 17 -17 25q0 5 5 10l91 97q9 10 21.5 13t40.5 3h14q28 0 40.5 -3t21.5 -13l91 -97q5 -5 5 -10q0 -8 -17 -25l-10 -10
q-9 -9 -15.5 -14.5t-11.5 -5.5q-3 0 -10 5l-101 88l-101 -88q-7 -5 -10 -5z" />
    <glyph glyph-name="udieresis" unicode="&#xfc;" horiz-adv-x="587" 
d="M110 44q-25 28 -36 66t-11 95v308q0 6 3.5 9t17.5 4.5t46 1.5h5q42 0 53.5 -3t11.5 -12v-270q0 -52 4 -73t16 -35q20 -23 66 -23q40 0 66 16q15 9 20.5 21t7.5 32q2 23 2 98v234q0 6 3.5 9t17.5 4.5t46 1.5h5q42 0 53.5 -3t11.5 -12v-276q0 -124 7 -219q1 -8 -2.5 -11.5
t-16 -5t-41.5 -1.5h-5q-37 0 -48 2.5t-14 10.5t-7 40q-25 -29 -62 -46t-82 -17q-90 0 -138 54zM132 630q-21 20 -21 49q0 30 21 50.5t52 20.5q32 0 52.5 -20.5t20.5 -50.5q0 -29 -20.5 -49t-52.5 -20q-31 0 -52 20zM349 630q-20 20 -20 49q0 30 20 50.5t51 20.5
q33 0 54 -20.5t21 -50.5q0 -29 -21 -49t-54 -20q-31 0 -51 20z" />
    <glyph glyph-name="ugrave" unicode="&#xf9;" horiz-adv-x="587" 
d="M110 44q-25 28 -36 66t-11 95v308q0 6 3.5 9t17.5 4.5t46 1.5h5q42 0 53.5 -3t11.5 -12v-270q0 -52 4 -73t16 -35q20 -23 66 -23q40 0 66 16q15 9 20.5 21t7.5 32q2 23 2 98v234q0 6 3.5 9t17.5 4.5t46 1.5h5q42 0 53.5 -3t11.5 -12v-276q0 -124 7 -219q1 -8 -2.5 -11.5
t-16 -5t-41.5 -1.5h-5q-37 0 -48 2.5t-14 10.5t-7 40q-25 -29 -62 -46t-82 -17q-90 0 -138 54zM301 598.5q-9 2.5 -14 8.5l-130 163q-3 5 -3 7q0 9 32 9h48q27 0 36.5 -2.5t13.5 -9.5l106 -163q2 -3 2 -7q0 -8 -26 -8h-38q-18 0 -27 2.5z" />
    <glyph glyph-name="uhungarumlaut" unicode="&#x171;" horiz-adv-x="587" 
d="M110 44q-25 28 -36 66t-11 95v308q0 6 3.5 9t17.5 4.5t46 1.5h5q42 0 53.5 -3t11.5 -12v-270q0 -52 4 -73t16 -35q20 -23 66 -23q40 0 66 16q15 9 20.5 21t7.5 32q2 23 2 98v234q0 6 3.5 9t17.5 4.5t46 1.5h5q42 0 53.5 -3t11.5 -12v-276q0 -124 7 -219q1 -8 -2.5 -11.5
t-16 -5t-41.5 -1.5h-5q-37 0 -48 2.5t-14 10.5t-7 40q-25 -29 -62 -46t-82 -17q-90 0 -138 54zM109.5 606q-5.5 3 -0.5 11l92 157q4 7 13.5 9.5t34.5 2.5h43q22 0 27.5 -3.5t0.5 -11.5l-116 -157q-5 -7 -13 -9t-26 -2h-33q-17 0 -22.5 3zM309.5 606q-5.5 3 -0.5 11l92 157
q4 7 13.5 9.5t34.5 2.5h43q22 0 27.5 -3.5t0.5 -11.5l-116 -157q-5 -7 -13 -9t-26 -2h-33q-17 0 -22.5 3z" />
    <glyph glyph-name="umacron" unicode="&#x16b;" horiz-adv-x="587" 
d="M110 44q-25 28 -36 66t-11 95v308q0 6 3.5 9t17.5 4.5t46 1.5h5q42 0 53.5 -3t11.5 -12v-270q0 -52 4 -73t16 -35q20 -23 66 -23q40 0 66 16q15 9 20.5 21t7.5 32q2 23 2 98v234q0 6 3.5 9t17.5 4.5t46 1.5h5q42 0 53.5 -3t11.5 -12v-276q0 -124 7 -219q1 -8 -2.5 -11.5
t-16 -5t-41.5 -1.5h-5q-37 0 -48 2.5t-14 10.5t-7 40q-25 -29 -62 -46t-82 -17q-90 0 -138 54zM147.5 647.5q-2.5 8.5 -2.5 32.5v14q0 24 2.5 32.5t10.5 8.5h270q8 0 10.5 -8.5t2.5 -32.5v-14q0 -24 -2.5 -32.5t-10.5 -8.5h-270q-8 0 -10.5 8.5z" />
    <glyph glyph-name="uogonek" unicode="&#x173;" horiz-adv-x="587" 
d="M334.5 -208q-34.5 32 -34.5 85q0 41 23.5 74.5t74.5 63.5q-2 7 -3.5 19.5t-2.5 18.5q-25 -29 -62 -46t-82 -17q-90 0 -138 54q-25 28 -36 66t-11 95v308q0 6 3.5 9t17.5 4.5t46 1.5h5q42 0 53.5 -3t11.5 -12v-270q0 -52 4 -73t16 -35q20 -23 66 -23q40 0 66 16
q15 9 20.5 21t7.5 32q2 23 2 98v234q0 6 3.5 9t17.5 4.5t46 1.5h5q42 0 53.5 -3t11.5 -12v-276q0 -143 7 -219v-4q0 -4 -2 -6.5t-9 -4.5q-48 -11 -81 -40.5t-33 -68.5q0 -22 11.5 -33.5t30.5 -11.5q16 0 40 8q8 2 13 -2t11 -23l4 -12q6 -18 6 -26t-8 -13q-17 -9 -40 -15
t-43 -6q-57 0 -91.5 32z" />
    <glyph glyph-name="uring" unicode="&#x16f;" horiz-adv-x="587" 
d="M110 44q-25 28 -36 66t-11 95v308q0 6 3.5 9t17.5 4.5t46 1.5h5q42 0 53.5 -3t11.5 -12v-270q0 -52 4 -73t16 -35q20 -23 66 -23q40 0 66 16q15 9 20.5 21t7.5 32q2 23 2 98v234q0 6 3.5 9t17.5 4.5t46 1.5h5q42 0 53.5 -3t11.5 -12v-276q0 -124 7 -219q1 -8 -2.5 -11.5
t-16 -5t-41.5 -1.5h-5q-37 0 -48 2.5t-14 10.5t-7 40q-25 -29 -62 -46t-82 -17q-90 0 -138 54zM212.5 623q-33.5 32 -33.5 78q0 45 33.5 77t80.5 32t80 -31.5t33 -77.5t-33 -78t-80 -32t-80.5 32zM320 672.5q11 11.5 11 28.5q0 16 -11 27.5t-27 11.5q-17 0 -28.5 -11
t-11.5 -28t11.5 -28.5t28.5 -11.5q16 0 27 11.5z" />
    <glyph glyph-name="utilde" unicode="&#x169;" horiz-adv-x="587" 
d="M110 44q-25 28 -36 66t-11 95v308q0 6 3.5 9t17.5 4.5t46 1.5h5q42 0 53.5 -3t11.5 -12v-270q0 -52 4 -73t16 -35q20 -23 66 -23q40 0 66 16q15 9 20.5 21t7.5 32q2 23 2 98v234q0 6 3.5 9t17.5 4.5t46 1.5h5q42 0 53.5 -3t11.5 -12v-276q0 -124 7 -219q1 -8 -2.5 -11.5
t-16 -5t-41.5 -1.5h-5q-37 0 -48 2.5t-14 10.5t-7 40q-25 -29 -62 -46t-82 -17q-90 0 -138 54zM316.5 625.5q-15.5 5.5 -37.5 16.5q-12 6 -23.5 10.5t-20.5 4.5q-27 0 -59 -32q-4 -4 -12 -1t-24 19l-4 4q-20 20 -20 28q0 3 4 9q54 67 115 67q19 0 34.5 -5.5t37.5 -16.5
q11 -6 22.5 -10.5t20.5 -4.5q27 0 59 32q4 4 12 1t24 -19l4 -4q20 -20 20 -28q0 -3 -4 -9q-54 -67 -115 -67q-18 0 -33.5 5.5z" />
    <glyph glyph-name="v" unicode="v" horiz-adv-x="524" 
d="M200.5 2.5q-12.5 2.5 -15.5 10.5l-179 497q-2 7 1 10.5t18 5.5t47 2h9q39 0 52.5 -3t16.5 -12l68 -208q36 -109 50 -166q27 70 60.5 184t49.5 190q2 9 12.5 12t50.5 3h6q68 0 64 -15q-22 -114 -76.5 -259t-107.5 -242q-3 -6 -16.5 -9t-50.5 -3h-9q-38 0 -50.5 2.5z" />
    <glyph glyph-name="w" unicode="w" horiz-adv-x="791" 
d="M164.5 2.5q-13.5 2.5 -15.5 10.5l-141 496q-2 8 1 11.5t17.5 5.5t46.5 2h3q41 0 54 -3.5t15 -12.5l48 -187q11 -44 23.5 -107t15.5 -91q4 26 19 87.5t28 107.5l52 190q3 10 15 13t52 3h9q38 0 49.5 -3t14.5 -11l49 -188q27 -102 43 -196q24 76 46 179.5t38 202.5
q1 7 5 10t17 4.5t43 1.5h4q37 0 48 -3t10 -13q-18 -112 -55.5 -248t-83.5 -250q-4 -10 -16.5 -12t-57.5 -2h-8q-48 0 -61 2.5t-15 10.5l-45 164q-17 62 -27 107t-14 84q-8 -82 -41 -192l-48 -163q-2 -7 -16 -10t-56 -3h-10q-42 0 -55.5 2.5z" />
    <glyph glyph-name="wacute" unicode="&#x1e83;" horiz-adv-x="791" 
d="M164.5 2.5q-13.5 2.5 -15.5 10.5l-141 496q-2 8 1 11.5t17.5 5.5t46.5 2h3q41 0 54 -3.5t15 -12.5l48 -187q11 -44 23.5 -107t15.5 -91q4 26 19 87.5t28 107.5l52 190q3 10 15 13t52 3h9q38 0 49.5 -3t14.5 -11l49 -188q27 -102 43 -196q24 76 46 179.5t38 202.5
q1 7 5 10t17 4.5t43 1.5h4q37 0 48 -3t10 -13q-18 -112 -55.5 -248t-83.5 -250q-4 -10 -16.5 -12t-57.5 -2h-8q-48 0 -61 2.5t-15 10.5l-45 164q-17 62 -27 107t-14 84q-8 -82 -41 -192l-48 -163q-2 -7 -16 -10t-56 -3h-10q-42 0 -55.5 2.5zM306 599q-6 3 -1 12l106 163
q4 7 13.5 9.5t36.5 2.5h48q32 0 32 -9q0 -2 -3 -7l-130 -163q-5 -6 -14 -8.5t-27 -2.5h-38q-17 0 -23 3z" />
    <glyph glyph-name="wcircumflex" unicode="&#x175;" horiz-adv-x="791" 
d="M164.5 2.5q-13.5 2.5 -15.5 10.5l-141 496q-2 8 1 11.5t17.5 5.5t46.5 2h3q41 0 54 -3.5t15 -12.5l48 -187q11 -44 23.5 -107t15.5 -91q4 26 19 87.5t28 107.5l52 190q3 10 15 13t52 3h9q38 0 49.5 -3t14.5 -11l49 -188q27 -102 43 -196q24 76 46 179.5t38 202.5
q1 7 5 10t17 4.5t43 1.5h4q37 0 48 -3t10 -13q-18 -112 -55.5 -248t-83.5 -250q-4 -10 -16.5 -12t-57.5 -2h-8q-48 0 -61 2.5t-15 10.5l-45 164q-17 62 -27 107t-14 84q-8 -82 -41 -192l-48 -163q-2 -7 -16 -10t-56 -3h-10q-42 0 -55.5 2.5zM291 598q-5 0 -11.5 5.5
t-15.5 14.5l-10 10q-17 17 -17 25q0 5 5 10l91 97q9 10 21.5 13t40.5 3h14q28 0 40.5 -3t21.5 -13l91 -97q5 -5 5 -10q0 -8 -17 -25l-10 -10q-9 -9 -15.5 -14.5t-11.5 -5.5q-3 0 -10 5l-101 88l-101 -88q-7 -5 -10 -5z" />
    <glyph glyph-name="wdieresis" unicode="&#x1e85;" horiz-adv-x="791" 
d="M164.5 2.5q-13.5 2.5 -15.5 10.5l-141 496q-2 8 1 11.5t17.5 5.5t46.5 2h3q41 0 54 -3.5t15 -12.5l48 -187q11 -44 23.5 -107t15.5 -91q4 26 19 87.5t28 107.5l52 190q3 10 15 13t52 3h9q38 0 49.5 -3t14.5 -11l49 -188q27 -102 43 -196q24 76 46 179.5t38 202.5
q1 7 5 10t17 4.5t43 1.5h4q37 0 48 -3t10 -13q-18 -112 -55.5 -248t-83.5 -250q-4 -10 -16.5 -12t-57.5 -2h-8q-48 0 -61 2.5t-15 10.5l-45 164q-17 62 -27 107t-14 84q-8 -82 -41 -192l-48 -163q-2 -7 -16 -10t-56 -3h-10q-42 0 -55.5 2.5zM241 630q-21 20 -21 49
q0 30 21 50.5t52 20.5q32 0 52.5 -20.5t20.5 -50.5q0 -29 -20.5 -49t-52.5 -20q-31 0 -52 20zM458 630q-20 20 -20 49q0 30 20 50.5t51 20.5q33 0 54 -20.5t21 -50.5q0 -29 -21 -49t-54 -20q-31 0 -51 20z" />
    <glyph glyph-name="wgrave" unicode="&#x1e81;" horiz-adv-x="791" 
d="M164.5 2.5q-13.5 2.5 -15.5 10.5l-141 496q-2 8 1 11.5t17.5 5.5t46.5 2h3q41 0 54 -3.5t15 -12.5l48 -187q11 -44 23.5 -107t15.5 -91q4 26 19 87.5t28 107.5l52 190q3 10 15 13t52 3h9q38 0 49.5 -3t14.5 -11l49 -188q27 -102 43 -196q24 76 46 179.5t38 202.5
q1 7 5 10t17 4.5t43 1.5h4q37 0 48 -3t10 -13q-18 -112 -55.5 -248t-83.5 -250q-4 -10 -16.5 -12t-57.5 -2h-8q-48 0 -61 2.5t-15 10.5l-45 164q-17 62 -27 107t-14 84q-8 -82 -41 -192l-48 -163q-2 -7 -16 -10t-56 -3h-10q-42 0 -55.5 2.5zM410 598.5q-9 2.5 -14 8.5
l-130 163q-3 5 -3 7q0 9 32 9h48q27 0 36.5 -2.5t13.5 -9.5l106 -163q2 -3 2 -7q0 -8 -26 -8h-38q-18 0 -27 2.5z" />
    <glyph glyph-name="x" unicode="x" horiz-adv-x="510" 
d="M16.5 4.5q-12.5 4.5 -5.5 14.5l169 251q-34 43 -63 88l-102 151q-4 6 -4 9q0 6 12.5 8t45.5 2h17q45 0 61.5 -3.5t22.5 -12.5l38 -58q21 -33 50 -81q13 26 47 81l34 58q6 10 18 13t52 3h10q42 0 54.5 -4.5t5.5 -14.5l-88 -133q-32 -50 -70 -103q36 -46 67 -90l113 -166
q7 -11 -5.5 -14t-58.5 -3h-16q-42 0 -55 3t-20 13l-45 68l-12 18q-8 12 -22 34t-22 37l-41 -71l-11 -19l-40 -67q-6 -10 -18 -13t-52 -3h-12q-42 0 -54.5 4.5z" />
    <glyph glyph-name="y" unicode="y" horiz-adv-x="532" 
d="M28 -226q-30 7 -46 18q-6 4 -6 12q0 6 8 35l4 14q8 26 13.5 34t16.5 4q32 -10 62 -10q43 0 71 24.5t53 91.5l-180 513q-3 10 8 14t55 4h13q42 0 53.5 -3t14.5 -12l62 -196q32 -102 45 -180q14 73 44 178l58 198q3 9 14 12t49 3h13q43 0 53.5 -4t7.5 -14l-171 -501
q-30 -88 -63.5 -140t-79 -77t-110.5 -25q-32 0 -62 7z" />
    <glyph glyph-name="yacute" unicode="&#xfd;" horiz-adv-x="532" 
d="M28 -226q-30 7 -46 18q-6 4 -6 12q0 6 8 35l4 14q8 26 13.5 34t16.5 4q32 -10 62 -10q43 0 71 24.5t53 91.5l-180 513q-3 10 8 14t55 4h13q42 0 53.5 -3t14.5 -12l62 -196q32 -102 45 -180q14 73 44 178l58 198q3 9 14 12t49 3h13q43 0 53.5 -4t7.5 -14l-171 -501
q-30 -88 -63.5 -140t-79 -77t-110.5 -25q-32 0 -62 7zM182 599q-6 3 -1 12l106 163q4 7 13.5 9.5t36.5 2.5h48q32 0 32 -9q0 -2 -3 -7l-130 -163q-5 -6 -14 -8.5t-27 -2.5h-38q-17 0 -23 3z" />
    <glyph glyph-name="ycircumflex" unicode="&#x177;" horiz-adv-x="532" 
d="M28 -226q-30 7 -46 18q-6 4 -6 12q0 6 8 35l4 14q8 26 13.5 34t16.5 4q32 -10 62 -10q43 0 71 24.5t53 91.5l-180 513q-3 10 8 14t55 4h13q42 0 53.5 -3t14.5 -12l62 -196q32 -102 45 -180q14 73 44 178l58 198q3 9 14 12t49 3h13q43 0 53.5 -4t7.5 -14l-171 -501
q-30 -88 -63.5 -140t-79 -77t-110.5 -25q-32 0 -62 7zM167 598q-5 0 -11.5 5.5t-15.5 14.5l-10 10q-17 17 -17 25q0 5 5 10l91 97q9 10 21.5 13t40.5 3h14q28 0 40.5 -3t21.5 -13l91 -97q5 -5 5 -10q0 -8 -17 -25l-10 -10q-9 -9 -15.5 -14.5t-11.5 -5.5q-3 0 -10 5l-101 88
l-101 -88q-7 -5 -10 -5z" />
    <glyph glyph-name="ydieresis" unicode="&#xff;" horiz-adv-x="532" 
d="M28 -226q-30 7 -46 18q-6 4 -6 12q0 6 8 35l4 14q8 26 13.5 34t16.5 4q32 -10 62 -10q43 0 71 24.5t53 91.5l-180 513q-3 10 8 14t55 4h13q42 0 53.5 -3t14.5 -12l62 -196q32 -102 45 -180q14 73 44 178l58 198q3 9 14 12t49 3h13q43 0 53.5 -4t7.5 -14l-171 -501
q-30 -88 -63.5 -140t-79 -77t-110.5 -25q-32 0 -62 7zM117 630q-21 20 -21 49q0 30 21 50.5t52 20.5q32 0 52.5 -20.5t20.5 -50.5q0 -29 -20.5 -49t-52.5 -20q-31 0 -52 20zM334 630q-20 20 -20 49q0 30 20 50.5t51 20.5q33 0 54 -20.5t21 -50.5q0 -29 -21 -49t-54 -20
q-31 0 -51 20z" />
    <glyph glyph-name="ygrave" unicode="&#x1ef3;" horiz-adv-x="532" 
d="M28 -226q-30 7 -46 18q-6 4 -6 12q0 6 8 35l4 14q8 26 13.5 34t16.5 4q32 -10 62 -10q43 0 71 24.5t53 91.5l-180 513q-3 10 8 14t55 4h13q42 0 53.5 -3t14.5 -12l62 -196q32 -102 45 -180q14 73 44 178l58 198q3 9 14 12t49 3h13q43 0 53.5 -4t7.5 -14l-171 -501
q-30 -88 -63.5 -140t-79 -77t-110.5 -25q-32 0 -62 7zM286 598.5q-9 2.5 -14 8.5l-130 163q-3 5 -3 7q0 9 32 9h48q27 0 36.5 -2.5t13.5 -9.5l106 -163q2 -3 2 -7q0 -8 -26 -8h-38q-18 0 -27 2.5z" />
    <glyph glyph-name="z" unicode="z" horiz-adv-x="480" 
d="M43.5 2.5q-6.5 2.5 -6.5 11.5v36q0 16 3 26.5t12 23.5l219 322h-208q-8 0 -10.5 8.5t-2.5 42.5v4q0 34 2.5 42.5t10.5 8.5h343q23 0 29.5 -2.5t6.5 -11.5v-36q0 -16 -3 -26.5t-12 -23.5l-217 -322h225q8 0 10.5 -8.5t2.5 -42.5v-4q0 -34 -2.5 -42.5t-10.5 -8.5h-362
q-23 0 -29.5 2.5z" />
    <glyph glyph-name="zacute" unicode="&#x17a;" horiz-adv-x="480" 
d="M43.5 2.5q-6.5 2.5 -6.5 11.5v36q0 16 3 26.5t12 23.5l219 322h-208q-8 0 -10.5 8.5t-2.5 42.5v4q0 34 2.5 42.5t10.5 8.5h343q23 0 29.5 -2.5t6.5 -11.5v-36q0 -16 -3 -26.5t-12 -23.5l-217 -322h225q8 0 10.5 -8.5t2.5 -42.5v-4q0 -34 -2.5 -42.5t-10.5 -8.5h-362
q-23 0 -29.5 2.5zM164 599q-6 3 -1 12l106 163q4 7 13.5 9.5t36.5 2.5h48q32 0 32 -9q0 -2 -3 -7l-130 -163q-5 -6 -14 -8.5t-27 -2.5h-38q-17 0 -23 3z" />
    <glyph glyph-name="zcaron" unicode="&#x17e;" horiz-adv-x="480" 
d="M43.5 2.5q-6.5 2.5 -6.5 11.5v36q0 16 3 26.5t12 23.5l219 322h-208q-8 0 -10.5 8.5t-2.5 42.5v4q0 34 2.5 42.5t10.5 8.5h343q23 0 29.5 -2.5t6.5 -11.5v-36q0 -16 -3 -26.5t-12 -23.5l-217 -322h225q8 0 10.5 -8.5t2.5 -42.5v-4q0 -34 -2.5 -42.5t-10.5 -8.5h-362
q-23 0 -29.5 2.5zM212.5 601q-12.5 3 -21.5 13l-91 97q-5 5 -5 10q0 8 17 25l10 10q9 9 15.5 14.5t11.5 5.5q3 0 10 -5l101 -88l101 88q7 5 10 5q5 0 11.5 -5.5t15.5 -14.5l10 -10q17 -17 17 -25q0 -5 -5 -10l-91 -97q-9 -10 -21.5 -13t-40.5 -3h-14q-28 0 -40.5 3z" />
    <glyph glyph-name="zdotaccent" unicode="&#x17c;" horiz-adv-x="480" 
d="M43.5 2.5q-6.5 2.5 -6.5 11.5v36q0 16 3 26.5t12 23.5l219 322h-208q-8 0 -10.5 8.5t-2.5 42.5v4q0 34 2.5 42.5t10.5 8.5h343q23 0 29.5 -2.5t6.5 -11.5v-36q0 -16 -3 -26.5t-12 -23.5l-217 -322h225q8 0 10.5 -8.5t2.5 -42.5v-4q0 -34 -2.5 -42.5t-10.5 -8.5h-362
q-23 0 -29.5 2.5zM209 640.5q-22 21.5 -22 51.5t22 51t52 21t51 -21t21 -51t-21 -51.5t-51 -21.5t-52 21.5z" />
    <glyph glyph-name="iacute_j.loclNLD" horiz-adv-x="568" 
d="M91 1.5q-14 1.5 -17.5 4.5t-3.5 9v498q0 6 3.5 9t17.5 4.5t46 1.5h5q42 0 53.5 -3t11.5 -12v-498q0 -9 -11.5 -12t-53.5 -3h-5q-32 0 -46 1.5zM43 599q-6 3 -1 12l106 163q4 7 13.5 9.5t36.5 2.5h48q32 0 32 -9q0 -2 -3 -7l-130 -163q-5 -6 -14 -8.5t-27 -2.5h-38
q-17 0 -23 3zM249.5 -227.5q-28.5 5.5 -42.5 13.5q-9 4 -9 14q0 7 6 36l4 17q6 25 10.5 31t16.5 3q27 -6 54 -6q40 0 56 24.5t16 79.5v528q0 6 3.5 9t17.5 4.5t46 1.5h5q42 0 53.5 -3t11.5 -12v-508q0 -238 -192 -238q-28 0 -56.5 5.5zM334 599q-6 3 -1 12l106 163
q4 7 13.5 9.5t36.5 2.5h48q32 0 32 -9q0 -2 -3 -7l-130 -163q-5 -6 -14 -8.5t-27 -2.5h-38q-17 0 -23 3z" />
    <glyph glyph-name="cacute.loclPLK" horiz-adv-x="499" 
d="M192.5 5.5q-44.5 15.5 -76.5 44.5q-38 35 -58.5 89t-20.5 121q0 64 19 117t54 90q69 71 188 71q48 0 92 -15.5t78 -43.5q7 -6 7 -12q0 -9 -15 -38l-10 -19q-16 -33 -28 -33q-3 0 -8 3q-29 20 -54.5 29.5t-56.5 9.5q-55 0 -90 -38t-35 -114t33 -117t98 -41q29 0 54.5 7
t56.5 22q9 4 14 -2t18 -35l6 -14q12 -28 12 -36q0 -6 -7 -11q-33 -22 -78 -36t-94 -14q-54 0 -98.5 15.5zM237.5 599q-6.5 3 -4.5 12l48 163q2 8 10.5 10t35.5 2h44q24 0 31.5 -3.5t3.5 -12.5l-73 -163q-3 -6 -10.5 -8.5t-26.5 -2.5h-34q-18 0 -24.5 3z" />
    <glyph glyph-name="nacute.loclPLK" horiz-adv-x="589" 
d="M89 1.5q-14 1.5 -17.5 4.5t-3.5 9v276q0 125 -7 219q-1 8 2.5 11.5t16 5t41.5 1.5h5q37 0 48 -2.5t14 -10.5t7 -40q25 29 63 46t82 17q45 0 80.5 -14t58.5 -40q25 -28 36 -66t11 -95v-308q0 -9 -11.5 -12t-53.5 -3h-5q-32 0 -46 1.5t-17.5 4.5t-3.5 9v270q0 52 -4 73
t-16 35q-10 11 -27.5 17t-39.5 6q-41 0 -67 -16q-15 -9 -20.5 -21t-7.5 -32q-2 -23 -2 -98v-234q0 -9 -11.5 -12t-53.5 -3h-5q-32 0 -46 1.5zM268.5 599q-6.5 3 -4.5 12l48 163q2 8 10.5 10t35.5 2h44q24 0 31.5 -3.5t3.5 -12.5l-73 -163q-3 -6 -10.5 -8.5t-26.5 -2.5h-34
q-18 0 -24.5 3z" />
    <glyph glyph-name="oacute.loclPLK" horiz-adv-x="571" 
d="M100.5 58q-63.5 68 -63.5 196q0 136 66 210t191 74q113 0 176.5 -68t63.5 -196q0 -136 -66 -210t-191 -74q-113 0 -176.5 68zM393 268q0 152 -102 152q-113 0 -113 -160q0 -152 102 -152q113 0 113 160zM239.5 599q-6.5 3 -4.5 12l48 163q2 8 10.5 10t35.5 2h44
q24 0 31.5 -3.5t3.5 -12.5l-73 -163q-3 -6 -10.5 -8.5t-26.5 -2.5h-34q-18 0 -24.5 3z" />
    <glyph glyph-name="sacute.loclPLK" horiz-adv-x="478" 
d="M121 6.5q-49 16.5 -81 43.5q-5 5 -5 10q0 10 14 35l10 18q13 23 21 30t16 1q30 -20 63.5 -31.5t64.5 -11.5q39 0 61.5 13t22.5 34q0 20 -21 31.5t-65 23.5q-53 15 -86.5 31t-58.5 48.5t-25 86.5q0 51 27 89.5t74 59t106 20.5q99 0 165 -50q6 -4 6 -10q0 -7 -18 -39
l-9 -14q-18 -32 -28 -32q-4 0 -8 3q-51 32 -102 32q-45 0 -65 -17q-14 -12 -14 -29q0 -19 20.5 -30.5t66.5 -25.5q51 -15 85 -31t59 -47.5t25 -81.5q0 -34 -13.5 -66t-37.5 -55q-57 -55 -165 -55q-56 0 -105 16.5zM202.5 599q-6.5 3 -4.5 12l48 163q2 8 10.5 10t35.5 2h44
q24 0 31.5 -3.5t3.5 -12.5l-73 -163q-3 -6 -10.5 -8.5t-26.5 -2.5h-34q-18 0 -24.5 3z" />
    <glyph glyph-name="zacute.loclPLK" horiz-adv-x="480" 
d="M43.5 2.5q-6.5 2.5 -6.5 11.5v36q0 16 3 26.5t12 23.5l219 322h-208q-8 0 -10.5 8.5t-2.5 42.5v4q0 34 2.5 42.5t10.5 8.5h343q23 0 29.5 -2.5t6.5 -11.5v-36q0 -16 -3 -26.5t-12 -23.5l-217 -322h225q8 0 10.5 -8.5t2.5 -42.5v-4q0 -34 -2.5 -42.5t-10.5 -8.5h-362
q-23 0 -29.5 2.5zM207.5 599q-6.5 3 -4.5 12l48 163q2 8 10.5 10t35.5 2h44q24 0 31.5 -3.5t3.5 -12.5l-73 -163q-3 -6 -10.5 -8.5t-26.5 -2.5h-34q-18 0 -24.5 3z" />
    <glyph glyph-name="ordfeminine" unicode="&#xaa;" horiz-adv-x="409" 
d="M77.5 414.5q-37.5 46.5 -37.5 127.5q0 59 19.5 101.5t53 64.5t73.5 22q26 0 48.5 -11t34.5 -28l3 24q1 5 7.5 6.5t31.5 1.5h14q24 0 31 -2t7 -7l-1 -143v-40q0 -73 4 -145q1 -7 -4.5 -9t-32.5 -2h-14q-24 0 -31 1.5t-9 6.5q-2 3 -4 22q-15 -17 -40 -27t-51 -10
q-65 0 -102.5 46.5zM245 464q16 16 16 51v100q-20 31 -52 31q-34 0 -50 -25t-16 -76q0 -47 14.5 -71.5t48.5 -24.5q24 0 39 15z" />
    <glyph glyph-name="ordmasculine" unicode="&#xba;" horiz-adv-x="409" 
d="M82 413q-42 45 -42 129q0 90 44 139t126 49q75 0 117 -45t42 -129q0 -90 -44 -139t-126 -49q-75 0 -117 45zM266 552q0 95 -58 95q-65 0 -65 -101q0 -95 58 -95q65 0 65 101z" />
    <glyph glyph-name="uni0394" unicode="&#x394;" horiz-adv-x="673" 
d="M33.5 3q-7.5 3 -7.5 11v44q0 15 2 25.5t7 24.5l225 600q2 6 14 9t41 3h36q28 0 41 -2.5t16 -9.5l228 -600q9 -23 9 -50v-44q0 -8 -7.5 -11t-27.5 -3h-549q-20 0 -27.5 3zM478 125l-146 414l-145 -414h291z" />
    <glyph glyph-name="uni03A9" unicode="&#x3a9;" horiz-adv-x="758" 
d="M61.5 10q-3.5 10 -3.5 45v6q0 26 1.5 36.5t4.5 13.5t11 3h98q-47 40 -83 114t-36 151q0 110 43.5 189t117.5 120.5t164 41.5t164 -41.5t117.5 -120.5t43.5 -189q0 -77 -36 -151t-83 -114h98q8 0 11 -3t4.5 -13.5t1.5 -36.5v-6q0 -35 -3.5 -45t-13.5 -10h-263q-8 0 -11 2
t-4.5 12t-1.5 34v3q0 22 3 29t14 15q139 107 139 280q0 73 -23 126t-64 80.5t-93 27.5t-93 -27.5t-64 -80.5t-23 -126q0 -173 139 -280q11 -8 14 -15t3 -29v-3q0 -24 -1.5 -34t-4.5 -12t-11 -2h-263q-10 0 -13.5 10z" />
    <glyph glyph-name="uni03BC" unicode="&#x3bc;" horiz-adv-x="596" 
d="M109.5 -222q-15.5 1 -20 4t-6.5 10q-7 31 -13 98t-6 148v475q0 6 3.5 9t17.5 4.5t46 1.5h5q42 0 53.5 -3t11.5 -12v-270q0 -52 4 -73t16 -35q20 -23 66 -23q40 0 66 16q15 9 20.5 21t7.5 32q2 23 2 98v234q0 6 3.5 9t17.5 4.5t46 1.5h5q42 0 53.5 -3t11.5 -12v-379
q0 -17 6.5 -22.5t22.5 -5.5q9 0 11 -7t2 -34v-11q0 -26 -2 -35t-7 -11q-31 -12 -70 -12q-68 0 -90 57q-25 -29 -62 -46t-82 -17q-27 0 -47 4q4 -121 18 -202q1 -6 -2 -9t-16.5 -4.5t-43.5 -1.5h-8q-25 0 -40.5 1z" />
    <glyph glyph-name="pi" unicode="&#x3c0;" horiz-adv-x="698" 
d="M448 27q-18 19 -26 48t-8 72v274h-170v-406q0 -9 -11.5 -12t-53.5 -3h-5q-32 0 -46 1.5t-17.5 4.5t-3.5 9v406h-86q-8 0 -10.5 8.5t-2.5 41.5v7q0 33 2.5 41.5t10.5 8.5h616q8 0 10.5 -8.5t2.5 -41.5v-7q0 -33 -2.5 -41.5t-10.5 -8.5h-86v-266q0 -28 9 -41.5t30 -13.5
q22 0 50 12q6 2 9 1t7 -10t10 -30l2 -7q7 -24 7 -34q0 -9 -9 -14q-54 -28 -115 -28q-69 0 -103 37z" />
    <glyph glyph-name="zero" unicode="0" 
d="M103 80.5q-65 90.5 -65 266.5q0 185 69 284t196 99q119 0 184 -90.5t65 -266.5q0 -185 -69 -284t-196 -99q-119 0 -184 90.5zM409 366q0 127 -27 188t-83 61q-118 0 -118 -261q0 -127 27 -188t83 -61q118 0 118 261z" />
    <glyph glyph-name="one" unicode="1" 
d="M102.5 8.5q-2.5 8.5 -2.5 40.5v10q0 32 2.5 40.5t9.5 8.5h130v462l-123 -53q-9 -4 -16.5 3.5t-19.5 35.5l-6 14q-12 29 -12 38t8 12l174 81q25 11 40.5 15t32.5 4h25q23 0 29.5 -3t6.5 -12v-597h117q7 0 9.5 -8.5t2.5 -40.5v-10q0 -32 -2.5 -40.5t-9.5 -8.5h-386
q-7 0 -9.5 8.5z" />
    <glyph glyph-name="two" unicode="2" 
d="M71.5 2.5q-7.5 2.5 -7.5 12.5v33q0 22 3.5 34.5t17.5 29.5l134 163q73 89 101.5 140t28.5 103q0 46 -26 72.5t-71 26.5q-29 0 -59 -12t-65 -33q-5 -3 -8 -3q-10 0 -29 32l-12 21q-10 17 -10 27t11 18q39 28 90 45.5t100 17.5q103 0 162.5 -55.5t59.5 -151.5
q0 -68 -38 -137t-135 -178l-81 -91h251q7 0 9.5 -8.5t2.5 -40.5v-19q0 -32 -2.5 -40.5t-9.5 -8.5h-382q-28 0 -35.5 2.5z" />
    <glyph glyph-name="three" unicode="3" 
d="M141.5 4q-50.5 14 -86.5 39q-8 5 -8 13q0 11 11 34l9 18q12 24 19.5 31.5t15.5 2.5q70 -39 139 -39q55 0 87.5 29t32.5 79q0 52 -32 80q-18 16 -49 23t-80 7h-21q-7 0 -10 9t-3 40v9q0 31 3 40t10 9h25q78 0 109 27q32 27 32 73q0 41 -26.5 65.5t-67.5 24.5
q-48 0 -106 -29q-5 -3 -9 -3q-12 0 -28 31l-9 17q-13 25 -13 34q0 8 10 14q35 22 81 35t92 13q65 0 114 -25t75 -68.5t26 -99.5q0 -50 -29 -90.5t-79 -61.5q60 -18 94 -63t34 -110q0 -46 -14.5 -84.5t-42.5 -67.5q-68 -70 -201 -70q-54 0 -104.5 14z" />
    <glyph glyph-name="four" unicode="4" 
d="M340 3q-12 3 -12 12v145h-243q-28 0 -35.5 2.5t-7.5 12.5v40v14t1.5 21t5.5 19l178 436q4 10 15 12.5t51 2.5h11q40 0 51.5 -3.5t8.5 -11.5l-177 -430h141v121q0 9 12 12t53 3h5q40 0 53.5 -3t13.5 -12v-121h74q8 0 10.5 -8t2.5 -40v-15q0 -32 -2.5 -42t-10.5 -10h-74
v-145q0 -9 -13.5 -12t-53.5 -3h-5q-41 0 -53 3z" />
    <glyph glyph-name="five" unicode="5" 
d="M148 4q-47 14 -85 39q-10 7 -10 16q0 11 13 37l9 18q12 23 17.5 28.5t14.5 0.5q35 -20 67 -30t70 -10q56 0 90.5 34.5t34.5 94.5q0 61 -35 94t-102 33q-54 0 -103 -11q-4 -1 -10 -1q-14 0 -14 13v345q0 10 8 12.5t37 2.5h317q7 0 9.5 -8.5t2.5 -40.5v-19
q0 -32 -2.5 -40.5t-9.5 -8.5h-236v-141q18 2 43 2q108 0 172.5 -58t64.5 -168q0 -53 -16.5 -97t-47.5 -76q-35 -37 -86.5 -56t-114.5 -19q-51 0 -98 14z" />
    <glyph glyph-name="six" unicode="6" 
d="M117 75q-59 85 -59 234q0 127 34 222t98 147t151 52q41 0 78 -11.5t62 -29.5q10 -7 10 -16q0 -7 -10 -27l-13 -25q-11 -20 -17 -24.5t-13 -1.5q-50 24 -90 24q-57 0 -90 -42q-41 -53 -53 -162q28 21 63 33.5t70 12.5q92 0 147 -59.5t55 -156.5q0 -68 -30 -126.5
t-85.5 -93.5t-127.5 -35q-121 0 -180 85zM373.5 140q28.5 38 28.5 98q0 56 -25.5 84.5t-74.5 28.5q-24 0 -52.5 -9.5t-49.5 -24.5v-13q0 -100 26.5 -151t75.5 -51q43 0 71.5 38z" />
    <glyph glyph-name="seven" unicode="7" 
d="M131.5 3q-9.5 3 -5.5 12l258 588h-303q-7 0 -9.5 8.5t-2.5 40.5v19q0 32 2.5 40.5t9.5 8.5h405q27 0 35 -4t8 -16v-42q0 -14 -4 -29t-15 -42l-237 -572q-4 -10 -16.5 -12.5t-52.5 -2.5h-36q-27 0 -36.5 3z" />
    <glyph glyph-name="eight" unicode="8" 
d="M165.5 11.5q-53.5 22.5 -84.5 66.5t-31 107q0 58 33 104t89 75q-40 28 -63.5 70t-23.5 97q0 57 27.5 102t77.5 70.5t115 25.5q94 0 152.5 -50t58.5 -133q0 -46 -27.5 -86t-75.5 -70q58 -31 92.5 -76.5t34.5 -115.5q0 -101 -70.5 -155t-184.5 -54q-66 0 -119.5 22.5z
M366 482.5q18 27.5 18 57.5q0 35 -23 57.5t-60 22.5q-35 0 -57.5 -23t-22.5 -55q0 -37 25.5 -61t74.5 -47q27 21 45 48.5zM371 126.5q29 24.5 29 65.5q0 30 -18.5 51t-43 34t-79.5 38q-69 -46 -69 -121q0 -43 29.5 -67.5t75.5 -24.5q47 0 76 24.5z" />
    <glyph glyph-name="nine" unicode="9" 
d="M160.5 1.5q-40.5 11.5 -68.5 31.5q-10 7 -10 16q0 7 10 27l13 25q11 20 17 25t13 1q47 -26 101 -26q79 0 115 67q29 56 37 158q-28 -21 -63.5 -34t-71.5 -13q-60 0 -106 26t-71.5 72.5t-25.5 107.5q0 67 28.5 123t82 89t124.5 33q248 0 248 -319q0 -103 -22 -185.5
t-64 -138.5q-36 -47 -86 -72t-112 -25q-48 0 -88.5 11.5zM342.5 397q27.5 9 48.5 24q-1 102 -26 149.5t-77 47.5q-43 0 -70.5 -33.5t-27.5 -87.5q0 -53 26.5 -81t74.5 -28q24 0 51.5 9z" />
    <glyph glyph-name="uni00B9" unicode="&#xb9;" horiz-adv-x="440" 
d="M114 373.5q-3 8.5 -3 37.5v1q0 29 3 37.5t12 8.5h60v192l-58 -31q-8 -4 -16 2t-22 31q-17 30 -17 38q0 6 7 9l110 59q21 12 46 12h44q12 0 16 -2t4 -7v-303h42q9 0 12 -8.5t3 -37.5v-1q0 -29 -3 -37.5t-12 -8.5h-216q-9 0 -12 8.5z" />
    <glyph glyph-name="uni00B2" unicode="&#xb2;" horiz-adv-x="440" 
d="M91 375.5q-3 7.5 -3 34.5v5q0 16 3.5 24.5t13.5 17.5q139 112 139 189q0 37 -41 37q-26 0 -66 -25q-7 -4 -14.5 2t-22.5 31q-16 28 -16 36q0 6 7 11q26 18 60.5 30t66.5 12q61 0 100.5 -33.5t39.5 -92.5q0 -48 -28 -93.5t-86 -90.5h103q9 0 12 -9.5t3 -39.5v-4
q0 -30 -3 -39.5t-12 -9.5h-244q-9 0 -12 7.5z" />
    <glyph glyph-name="uni00B3" unicode="&#xb3;" horiz-adv-x="440" 
d="M142.5 368q-32.5 6 -56.5 17q-9 5 -9 13q0 9 9 33q10 27 16.5 35t14.5 5q40 -14 83 -14q25 0 40.5 10.5t15.5 27.5q0 18 -16.5 27t-52.5 9h-17q-9 0 -12 7.5t-3 36.5v4q0 27 3 34.5t12 7.5h12q29 0 45 9.5t16 25.5q0 14 -12 22.5t-33 8.5q-34 0 -72 -25q-7 -4 -14.5 1.5
t-22.5 30.5t-15 35q0 6 7 11q25 18 61 29t72 11q65 0 104.5 -31t39.5 -85q0 -27 -15 -48.5t-38 -31.5q30 -8 48.5 -33t18.5 -59q0 -62 -47.5 -96t-120.5 -34q-29 0 -61.5 6z" />
    <glyph glyph-name="fraction" unicode="&#x2044;" horiz-adv-x="382" 
d="M-23.5 3.5q-8.5 3.5 -4.5 12.5l315 687q5 11 16 14t49 3h9q36 0 44.5 -3.5t4.5 -12.5l-315 -687q-5 -10 -16 -13.5t-49 -3.5h-9q-36 0 -44.5 3.5z" />
    <glyph glyph-name="onehalf" unicode="&#xbd;" horiz-adv-x="980" 
d="M113 323.5q-3 8.5 -3 37.5v1q0 29 3 37.5t12 8.5h60v192l-58 -31q-8 -4 -16 2t-22 31q-17 30 -17 38q0 6 7 9l110 59q21 12 46 12h44q12 0 16 -2t4 -7v-303h42q9 0 12 -8.5t3 -37.5v-1q0 -29 -3 -37.5t-12 -8.5h-216q-9 0 -12 8.5zM288.5 3.5q-8.5 3.5 -4.5 12.5l315 687
q5 11 16 14t49 3h9q36 0 44.5 -3.5t4.5 -12.5l-315 -687q-5 -10 -16 -13.5t-49 -3.5h-9q-36 0 -44.5 3.5zM626 7.5q-3 7.5 -3 34.5v5q0 16 3.5 24.5t13.5 17.5q139 112 139 189q0 37 -41 37q-26 0 -66 -25q-7 -4 -14.5 2t-22.5 31q-16 28 -16 36q0 6 7 11q26 18 60.5 30
t66.5 12q61 0 100.5 -33.5t39.5 -92.5q0 -48 -28 -93.5t-86 -90.5h103q9 0 12 -9.5t3 -39.5v-4q0 -30 -3 -39.5t-12 -9.5h-244q-9 0 -12 7.5z" />
    <glyph glyph-name="onequarter" unicode="&#xbc;" horiz-adv-x="980" 
d="M113 323.5q-3 8.5 -3 37.5v1q0 29 3 37.5t12 8.5h60v192l-58 -31q-8 -4 -16 2t-22 31q-17 30 -17 38q0 6 7 9l110 59q21 12 46 12h44q12 0 16 -2t4 -7v-303h42q9 0 12 -8.5t3 -37.5v-1q0 -29 -3 -37.5t-12 -8.5h-216q-9 0 -12 8.5zM288.5 3.5q-8.5 3.5 -4.5 12.5l315 687
q5 11 16 14t49 3h9q36 0 44.5 -3.5t4.5 -12.5l-315 -687q-5 -10 -16 -13.5t-49 -3.5h-9q-36 0 -44.5 3.5zM781.5 3.5q-10.5 3.5 -10.5 11.5v70h-168q-9 0 -12 7t-3 36v2q0 24 15 59l82 201q4 9 15.5 12t43.5 3h4q33 0 43.5 -3.5t7.5 -11.5l-86 -211h58v50q0 8 10.5 11.5
t40.5 3.5h4q30 0 40.5 -3.5t10.5 -11.5v-50h22q9 0 12 -9t3 -39v-3q0 -29 -3 -36t-12 -7h-22v-70q0 -8 -10.5 -11.5t-40.5 -3.5h-4q-30 0 -40.5 3.5z" />
    <glyph glyph-name="threequarters" unicode="&#xbe;" horiz-adv-x="980" 
d="M156.5 318q-32.5 6 -56.5 17q-9 5 -9 13q0 9 9 33q10 27 16.5 35t14.5 5q40 -14 83 -14q25 0 40.5 10.5t15.5 27.5q0 18 -16.5 27t-52.5 9h-17q-9 0 -12 7.5t-3 36.5v4q0 27 3 34.5t12 7.5h12q29 0 45 9.5t16 25.5q0 14 -12 22.5t-33 8.5q-34 0 -72 -25q-7 -4 -14.5 1.5
t-22.5 30.5t-15 35q0 6 7 11q25 18 61 29t72 11q65 0 104.5 -31t39.5 -85q0 -27 -15 -48.5t-38 -31.5q30 -8 48.5 -33t18.5 -59q0 -62 -47.5 -96t-120.5 -34q-29 0 -61.5 6zM288.5 3.5q-8.5 3.5 -4.5 12.5l315 687q5 11 16 14t49 3h9q36 0 44.5 -3.5t4.5 -12.5l-315 -687
q-5 -10 -16 -13.5t-49 -3.5h-9q-36 0 -44.5 3.5zM781.5 3.5q-10.5 3.5 -10.5 11.5v70h-168q-9 0 -12 7t-3 36v2q0 24 15 59l82 201q4 9 15.5 12t43.5 3h4q33 0 43.5 -3.5t7.5 -11.5l-86 -211h58v50q0 8 10.5 11.5t40.5 3.5h4q30 0 40.5 -3.5t10.5 -11.5v-50h22q9 0 12 -9
t3 -39v-3q0 -29 -3 -36t-12 -7h-22v-70q0 -8 -10.5 -11.5t-40.5 -3.5h-4q-30 0 -40.5 3.5z" />
    <glyph glyph-name="asterisk" unicode="*" horiz-adv-x="422" 
d="M137 362q-9 0 -35 19l-12 9q-15 11 -21.5 17.5t-6.5 12.5q0 5 4 9l76 91l-112 29q-10 3 -10 12q0 7 8 34l4 13q8 26 13.5 34t14.5 4l108 -46l-10 116q-1 9 8 11.5t36 2.5h13q27 0 36 -2.5t8 -11.5l-11 -116l114 46q9 4 14.5 -4t13.5 -34l4 -13q8 -27 8 -34q0 -9 -10 -12
l-118 -29l81 -91q4 -4 4 -8q0 -10 -28 -31l-12 -9q-26 -19 -35 -19q-6 0 -10 6l-66 104l-61 -104q-4 -6 -10 -6z" />
    <glyph glyph-name="backslash" unicode="\" horiz-adv-x="369" 
d="M235.5 3.5q-12.5 3.5 -15.5 13.5l-208 686q-3 10 7 13.5t51 3.5h13q38 0 50.5 -3.5t15.5 -13.5l208 -686q3 -10 -7 -13.5t-51 -3.5h-13q-38 0 -50.5 3.5z" />
    <glyph glyph-name="periodcentered" unicode="&#xb7;" horiz-adv-x="239" 
d="M58.5 306q-24.5 24 -24.5 58q0 35 24.5 59t60.5 24q37 0 61.5 -24t24.5 -59q0 -34 -24.5 -58t-61.5 -24q-36 0 -60.5 24z" />
    <glyph glyph-name="bullet" unicode="&#x2022;" horiz-adv-x="355" 
d="M108 250.5q-31 18.5 -49.5 49.5t-18.5 68q0 38 18.5 70t49.5 50.5t68 18.5q38 0 70 -18.5t50.5 -50.5t18.5 -70q0 -37 -18.5 -68t-50.5 -49.5t-70 -18.5q-37 0 -68 18.5z" />
    <glyph glyph-name="colon" unicode=":" horiz-adv-x="239" 
d="M58.5 372q-24.5 24 -24.5 58q0 35 24.5 59t60.5 24q37 0 61.5 -24t24.5 -59q0 -34 -24.5 -58t-61.5 -24q-36 0 -60.5 24zM58.5 14q-24.5 24 -24.5 58q0 35 24.5 59t60.5 24q37 0 61.5 -24t24.5 -59q0 -34 -24.5 -58t-61.5 -24q-36 0 -60.5 24z" />
    <glyph glyph-name="comma" unicode="," horiz-adv-x="239" 
d="M59 -189q-5 0 -15 8l-18 16q-10 10 -10 14t6 12q55 71 55 121q0 15 -5.5 25.5t-16.5 22.5q-11 13 -17 24t-6 28q0 28 22 50t55 22q39 0 64 -27.5t25 -71.5q0 -60 -33 -121t-92 -116q-9 -7 -14 -7z" />
    <glyph glyph-name="ellipsis" unicode="&#x2026;" horiz-adv-x="717" 
d="M58.5 14q-24.5 24 -24.5 58q0 35 24.5 59t60.5 24q37 0 61.5 -24t24.5 -59q0 -34 -24.5 -58t-61.5 -24q-36 0 -60.5 24zM297.5 14q-24.5 24 -24.5 58q0 35 24.5 59t60.5 24q37 0 61.5 -24t24.5 -59q0 -34 -24.5 -58t-61.5 -24q-36 0 -60.5 24zM536.5 14
q-24.5 24 -24.5 58q0 35 24.5 59t60.5 24q37 0 61.5 -24t24.5 -59q0 -34 -24.5 -58t-61.5 -24q-36 0 -60.5 24z" />
    <glyph glyph-name="exclam" unicode="!" horiz-adv-x="299" 
d="M101.5 239.5q-9.5 2.5 -9.5 9.5l-18 454q0 10 13 13.5t55 3.5h11q42 0 55 -3.5t13 -13.5l-16 -454q0 -7 -9 -9.5t-37 -2.5h-21q-27 0 -36.5 2.5zM88.5 14q-24.5 24 -24.5 58q0 35 24.5 59t60.5 24q37 0 61.5 -24t24.5 -59q0 -34 -24.5 -58t-61.5 -24q-36 0 -60.5 24z" />
    <glyph glyph-name="exclamdown" unicode="&#xa1;" horiz-adv-x="299" 
d="M88.5 397q-24.5 24 -24.5 59q0 34 24.5 58t61.5 24q36 0 60.5 -24t24.5 -58q0 -35 -24.5 -59t-60.5 -24q-37 0 -61.5 24zM91 -188.5q-13 3.5 -13 13.5l16 454q0 7 9.5 9.5t36.5 2.5h21q28 0 37 -2.5t9 -9.5l18 -454q0 -10 -13 -13.5t-55 -3.5h-11q-42 0 -55 3.5z" />
    <glyph glyph-name="numbersign" unicode="#" 
d="M66 2.5q-9 2.5 -8 8.5l36 177h-60q-11 0 -14.5 9.5t-3.5 45.5v3q0 26 1.5 36.5t4.5 12t12 1.5h82l27 132h-59q-11 0 -14.5 9.5t-3.5 45.5v3q0 26 1.5 36.5t4.5 12t12 1.5h81l36 173q2 6 10.5 8.5t37.5 2.5h21q29 0 38 -2.5t8 -8.5l-35 -173h99l36 173q2 6 10.5 8.5
t37.5 2.5h21q29 0 38 -2.5t8 -8.5l-35 -173h60q9 0 12 -1.5t4.5 -12t1.5 -36.5v-3q0 -36 -3.5 -45.5t-14.5 -9.5h-81l-27 -132h58q9 0 12 -1.5t4.5 -12t1.5 -36.5v-3q0 -36 -3.5 -45.5t-14.5 -9.5h-81l-37 -177q-2 -6 -10.5 -8.5t-37.5 -2.5h-21q-29 0 -38 2.5t-8 8.5
l36 177h-99l-37 -177q-2 -6 -10.5 -8.5t-37.5 -2.5h-21q-29 0 -38 2.5zM331 296l27 132h-99l-27 -132h99z" />
    <glyph glyph-name="period" unicode="." horiz-adv-x="239" 
d="M58.5 14q-24.5 24 -24.5 58q0 35 24.5 59t60.5 24q37 0 61.5 -24t24.5 -59q0 -34 -24.5 -58t-61.5 -24q-36 0 -60.5 24z" />
    <glyph glyph-name="question" unicode="?" horiz-adv-x="457" 
d="M135 239.5q-10 2.5 -10 11.5v4q0 58 23 95t67 79q35 34 51 57t16 55q0 33 -21 52.5t-62 19.5q-50 0 -106 -36q-4 -3 -9 -3q-12 0 -28 32l-14 26q-10 20 -10 26q0 9 11 17q35 25 79 40t94 15q94 0 151 -48.5t58 -132.5q0 -43 -14 -76t-34.5 -55.5t-53.5 -52.5
q-37 -34 -55.5 -58.5t-19.5 -56.5q0 -8 -9.5 -10.5t-42.5 -2.5h-19q-32 0 -42 2.5zM128.5 14q-24.5 24 -24.5 58q0 35 24 59t60 24q37 0 61 -24t24 -59q0 -34 -24 -58t-60 -24t-60.5 24z" />
    <glyph glyph-name="questiondown" unicode="&#xbf;" horiz-adv-x="457" 
d="M328.5 514q24.5 -24 24.5 -58q0 -35 -24 -59t-60 -24q-37 0 -61 24t-24 59q0 34 24 58t60 24t60.5 -24zM322 288.5q10 -2.5 10 -11.5v-4q0 -58 -23 -95t-67 -79q-35 -34 -51 -57t-16 -55q0 -33 21 -52.5t62 -19.5q50 0 106 36q4 3 9 3q12 0 28 -32l14 -26q10 -20 10 -26
q0 -9 -11 -17q-35 -25 -79 -40t-94 -15q-94 0 -151 48.5t-58 132.5q0 43 14 76t34.5 55.5t53.5 52.5q37 34 55.5 58.5t19.5 56.5q0 8 9.5 10.5t42.5 2.5h19q32 0 42 -2.5z" />
    <glyph glyph-name="quotedbl" unicode="&#x22;" horiz-adv-x="433" 
d="M74 443.5q-10 2.5 -10 8.5l-13 254q-1 6 3 9t19.5 4t39.5 1h6q24 0 39.5 -1t19.5 -4t3 -9l-14 -254q0 -6 -10 -8.5t-36 -2.5h-9q-28 0 -38 2.5zM275 443.5q-10 2.5 -10 8.5l-13 254q-1 6 3 9t19.5 4t39.5 1h6q24 0 39.5 -1t19.5 -4t3 -9l-14 -254q0 -6 -10 -8.5t-36 -2.5
h-9q-28 0 -38 2.5z" />
    <glyph glyph-name="quotesingle" unicode="'" horiz-adv-x="232" 
d="M74 443.5q-10 2.5 -10 8.5l-13 254q-1 6 3 9t19.5 4t39.5 1h6q24 0 39.5 -1t19.5 -4t3 -9l-14 -254q0 -6 -10 -8.5t-36 -2.5h-9q-28 0 -38 2.5z" />
    <glyph glyph-name="semicolon" unicode=";" horiz-adv-x="239" 
d="M58.5 372q-24.5 24 -24.5 58q0 35 24.5 59t60.5 24q37 0 61.5 -24t24.5 -59q0 -34 -24.5 -58t-61.5 -24q-36 0 -60.5 24zM62 -189q-5 0 -15 8l-18 16q-10 10 -10 14t6 12q55 71 55 121q0 15 -5.5 25.5t-16.5 22.5q-11 13 -17 24t-6 28q0 28 22 50t55 22q39 0 64 -27.5
t25 -71.5q0 -60 -33 -121t-92 -116q-9 -7 -14 -7z" />
    <glyph glyph-name="slash" unicode="/" horiz-adv-x="369" 
d="M19 3.5q-10 3.5 -7 13.5l208 686q3 10 15.5 13.5t50.5 3.5h13q41 0 51 -3.5t7 -13.5l-208 -686q-3 -10 -15.5 -13.5t-50.5 -3.5h-13q-41 0 -51 3.5z" />
    <glyph glyph-name="underscore" unicode="_" horiz-adv-x="500" 
d="M-8 -208.5q-3 9.5 -3 40.5v6q0 31 3 40.5t11 9.5h494q8 0 11 -9.5t3 -40.5v-6q0 -31 -3 -40.5t-11 -9.5h-494q-8 0 -11 9.5z" />
    <glyph glyph-name="braceleft" unicode="{" horiz-adv-x="322" 
d="M130 -90q-38 42 -38 130v143q0 36 -14.5 51.5t-44.5 21.5q-7 1 -9 9t-2 35v20q0 27 2 35t9 9q30 6 44.5 21.5t14.5 51.5v144q0 88 38 130t130 42h37q7 0 9 -7.5t2 -36.5v-12q0 -29 -2 -36.5t-9 -7.5h-23q-31 0 -42.5 -15t-11.5 -48v-141q0 -53 -16.5 -86t-55.5 -53
q39 -20 55.5 -53t16.5 -86v-141q0 -33 11.5 -47.5t42.5 -14.5h21q8 0 10.5 -8t2.5 -36v-12q0 -29 -2 -36.5t-9 -7.5h-37q-92 0 -130 42z" />
    <glyph glyph-name="braceright" unicode="}" horiz-adv-x="322" 
d="M16 -124.5q-2 7.5 -2 36.5v12q0 28 2.5 36t10.5 8h21q30 0 42 15.5t12 49.5v138q0 53 16.5 86t55.5 53q-39 20 -55.5 53t-16.5 86v138q0 34 -12 50t-42 16h-23q-7 0 -9 7.5t-2 36.5v12q0 29 2 36.5t9 7.5h37q92 0 130 -42t38 -130v-144q0 -36 14.5 -51.5t44.5 -21.5
q7 -1 9 -9t2 -35v-20q0 -27 -2 -35t-9 -9q-30 -6 -44.5 -21.5t-14.5 -51.5v-143q0 -88 -38 -130t-130 -42h-37q-7 0 -9 7.5z" />
    <glyph glyph-name="bracketleft" unicode="[" horiz-adv-x="339" 
d="M72 -125v871q0 7 8 7h234q7 0 9 -7.5t2 -36.5v-9q0 -29 -2 -36.5t-9 -7.5h-114v-691h114q7 0 9 -7.5t2 -36.5v-9q0 -29 -2 -36.5t-9 -7.5h-234q-8 0 -8 7z" />
    <glyph glyph-name="bracketright" unicode="]" horiz-adv-x="339" 
d="M16 -124.5q-2 7.5 -2 36.5v9q0 29 2 36.5t9 7.5h114v691h-114q-7 0 -9 7.5t-2 36.5v9q0 29 2 36.5t9 7.5h234q8 0 8 -7v-871q0 -7 -8 -7h-234q-7 0 -9 7.5z" />
    <glyph glyph-name="parenleft" unicode="(" horiz-adv-x="345" 
d="M104.5 43.5q-50.5 123.5 -50.5 266.5q0 94 24 183.5t64 160.5t86 116q4 4 8 4q10 0 40 -19l14 -9q26 -16 31 -23.5t1 -13.5q-53 -77 -84 -179.5t-31 -219.5t31 -219.5t84 -179.5q4 -6 -1 -13.5t-31 -23.5l-14 -9q-30 -19 -40 -19q-4 0 -8 4q-73 70 -123.5 193.5z" />
    <glyph glyph-name="parenright" unicode=")" horiz-adv-x="345" 
d="M109 -154q-10 0 -40 19l-14 9q-26 16 -31 23.5t-1 13.5q53 77 84 179.5t31 219.5t-31 219.5t-84 179.5q-4 6 1 13.5t31 23.5l14 9q30 19 40 19q4 0 8 -4q46 -45 86 -116t64 -160.5t24 -183.5q0 -143 -50.5 -266.5t-123.5 -193.5q-4 -4 -8 -4z" />
    <glyph glyph-name="emdash" unicode="&#x2014;" horiz-adv-x="1000" 
d="M3 240.5q-3 9.5 -3 40.5v6q0 31 3 40.5t11 9.5h972q8 0 11 -9.5t3 -40.5v-6q0 -31 -3 -40.5t-11 -9.5h-972q-8 0 -11 9.5z" />
    <glyph glyph-name="endash" unicode="&#x2013;" horiz-adv-x="500" 
d="M3 240.5q-3 9.5 -3 40.5v6q0 31 3 40.5t11 9.5h472q8 0 11 -9.5t3 -40.5v-6q0 -31 -3 -40.5t-11 -9.5h-472q-8 0 -11 9.5z" />
    <glyph glyph-name="hyphen" unicode="-" horiz-adv-x="390" 
d="M37 240.5q-3 9.5 -3 40.5v14q0 31 3 40.5t11 9.5h294q8 0 11 -9.5t3 -40.5v-14q0 -31 -3 -40.5t-11 -9.5h-294q-8 0 -11 9.5z" />
    <glyph glyph-name="uni00AD" unicode="&#xad;" horiz-adv-x="390" 
d="M37 240.5q-3 9.5 -3 40.5v14q0 31 3 40.5t11 9.5h294q8 0 11 -9.5t3 -40.5v-14q0 -31 -3 -40.5t-11 -9.5h-294q-8 0 -11 9.5z" />
    <glyph glyph-name="guillemotleft" unicode="&#xab;" horiz-adv-x="542" 
d="M55 266q-11 16 -11 33v6q0 17 11 33l128 186q6 9 15 9q10 0 33 -13l16 -9q32 -18 32 -31q0 -5 -2 -8l-105 -170l105 -170q2 -3 2 -8q0 -13 -32 -31l-16 -9q-23 -13 -33 -13q-9 0 -15 9zM275 266q-11 16 -11 33v6q0 17 11 33l128 186q6 9 15 9q10 0 33 -13l16 -9
q32 -18 32 -31q0 -5 -2 -8l-105 -170l105 -170q2 -3 2 -8q0 -13 -32 -31l-16 -9q-23 -13 -33 -13q-9 0 -15 9z" />
    <glyph glyph-name="guillemotright" unicode="&#xbb;" horiz-adv-x="542" 
d="M124 71q-10 0 -33 13l-16 9q-32 18 -32 31q0 5 2 8l105 170l-105 170q-2 3 -2 8q0 13 32 31l16 9q23 13 33 13q9 0 15 -9l128 -186q11 -16 11 -33v-6q0 -17 -11 -33l-128 -186q-6 -9 -15 -9zM344 71q-10 0 -33 13l-16 9q-32 18 -32 31q0 5 2 8l105 170l-105 170
q-2 3 -2 8q0 13 32 31l16 9q23 13 33 13q9 0 15 -9l128 -186q11 -16 11 -33v-6q0 -17 -11 -33l-128 -186q-6 -9 -15 -9z" />
    <glyph glyph-name="guilsinglleft" unicode="&#x2039;" horiz-adv-x="322" 
d="M55 266q-11 16 -11 33v6q0 17 11 33l128 186q6 9 15 9q10 0 33 -13l16 -9q32 -18 32 -31q0 -5 -2 -8l-105 -170l105 -170q2 -3 2 -8q0 -13 -32 -31l-16 -9q-23 -13 -33 -13q-9 0 -15 9z" />
    <glyph glyph-name="guilsinglright" unicode="&#x203a;" horiz-adv-x="322" 
d="M124 71q-10 0 -33 13l-16 9q-32 18 -32 31q0 5 2 8l105 170l-105 170q-2 3 -2 8q0 13 32 31l16 9q23 13 33 13q9 0 15 -9l128 -186q11 -16 11 -33v-6q0 -17 -11 -33l-128 -186q-6 -9 -15 -9z" />
    <glyph glyph-name="quotedblbase" unicode="&#x201e;" horiz-adv-x="489" 
d="M91 -253q-5 0 -15 8l-18 16q-10 10 -10 14t6 12q55 71 55 121q0 15 -5.5 25.5t-16.5 22.5q-11 13 -17 24t-6 28q0 28 22 50t55 22q39 0 64 -27.5t25 -71.5q0 -60 -33 -121t-92 -116q-9 -7 -14 -7zM306 -253q-5 0 -15 8l-18 16q-10 10 -10 14t6 12q55 71 55 121
q0 15 -5.5 25.5t-16.5 22.5q-11 13 -17 24t-6 28q0 28 22 50t55 22q39 0 64 -27.5t25 -71.5q0 -60 -33 -121t-92 -116q-9 -7 -14 -7z" />
    <glyph glyph-name="quotedblleft" unicode="&#x201c;" horiz-adv-x="489" 
d="M69 412.5q-25 27.5 -25 71.5q0 60 33 121t92 116q9 7 14 7t15 -8l18 -16q10 -10 10 -14t-6 -12q-55 -71 -55 -121q0 -15 5.5 -25.5t16.5 -22.5q11 -13 17 -24t6 -28q0 -28 -22 -50t-55 -22q-39 0 -64 27.5zM284 412.5q-25 27.5 -25 71.5q0 60 33 121t92 116q9 7 14 7
t15 -8l18 -16q10 -10 10 -14t-6 -12q-55 -71 -55 -121q0 -15 5.5 -25.5t16.5 -22.5q11 -13 17 -24t6 -28q0 -28 -22 -50t-55 -22q-39 0 -64 27.5z" />
    <glyph glyph-name="quotedblright" unicode="&#x201d;" horiz-adv-x="489" 
d="M91 387q-5 0 -15 8l-18 16q-10 10 -10 14q0 5 6 12q55 71 55 121q0 15 -5.5 25.5t-16.5 22.5q-11 13 -17 24t-6 28q0 28 22 50t55 22q39 0 64 -27.5t25 -71.5q0 -60 -33 -121t-92 -116q-9 -7 -14 -7zM306 387q-5 0 -15 8l-18 16q-10 10 -10 14q0 5 6 12q55 71 55 121
q0 15 -5.5 25.5t-16.5 22.5q-11 13 -17 24t-6 28q0 28 22 50t55 22q39 0 64 -27.5t25 -71.5q0 -60 -33 -121t-92 -116q-9 -7 -14 -7z" />
    <glyph glyph-name="quoteleft" unicode="&#x2018;" horiz-adv-x="274" 
d="M69 412.5q-25 27.5 -25 71.5q0 60 33 121t92 116q9 7 14 7t15 -8l18 -16q10 -10 10 -14t-6 -12q-55 -71 -55 -121q0 -15 5.5 -25.5t16.5 -22.5q11 -13 17 -24t6 -28q0 -28 -22 -50t-55 -22q-39 0 -64 27.5z" />
    <glyph glyph-name="quoteright" unicode="&#x2019;" horiz-adv-x="274" 
d="M91 387q-5 0 -15 8l-18 16q-10 10 -10 14q0 5 6 12q55 71 55 121q0 15 -5.5 25.5t-16.5 22.5q-11 13 -17 24t-6 28q0 28 22 50t55 22q39 0 64 -27.5t25 -71.5q0 -60 -33 -121t-92 -116q-9 -7 -14 -7z" />
    <glyph glyph-name="quotesinglbase" unicode="&#x201a;" horiz-adv-x="274" 
d="M91 -253q-5 0 -15 8l-18 16q-10 10 -10 14t6 12q55 71 55 121q0 15 -5.5 25.5t-16.5 22.5q-11 13 -17 24t-6 28q0 28 22 50t55 22q39 0 64 -27.5t25 -71.5q0 -60 -33 -121t-92 -116q-9 -7 -14 -7z" />
    <glyph glyph-name="uni2003" unicode="&#x2003;" horiz-adv-x="1000" 
 />
    <glyph glyph-name="uni2002" unicode="&#x2002;" horiz-adv-x="500" 
 />
    <glyph glyph-name="uni200A" unicode="&#x200a;" horiz-adv-x="100" 
 />
    <glyph glyph-name="uni00A0" unicode="&#xa0;" horiz-adv-x="254" 
 />
    <glyph glyph-name="uni2009" unicode="&#x2009;" horiz-adv-x="200" 
 />
    <glyph glyph-name="cent" unicode="&#xa2;" 
d="M287.5 -116.5q-13.5 1.5 -17 4.5t-3.5 9v98q-70 12 -116 55q-38 35 -58.5 89t-20.5 121q0 64 19 117t54 90q48 49 122 64v100q0 6 3.5 9t17 4.5t43.5 1.5h3q29 0 42 -1.5t16.5 -4.5t3.5 -9v-99q61 -13 111 -53q7 -6 7 -12q0 -9 -15 -38l-10 -19q-16 -33 -28 -33
q-3 0 -8 3q-29 19 -56 29t-59 10q-55 0 -90 -38t-35 -114t33 -117t98 -41q30 0 56.5 7t57.5 22q9 4 14 -2t18 -35l6 -14q12 -28 12 -36q0 -6 -7 -11q-46 -30 -105 -42v-101q0 -6 -3.5 -9t-16.5 -4.5t-42 -1.5h-3q-30 0 -43.5 1.5z" />
    <glyph glyph-name="currency" unicode="&#xa4;" 
d="M66 85.5q-7 3.5 -3 10.5l74 127q-34 51 -34 129q0 91 40 146l-73 126q-4 7 3 10.5t31 3.5h39q20 0 26.5 -2t11.5 -10l41 -70q35 12 79 12q41 0 74 -12l41 70q5 8 11.5 10t26.5 2h39q24 0 31 -3.5t3 -10.5l-74 -127q34 -51 34 -129q0 -91 -40 -146l73 -126q4 -7 -3 -10.5
t-31 -3.5h-39q-20 0 -26.5 2t-11.5 10l-41 70q-34 -12 -79 -12q-41 0 -74 12l-41 -70q-5 -8 -11.5 -10t-26.5 -2h-39q-24 0 -31 3.5zM347.5 286q18.5 27 18.5 77q0 47 -17 72.5t-50 25.5q-38 0 -56.5 -27t-18.5 -77q0 -47 17 -72.5t50 -25.5q38 0 56.5 27z" />
    <glyph glyph-name="dollar" unicode="$" 
d="M235.5 -107.5q-13.5 1.5 -17 4.5t-3.5 9v91q-43 7 -81 23.5t-64 38.5q-10 8 -10 18q0 12 13 37l12 23q10 18 16.5 26t13.5 8q4 0 9 -3q80 -57 152 -57q50 0 79 22t29 63q0 29 -15.5 49t-36 32.5t-65.5 34.5q-55 27 -91 51t-60.5 62.5t-24.5 93.5q0 78 44.5 131t116.5 71
v93q0 6 3.5 9t17 4.5t43.5 1.5h3q29 0 42 -1.5t16.5 -4.5t3.5 -9v-89q72 -13 122 -48q10 -7 10 -17q0 -9 -14 -39l-10 -20q-10 -20 -15.5 -27.5t-11.5 -7.5q-1 0 -9 4q-36 22 -63.5 32t-60.5 10q-42 0 -68 -22.5t-26 -58.5q0 -24 15 -42t35 -30t62 -33q58 -30 94 -54.5
t61.5 -65t25.5 -99.5q0 -85 -47 -141.5t-137 -70.5v-89q0 -6 -3.5 -9t-16.5 -4.5t-42 -1.5h-3q-30 0 -43.5 1.5z" />
    <glyph glyph-name="Euro" unicode="&#x20ac;" 
d="M193.5 53.5q-68.5 63.5 -89.5 183.5h-66q-8 0 -11 7t-3 38v1q0 31 3 38t11 7h57v25q0 23 1 35h-58q-8 0 -11 7t-3 38v1q0 31 3 38t11 7h69q25 118 96.5 184.5t183.5 66.5q54 0 96 -13t82 -40q12 -9 12 -18t-15 -35l-11 -18q-15 -26 -21 -31t-14 0q-33 20 -60 28t-60 8
q-54 0 -90 -33.5t-52 -98.5h163q8 0 11 -7t3 -38v-1q0 -31 -3 -38t-11 -7h-175q-1 -10 -1 -31q0 -20 1 -29h175q8 0 11 -7t3 -38v-1q0 -31 -3 -38t-11 -7h-164q33 -127 147 -127q33 0 61.5 7.5t59.5 23.5q6 3 10 3q10 0 25 -32l9 -19q12 -24 12 -33t-12 -17
q-82 -53 -187 -53q-116 0 -184.5 63.5z" />
    <glyph glyph-name="florin" unicode="&#x192;" horiz-adv-x="530" 
d="M25 -105q-27 5 -49 13q-7 3 -7 11q0 6 8 36l5 17q8 28 13.5 34.5t13.5 4.5q32 -8 56 -8q48 0 68.5 24t28.5 85l33 236h-76q-5 -1 -6.5 1.5t-1.5 11.5q0 10 3 37l1 7q5 33 8.5 41.5t10.5 8.5h76l7 57q13 106 69 162t156 56q23 0 50 -5t49 -13q7 -3 7 -11q0 -6 -8 -36
l-5 -17q-8 -28 -13.5 -34.5t-13.5 -4.5q-32 8 -56 8q-47 0 -68 -25t-29 -84l-7 -53h113q5 0 7.5 -3t2.5 -13t-3 -34l-1 -7q-5 -33 -9 -41.5t-12 -8.5h-114l-32 -240q-14 -106 -69.5 -162t-155.5 -56q-23 0 -50 5z" />
    <glyph glyph-name="sterling" unicode="&#xa3;" 
d="M84.5 10q-3.5 10 -3.5 45v4q0 27 3.5 37.5t13.5 15.5q37 22 50.5 57.5t13.5 101.5v50h-69q-8 0 -10.5 8.5t-2.5 41.5v7q0 33 2.5 41.5t10.5 8.5h69v54q0 116 55 182t166 66q37 0 73 -8.5t63 -23.5q8 -4 8 -12q0 -6 -10 -34l-7 -18q-11 -28 -16.5 -34.5t-13.5 -2.5
q-43 20 -86 20q-48 0 -69 -32t-21 -92v-65h158q8 0 10.5 -8.5t2.5 -41.5v-7q0 -33 -2.5 -41.5t-10.5 -8.5h-159v-45q0 -56 -13 -99t-40 -62h267q8 0 11 -3t4.5 -13.5t1.5 -36.5v-7q0 -35 -3.5 -45t-13.5 -10h-419q-10 0 -13.5 10z" />
    <glyph glyph-name="yen" unicode="&#xa5;" 
d="M243.5 3q-12.5 3 -12.5 12v87h-126q-8 0 -11 7t-3 38v1q0 31 3 38t11 7h126v45h-126q-8 0 -11 7t-3 38v1q0 31 3 38t11 7h101l-185 374q-5 10 7 13.5t56 3.5h23q40 0 54.5 -3.5t19.5 -12.5l72 -150q42 -88 61 -146q30 83 59 146l70 151q4 9 15.5 12t50.5 3h22
q40 0 51 -3.5t6 -12.5l-188 -375h102q8 0 11 -7t3 -38v-1q0 -31 -3 -38t-11 -7h-126v-45h126q8 0 11 -7t3 -38v-1q0 -31 -3 -38t-11 -7h-126v-87q0 -9 -14 -12t-54 -3h-11q-41 0 -53.5 3z" />
    <glyph glyph-name="dotmath" unicode="&#x22c5;" horiz-adv-x="239" 
d="M58.5 306q-24.5 24 -24.5 58q0 35 24.5 59t60.5 24q37 0 61.5 -24t24.5 -59q0 -34 -24.5 -58t-61.5 -24q-36 0 -60.5 24z" />
    <glyph glyph-name="plus" unicode="+" 
d="M246.5 104q-9.5 3 -9.5 11v176h-175q-8 0 -11 9.5t-3 40.5v14q0 31 3 40.5t11 9.5h175v175q0 8 9.5 11t40.5 3h14q31 0 40.5 -3t9.5 -11v-175h176q8 0 11 -9.5t3 -40.5v-14q0 -31 -3 -40.5t-11 -9.5h-176v-176q0 -8 -9.5 -11t-40.5 -3h-14q-31 0 -40.5 3z" />
    <glyph glyph-name="minus" unicode="&#x2212;" 
d="M51 300.5q-3 9.5 -3 40.5v14q0 31 3 40.5t11 9.5h465q8 0 11 -9.5t3 -40.5v-14q0 -31 -3 -40.5t-11 -9.5h-465q-8 0 -11 9.5z" />
    <glyph glyph-name="multiply" unicode="&#xd7;" 
d="M295 267l-124 -124q-6 -6 -14.5 -1.5t-30.5 27.5l-10 10q-22 22 -27 30.5t1 14.5l124 123l-124 124q-6 6 -1 14.5t27 30.5l10 10q22 23 30.5 27.5t14.5 -1.5l124 -124l124 125q6 6 14.5 1t30.5 -27l10 -10q23 -22 27.5 -30.5t-1.5 -14.5l-125 -125l125 -124
q6 -6 1.5 -14.5t-27.5 -30.5l-10 -10q-22 -22 -30.5 -27t-14.5 1z" />
    <glyph glyph-name="divide" unicode="&#xf7;" 
d="M231.5 509q-24.5 24 -24.5 58q0 35 24.5 59t60.5 24q37 0 61.5 -24t24.5 -59q0 -34 -24.5 -58t-61.5 -24q-36 0 -60.5 24zM51 300.5q-3 9.5 -3 40.5v14q0 31 3 40.5t11 9.5h465q8 0 11 -9.5t3 -40.5v-14q0 -31 -3 -40.5t-11 -9.5h-465q-8 0 -11 9.5zM231.5 70
q-24.5 24 -24.5 58q0 35 24.5 59t60.5 24q37 0 61.5 -24t24.5 -59q0 -34 -24.5 -58t-61.5 -24q-36 0 -60.5 24z" />
    <glyph glyph-name="equal" unicode="=" 
d="M71 419.5q-3 9.5 -3 40.5v14q0 31 3 40.5t11 9.5h425q8 0 11 -9.5t3 -40.5v-14q0 -31 -3 -40.5t-11 -9.5h-425q-8 0 -11 9.5zM71 180.5q-3 9.5 -3 40.5v14q0 31 3 40.5t11 9.5h425q8 0 11 -9.5t3 -40.5v-14q0 -31 -3 -40.5t-11 -9.5h-425q-8 0 -11 9.5z" />
    <glyph glyph-name="notequal" unicode="&#x2260;" 
d="M107 57.5q-10 3.5 -6 10.5l51 103h-70q-8 0 -11 9.5t-3 40.5v14q0 31 3 40.5t11 9.5h127l63 125h-190q-8 0 -11 9.5t-3 40.5v14q0 31 3 40.5t11 9.5h246l53 105q4 7 13 9.5t38 2.5h17q29 0 39 -3.5t6 -10.5l-52 -103h65q8 0 11 -9.5t3 -40.5v-14q0 -31 -3 -40.5t-11 -9.5
h-121l-63 -125h184q8 0 11 -9.5t3 -40.5v-14q0 -31 -3 -40.5t-11 -9.5h-241l-52 -105q-4 -7 -13 -9.5t-38 -2.5h-17q-29 0 -39 3.5z" />
    <glyph glyph-name="greater" unicode="&#x3e;" 
d="M117 65q-12 0 -33 36l-4 7q-18 32 -18 44q0 7 8 12l313 184l-313 184q-8 5 -8 12q0 12 18 44l4 7q21 36 33 36q5 0 11 -3l384 -227q9 -6 12.5 -15.5t3.5 -32.5v-10q0 -24 -3.5 -33t-12.5 -15l-384 -227q-6 -3 -11 -3z" />
    <glyph glyph-name="less" unicode="&#x3c;" 
d="M77 295q-9 6 -12.5 15t-3.5 33v10q0 23 3.5 32.5t12.5 15.5l384 227q6 3 11 3q12 0 33 -36l4 -7q18 -32 18 -44q0 -7 -8 -12l-313 -184l313 -184q8 -5 8 -12q0 -12 -18 -44l-4 -7q-21 -36 -33 -36q-5 0 -11 3z" />
    <glyph glyph-name="greaterequal" unicode="&#x2265;" 
d="M127 177q-12 0 -33 36l-4 7q-18 32 -18 44q0 7 8 12l313 184l-313 184q-8 5 -8 12q0 12 18 44l4 7q21 36 33 36q5 0 11 -3l384 -227q9 -6 12.5 -15.5t3.5 -32.5v-10q0 -24 -3.5 -33t-12.5 -15l-384 -227q-6 -3 -11 -3zM51 9.5q-3 9.5 -3 40.5v14q0 31 3 40.5t11 9.5h465
q8 0 11 -9.5t3 -40.5v-14q0 -31 -3 -40.5t-11 -9.5h-465q-8 0 -11 9.5z" />
    <glyph glyph-name="lessequal" unicode="&#x2264;" 
d="M67 407q-9 6 -12.5 15t-3.5 33v10q0 23 3.5 32.5t12.5 15.5l384 227q6 3 11 3q12 0 33 -36l4 -7q18 -32 18 -44q0 -7 -8 -12l-313 -184l313 -184q8 -5 8 -12q0 -12 -18 -44l-4 -7q-21 -36 -33 -36q-5 0 -11 3zM51 9.5q-3 9.5 -3 40.5v14q0 31 3 40.5t11 9.5h465
q8 0 11 -9.5t3 -40.5v-14q0 -31 -3 -40.5t-11 -9.5h-465q-8 0 -11 9.5z" />
    <glyph glyph-name="plusminus" unicode="&#xb1;" 
d="M246.5 214q-9.5 3 -9.5 11v176h-175q-8 0 -11 9.5t-3 40.5v14q0 31 3 40.5t11 9.5h175v175q0 8 9.5 11t40.5 3h14q31 0 40.5 -3t9.5 -11v-175h176q8 0 11 -9.5t3 -40.5v-14q0 -31 -3 -40.5t-11 -9.5h-176v-176q0 -8 -9.5 -11t-40.5 -3h-14q-31 0 -40.5 3zM51 9.5
q-3 9.5 -3 40.5v14q0 31 3 40.5t11 9.5h465q8 0 11 -9.5t3 -40.5v-14q0 -31 -3 -40.5t-11 -9.5h-465q-8 0 -11 9.5z" />
    <glyph glyph-name="approxequal" unicode="&#x2248;" 
d="M333.5 391.5q-27.5 11.5 -65.5 34.5q-28 16 -43.5 23.5t-32.5 7.5q-41 0 -59 -55q-4 -9 -16 -9q-11 0 -26 4l-13 3q-21 5 -27 9t-4 13q12 57 52 95t93 38q37 0 66 -12.5t65 -34.5q25 -16 41.5 -23.5t32.5 -7.5q40 0 59 56q3 9 14 9t27 -4l13 -3q21 -5 27.5 -9t4.5 -13
q-12 -57 -52 -95t-93 -38q-36 0 -63.5 11.5zM333.5 157.5q-27.5 11.5 -65.5 34.5q-28 16 -43.5 23.5t-32.5 7.5q-41 0 -59 -55q-4 -9 -16 -9q-11 0 -26 4l-13 3q-21 5 -27 9t-4 13q12 57 52 95t93 38q37 0 66 -12.5t65 -34.5q25 -16 41.5 -23.5t32.5 -7.5q40 0 59 56
q3 9 14 9t27 -4l13 -3q21 -5 27.5 -9t4.5 -13q-12 -57 -52 -95t-93 -38q-36 0 -63.5 11.5z" />
    <glyph glyph-name="asciitilde" unicode="~" 
d="M334 294.5q-30 12.5 -68 36.5q-29 17 -45.5 25t-33.5 8q-21 0 -36.5 -16t-25.5 -42q-3 -10 -18 -10q-4 0 -26 4l-13 3q-23 5 -29.5 9.5t-4.5 14.5q12 60 54.5 100t98.5 40q38 0 67 -12.5t70 -36.5q26 -17 43.5 -25t34.5 -8q21 0 36.5 16t25.5 42q3 10 18 10q4 0 26 -4
l13 -3q23 -5 29.5 -9.5t4.5 -14.5q-13 -60 -55 -100t-98 -40q-38 0 -68 12.5z" />
    <glyph glyph-name="logicalnot" unicode="&#xac;" 
d="M416.5 174q-9.5 3 -9.5 11v225h-325q-8 0 -11 9.5t-3 40.5v14q0 31 3 40.5t11 9.5h429q6 0 8 -1.5t2 -7.5v-330q0 -8 -9.5 -11t-40.5 -3h-14q-31 0 -40.5 3z" />
    <glyph glyph-name="infinity" unicode="&#x221e;" horiz-adv-x="811" 
d="M134.5 175.5q-38.5 19.5 -61.5 57t-23 89.5q0 75 48 121.5t123 46.5q52 0 97.5 -24t88.5 -71q93 93 183 93q75 0 123 -44t48 -120q0 -53 -24 -90.5t-63.5 -56.5t-86.5 -19q-48 0 -90 22t-89 70q-84 -94 -188 -94q-47 0 -85.5 19.5zM284 275.5q26 17.5 52 48.5
q-31 34 -55 50.5t-56 16.5t-51 -18t-19 -48q0 -31 20.5 -49t52.5 -18q30 0 56 17.5zM633.5 277q20.5 19 20.5 50q0 29 -22 45.5t-54 16.5q-29 0 -53.5 -17t-49.5 -48q33 -37 55 -51.5t48 -14.5q35 0 55.5 19z" />
    <glyph glyph-name="integral" unicode="&#x222b;" horiz-adv-x="376" 
d="M44 -134q-6 2 -8 5.5t-2 10.5t5 35l3 15q5 26 8.5 33t14.5 5q24 -4 41 -4q32 0 47.5 22t15.5 65t-11 91t-33 119q-25 83 -38 141t-13 116q0 95 49 152.5t136 57.5q40 0 73 -13q6 -2 8 -5.5t2 -10.5t-5 -35l-3 -15q-5 -26 -8.5 -33t-14.5 -5q-24 4 -41 4q-32 0 -47.5 -22
t-15.5 -65t11 -91t33 -119q25 -83 38 -141t13 -116q0 -95 -49 -152.5t-136 -57.5q-41 0 -73 13z" />
    <glyph glyph-name="uni2126" unicode="&#x2126;" horiz-adv-x="758" 
d="M61.5 10q-3.5 10 -3.5 45v6q0 26 1.5 36.5t4.5 13.5t11 3h98q-47 40 -83 114t-36 151q0 110 43.5 189t117.5 120.5t164 41.5t164 -41.5t117.5 -120.5t43.5 -189q0 -77 -36 -151t-83 -114h98q8 0 11 -3t4.5 -13.5t1.5 -36.5v-6q0 -35 -3.5 -45t-13.5 -10h-263q-8 0 -11 2
t-4.5 12t-1.5 34v3q0 22 3 29t14 15q139 107 139 280q0 73 -23 126t-64 80.5t-93 27.5t-93 -27.5t-64 -80.5t-23 -126q0 -173 139 -280q11 -8 14 -15t3 -29v-3q0 -24 -1.5 -34t-4.5 -12t-11 -2h-263q-10 0 -13.5 10z" />
    <glyph glyph-name="uni2206" unicode="&#x2206;" horiz-adv-x="673" 
d="M33.5 3q-7.5 3 -7.5 11v44q0 15 2 25.5t7 24.5l225 600q2 6 14 9t41 3h36q28 0 41 -2.5t16 -9.5l228 -600q9 -23 9 -50v-44q0 -8 -7.5 -11t-27.5 -3h-549q-20 0 -27.5 3zM478 125l-146 414l-145 -414h291z" />
    <glyph glyph-name="product" unicode="&#x220f;" horiz-adv-x="785" 
d="M142.5 -164q-12.5 3 -12.5 12v756h-87q-10 0 -13.5 9.5t-3.5 45.5v8q0 27 1.5 37.5t4.5 13t11 2.5h699q8 0 11 -2.5t4.5 -13t1.5 -37.5v-8q0 -36 -3.5 -45.5t-13.5 -9.5h-87v-756q0 -9 -12.5 -12t-53.5 -3h-14q-40 0 -52.5 3t-12.5 12v756h-235v-756q0 -9 -14 -12t-54 -3
h-11q-41 0 -53.5 3z" />
    <glyph glyph-name="summation" unicode="&#x2211;" horiz-adv-x="591" 
d="M45.5 -164q-7.5 3 -7.5 11v55q0 13 4 20.5t16 23.5l266 325l-263 318q-12 14 -16 22.5t-4 21.5v73q0 8 7.5 11t27.5 3h469q8 0 11 -3t4.5 -13.5t1.5 -36.5v-8q0 -35 -3.5 -45t-13.5 -10h-318l231 -278q4 -5 6 -11t2 -20v-27q0 -14 -2 -20.5t-7 -13.5l-230 -285h325
q8 0 11 -3t4.5 -13.5t1.5 -36.5v-8q0 -35 -3.5 -45t-13.5 -10h-479q-20 0 -27.5 3z" />
    <glyph glyph-name="radical" unicode="&#x221a;" horiz-adv-x="664" 
d="M294.5 -70.5q-11.5 2.5 -14.5 10.5l-149 441h-58q-8 0 -10.5 8.5t-2.5 41.5v7q0 33 2.5 41.5t10.5 8.5h132q18 0 23.5 -4t10.5 -20l112 -341l199 657q2 7 6.5 10.5t17 5t41.5 1.5h5q43 0 54 -3.5t8 -13.5l-269 -841q-2 -7 -14 -9.5t-49 -2.5h-6q-38 0 -49.5 2.5z" />
    <glyph glyph-name="uni00B5" unicode="&#xb5;" horiz-adv-x="596" 
d="M109.5 -222q-15.5 1 -20 4t-6.5 10q-7 31 -13 98t-6 148v475q0 6 3.5 9t17.5 4.5t46 1.5h5q42 0 53.5 -3t11.5 -12v-270q0 -52 4 -73t16 -35q20 -23 66 -23q40 0 66 16q15 9 20.5 21t7.5 32q2 23 2 98v234q0 6 3.5 9t17.5 4.5t46 1.5h5q42 0 53.5 -3t11.5 -12v-379
q0 -17 6.5 -22.5t22.5 -5.5q9 0 11 -7t2 -34v-11q0 -26 -2 -35t-7 -11q-31 -12 -70 -12q-68 0 -90 57q-25 -29 -62 -46t-82 -17q-27 0 -47 4q4 -121 18 -202q1 -6 -2 -9t-16.5 -4.5t-43.5 -1.5h-8q-25 0 -40.5 1z" />
    <glyph glyph-name="partialdiff" unicode="&#x2202;" 
d="M157.5 20.5q-52.5 30.5 -80.5 85t-28 124.5q0 66 27 118.5t73.5 82t104.5 29.5q35 0 72 -12t63 -32q-9 99 -35.5 151t-94.5 52q-43 0 -91 -24q-7 -3 -13 1.5t-16 24.5l-13 25q-8 18 -8 26q0 10 10 17q26 18 65 29.5t80 11.5q127 0 194 -104t67 -290q0 -147 -60 -246.5
t-194 -99.5q-70 0 -122.5 30.5zM362.5 153.5q27.5 51.5 28.5 163.5q-20 15 -47.5 23.5t-52.5 8.5q-49 0 -77.5 -31.5t-28.5 -89.5q0 -61 27.5 -93.5t70.5 -32.5q52 0 79.5 51.5z" />
    <glyph glyph-name="percent" unicode="%" horiz-adv-x="969" 
d="M101.5 370q-47.5 51 -47.5 148q0 102 49 157t131 55q77 0 124.5 -51t47.5 -148q0 -102 -49 -157t-131 -55q-77 0 -124.5 51zM209.5 4q-9.5 4 -3.5 13l437 686q7 11 20.5 14t50.5 3h2q31 0 43 -2t12 -7q0 -2 -4 -8l-437 -686q-6 -10 -20.5 -13.5t-50.5 -3.5h-7
q-33 0 -42.5 4zM279.5 437q17.5 31 17.5 90q0 116 -64 116q-35 0 -52.5 -31t-17.5 -90q0 -116 64 -116q35 0 52.5 31zM610.5 41q-47.5 51 -47.5 148q0 102 49 157t131 55q77 0 124.5 -51t47.5 -148q0 -102 -49 -157t-131 -55q-77 0 -124.5 51zM788.5 108q17.5 31 17.5 90
q0 116 -64 116q-35 0 -52.5 -31t-17.5 -90q0 -116 64 -116q35 0 52.5 31z" />
    <glyph glyph-name="perthousand" unicode="&#x2030;" horiz-adv-x="1366" 
d="M101.5 370q-47.5 51 -47.5 148q0 102 49 157t131 55q77 0 124.5 -51t47.5 -148q0 -102 -49 -157t-131 -55q-77 0 -124.5 51zM209.5 4q-9.5 4 -3.5 13l437 686q7 11 20.5 14t50.5 3h2q31 0 43 -2t12 -7q0 -2 -4 -8l-437 -686q-6 -10 -20.5 -13.5t-50.5 -3.5h-7
q-33 0 -42.5 4zM279.5 437q17.5 31 17.5 90q0 116 -64 116q-35 0 -52.5 -31t-17.5 -90q0 -116 64 -116q35 0 52.5 31zM610.5 41q-47.5 51 -47.5 148q0 102 49 157t131 55q77 0 124.5 -51t47.5 -148q0 -102 -49 -157t-131 -55q-77 0 -124.5 51zM1007.5 41q-47.5 51 -47.5 148
q0 102 49 157t131 55q77 0 124.5 -51t47.5 -148q0 -102 -49 -157t-131 -55q-77 0 -124.5 51zM788.5 108q17.5 31 17.5 90q0 116 -64 116q-35 0 -52.5 -31t-17.5 -90q0 -116 64 -116q35 0 52.5 31zM1185.5 108q17.5 31 17.5 90q0 116 -64 116q-35 0 -52.5 -31t-17.5 -90
q0 -116 64 -116q35 0 52.5 31z" />
    <glyph glyph-name="arrowup" unicode="&#x2191;" horiz-adv-x="683" 
d="M295.5 2.5q-8.5 2.5 -8.5 9.5v418l-97 -100q-4 -4 -11.5 0t-26.5 24l-7 7q-20 20 -24 26.5t1 11.5l184 184q12 12 17 15t12 3h12q7 0 12 -3t17 -15l184 -184q5 -5 1 -11.5t-24 -26.5l-7 -7q-19 -20 -26.5 -24t-11.5 0l-97 100v-418q0 -7 -8.5 -9.5t-40.5 -2.5h-10
q-32 0 -40.5 2.5z" />
    <glyph glyph-name="arrowright" unicode="&#x2192;" horiz-adv-x="683" 
d="M423.5 76q-6.5 4 -26.5 24l-7 7q-20 19 -24 26.5t0 11.5l100 97h-408q-7 0 -9.5 8.5t-2.5 40.5v10q0 32 2.5 40.5t9.5 8.5h408l-100 97q-4 4 0 11.5t24 26.5l7 7q20 20 26.5 24t11.5 -1l184 -184q12 -12 15 -17t3 -12v-12q0 -7 -3 -12t-15 -17l-184 -184q-5 -5 -11.5 -1z
" />
    <glyph glyph-name="arrowdown" unicode="&#x2193;" horiz-adv-x="683" 
d="M323 3q-5 3 -17 15l-184 184q-5 5 -1 11.5t24 26.5l7 7q19 20 26.5 24t11.5 0l97 -100v418q0 7 8.5 9.5t40.5 2.5h10q32 0 40.5 -2.5t8.5 -9.5v-418l97 100q4 4 11.5 0t26.5 -24l7 -7q20 -20 24 -26.5t-1 -11.5l-184 -184q-12 -12 -17 -15t-12 -3h-12q-7 0 -12 3z" />
    <glyph glyph-name="arrowleft" unicode="&#x2190;" horiz-adv-x="683" 
d="M64 261q-12 12 -15 17t-3 12v12q0 7 3 12t15 17l184 184q5 5 11.5 1t26.5 -24l7 -7q20 -19 24 -26.5t0 -11.5l-100 -97h408q7 0 9.5 -8.5t2.5 -40.5v-10q0 -32 -2.5 -40.5t-9.5 -8.5h-408l100 -97q4 -4 0 -11.5t-24 -26.5l-7 -7q-20 -20 -26.5 -24t-11.5 1z" />
    <glyph glyph-name="lozenge" unicode="&#x25ca;" horiz-adv-x="579" 
d="M246 -13l-186 329q-6 11 -8 18t-2 22v14q0 21 10 38l192 335q6 10 34 10h16q16 0 22 -2t10 -8l185 -330q10 -17 10 -38v-13q0 -22 -10 -40l-191 -335q-4 -6 -10 -8t-22 -2h-16q-28 0 -34 10zM411 366l-119 213l-121 -216l121 -213z" />
    <glyph glyph-name="uniF8FF" unicode="&#xf8ff;" horiz-adv-x="545" 
d="M72 676h401v-66h-334v-543h74v-67h-141v676zM204 274h202v69h-202v199h269v-66h-201v-66h201v-202h-269v66z" />
    <glyph glyph-name="at" unicode="@" horiz-adv-x="832" 
d="M248.5 16.5q-74.5 26.5 -123.5 76.5q-43 43 -66.5 101.5t-23.5 130.5q0 118 57 210.5t152 143.5t204 51q107 0 186.5 -38t122.5 -107.5t43 -161.5q0 -64 -26 -124t-75 -98.5t-114 -38.5q-45 0 -74.5 14.5t-42.5 39.5q-20 -24 -49.5 -39t-62.5 -15q-66 0 -100 41.5
t-34 105.5q0 55 24 109t68.5 89.5t104.5 35.5q29 0 50 -10.5t32 -28.5l6 20q2 6 16 9t29 3h18q32 0 41.5 -3.5t7.5 -11.5l-5 -20q-15 -54 -26 -104l-17 -78q-4 -24 -4 -31q0 -42 34 -42q24 0 45.5 21.5t35.5 61t14 91.5q0 99 -65 156t-184 57q-93 0 -161.5 -41t-105 -110
t-36.5 -150q0 -129 78.5 -191.5t202.5 -62.5q96 0 195 29q6 2 10.5 -4.5t8.5 -24.5l4 -17q2 -7 2 -16q0 -11 -8 -14q-45 -19 -107 -30t-122 -11q-85 0 -159.5 26.5zM432 273q22 26 34 79l17 80q-10 13 -22 18.5t-29 5.5q-26 0 -48.5 -19.5t-36 -52t-13.5 -69.5
q0 -30 12.5 -47.5t35.5 -17.5q30 0 50 23z" />
    <glyph glyph-name="ampersand" unicode="&#x26;" horiz-adv-x="696" 
d="M157 16q-55 26 -88 76t-33 117q0 64 33.5 112.5t94.5 78.5q-44 65 -44 134q0 54 27 99t76 71t114 26q43 0 81.5 -11t69.5 -31q7 -4 7 -13q0 -10 -10 -33l-8 -16q-10 -22 -16.5 -28.5t-15.5 -2.5q-49 22 -93 22q-43 0 -67 -23.5t-24 -59.5q0 -26 12.5 -51t42.5 -61
q51 -60 167 -168q25 63 31 151q1 9 10.5 12.5t43.5 3.5h11q32 0 45 -3.5t12 -12.5q-6 -134 -59 -235q65 -54 84 -68q5 -3 5 -10q0 -14 -28 -48l-8 -10q-29 -35 -41 -35q-4 0 -9 3q-32 22 -82 65q-86 -77 -220 -77q-66 0 -121 26zM408 146q-122 111 -182 178
q-22 -19 -34 -45.5t-12 -58.5q0 -51 34 -81.5t90 -30.5q58 0 104 38z" />
    <glyph glyph-name="paragraph" unicode="&#xb6;" horiz-adv-x="613" 
d="M247.5 -135q-9.5 2 -9.5 8v426q-60 2 -106 29.5t-71 73.5t-25 103q0 98 62 156.5t175 58.5h311q5 0 7 -6t2 -26v-34q0 -19 -2 -25t-7 -6h-72v-750q0 -6 -9.5 -8t-28.5 -2h-33q-20 0 -29.5 2t-9.5 8v750h-54v-750q0 -6 -9.5 -8t-28.5 -2h-33q-20 0 -29.5 2z" />
    <glyph glyph-name="section" unicode="&#xa7;" horiz-adv-x="541" 
d="M88 10q-6 5 -6 10q0 8 18 39l9 14q18 32 28 32q4 0 8 -3q51 -32 102 -32q45 0 65 17q14 12 14 29q0 20 -22 31t-72 25q-55 15 -92 31t-63.5 47.5t-26.5 81.5q0 43 18.5 76t49.5 54q-37 37 -37 99q0 51 27 89.5t74 59t106 20.5q99 0 165 -50q6 -4 6 -10q0 -7 -18 -39
l-9 -14q-18 -32 -28 -32q-3 0 -8 3q-51 32 -102 32q-45 0 -65 -17q-14 -12 -14 -29q0 -19 22 -30.5t72 -25.5q55 -15 92 -31t63.5 -47.5t26.5 -81.5q0 -43 -18.5 -76t-50.5 -54q38 -38 38 -99q0 -51 -27 -89.5t-74 -59t-106 -20.5q-99 0 -165 50zM347.5 305q9.5 14 9.5 30
q0 23 -23 34.5t-75 26.5l-41 12q-16 -10 -25 -24t-9 -29q0 -23 22.5 -34.5t73.5 -26.5q7 -2 17.5 -4.5t24.5 -7.5q16 9 25.5 23z" />
    <glyph glyph-name="copyright" unicode="&#xa9;" horiz-adv-x="800" 
d="M215.5 36q-83.5 46 -131.5 130.5t-48 193.5t48 193.5t131.5 130.5t184.5 46t184.5 -46t131.5 -130.5t48 -193.5t-48 -193.5t-131.5 -130.5t-184.5 -46t-184.5 46zM536 106.5q62 36.5 98 102.5t36 151t-36 151t-98.5 102.5t-138.5 36.5q-75 0 -137 -36.5t-98 -102.5
t-36 -151t36 -151t98.5 -102.5t138.5 -36.5q75 0 137 36.5zM277.5 205.5q-45.5 54.5 -45.5 150.5t48 154.5t131 58.5q64 0 107 -34q7 -4 7 -10q0 -5 -9 -22l-6 -11q-8 -14 -11.5 -17.5t-8.5 0.5q-19 13 -36 18t-37 5q-48 0 -73 -35.5t-25 -104.5q0 -135 98 -135q42 0 76 17
q4 2 6 2q4 0 7 -5t7 -13l5 -12q7 -19 7 -21q0 -5 -7 -8q-20 -14 -51.5 -23t-61.5 -9q-82 0 -127.5 54.5z" />
    <glyph glyph-name="registered" unicode="&#xae;" horiz-adv-x="800" 
d="M215.5 36q-83.5 46 -131.5 130.5t-48 193.5t48 193.5t131.5 130.5t184.5 46t184.5 -46t131.5 -130.5t48 -193.5t-48 -193.5t-131.5 -130.5t-184.5 -46t-184.5 46zM538 106.5q62 36.5 98 102.5t36 151t-36 151t-98.5 102.5t-138.5 36.5q-75 0 -137 -36.5t-98 -102.5
t-36 -151t36 -151t98.5 -102.5t138.5 -36.5q75 0 137 36.5zM272.5 158.5q-6.5 1.5 -6.5 6.5v390q0 5 4.5 6.5t20.5 1.5h83q72 0 115 -26t43 -94q0 -39 -18.5 -68t-52.5 -47l13 -24q41 -77 86 -136q2 -4 2 -5q0 -6 -24 -6h-33q-17 0 -23.5 1t-11.5 7q-24 28 -70 114l-19 34
h-32v-148q0 -5 -7.5 -6.5t-30.5 -1.5h-8q-24 0 -30.5 1.5zM376 379q38 0 56 18q16 16 16 44q0 25 -14 39q-15 15 -60 15h-25v-116h27z" />
    <glyph glyph-name="trademark" unicode="&#x2122;" horiz-adv-x="844" 
d="M125.5 317.5q-6.5 1.5 -6.5 6.5v311h-93q-6 0 -8 5t-2 26v24q0 21 2 25.5t8 4.5h287q6 0 7.5 -4.5t1.5 -25.5v-24q0 -20 -2 -25.5t-7 -5.5h-93v-311q0 -5 -7.5 -6.5t-30.5 -1.5h-26q-24 0 -30.5 1.5zM357.5 317.5q-5.5 1.5 -5.5 6.5l15 387q0 6 6.5 7.5t31.5 1.5h46
q22 0 29.5 -2t9.5 -8l53 -127q28 -67 35 -96q11 42 32 94l53 129q3 6 9 8t30 2h43q24 0 32 -2t8 -7l13 -387q0 -5 -5.5 -6.5t-31.5 -1.5h-24q-24 0 -30 1t-6 6l-2 140q-1 26 -1 75q0 33 1 47q-14 -48 -45 -121l-30 -75q-2 -6 -8 -7.5t-27 -1.5h-26q-21 0 -27 2t-8 7l-32 73
q-31 74 -46 122q2 -42 2 -78t-1 -54l-4 -129q0 -5 -5.5 -6t-29.5 -1h-24q-25 0 -30.5 1.5z" />
    <glyph glyph-name="degree" unicode="&#xb0;" horiz-adv-x="353" 
d="M71 483q-39 36 -39 102t41 105.5t107 39.5q63 0 102 -36.5t39 -102.5t-41 -105t-107 -39q-63 0 -102 36zM222.5 536.5q18.5 19.5 18.5 53.5q0 32 -17 51t-47 19t-48 -20t-18 -53t16.5 -51.5t46.5 -18.5t48.5 19.5z" />
    <glyph glyph-name="bar" unicode="|" horiz-adv-x="273" 
d="M91.5 -271.5q-11.5 1.5 -15 4.5t-3.5 9v1060q0 6 3.5 9t15 4.5t38.5 1.5h11q38 0 48.5 -3.5t10.5 -11.5v-1060q0 -8 -10.5 -11.5t-48.5 -3.5h-11q-27 0 -38.5 1.5z" />
    <glyph glyph-name="brokenbar" unicode="&#xa6;" horiz-adv-x="273" 
d="M91.5 366.5q-11.5 1.5 -15 4.5t-3.5 9v371q0 6 3.5 9t15 4.5t38.5 1.5h11q38 0 48.5 -3.5t10.5 -11.5v-371q0 -8 -10.5 -11.5t-48.5 -3.5h-11q-27 0 -38.5 1.5zM91.5 -220.5q-11.5 1.5 -15 4.5t-3.5 9v371q0 6 3.5 9t15 4.5t38.5 1.5h11q38 0 48.5 -3.5t10.5 -11.5v-371
q0 -8 -10.5 -11.5t-48.5 -3.5h-11q-27 0 -38.5 1.5z" />
    <glyph glyph-name="uni2113" unicode="&#x2113;" horiz-adv-x="298" 
d="M100 25q-17 17 -24.5 42.5t-7.5 62.5v347q0 67 -3 153.5t-5 116.5q-1 6 2.5 8.5t19.5 3.5t43 1h5q41 0 52.5 -2.5t13.5 -10.5q9 -43 9 -291v-318q0 -18 7.5 -26t25.5 -8h12q7 0 8.5 -8t1.5 -36v-9q0 -27 -1.5 -34t-7.5 -10q-26 -12 -67 -12q-54 0 -84 30z" />
    <glyph glyph-name="dagger" unicode="&#x2020;" horiz-adv-x="481" 
d="M195.5 -135.5q-11.5 1.5 -15 4.5t-3.5 9v509h-143q-8 0 -11 9.5t-3 40.5v14q0 31 3 40.5t11 9.5h143v204q0 6 3.5 9t15 4.5t38.5 1.5h11q38 0 48.5 -3.5t10.5 -11.5v-204h143q8 0 11 -9.5t3 -40.5v-14q0 -31 -3 -40.5t-11 -9.5h-143v-509q0 -8 -10.5 -11.5t-48.5 -3.5
h-11q-27 0 -38.5 1.5z" />
    <glyph glyph-name="daggerdbl" unicode="&#x2021;" horiz-adv-x="501" 
d="M205.5 -135.5q-11.5 1.5 -15 4.5t-3.5 9v204h-143q-8 0 -11 9.5t-3 40.5v14q0 31 3 40.5t11 9.5h143v191h-143q-8 0 -11 9.5t-3 40.5v14q0 31 3 40.5t11 9.5h143v204q0 6 3.5 9t15 4.5t38.5 1.5h11q38 0 48.5 -3.5t10.5 -11.5v-204h143q8 0 11 -9.5t3 -40.5v-14
q0 -31 -3 -40.5t-11 -9.5h-143v-191h143q8 0 11 -9.5t3 -40.5v-14q0 -31 -3 -40.5t-11 -9.5h-143v-204q0 -8 -10.5 -11.5t-48.5 -3.5h-11q-27 0 -38.5 1.5z" />
    <glyph glyph-name="estimated" unicode="&#x212e;" horiz-adv-x="922" 
d="M255.5 40q-94.5 50 -150 135t-55.5 185q0 101 55.5 186t150 134.5t206.5 49.5q111 0 205.5 -49.5t149.5 -134.5t55 -186v-8h-666q-3 0 -4 -1.5t-1 -4.5v-202q0 -12 9 -24q50 -50 115.5 -79t137.5 -29q78 0 147 32.5t117 89.5h60q-57 -67 -142.5 -105.5t-182.5 -38.5
q-112 0 -206.5 50zM716 371q5 0 5 6v203q0 13 -10 25q-49 48 -113 75.5t-135 27.5q-72 0 -137 -28t-115 -78q-10 -10 -10 -26v-199q0 -6 5 -6h510z" />
    <glyph glyph-name="uni2116" unicode="&#x2116;" horiz-adv-x="1122" 
d="M85 2.5q-12 2.5 -12 12.5v690q0 7 3 10t17 4t37 1h5q39 0 51.5 -3.5t18.5 -12.5l180 -274q60 -92 81 -128t37 -74q-6 72 -6 231v246q0 9 12 12t52 3h7q38 0 51.5 -3.5t13.5 -11.5v-690q0 -9 -10 -12t-48 -3h-6q-36 0 -49 3t-19 13l-180 274q-59 90 -83.5 131.5
t-35.5 71.5q7 -66 7 -232v-246q0 -9 -12.5 -12t-51.5 -3h-6q-42 0 -54 2.5zM747.5 303q-49.5 52 -49.5 149q0 104 51.5 160t146.5 56q87 0 136.5 -52t49.5 -149q0 -103 -51.5 -159.5t-146.5 -56.5q-87 0 -136.5 52zM942.5 385q18.5 27 18.5 78q0 47 -17 72.5t-50 25.5
q-38 0 -56.5 -27t-18.5 -77q0 -48 17 -73.5t50 -25.5q38 0 56.5 27z" />
    <glyph glyph-name="asciicircum" unicode="^" 
d="M66.5 318q-11.5 3 -11.5 10q0 4 3 10l176 366q5 9 14.5 12.5t34.5 3.5h24q25 0 34.5 -3.5t14.5 -12.5l176 -366q3 -6 3 -10q0 -7 -11.5 -10t-42.5 -3h-11q-30 0 -41.5 2.5t-15.5 9.5l-118 258l-118 -258q-4 -7 -15.5 -9.5t-41.5 -2.5h-11q-31 0 -42.5 3z" />
    <glyph glyph-name="uni0308" unicode="&#x308;" horiz-adv-x="0" 
d="M-336 630q-21 20 -21 49q0 30 21 50.5t52 20.5q32 0 52.5 -20.5t20.5 -50.5q0 -29 -20.5 -49t-52.5 -20q-31 0 -52 20zM-119 630q-20 20 -20 49q0 30 20 50.5t51 20.5q33 0 54 -20.5t21 -50.5q0 -29 -21 -49t-54 -20q-31 0 -51 20z" />
    <glyph glyph-name="uni0307" unicode="&#x307;" horiz-adv-x="0" 
d="M-226 640.5q-22 21.5 -22 51.5t22 51t52 21t51 -21t21 -51t-21 -51.5t-51 -21.5t-52 21.5z" />
    <glyph glyph-name="gravecomb" unicode="&#x300;" horiz-adv-x="0" 
d="M-154 598.5q-9 2.5 -14 8.5l-130 163q-3 5 -3 7q0 9 32 9h48q27 0 36.5 -2.5t13.5 -9.5l106 -163q2 -3 2 -7q0 -8 -26 -8h-38q-18 0 -27 2.5z" />
    <glyph glyph-name="acutecomb" unicode="&#x301;" horiz-adv-x="0" 
d="M-284 599q-6 3 -1 12l106 163q4 7 13.5 9.5t36.5 2.5h48q32 0 32 -9q0 -2 -3 -7l-130 -163q-5 -6 -14 -8.5t-27 -2.5h-38q-17 0 -23 3z" />
    <glyph glyph-name="uni030B" unicode="&#x30b;" horiz-adv-x="0" 
d="M-379.5 606q-5.5 3 -0.5 11l92 157q4 7 13.5 9.5t34.5 2.5h43q22 0 27.5 -3.5t0.5 -11.5l-116 -157q-5 -7 -13 -9t-26 -2h-33q-17 0 -22.5 3zM-179.5 606q-5.5 3 -0.5 11l92 157q4 7 13.5 9.5t34.5 2.5h43q22 0 27.5 -3.5t0.5 -11.5l-116 -157q-5 -7 -13 -9t-26 -2h-33
q-17 0 -22.5 3z" />
    <glyph glyph-name="uni0302" unicode="&#x302;" horiz-adv-x="0" 
d="M-286 598q-5 0 -11.5 5.5t-15.5 14.5l-10 10q-17 17 -17 25q0 5 5 10l91 97q9 10 21.5 13t40.5 3h14q28 0 40.5 -3t21.5 -13l91 -97q5 -5 5 -10q0 -8 -17 -25l-10 -10q-9 -9 -15.5 -14.5t-11.5 -5.5q-3 0 -10 5l-101 88l-101 -88q-7 -5 -10 -5z" />
    <glyph glyph-name="uni030C" unicode="&#x30c;" horiz-adv-x="0" 
d="M-222.5 601q-12.5 3 -21.5 13l-91 97q-5 5 -5 10q0 8 17 25l10 10q9 9 15.5 14.5t11.5 5.5q3 0 10 -5l101 -88l101 88q7 5 10 5q5 0 11.5 -5.5t15.5 -14.5l10 -10q17 -17 17 -25q0 -5 -5 -10l-91 -97q-9 -10 -21.5 -13t-40.5 -3h-14q-28 0 -40.5 3z" />
    <glyph glyph-name="uni0306" unicode="&#x306;" horiz-adv-x="0" 
d="M-285.5 644q-40.5 37 -44.5 104q0 9 8 11.5t35 2.5h15q22 0 29 -2.5t8 -9.5q10 -57 60 -57t60 57q1 7 8 9.5t29 2.5h15q27 0 35 -2.5t8 -11.5q-4 -67 -44.5 -104t-110.5 -37t-110.5 37z" />
    <glyph glyph-name="uni030A" unicode="&#x30a;" horiz-adv-x="0" 
d="M-255.5 623q-33.5 32 -33.5 78q0 45 33.5 77t80.5 32t80 -31.5t33 -77.5t-33 -78t-80 -32t-80.5 32zM-148 672.5q11 11.5 11 28.5q0 16 -11 27.5t-27 11.5q-17 0 -28.5 -11t-11.5 -28t11.5 -28.5t28.5 -11.5q16 0 27 11.5z" />
    <glyph glyph-name="tildecomb" unicode="&#x303;" horiz-adv-x="0" 
d="M-150.5 625.5q-15.5 5.5 -37.5 16.5q-12 6 -23.5 10.5t-20.5 4.5q-27 0 -59 -32q-4 -4 -12 -1t-24 19l-4 4q-20 20 -20 28q0 3 4 9q54 67 115 67q19 0 34.5 -5.5t37.5 -16.5q11 -6 22.5 -10.5t20.5 -4.5q27 0 59 32q4 4 12 1t24 -19l4 -4q20 -20 20 -28q0 -3 -4 -9
q-54 -67 -115 -67q-18 0 -33.5 5.5z" />
    <glyph glyph-name="uni0304" unicode="&#x304;" horiz-adv-x="0" 
d="M-320.5 647.5q-2.5 8.5 -2.5 32.5v14q0 24 2.5 32.5t10.5 8.5h270q8 0 10.5 -8.5t2.5 -32.5v-14q0 -24 -2.5 -32.5t-10.5 -8.5h-270q-8 0 -10.5 8.5z" />
    <glyph glyph-name="uni0326" unicode="&#x326;" horiz-adv-x="0" 
d="M-239 -299q-6 4 -6 10q0 5 4 9q41 51 41 92q0 9 -3.5 16t-11.5 17q-9 11 -13.5 20t-4.5 22q0 22 17 38t44 16q29 0 47.5 -21.5t18.5 -54.5q0 -46 -25 -92t-71 -86q-7 -5 -10 -5q-4 0 -11 5z" />
    <glyph glyph-name="uni0327" unicode="&#x327;" horiz-adv-x="0" 
d="M-274 -226q-4 2 -5.5 4t-1.5 7q0 9 4 24l3 11q5 18 9 23.5t13 2.5q21 -6 46 -6q20 0 29.5 8t9.5 21q0 30 -45 30q-31 0 -60 -4l17 118q1 6 7.5 8t29.5 2h7q26 0 33.5 -3t6.5 -12l-4 -45q48 -2 77 -25t29 -69q0 -45 -32.5 -76.5t-94.5 -31.5q-47 0 -78 13z" />
    <glyph glyph-name="uni0328" unicode="&#x328;" horiz-adv-x="0" 
d="M-249 -209q-35 31 -35 86q0 39 28.5 77.5t69.5 58.5q10 5 19.5 6.5t26.5 1.5h50q7 0 8.5 -4.5t-2.5 -7.5q-56 -33 -77.5 -62t-21.5 -60q0 -18 11.5 -28t30.5 -10q20 0 42 10q6 3 10 -2t12 -25l4 -12q6 -18 6 -25q0 -8 -8 -14q-17 -9 -41 -15t-43 -6q-55 0 -90 31z" />
    <glyph glyph-name="uni0308.case" horiz-adv-x="0" 
d="M-336 822q-21 20 -21 49q0 30 21 50.5t52 20.5q32 0 52.5 -20.5t20.5 -50.5q0 -29 -20.5 -49t-52.5 -20q-31 0 -52 20zM-119 822q-20 20 -20 49q0 30 20 50.5t51 20.5q33 0 54 -20.5t21 -50.5q0 -29 -21 -49t-54 -20q-31 0 -51 20z" />
    <glyph glyph-name="uni0307.case" horiz-adv-x="0" 
d="M-226 828.5q-22 21.5 -22 51.5t22 51t52 21t51 -21t21 -51t-21 -51.5t-51 -21.5t-52 21.5z" />
    <glyph glyph-name="gravecomb.case" horiz-adv-x="0" 
d="M-154 790.5q-9 2.5 -14 8.5l-130 163q-3 5 -3 7q0 9 32 9h48q27 0 36.5 -2.5t13.5 -9.5l106 -163q2 -3 2 -7q0 -8 -26 -8h-38q-18 0 -27 2.5z" />
    <glyph glyph-name="acutecomb.case" horiz-adv-x="0" 
d="M-284 791q-6 3 -1 12l106 163q4 7 13.5 9.5t36.5 2.5h48q32 0 32 -9q0 -2 -3 -7l-130 -163q-5 -6 -14 -8.5t-27 -2.5h-38q-17 0 -23 3z" />
    <glyph glyph-name="uni030B.case" horiz-adv-x="0" 
d="M-379.5 798q-5.5 3 -0.5 11l92 157q4 7 13.5 9.5t34.5 2.5h43q22 0 27.5 -3.5t0.5 -11.5l-116 -157q-5 -7 -13 -9t-26 -2h-33q-17 0 -22.5 3zM-179.5 798q-5.5 3 -0.5 11l92 157q4 7 13.5 9.5t34.5 2.5h43q22 0 27.5 -3.5t0.5 -11.5l-116 -157q-5 -7 -13 -9t-26 -2h-33
q-17 0 -22.5 3z" />
    <glyph glyph-name="uni0302.case" horiz-adv-x="0" 
d="M-286 790q-5 0 -11.5 5.5t-15.5 14.5l-10 10q-17 17 -17 25q0 5 5 10l91 97q9 10 21.5 13t40.5 3h14q28 0 40.5 -3t21.5 -13l91 -97q5 -5 5 -10q0 -8 -17 -25l-10 -10q-9 -9 -15.5 -14.5t-11.5 -5.5q-3 0 -10 5l-101 88l-101 -88q-7 -5 -10 -5z" />
    <glyph glyph-name="uni030C.case" horiz-adv-x="0" 
d="M-222.5 793q-12.5 3 -21.5 13l-91 97q-5 5 -5 10q0 8 17 25l10 10q9 9 15.5 14.5t11.5 5.5q3 0 10 -5l101 -88l101 88q7 5 10 5q5 0 11.5 -5.5t15.5 -14.5l10 -10q17 -17 17 -25q0 -5 -5 -10l-91 -97q-9 -10 -21.5 -13t-40.5 -3h-14q-28 0 -40.5 3z" />
    <glyph glyph-name="uni0306.case" horiz-adv-x="0" 
d="M-285.5 834q-40.5 37 -44.5 104q0 9 8 11.5t35 2.5h15q22 0 29 -2.5t8 -9.5q10 -57 60 -57t60 57q1 7 8 9.5t29 2.5h15q27 0 35 -2.5t8 -11.5q-4 -67 -44.5 -104t-110.5 -37t-110.5 37z" />
    <glyph glyph-name="uni030A.case" horiz-adv-x="0" 
d="M-255.5 823q-33.5 32 -33.5 78q0 45 33.5 77t80.5 32t80 -31.5t33 -77.5t-33 -78t-80 -32t-80.5 32zM-148 872.5q11 11.5 11 28.5q0 16 -11 27.5t-27 11.5q-17 0 -28.5 -11t-11.5 -28t11.5 -28.5t28.5 -11.5q16 0 27 11.5z" />
    </font>
</defs>
</svg>
