<svg id="Layer_1" data-name="Layer 1" xmlns="http://www.w3.org/2000/svg" viewBox="0 0 390.29 167.12"><defs><style>.cls-1{fill:#ff7d7d;}.cls-2{fill:#fff;}</style></defs><title>JUST_logo_Ver3_RGB_White_on_Coral</title><rect class="cls-1" x="61.72" width="262.2" height="167.12"/><path class="cls-2" d="M447.73,209.62a26.52,26.52,0,0,1-.45-4.5,14.51,14.51,0,0,1,.5-3.76,12,12,0,0,1,3.43-6.32l1.07-1c0.27-.23.77-0.57,1.05-0.79A14.16,14.16,0,0,1,458,191a8.35,8.35,0,0,1,3.22-.4c1.69,0,3.59,1,5.38,1.47a19.39,19.39,0,0,1,7.25,3.39c0.38,0.3,2.56,2.36,2.66,2.47a8.6,8.6,0,0,1,2.43,4.15,7.23,7.23,0,0,1,.4,2.22,20.24,20.24,0,0,1-1.51,6.84,17.33,17.33,0,0,1-2,3.84c-0.44.53-.57,1.36-0.93,1.88a9.08,9.08,0,0,1-3.57,3.36,15.89,15.89,0,0,1-6,1,15.34,15.34,0,0,1-6-1.48c-2.42-.92-5.63-1.62-7.45-3.37a14.29,14.29,0,0,1-2.87-4.47C448.72,211.55,447.85,210,447.73,209.62Z" transform="translate(-89.02 -78.36)"/><path class="cls-2" d="M307.91,215.75c-5.19-3.79-9.79-8.46-12.18-13.85-0.8-1.79-2.91-6.25-3.39-7.58a14.4,14.4,0,0,1-1.09-5.3c0-2.88,1.67-.24,2.88-0.24,0.37,0,1.32-2.62,2-2.38,1.32,0.44,2.27-.36,2.56-0.2,1.8,1,2.41.26,2.41-.23s2.55-.07,3-0.18c1.44-.36,2-0.15,1-1.75-0.23-.37,1.86-1.06,3.2-0.44,0.09,0,.36-0.09.39-0.77,0.07-1.49,1.77-.67,2.37.53l4.59,8a11.33,11.33,0,0,0,10.17,6.38,20,20,0,0,0,4.79-.8,30.85,30.85,0,0,0,4.59-1.4c2.59-1.4,4.59-2.19,4.59-6.38,0-2.39-1.6-4.59-4.39-6.58a145.69,145.69,0,0,0-19.15-12.17c-8.92-5.38-17.39-15.47-18-16.33a29,29,0,0,1-2.39-4.46c-2-3.59-2.12-9.94-2.12-15.12,0-4,2-8.58,4-12.77,2.19-4.59,4.59-8.78,8.38-11.57,7.18-5.39,18.7-8,22.29-8a55.42,55.42,0,0,1,10.92,1.28c9.22,2.63,14.52,4.2,17,6.77,3.66,3.78,7.57,13.68,8.18,15.26s0.39,8.6.19,10.4a6.27,6.27,0,0,1-1.75,2.88c-0.57.63-.83,1.9-2.63,1.9-2.79,0-5.37-1.51-7.25-1.2-0.79.13-2.77,1.71-5.39,1.2-2-.38-1.8.4-2.79,0.4-2.59,0-3-2.39-3.39-4.79-0.6-3.39-2.11-5.3-3.11-7.1-1.79-3.59-4.52-4.87-9-4.87-0.67,0-6.22,1.63-7.82,3a8.55,8.55,0,0,0-2.45,7.54c1.09,8.44,4.49,9.57,5.88,10.57,2.59,1.4,5,3.39,7.58,4.79,4.79,2.59,10.42,4.7,14.78,8,3.36,2.52,9.17,6.58,12.17,9.18s5.28,7.12,7,12.59a48.87,48.87,0,0,1,.4,5.39,36.82,36.82,0,0,1-.6,5.39c-0.4,2-.6,3.59-1,5.19-0.6,2.59-3.19,5-4.39,7.58l-0.8,1.2c-2.79,5.59-5.78,8.38-10.37,11.37-4.79,2.79-9.7,5.18-21.09,5.18a37.57,37.57,0,0,1-9.83-1.4C315,218.8,311.5,218.54,307.91,215.75Z" transform="translate(-89.02 -78.36)"/><path class="cls-2" d="M112.08,219.39a14.4,14.4,0,0,1-2.42-1.21c-2.42-1.21-7.25-3.22-8.66-4.63-7.25-6.85-10.84-12.86-11.84-30.18-0.2-1.81-.19-2.31.18-2.93s0.66-.32,1.83-0.33c0.76,0,1.27-1,1.77-1.17,0.81-.34.74,0.81,1.51,0.81,0.44,0,3.62-2.62,3.62-1.51a1.12,1.12,0,0,0,1.1,1.31c0.41,0.07,1.89-3.69,3-3.4s1,0.36,1.26.28a2.37,2.37,0,0,0,1.06-1.26c0.37-.67,1-0.14,1.57-0.63,1.44-1.15,4.47-1.52,5.05,3.36a46.9,46.9,0,0,0,1.62,9.47c1.21,3.83,3.43,9.07,8.87,9.07h1.21c6.27-1.57,8-2.87,8.68-7.18,0.74-4.69.79-10.15,1.19-16.8,0.4-5.84-.9-13.7-0.9-20.75,0-3.83-.1-6.44-0.1-9.46V130.6c0-5-.81-9.39-0.81-15.64a25.3,25.3,0,0,1,.81-6,4,4,0,0,1,3.29-1.93c2.75-.28,3.68-1.19,5.55-2,4.6-2,6.65-3,10.41-2.77a29.69,29.69,0,0,1,4.12,1.34c1.42,0.48,3,.73,3.39,1.11,3.22,3.22,1.31,10.87,1.31,16.91,0,5.84,1,12.93.81,19.17,0.2,5.44,0,10.47,0,20.14,0,6.25.2,14.71,0.2,17.33,0,12.69-3.53,20.36-6.65,26.8s-21.12,13.5-24.44,14.91c-1.89.81-4,.81-6,1C119.33,221,113.92,220.16,112.08,219.39Z" transform="translate(-89.02 -78.36)"/><path class="cls-2" d="M185.82,140.57c0.2-5.44-.2-15.31-0.2-17.53a78.79,78.79,0,0,1,1.21-12.69c0.48-3.12,3.17-4.62,3.63-5a4.35,4.35,0,0,1,3.63-.77,14.22,14.22,0,0,0,6.65-.24c4.27-1.09,5.26,1,7.11,1.46a12.32,12.32,0,0,1,3.39,1.36c2.22,1.21,2.62,2.82,2.82,5.44,0,0,0,1.81,0,2.82l-0.4,9.87a101.6,101.6,0,0,0-.1,11.08c0.2,3.42.2,7.25,0.2,10.48l0.34,17.33c0,2.22.07,4.79,0.09,8.66,0,1.62,0,3.42.16,5a58.22,58.22,0,0,0,1.82,10.59c2.82,7.25,7.43,9.6,12.41,8.11,14.59-4.39,14.27-7.15,14.27-23.21,0-3.83.31-7.78,0.51-11.61,0.2-4.63.18-9.07,0.38-13.7,0-6.25.2-12.29,0.2-18.54v-8.86c-0.2-3.43-.2-5.33-0.2-6.35s1.36-4.34,3.46-6.45c0.35-.35,2,0.87,2.4.45,0.6-.57.58-0.77,1.07-0.76,3.11,0.05,3.81-2.57,4.26-.74,0.13,0.55.3,0.44,1.68,0.19a11.09,11.09,0,0,0,2.11-.9c0.65-.14,1,0.54,1.48.54,1.46,0,.1-0.39,1-1.29,0.55-.52.56-0.52,1.59-0.38a37.86,37.86,0,0,1,6.48,1.69c0.51,0.16,2.84,1.35,2.93,1.76,0.18,0.92.6,3,.6,3a4.74,4.74,0,0,1-.2,1.81c0,0.45.2,1.23,0.2,1.61v2.42c0,2.22,0,4.43-.2,6.45l0.6,5.24c0,4.63-.4,11.08-0.81,17.13-0.4,7.05-.6,13.5-0.6,13.3,0,2.62.2,13.3-.4,20.55a77.63,77.63,0,0,1-4,18.94c-3,8.06-8.51,15.08-16.29,17.29-7.18,2-17.1,4.94-23.6,5.48a35.88,35.88,0,0,1-13.1-1.41c-9.07-3.22-14.91-5.24-20.15-12.29,0,0-2.62-3.22-5.84-11.08-0.2-.2-0.2-1.81-0.81-4.63-0.4-2.82-.81-6.25-1-10.28-0.4-2-.81-8.46-1.21-14.51-0.2-4.23,0-8.66-.2-12.89C185.21,149.63,185.62,145.2,185.82,140.57Z" transform="translate(-89.02 -78.36)"/><path class="cls-2" d="M430.27,190v4c0,1.41-.3,4.75-0.3,6.16a59.48,59.48,0,0,1,.09,6,21.7,21.7,0,0,1-1.16,6.47,10.33,10.33,0,0,0-.26,1.69,7.36,7.36,0,0,1-1.81,3.39c-0.34.34-1.35-1.38-1.78-1.26s-2.19,2-4,2.82a9.11,9.11,0,0,1-4.56,1c-0.29,0-.22-0.69-0.41-0.82a5,5,0,0,0-2.48-.68c-0.42,0-.09,2.53-0.75,2.5-1.34-.07-2.1-1.79-3.05-1.79h-0.16c-0.55,0,.11.18-0.78,0.88-1.13.89-3.06,1.86-3.24,0.21-0.07-.63-1-12.17-1-13.58a45.51,45.51,0,0,0-.2-5.24c-0.2-1.81-.9-8.75-0.9-10.36,0-3-.2-4.23-0.2-7.25s0.4-5.44.4-8.46c0-3.43-.4-4.43-0.4-8.26l-0.4-9.63c0-2.82.2-8.71,0.2-11.13,0-3-.2-5.13-0.2-6.75,0-4,.2-8.69.2-12.32-3.54-.5-16.63-1.1-19.65-1.5-2.42-.4-4.23,0-4.84-3.26-0.4-1.41.4-1.86,0.4-3.06s-1.12-1.24-.6-3c0.23-.8.4-3,0.6-4.19,0.4-1.41-.13-3.66.27-4.46a6.54,6.54,0,0,1,3.43-3.83c1-.4,3-0.42,8.46-0.22,8.06,0.4,11.41-.33,18.67,0l24.38,0.05c4.63,0,6.85.2,11.48,0.2,1.61,0,3.22-.2,4.84-0.2,3.63,0,4.23.81,5.24,1.81,0.81,0.81,1.81.6,1.21,2.42-0.2.6-.6,0.6,0.4,1.61a2.56,2.56,0,0,1-.4,2.82c-1,1.21.81,3.83,0.81,5,0,0.6-.6,1.21-0.6,2v3.42c0,1.61-1.23,3.85-3,3.85l-12.47,1-9.68.45c0,2.62-.37,5.78-0.37,8.4s-1.08,34.78-1.08,40.22C430.53,182.38,430.47,184.74,430.27,190Z" transform="translate(-89.02 -78.36)"/></svg>